<?xml version="1.0" standalone="no"?>
  <!DOCTYPE svg PUBLIC "-//W3C//DTD SVG 1.1//EN" "http://www.w3.org/Graphics/SVG/1.1/DTD/svg11.dtd" >
  <svg>
  <metadata>
  Created by font-carrier
  </metadata>
  <defs>
  <font id="Mulish-MediumItalic" horiz-adv-x="1324" vert-adv-y="1324" >
    <font-face
      
      font-family="Mulish Medium"
      
      font-weight="400"
      
      font-stretch="normal"
      
      units-per-em="1000"
      
      ascent="1005"
      
      descent="-250"
      
    />
      <missing-glyph />

      

      
      <glyph glyph-name="uni41" unicode="&#x41;" d="M-26 0L398 705L479 705L684 0L592 0L536 200L573 176L144 176L191 200L73 0L-26 0M425 601L210 231L189 252L552 252L530 231L428 601L425 601Z"  horiz-adv-x="738" vert-adv-y="1000"  />

      
      <glyph glyph-name="unic1" unicode="&#xc1;" d="M-26 0L398 705L479 705L684 0L592 0L536 200L573 176L144 176L191 200L73 0L-26 0M425 601L210 231L189 252L552 252L530 231L428 601L425 601M415 765L546 937L648 937L483 765L415 765Z"  horiz-adv-x="738" vert-adv-y="1000"  />

      
      <glyph glyph-name="uni0102" unicode="&#x0102;" d="M-26 0L398 705L479 705L684 0L592 0L536 200L573 176L144 176L191 200L73 0L-26 0M425 601L210 231L189 252L552 252L530 231L428 601L425 601M452 760Q404 760 368 781Q332 802 312.50 840Q293 878 293 929L349 936Q347 881 376.50 850Q406 819 456 819Q506 819 539.50 850Q573 881 583 936L637 929Q625 851 574.50 805.50Q524 760 452 760Z"  horiz-adv-x="738" vert-adv-y="1000"  />

      
      <glyph glyph-name="uni1EAE" unicode="&#x1EAE;" d="M-26 0L398 705L479 705L684 0L592 0L536 200L573 176L144 176L191 200L73 0L-26 0M425 601L210 231L189 252L552 252L530 231L428 601L425 601M452 766Q383 766 341.50 806.50Q300 847 302 917L352 922Q353 875 379.50 848.50Q406 822 454 822Q503 822 533 848.50Q563 875 573 922L623 917Q612 847 566.50 806.50Q521 766 452 766M421 883L515 1023L609 1023L481 883L421 883Z"  horiz-adv-x="738" vert-adv-y="1000"  />

      
      <glyph glyph-name="uni1EB6" unicode="&#x1EB6;" d="M-26 0L398 705L479 705L684 0L592 0L536 200L573 176L144 176L191 200L73 0L-26 0M425 601L210 231L189 252L552 252L530 231L428 601L425 601M247-191L263-97L361-97L346-191L247-191M452 760Q404 760 368 781Q332 802 312.50 840Q293 878 293 929L349 936Q347 881 376.50 850Q406 819 456 819Q506 819 539.50 850Q573 881 583 936L637 929Q625 851 574.50 805.50Q524 760 452 760Z"  horiz-adv-x="738" vert-adv-y="1000"  />

      
      <glyph glyph-name="uni1EB0" unicode="&#x1EB0;" d="M-26 0L398 705L479 705L684 0L592 0L536 200L573 176L144 176L191 200L73 0L-26 0M425 601L210 231L189 252L552 252L530 231L428 601L425 601M452 760Q384 760 342.50 800.50Q301 841 303 911L352 916Q354 869 380 842.50Q406 816 454 816Q503 816 533 842.50Q563 869 574 916L623 911Q613 841 567 800.50Q521 760 452 760M435 877L334 1017L427 1017L496 877L435 877Z"  horiz-adv-x="738" vert-adv-y="1000"  />

      
      <glyph glyph-name="uni1EB2" unicode="&#x1EB2;" d="M-26 0L398 705L479 705L684 0L592 0L536 200L573 176L144 176L191 200L73 0L-26 0M425 601L210 231L189 252L552 252L530 231L428 601L425 601M450 760Q382 760 340.50 800.50Q299 841 301 911L350 916Q352 869 378 842.50Q404 816 452 816Q501 816 531 842.50Q561 869 572 916L621 911Q611 841 565 800.50Q519 760 450 760M430 877Q432 898 442 910Q452 922 464.50 929.50Q477 937 486.50 944.50Q496 952 496 963Q496 973 485 976.50Q474 980 458 980Q443 980 425 977Q407 974 392 969L383 1009Q402 1017 424 1021.50Q446 1026 474 1026Q516 1026 538.50 1013Q561 1000 561 978Q561 957 550 945Q539 933 524.50 924.50Q510 916 498 905.50Q486 895 485 877L430 877Z"  horiz-adv-x="738" vert-adv-y="1000"  />

      
      <glyph glyph-name="uni1EB4" unicode="&#x1EB4;" d="M-26 0L398 705L479 705L684 0L592 0L536 200L573 176L144 176L191 200L73 0L-26 0M425 601L210 231L189 252L552 252L530 231L428 601L425 601M450 760Q389 760 347 790Q305 820 296 871L346 882Q355 851 382 833.50Q409 816 452 816Q495 816 524 833.50Q553 851 567 882L616 871Q599 820 555 790Q511 760 450 760M348 920L301 922Q309 973 335 999Q361 1025 402 1025Q424 1025 443 1016.50Q462 1008 479 997Q493 989 506.50 982Q520 975 534 975Q557 975 569.50 987Q582 999 589 1027L637 1024Q629 973 602.50 947Q576 921 536 921Q514 921 495 929.50Q476 938 459 949Q445 958 431 965Q417 972 403 972Q381 972 368.50 959.50Q356 947 348 920Z"  horiz-adv-x="738" vert-adv-y="1000"  />

      
      <glyph glyph-name="uni01CD" unicode="&#x01CD;" d="M-26 0L398 705L479 705L684 0L592 0L536 200L573 176L144 176L191 200L73 0L-26 0M425 601L210 231L189 252L552 252L530 231L428 601L425 601M407 765L302 937L366 937L451 822L562 937L631 937L490 765L407 765Z"  horiz-adv-x="738" vert-adv-y="1000"  />

      
      <glyph glyph-name="unic2" unicode="&#xc2;" d="M-26 0L398 705L479 705L684 0L592 0L536 200L573 176L144 176L191 200L73 0L-26 0M425 601L210 231L189 252L552 252L530 231L428 601L425 601M278 765L418 937L501 937L606 765L540 765L456 880L344 765L278 765Z"  horiz-adv-x="738" vert-adv-y="1000"  />

      
      <glyph glyph-name="uni1EA4" unicode="&#x1EA4;" d="M-26 0L398 705L479 705L684 0L592 0L536 200L573 176L144 176L191 200L73 0L-26 0M425 601L210 231L189 252L552 252L530 231L428 601L425 601M294 765L418 927L502 927L598 765L537 765L456 872L355 765L294 765M553 870L650 1020L735 1020L609 870L553 870Z"  horiz-adv-x="738" vert-adv-y="1000"  />

      
      <glyph glyph-name="uni1EAC" unicode="&#x1EAC;" d="M-26 0L398 705L479 705L684 0L592 0L536 200L573 176L144 176L191 200L73 0L-26 0M425 601L210 231L189 252L552 252L530 231L428 601L425 601M247-191L263-97L361-97L346-191L247-191M278 765L418 937L501 937L606 765L540 765L456 880L344 765L278 765Z"  horiz-adv-x="738" vert-adv-y="1000"  />

      
      <glyph glyph-name="uni1EA6" unicode="&#x1EA6;" d="M-26 0L398 705L479 705L684 0L592 0L536 200L573 176L144 176L191 200L73 0L-26 0M425 601L210 231L189 252L552 252L530 231L428 601L425 601M294 765L418 927L502 927L598 765L537 765L456 872L355 765L294 765M592 870L493 1020L576 1020L650 870L592 870Z"  horiz-adv-x="738" vert-adv-y="1000"  />

      
      <glyph glyph-name="uni1EA8" unicode="&#x1EA8;" d="M-26 0L398 705L479 705L684 0L592 0L536 200L573 176L144 176L191 200L73 0L-26 0M425 601L210 231L189 252L552 252L530 231L428 601L425 601M294 765L418 927L502 927L598 765L537 765L456 872L355 765L294 765M559 870Q561 891 571 903.50Q581 916 593.50 924.50Q606 933 615.50 941Q625 949 625 961Q625 970 614.50 974Q604 978 588 978Q572 978 554 974.50Q536 971 522 966L513 1006Q532 1014 554 1019Q576 1024 603 1024Q645 1024 667.50 1011Q690 998 690 976Q690 955 679 942Q668 929 653 919.50Q638 910 626.50 899Q615 888 613 870L559 870Z"  horiz-adv-x="738" vert-adv-y="1000"  />

      
      <glyph glyph-name="uni1EAA" unicode="&#x1EAA;" d="M-26 0L398 705L479 705L684 0L592 0L536 200L573 176L144 176L191 200L73 0L-26 0M425 601L210 231L189 252L552 252L530 231L428 601L425 601M295 765L416 897L500 897L598 765L539 765L454 847L354 765L295 765M348 922L301 925Q309 976 335.50 1002Q362 1028 402 1028Q425 1028 442.50 1019Q460 1010 476 1000Q490 991 502.50 984Q515 977 529 977Q552 977 564 989.50Q576 1002 584 1029L631 1026Q623 975 597 949Q571 923 531 923Q509 923 490.50 932Q472 941 457 951Q443 961 430 967.50Q417 974 404 974Q381 974 368 961.50Q355 949 348 922Z"  horiz-adv-x="738" vert-adv-y="1000"  />

      
      <glyph glyph-name="uni0200" unicode="&#x0200;" d="M-26 0L398 705L479 705L684 0L592 0L536 200L573 176L144 176L191 200L73 0L-26 0M425 601L210 231L189 252L552 252L530 231L428 601L425 601M488 765L382 937L469 937L541 765L488 765M357 765L246 937L332 937L410 765L357 765Z"  horiz-adv-x="738" vert-adv-y="1000"  />

      
      <glyph glyph-name="unic4" unicode="&#xc4;" d="M-26 0L398 705L479 705L684 0L592 0L536 200L573 176L144 176L191 200L73 0L-26 0M425 601L210 231L189 252L552 252L530 231L428 601L425 601M497 802L512 895L605 895L589 802L497 802M319 802L334 895L427 895L412 802L319 802Z"  horiz-adv-x="738" vert-adv-y="1000"  />

      
      <glyph glyph-name="uni0226" unicode="&#x0226;" d="M-26 0L398 705L479 705L684 0L592 0L536 200L573 176L144 176L191 200L73 0L-26 0M425 601L210 231L189 252L552 252L530 231L428 601L425 601M407 804L421 898L518 898L503 804L407 804Z"  horiz-adv-x="738" vert-adv-y="1000"  />

      
      <glyph glyph-name="uni1EA0" unicode="&#x1EA0;" d="M-26 0L398 705L479 705L684 0L592 0L536 200L573 176L144 176L191 200L73 0L-26 0M425 601L210 231L189 252L552 252L530 231L428 601L425 601M247-191L263-97L361-97L346-191L247-191Z"  horiz-adv-x="738" vert-adv-y="1000"  />

      
      <glyph glyph-name="unic0" unicode="&#xc0;" d="M-26 0L398 705L479 705L684 0L592 0L536 200L573 176L144 176L191 200L73 0L-26 0M425 601L210 231L189 252L552 252L530 231L428 601L425 601M415 765L279 937L378 937L483 765L415 765Z"  horiz-adv-x="738" vert-adv-y="1000"  />

      
      <glyph glyph-name="uni1EA2" unicode="&#x1EA2;" d="M-26 0L398 705L479 705L684 0L592 0L536 200L573 176L144 176L191 200L73 0L-26 0M425 601L210 231L189 252L552 252L530 231L428 601L425 601M419 765L421 781Q424 801 435 813.50Q446 826 459 835Q472 844 481.50 852.50Q491 861 491 873Q491 883 480 888Q469 893 448 893Q432 893 417 889.50Q402 886 384 879L372 923Q413 944 471 944Q515 944 539 928Q563 912 563 886Q563 862 551.50 848.50Q540 835 524 826Q508 817 495.50 806Q483 795 481 776L480 765L419 765Z"  horiz-adv-x="738" vert-adv-y="1000"  />

      
      <glyph glyph-name="uni0202" unicode="&#x0202;" d="M-26 0L398 705L479 705L684 0L592 0L536 200L573 176L144 176L191 200L73 0L-26 0M425 601L210 231L189 252L552 252L530 231L428 601L425 601M328 760L272 767Q285 846 335.50 891Q386 936 459 936Q506 936 542 915.50Q578 895 598 856.50Q618 818 617 767L561 760Q563 816 533.50 846.50Q504 877 454 877Q404 877 370 846.50Q336 816 328 760Z"  horiz-adv-x="738" vert-adv-y="1000"  />

      
      <glyph glyph-name="uni0100" unicode="&#x0100;" d="M-26 0L398 705L479 705L684 0L592 0L536 200L573 176L144 176L191 200L73 0L-26 0M425 601L210 231L189 252L552 252L530 231L428 601L425 601M291 813L300 872L631 872L622 813L291 813Z"  horiz-adv-x="738" vert-adv-y="1000"  />

      
      <glyph glyph-name="uni0104" unicode="&#x0104;" d="M-26 0L398 705L479 705L684 0L592 0L536 200L573 176L144 176L191 200L73 0L-26 0M425 601L210 231L189 252L552 252L530 231L428 601L425 601M625-193Q577-193 551-168Q525-143 525-102Q525-55 556-18.50Q587 18 634 37L660 0Q623-15 605.50-39Q588-63 588-88Q588-111 602-125Q616-139 641-139Q654-139 667-136Q680-133 695-127L705-177Q687-184 667-188.50Q647-193 625-193Z"  horiz-adv-x="738" vert-adv-y="1000"  />

      
      <glyph glyph-name="unic5" unicode="&#xc5;" d="M-26 0L398 705L479 705L684 0L592 0L536 200L573 176L144 176L191 200L73 0L-26 0M425 601L210 231L189 252L552 252L530 231L428 601L425 601M464 757Q430 757 402.50 773Q375 789 359 816Q343 843 343 875Q343 908 359 934.50Q375 961 402.50 976.50Q430 992 463 992Q498 992 525 976.50Q552 961 568 934.50Q584 908 584 875Q584 842 568 815.50Q552 789 525 773Q498 757 464 757M464 804Q495 804 514.50 824.50Q534 845 534 875Q534 905 514.50 925Q495 945 464 945Q433 945 413 924.50Q393 904 393 875Q393 845 413 824.50Q433 804 464 804Z"  horiz-adv-x="738" vert-adv-y="1000"  />

      
      <glyph glyph-name="uni01FA" unicode="&#x01FA;" d="M-26 0L398 705L479 705L684 0L592 0L536 200L573 176L144 176L191 200L73 0L-26 0M425 601L210 231L189 252L552 252L530 231L428 601L425 601M450 757Q417 757 390 772.50Q363 788 347.50 814Q332 840 332 872Q332 904 347.50 929.50Q363 955 390 970.50Q417 986 450 986Q468 986 484.50 981Q501 976 515 967L584 1031L668 1031L550 930Q567 905 567 872Q567 840 551.50 814Q536 788 509.50 772.50Q483 757 450 757M450 801Q480 801 500 821.50Q520 842 520 872Q520 902 500 922Q480 942 449 942Q419 942 399 922Q379 902 379 872Q379 842 399 821.50Q419 801 450 801Z"  horiz-adv-x="738" vert-adv-y="1000"  />

      
      <glyph glyph-name="unic3" unicode="&#xc3;" d="M-26 0L398 705L479 705L684 0L592 0L536 200L573 176L144 176L191 200L73 0L-26 0M425 601L210 231L189 252L552 252L530 231L428 601L425 601M286 780L236 783Q247 849 281.50 884.50Q316 920 366 920Q396 920 421.50 907Q447 894 470 879Q490 867 508 857Q526 847 545 847Q602 847 621 923L671 920Q660 855 626 819Q592 783 542 783Q512 783 486.50 796.50Q461 810 438 824Q418 837 399.50 847Q381 857 362 857Q305 857 286 780Z"  horiz-adv-x="738" vert-adv-y="1000"  />

      
      <glyph glyph-name="unic6" unicode="&#xc6;" d="M-46 0L497 705L1032 705L1019 629L625 629L651 652L632 371L618 396L962 396L950 320L612 320L628 330L610 52L601 76L932 76L920 0L519 0L532 196L556 176L175 176L213 201L61 0L-46 0M535 628L234 230L225 252L548 252L536 228L563 628L535 628Z"  horiz-adv-x="1008" vert-adv-y="1000"  />

      
      <glyph glyph-name="uni01FC" unicode="&#x01FC;" d="M-46 0L497 705L1032 705L1019 629L625 629L651 652L632 371L618 396L962 396L950 320L612 320L628 330L610 52L601 76L932 76L920 0L519 0L532 196L556 176L175 176L213 201L61 0L-46 0M535 628L234 230L225 252L548 252L536 228L563 628L535 628M565 765L696 937L798 937L633 765L565 765Z"  horiz-adv-x="1008" vert-adv-y="1000"  />

      
      <glyph glyph-name="uni42" unicode="&#x42;" d="M46 0L158 705L450 705Q560 705 612.50 656Q665 607 651 515Q640 449 594.50 407.50Q549 366 478 351L480 366Q556 357 591.50 308Q627 259 616 185Q601 93 532.50 46.50Q464 0 349 0L46 0M148 74L350 74Q423 74 469.50 101.50Q516 129 526 189Q534 238 519 266.50Q504 295 472 307.50Q440 320 394 320L186 320L148 74M199 394L383 394Q462 394 505.50 423Q549 452 557 505Q567 570 535.50 601Q504 632 433 632L236 632L199 394Z"  horiz-adv-x="683" vert-adv-y="1000"  />

      
      <glyph glyph-name="uni0181" unicode="&#x0181;" d="M180 0L280 635L248 635Q192 635 161.50 609.50Q131 584 122 530L114 484L36 484L44 533Q58 620 112.50 662.50Q167 705 269 705L584 705Q694 705 747 656Q800 607 786 515Q775 449 729 407.50Q683 366 613 351L615 366Q690 357 726 308Q762 259 750 185Q736 93 667 46.50Q598 0 483 0L180 0M282 74L484 74Q557 74 603.50 101.50Q650 129 660 189Q668 238 653.50 266.50Q639 295 606.50 307.50Q574 320 528 320L321 320L282 74M333 394L518 394Q596 394 640 423Q684 452 692 505Q702 570 670 601Q638 632 567 632L370 632L333 394Z"  horiz-adv-x="818" vert-adv-y="1000"  />

      
      <glyph glyph-name="uni43" unicode="&#x43;" d="M375-9Q258-9 186.50 38.50Q115 86 88 170.50Q61 255 78 366Q96 477 147 555Q198 633 278 674Q358 715 461 714Q533 714 588 693.50Q643 673 682 634L646 559Q603 598 559.50 614Q516 630 456 630Q342 630 269 559Q196 488 175 357Q162 272 179.50 208.50Q197 145 248 110Q299 75 384 75Q438 75 490.50 93.50Q543 112 590 153L621 80Q574 37 508.50 14Q443-9 375-9Z"  horiz-adv-x="685" vert-adv-y="1000"  />

      
      <glyph glyph-name="uni0106" unicode="&#x0106;" d="M375-9Q258-9 186.50 38.50Q115 86 88 170.50Q61 255 78 366Q96 477 147 555Q198 633 278 674Q358 715 461 714Q533 714 588 693.50Q643 673 682 634L646 559Q603 598 559.50 614Q516 630 456 630Q342 630 269 559Q196 488 175 357Q162 272 179.50 208.50Q197 145 248 110Q299 75 384 75Q438 75 490.50 93.50Q543 112 590 153L621 80Q574 37 508.50 14Q443-9 375-9M441 765L572 937L674 937L509 765L441 765Z"  horiz-adv-x="685" vert-adv-y="1000"  />

      
      <glyph glyph-name="uni010C" unicode="&#x010C;" d="M375-9Q258-9 186.50 38.50Q115 86 88 170.50Q61 255 78 366Q96 477 147 555Q198 633 278 674Q358 715 461 714Q533 714 588 693.50Q643 673 682 634L646 559Q603 598 559.50 614Q516 630 456 630Q342 630 269 559Q196 488 175 357Q162 272 179.50 208.50Q197 145 248 110Q299 75 384 75Q438 75 490.50 93.50Q543 112 590 153L621 80Q574 37 508.50 14Q443-9 375-9M433 765L328 937L392 937L477 822L588 937L657 937L516 765L433 765Z"  horiz-adv-x="685" vert-adv-y="1000"  />

      
      <glyph glyph-name="unic7" unicode="&#xc7;" d="M375-9Q258-9 186.50 38.50Q115 86 88 170.50Q61 255 78 366Q96 477 147 555Q198 633 278 674Q358 715 461 714Q533 714 588 693.50Q643 673 682 634L646 559Q603 598 559.50 614Q516 630 456 630Q342 630 269 559Q196 488 175 357Q162 272 179.50 208.50Q197 145 248 110Q299 75 384 75Q438 75 490.50 93.50Q543 112 590 153L621 80Q574 37 508.50 14Q443-9 375-9M331-193Q305-193 281-187.50Q257-182 241-173L259-126Q277-135 293.50-139Q310-143 332-143Q359-143 376-133.50Q393-124 393-105Q393-94 384-87.50Q375-81 358-81Q348-81 337.50-82.50Q327-84 311-88L296-72L325 20L380 20L355-56L329-48Q342-45 353.50-43Q365-41 375-41Q410-41 431.50-57Q453-73 453-104Q453-144 418.50-168.50Q384-193 331-193Z"  horiz-adv-x="685" vert-adv-y="1000"  />

      
      <glyph glyph-name="uni1E08" unicode="&#x1E08;" d="M375-9Q258-9 186.50 38.50Q115 86 88 170.50Q61 255 78 366Q96 477 147 555Q198 633 278 674Q358 715 461 714Q533 714 588 693.50Q643 673 682 634L646 559Q603 598 559.50 614Q516 630 456 630Q342 630 269 559Q196 488 175 357Q162 272 179.50 208.50Q197 145 248 110Q299 75 384 75Q438 75 490.50 93.50Q543 112 590 153L621 80Q574 37 508.50 14Q443-9 375-9M331-193Q305-193 281-187.50Q257-182 241-173L259-126Q277-135 293.50-139Q310-143 332-143Q359-143 376-133.50Q393-124 393-105Q393-94 384-87.50Q375-81 358-81Q348-81 337.50-82.50Q327-84 311-88L296-72L325 20L380 20L355-56L329-48Q342-45 353.50-43Q365-41 375-41Q410-41 431.50-57Q453-73 453-104Q453-144 418.50-168.50Q384-193 331-193M441 765L572 937L674 937L509 765L441 765Z"  horiz-adv-x="685" vert-adv-y="1000"  />

      
      <glyph glyph-name="uni0108" unicode="&#x0108;" d="M375-9Q258-9 186.50 38.50Q115 86 88 170.50Q61 255 78 366Q96 477 147 555Q198 633 278 674Q358 715 461 714Q533 714 588 693.50Q643 673 682 634L646 559Q603 598 559.50 614Q516 630 456 630Q342 630 269 559Q196 488 175 357Q162 272 179.50 208.50Q197 145 248 110Q299 75 384 75Q438 75 490.50 93.50Q543 112 590 153L621 80Q574 37 508.50 14Q443-9 375-9M303 765L443 937L526 937L631 765L565 765L481 880L369 765L303 765Z"  horiz-adv-x="685" vert-adv-y="1000"  />

      
      <glyph glyph-name="uni010A" unicode="&#x010A;" d="M375-9Q258-9 186.50 38.50Q115 86 88 170.50Q61 255 78 366Q96 477 147 555Q198 633 278 674Q358 715 461 714Q533 714 588 693.50Q643 673 682 634L646 559Q603 598 559.50 614Q516 630 456 630Q342 630 269 559Q196 488 175 357Q162 272 179.50 208.50Q197 145 248 110Q299 75 384 75Q438 75 490.50 93.50Q543 112 590 153L621 80Q574 37 508.50 14Q443-9 375-9M432 804L446 898L543 898L528 804L432 804Z"  horiz-adv-x="685" vert-adv-y="1000"  />

      
      <glyph glyph-name="uni44" unicode="&#x44;" d="M46 0L158 705L387 705Q512 705 588 661.50Q664 618 693 536Q722 454 704 340Q676 169 569.50 84.50Q463 0 288 0L46 0M152 79L291 79Q431 79 510 145.50Q589 212 611 349Q633 490 574.50 558Q516 626 376 626L238 626L152 79Z"  horiz-adv-x="750" vert-adv-y="1000"  />

      
      <glyph glyph-name="uni01C4" unicode="&#x01C4;" d="M46 0L158 705L387 705Q512 705 588 661.50Q664 618 693 536Q722 454 704 340Q676 169 569.50 84.50Q463 0 288 0L46 0M152 79L291 79Q431 79 510 145.50Q589 212 611 349Q633 490 574.50 558Q516 626 376 626L238 626L152 79M739 0L750 69L1257 659L1252 626L838 626L851 705L1359 705L1348 637L840 46L844 79L1271 79L1259 0L739 0M1079 765L974 937L1038 937L1123 822L1234 937L1303 937L1162 765L1079 765Z"  horiz-adv-x="1334" vert-adv-y="1000"  />

      
      <glyph glyph-name="unid0" unicode="&#xd0;" d="M46 0L158 705L387 705Q512 705 588 661.50Q664 618 693 536Q722 454 704 340Q676 169 569.50 84.50Q463 0 288 0L46 0M152 79L291 79Q431 79 510 145.50Q589 212 611 349Q633 490 574.50 558Q516 626 376 626L238 626L152 79M11 322L22 393L398 393L387 322L11 322Z"  horiz-adv-x="750" vert-adv-y="1000"  />

      
      <glyph glyph-name="uni010E" unicode="&#x010E;" d="M46 0L158 705L387 705Q512 705 588 661.50Q664 618 693 536Q722 454 704 340Q676 169 569.50 84.50Q463 0 288 0L46 0M152 79L291 79Q431 79 510 145.50Q589 212 611 349Q633 490 574.50 558Q516 626 376 626L238 626L152 79M421 765L316 937L380 937L465 822L576 937L645 937L504 765L421 765Z"  horiz-adv-x="750" vert-adv-y="1000"  />

      
      <glyph glyph-name="uni0110" unicode="&#x0110;" d="M46 0L158 705L387 705Q512 705 588 661.50Q664 618 693 536Q722 454 704 340Q676 169 569.50 84.50Q463 0 288 0L46 0M152 79L291 79Q431 79 510 145.50Q589 212 611 349Q633 490 574.50 558Q516 626 376 626L238 626L152 79M11 322L22 393L398 393L387 322L11 322Z"  horiz-adv-x="750" vert-adv-y="1000"  />

      
      <glyph glyph-name="uni1E0C" unicode="&#x1E0C;" d="M46 0L158 705L387 705Q512 705 588 661.50Q664 618 693 536Q722 454 704 340Q676 169 569.50 84.50Q463 0 288 0L46 0M152 79L291 79Q431 79 510 145.50Q589 212 611 349Q633 490 574.50 558Q516 626 376 626L238 626L152 79M261-191L277-97L375-97L360-191L261-191Z"  horiz-adv-x="750" vert-adv-y="1000"  />

      
      <glyph glyph-name="uni018A" unicode="&#x018A;" d="M180 0L280 635L248 635Q192 635 161.50 609.50Q131 584 122 530L114 484L36 484L44 533Q58 620 112.50 662.50Q167 705 263 705L522 705Q647 705 723 661.50Q799 618 828 536Q857 454 839 340Q811 169 704.50 84.50Q598 0 422 0L180 0M286 79L425 79Q565 79 644.50 145.50Q724 212 746 349Q768 490 709.50 558Q651 626 510 626L373 626L286 79Z"  horiz-adv-x="885" vert-adv-y="1000"  />

      
      <glyph glyph-name="uni1E0E" unicode="&#x1E0E;" d="M46 0L158 705L387 705Q512 705 588 661.50Q664 618 693 536Q722 454 704 340Q676 169 569.50 84.50Q463 0 288 0L46 0M152 79L291 79Q431 79 510 145.50Q589 212 611 349Q633 490 574.50 558Q516 626 376 626L238 626L152 79M166-158L175-99L476-99L467-158L166-158Z"  horiz-adv-x="750" vert-adv-y="1000"  />

      
      <glyph glyph-name="uni01C5" unicode="&#x01C5;" d="M46 0L158 705L387 705Q512 705 588 661.50Q664 618 693 536Q722 454 704 340Q676 169 569.50 84.50Q463 0 288 0L46 0M152 79L291 79Q431 79 510 145.50Q589 212 611 349Q633 490 574.50 558Q516 626 376 626L238 626L152 79M759 0L769 61L1160 456L1156 433L828 433L839 503L1256 503L1247 442L854 45L857 70L1199 70L1188 0L759 0M1016 552L928 754L988 754L1062 610L1170 754L1231 754L1100 552L1016 552Z"  horiz-adv-x="1270" vert-adv-y="1000"  />

      
      <glyph glyph-name="uni45" unicode="&#x45;" d="M46 0L158 705L614 705L601 629L235 629L199 396L542 396L530 320L187 320L148 76L513 76L502 0L46 0Z"  horiz-adv-x="590" vert-adv-y="1000"  />

      
      <glyph glyph-name="unic9" unicode="&#xc9;" d="M46 0L158 705L614 705L601 629L235 629L199 396L542 396L530 320L187 320L148 76L513 76L502 0L46 0M377 765L508 937L610 937L445 765L377 765Z"  horiz-adv-x="590" vert-adv-y="1000"  />

      
      <glyph glyph-name="uni0114" unicode="&#x0114;" d="M46 0L158 705L614 705L601 629L235 629L199 396L542 396L530 320L187 320L148 76L513 76L502 0L46 0M414 760Q366 760 330 781Q294 802 274.50 840Q255 878 255 929L311 936Q309 881 338.50 850Q368 819 418 819Q468 819 501.50 850Q535 881 545 936L599 929Q587 851 536.50 805.50Q486 760 414 760Z"  horiz-adv-x="590" vert-adv-y="1000"  />

      
      <glyph glyph-name="uni011A" unicode="&#x011A;" d="M46 0L158 705L614 705L601 629L235 629L199 396L542 396L530 320L187 320L148 76L513 76L502 0L46 0M369 765L264 937L328 937L413 822L524 937L593 937L452 765L369 765Z"  horiz-adv-x="590" vert-adv-y="1000"  />

      
      <glyph glyph-name="uni0228" unicode="&#x0228;" d="M46 0L158 705L614 705L601 629L235 629L199 396L542 396L530 320L187 320L148 76L513 76L502 0L46 0M268-193Q242-193 218-187.50Q194-182 178-173L196-126Q214-135 230.50-139Q247-143 269-143Q296-143 313-133.50Q330-124 330-105Q330-94 321-87.50Q312-81 295-81Q285-81 274.50-82.50Q264-84 248-88L233-72L262 20L317 20L292-56L266-48Q279-45 290.50-43Q302-41 312-41Q347-41 368.50-57Q390-73 390-104Q390-144 355.50-168.50Q321-193 268-193Z"  horiz-adv-x="590" vert-adv-y="1000"  />

      
      <glyph glyph-name="uni1E1C" unicode="&#x1E1C;" d="M46 0L158 705L614 705L601 629L235 629L199 396L542 396L530 320L187 320L148 76L513 76L502 0L46 0M268-193Q242-193 218-187.50Q194-182 178-173L196-126Q214-135 230.50-139Q247-143 269-143Q296-143 313-133.50Q330-124 330-105Q330-94 321-87.50Q312-81 295-81Q285-81 274.50-82.50Q264-84 248-88L233-72L262 20L317 20L292-56L266-48Q279-45 290.50-43Q302-41 312-41Q347-41 368.50-57Q390-73 390-104Q390-144 355.50-168.50Q321-193 268-193M414 760Q366 760 330 781Q294 802 274.50 840Q255 878 255 929L311 936Q309 881 338.50 850Q368 819 418 819Q468 819 501.50 850Q535 881 545 936L599 929Q587 851 536.50 805.50Q486 760 414 760Z"  horiz-adv-x="590" vert-adv-y="1000"  />

      
      <glyph glyph-name="unica" unicode="&#xca;" d="M46 0L158 705L614 705L601 629L235 629L199 396L542 396L530 320L187 320L148 76L513 76L502 0L46 0M239 765L379 937L462 937L567 765L501 765L417 880L305 765L239 765Z"  horiz-adv-x="590" vert-adv-y="1000"  />

      
      <glyph glyph-name="uni1EBE" unicode="&#x1EBE;" d="M46 0L158 705L614 705L601 629L235 629L199 396L542 396L530 320L187 320L148 76L513 76L502 0L46 0M256 765L380 927L464 927L560 765L499 765L418 872L317 765L256 765M515 870L612 1020L697 1020L571 870L515 870Z"  horiz-adv-x="590" vert-adv-y="1000"  />

      
      <glyph glyph-name="uni1EC6" unicode="&#x1EC6;" d="M46 0L158 705L614 705L601 629L235 629L199 396L542 396L530 320L187 320L148 76L513 76L502 0L46 0M209-191L225-97L323-97L308-191L209-191M239 765L379 937L462 937L567 765L501 765L417 880L305 765L239 765Z"  horiz-adv-x="590" vert-adv-y="1000"  />

      
      <glyph glyph-name="uni1EC0" unicode="&#x1EC0;" d="M46 0L158 705L614 705L601 629L235 629L199 396L542 396L530 320L187 320L148 76L513 76L502 0L46 0M256 765L380 927L464 927L560 765L499 765L418 872L317 765L256 765M554 870L455 1020L538 1020L612 870L554 870Z"  horiz-adv-x="590" vert-adv-y="1000"  />

      
      <glyph glyph-name="uni1EC2" unicode="&#x1EC2;" d="M46 0L158 705L614 705L601 629L235 629L199 396L542 396L530 320L187 320L148 76L513 76L502 0L46 0M256 765L380 927L464 927L560 765L499 765L418 872L317 765L256 765M521 870Q523 891 533 903.50Q543 916 555.50 924.50Q568 933 577.50 941Q587 949 587 961Q587 970 576.50 974Q566 978 550 978Q534 978 516 974.50Q498 971 484 966L475 1006Q494 1014 516 1019Q538 1024 565 1024Q607 1024 629.50 1011Q652 998 652 976Q652 955 641 942Q630 929 615 919.50Q600 910 588.50 899Q577 888 575 870L521 870Z"  horiz-adv-x="590" vert-adv-y="1000"  />

      
      <glyph glyph-name="uni1EC4" unicode="&#x1EC4;" d="M46 0L158 705L614 705L601 629L235 629L199 396L542 396L530 320L187 320L148 76L513 76L502 0L46 0M256 765L377 897L461 897L559 765L500 765L415 847L315 765L256 765M309 922L262 925Q270 976 296.50 1002Q323 1028 363 1028Q386 1028 403.50 1019Q421 1010 437 1000Q451 991 463.50 984Q476 977 490 977Q513 977 525 989.50Q537 1002 545 1029L592 1026Q584 975 558 949Q532 923 492 923Q470 923 451.50 932Q433 941 418 951Q404 961 391 967.50Q378 974 365 974Q342 974 329 961.50Q316 949 309 922Z"  horiz-adv-x="590" vert-adv-y="1000"  />

      
      <glyph glyph-name="uni0204" unicode="&#x0204;" d="M46 0L158 705L614 705L601 629L235 629L199 396L542 396L530 320L187 320L148 76L513 76L502 0L46 0M450 765L344 937L431 937L503 765L450 765M319 765L208 937L294 937L372 765L319 765Z"  horiz-adv-x="590" vert-adv-y="1000"  />

      
      <glyph glyph-name="unicb" unicode="&#xcb;" d="M46 0L158 705L614 705L601 629L235 629L199 396L542 396L530 320L187 320L148 76L513 76L502 0L46 0M458 802L473 895L566 895L550 802L458 802M280 802L295 895L388 895L373 802L280 802Z"  horiz-adv-x="590" vert-adv-y="1000"  />

      
      <glyph glyph-name="uni0116" unicode="&#x0116;" d="M46 0L158 705L614 705L601 629L235 629L199 396L542 396L530 320L187 320L148 76L513 76L502 0L46 0M368 804L382 898L479 898L464 804L368 804Z"  horiz-adv-x="590" vert-adv-y="1000"  />

      
      <glyph glyph-name="uni1EB8" unicode="&#x1EB8;" d="M46 0L158 705L614 705L601 629L235 629L199 396L542 396L530 320L187 320L148 76L513 76L502 0L46 0M209-191L225-97L323-97L308-191L209-191Z"  horiz-adv-x="590" vert-adv-y="1000"  />

      
      <glyph glyph-name="unic8" unicode="&#xc8;" d="M46 0L158 705L614 705L601 629L235 629L199 396L542 396L530 320L187 320L148 76L513 76L502 0L46 0M377 765L241 937L340 937L445 765L377 765Z"  horiz-adv-x="590" vert-adv-y="1000"  />

      
      <glyph glyph-name="uni1EBA" unicode="&#x1EBA;" d="M46 0L158 705L614 705L601 629L235 629L199 396L542 396L530 320L187 320L148 76L513 76L502 0L46 0M380 765L382 781Q385 801 396 813.50Q407 826 420 835Q433 844 442.50 852.50Q452 861 452 873Q452 883 441 888Q430 893 409 893Q393 893 378 889.50Q363 886 345 879L333 923Q374 944 432 944Q476 944 500 928Q524 912 524 886Q524 862 512.50 848.50Q501 835 485 826Q469 817 456.50 806Q444 795 442 776L441 765L380 765Z"  horiz-adv-x="590" vert-adv-y="1000"  />

      
      <glyph glyph-name="uni0206" unicode="&#x0206;" d="M46 0L158 705L614 705L601 629L235 629L199 396L542 396L530 320L187 320L148 76L513 76L502 0L46 0M290 760L234 767Q247 846 297.50 891Q348 936 421 936Q468 936 504 915.50Q540 895 560 856.50Q580 818 579 767L523 760Q525 816 495.50 846.50Q466 877 416 877Q366 877 332 846.50Q298 816 290 760Z"  horiz-adv-x="590" vert-adv-y="1000"  />

      
      <glyph glyph-name="uni0112" unicode="&#x0112;" d="M46 0L158 705L614 705L601 629L235 629L199 396L542 396L530 320L187 320L148 76L513 76L502 0L46 0M252 813L261 872L592 872L583 813L252 813Z"  horiz-adv-x="590" vert-adv-y="1000"  />

      
      <glyph glyph-name="uni1E16" unicode="&#x1E16;" d="M46 0L158 705L614 705L601 629L235 629L199 396L542 396L530 320L187 320L148 76L513 76L502 0L46 0M263 788L273 848L573 848L564 788L263 788M399 885L494 1024L587 1024L460 885L399 885Z"  horiz-adv-x="590" vert-adv-y="1000"  />

      
      <glyph glyph-name="uni1E14" unicode="&#x1E14;" d="M46 0L158 705L614 705L601 629L235 629L199 396L542 396L530 320L187 320L148 76L513 76L502 0L46 0M399 885L296 1024L388 1024L459 885L399 885M263 788L272 848L573 848L564 788L263 788Z"  horiz-adv-x="590" vert-adv-y="1000"  />

      
      <glyph glyph-name="uni0118" unicode="&#x0118;" d="M46 0L158 705L614 705L601 629L235 629L199 396L542 396L530 320L187 320L148 76L513 76L502 0L46 0M431-193Q383-193 357-168Q331-143 331-102Q331-55 362-18.50Q393 18 440 37L466 0Q429-15 411.50-39Q394-63 394-88Q394-111 408-125Q422-139 447-139Q460-139 473-136Q486-133 501-127L511-177Q493-184 473-188.50Q453-193 431-193Z"  horiz-adv-x="590" vert-adv-y="1000"  />

      
      <glyph glyph-name="uni1EBC" unicode="&#x1EBC;" d="M46 0L158 705L614 705L601 629L235 629L199 396L542 396L530 320L187 320L148 76L513 76L502 0L46 0M247 780L197 783Q208 849 242.50 884.50Q277 920 327 920Q357 920 382.50 907Q408 894 431 879Q451 867 469 857Q487 847 506 847Q563 847 582 923L632 920Q621 855 587 819Q553 783 503 783Q473 783 447.50 796.50Q422 810 399 824Q379 837 360.50 847Q342 857 323 857Q266 857 247 780Z"  horiz-adv-x="590" vert-adv-y="1000"  />

      
      <glyph glyph-name="uni46" unicode="&#x46;" d="M46 0L158 705L604 705L591 629L238 629L202 393L532 393L520 317L190 317L139 0L46 0Z"  horiz-adv-x="565" vert-adv-y="1000"  />

      
      <glyph glyph-name="uni47" unicode="&#x47;" d="M383-9Q261-9 187 37Q113 83 86.50 167Q60 251 78 365Q96 477 149 554.50Q202 632 285 673Q368 714 475 714Q552 714 606 694.50Q660 675 697 640L660 565Q619 600 577.50 615.50Q536 631 471 631Q348 631 272 558.50Q196 486 175 354Q154 221 205 147Q256 73 390 73Q441 73 486 82Q531 91 576 109L546 61L583 300L407 300L419 372L675 372L623 45Q592 28 551.50 16Q511 4 467-2.50Q423-9 383-9Z"  horiz-adv-x="733" vert-adv-y="1000"  />

      
      <glyph glyph-name="uni011E" unicode="&#x011E;" d="M383-9Q261-9 187 37Q113 83 86.50 167Q60 251 78 365Q96 477 149 554.50Q202 632 285 673Q368 714 475 714Q552 714 606 694.50Q660 675 697 640L660 565Q619 600 577.50 615.50Q536 631 471 631Q348 631 272 558.50Q196 486 175 354Q154 221 205 147Q256 73 390 73Q441 73 486 82Q531 91 576 109L546 61L583 300L407 300L419 372L675 372L623 45Q592 28 551.50 16Q511 4 467-2.50Q423-9 383-9M487 760Q439 760 403 781Q367 802 347.50 840Q328 878 328 929L384 936Q382 881 411.50 850Q441 819 491 819Q541 819 574.50 850Q608 881 618 936L672 929Q660 851 609.50 805.50Q559 760 487 760Z"  horiz-adv-x="733" vert-adv-y="1000"  />

      
      <glyph glyph-name="uni01E6" unicode="&#x01E6;" d="M383-9Q261-9 187 37Q113 83 86.50 167Q60 251 78 365Q96 477 149 554.50Q202 632 285 673Q368 714 475 714Q552 714 606 694.50Q660 675 697 640L660 565Q619 600 577.50 615.50Q536 631 471 631Q348 631 272 558.50Q196 486 175 354Q154 221 205 147Q256 73 390 73Q441 73 486 82Q531 91 576 109L546 61L583 300L407 300L419 372L675 372L623 45Q592 28 551.50 16Q511 4 467-2.50Q423-9 383-9M442 765L337 937L401 937L486 822L597 937L666 937L525 765L442 765Z"  horiz-adv-x="733" vert-adv-y="1000"  />

      
      <glyph glyph-name="uni011C" unicode="&#x011C;" d="M383-9Q261-9 187 37Q113 83 86.50 167Q60 251 78 365Q96 477 149 554.50Q202 632 285 673Q368 714 475 714Q552 714 606 694.50Q660 675 697 640L660 565Q619 600 577.50 615.50Q536 631 471 631Q348 631 272 558.50Q196 486 175 354Q154 221 205 147Q256 73 390 73Q441 73 486 82Q531 91 576 109L546 61L583 300L407 300L419 372L675 372L623 45Q592 28 551.50 16Q511 4 467-2.50Q423-9 383-9M312 765L452 937L535 937L640 765L574 765L490 880L378 765L312 765Z"  horiz-adv-x="733" vert-adv-y="1000"  />

      
      <glyph glyph-name="uni0122" unicode="&#x0122;" d="M383-9Q261-9 187 37Q113 83 86.50 167Q60 251 78 365Q96 477 149 554.50Q202 632 285 673Q368 714 475 714Q552 714 606 694.50Q660 675 697 640L660 565Q619 600 577.50 615.50Q536 631 471 631Q348 631 272 558.50Q196 486 175 354Q154 221 205 147Q256 73 390 73Q441 73 486 82Q531 91 576 109L546 61L583 300L407 300L419 372L675 372L623 45Q592 28 551.50 16Q511 4 467-2.50Q423-9 383-9M333-270L302-240Q329-219 337.50-199.50Q346-180 350-153L370-165L296-165L310-78L416-78L404-148Q398-188 382.50-217.50Q367-247 333-270Z"  horiz-adv-x="733" vert-adv-y="1000"  />

      
      <glyph glyph-name="uni0120" unicode="&#x0120;" d="M383-9Q261-9 187 37Q113 83 86.50 167Q60 251 78 365Q96 477 149 554.50Q202 632 285 673Q368 714 475 714Q552 714 606 694.50Q660 675 697 640L660 565Q619 600 577.50 615.50Q536 631 471 631Q348 631 272 558.50Q196 486 175 354Q154 221 205 147Q256 73 390 73Q441 73 486 82Q531 91 576 109L546 61L583 300L407 300L419 372L675 372L623 45Q592 28 551.50 16Q511 4 467-2.50Q423-9 383-9M442 804L456 898L553 898L538 804L442 804Z"  horiz-adv-x="733" vert-adv-y="1000"  />

      
      <glyph glyph-name="uni1E20" unicode="&#x1E20;" d="M383-9Q261-9 187 37Q113 83 86.50 167Q60 251 78 365Q96 477 149 554.50Q202 632 285 673Q368 714 475 714Q552 714 606 694.50Q660 675 697 640L660 565Q619 600 577.50 615.50Q536 631 471 631Q348 631 272 558.50Q196 486 175 354Q154 221 205 147Q256 73 390 73Q441 73 486 82Q531 91 576 109L546 61L583 300L407 300L419 372L675 372L623 45Q592 28 551.50 16Q511 4 467-2.50Q423-9 383-9M326 813L335 872L666 872L657 813L326 813Z"  horiz-adv-x="733" vert-adv-y="1000"  />

      
      <glyph glyph-name="uni48" unicode="&#x48;" d="M46 0L158 705L251 705L202 397L612 397L661 705L755 705L643 0L549 0L600 318L190 318L139 0L46 0Z"  horiz-adv-x="768" vert-adv-y="1000"  />

      
      <glyph glyph-name="uni0126" unicode="&#x0126;" d="M62 0L143 518L52 518L63 589L155 589L174 705L267 705L248 589L657 589L676 705L769 705L750 589L842 589L830 518L739 518L657 0L564 0L613 311L205 311L155 0L62 0M217 391L626 391L645 518L237 518L217 391Z"  horiz-adv-x="799" vert-adv-y="1000"  />

      
      <glyph glyph-name="uni1E2A" unicode="&#x1E2A;" d="M46 0L158 705L251 705L202 397L612 397L661 705L755 705L643 0L549 0L600 318L190 318L139 0L46 0M325-215Q256-215 215-174.50Q174-134 179-64L234-59Q232-105 257-131Q282-157 327-157Q372-157 400.50-131Q429-105 437-59L493-64Q484-134 439-174.50Q394-215 325-215Z"  horiz-adv-x="768" vert-adv-y="1000"  />

      
      <glyph glyph-name="uni0124" unicode="&#x0124;" d="M46 0L158 705L251 705L202 397L612 397L661 705L755 705L643 0L549 0L600 318L190 318L139 0L46 0M295 765L435 937L518 937L623 765L557 765L473 880L361 765L295 765Z"  horiz-adv-x="768" vert-adv-y="1000"  />

      
      <glyph glyph-name="uni1E24" unicode="&#x1E24;" d="M46 0L158 705L251 705L202 397L612 397L661 705L755 705L643 0L549 0L600 318L190 318L139 0L46 0M265-191L281-97L379-97L364-191L265-191Z"  horiz-adv-x="768" vert-adv-y="1000"  />

      
      <glyph glyph-name="uni49" unicode="&#x49;" d="M46 0L158 705L251 705L139 0L46 0Z"  horiz-adv-x="264" vert-adv-y="1000"  />

      
      <glyph glyph-name="uni0132" unicode="&#x0132;" d="M46 0L158 705L251 705L139 0L46 0M276-187Q260-187 239-184.50Q218-182 197-175L208-99Q227-106 243.50-108Q260-110 273-110Q319-110 346-82Q373-54 383 7L493 705L587 705L475 1Q465-62 440.50-104Q416-146 375.50-166.50Q335-187 276-187Z"  horiz-adv-x="601" vert-adv-y="1000"  />

      
      <glyph glyph-name="unicd" unicode="&#xcd;" d="M46 0L158 705L251 705L139 0L46 0M180 765L311 937L413 937L248 765L180 765Z"  horiz-adv-x="264" vert-adv-y="1000"  />

      
      <glyph glyph-name="uni012C" unicode="&#x012C;" d="M46 0L158 705L251 705L139 0L46 0M217 760Q169 760 133 781Q97 802 77.50 840Q58 878 58 929L114 936Q112 881 141.50 850Q171 819 221 819Q271 819 304.50 850Q338 881 348 936L402 929Q390 851 339.50 805.50Q289 760 217 760Z"  horiz-adv-x="264" vert-adv-y="1000"  />

      
      <glyph glyph-name="unice" unicode="&#xce;" d="M46 0L158 705L251 705L139 0L46 0M42 765L182 937L265 937L370 765L304 765L220 880L108 765L42 765Z"  horiz-adv-x="264" vert-adv-y="1000"  />

      
      <glyph glyph-name="uni0208" unicode="&#x0208;" d="M46 0L158 705L251 705L139 0L46 0M253 765L147 937L234 937L306 765L253 765M122 765L11 937L97 937L175 765L122 765Z"  horiz-adv-x="264" vert-adv-y="1000"  />

      
      <glyph glyph-name="unicf" unicode="&#xcf;" d="M46 0L158 705L251 705L139 0L46 0M262 802L277 895L370 895L354 802L262 802M84 802L99 895L192 895L177 802L84 802Z"  horiz-adv-x="264" vert-adv-y="1000"  />

      
      <glyph glyph-name="uni1E2E" unicode="&#x1E2E;" d="M46 0L158 705L251 705L139 0L46 0M202 885L297 1024L390 1024L263 885L202 885M79 770L91 847L184 847L172 770L79 770M256 770L269 847L362 847L349 770L256 770Z"  horiz-adv-x="264" vert-adv-y="1000"  />

      
      <glyph glyph-name="uni0130" unicode="&#x0130;" d="M46 0L158 705L251 705L139 0L46 0M172 804L186 898L283 898L268 804L172 804Z"  horiz-adv-x="264" vert-adv-y="1000"  />

      
      <glyph glyph-name="uni1ECA" unicode="&#x1ECA;" d="M46 0L158 705L251 705L139 0L46 0M12-191L28-97L126-97L111-191L12-191Z"  horiz-adv-x="264" vert-adv-y="1000"  />

      
      <glyph glyph-name="unicc" unicode="&#xcc;" d="M46 0L158 705L251 705L139 0L46 0M180 765L44 937L143 937L248 765L180 765Z"  horiz-adv-x="264" vert-adv-y="1000"  />

      
      <glyph glyph-name="uni1EC8" unicode="&#x1EC8;" d="M46 0L158 705L251 705L139 0L46 0M184 765L186 781Q189 801 200 813.50Q211 826 224 835Q237 844 246.50 852.50Q256 861 256 873Q256 883 245 888Q234 893 213 893Q197 893 182 889.50Q167 886 149 879L137 923Q178 944 236 944Q280 944 304 928Q328 912 328 886Q328 862 316.50 848.50Q305 835 289 826Q273 817 260.50 806Q248 795 246 776L245 765L184 765Z"  horiz-adv-x="264" vert-adv-y="1000"  />

      
      <glyph glyph-name="uni020A" unicode="&#x020A;" d="M46 0L158 705L251 705L139 0L46 0M93 760L37 767Q50 846 100.50 891Q151 936 224 936Q271 936 307 915.50Q343 895 363 856.50Q383 818 382 767L326 760Q328 816 298.50 846.50Q269 877 219 877Q169 877 135 846.50Q101 816 93 760Z"  horiz-adv-x="264" vert-adv-y="1000"  />

      
      <glyph glyph-name="uni012A" unicode="&#x012A;" d="M46 0L158 705L251 705L139 0L46 0M56 813L65 872L396 872L387 813L56 813Z"  horiz-adv-x="264" vert-adv-y="1000"  />

      
      <glyph glyph-name="uni012E" unicode="&#x012E;" d="M46 0L158 705L251 705L139 0L46 0M87-193Q39-193 13-168Q-13-143-13-102Q-13-55 18-18.50Q49 18 96 37L122 0Q85-15 67.50-39Q50-63 50-88Q50-111 64-125Q78-139 103-139Q116-139 129-136Q142-133 157-127L167-177Q149-184 129-188.50Q109-193 87-193Z"  horiz-adv-x="264" vert-adv-y="1000"  />

      
      <glyph glyph-name="uni0128" unicode="&#x0128;" d="M46 0L158 705L251 705L139 0L46 0M50 780L0 783Q11 849 45.50 884.50Q80 920 130 920Q160 920 185.50 907Q211 894 234 879Q254 867 272 857Q290 847 309 847Q366 847 385 923L435 920Q424 855 390 819Q356 783 306 783Q276 783 250.50 796.50Q225 810 202 824Q182 837 163.50 847Q145 857 126 857Q69 857 50 780Z"  horiz-adv-x="264" vert-adv-y="1000"  />

      
      <glyph glyph-name="uni4a" unicode="&#x4a;" d="M12-187Q-4-187-25-184.50Q-46-182-67-175L-56-99Q-37-106-20.50-108Q-4-110 9-110Q55-110 82-82Q109-54 119 7L229 705L323 705L211 1Q201-62 176.50-104Q152-146 111.50-166.50Q71-187 12-187Z"  horiz-adv-x="337" vert-adv-y="1000"  />

      
      <glyph glyph-name="uni0134" unicode="&#x0134;" d="M12-187Q-4-187-25-184.50Q-46-182-67-175L-56-99Q-37-106-20.50-108Q-4-110 9-110Q55-110 82-82Q109-54 119 7L229 705L323 705L211 1Q201-62 176.50-104Q152-146 111.50-166.50Q71-187 12-187M115 765L255 937L338 937L443 765L377 765L293 880L181 765L115 765Z"  horiz-adv-x="337" vert-adv-y="1000"  />

      
      <glyph glyph-name="uni4b" unicode="&#x4b;" d="M46 0L158 705L251 705L200 386L202 386L580 705L701 705L265 340L262 385L616 0L500 0L194 331L192 331L139 0L46 0Z"  horiz-adv-x="641" vert-adv-y="1000"  />

      
      <glyph glyph-name="uni0136" unicode="&#x0136;" d="M46 0L158 705L251 705L200 386L202 386L580 705L701 705L265 340L262 385L616 0L500 0L194 331L192 331L139 0L46 0M245-270L214-240Q241-219 249.50-199.50Q258-180 262-153L282-165L208-165L222-78L328-78L316-148Q310-188 294.50-217.50Q279-247 245-270Z"  horiz-adv-x="641" vert-adv-y="1000"  />

      
      <glyph glyph-name="uni4c" unicode="&#x4c;" d="M46 0L158 705L251 705L152 80L502 80L490 0L46 0Z"  horiz-adv-x="549" vert-adv-y="1000"  />

      
      <glyph glyph-name="uni01C7" unicode="&#x01C7;" d="M46 0L158 705L251 705L152 80L502 80L490 0L46 0M601-187Q585-187 564-184.50Q543-182 522-175L533-99Q552-106 568.50-108Q585-110 598-110Q644-110 671-82Q698-54 708 7L818 705L912 705L800 1Q790-62 765.50-104Q741-146 700.50-166.50Q660-187 601-187Z"  horiz-adv-x="925" vert-adv-y="1000"  />

      
      <glyph glyph-name="uni0139" unicode="&#x0139;" d="M46 0L158 705L251 705L152 80L502 80L490 0L46 0M180 765L311 937L413 937L248 765L180 765Z"  horiz-adv-x="549" vert-adv-y="1000"  />

      
      <glyph glyph-name="uni013D" unicode="&#x013D;" d="M46 0L158 705L251 705L152 80L502 80L490 0L46 0M324 477L361 705L438 705L380 477L324 477Z"  horiz-adv-x="549" vert-adv-y="1000"  />

      
      <glyph glyph-name="uni013B" unicode="&#x013B;" d="M46 0L158 705L251 705L152 80L502 80L490 0L46 0M227-270L196-240Q223-219 231.50-199.50Q240-180 244-153L264-165L190-165L204-78L310-78L298-148Q292-188 276.50-217.50Q261-247 227-270Z"  horiz-adv-x="549" vert-adv-y="1000"  />

      
      <glyph glyph-name="uni013F" unicode="&#x013F;" d="M46 0L158 705L251 705L152 80L502 80L490 0L46 0M368 340L385 440L496 440L480 340L368 340Z"  horiz-adv-x="549" vert-adv-y="1000"  />

      
      <glyph glyph-name="uni1E36" unicode="&#x1E36;" d="M46 0L158 705L251 705L152 80L502 80L490 0L46 0M189-191L205-97L303-97L288-191L189-191Z"  horiz-adv-x="549" vert-adv-y="1000"  />

      
      <glyph glyph-name="uni01C8" unicode="&#x01C8;" d="M46 0L158 705L251 705L152 80L502 80L490 0L46 0M488-220Q472-220 452-217.50Q432-215 418-208L430-133Q442-137 457-140.50Q472-144 486-144Q526-144 551-118.50Q576-93 585-35L670 503L761 503L674-43Q660-130 614-175Q568-220 488-220M678 613L694 711L802 711L786 613L678 613Z"  horiz-adv-x="792" vert-adv-y="1000"  />

      
      <glyph glyph-name="uni1E3A" unicode="&#x1E3A;" d="M46 0L158 705L251 705L152 80L502 80L490 0L46 0M94-158L103-99L404-99L395-158L94-158Z"  horiz-adv-x="549" vert-adv-y="1000"  />

      
      <glyph glyph-name="uni0141" unicode="&#x0141;" d="M46 0L158 705L251 705L152 80L502 80L490 0L46 0M17 266L-14 332L372 511L403 445L17 266Z"  horiz-adv-x="549" vert-adv-y="1000"  />

      
      <glyph glyph-name="uni4d" unicode="&#x4d;" d="M46 0L158 705L240 705L418 79L388 79L766 705L847 705L735 0L650 0L742 581L774 581L420 0L363 0L193 581L223 581L131 0L46 0Z"  horiz-adv-x="861" vert-adv-y="1000"  />

      
      <glyph glyph-name="uni1E42" unicode="&#x1E42;" d="M46 0L158 705L240 705L418 79L388 79L766 705L847 705L735 0L650 0L742 581L774 581L420 0L363 0L193 581L223 581L131 0L46 0M310-191L326-97L424-97L409-191L310-191Z"  horiz-adv-x="861" vert-adv-y="1000"  />

      
      <glyph glyph-name="uni4e" unicode="&#x4e;" d="M46 0L158 705L230 705L576 117L556 121L648 705L735 705L623 0L552 0L205 588L225 584L133 0L46 0Z"  horiz-adv-x="748" vert-adv-y="1000"  />

      
      <glyph glyph-name="uni01CA" unicode="&#x01CA;" d="M46 0L158 705L230 705L576 117L556 121L648 705L735 705L623 0L552 0L205 588L225 584L133 0L46 0M760-187Q744-187 723-184.50Q702-182 681-175L692-99Q711-106 727.50-108Q744-110 757-110Q803-110 830-82Q857-54 867 7L977 705L1071 705L959 1Q949-62 924.50-104Q900-146 859.50-166.50Q819-187 760-187Z"  horiz-adv-x="1085" vert-adv-y="1000"  />

      
      <glyph glyph-name="uni0143" unicode="&#x0143;" d="M46 0L158 705L230 705L576 117L556 121L648 705L735 705L623 0L552 0L205 588L225 584L133 0L46 0M424 765L555 937L657 937L492 765L424 765Z"  horiz-adv-x="748" vert-adv-y="1000"  />

      
      <glyph glyph-name="uni0147" unicode="&#x0147;" d="M46 0L158 705L230 705L576 117L556 121L648 705L735 705L623 0L552 0L205 588L225 584L133 0L46 0M416 765L311 937L375 937L460 822L571 937L640 937L499 765L416 765Z"  horiz-adv-x="748" vert-adv-y="1000"  />

      
      <glyph glyph-name="uni0145" unicode="&#x0145;" d="M46 0L158 705L230 705L576 117L556 121L648 705L735 705L623 0L552 0L205 588L225 584L133 0L46 0M294-270L263-240Q290-219 298.50-199.50Q307-180 311-153L331-165L257-165L271-78L377-78L365-148Q359-188 343.50-217.50Q328-247 294-270Z"  horiz-adv-x="748" vert-adv-y="1000"  />

      
      <glyph glyph-name="uni1E44" unicode="&#x1E44;" d="M46 0L158 705L230 705L576 117L556 121L648 705L735 705L623 0L552 0L205 588L225 584L133 0L46 0M415 804L429 898L526 898L511 804L415 804Z"  horiz-adv-x="748" vert-adv-y="1000"  />

      
      <glyph glyph-name="uni1E46" unicode="&#x1E46;" d="M46 0L158 705L230 705L576 117L556 121L648 705L735 705L623 0L552 0L205 588L225 584L133 0L46 0M256-191L272-97L370-97L355-191L256-191Z"  horiz-adv-x="748" vert-adv-y="1000"  />

      
      <glyph glyph-name="uni014A" unicode="&#x014A;" d="M370-193L375-124L422-120Q470-116 498-89.50Q526-63 535-13L543 41L552 0L205 588L225 584L133 0L46 0L158 705L230 705L576 117L556 121L648 705L735 705L623-6Q613-65 587.50-104.50Q562-144 520-165Q478-186 416-190L370-193Z"  horiz-adv-x="748" vert-adv-y="1000"  />

      
      <glyph glyph-name="uni01CB" unicode="&#x01CB;" d="M46 0L158 705L230 705L576 117L556 121L648 705L735 705L623 0L552 0L205 588L225 584L133 0L46 0M687-220Q671-220 651-217.50Q631-215 617-208L629-133Q641-137 656-140.50Q671-144 685-144Q725-144 750-118.50Q775-93 784-35L869 503L960 503L873-43Q859-130 813-175Q767-220 687-220M877 613L893 711L1001 711L985 613L877 613Z"  horiz-adv-x="992" vert-adv-y="1000"  />

      
      <glyph glyph-name="uni1E48" unicode="&#x1E48;" d="M46 0L158 705L230 705L576 117L556 121L648 705L735 705L623 0L552 0L205 588L225 584L133 0L46 0M161-158L170-99L471-99L462-158L161-158Z"  horiz-adv-x="748" vert-adv-y="1000"  />

      
      <glyph glyph-name="unid1" unicode="&#xd1;" d="M46 0L158 705L230 705L576 117L556 121L648 705L735 705L623 0L552 0L205 588L225 584L133 0L46 0M294 780L244 783Q255 849 289.50 884.50Q324 920 374 920Q404 920 429.50 907Q455 894 478 879Q498 867 516 857Q534 847 553 847Q610 847 629 923L679 920Q668 855 634 819Q600 783 550 783Q520 783 494.50 796.50Q469 810 446 824Q426 837 407.50 847Q389 857 370 857Q313 857 294 780Z"  horiz-adv-x="748" vert-adv-y="1000"  />

      
      <glyph glyph-name="uni4f" unicode="&#x4f;" d="M78 366Q96 477 146 555Q196 633 274 673.50Q352 714 451 714Q558 714 625.50 666.50Q693 619 720 534.50Q747 450 729 340Q712 229 661.50 151Q611 73 533.50 32Q456-9 356-9Q250-9 182 38.50Q114 86 87.50 170.50Q61 255 78 366M175 356Q161 268 178.50 204.50Q196 141 243 107Q290 73 363 73Q475 73 543.50 146.50Q612 220 632 350Q647 438 629 501Q611 564 564 598Q517 632 443 632Q332 632 264.50 559.50Q197 487 175 356Z"  horiz-adv-x="776" vert-adv-y="1000"  />

      
      <glyph glyph-name="unid3" unicode="&#xd3;" d="M78 366Q96 477 146 555Q196 633 274 673.50Q352 714 451 714Q558 714 625.50 666.50Q693 619 720 534.50Q747 450 729 340Q712 229 661.50 151Q611 73 533.50 32Q456-9 356-9Q250-9 182 38.50Q114 86 87.50 170.50Q61 255 78 366M175 356Q161 268 178.50 204.50Q196 141 243 107Q290 73 363 73Q475 73 543.50 146.50Q612 220 632 350Q647 438 629 501Q611 564 564 598Q517 632 443 632Q332 632 264.50 559.50Q197 487 175 356M435 765L566 937L668 937L503 765L435 765Z"  horiz-adv-x="776" vert-adv-y="1000"  />

      
      <glyph glyph-name="uni014E" unicode="&#x014E;" d="M78 366Q96 477 146 555Q196 633 274 673.50Q352 714 451 714Q558 714 625.50 666.50Q693 619 720 534.50Q747 450 729 340Q712 229 661.50 151Q611 73 533.50 32Q456-9 356-9Q250-9 182 38.50Q114 86 87.50 170.50Q61 255 78 366M175 356Q161 268 178.50 204.50Q196 141 243 107Q290 73 363 73Q475 73 543.50 146.50Q612 220 632 350Q647 438 629 501Q611 564 564 598Q517 632 443 632Q332 632 264.50 559.50Q197 487 175 356M472 760Q424 760 388 781Q352 802 332.50 840Q313 878 313 929L369 936Q367 881 396.50 850Q426 819 476 819Q526 819 559.50 850Q593 881 603 936L657 929Q645 851 594.50 805.50Q544 760 472 760Z"  horiz-adv-x="776" vert-adv-y="1000"  />

      
      <glyph glyph-name="unid4" unicode="&#xd4;" d="M78 366Q96 477 146 555Q196 633 274 673.50Q352 714 451 714Q558 714 625.50 666.50Q693 619 720 534.50Q747 450 729 340Q712 229 661.50 151Q611 73 533.50 32Q456-9 356-9Q250-9 182 38.50Q114 86 87.50 170.50Q61 255 78 366M175 356Q161 268 178.50 204.50Q196 141 243 107Q290 73 363 73Q475 73 543.50 146.50Q612 220 632 350Q647 438 629 501Q611 564 564 598Q517 632 443 632Q332 632 264.50 559.50Q197 487 175 356M297 765L437 937L520 937L625 765L559 765L475 880L363 765L297 765Z"  horiz-adv-x="776" vert-adv-y="1000"  />

      
      <glyph glyph-name="uni1ED0" unicode="&#x1ED0;" d="M78 366Q96 477 146 555Q196 633 274 673.50Q352 714 451 714Q558 714 625.50 666.50Q693 619 720 534.50Q747 450 729 340Q712 229 661.50 151Q611 73 533.50 32Q456-9 356-9Q250-9 182 38.50Q114 86 87.50 170.50Q61 255 78 366M175 356Q161 268 178.50 204.50Q196 141 243 107Q290 73 363 73Q475 73 543.50 146.50Q612 220 632 350Q647 438 629 501Q611 564 564 598Q517 632 443 632Q332 632 264.50 559.50Q197 487 175 356M314 765L438 927L522 927L618 765L557 765L476 872L375 765L314 765M573 870L670 1020L755 1020L629 870L573 870Z"  horiz-adv-x="776" vert-adv-y="1000"  />

      
      <glyph glyph-name="uni1ED8" unicode="&#x1ED8;" d="M78 366Q96 477 146 555Q196 633 274 673.50Q352 714 451 714Q558 714 625.50 666.50Q693 619 720 534.50Q747 450 729 340Q712 229 661.50 151Q611 73 533.50 32Q456-9 356-9Q250-9 182 38.50Q114 86 87.50 170.50Q61 255 78 366M175 356Q161 268 178.50 204.50Q196 141 243 107Q290 73 363 73Q475 73 543.50 146.50Q612 220 632 350Q647 438 629 501Q611 564 564 598Q517 632 443 632Q332 632 264.50 559.50Q197 487 175 356M267-191L283-97L381-97L366-191L267-191M297 765L437 937L520 937L625 765L559 765L475 880L363 765L297 765Z"  horiz-adv-x="776" vert-adv-y="1000"  />

      
      <glyph glyph-name="uni1ED2" unicode="&#x1ED2;" d="M78 366Q96 477 146 555Q196 633 274 673.50Q352 714 451 714Q558 714 625.50 666.50Q693 619 720 534.50Q747 450 729 340Q712 229 661.50 151Q611 73 533.50 32Q456-9 356-9Q250-9 182 38.50Q114 86 87.50 170.50Q61 255 78 366M175 356Q161 268 178.50 204.50Q196 141 243 107Q290 73 363 73Q475 73 543.50 146.50Q612 220 632 350Q647 438 629 501Q611 564 564 598Q517 632 443 632Q332 632 264.50 559.50Q197 487 175 356M314 765L438 927L522 927L618 765L557 765L476 872L375 765L314 765M612 870L513 1020L596 1020L670 870L612 870Z"  horiz-adv-x="776" vert-adv-y="1000"  />

      
      <glyph glyph-name="uni1ED4" unicode="&#x1ED4;" d="M78 366Q96 477 146 555Q196 633 274 673.50Q352 714 451 714Q558 714 625.50 666.50Q693 619 720 534.50Q747 450 729 340Q712 229 661.50 151Q611 73 533.50 32Q456-9 356-9Q250-9 182 38.50Q114 86 87.50 170.50Q61 255 78 366M175 356Q161 268 178.50 204.50Q196 141 243 107Q290 73 363 73Q475 73 543.50 146.50Q612 220 632 350Q647 438 629 501Q611 564 564 598Q517 632 443 632Q332 632 264.50 559.50Q197 487 175 356M314 765L438 927L522 927L618 765L557 765L476 872L375 765L314 765M579 870Q581 891 591 903.50Q601 916 613.50 924.50Q626 933 635.50 941Q645 949 645 961Q645 970 634.50 974Q624 978 608 978Q592 978 574 974.50Q556 971 542 966L533 1006Q552 1014 574 1019Q596 1024 623 1024Q665 1024 687.50 1011Q710 998 710 976Q710 955 699 942Q688 929 673 919.50Q658 910 646.50 899Q635 888 633 870L579 870Z"  horiz-adv-x="776" vert-adv-y="1000"  />

      
      <glyph glyph-name="uni1ED6" unicode="&#x1ED6;" d="M78 366Q96 477 146 555Q196 633 274 673.50Q352 714 451 714Q558 714 625.50 666.50Q693 619 720 534.50Q747 450 729 340Q712 229 661.50 151Q611 73 533.50 32Q456-9 356-9Q250-9 182 38.50Q114 86 87.50 170.50Q61 255 78 366M175 356Q161 268 178.50 204.50Q196 141 243 107Q290 73 363 73Q475 73 543.50 146.50Q612 220 632 350Q647 438 629 501Q611 564 564 598Q517 632 443 632Q332 632 264.50 559.50Q197 487 175 356M315 765L436 897L520 897L618 765L559 765L474 847L374 765L315 765M368 922L321 925Q329 976 355.50 1002Q382 1028 422 1028Q445 1028 462.50 1019Q480 1010 496 1000Q510 991 522.50 984Q535 977 549 977Q572 977 584 989.50Q596 1002 604 1029L651 1026Q643 975 617 949Q591 923 551 923Q529 923 510.50 932Q492 941 477 951Q463 961 450 967.50Q437 974 424 974Q401 974 388 961.50Q375 949 368 922Z"  horiz-adv-x="776" vert-adv-y="1000"  />

      
      <glyph glyph-name="uni020C" unicode="&#x020C;" d="M78 366Q96 477 146 555Q196 633 274 673.50Q352 714 451 714Q558 714 625.50 666.50Q693 619 720 534.50Q747 450 729 340Q712 229 661.50 151Q611 73 533.50 32Q456-9 356-9Q250-9 182 38.50Q114 86 87.50 170.50Q61 255 78 366M175 356Q161 268 178.50 204.50Q196 141 243 107Q290 73 363 73Q475 73 543.50 146.50Q612 220 632 350Q647 438 629 501Q611 564 564 598Q517 632 443 632Q332 632 264.50 559.50Q197 487 175 356M508 765L402 937L489 937L561 765L508 765M377 765L266 937L352 937L430 765L377 765Z"  horiz-adv-x="776" vert-adv-y="1000"  />

      
      <glyph glyph-name="unid6" unicode="&#xd6;" d="M78 366Q96 477 146 555Q196 633 274 673.50Q352 714 451 714Q558 714 625.50 666.50Q693 619 720 534.50Q747 450 729 340Q712 229 661.50 151Q611 73 533.50 32Q456-9 356-9Q250-9 182 38.50Q114 86 87.50 170.50Q61 255 78 366M175 356Q161 268 178.50 204.50Q196 141 243 107Q290 73 363 73Q475 73 543.50 146.50Q612 220 632 350Q647 438 629 501Q611 564 564 598Q517 632 443 632Q332 632 264.50 559.50Q197 487 175 356M517 802L532 895L625 895L609 802L517 802M339 802L354 895L447 895L432 802L339 802Z"  horiz-adv-x="776" vert-adv-y="1000"  />

      
      <glyph glyph-name="uni022A" unicode="&#x022A;" d="M78 366Q96 477 146 555Q196 633 274 673.50Q352 714 451 714Q558 714 625.50 666.50Q693 619 720 534.50Q747 450 729 340Q712 229 661.50 151Q611 73 533.50 32Q456-9 356-9Q250-9 182 38.50Q114 86 87.50 170.50Q61 255 78 366M175 356Q161 268 178.50 204.50Q196 141 243 107Q290 73 363 73Q475 73 543.50 146.50Q612 220 632 350Q647 438 629 501Q611 564 564 598Q517 632 443 632Q332 632 264.50 559.50Q197 487 175 356M343 925L352 984L654 984L644 925L343 925M338 795L350 871L443 871L431 795L338 795M516 795L528 871L621 871L608 795L516 795Z"  horiz-adv-x="776" vert-adv-y="1000"  />

      
      <glyph glyph-name="uni0230" unicode="&#x0230;" d="M78 366Q96 477 146 555Q196 633 274 673.50Q352 714 451 714Q558 714 625.50 666.50Q693 619 720 534.50Q747 450 729 340Q712 229 661.50 151Q611 73 533.50 32Q456-9 356-9Q250-9 182 38.50Q114 86 87.50 170.50Q61 255 78 366M175 356Q161 268 178.50 204.50Q196 141 243 107Q290 73 363 73Q475 73 543.50 146.50Q612 220 632 350Q647 438 629 501Q611 564 564 598Q517 632 443 632Q332 632 264.50 559.50Q197 487 175 356M343 925L352 984L654 984L644 925L343 925M427 795L440 871L533 871L520 795L427 795Z"  horiz-adv-x="776" vert-adv-y="1000"  />

      
      <glyph glyph-name="uni1ECC" unicode="&#x1ECC;" d="M78 366Q96 477 146 555Q196 633 274 673.50Q352 714 451 714Q558 714 625.50 666.50Q693 619 720 534.50Q747 450 729 340Q712 229 661.50 151Q611 73 533.50 32Q456-9 356-9Q250-9 182 38.50Q114 86 87.50 170.50Q61 255 78 366M175 356Q161 268 178.50 204.50Q196 141 243 107Q290 73 363 73Q475 73 543.50 146.50Q612 220 632 350Q647 438 629 501Q611 564 564 598Q517 632 443 632Q332 632 264.50 559.50Q197 487 175 356M267-191L283-97L381-97L366-191L267-191Z"  horiz-adv-x="776" vert-adv-y="1000"  />

      
      <glyph glyph-name="unid2" unicode="&#xd2;" d="M78 366Q96 477 146 555Q196 633 274 673.50Q352 714 451 714Q558 714 625.50 666.50Q693 619 720 534.50Q747 450 729 340Q712 229 661.50 151Q611 73 533.50 32Q456-9 356-9Q250-9 182 38.50Q114 86 87.50 170.50Q61 255 78 366M175 356Q161 268 178.50 204.50Q196 141 243 107Q290 73 363 73Q475 73 543.50 146.50Q612 220 632 350Q647 438 629 501Q611 564 564 598Q517 632 443 632Q332 632 264.50 559.50Q197 487 175 356M435 765L299 937L398 937L503 765L435 765Z"  horiz-adv-x="776" vert-adv-y="1000"  />

      
      <glyph glyph-name="uni1ECE" unicode="&#x1ECE;" d="M78 366Q96 477 146 555Q196 633 274 673.50Q352 714 451 714Q558 714 625.50 666.50Q693 619 720 534.50Q747 450 729 340Q712 229 661.50 151Q611 73 533.50 32Q456-9 356-9Q250-9 182 38.50Q114 86 87.50 170.50Q61 255 78 366M175 356Q161 268 178.50 204.50Q196 141 243 107Q290 73 363 73Q475 73 543.50 146.50Q612 220 632 350Q647 438 629 501Q611 564 564 598Q517 632 443 632Q332 632 264.50 559.50Q197 487 175 356M439 765L441 781Q444 801 455 813.50Q466 826 479 835Q492 844 501.50 852.50Q511 861 511 873Q511 883 500 888Q489 893 468 893Q452 893 437 889.50Q422 886 404 879L392 923Q433 944 491 944Q535 944 559 928Q583 912 583 886Q583 862 571.50 848.50Q560 835 544 826Q528 817 515.50 806Q503 795 501 776L500 765L439 765Z"  horiz-adv-x="776" vert-adv-y="1000"  />

      
      <glyph glyph-name="uni01A0" unicode="&#x01A0;" d="M78 366Q96 477 146 555Q196 633 274 673.50Q352 714 451 714Q558 714 625.50 666.50Q693 619 720 534.50Q747 450 729 340Q712 229 661.50 151Q611 73 533.50 32Q456-9 356-9Q250-9 182 38.50Q114 86 87.50 170.50Q61 255 78 366M175 356Q161 268 178.50 204.50Q196 141 243 107Q290 73 363 73Q475 73 543.50 146.50Q612 220 632 350Q647 438 629 501Q611 564 564 598Q517 632 443 632Q332 632 264.50 559.50Q197 487 175 356M554 652L514 709Q539 708 557 706.50Q575 705 594 705Q635 705 659.50 716Q684 727 697 752Q710 777 717 817L719 834L801 834L796 804Q789 758 768 723.50Q747 689 713 670.50Q679 652 631 652L554 652Z"  horiz-adv-x="776" vert-adv-y="1000"  />

      
      <glyph glyph-name="uni1EDA" unicode="&#x1EDA;" d="M78 366Q96 477 146 555Q196 633 274 673.50Q352 714 451 714Q558 714 625.50 666.50Q693 619 720 534.50Q747 450 729 340Q712 229 661.50 151Q611 73 533.50 32Q456-9 356-9Q250-9 182 38.50Q114 86 87.50 170.50Q61 255 78 366M175 356Q161 268 178.50 204.50Q196 141 243 107Q290 73 363 73Q475 73 543.50 146.50Q612 220 632 350Q647 438 629 501Q611 564 564 598Q517 632 443 632Q332 632 264.50 559.50Q197 487 175 356M554 652L514 709Q539 708 557 706.50Q575 705 594 705Q635 705 659.50 716Q684 727 697 752Q710 777 717 817L719 834L801 834L796 804Q789 758 768 723.50Q747 689 713 670.50Q679 652 631 652L554 652M443 765L574 937L676 937L511 765L443 765Z"  horiz-adv-x="776" vert-adv-y="1000"  />

      
      <glyph glyph-name="uni1EE2" unicode="&#x1EE2;" d="M78 366Q96 477 146 555Q196 633 274 673.50Q352 714 451 714Q558 714 625.50 666.50Q693 619 720 534.50Q747 450 729 340Q712 229 661.50 151Q611 73 533.50 32Q456-9 356-9Q250-9 182 38.50Q114 86 87.50 170.50Q61 255 78 366M175 356Q161 268 178.50 204.50Q196 141 243 107Q290 73 363 73Q475 73 543.50 146.50Q612 220 632 350Q647 438 629 501Q611 564 564 598Q517 632 443 632Q332 632 264.50 559.50Q197 487 175 356M554 652L514 709Q539 708 557 706.50Q575 705 594 705Q635 705 659.50 716Q684 727 697 752Q710 777 717 817L719 834L801 834L796 804Q789 758 768 723.50Q747 689 713 670.50Q679 652 631 652L554 652M276-191L292-97L390-97L375-191L276-191Z"  horiz-adv-x="776" vert-adv-y="1000"  />

      
      <glyph glyph-name="uni1EDC" unicode="&#x1EDC;" d="M78 366Q96 477 146 555Q196 633 274 673.50Q352 714 451 714Q558 714 625.50 666.50Q693 619 720 534.50Q747 450 729 340Q712 229 661.50 151Q611 73 533.50 32Q456-9 356-9Q250-9 182 38.50Q114 86 87.50 170.50Q61 255 78 366M175 356Q161 268 178.50 204.50Q196 141 243 107Q290 73 363 73Q475 73 543.50 146.50Q612 220 632 350Q647 438 629 501Q611 564 564 598Q517 632 443 632Q332 632 264.50 559.50Q197 487 175 356M554 652L514 709Q539 708 557 706.50Q575 705 594 705Q635 705 659.50 716Q684 727 697 752Q710 777 717 817L719 834L801 834L796 804Q789 758 768 723.50Q747 689 713 670.50Q679 652 631 652L554 652M443 765L307 937L406 937L511 765L443 765Z"  horiz-adv-x="776" vert-adv-y="1000"  />

      
      <glyph glyph-name="uni1EDE" unicode="&#x1EDE;" d="M78 366Q96 477 146 555Q196 633 274 673.50Q352 714 451 714Q558 714 625.50 666.50Q693 619 720 534.50Q747 450 729 340Q712 229 661.50 151Q611 73 533.50 32Q456-9 356-9Q250-9 182 38.50Q114 86 87.50 170.50Q61 255 78 366M175 356Q161 268 178.50 204.50Q196 141 243 107Q290 73 363 73Q475 73 543.50 146.50Q612 220 632 350Q647 438 629 501Q611 564 564 598Q517 632 443 632Q332 632 264.50 559.50Q197 487 175 356M554 652L514 709Q539 708 557 706.50Q575 705 594 705Q635 705 659.50 716Q684 727 697 752Q710 777 717 817L719 834L801 834L796 804Q789 758 768 723.50Q747 689 713 670.50Q679 652 631 652L554 652M447 765L449 781Q452 801 463 813.50Q474 826 487 835Q500 844 509.50 852.50Q519 861 519 873Q519 883 508 888Q497 893 476 893Q460 893 445 889.50Q430 886 412 879L400 923Q441 944 499 944Q543 944 567 928Q591 912 591 886Q591 862 579.50 848.50Q568 835 552 826Q536 817 523.50 806Q511 795 509 776L508 765L447 765Z"  horiz-adv-x="776" vert-adv-y="1000"  />

      
      <glyph glyph-name="uni1EE0" unicode="&#x1EE0;" d="M78 366Q96 477 146 555Q196 633 274 673.50Q352 714 451 714Q558 714 625.50 666.50Q693 619 720 534.50Q747 450 729 340Q712 229 661.50 151Q611 73 533.50 32Q456-9 356-9Q250-9 182 38.50Q114 86 87.50 170.50Q61 255 78 366M175 356Q161 268 178.50 204.50Q196 141 243 107Q290 73 363 73Q475 73 543.50 146.50Q612 220 632 350Q647 438 629 501Q611 564 564 598Q517 632 443 632Q332 632 264.50 559.50Q197 487 175 356M554 652L514 709Q539 708 557 706.50Q575 705 594 705Q635 705 659.50 716Q684 727 697 752Q710 777 717 817L719 834L801 834L796 804Q789 758 768 723.50Q747 689 713 670.50Q679 652 631 652L554 652M335 780L285 783Q296 849 329 884.50Q362 920 411 920Q440 920 460 907.50Q480 895 497 880Q512 867 526.50 857Q541 847 560 847Q616 847 634 923L683 920Q673 855 640.50 819Q608 783 559 783Q530 783 509.50 796.50Q489 810 472 824Q457 837 442 847Q427 857 410 857Q353 857 335 780Z"  horiz-adv-x="776" vert-adv-y="1000"  />

      
      <glyph glyph-name="uni0150" unicode="&#x0150;" d="M78 366Q96 477 146 555Q196 633 274 673.50Q352 714 451 714Q558 714 625.50 666.50Q693 619 720 534.50Q747 450 729 340Q712 229 661.50 151Q611 73 533.50 32Q456-9 356-9Q250-9 182 38.50Q114 86 87.50 170.50Q61 255 78 366M175 356Q161 268 178.50 204.50Q196 141 243 107Q290 73 363 73Q475 73 543.50 146.50Q612 220 632 350Q647 438 629 501Q611 564 564 598Q517 632 443 632Q332 632 264.50 559.50Q197 487 175 356M377 765L477 937L565 937L430 765L377 765M508 765L614 937L701 937L561 765L508 765Z"  horiz-adv-x="776" vert-adv-y="1000"  />

      
      <glyph glyph-name="uni020E" unicode="&#x020E;" d="M78 366Q96 477 146 555Q196 633 274 673.50Q352 714 451 714Q558 714 625.50 666.50Q693 619 720 534.50Q747 450 729 340Q712 229 661.50 151Q611 73 533.50 32Q456-9 356-9Q250-9 182 38.50Q114 86 87.50 170.50Q61 255 78 366M175 356Q161 268 178.50 204.50Q196 141 243 107Q290 73 363 73Q475 73 543.50 146.50Q612 220 632 350Q647 438 629 501Q611 564 564 598Q517 632 443 632Q332 632 264.50 559.50Q197 487 175 356M348 760L292 767Q305 846 355.50 891Q406 936 479 936Q526 936 562 915.50Q598 895 618 856.50Q638 818 637 767L581 760Q583 816 553.50 846.50Q524 877 474 877Q424 877 390 846.50Q356 816 348 760Z"  horiz-adv-x="776" vert-adv-y="1000"  />

      
      <glyph glyph-name="uni014C" unicode="&#x014C;" d="M78 366Q96 477 146 555Q196 633 274 673.50Q352 714 451 714Q558 714 625.50 666.50Q693 619 720 534.50Q747 450 729 340Q712 229 661.50 151Q611 73 533.50 32Q456-9 356-9Q250-9 182 38.50Q114 86 87.50 170.50Q61 255 78 366M175 356Q161 268 178.50 204.50Q196 141 243 107Q290 73 363 73Q475 73 543.50 146.50Q612 220 632 350Q647 438 629 501Q611 564 564 598Q517 632 443 632Q332 632 264.50 559.50Q197 487 175 356M311 813L320 872L651 872L642 813L311 813Z"  horiz-adv-x="776" vert-adv-y="1000"  />

      
      <glyph glyph-name="uni1E52" unicode="&#x1E52;" d="M78 366Q96 477 146 555Q196 633 274 673.50Q352 714 451 714Q558 714 625.50 666.50Q693 619 720 534.50Q747 450 729 340Q712 229 661.50 151Q611 73 533.50 32Q456-9 356-9Q250-9 182 38.50Q114 86 87.50 170.50Q61 255 78 366M175 356Q161 268 178.50 204.50Q196 141 243 107Q290 73 363 73Q475 73 543.50 146.50Q612 220 632 350Q647 438 629 501Q611 564 564 598Q517 632 443 632Q332 632 264.50 559.50Q197 487 175 356M321 788L331 848L631 848L622 788L321 788M457 885L552 1024L645 1024L518 885L457 885Z"  horiz-adv-x="776" vert-adv-y="1000"  />

      
      <glyph glyph-name="uni1E50" unicode="&#x1E50;" d="M78 366Q96 477 146 555Q196 633 274 673.50Q352 714 451 714Q558 714 625.50 666.50Q693 619 720 534.50Q747 450 729 340Q712 229 661.50 151Q611 73 533.50 32Q456-9 356-9Q250-9 182 38.50Q114 86 87.50 170.50Q61 255 78 366M175 356Q161 268 178.50 204.50Q196 141 243 107Q290 73 363 73Q475 73 543.50 146.50Q612 220 632 350Q647 438 629 501Q611 564 564 598Q517 632 443 632Q332 632 264.50 559.50Q197 487 175 356M458 885L355 1024L447 1024L518 885L458 885M322 788L331 848L632 848L623 788L322 788Z"  horiz-adv-x="776" vert-adv-y="1000"  />

      
      <glyph glyph-name="uni01EA" unicode="&#x01EA;" d="M78 366Q96 477 146 555Q196 633 274 673.50Q352 714 451 714Q558 714 625.50 666.50Q693 619 720 534.50Q747 450 729 340Q712 229 661.50 151Q611 73 533.50 32Q456-9 356-9Q250-9 182 38.50Q114 86 87.50 170.50Q61 255 78 366M175 356Q161 268 178.50 204.50Q196 141 243 107Q290 73 363 73Q475 73 543.50 146.50Q612 220 632 350Q647 438 629 501Q611 564 564 598Q517 632 443 632Q332 632 264.50 559.50Q197 487 175 356M375-193Q327-193 301-168Q275-143 275-102Q275-55 306-18.50Q337 18 384 37L410 0Q373-15 355.50-39Q338-63 338-88Q338-111 352-125Q366-139 391-139Q404-139 417-136Q430-133 445-127L455-177Q437-184 417-188.50Q397-193 375-193Z"  horiz-adv-x="776" vert-adv-y="1000"  />

      
      <glyph glyph-name="unid8" unicode="&#xd8;" d="M78 366Q96 477 146 555Q196 633 274 673.50Q352 714 451 714Q558 714 625.50 666.50Q693 619 720 534.50Q747 450 729 340Q712 229 661.50 151Q611 73 533.50 32Q456-9 356-9Q250-9 182 38.50Q114 86 87.50 170.50Q61 255 78 366M175 356Q161 268 178.50 204.50Q196 141 243 107Q290 73 363 73Q475 73 543.50 146.50Q612 220 632 350Q647 438 629 501Q611 564 564 598Q517 632 443 632Q332 632 264.50 559.50Q197 487 175 356M231 59L160-38L102 3L173 100L209 140L558 607L581 647L653 743L712 702L640 606L604 565L256 99L231 59Z"  horiz-adv-x="776" vert-adv-y="1000"  />

      
      <glyph glyph-name="uni01FE" unicode="&#x01FE;" d="M78 366Q96 477 146 555Q196 633 274 673.50Q352 714 451 714Q558 714 625.50 666.50Q693 619 720 534.50Q747 450 729 340Q712 229 661.50 151Q611 73 533.50 32Q456-9 356-9Q250-9 182 38.50Q114 86 87.50 170.50Q61 255 78 366M175 356Q161 268 178.50 204.50Q196 141 243 107Q290 73 363 73Q475 73 543.50 146.50Q612 220 632 350Q647 438 629 501Q611 564 564 598Q517 632 443 632Q332 632 264.50 559.50Q197 487 175 356M231 59L160-38L102 3L173 100L209 140L558 607L581 647L653 743L712 702L640 606L604 565L256 99L231 59M435 765L566 937L668 937L503 765L435 765Z"  horiz-adv-x="776" vert-adv-y="1000"  />

      
      <glyph glyph-name="unid5" unicode="&#xd5;" d="M78 366Q96 477 146 555Q196 633 274 673.50Q352 714 451 714Q558 714 625.50 666.50Q693 619 720 534.50Q747 450 729 340Q712 229 661.50 151Q611 73 533.50 32Q456-9 356-9Q250-9 182 38.50Q114 86 87.50 170.50Q61 255 78 366M175 356Q161 268 178.50 204.50Q196 141 243 107Q290 73 363 73Q475 73 543.50 146.50Q612 220 632 350Q647 438 629 501Q611 564 564 598Q517 632 443 632Q332 632 264.50 559.50Q197 487 175 356M305 780L255 783Q266 849 300.50 884.50Q335 920 385 920Q415 920 440.50 907Q466 894 489 879Q509 867 527 857Q545 847 564 847Q621 847 640 923L690 920Q679 855 645 819Q611 783 561 783Q531 783 505.50 796.50Q480 810 457 824Q437 837 418.50 847Q400 857 381 857Q324 857 305 780Z"  horiz-adv-x="776" vert-adv-y="1000"  />

      
      <glyph glyph-name="uni1E4C" unicode="&#x1E4C;" d="M78 366Q96 477 146 555Q196 633 274 673.50Q352 714 451 714Q558 714 625.50 666.50Q693 619 720 534.50Q747 450 729 340Q712 229 661.50 151Q611 73 533.50 32Q456-9 356-9Q250-9 182 38.50Q114 86 87.50 170.50Q61 255 78 366M175 356Q161 268 178.50 204.50Q196 141 243 107Q290 73 363 73Q475 73 543.50 146.50Q612 220 632 350Q647 438 629 501Q611 564 564 598Q517 632 443 632Q332 632 264.50 559.50Q197 487 175 356M458 885L553 1024L647 1024L518 885L458 885M543 767Q522 767 503.50 776Q485 785 468 795Q454 804 440.50 811Q427 818 412 818Q390 818 377 805.50Q364 793 357 766L310 769Q318 820 345.50 846Q373 872 414 872Q435 872 453 863.50Q471 855 489 844Q503 836 516.50 828.50Q530 821 544 821Q567 821 579.50 833.50Q592 846 599 873L647 870Q639 819 611 793Q583 767 543 767Z"  horiz-adv-x="776" vert-adv-y="1000"  />

      
      <glyph glyph-name="uni1E4E" unicode="&#x1E4E;" d="M78 366Q96 477 146 555Q196 633 274 673.50Q352 714 451 714Q558 714 625.50 666.50Q693 619 720 534.50Q747 450 729 340Q712 229 661.50 151Q611 73 533.50 32Q456-9 356-9Q250-9 182 38.50Q114 86 87.50 170.50Q61 255 78 366M175 356Q161 268 178.50 204.50Q196 141 243 107Q290 73 363 73Q475 73 543.50 146.50Q612 220 632 350Q647 438 629 501Q611 564 564 598Q517 632 443 632Q332 632 264.50 559.50Q197 487 175 356M543 767Q522 767 503.50 776Q485 785 468 795Q454 804 440.50 811Q427 818 412 818Q390 818 377 805.50Q364 793 357 766L310 769Q318 820 345.50 846Q373 872 414 872Q435 872 453 863.50Q471 855 489 844Q503 836 516.50 828.50Q530 821 544 821Q567 821 579.50 833.50Q592 846 599 873L647 870Q639 819 611 793Q583 767 543 767M357 912L369 988L462 988L450 912L357 912M535 912L547 988L640 988L627 912L535 912Z"  horiz-adv-x="776" vert-adv-y="1000"  />

      
      <glyph glyph-name="uni022C" unicode="&#x022C;" d="M78 366Q96 477 146 555Q196 633 274 673.50Q352 714 451 714Q558 714 625.50 666.50Q693 619 720 534.50Q747 450 729 340Q712 229 661.50 151Q611 73 533.50 32Q456-9 356-9Q250-9 182 38.50Q114 86 87.50 170.50Q61 255 78 366M175 356Q161 268 178.50 204.50Q196 141 243 107Q290 73 363 73Q475 73 543.50 146.50Q612 220 632 350Q647 438 629 501Q611 564 564 598Q517 632 443 632Q332 632 264.50 559.50Q197 487 175 356M344 925L354 984L654 984L645 925L344 925M543 767Q522 767 503.50 776Q485 785 468 795Q454 804 440.50 811Q427 818 412 818Q390 818 377 805.50Q364 793 357 766L310 769Q318 820 345.50 846Q373 872 414 872Q435 872 453 863.50Q471 855 489 844Q503 836 516.50 828.50Q530 821 544 821Q567 821 579.50 833.50Q592 846 599 873L647 870Q639 819 611 793Q583 767 543 767Z"  horiz-adv-x="776" vert-adv-y="1000"  />

      
      <glyph glyph-name="uni0152" unicode="&#x0152;" d="M516 0L628 705L1080 705L1067 629L706 629L669 396L1009 396L998 320L658 320L618 76L980 76L968 0L516 0M344-9Q240-9 175 38.50Q110 86 85.50 171Q61 256 78 366Q96 477 145.50 555Q195 633 270.50 673.50Q346 714 442 714Q504 714 554 694.50Q604 675 635 636L618 533Q594 581 550 606.50Q506 632 443 632Q332 632 264 559.50Q196 487 175 356Q161 269 177.50 205.50Q194 142 239.50 107.50Q285 73 359 73Q424 73 474 97.50Q524 122 560 168L544 64Q503 28 454 9.50Q405-9 344-9Z"  horiz-adv-x="1056" vert-adv-y="1000"  />

      
      <glyph glyph-name="uni50" unicode="&#x50;" d="M46 0L158 705L441 705Q558 705 611.50 647.50Q665 590 648 489Q639 429 606 386Q573 343 519 320.50Q465 298 392 298L186 298L139 0L46 0M198 374L388 374Q462 374 504.50 404.50Q547 435 557 496Q568 562 535 595.50Q502 629 427 629L238 629L198 374Z"  horiz-adv-x="655" vert-adv-y="1000"  />

      
      <glyph glyph-name="unide" unicode="&#xde;" d="M46 0L158 705L251 705L230 573L420 573Q537 573 590 515Q643 457 628 357Q619 296 585.50 253Q552 210 498 187.50Q444 165 372 165L165 165L139 0L46 0M177 241L366 241Q441 241 484 271.50Q527 302 536 364Q547 429 514 463Q481 497 406 497L218 497L177 241Z"  horiz-adv-x="655" vert-adv-y="1000"  />

      
      <glyph glyph-name="uni51" unicode="&#x51;" d="M507-192Q481-173 454-143Q427-113 405-76Q383-39 369-1L454 29Q472-23 507-65.50Q542-108 579-138L507-192M78 366Q96 477 146 555Q196 633 274 673.50Q352 714 451 714Q558 714 625.50 666.50Q693 619 720 534.50Q747 450 729 340Q712 229 661.50 151Q611 73 533.50 32Q456-9 356-9Q250-9 182 38.50Q114 86 87.50 170.50Q61 255 78 366M175 356Q161 268 178.50 204.50Q196 141 243 107Q290 73 363 73Q475 73 543.50 146.50Q612 220 632 350Q647 438 629 501Q611 564 564 598Q517 632 443 632Q332 632 264.50 559.50Q197 487 175 356Z"  horiz-adv-x="776" vert-adv-y="1000"  />

      
      <glyph glyph-name="uni52" unicode="&#x52;" d="M46 0L158 705L441 705Q560 705 614 649.50Q668 594 652 494Q643 435 608.50 393Q574 351 521 329Q468 307 402 307L408 321L430 321Q471 321 499 300Q527 279 542 234L615 0L517 0L445 232Q433 275 403 288Q373 301 325 301L187 301L139 0L46 0M198 373L392 373Q465 373 508 405.50Q551 438 560 497Q570 563 535.50 596Q501 629 424 629L238 629L198 373Z"  horiz-adv-x="695" vert-adv-y="1000"  />

      
      <glyph glyph-name="uni0154" unicode="&#x0154;" d="M46 0L158 705L441 705Q560 705 614 649.50Q668 594 652 494Q643 435 608.50 393Q574 351 521 329Q468 307 402 307L408 321L430 321Q471 321 499 300Q527 279 542 234L615 0L517 0L445 232Q433 275 403 288Q373 301 325 301L187 301L139 0L46 0M198 373L392 373Q465 373 508 405.50Q551 438 560 497Q570 563 535.50 596Q501 629 424 629L238 629L198 373M395 765L526 937L628 937L463 765L395 765Z"  horiz-adv-x="695" vert-adv-y="1000"  />

      
      <glyph glyph-name="uni0158" unicode="&#x0158;" d="M46 0L158 705L441 705Q560 705 614 649.50Q668 594 652 494Q643 435 608.50 393Q574 351 521 329Q468 307 402 307L408 321L430 321Q471 321 499 300Q527 279 542 234L615 0L517 0L445 232Q433 275 403 288Q373 301 325 301L187 301L139 0L46 0M198 373L392 373Q465 373 508 405.50Q551 438 560 497Q570 563 535.50 596Q501 629 424 629L238 629L198 373M387 765L282 937L346 937L431 822L542 937L611 937L470 765L387 765Z"  horiz-adv-x="695" vert-adv-y="1000"  />

      
      <glyph glyph-name="uni0156" unicode="&#x0156;" d="M46 0L158 705L441 705Q560 705 614 649.50Q668 594 652 494Q643 435 608.50 393Q574 351 521 329Q468 307 402 307L408 321L430 321Q471 321 499 300Q527 279 542 234L615 0L517 0L445 232Q433 275 403 288Q373 301 325 301L187 301L139 0L46 0M198 373L392 373Q465 373 508 405.50Q551 438 560 497Q570 563 535.50 596Q501 629 424 629L238 629L198 373M266-270L235-240Q262-219 270.50-199.50Q279-180 283-153L303-165L229-165L243-78L349-78L337-148Q331-188 315.50-217.50Q300-247 266-270Z"  horiz-adv-x="695" vert-adv-y="1000"  />

      
      <glyph glyph-name="uni0210" unicode="&#x0210;" d="M46 0L158 705L441 705Q560 705 614 649.50Q668 594 652 494Q643 435 608.50 393Q574 351 521 329Q468 307 402 307L408 321L430 321Q471 321 499 300Q527 279 542 234L615 0L517 0L445 232Q433 275 403 288Q373 301 325 301L187 301L139 0L46 0M198 373L392 373Q465 373 508 405.50Q551 438 560 497Q570 563 535.50 596Q501 629 424 629L238 629L198 373M468 765L362 937L449 937L521 765L468 765M337 765L226 937L312 937L390 765L337 765Z"  horiz-adv-x="695" vert-adv-y="1000"  />

      
      <glyph glyph-name="uni1E5A" unicode="&#x1E5A;" d="M46 0L158 705L441 705Q560 705 614 649.50Q668 594 652 494Q643 435 608.50 393Q574 351 521 329Q468 307 402 307L408 321L430 321Q471 321 499 300Q527 279 542 234L615 0L517 0L445 232Q433 275 403 288Q373 301 325 301L187 301L139 0L46 0M198 373L392 373Q465 373 508 405.50Q551 438 560 497Q570 563 535.50 596Q501 629 424 629L238 629L198 373M228-191L244-97L342-97L327-191L228-191Z"  horiz-adv-x="695" vert-adv-y="1000"  />

      
      <glyph glyph-name="uni0212" unicode="&#x0212;" d="M46 0L158 705L441 705Q560 705 614 649.50Q668 594 652 494Q643 435 608.50 393Q574 351 521 329Q468 307 402 307L408 321L430 321Q471 321 499 300Q527 279 542 234L615 0L517 0L445 232Q433 275 403 288Q373 301 325 301L187 301L139 0L46 0M198 373L392 373Q465 373 508 405.50Q551 438 560 497Q570 563 535.50 596Q501 629 424 629L238 629L198 373M308 760L252 767Q265 846 315.50 891Q366 936 439 936Q486 936 522 915.50Q558 895 578 856.50Q598 818 597 767L541 760Q543 816 513.50 846.50Q484 877 434 877Q384 877 350 846.50Q316 816 308 760Z"  horiz-adv-x="695" vert-adv-y="1000"  />

      
      <glyph glyph-name="uni1E5E" unicode="&#x1E5E;" d="M46 0L158 705L441 705Q560 705 614 649.50Q668 594 652 494Q643 435 608.50 393Q574 351 521 329Q468 307 402 307L408 321L430 321Q471 321 499 300Q527 279 542 234L615 0L517 0L445 232Q433 275 403 288Q373 301 325 301L187 301L139 0L46 0M198 373L392 373Q465 373 508 405.50Q551 438 560 497Q570 563 535.50 596Q501 629 424 629L238 629L198 373M133-158L142-99L443-99L434-158L133-158Z"  horiz-adv-x="695" vert-adv-y="1000"  />

      
      <glyph glyph-name="uni53" unicode="&#x53;" d="M286-9Q203-9 136.50 11Q70 31 26 63L63 137Q111 107 165 89Q219 71 292 71Q378 71 424 102.50Q470 134 477 184Q485 231 460.50 258.50Q436 286 368 296L272 311Q175 325 132 378Q89 431 102 513Q111 573 149.50 618Q188 663 250 688.50Q312 714 394 714Q466 714 525 694Q584 674 621 641L585 568Q546 600 497 617Q448 634 384 634Q304 634 254 601Q204 568 194 511Q186 462 211 431.50Q236 401 304 391L402 377Q500 363 542 314Q584 265 571 182Q562 127 525 83.50Q488 40 427.50 15.50Q367-9 286-9Z"  horiz-adv-x="628" vert-adv-y="1000"  />

      
      <glyph glyph-name="uni015A" unicode="&#x015A;" d="M286-9Q203-9 136.50 11Q70 31 26 63L63 137Q111 107 165 89Q219 71 292 71Q378 71 424 102.50Q470 134 477 184Q485 231 460.50 258.50Q436 286 368 296L272 311Q175 325 132 378Q89 431 102 513Q111 573 149.50 618Q188 663 250 688.50Q312 714 394 714Q466 714 525 694Q584 674 621 641L585 568Q546 600 497 617Q448 634 384 634Q304 634 254 601Q204 568 194 511Q186 462 211 431.50Q236 401 304 391L402 377Q500 363 542 314Q584 265 571 182Q562 127 525 83.50Q488 40 427.50 15.50Q367-9 286-9M372 765L503 937L605 937L440 765L372 765Z"  horiz-adv-x="628" vert-adv-y="1000"  />

      
      <glyph glyph-name="uni1E64" unicode="&#x1E64;" d="M286-9Q203-9 136.50 11Q70 31 26 63L63 137Q111 107 165 89Q219 71 292 71Q378 71 424 102.50Q470 134 477 184Q485 231 460.50 258.50Q436 286 368 296L272 311Q175 325 132 378Q89 431 102 513Q111 573 149.50 618Q188 663 250 688.50Q312 714 394 714Q466 714 525 694Q584 674 621 641L585 568Q546 600 497 617Q448 634 384 634Q304 634 254 601Q204 568 194 511Q186 462 211 431.50Q236 401 304 391L402 377Q500 363 542 314Q584 265 571 182Q562 127 525 83.50Q488 40 427.50 15.50Q367-9 286-9M337 968L349 1045L442 1045L430 968L337 968M374 765L500 967L597 967L439 765L374 765Z"  horiz-adv-x="628" vert-adv-y="1000"  />

      
      <glyph glyph-name="uni0160" unicode="&#x0160;" d="M286-9Q203-9 136.50 11Q70 31 26 63L63 137Q111 107 165 89Q219 71 292 71Q378 71 424 102.50Q470 134 477 184Q485 231 460.50 258.50Q436 286 368 296L272 311Q175 325 132 378Q89 431 102 513Q111 573 149.50 618Q188 663 250 688.50Q312 714 394 714Q466 714 525 694Q584 674 621 641L585 568Q546 600 497 617Q448 634 384 634Q304 634 254 601Q204 568 194 511Q186 462 211 431.50Q236 401 304 391L402 377Q500 363 542 314Q584 265 571 182Q562 127 525 83.50Q488 40 427.50 15.50Q367-9 286-9M363 765L258 937L322 937L407 822L518 937L587 937L446 765L363 765Z"  horiz-adv-x="628" vert-adv-y="1000"  />

      
      <glyph glyph-name="uni1E66" unicode="&#x1E66;" d="M286-9Q203-9 136.50 11Q70 31 26 63L63 137Q111 107 165 89Q219 71 292 71Q378 71 424 102.50Q470 134 477 184Q485 231 460.50 258.50Q436 286 368 296L272 311Q175 325 132 378Q89 431 102 513Q111 573 149.50 618Q188 663 250 688.50Q312 714 394 714Q466 714 525 694Q584 674 621 641L585 568Q546 600 497 617Q448 634 384 634Q304 634 254 601Q204 568 194 511Q186 462 211 431.50Q236 401 304 391L402 377Q500 363 542 314Q584 265 571 182Q562 127 525 83.50Q488 40 427.50 15.50Q367-9 286-9M364 765L268 924L329 924L410 822L510 924L572 924L448 765L364 765M387 968L399 1045L491 1045L480 968L387 968Z"  horiz-adv-x="628" vert-adv-y="1000"  />

      
      <glyph glyph-name="uni015E" unicode="&#x015E;" d="M286-9Q203-9 136.50 11Q70 31 26 63L63 137Q111 107 165 89Q219 71 292 71Q378 71 424 102.50Q470 134 477 184Q485 231 460.50 258.50Q436 286 368 296L272 311Q175 325 132 378Q89 431 102 513Q111 573 149.50 618Q188 663 250 688.50Q312 714 394 714Q466 714 525 694Q584 674 621 641L585 568Q546 600 497 617Q448 634 384 634Q304 634 254 601Q204 568 194 511Q186 462 211 431.50Q236 401 304 391L402 377Q500 363 542 314Q584 265 571 182Q562 127 525 83.50Q488 40 427.50 15.50Q367-9 286-9M265-193Q239-193 215-187.50Q191-182 175-173L193-126Q211-135 227.50-139Q244-143 266-143Q293-143 310-133.50Q327-124 327-105Q327-94 318-87.50Q309-81 292-81Q282-81 271.50-82.50Q261-84 245-88L230-72L259 20L314 20L289-56L263-48Q276-45 287.50-43Q299-41 309-41Q344-41 365.50-57Q387-73 387-104Q387-144 352.50-168.50Q318-193 265-193Z"  horiz-adv-x="628" vert-adv-y="1000"  />

      
      <glyph glyph-name="uni015C" unicode="&#x015C;" d="M286-9Q203-9 136.50 11Q70 31 26 63L63 137Q111 107 165 89Q219 71 292 71Q378 71 424 102.50Q470 134 477 184Q485 231 460.50 258.50Q436 286 368 296L272 311Q175 325 132 378Q89 431 102 513Q111 573 149.50 618Q188 663 250 688.50Q312 714 394 714Q466 714 525 694Q584 674 621 641L585 568Q546 600 497 617Q448 634 384 634Q304 634 254 601Q204 568 194 511Q186 462 211 431.50Q236 401 304 391L402 377Q500 363 542 314Q584 265 571 182Q562 127 525 83.50Q488 40 427.50 15.50Q367-9 286-9M234 765L374 937L457 937L562 765L496 765L412 880L300 765L234 765Z"  horiz-adv-x="628" vert-adv-y="1000"  />

      
      <glyph glyph-name="uni0218" unicode="&#x0218;" d="M286-9Q203-9 136.50 11Q70 31 26 63L63 137Q111 107 165 89Q219 71 292 71Q378 71 424 102.50Q470 134 477 184Q485 231 460.50 258.50Q436 286 368 296L272 311Q175 325 132 378Q89 431 102 513Q111 573 149.50 618Q188 663 250 688.50Q312 714 394 714Q466 714 525 694Q584 674 621 641L585 568Q546 600 497 617Q448 634 384 634Q304 634 254 601Q204 568 194 511Q186 462 211 431.50Q236 401 304 391L402 377Q500 363 542 314Q584 265 571 182Q562 127 525 83.50Q488 40 427.50 15.50Q367-9 286-9M243-270L212-240Q239-219 247.50-199.50Q256-180 260-153L280-165L206-165L220-78L326-78L314-148Q308-188 292.50-217.50Q277-247 243-270Z"  horiz-adv-x="628" vert-adv-y="1000"  />

      
      <glyph glyph-name="uni1E60" unicode="&#x1E60;" d="M286-9Q203-9 136.50 11Q70 31 26 63L63 137Q111 107 165 89Q219 71 292 71Q378 71 424 102.50Q470 134 477 184Q485 231 460.50 258.50Q436 286 368 296L272 311Q175 325 132 378Q89 431 102 513Q111 573 149.50 618Q188 663 250 688.50Q312 714 394 714Q466 714 525 694Q584 674 621 641L585 568Q546 600 497 617Q448 634 384 634Q304 634 254 601Q204 568 194 511Q186 462 211 431.50Q236 401 304 391L402 377Q500 363 542 314Q584 265 571 182Q562 127 525 83.50Q488 40 427.50 15.50Q367-9 286-9M363 804L377 898L474 898L459 804L363 804Z"  horiz-adv-x="628" vert-adv-y="1000"  />

      
      <glyph glyph-name="uni1E62" unicode="&#x1E62;" d="M286-9Q203-9 136.50 11Q70 31 26 63L63 137Q111 107 165 89Q219 71 292 71Q378 71 424 102.50Q470 134 477 184Q485 231 460.50 258.50Q436 286 368 296L272 311Q175 325 132 378Q89 431 102 513Q111 573 149.50 618Q188 663 250 688.50Q312 714 394 714Q466 714 525 694Q584 674 621 641L585 568Q546 600 497 617Q448 634 384 634Q304 634 254 601Q204 568 194 511Q186 462 211 431.50Q236 401 304 391L402 377Q500 363 542 314Q584 265 571 182Q562 127 525 83.50Q488 40 427.50 15.50Q367-9 286-9M205-191L221-97L319-97L304-191L205-191Z"  horiz-adv-x="628" vert-adv-y="1000"  />

      
      <glyph glyph-name="uni1E68" unicode="&#x1E68;" d="M286-9Q203-9 136.50 11Q70 31 26 63L63 137Q111 107 165 89Q219 71 292 71Q378 71 424 102.50Q470 134 477 184Q485 231 460.50 258.50Q436 286 368 296L272 311Q175 325 132 378Q89 431 102 513Q111 573 149.50 618Q188 663 250 688.50Q312 714 394 714Q466 714 525 694Q584 674 621 641L585 568Q546 600 497 617Q448 634 384 634Q304 634 254 601Q204 568 194 511Q186 462 211 431.50Q236 401 304 391L402 377Q500 363 542 314Q584 265 571 182Q562 127 525 83.50Q488 40 427.50 15.50Q367-9 286-9M205-191L221-97L319-97L304-191L205-191M363 804L377 898L474 898L459 804L363 804Z"  horiz-adv-x="628" vert-adv-y="1000"  />

      
      <glyph glyph-name="uni1E9E" unicode="&#x1E9E;" d="M382-9Q327-9 281 5.50Q235 20 199 46L238 114Q269 90 302.50 79Q336 68 377 68Q447 68 489.50 100Q532 132 540 187Q551 252 517 284Q483 316 406 316L278 316L289 391L385 391Q455 391 500 423Q545 455 554 514Q563 574 529.50 605Q496 636 418 636Q319 636 271 591Q223 546 207 454L136 0L46 0L118 458Q139 589 215 651.50Q291 714 427 714Q547 714 603.50 661.50Q660 609 646 517Q640 479 618.50 445Q597 411 564 386.50Q531 362 486 351L488 367Q565 355 604 307Q643 259 629 170Q616 87 549.50 39Q483-9 382-9Z"  horiz-adv-x="698" vert-adv-y="1000"  />

      
      <glyph glyph-name="uni018F" unicode="&#x018F;" d="M344-9Q234-9 169.50 37Q105 83 82.50 164.50Q60 246 77 354L83 393L638 393L626 318L141 318L171 353Q157 261 168.50 198Q180 135 223 102.50Q266 70 347 70Q455 70 523 140.50Q591 211 612 348Q634 485 583 558.50Q532 632 407 632Q338 632 283 615Q228 598 172 556L140 629Q198 672 266 693Q334 714 418 714Q529 714 600 668.50Q671 623 698.50 539.50Q726 456 708 341Q691 233 641.50 154.50Q592 76 516.50 33.50Q441-9 344-9Z"  horiz-adv-x="754" vert-adv-y="1000"  />

      
      <glyph glyph-name="uni54" unicode="&#x54;" d="M215 0L315 626L70 626L83 705L666 705L653 626L408 626L309 0L215 0Z"  horiz-adv-x="607" vert-adv-y="1000"  />

      
      <glyph glyph-name="uni0166" unicode="&#x0166;" d="M215 0L315 626L70 626L83 705L666 705L653 626L408 626L309 0L215 0M127 322L138 393L514 393L503 322L127 322Z"  horiz-adv-x="607" vert-adv-y="1000"  />

      
      <glyph glyph-name="uni0164" unicode="&#x0164;" d="M215 0L315 626L70 626L83 705L666 705L653 626L408 626L309 0L215 0M344 765L239 937L303 937L388 822L499 937L568 937L427 765L344 765Z"  horiz-adv-x="607" vert-adv-y="1000"  />

      
      <glyph glyph-name="uni0162" unicode="&#x0162;" d="M215 0L315 626L70 626L83 705L666 705L653 626L408 626L309 0L215 0M243-193Q217-193 193-187.50Q169-182 153-173L171-126Q189-135 205.50-139Q222-143 244-143Q271-143 288-133.50Q305-124 305-105Q305-94 296-87.50Q287-81 270-81Q260-81 249.50-82.50Q239-84 223-88L208-72L237 20L292 20L267-56L241-48Q254-45 265.50-43Q277-41 287-41Q322-41 343.50-57Q365-73 365-104Q365-144 330.50-168.50Q296-193 243-193Z"  horiz-adv-x="607" vert-adv-y="1000"  />

      
      <glyph glyph-name="uni021A" unicode="&#x021A;" d="M215 0L315 626L70 626L83 705L666 705L653 626L408 626L309 0L215 0M222-270L191-240Q218-219 226.50-199.50Q235-180 239-153L259-165L185-165L199-78L305-78L293-148Q287-188 271.50-217.50Q256-247 222-270Z"  horiz-adv-x="607" vert-adv-y="1000"  />

      
      <glyph glyph-name="uni1E6C" unicode="&#x1E6C;" d="M215 0L315 626L70 626L83 705L666 705L653 626L408 626L309 0L215 0M184-191L200-97L298-97L283-191L184-191Z"  horiz-adv-x="607" vert-adv-y="1000"  />

      
      <glyph glyph-name="uni1E6E" unicode="&#x1E6E;" d="M215 0L315 626L70 626L83 705L666 705L653 626L408 626L309 0L215 0M89-158L98-99L399-99L390-158L89-158Z"  horiz-adv-x="607" vert-adv-y="1000"  />

      
      <glyph glyph-name="uni55" unicode="&#x55;" d="M335-9Q243-9 182 23.50Q121 56 96 121Q71 186 86 284L153 705L247 705L180 283Q163 178 200.50 125.50Q238 73 344 73Q437 73 492 122Q547 171 565 284L632 705L724 705L657 278Q641 179 600 115.50Q559 52 493 21.50Q427-9 335-9Z"  horiz-adv-x="733" vert-adv-y="1000"  />

      
      <glyph glyph-name="unida" unicode="&#xda;" d="M335-9Q243-9 182 23.50Q121 56 96 121Q71 186 86 284L153 705L247 705L180 283Q163 178 200.50 125.50Q238 73 344 73Q437 73 492 122Q547 171 565 284L632 705L724 705L657 278Q641 179 600 115.50Q559 52 493 21.50Q427-9 335-9M415 765L546 937L648 937L483 765L415 765Z"  horiz-adv-x="733" vert-adv-y="1000"  />

      
      <glyph glyph-name="uni016C" unicode="&#x016C;" d="M335-9Q243-9 182 23.50Q121 56 96 121Q71 186 86 284L153 705L247 705L180 283Q163 178 200.50 125.50Q238 73 344 73Q437 73 492 122Q547 171 565 284L632 705L724 705L657 278Q641 179 600 115.50Q559 52 493 21.50Q427-9 335-9M452 760Q404 760 368 781Q332 802 312.50 840Q293 878 293 929L349 936Q347 881 376.50 850Q406 819 456 819Q506 819 539.50 850Q573 881 583 936L637 929Q625 851 574.50 805.50Q524 760 452 760Z"  horiz-adv-x="733" vert-adv-y="1000"  />

      
      <glyph glyph-name="unidb" unicode="&#xdb;" d="M335-9Q243-9 182 23.50Q121 56 96 121Q71 186 86 284L153 705L247 705L180 283Q163 178 200.50 125.50Q238 73 344 73Q437 73 492 122Q547 171 565 284L632 705L724 705L657 278Q641 179 600 115.50Q559 52 493 21.50Q427-9 335-9M278 765L418 937L501 937L606 765L540 765L456 880L344 765L278 765Z"  horiz-adv-x="733" vert-adv-y="1000"  />

      
      <glyph glyph-name="uni0214" unicode="&#x0214;" d="M335-9Q243-9 182 23.50Q121 56 96 121Q71 186 86 284L153 705L247 705L180 283Q163 178 200.50 125.50Q238 73 344 73Q437 73 492 122Q547 171 565 284L632 705L724 705L657 278Q641 179 600 115.50Q559 52 493 21.50Q427-9 335-9M488 765L382 937L469 937L541 765L488 765M357 765L246 937L332 937L410 765L357 765Z"  horiz-adv-x="733" vert-adv-y="1000"  />

      
      <glyph glyph-name="unidc" unicode="&#xdc;" d="M335-9Q243-9 182 23.50Q121 56 96 121Q71 186 86 284L153 705L247 705L180 283Q163 178 200.50 125.50Q238 73 344 73Q437 73 492 122Q547 171 565 284L632 705L724 705L657 278Q641 179 600 115.50Q559 52 493 21.50Q427-9 335-9M497 802L512 895L605 895L589 802L497 802M319 802L334 895L427 895L412 802L319 802Z"  horiz-adv-x="733" vert-adv-y="1000"  />

      
      <glyph glyph-name="uni1EE4" unicode="&#x1EE4;" d="M335-9Q243-9 182 23.50Q121 56 96 121Q71 186 86 284L153 705L247 705L180 283Q163 178 200.50 125.50Q238 73 344 73Q437 73 492 122Q547 171 565 284L632 705L724 705L657 278Q641 179 600 115.50Q559 52 493 21.50Q427-9 335-9M247-191L263-97L361-97L346-191L247-191Z"  horiz-adv-x="733" vert-adv-y="1000"  />

      
      <glyph glyph-name="unid9" unicode="&#xd9;" d="M335-9Q243-9 182 23.50Q121 56 96 121Q71 186 86 284L153 705L247 705L180 283Q163 178 200.50 125.50Q238 73 344 73Q437 73 492 122Q547 171 565 284L632 705L724 705L657 278Q641 179 600 115.50Q559 52 493 21.50Q427-9 335-9M415 765L279 937L378 937L483 765L415 765Z"  horiz-adv-x="733" vert-adv-y="1000"  />

      
      <glyph glyph-name="uni1EE6" unicode="&#x1EE6;" d="M335-9Q243-9 182 23.50Q121 56 96 121Q71 186 86 284L153 705L247 705L180 283Q163 178 200.50 125.50Q238 73 344 73Q437 73 492 122Q547 171 565 284L632 705L724 705L657 278Q641 179 600 115.50Q559 52 493 21.50Q427-9 335-9M419 765L421 781Q424 801 435 813.50Q446 826 459 835Q472 844 481.50 852.50Q491 861 491 873Q491 883 480 888Q469 893 448 893Q432 893 417 889.50Q402 886 384 879L372 923Q413 944 471 944Q515 944 539 928Q563 912 563 886Q563 862 551.50 848.50Q540 835 524 826Q508 817 495.50 806Q483 795 481 776L480 765L419 765Z"  horiz-adv-x="733" vert-adv-y="1000"  />

      
      <glyph glyph-name="uni01AF" unicode="&#x01AF;" d="M335-9Q243-9 182 23.50Q121 56 96 121Q71 186 86 284L153 705L247 705L180 283Q163 178 200.50 125.50Q238 73 344 73Q437 73 492 122Q547 171 565 284L632 705L724 705L657 278Q641 179 600 115.50Q559 52 493 21.50Q427-9 335-9M703 652L659 684L662 705Q703 706 727.50 717Q752 728 765.50 752Q779 776 785 816L788 834L869 834L864 803Q854 736 812 696Q770 656 703 652Z"  horiz-adv-x="733" vert-adv-y="1000"  />

      
      <glyph glyph-name="uni1EE8" unicode="&#x1EE8;" d="M335-9Q243-9 182 23.50Q121 56 96 121Q71 186 86 284L153 705L247 705L180 283Q163 178 200.50 125.50Q238 73 344 73Q437 73 492 122Q547 171 565 284L632 705L724 705L657 278Q641 179 600 115.50Q559 52 493 21.50Q427-9 335-9M703 652L659 684L662 705Q703 706 727.50 717Q752 728 765.50 752Q779 776 785 816L788 834L869 834L864 803Q854 736 812 696Q770 656 703 652M425 765L556 937L658 937L493 765L425 765Z"  horiz-adv-x="733" vert-adv-y="1000"  />

      
      <glyph glyph-name="uni1EF0" unicode="&#x1EF0;" d="M335-9Q243-9 182 23.50Q121 56 96 121Q71 186 86 284L153 705L247 705L180 283Q163 178 200.50 125.50Q238 73 344 73Q437 73 492 122Q547 171 565 284L632 705L724 705L657 278Q641 179 600 115.50Q559 52 493 21.50Q427-9 335-9M703 652L659 684L662 705Q703 706 727.50 717Q752 728 765.50 752Q779 776 785 816L788 834L869 834L864 803Q854 736 812 696Q770 656 703 652M257-191L273-97L371-97L356-191L257-191Z"  horiz-adv-x="733" vert-adv-y="1000"  />

      
      <glyph glyph-name="uni1EEA" unicode="&#x1EEA;" d="M335-9Q243-9 182 23.50Q121 56 96 121Q71 186 86 284L153 705L247 705L180 283Q163 178 200.50 125.50Q238 73 344 73Q437 73 492 122Q547 171 565 284L632 705L724 705L657 278Q641 179 600 115.50Q559 52 493 21.50Q427-9 335-9M703 652L659 684L662 705Q703 706 727.50 717Q752 728 765.50 752Q779 776 785 816L788 834L869 834L864 803Q854 736 812 696Q770 656 703 652M425 765L289 937L388 937L493 765L425 765Z"  horiz-adv-x="733" vert-adv-y="1000"  />

      
      <glyph glyph-name="uni1EEC" unicode="&#x1EEC;" d="M335-9Q243-9 182 23.50Q121 56 96 121Q71 186 86 284L153 705L247 705L180 283Q163 178 200.50 125.50Q238 73 344 73Q437 73 492 122Q547 171 565 284L632 705L724 705L657 278Q641 179 600 115.50Q559 52 493 21.50Q427-9 335-9M703 652L659 684L662 705Q703 706 727.50 717Q752 728 765.50 752Q779 776 785 816L788 834L869 834L864 803Q854 736 812 696Q770 656 703 652M429 765L431 781Q434 801 445 813.50Q456 826 469 835Q482 844 491.50 852.50Q501 861 501 873Q501 883 490 888Q479 893 458 893Q442 893 427 889.50Q412 886 394 879L382 923Q423 944 481 944Q525 944 549 928Q573 912 573 886Q573 862 561.50 848.50Q550 835 534 826Q518 817 505.50 806Q493 795 491 776L490 765L429 765Z"  horiz-adv-x="733" vert-adv-y="1000"  />

      
      <glyph glyph-name="uni1EEE" unicode="&#x1EEE;" d="M335-9Q243-9 182 23.50Q121 56 96 121Q71 186 86 284L153 705L247 705L180 283Q163 178 200.50 125.50Q238 73 344 73Q437 73 492 122Q547 171 565 284L632 705L724 705L657 278Q641 179 600 115.50Q559 52 493 21.50Q427-9 335-9M703 652L659 684L662 705Q703 706 727.50 717Q752 728 765.50 752Q779 776 785 816L788 834L869 834L864 803Q854 736 812 696Q770 656 703 652M317 780L267 783Q278 849 311 884.50Q344 920 393 920Q422 920 442 907.50Q462 895 479 880Q494 867 508.50 857Q523 847 542 847Q598 847 616 923L665 920Q655 855 622.50 819Q590 783 541 783Q512 783 491.50 796.50Q471 810 454 824Q439 837 424 847Q409 857 392 857Q335 857 317 780Z"  horiz-adv-x="733" vert-adv-y="1000"  />

      
      <glyph glyph-name="uni0170" unicode="&#x0170;" d="M335-9Q243-9 182 23.50Q121 56 96 121Q71 186 86 284L153 705L247 705L180 283Q163 178 200.50 125.50Q238 73 344 73Q437 73 492 122Q547 171 565 284L632 705L724 705L657 278Q641 179 600 115.50Q559 52 493 21.50Q427-9 335-9M357 765L457 937L545 937L410 765L357 765M488 765L594 937L681 937L541 765L488 765Z"  horiz-adv-x="733" vert-adv-y="1000"  />

      
      <glyph glyph-name="uni0216" unicode="&#x0216;" d="M335-9Q243-9 182 23.50Q121 56 96 121Q71 186 86 284L153 705L247 705L180 283Q163 178 200.50 125.50Q238 73 344 73Q437 73 492 122Q547 171 565 284L632 705L724 705L657 278Q641 179 600 115.50Q559 52 493 21.50Q427-9 335-9M328 760L272 767Q285 846 335.50 891Q386 936 459 936Q506 936 542 915.50Q578 895 598 856.50Q618 818 617 767L561 760Q563 816 533.50 846.50Q504 877 454 877Q404 877 370 846.50Q336 816 328 760Z"  horiz-adv-x="733" vert-adv-y="1000"  />

      
      <glyph glyph-name="uni016A" unicode="&#x016A;" d="M335-9Q243-9 182 23.50Q121 56 96 121Q71 186 86 284L153 705L247 705L180 283Q163 178 200.50 125.50Q238 73 344 73Q437 73 492 122Q547 171 565 284L632 705L724 705L657 278Q641 179 600 115.50Q559 52 493 21.50Q427-9 335-9M291 813L300 872L631 872L622 813L291 813Z"  horiz-adv-x="733" vert-adv-y="1000"  />

      
      <glyph glyph-name="uni1E7A" unicode="&#x1E7A;" d="M335-9Q243-9 182 23.50Q121 56 96 121Q71 186 86 284L153 705L247 705L180 283Q163 178 200.50 125.50Q238 73 344 73Q437 73 492 122Q547 171 565 284L632 705L724 705L657 278Q641 179 600 115.50Q559 52 493 21.50Q427-9 335-9M303 795L312 855L613 855L604 795L303 795M336 909L348 984L441 984L429 909L336 909M514 909L525 984L618 984L606 909L514 909Z"  horiz-adv-x="733" vert-adv-y="1000"  />

      
      <glyph glyph-name="uni0172" unicode="&#x0172;" d="M335-9Q243-9 182 23.50Q121 56 96 121Q71 186 86 284L153 705L247 705L180 283Q163 178 200.50 125.50Q238 73 344 73Q437 73 492 122Q547 171 565 284L632 705L724 705L657 278Q641 179 600 115.50Q559 52 493 21.50Q427-9 335-9M372-193Q324-193 298-168Q272-143 272-102Q272-55 303-18.50Q334 18 381 37L407 0Q370-15 352.50-39Q335-63 335-88Q335-111 349-125Q363-139 388-139Q401-139 414-136Q427-133 442-127L452-177Q434-184 414-188.50Q394-193 372-193Z"  horiz-adv-x="733" vert-adv-y="1000"  />

      
      <glyph glyph-name="uni016E" unicode="&#x016E;" d="M335-9Q243-9 182 23.50Q121 56 96 121Q71 186 86 284L153 705L247 705L180 283Q163 178 200.50 125.50Q238 73 344 73Q437 73 492 122Q547 171 565 284L632 705L724 705L657 278Q641 179 600 115.50Q559 52 493 21.50Q427-9 335-9M465 757Q431 757 403.50 773Q376 789 360 816Q344 843 344 875Q344 908 360 934.50Q376 961 403.50 976.50Q431 992 464 992Q499 992 526 976.50Q553 961 569 934.50Q585 908 585 875Q585 842 569 815.50Q553 789 526 773Q499 757 465 757M465 804Q496 804 515.50 824.50Q535 845 535 875Q535 905 515.50 925Q496 945 465 945Q434 945 414 924.50Q394 904 394 875Q394 845 414 824.50Q434 804 465 804Z"  horiz-adv-x="733" vert-adv-y="1000"  />

      
      <glyph glyph-name="uni0168" unicode="&#x0168;" d="M335-9Q243-9 182 23.50Q121 56 96 121Q71 186 86 284L153 705L247 705L180 283Q163 178 200.50 125.50Q238 73 344 73Q437 73 492 122Q547 171 565 284L632 705L724 705L657 278Q641 179 600 115.50Q559 52 493 21.50Q427-9 335-9M286 780L236 783Q247 849 281.50 884.50Q316 920 366 920Q396 920 421.50 907Q447 894 470 879Q490 867 508 857Q526 847 545 847Q602 847 621 923L671 920Q660 855 626 819Q592 783 542 783Q512 783 486.50 796.50Q461 810 438 824Q418 837 399.50 847Q381 857 362 857Q305 857 286 780Z"  horiz-adv-x="733" vert-adv-y="1000"  />

      
      <glyph glyph-name="uni1E78" unicode="&#x1E78;" d="M335-9Q243-9 182 23.50Q121 56 96 121Q71 186 86 284L153 705L247 705L180 283Q163 178 200.50 125.50Q238 73 344 73Q437 73 492 122Q547 171 565 284L632 705L724 705L657 278Q641 179 600 115.50Q559 52 493 21.50Q427-9 335-9M438 885L533 1024L627 1024L498 885L438 885M523 767Q502 767 483.50 776Q465 785 448 795Q434 804 420.50 811Q407 818 392 818Q370 818 357 805.50Q344 793 337 766L290 769Q298 820 325.50 846Q353 872 394 872Q415 872 433 863.50Q451 855 469 844Q483 836 496.50 828.50Q510 821 524 821Q547 821 559.50 833.50Q572 846 579 873L627 870Q619 819 591 793Q563 767 523 767Z"  horiz-adv-x="733" vert-adv-y="1000"  />

      
      <glyph glyph-name="uni56" unicode="&#x56;" d="M269 0L73 705L169 705L338 77L305 77L673 705L775 705L352 0L269 0Z"  horiz-adv-x="703" vert-adv-y="1000"  />

      
      <glyph glyph-name="uni57" unicode="&#x57;" d="M239 0L104 705L197 705L308 83L272 83L593 705L665 705L775 83L742 83L1058 705L1154 705L793 0L712 0L603 595L624 595L319 0L239 0Z"  horiz-adv-x="1114" vert-adv-y="1000"  />

      
      <glyph glyph-name="uni1E82" unicode="&#x1E82;" d="M239 0L104 705L197 705L308 83L272 83L593 705L665 705L775 83L742 83L1058 705L1154 705L793 0L712 0L603 595L624 595L319 0L239 0M605 765L736 937L838 937L673 765L605 765Z"  horiz-adv-x="1114" vert-adv-y="1000"  />

      
      <glyph glyph-name="uni0174" unicode="&#x0174;" d="M239 0L104 705L197 705L308 83L272 83L593 705L665 705L775 83L742 83L1058 705L1154 705L793 0L712 0L603 595L624 595L319 0L239 0M467 765L607 937L690 937L795 765L729 765L645 880L533 765L467 765Z"  horiz-adv-x="1114" vert-adv-y="1000"  />

      
      <glyph glyph-name="uni1E84" unicode="&#x1E84;" d="M239 0L104 705L197 705L308 83L272 83L593 705L665 705L775 83L742 83L1058 705L1154 705L793 0L712 0L603 595L624 595L319 0L239 0M687 802L702 895L795 895L779 802L687 802M509 802L524 895L617 895L602 802L509 802Z"  horiz-adv-x="1114" vert-adv-y="1000"  />

      
      <glyph glyph-name="uni1E80" unicode="&#x1E80;" d="M239 0L104 705L197 705L308 83L272 83L593 705L665 705L775 83L742 83L1058 705L1154 705L793 0L712 0L603 595L624 595L319 0L239 0M605 765L469 937L568 937L673 765L605 765Z"  horiz-adv-x="1114" vert-adv-y="1000"  />

      
      <glyph glyph-name="uni58" unicode="&#x58;" d="M-37 0L306 378L305 342L91 705L197 705L366 409L337 409L598 705L714 705L385 342L385 378L609 0L503 0L322 314L358 314L78 0L-37 0Z"  horiz-adv-x="657" vert-adv-y="1000"  />

      
      <glyph glyph-name="uni59" unicode="&#x59;" d="M219 0L272 330L282 269L58 705L161 705L332 361L310 361L590 705L699 705L335 266L365 330L312 0L219 0Z"  horiz-adv-x="612" vert-adv-y="1000"  />

      
      <glyph glyph-name="unidd" unicode="&#xdd;" d="M219 0L272 330L282 269L58 705L161 705L332 361L310 361L590 705L699 705L335 266L365 330L312 0L219 0M354 765L485 937L587 937L422 765L354 765Z"  horiz-adv-x="612" vert-adv-y="1000"  />

      
      <glyph glyph-name="uni0176" unicode="&#x0176;" d="M219 0L272 330L282 269L58 705L161 705L332 361L310 361L590 705L699 705L335 266L365 330L312 0L219 0M217 765L357 937L440 937L545 765L479 765L395 880L283 765L217 765Z"  horiz-adv-x="612" vert-adv-y="1000"  />

      
      </font>
</defs>
</svg>
