<?xml version="1.0" standalone="no"?>
  <!DOCTYPE svg PUBLIC "-//W3C//DTD SVG 1.1//EN" "http://www.w3.org/Graphics/SVG/1.1/DTD/svg11.dtd" >
  <svg>
  <metadata>
  Created by font-carrier
  </metadata>
  <defs>
  <font id="Mulish-ExtraLightItalic" horiz-adv-x="1324" vert-adv-y="1324" >
    <font-face
      
      font-family="Mulish ExtraLight"
      
      font-weight="400"
      
      font-stretch="normal"
      
      units-per-em="1000"
      
      ascent="1005"
      
      descent="-250"
      
    />
      <missing-glyph />

      

      
      <glyph glyph-name="uni41" unicode="&#x41;" d="M-6 0L409 705L450 705L647 0L604 0L547 204L569 195L132 195L161 204L42 0L-6 0M422 649L176 228L155 234L558 234L541 228L424 649L422 649Z"  horiz-adv-x="721" vert-adv-y="1000"  />

      
      <glyph glyph-name="unic1" unicode="&#xc1;" d="M-6 0L409 705L450 705L647 0L604 0L547 204L569 195L132 195L161 204L42 0L-6 0M422 649L176 228L155 234L558 234L541 228L424 649L422 649M421 765L552 935L609 935L459 765L421 765Z"  horiz-adv-x="721" vert-adv-y="1000"  />

      
      <glyph glyph-name="uni0102" unicode="&#x0102;" d="M-6 0L409 705L450 705L647 0L604 0L547 204L569 195L132 195L161 204L42 0L-6 0M422 649L176 228L155 234L558 234L541 228L424 649L422 649M443 760Q401 760 368 780Q335 800 317 837.50Q299 875 300 927L333 931Q330 867 361.50 831.50Q393 796 446 796Q499 796 535 831.50Q571 867 581 931L614 927Q601 849 554 804.50Q507 760 443 760Z"  horiz-adv-x="721" vert-adv-y="1000"  />

      
      <glyph glyph-name="uni1EAE" unicode="&#x1EAE;" d="M-6 0L409 705L450 705L647 0L604 0L547 204L569 195L132 195L161 204L42 0L-6 0M422 649L176 228L155 234L558 234L541 228L424 649L422 649M437 768Q375 768 338 807Q301 846 304 915L337 919Q334 864 361.50 834Q389 804 438 804Q488 804 519.50 834Q551 864 559 919L592 915Q582 846 540.50 807Q499 768 437 768M416 871L526 1021L581 1021L452 871L416 871Z"  horiz-adv-x="721" vert-adv-y="1000"  />

      
      <glyph glyph-name="uni1EB6" unicode="&#x1EB6;" d="M-6 0L409 705L450 705L647 0L604 0L547 204L569 195L132 195L161 204L42 0L-6 0M422 649L176 228L155 234L558 234L541 228L424 649L422 649M259-172L269-109L333-109L323-172L259-172M443 760Q401 760 368 780Q335 800 317 837.50Q299 875 300 927L333 931Q330 867 361.50 831.50Q393 796 446 796Q499 796 535 831.50Q571 867 581 931L614 927Q601 849 554 804.50Q507 760 443 760Z"  horiz-adv-x="721" vert-adv-y="1000"  />

      
      <glyph glyph-name="uni1EB0" unicode="&#x1EB0;" d="M-6 0L409 705L450 705L647 0L604 0L547 204L569 195L132 195L161 204L42 0L-6 0M422 649L176 228L155 234L558 234L541 228L424 649L422 649M437 760Q375 760 338 799Q301 838 304 907L337 911Q334 856 361.50 826Q389 796 438 796Q488 796 519.50 826Q551 856 559 911L592 907Q582 838 540.50 799Q499 760 437 760M432 863L329 1013L382 1013L468 863L432 863Z"  horiz-adv-x="721" vert-adv-y="1000"  />

      
      <glyph glyph-name="uni1EB2" unicode="&#x1EB2;" d="M-6 0L409 705L450 705L647 0L604 0L547 204L569 195L132 195L161 204L42 0L-6 0M422 649L176 228L155 234L558 234L541 228L424 649L422 649M437 760Q375 760 338 799Q301 838 304 907L337 911Q334 856 361.50 826Q389 796 438 796Q488 796 519.50 826Q551 856 559 911L592 907Q582 838 540.50 799Q499 760 437 760M427 863Q429 888 440.50 902Q452 916 466.50 924.50Q481 933 492 941.50Q503 950 503 963Q503 975 490.50 979.50Q478 984 460 984Q443 984 423.50 980.50Q404 977 388 972L382 1001Q399 1009 418.50 1013Q438 1017 459 1017Q499 1017 520.50 1004.50Q542 992 542 969Q542 947 530.50 934.50Q519 922 503 913Q487 904 475 893.50Q463 883 461 863L427 863Z"  horiz-adv-x="721" vert-adv-y="1000"  />

      
      <glyph glyph-name="uni1EB4" unicode="&#x1EB4;" d="M-6 0L409 705L450 705L647 0L604 0L547 204L569 195L132 195L161 204L42 0L-6 0M422 649L176 228L155 234L558 234L541 228L424 649L422 649M436 760Q381 760 343.50 788.50Q306 817 298 867L331 871Q339 835 366.50 815.50Q394 796 436 796Q478 796 508.50 815.50Q539 835 553 871L586 867Q570 818 530.50 789Q491 760 436 760M335 918L302 920Q310 968 332.50 992Q355 1016 389 1016Q411 1016 429.50 1006Q448 996 465 983Q479 973 493 964.50Q507 956 522 956Q545 956 557 970.50Q569 985 577 1018L610 1016Q602 968 580 944Q558 920 524 920Q502 920 483 930Q464 940 447 953Q433 964 418.50 972Q404 980 390 980Q368 980 355.50 965.50Q343 951 335 918Z"  horiz-adv-x="721" vert-adv-y="1000"  />

      
      <glyph glyph-name="uni01CD" unicode="&#x01CD;" d="M-6 0L409 705L450 705L647 0L604 0L547 204L569 195L132 195L161 204L42 0L-6 0M422 649L176 228L155 234L558 234L541 228L424 649L422 649M416 765L313 935L349 935L440 803L565 935L603 935L464 765L416 765Z"  horiz-adv-x="721" vert-adv-y="1000"  />

      
      <glyph glyph-name="unic2" unicode="&#xc2;" d="M-6 0L409 705L450 705L647 0L604 0L547 204L569 195L132 195L161 204L42 0L-6 0M422 649L176 228L155 234L558 234L541 228L424 649L422 649M286 765L425 935L473 935L576 765L539 765L447 897L323 765L286 765Z"  horiz-adv-x="721" vert-adv-y="1000"  />

      
      <glyph glyph-name="uni1EA4" unicode="&#x1EA4;" d="M-6 0L409 705L450 705L647 0L604 0L547 204L569 195L132 195L161 204L42 0L-6 0M422 649L176 228L155 234L558 234L541 228L424 649L422 649M302 765L425 925L473 925L568 765L534 765L447 888L336 765L302 765M525 866L625 1016L680 1016L561 866L525 866Z"  horiz-adv-x="721" vert-adv-y="1000"  />

      
      <glyph glyph-name="uni1EAC" unicode="&#x1EAC;" d="M-6 0L409 705L450 705L647 0L604 0L547 204L569 195L132 195L161 204L42 0L-6 0M422 649L176 228L155 234L558 234L541 228L424 649L422 649M259-172L269-109L333-109L323-172L259-172M286 765L425 935L473 935L576 765L539 765L447 897L323 765L286 765Z"  horiz-adv-x="721" vert-adv-y="1000"  />

      
      <glyph glyph-name="uni1EA6" unicode="&#x1EA6;" d="M-6 0L409 705L450 705L647 0L604 0L547 204L569 195L132 195L161 204L42 0L-6 0M422 649L176 228L155 234L558 234L541 228L424 649L422 649M302 765L425 925L473 925L568 765L534 765L447 888L336 765L302 765M566 866L473 1016L526 1016L602 866L566 866Z"  horiz-adv-x="721" vert-adv-y="1000"  />

      
      <glyph glyph-name="uni1EA8" unicode="&#x1EA8;" d="M-6 0L409 705L450 705L647 0L604 0L547 204L569 195L132 195L161 204L42 0L-6 0M422 649L176 228L155 234L558 234L541 228L424 649L422 649M302 765L425 925L473 925L568 765L534 765L447 888L336 765L302 765M537 866Q539 891 550.50 905Q562 919 576.50 927.50Q591 936 602 944.50Q613 953 613 967Q613 978 600.50 982.50Q588 987 570 987Q553 987 533.50 983.50Q514 980 498 975L492 1004Q509 1012 528.50 1016Q548 1020 569 1020Q609 1020 630.50 1007.50Q652 995 652 972Q652 950 640.50 937.50Q629 925 613 916Q597 907 585 896.50Q573 886 571 866L537 866Z"  horiz-adv-x="721" vert-adv-y="1000"  />

      
      <glyph glyph-name="uni1EAA" unicode="&#x1EAA;" d="M-6 0L409 705L450 705L647 0L604 0L547 204L569 195L132 195L161 204L42 0L-6 0M422 649L176 228L155 234L558 234L541 228L424 649L422 649M302 765L422 895L470 895L568 765L534 765L444 861L336 765L302 765M333 921L301 923Q309 971 331.50 995Q354 1019 388 1019Q410 1019 427 1008.50Q444 998 459 986Q473 976 485.50 967.50Q498 959 513 959Q536 959 548 973.50Q560 988 568 1021L601 1019Q592 971 570.50 947Q549 923 515 923Q493 923 475.50 933.50Q458 944 443 956Q430 967 416.50 975Q403 983 389 983Q367 983 354 968.50Q341 954 333 921Z"  horiz-adv-x="721" vert-adv-y="1000"  />

      
      <glyph glyph-name="uni0200" unicode="&#x0200;" d="M-6 0L409 705L450 705L647 0L604 0L547 204L569 195L132 195L161 204L42 0L-6 0M422 649L176 228L155 234L558 234L541 228L424 649L422 649M481 765L384 935L435 935L508 765L481 765M372 765L276 935L327 935L399 765L372 765Z"  horiz-adv-x="721" vert-adv-y="1000"  />

      
      <glyph glyph-name="unic4" unicode="&#xc4;" d="M-6 0L409 705L450 705L647 0L604 0L547 204L569 195L132 195L161 204L42 0L-6 0M422 649L176 228L155 234L558 234L541 228L424 649L422 649M498 820L508 880L569 880L559 820L498 820M337 820L347 880L408 880L398 820L337 820Z"  horiz-adv-x="721" vert-adv-y="1000"  />

      
      <glyph glyph-name="uni0226" unicode="&#x0226;" d="M-6 0L409 705L450 705L647 0L604 0L547 204L569 195L132 195L161 204L42 0L-6 0M422 649L176 228L155 234L558 234L541 228L424 649L422 649M417 818L427 881L489 881L479 818L417 818Z"  horiz-adv-x="721" vert-adv-y="1000"  />

      
      <glyph glyph-name="uni1EA0" unicode="&#x1EA0;" d="M-6 0L409 705L450 705L647 0L604 0L547 204L569 195L132 195L161 204L42 0L-6 0M422 649L176 228L155 234L558 234L541 228L424 649L422 649M259-172L269-109L333-109L323-172L259-172Z"  horiz-adv-x="721" vert-adv-y="1000"  />

      
      <glyph glyph-name="unic0" unicode="&#xc0;" d="M-6 0L409 705L450 705L647 0L604 0L547 204L569 195L132 195L161 204L42 0L-6 0M422 649L176 228L155 234L558 234L541 228L424 649L422 649M421 765L299 935L354 935L459 765L421 765Z"  horiz-adv-x="721" vert-adv-y="1000"  />

      
      <glyph glyph-name="uni1EA2" unicode="&#x1EA2;" d="M-6 0L409 705L450 705L647 0L604 0L547 204L569 195L132 195L161 204L42 0L-6 0M422 649L176 228L155 234L558 234L541 228L424 649L422 649M421 765L423 779Q426 802 438.50 816Q451 830 465 839Q479 848 489.50 857.50Q500 867 500 881Q500 892 488.50 898Q477 904 451 904Q436 904 420 900.50Q404 897 384 888L378 921Q413 940 458 940Q498 940 519.50 925Q541 910 541 885Q541 862 529.50 849Q518 836 502.50 827Q487 818 474.50 806.50Q462 795 460 775L459 765L421 765Z"  horiz-adv-x="721" vert-adv-y="1000"  />

      
      <glyph glyph-name="uni0202" unicode="&#x0202;" d="M-6 0L409 705L450 705L647 0L604 0L547 204L569 195L132 195L161 204L42 0L-6 0M422 649L176 228L155 234L558 234L541 228L424 649L422 649M309 760L276 764Q289 842 336 886.50Q383 931 447 931Q490 931 522.50 911Q555 891 573.50 853.50Q592 816 590 764L557 760Q560 825 528.50 860Q497 895 444 895Q391 895 355 860Q319 825 309 760Z"  horiz-adv-x="721" vert-adv-y="1000"  />

      
      <glyph glyph-name="uni0100" unicode="&#x0100;" d="M-6 0L409 705L450 705L647 0L604 0L547 204L569 195L132 195L161 204L42 0L-6 0M422 649L176 228L155 234L558 234L541 228L424 649L422 649M294 822L300 860L610 860L604 822L294 822Z"  horiz-adv-x="721" vert-adv-y="1000"  />

      
      <glyph glyph-name="uni0104" unicode="&#x0104;" d="M-6 0L409 705L450 705L647 0L604 0L547 204L569 195L132 195L161 204L42 0L-6 0M422 649L176 228L155 234L558 234L541 228L424 649L422 649M617-190Q574-190 551-165.50Q528-141 528-103Q528-59 556.50-23.50Q585 12 629 31L647 0Q607-16 587-43Q567-70 567-99Q567-124 580.50-139Q594-154 622-154Q634-154 647.50-151Q661-148 676-141L685-175Q675-180 656-185Q637-190 617-190Z"  horiz-adv-x="721" vert-adv-y="1000"  />

      
      <glyph glyph-name="unic5" unicode="&#xc5;" d="M-6 0L409 705L450 705L647 0L604 0L547 204L569 195L132 195L161 204L42 0L-6 0M422 649L176 228L155 234L558 234L541 228L424 649L422 649M457 760Q426 760 400.50 775Q375 790 360 815Q345 840 345 870Q345 901 360 925.50Q375 950 400.50 965Q426 980 457 980Q489 980 514 965Q539 950 554 925.50Q569 901 569 870Q569 840 554 815Q539 790 514 775Q489 760 457 760M457 792Q492 792 513.50 814.50Q535 837 535 870Q535 903 513.50 925.50Q492 948 457 948Q423 948 401 925.50Q379 903 379 870Q379 837 401 814.50Q423 792 457 792Z"  horiz-adv-x="721" vert-adv-y="1000"  />

      
      <glyph glyph-name="uni01FA" unicode="&#x01FA;" d="M-6 0L409 705L450 705L647 0L604 0L547 204L569 195L132 195L161 204L42 0L-6 0M422 649L176 228L155 234L558 234L541 228L424 649L422 649M439 760Q408 760 382.50 775Q357 790 342 815Q327 840 327 870Q327 901 342 925.50Q357 950 382.50 965Q408 980 439 980Q459 980 476 974.50Q493 969 507 958L583 1029L644 1029L531 934Q551 906 551 870Q551 840 536 815Q521 790 496 775Q471 760 439 760M439 792Q474 792 495.50 814.50Q517 837 517 870Q517 903 495.50 925.50Q474 948 439 948Q405 948 383 925.50Q361 903 361 870Q361 837 383 814.50Q405 792 439 792Z"  horiz-adv-x="721" vert-adv-y="1000"  />

      
      <glyph glyph-name="unic3" unicode="&#xc3;" d="M-6 0L409 705L450 705L647 0L604 0L547 204L569 195L132 195L161 204L42 0L-6 0M422 649L176 228L155 234L558 234L541 228L424 649L422 649M275 792L243 794Q254 852 283.50 883.50Q313 915 357 915Q386 915 411 900Q436 885 459 868Q479 853 497 841.50Q515 830 534 830Q593 830 613 917L645 915Q634 857 605 825.50Q576 794 532 794Q503 794 477.50 809.50Q452 825 429 841Q410 856 391 867.50Q372 879 354 879Q295 879 275 792Z"  horiz-adv-x="721" vert-adv-y="1000"  />

      
      <glyph glyph-name="unic6" unicode="&#xc6;" d="M-26 0L509 705L1011 705L1004 666L585 666L609 690L589 366L573 377L938 377L932 338L578 338L587 348L567 20L563 39L905 39L899 0L523 0L535 198L559 195L161 195L185 207L27 0L-26 0M529 665L197 224L187 234L546 234L538 225L565 665L529 665Z"  horiz-adv-x="996" vert-adv-y="1000"  />

      
      <glyph glyph-name="uni01FC" unicode="&#x01FC;" d="M-26 0L509 705L1011 705L1004 666L585 666L609 690L589 366L573 377L938 377L932 338L578 338L587 348L567 20L563 39L905 39L899 0L523 0L535 198L559 195L161 195L185 207L27 0L-26 0M529 665L197 224L187 234L546 234L538 225L565 665L529 665M577 765L708 935L765 935L615 765L577 765Z"  horiz-adv-x="996" vert-adv-y="1000"  />

      
      <glyph glyph-name="uni42" unicode="&#x42;" d="M57 0L169 705L436 705Q540 705 590.50 656.50Q641 608 627 516Q615 444 568 403.50Q521 363 447 349L449 363Q526 356 563.50 307Q601 258 589 181Q574 87 507.50 43.50Q441 0 328 0L57 0M105 39L333 39Q419 39 476.50 72Q534 105 545 178Q555 238 537 272.50Q519 307 481 322Q443 337 390 337L152 337L105 39M159 376L372 376Q465 376 518.50 412Q572 448 582 511Q594 589 556 627.50Q518 666 437 666L204 666L159 376Z"  horiz-adv-x="672" vert-adv-y="1000"  />

      
      <glyph glyph-name="uni0181" unicode="&#x0181;" d="M163 0L268 666L229 666Q165 666 130.50 637.50Q96 609 86 549L79 506L39 506L46 551Q59 629 107 667Q155 705 247 705L542 705Q646 705 697 656.50Q748 608 733 516Q721 444 674 403.50Q627 363 553 349L555 363Q632 356 669.50 307Q707 258 695 181Q680 87 613 43.50Q546 0 433 0L163 0M211 39L439 39Q525 39 582 72Q639 105 651 178Q661 238 643 272.50Q625 307 587 322Q549 337 496 337L258 337L211 39M265 376L478 376Q571 376 624.50 412Q678 448 688 511Q700 589 662 627.50Q624 666 543 666L310 666L265 376Z"  horiz-adv-x="778" vert-adv-y="1000"  />

      
      <glyph glyph-name="uni43" unicode="&#x43;" d="M363-8Q252-8 184.50 38Q117 84 92.50 167.50Q68 251 85 363Q103 475 152 553Q201 631 276.50 672Q352 713 450 713Q524 713 579 691Q634 669 674 625L651 589Q607 635 559.50 653.50Q512 672 447 672Q316 672 234.50 588.50Q153 505 129 353Q114 257 133.50 185Q153 113 210 73Q267 33 363 33Q424 33 481 54Q538 75 585 122L607 88Q562 41 496.50 16.50Q431-8 363-8Z"  horiz-adv-x="684" vert-adv-y="1000"  />

      
      <glyph glyph-name="uni0106" unicode="&#x0106;" d="M363-8Q252-8 184.50 38Q117 84 92.50 167.50Q68 251 85 363Q103 475 152 553Q201 631 276.50 672Q352 713 450 713Q524 713 579 691Q634 669 674 625L651 589Q607 635 559.50 653.50Q512 672 447 672Q316 672 234.50 588.50Q153 505 129 353Q114 257 133.50 185Q153 113 210 73Q267 33 363 33Q424 33 481 54Q538 75 585 122L607 88Q562 41 496.50 16.50Q431-8 363-8M449 765L580 935L637 935L487 765L449 765Z"  horiz-adv-x="684" vert-adv-y="1000"  />

      
      <glyph glyph-name="uni010C" unicode="&#x010C;" d="M363-8Q252-8 184.50 38Q117 84 92.50 167.50Q68 251 85 363Q103 475 152 553Q201 631 276.50 672Q352 713 450 713Q524 713 579 691Q634 669 674 625L651 589Q607 635 559.50 653.50Q512 672 447 672Q316 672 234.50 588.50Q153 505 129 353Q114 257 133.50 185Q153 113 210 73Q267 33 363 33Q424 33 481 54Q538 75 585 122L607 88Q562 41 496.50 16.50Q431-8 363-8M444 765L341 935L377 935L468 803L593 935L631 935L492 765L444 765Z"  horiz-adv-x="684" vert-adv-y="1000"  />

      
      <glyph glyph-name="unic7" unicode="&#xc7;" d="M363-8Q252-8 184.50 38Q117 84 92.50 167.50Q68 251 85 363Q103 475 152 553Q201 631 276.50 672Q352 713 450 713Q524 713 579 691Q634 669 674 625L651 589Q607 635 559.50 653.50Q512 672 447 672Q316 672 234.50 588.50Q153 505 129 353Q114 257 133.50 185Q153 113 210 73Q267 33 363 33Q424 33 481 54Q538 75 585 122L607 88Q562 41 496.50 16.50Q431-8 363-8M326-190Q303-190 282.50-185Q262-180 249-172L261-138Q279-147 294-150.50Q309-154 333-154Q361-154 380-142.50Q399-131 399-109Q399-95 390-87Q381-79 364-79Q353-79 341-81Q329-83 311-89L298-76L329 20L367 20L342-55L324-53Q337-50 348.50-48Q360-46 370-46Q399-46 419-61.50Q439-77 439-106Q439-143 407-166.50Q375-190 326-190Z"  horiz-adv-x="684" vert-adv-y="1000"  />

      
      <glyph glyph-name="uni1E08" unicode="&#x1E08;" d="M363-8Q252-8 184.50 38Q117 84 92.50 167.50Q68 251 85 363Q103 475 152 553Q201 631 276.50 672Q352 713 450 713Q524 713 579 691Q634 669 674 625L651 589Q607 635 559.50 653.50Q512 672 447 672Q316 672 234.50 588.50Q153 505 129 353Q114 257 133.50 185Q153 113 210 73Q267 33 363 33Q424 33 481 54Q538 75 585 122L607 88Q562 41 496.50 16.50Q431-8 363-8M326-190Q303-190 282.50-185Q262-180 249-172L261-138Q279-147 294-150.50Q309-154 333-154Q361-154 380-142.50Q399-131 399-109Q399-95 390-87Q381-79 364-79Q353-79 341-81Q329-83 311-89L298-76L329 20L367 20L342-55L324-53Q337-50 348.50-48Q360-46 370-46Q399-46 419-61.50Q439-77 439-106Q439-143 407-166.50Q375-190 326-190M449 765L580 935L637 935L487 765L449 765Z"  horiz-adv-x="684" vert-adv-y="1000"  />

      
      <glyph glyph-name="uni0108" unicode="&#x0108;" d="M363-8Q252-8 184.50 38Q117 84 92.50 167.50Q68 251 85 363Q103 475 152 553Q201 631 276.50 672Q352 713 450 713Q524 713 579 691Q634 669 674 625L651 589Q607 635 559.50 653.50Q512 672 447 672Q316 672 234.50 588.50Q153 505 129 353Q114 257 133.50 185Q153 113 210 73Q267 33 363 33Q424 33 481 54Q538 75 585 122L607 88Q562 41 496.50 16.50Q431-8 363-8M314 765L453 935L501 935L604 765L567 765L475 897L351 765L314 765Z"  horiz-adv-x="684" vert-adv-y="1000"  />

      
      <glyph glyph-name="uni010A" unicode="&#x010A;" d="M363-8Q252-8 184.50 38Q117 84 92.50 167.50Q68 251 85 363Q103 475 152 553Q201 631 276.50 672Q352 713 450 713Q524 713 579 691Q634 669 674 625L651 589Q607 635 559.50 653.50Q512 672 447 672Q316 672 234.50 588.50Q153 505 129 353Q114 257 133.50 185Q153 113 210 73Q267 33 363 33Q424 33 481 54Q538 75 585 122L607 88Q562 41 496.50 16.50Q431-8 363-8M445 818L455 881L517 881L507 818L445 818Z"  horiz-adv-x="684" vert-adv-y="1000"  />

      
      <glyph glyph-name="uni44" unicode="&#x44;" d="M57 0L169 705L378 705Q497 705 569.50 662.50Q642 620 669.50 539Q697 458 679 343Q651 170 546.50 85Q442 0 271 0L57 0M105 39L273 39Q431 39 521 116Q611 193 636 353Q661 510 595.50 588Q530 666 372 666L204 666L105 39Z"  horiz-adv-x="733" vert-adv-y="1000"  />

      
      <glyph glyph-name="uni01C4" unicode="&#x01C4;" d="M57 0L169 705L378 705Q497 705 569.50 662.50Q642 620 669.50 539Q697 458 679 343Q651 170 546.50 85Q442 0 271 0L57 0M105 39L273 39Q431 39 521 116Q611 193 636 353Q661 510 595.50 588Q530 666 372 666L204 666L105 39M720 0L725 31L1279 689L1275 666L825 666L832 705L1326 705L1321 674L766 16L769 39L1230 39L1224 0L720 0M1070 765L967 935L1003 935L1094 803L1219 935L1257 935L1118 765L1070 765Z"  horiz-adv-x="1303" vert-adv-y="1000"  />

      
      <glyph glyph-name="unid0" unicode="&#xd0;" d="M57 0L169 705L378 705Q497 705 569.50 662.50Q642 620 669.50 539Q697 458 679 343Q651 170 546.50 85Q442 0 271 0L57 0M105 39L273 39Q431 39 521 116Q611 193 636 353Q661 510 595.50 588Q530 666 372 666L204 666L105 39M23 340L29 377L363 377L357 340L23 340Z"  horiz-adv-x="733" vert-adv-y="1000"  />

      
      <glyph glyph-name="uni010E" unicode="&#x010E;" d="M57 0L169 705L378 705Q497 705 569.50 662.50Q642 620 669.50 539Q697 458 679 343Q651 170 546.50 85Q442 0 271 0L57 0M105 39L273 39Q431 39 521 116Q611 193 636 353Q661 510 595.50 588Q530 666 372 666L204 666L105 39M430 765L327 935L363 935L454 803L579 935L617 935L478 765L430 765Z"  horiz-adv-x="733" vert-adv-y="1000"  />

      
      <glyph glyph-name="uni0110" unicode="&#x0110;" d="M57 0L169 705L378 705Q497 705 569.50 662.50Q642 620 669.50 539Q697 458 679 343Q651 170 546.50 85Q442 0 271 0L57 0M105 39L273 39Q431 39 521 116Q611 193 636 353Q661 510 595.50 588Q530 666 372 666L204 666L105 39M23 340L29 377L363 377L357 340L23 340Z"  horiz-adv-x="733" vert-adv-y="1000"  />

      
      <glyph glyph-name="uni1E0C" unicode="&#x1E0C;" d="M57 0L169 705L378 705Q497 705 569.50 662.50Q642 620 669.50 539Q697 458 679 343Q651 170 546.50 85Q442 0 271 0L57 0M105 39L273 39Q431 39 521 116Q611 193 636 353Q661 510 595.50 588Q530 666 372 666L204 666L105 39M273-172L283-109L347-109L337-172L273-172Z"  horiz-adv-x="733" vert-adv-y="1000"  />

      
      <glyph glyph-name="uni018A" unicode="&#x018A;" d="M163 0L268 666L229 666Q165 666 130.50 637.50Q96 609 86 549L79 506L39 506L46 551Q59 629 106.50 667Q154 705 238 705L484 705Q603 705 676 662.50Q749 620 776.50 539Q804 458 785 343Q757 170 652.50 85Q548 0 377 0L163 0M211 39L379 39Q537 39 627 116Q717 193 742 353Q767 510 701.50 588Q636 666 478 666L310 666L211 39Z"  horiz-adv-x="839" vert-adv-y="1000"  />

      
      <glyph glyph-name="uni1E0E" unicode="&#x1E0E;" d="M57 0L169 705L378 705Q497 705 569.50 662.50Q642 620 669.50 539Q697 458 679 343Q651 170 546.50 85Q442 0 271 0L57 0M105 39L273 39Q431 39 521 116Q611 193 636 353Q661 510 595.50 588Q530 666 372 666L204 666L105 39M169-148L175-110L455-110L449-148L169-148Z"  horiz-adv-x="733" vert-adv-y="1000"  />

      
      <glyph glyph-name="uni01C5" unicode="&#x01C5;" d="M57 0L169 705L378 705Q497 705 569.50 662.50Q642 620 669.50 539Q697 458 679 343Q651 170 546.50 85Q442 0 271 0L57 0M105 39L273 39Q431 39 521 116Q611 193 636 353Q661 510 595.50 588Q530 666 372 666L204 666L105 39M744 0L749 30L1174 477L1172 464L817 464L823 500L1224 500L1219 470L793 22L795 36L1163 36L1157 0L744 0M1007 549L920 749L954 749L1033 588L1150 749L1186 749L1055 549L1007 549Z"  horiz-adv-x="1245" vert-adv-y="1000"  />

      
      <glyph glyph-name="uni45" unicode="&#x45;" d="M57 0L169 705L597 705L590 666L204 666L159 377L523 377L517 338L153 338L105 39L491 39L485 0L57 0Z"  horiz-adv-x="582" vert-adv-y="1000"  />

      
      <glyph glyph-name="unic9" unicode="&#xc9;" d="M57 0L169 705L597 705L590 666L204 666L159 377L523 377L517 338L153 338L105 39L491 39L485 0L57 0M386 765L517 935L574 935L424 765L386 765Z"  horiz-adv-x="582" vert-adv-y="1000"  />

      
      <glyph glyph-name="uni0114" unicode="&#x0114;" d="M57 0L169 705L597 705L590 666L204 666L159 377L523 377L517 338L153 338L105 39L491 39L485 0L57 0M408 760Q366 760 333 780Q300 800 282 837.50Q264 875 265 927L298 931Q295 867 326.50 831.50Q358 796 411 796Q464 796 500 831.50Q536 867 546 931L579 927Q566 849 519 804.50Q472 760 408 760Z"  horiz-adv-x="582" vert-adv-y="1000"  />

      
      <glyph glyph-name="uni011A" unicode="&#x011A;" d="M57 0L169 705L597 705L590 666L204 666L159 377L523 377L517 338L153 338L105 39L491 39L485 0L57 0M381 765L278 935L314 935L405 803L530 935L568 935L429 765L381 765Z"  horiz-adv-x="582" vert-adv-y="1000"  />

      
      <glyph glyph-name="uni0228" unicode="&#x0228;" d="M57 0L169 705L597 705L590 666L204 666L159 377L523 377L517 338L153 338L105 39L491 39L485 0L57 0M265-190Q242-190 221.50-185Q201-180 188-172L200-138Q218-147 233-150.50Q248-154 272-154Q300-154 319-142.50Q338-131 338-109Q338-95 329-87Q320-79 303-79Q292-79 280-81Q268-83 250-89L237-76L268 20L306 20L281-55L263-53Q276-50 287.50-48Q299-46 309-46Q338-46 358-61.50Q378-77 378-106Q378-143 346-166.50Q314-190 265-190Z"  horiz-adv-x="582" vert-adv-y="1000"  />

      
      <glyph glyph-name="uni1E1C" unicode="&#x1E1C;" d="M57 0L169 705L597 705L590 666L204 666L159 377L523 377L517 338L153 338L105 39L491 39L485 0L57 0M265-190Q242-190 221.50-185Q201-180 188-172L200-138Q218-147 233-150.50Q248-154 272-154Q300-154 319-142.50Q338-131 338-109Q338-95 329-87Q320-79 303-79Q292-79 280-81Q268-83 250-89L237-76L268 20L306 20L281-55L263-53Q276-50 287.50-48Q299-46 309-46Q338-46 358-61.50Q378-77 378-106Q378-143 346-166.50Q314-190 265-190M408 760Q366 760 333 780Q300 800 282 837.50Q264 875 265 927L298 931Q295 867 326.50 831.50Q358 796 411 796Q464 796 500 831.50Q536 867 546 931L579 927Q566 849 519 804.50Q472 760 408 760Z"  horiz-adv-x="582" vert-adv-y="1000"  />

      
      <glyph glyph-name="unica" unicode="&#xca;" d="M57 0L169 705L597 705L590 666L204 666L159 377L523 377L517 338L153 338L105 39L491 39L485 0L57 0M251 765L390 935L438 935L541 765L504 765L412 897L288 765L251 765Z"  horiz-adv-x="582" vert-adv-y="1000"  />

      
      <glyph glyph-name="uni1EBE" unicode="&#x1EBE;" d="M57 0L169 705L597 705L590 666L204 666L159 377L523 377L517 338L153 338L105 39L491 39L485 0L57 0M267 765L390 925L438 925L533 765L499 765L412 888L301 765L267 765M490 866L590 1016L645 1016L526 866L490 866Z"  horiz-adv-x="582" vert-adv-y="1000"  />

      
      <glyph glyph-name="uni1EC6" unicode="&#x1EC6;" d="M57 0L169 705L597 705L590 666L204 666L159 377L523 377L517 338L153 338L105 39L491 39L485 0L57 0M224-172L234-109L298-109L288-172L224-172M251 765L390 935L438 935L541 765L504 765L412 897L288 765L251 765Z"  horiz-adv-x="582" vert-adv-y="1000"  />

      
      <glyph glyph-name="uni1EC0" unicode="&#x1EC0;" d="M57 0L169 705L597 705L590 666L204 666L159 377L523 377L517 338L153 338L105 39L491 39L485 0L57 0M267 765L390 925L438 925L533 765L499 765L412 888L301 765L267 765M531 866L438 1016L491 1016L567 866L531 866Z"  horiz-adv-x="582" vert-adv-y="1000"  />

      
      <glyph glyph-name="uni1EC2" unicode="&#x1EC2;" d="M57 0L169 705L597 705L590 666L204 666L159 377L523 377L517 338L153 338L105 39L491 39L485 0L57 0M267 765L390 925L438 925L533 765L499 765L412 888L301 765L267 765M502 866Q504 891 515.50 905Q527 919 541.50 927.50Q556 936 567 944.50Q578 953 578 967Q578 978 565.50 982.50Q553 987 535 987Q518 987 498.50 983.50Q479 980 463 975L457 1004Q474 1012 493.50 1016Q513 1020 534 1020Q574 1020 595.50 1007.50Q617 995 617 972Q617 950 605.50 937.50Q594 925 578 916Q562 907 550 896.50Q538 886 536 866L502 866Z"  horiz-adv-x="582" vert-adv-y="1000"  />

      
      <glyph glyph-name="uni1EC4" unicode="&#x1EC4;" d="M57 0L169 705L597 705L590 666L204 666L159 377L523 377L517 338L153 338L105 39L491 39L485 0L57 0M267 765L387 895L435 895L533 765L499 765L409 861L301 765L267 765M298 921L266 923Q274 971 296.50 995Q319 1019 353 1019Q375 1019 392 1008.50Q409 998 424 986Q438 976 450.50 967.50Q463 959 478 959Q501 959 513 973.50Q525 988 533 1021L566 1019Q557 971 535.50 947Q514 923 480 923Q458 923 440.50 933.50Q423 944 408 956Q395 967 381.50 975Q368 983 354 983Q332 983 319 968.50Q306 954 298 921Z"  horiz-adv-x="582" vert-adv-y="1000"  />

      
      <glyph glyph-name="uni0204" unicode="&#x0204;" d="M57 0L169 705L597 705L590 666L204 666L159 377L523 377L517 338L153 338L105 39L491 39L485 0L57 0M446 765L349 935L400 935L473 765L446 765M337 765L241 935L292 935L364 765L337 765Z"  horiz-adv-x="582" vert-adv-y="1000"  />

      
      <glyph glyph-name="unicb" unicode="&#xcb;" d="M57 0L169 705L597 705L590 666L204 666L159 377L523 377L517 338L153 338L105 39L491 39L485 0L57 0M463 820L473 880L534 880L524 820L463 820M302 820L312 880L373 880L363 820L302 820Z"  horiz-adv-x="582" vert-adv-y="1000"  />

      
      <glyph glyph-name="uni0116" unicode="&#x0116;" d="M57 0L169 705L597 705L590 666L204 666L159 377L523 377L517 338L153 338L105 39L491 39L485 0L57 0M382 818L392 881L454 881L444 818L382 818Z"  horiz-adv-x="582" vert-adv-y="1000"  />

      
      <glyph glyph-name="uni1EB8" unicode="&#x1EB8;" d="M57 0L169 705L597 705L590 666L204 666L159 377L523 377L517 338L153 338L105 39L491 39L485 0L57 0M224-172L234-109L298-109L288-172L224-172Z"  horiz-adv-x="582" vert-adv-y="1000"  />

      
      <glyph glyph-name="unic8" unicode="&#xc8;" d="M57 0L169 705L597 705L590 666L204 666L159 377L523 377L517 338L153 338L105 39L491 39L485 0L57 0M386 765L264 935L319 935L424 765L386 765Z"  horiz-adv-x="582" vert-adv-y="1000"  />

      
      <glyph glyph-name="uni1EBA" unicode="&#x1EBA;" d="M57 0L169 705L597 705L590 666L204 666L159 377L523 377L517 338L153 338L105 39L491 39L485 0L57 0M386 765L388 779Q391 802 403.50 816Q416 830 430 839Q444 848 454.50 857.50Q465 867 465 881Q465 892 453.50 898Q442 904 416 904Q401 904 385 900.50Q369 897 349 888L343 921Q378 940 423 940Q463 940 484.50 925Q506 910 506 885Q506 862 494.50 849Q483 836 467.50 827Q452 818 439.50 806.50Q427 795 425 775L424 765L386 765Z"  horiz-adv-x="582" vert-adv-y="1000"  />

      
      <glyph glyph-name="uni0206" unicode="&#x0206;" d="M57 0L169 705L597 705L590 666L204 666L159 377L523 377L517 338L153 338L105 39L491 39L485 0L57 0M274 760L241 764Q254 842 301 886.50Q348 931 412 931Q455 931 487.50 911Q520 891 538.50 853.50Q557 816 555 764L522 760Q525 825 493.50 860Q462 895 409 895Q356 895 320 860Q284 825 274 760Z"  horiz-adv-x="582" vert-adv-y="1000"  />

      
      <glyph glyph-name="uni0112" unicode="&#x0112;" d="M57 0L169 705L597 705L590 666L204 666L159 377L523 377L517 338L153 338L105 39L491 39L485 0L57 0M259 822L265 860L575 860L569 822L259 822Z"  horiz-adv-x="582" vert-adv-y="1000"  />

      
      <glyph glyph-name="uni1E16" unicode="&#x1E16;" d="M57 0L169 705L597 705L590 666L204 666L159 377L523 377L517 338L153 338L105 39L491 39L485 0L57 0M269 796L275 834L555 834L549 796L269 796M403 871L514 1021L569 1021L439 871L403 871Z"  horiz-adv-x="582" vert-adv-y="1000"  />

      
      <glyph glyph-name="uni1E14" unicode="&#x1E14;" d="M57 0L169 705L597 705L590 666L204 666L159 377L523 377L517 338L153 338L105 39L491 39L485 0L57 0M403 871L301 1021L354 1021L439 871L403 871M269 796L275 834L555 834L549 796L269 796Z"  horiz-adv-x="582" vert-adv-y="1000"  />

      
      <glyph glyph-name="uni0118" unicode="&#x0118;" d="M57 0L169 705L597 705L590 666L204 666L159 377L523 377L517 338L153 338L105 39L491 39L485 0L57 0M429-190Q386-190 363-165.50Q340-141 340-103Q340-59 368.50-23.50Q397 12 441 31L459 0Q419-16 399-43Q379-70 379-99Q379-124 392.50-139Q406-154 434-154Q446-154 459.50-151Q473-148 488-141L497-175Q487-180 468-185Q449-190 429-190Z"  horiz-adv-x="582" vert-adv-y="1000"  />

      
      <glyph glyph-name="uni1EBC" unicode="&#x1EBC;" d="M57 0L169 705L597 705L590 666L204 666L159 377L523 377L517 338L153 338L105 39L491 39L485 0L57 0M240 792L208 794Q219 852 248.50 883.50Q278 915 322 915Q351 915 376 900Q401 885 424 868Q444 853 462 841.50Q480 830 499 830Q558 830 578 917L610 915Q599 857 570 825.50Q541 794 497 794Q468 794 442.50 809.50Q417 825 394 841Q375 856 356 867.50Q337 879 319 879Q260 879 240 792Z"  horiz-adv-x="582" vert-adv-y="1000"  />

      
      <glyph glyph-name="uni46" unicode="&#x46;" d="M57 0L169 705L587 705L580 666L204 666L159 377L514 377L508 338L153 338L99 0L57 0Z"  horiz-adv-x="554" vert-adv-y="1000"  />

      
      <glyph glyph-name="uni47" unicode="&#x47;" d="M372-8Q256-8 186.50 37Q117 82 92.50 165.50Q68 249 86 363Q104 475 153.50 553Q203 631 281 672Q359 713 460 713Q538 713 590 691Q642 669 680 629L656 592Q616 634 571.50 653Q527 672 457 672Q324 672 238.50 588Q153 504 129 352Q105 202 163 117.50Q221 33 371 33Q428 33 479 44Q530 55 578 77L560 38L604 318L410 318L417 357L651 357L601 44Q574 28 535 16.50Q496 5 453.50-1.50Q411-8 372-8Z"  horiz-adv-x="723" vert-adv-y="1000"  />

      
      <glyph glyph-name="uni011E" unicode="&#x011E;" d="M372-8Q256-8 186.50 37Q117 82 92.50 165.50Q68 249 86 363Q104 475 153.50 553Q203 631 281 672Q359 713 460 713Q538 713 590 691Q642 669 680 629L656 592Q616 634 571.50 653Q527 672 457 672Q324 672 238.50 588Q153 504 129 352Q105 202 163 117.50Q221 33 371 33Q428 33 479 44Q530 55 578 77L560 38L604 318L410 318L417 357L651 357L601 44Q574 28 535 16.50Q496 5 453.50-1.50Q411-8 372-8M476 760Q434 760 401 780Q368 800 350 837.50Q332 875 333 927L366 931Q363 867 394.50 831.50Q426 796 479 796Q532 796 568 831.50Q604 867 614 931L647 927Q634 849 587 804.50Q540 760 476 760Z"  horiz-adv-x="723" vert-adv-y="1000"  />

      
      <glyph glyph-name="uni01E6" unicode="&#x01E6;" d="M372-8Q256-8 186.50 37Q117 82 92.50 165.50Q68 249 86 363Q104 475 153.50 553Q203 631 281 672Q359 713 460 713Q538 713 590 691Q642 669 680 629L656 592Q616 634 571.50 653Q527 672 457 672Q324 672 238.50 588Q153 504 129 352Q105 202 163 117.50Q221 33 371 33Q428 33 479 44Q530 55 578 77L560 38L604 318L410 318L417 357L651 357L601 44Q574 28 535 16.50Q496 5 453.50-1.50Q411-8 372-8M449 765L346 935L382 935L473 803L598 935L636 935L497 765L449 765Z"  horiz-adv-x="723" vert-adv-y="1000"  />

      
      <glyph glyph-name="uni011C" unicode="&#x011C;" d="M372-8Q256-8 186.50 37Q117 82 92.50 165.50Q68 249 86 363Q104 475 153.50 553Q203 631 281 672Q359 713 460 713Q538 713 590 691Q642 669 680 629L656 592Q616 634 571.50 653Q527 672 457 672Q324 672 238.50 588Q153 504 129 352Q105 202 163 117.50Q221 33 371 33Q428 33 479 44Q530 55 578 77L560 38L604 318L410 318L417 357L651 357L601 44Q574 28 535 16.50Q496 5 453.50-1.50Q411-8 372-8M319 765L458 935L506 935L609 765L572 765L480 897L356 765L319 765Z"  horiz-adv-x="723" vert-adv-y="1000"  />

      
      <glyph glyph-name="uni0122" unicode="&#x0122;" d="M372-8Q256-8 186.50 37Q117 82 92.50 165.50Q68 249 86 363Q104 475 153.50 553Q203 631 281 672Q359 713 460 713Q538 713 590 691Q642 669 680 629L656 592Q616 634 571.50 653Q527 672 457 672Q324 672 238.50 588Q153 504 129 352Q105 202 163 117.50Q221 33 371 33Q428 33 479 44Q530 55 578 77L560 38L604 318L410 318L417 357L651 357L601 44Q574 28 535 16.50Q496 5 453.50-1.50Q411-8 372-8M316-259L296-237Q323-214 331-193Q339-172 344-144L357-151L307-151L318-86L388-86L378-147Q372-183 357.50-211Q343-239 316-259Z"  horiz-adv-x="723" vert-adv-y="1000"  />

      
      <glyph glyph-name="uni0120" unicode="&#x0120;" d="M372-8Q256-8 186.50 37Q117 82 92.50 165.50Q68 249 86 363Q104 475 153.50 553Q203 631 281 672Q359 713 460 713Q538 713 590 691Q642 669 680 629L656 592Q616 634 571.50 653Q527 672 457 672Q324 672 238.50 588Q153 504 129 352Q105 202 163 117.50Q221 33 371 33Q428 33 479 44Q530 55 578 77L560 38L604 318L410 318L417 357L651 357L601 44Q574 28 535 16.50Q496 5 453.50-1.50Q411-8 372-8M450 818L460 881L522 881L512 818L450 818Z"  horiz-adv-x="723" vert-adv-y="1000"  />

      
      <glyph glyph-name="uni1E20" unicode="&#x1E20;" d="M372-8Q256-8 186.50 37Q117 82 92.50 165.50Q68 249 86 363Q104 475 153.50 553Q203 631 281 672Q359 713 460 713Q538 713 590 691Q642 669 680 629L656 592Q616 634 571.50 653Q527 672 457 672Q324 672 238.50 588Q153 504 129 352Q105 202 163 117.50Q221 33 371 33Q428 33 479 44Q530 55 578 77L560 38L604 318L410 318L417 357L651 357L601 44Q574 28 535 16.50Q496 5 453.50-1.50Q411-8 372-8M327 822L333 860L643 860L637 822L327 822Z"  horiz-adv-x="723" vert-adv-y="1000"  />

      
      <glyph glyph-name="uni48" unicode="&#x48;" d="M57 0L169 705L211 705L159 377L640 377L692 705L734 705L622 0L580 0L634 338L153 338L99 0L57 0Z"  horiz-adv-x="759" vert-adv-y="1000"  />

      
      <glyph glyph-name="uni0126" unicode="&#x0126;" d="M62 0L145 527L47 527L53 565L151 565L174 705L216 705L193 565L672 565L695 705L737 705L714 565L812 565L806 527L708 527L625 0L583 0L637 338L158 338L104 0L62 0M164 377L643 377L666 527L187 527L164 377Z"  horiz-adv-x="767" vert-adv-y="1000"  />

      
      <glyph glyph-name="uni1E2A" unicode="&#x1E2A;" d="M57 0L169 705L211 705L159 377L640 377L692 705L734 705L622 0L580 0L634 338L153 338L99 0L57 0M319-215Q257-215 220-176Q183-137 186-68L219-64Q215-119 243-149Q271-179 320-179Q370-179 401-149Q432-119 441-64L474-68Q464-137 422.50-176Q381-215 319-215Z"  horiz-adv-x="759" vert-adv-y="1000"  />

      
      <glyph glyph-name="uni0124" unicode="&#x0124;" d="M57 0L169 705L211 705L159 377L640 377L692 705L734 705L622 0L580 0L634 338L153 338L99 0L57 0M308 765L447 935L495 935L598 765L561 765L469 897L345 765L308 765Z"  horiz-adv-x="759" vert-adv-y="1000"  />

      
      <glyph glyph-name="uni1E24" unicode="&#x1E24;" d="M57 0L169 705L211 705L159 377L640 377L692 705L734 705L622 0L580 0L634 338L153 338L99 0L57 0M281-172L291-109L355-109L345-172L281-172Z"  horiz-adv-x="759" vert-adv-y="1000"  />

      
      <glyph glyph-name="uni49" unicode="&#x49;" d="M57 0L169 705L211 705L99 0L57 0Z"  horiz-adv-x="236" vert-adv-y="1000"  />

      
      <glyph glyph-name="uni0132" unicode="&#x0132;" d="M57 0L169 705L211 705L99 0L57 0M237-186Q221-186 203.50-184Q186-182 168-175L174-136Q192-143 207.50-145.50Q223-148 237-148Q283-148 313-118Q343-88 353-24L469 705L511 705L395-26Q387-76 366.50-112Q346-148 313.50-167Q281-186 237-186Z"  horiz-adv-x="536" vert-adv-y="1000"  />

      
      <glyph glyph-name="unicd" unicode="&#xcd;" d="M57 0L169 705L211 705L99 0L57 0M181 765L312 935L369 935L219 765L181 765Z"  horiz-adv-x="236" vert-adv-y="1000"  />

      
      <glyph glyph-name="uni012C" unicode="&#x012C;" d="M57 0L169 705L211 705L99 0L57 0M203 760Q161 760 128 780Q95 800 77 837.50Q59 875 60 927L93 931Q90 867 121.50 831.50Q153 796 206 796Q259 796 295 831.50Q331 867 341 931L374 927Q361 849 314 804.50Q267 760 203 760Z"  horiz-adv-x="236" vert-adv-y="1000"  />

      
      <glyph glyph-name="unice" unicode="&#xce;" d="M57 0L169 705L211 705L99 0L57 0M46 765L185 935L233 935L336 765L299 765L207 897L83 765L46 765Z"  horiz-adv-x="236" vert-adv-y="1000"  />

      
      <glyph glyph-name="uni0208" unicode="&#x0208;" d="M57 0L169 705L211 705L99 0L57 0M241 765L144 935L195 935L268 765L241 765M132 765L36 935L87 935L159 765L132 765Z"  horiz-adv-x="236" vert-adv-y="1000"  />

      
      <glyph glyph-name="unicf" unicode="&#xcf;" d="M57 0L169 705L211 705L99 0L57 0M258 820L268 880L329 880L319 820L258 820M97 820L107 880L168 880L158 820L97 820Z"  horiz-adv-x="236" vert-adv-y="1000"  />

      
      <glyph glyph-name="uni1E2E" unicode="&#x1E2E;" d="M57 0L169 705L211 705L99 0L57 0M198 871L309 1021L364 1021L234 871L198 871M89 771L99 831L160 831L150 771L89 771M250 771L260 831L321 831L311 771L250 771Z"  horiz-adv-x="236" vert-adv-y="1000"  />

      
      <glyph glyph-name="uni0130" unicode="&#x0130;" d="M57 0L169 705L211 705L99 0L57 0M177 818L187 881L249 881L239 818L177 818Z"  horiz-adv-x="236" vert-adv-y="1000"  />

      
      <glyph glyph-name="uni1ECA" unicode="&#x1ECA;" d="M57 0L169 705L211 705L99 0L57 0M19-172L29-109L93-109L83-172L19-172Z"  horiz-adv-x="236" vert-adv-y="1000"  />

      
      <glyph glyph-name="unicc" unicode="&#xcc;" d="M57 0L169 705L211 705L99 0L57 0M181 765L59 935L114 935L219 765L181 765Z"  horiz-adv-x="236" vert-adv-y="1000"  />

      
      <glyph glyph-name="uni1EC8" unicode="&#x1EC8;" d="M57 0L169 705L211 705L99 0L57 0M181 765L183 779Q186 802 198.50 816Q211 830 225 839Q239 848 249.50 857.50Q260 867 260 881Q260 892 248.50 898Q237 904 211 904Q196 904 180 900.50Q164 897 144 888L138 921Q173 940 218 940Q258 940 279.50 925Q301 910 301 885Q301 862 289.50 849Q278 836 262.50 827Q247 818 234.50 806.50Q222 795 220 775L219 765L181 765Z"  horiz-adv-x="236" vert-adv-y="1000"  />

      
      <glyph glyph-name="uni020A" unicode="&#x020A;" d="M57 0L169 705L211 705L99 0L57 0M69 760L36 764Q49 842 96 886.50Q143 931 207 931Q250 931 282.50 911Q315 891 333.50 853.50Q352 816 350 764L317 760Q320 825 288.50 860Q257 895 204 895Q151 895 115 860Q79 825 69 760Z"  horiz-adv-x="236" vert-adv-y="1000"  />

      
      <glyph glyph-name="uni012A" unicode="&#x012A;" d="M57 0L169 705L211 705L99 0L57 0M54 822L60 860L370 860L364 822L54 822Z"  horiz-adv-x="236" vert-adv-y="1000"  />

      
      <glyph glyph-name="uni012E" unicode="&#x012E;" d="M57 0L169 705L211 705L99 0L57 0M69-190Q26-190 3-165.50Q-20-141-20-103Q-20-59 8.50-23.50Q37 12 81 31L99 0Q59-16 39-43Q19-70 19-99Q19-124 32.50-139Q46-154 74-154Q86-154 99.50-151Q113-148 128-141L137-175Q127-180 108-185Q89-190 69-190Z"  horiz-adv-x="236" vert-adv-y="1000"  />

      
      <glyph glyph-name="uni0128" unicode="&#x0128;" d="M57 0L169 705L211 705L99 0L57 0M35 792L3 794Q14 852 43.50 883.50Q73 915 117 915Q146 915 171 900Q196 885 219 868Q239 853 257 841.50Q275 830 294 830Q353 830 373 917L405 915Q394 857 365 825.50Q336 794 292 794Q263 794 237.50 809.50Q212 825 189 841Q170 856 151 867.50Q132 879 114 879Q55 879 35 792Z"  horiz-adv-x="236" vert-adv-y="1000"  />

      
      <glyph glyph-name="uni4a" unicode="&#x4a;" d="M1-186Q-15-186-32.50-184Q-50-182-68-175L-62-136Q-44-143-28.50-145.50Q-13-148 1-148Q47-148 77-118Q107-88 117-24L233 705L275 705L159-26Q151-76 130.50-112Q110-148 77.50-167Q45-186 1-186Z"  horiz-adv-x="300" vert-adv-y="1000"  />

      
      <glyph glyph-name="uni0134" unicode="&#x0134;" d="M1-186Q-15-186-32.50-184Q-50-182-68-175L-62-136Q-44-143-28.50-145.50Q-13-148 1-148Q47-148 77-118Q107-88 117-24L233 705L275 705L159-26Q151-76 130.50-112Q110-148 77.50-167Q45-186 1-186M109 765L248 935L296 935L399 765L362 765L270 897L146 765L109 765Z"  horiz-adv-x="300" vert-adv-y="1000"  />

      
      <glyph glyph-name="uni4b" unicode="&#x4b;" d="M57 0L169 705L211 705L159 377L161 377L575 705L640 705L178 343L178 373L559 0L498 0L155 338L153 338L99 0L57 0Z"  horiz-adv-x="605" vert-adv-y="1000"  />

      
      <glyph glyph-name="uni0136" unicode="&#x0136;" d="M57 0L169 705L211 705L159 377L161 377L575 705L640 705L178 343L178 373L559 0L498 0L155 338L153 338L99 0L57 0M219-259L199-237Q226-214 234-193Q242-172 247-144L260-151L210-151L221-86L291-86L281-147Q275-183 260.50-211Q246-239 219-259Z"  horiz-adv-x="605" vert-adv-y="1000"  />

      
      <glyph glyph-name="uni4c" unicode="&#x4c;" d="M57 0L169 705L211 705L105 39L483 39L477 0L57 0Z"  horiz-adv-x="532" vert-adv-y="1000"  />

      
      <glyph glyph-name="uni01C7" unicode="&#x01C7;" d="M57 0L169 705L211 705L105 39L483 39L477 0L57 0M573-186Q557-186 539.50-184Q522-182 504-175L510-136Q528-143 543.50-145.50Q559-148 573-148Q619-148 649-118Q679-88 689-24L805 705L847 705L731-26Q723-76 702.50-112Q682-148 649.50-167Q617-186 573-186Z"  horiz-adv-x="872" vert-adv-y="1000"  />

      
      <glyph glyph-name="uni0139" unicode="&#x0139;" d="M57 0L169 705L211 705L105 39L483 39L477 0L57 0M181 765L312 935L369 935L219 765L181 765Z"  horiz-adv-x="532" vert-adv-y="1000"  />

      
      <glyph glyph-name="uni013D" unicode="&#x013D;" d="M57 0L169 705L211 705L105 39L483 39L477 0L57 0M294 489L328 705L377 705L324 489L294 489Z"  horiz-adv-x="532" vert-adv-y="1000"  />

      
      <glyph glyph-name="uni013B" unicode="&#x013B;" d="M57 0L169 705L211 705L105 39L483 39L477 0L57 0M213-259L193-237Q220-214 228-193Q236-172 241-144L254-151L204-151L215-86L285-86L275-147Q269-183 254.50-211Q240-239 213-259Z"  horiz-adv-x="532" vert-adv-y="1000"  />

      
      <glyph glyph-name="uni013F" unicode="&#x013F;" d="M57 0L169 705L211 705L105 39L483 39L477 0L57 0M365 352L376 420L445 420L434 352L365 352Z"  horiz-adv-x="532" vert-adv-y="1000"  />

      
      <glyph glyph-name="uni1E36" unicode="&#x1E36;" d="M57 0L169 705L211 705L105 39L483 39L477 0L57 0M204-172L214-109L278-109L268-172L204-172Z"  horiz-adv-x="532" vert-adv-y="1000"  />

      
      <glyph glyph-name="uni01C8" unicode="&#x01C8;" d="M57 0L169 705L211 705L105 39L483 39L477 0L57 0M466-218Q456-218 437.50-215.50Q419-213 408-207L415-167Q426-171 442-175Q458-179 471-179Q518-179 544-148Q570-117 580-51L667 500L709 500L620-60Q608-138 568.50-178Q529-218 466-218M677 631L687 694L751 694L741 631L677 631Z"  horiz-adv-x="750" vert-adv-y="1000"  />

      
      <glyph glyph-name="uni1E3A" unicode="&#x1E3A;" d="M57 0L169 705L211 705L105 39L483 39L477 0L57 0M100-148L106-110L386-110L380-148L100-148Z"  horiz-adv-x="532" vert-adv-y="1000"  />

      
      <glyph glyph-name="uni0141" unicode="&#x0141;" d="M57 0L169 705L211 705L105 39L483 39L477 0L57 0M21 294L4 328L343 485L360 451L21 294Z"  horiz-adv-x="532" vert-adv-y="1000"  />

      
      <glyph glyph-name="uni4d" unicode="&#x4d;" d="M57 0L169 705L206 705L401 17L373 17L787 705L823 705L711 0L672 0L777 664L804 664L402 0L370 0L179 665L201 665L96 0L57 0Z"  horiz-adv-x="848" vert-adv-y="1000"  />

      
      <glyph glyph-name="uni1E42" unicode="&#x1E42;" d="M57 0L169 705L206 705L401 17L373 17L787 705L823 705L711 0L672 0L777 664L804 664L402 0L370 0L179 665L201 665L96 0L57 0M325-172L335-109L399-109L389-172L325-172Z"  horiz-adv-x="848" vert-adv-y="1000"  />

      
      <glyph glyph-name="uni4e" unicode="&#x4e;" d="M57 0L169 705L205 705L586 42L570 42L675 705L714 705L602 0L567 0L186 663L201 663L96 0L57 0Z"  horiz-adv-x="739" vert-adv-y="1000"  />

      
      <glyph glyph-name="uni01CA" unicode="&#x01CA;" d="M57 0L169 705L205 705L586 42L570 42L675 705L714 705L602 0L567 0L186 663L201 663L96 0L57 0M740-186Q724-186 706.50-184Q689-182 671-175L677-136Q695-143 710.50-145.50Q726-148 740-148Q786-148 816-118Q846-88 856-24L972 705L1014 705L898-26Q890-76 869.50-112Q849-148 816.50-167Q784-186 740-186Z"  horiz-adv-x="1039" vert-adv-y="1000"  />

      
      <glyph glyph-name="uni0143" unicode="&#x0143;" d="M57 0L169 705L205 705L586 42L570 42L675 705L714 705L602 0L567 0L186 663L201 663L96 0L57 0M433 765L564 935L621 935L471 765L433 765Z"  horiz-adv-x="739" vert-adv-y="1000"  />

      
      <glyph glyph-name="uni0147" unicode="&#x0147;" d="M57 0L169 705L205 705L586 42L570 42L675 705L714 705L602 0L567 0L186 663L201 663L96 0L57 0M428 765L325 935L361 935L452 803L577 935L615 935L476 765L428 765Z"  horiz-adv-x="739" vert-adv-y="1000"  />

      
      <glyph glyph-name="uni0145" unicode="&#x0145;" d="M57 0L169 705L205 705L586 42L570 42L675 705L714 705L602 0L567 0L186 663L201 663L96 0L57 0M280-259L260-237Q287-214 295-193Q303-172 308-144L321-151L271-151L282-86L352-86L342-147Q336-183 321.50-211Q307-239 280-259Z"  horiz-adv-x="739" vert-adv-y="1000"  />

      
      <glyph glyph-name="uni1E44" unicode="&#x1E44;" d="M57 0L169 705L205 705L586 42L570 42L675 705L714 705L602 0L567 0L186 663L201 663L96 0L57 0M429 818L439 881L501 881L491 818L429 818Z"  horiz-adv-x="739" vert-adv-y="1000"  />

      
      <glyph glyph-name="uni1E46" unicode="&#x1E46;" d="M57 0L169 705L205 705L586 42L570 42L675 705L714 705L602 0L567 0L186 663L201 663L96 0L57 0M271-172L281-109L345-109L335-172L271-172Z"  horiz-adv-x="739" vert-adv-y="1000"  />

      
      <glyph glyph-name="uni014A" unicode="&#x014A;" d="M380-193L383-155L427-152Q482-148 516-115Q550-82 560-22L567 26L567 0L186 663L201 663L96 0L57 0L169 705L205 705L586 42L570 42L675 705L714 705L599-21Q591-72 567.50-109Q544-146 508.50-166.50Q473-187 426-190L380-193Z"  horiz-adv-x="739" vert-adv-y="1000"  />

      
      <glyph glyph-name="uni01CB" unicode="&#x01CB;" d="M57 0L169 705L205 705L586 42L570 42L675 705L714 705L602 0L567 0L186 663L201 663L96 0L57 0M673-218Q663-218 644.50-215.50Q626-213 615-207L622-167Q633-171 649-175Q665-179 678-179Q725-179 751-148Q777-117 787-51L874 500L916 500L827-60Q815-138 775.50-178Q736-218 673-218M884 631L894 694L958 694L948 631L884 631Z"  horiz-adv-x="957" vert-adv-y="1000"  />

      
      <glyph glyph-name="uni1E48" unicode="&#x1E48;" d="M57 0L169 705L205 705L586 42L570 42L675 705L714 705L602 0L567 0L186 663L201 663L96 0L57 0M167-148L173-110L453-110L447-148L167-148Z"  horiz-adv-x="739" vert-adv-y="1000"  />

      
      <glyph glyph-name="unid1" unicode="&#xd1;" d="M57 0L169 705L205 705L586 42L570 42L675 705L714 705L602 0L567 0L186 663L201 663L96 0L57 0M287 792L255 794Q266 852 295.50 883.50Q325 915 369 915Q398 915 423 900Q448 885 471 868Q491 853 509 841.50Q527 830 546 830Q605 830 625 917L657 915Q646 857 617 825.50Q588 794 544 794Q515 794 489.50 809.50Q464 825 441 841Q422 856 403 867.50Q384 879 366 879Q307 879 287 792Z"  horiz-adv-x="739" vert-adv-y="1000"  />

      
      <glyph glyph-name="uni4f" unicode="&#x4f;" d="M86 363Q104 475 152.50 553Q201 631 276 672Q351 713 447 713Q547 713 610.50 666.50Q674 620 698.50 536.50Q723 453 705 342Q688 231 639 152.50Q590 74 515 33Q440-8 343-8Q244-8 180.50 38Q117 84 93 167.50Q69 251 86 363M129 353Q113 254 133.50 182.50Q154 111 208 72Q262 33 346 33Q476 33 557 117Q638 201 662 352Q678 450 657 522Q636 594 582.50 633Q529 672 445 672Q315 672 234.50 588.50Q154 505 129 353Z"  horiz-adv-x="759" vert-adv-y="1000"  />

      
      <glyph glyph-name="unid3" unicode="&#xd3;" d="M86 363Q104 475 152.50 553Q201 631 276 672Q351 713 447 713Q547 713 610.50 666.50Q674 620 698.50 536.50Q723 453 705 342Q688 231 639 152.50Q590 74 515 33Q440-8 343-8Q244-8 180.50 38Q117 84 93 167.50Q69 251 86 363M129 353Q113 254 133.50 182.50Q154 111 208 72Q262 33 346 33Q476 33 557 117Q638 201 662 352Q678 450 657 522Q636 594 582.50 633Q529 672 445 672Q315 672 234.50 588.50Q154 505 129 353M442 765L573 935L630 935L480 765L442 765Z"  horiz-adv-x="759" vert-adv-y="1000"  />

      
      <glyph glyph-name="uni014E" unicode="&#x014E;" d="M86 363Q104 475 152.50 553Q201 631 276 672Q351 713 447 713Q547 713 610.50 666.50Q674 620 698.50 536.50Q723 453 705 342Q688 231 639 152.50Q590 74 515 33Q440-8 343-8Q244-8 180.50 38Q117 84 93 167.50Q69 251 86 363M129 353Q113 254 133.50 182.50Q154 111 208 72Q262 33 346 33Q476 33 557 117Q638 201 662 352Q678 450 657 522Q636 594 582.50 633Q529 672 445 672Q315 672 234.50 588.50Q154 505 129 353M464 760Q422 760 389 780Q356 800 338 837.50Q320 875 321 927L354 931Q351 867 382.50 831.50Q414 796 467 796Q520 796 556 831.50Q592 867 602 931L635 927Q622 849 575 804.50Q528 760 464 760Z"  horiz-adv-x="759" vert-adv-y="1000"  />

      
      <glyph glyph-name="unid4" unicode="&#xd4;" d="M86 363Q104 475 152.50 553Q201 631 276 672Q351 713 447 713Q547 713 610.50 666.50Q674 620 698.50 536.50Q723 453 705 342Q688 231 639 152.50Q590 74 515 33Q440-8 343-8Q244-8 180.50 38Q117 84 93 167.50Q69 251 86 363M129 353Q113 254 133.50 182.50Q154 111 208 72Q262 33 346 33Q476 33 557 117Q638 201 662 352Q678 450 657 522Q636 594 582.50 633Q529 672 445 672Q315 672 234.50 588.50Q154 505 129 353M307 765L446 935L494 935L597 765L560 765L468 897L344 765L307 765Z"  horiz-adv-x="759" vert-adv-y="1000"  />

      
      <glyph glyph-name="uni1ED0" unicode="&#x1ED0;" d="M86 363Q104 475 152.50 553Q201 631 276 672Q351 713 447 713Q547 713 610.50 666.50Q674 620 698.50 536.50Q723 453 705 342Q688 231 639 152.50Q590 74 515 33Q440-8 343-8Q244-8 180.50 38Q117 84 93 167.50Q69 251 86 363M129 353Q113 254 133.50 182.50Q154 111 208 72Q262 33 346 33Q476 33 557 117Q638 201 662 352Q678 450 657 522Q636 594 582.50 633Q529 672 445 672Q315 672 234.50 588.50Q154 505 129 353M323 765L446 925L494 925L589 765L555 765L468 888L357 765L323 765M546 866L646 1016L701 1016L582 866L546 866Z"  horiz-adv-x="759" vert-adv-y="1000"  />

      
      <glyph glyph-name="uni1ED8" unicode="&#x1ED8;" d="M86 363Q104 475 152.50 553Q201 631 276 672Q351 713 447 713Q547 713 610.50 666.50Q674 620 698.50 536.50Q723 453 705 342Q688 231 639 152.50Q590 74 515 33Q440-8 343-8Q244-8 180.50 38Q117 84 93 167.50Q69 251 86 363M129 353Q113 254 133.50 182.50Q154 111 208 72Q262 33 346 33Q476 33 557 117Q638 201 662 352Q678 450 657 522Q636 594 582.50 633Q529 672 445 672Q315 672 234.50 588.50Q154 505 129 353M280-172L290-109L354-109L344-172L280-172M307 765L446 935L494 935L597 765L560 765L468 897L344 765L307 765Z"  horiz-adv-x="759" vert-adv-y="1000"  />

      
      <glyph glyph-name="uni1ED2" unicode="&#x1ED2;" d="M86 363Q104 475 152.50 553Q201 631 276 672Q351 713 447 713Q547 713 610.50 666.50Q674 620 698.50 536.50Q723 453 705 342Q688 231 639 152.50Q590 74 515 33Q440-8 343-8Q244-8 180.50 38Q117 84 93 167.50Q69 251 86 363M129 353Q113 254 133.50 182.50Q154 111 208 72Q262 33 346 33Q476 33 557 117Q638 201 662 352Q678 450 657 522Q636 594 582.50 633Q529 672 445 672Q315 672 234.50 588.50Q154 505 129 353M323 765L446 925L494 925L589 765L555 765L468 888L357 765L323 765M587 866L494 1016L547 1016L623 866L587 866Z"  horiz-adv-x="759" vert-adv-y="1000"  />

      
      <glyph glyph-name="uni1ED4" unicode="&#x1ED4;" d="M86 363Q104 475 152.50 553Q201 631 276 672Q351 713 447 713Q547 713 610.50 666.50Q674 620 698.50 536.50Q723 453 705 342Q688 231 639 152.50Q590 74 515 33Q440-8 343-8Q244-8 180.50 38Q117 84 93 167.50Q69 251 86 363M129 353Q113 254 133.50 182.50Q154 111 208 72Q262 33 346 33Q476 33 557 117Q638 201 662 352Q678 450 657 522Q636 594 582.50 633Q529 672 445 672Q315 672 234.50 588.50Q154 505 129 353M323 765L446 925L494 925L589 765L555 765L468 888L357 765L323 765M558 866Q560 891 571.50 905Q583 919 597.50 927.50Q612 936 623 944.50Q634 953 634 967Q634 978 621.50 982.50Q609 987 591 987Q574 987 554.50 983.50Q535 980 519 975L513 1004Q530 1012 549.50 1016Q569 1020 590 1020Q630 1020 651.50 1007.50Q673 995 673 972Q673 950 661.50 937.50Q650 925 634 916Q618 907 606 896.50Q594 886 592 866L558 866Z"  horiz-adv-x="759" vert-adv-y="1000"  />

      
      <glyph glyph-name="uni1ED6" unicode="&#x1ED6;" d="M86 363Q104 475 152.50 553Q201 631 276 672Q351 713 447 713Q547 713 610.50 666.50Q674 620 698.50 536.50Q723 453 705 342Q688 231 639 152.50Q590 74 515 33Q440-8 343-8Q244-8 180.50 38Q117 84 93 167.50Q69 251 86 363M129 353Q113 254 133.50 182.50Q154 111 208 72Q262 33 346 33Q476 33 557 117Q638 201 662 352Q678 450 657 522Q636 594 582.50 633Q529 672 445 672Q315 672 234.50 588.50Q154 505 129 353M323 765L443 895L491 895L589 765L555 765L465 861L357 765L323 765M354 921L322 923Q330 971 352.50 995Q375 1019 409 1019Q431 1019 448 1008.50Q465 998 480 986Q494 976 506.50 967.50Q519 959 534 959Q557 959 569 973.50Q581 988 589 1021L622 1019Q613 971 591.50 947Q570 923 536 923Q514 923 496.50 933.50Q479 944 464 956Q451 967 437.50 975Q424 983 410 983Q388 983 375 968.50Q362 954 354 921Z"  horiz-adv-x="759" vert-adv-y="1000"  />

      
      <glyph glyph-name="uni020C" unicode="&#x020C;" d="M86 363Q104 475 152.50 553Q201 631 276 672Q351 713 447 713Q547 713 610.50 666.50Q674 620 698.50 536.50Q723 453 705 342Q688 231 639 152.50Q590 74 515 33Q440-8 343-8Q244-8 180.50 38Q117 84 93 167.50Q69 251 86 363M129 353Q113 254 133.50 182.50Q154 111 208 72Q262 33 346 33Q476 33 557 117Q638 201 662 352Q678 450 657 522Q636 594 582.50 633Q529 672 445 672Q315 672 234.50 588.50Q154 505 129 353M502 765L405 935L456 935L529 765L502 765M393 765L297 935L348 935L420 765L393 765Z"  horiz-adv-x="759" vert-adv-y="1000"  />

      
      <glyph glyph-name="unid6" unicode="&#xd6;" d="M86 363Q104 475 152.50 553Q201 631 276 672Q351 713 447 713Q547 713 610.50 666.50Q674 620 698.50 536.50Q723 453 705 342Q688 231 639 152.50Q590 74 515 33Q440-8 343-8Q244-8 180.50 38Q117 84 93 167.50Q69 251 86 363M129 353Q113 254 133.50 182.50Q154 111 208 72Q262 33 346 33Q476 33 557 117Q638 201 662 352Q678 450 657 522Q636 594 582.50 633Q529 672 445 672Q315 672 234.50 588.50Q154 505 129 353M519 820L529 880L590 880L580 820L519 820M358 820L368 880L429 880L419 820L358 820Z"  horiz-adv-x="759" vert-adv-y="1000"  />

      
      <glyph glyph-name="uni022A" unicode="&#x022A;" d="M86 363Q104 475 152.50 553Q201 631 276 672Q351 713 447 713Q547 713 610.50 666.50Q674 620 698.50 536.50Q723 453 705 342Q688 231 639 152.50Q590 74 515 33Q440-8 343-8Q244-8 180.50 38Q117 84 93 167.50Q69 251 86 363M129 353Q113 254 133.50 182.50Q154 111 208 72Q262 33 346 33Q476 33 557 117Q638 201 662 352Q678 450 657 522Q636 594 582.50 633Q529 672 445 672Q315 672 234.50 588.50Q154 505 129 353M346 927L352 965L632 965L626 927L346 927M356 806L366 866L427 866L417 806L356 806M517 806L527 866L588 866L578 806L517 806Z"  horiz-adv-x="759" vert-adv-y="1000"  />

      
      <glyph glyph-name="uni0230" unicode="&#x0230;" d="M86 363Q104 475 152.50 553Q201 631 276 672Q351 713 447 713Q547 713 610.50 666.50Q674 620 698.50 536.50Q723 453 705 342Q688 231 639 152.50Q590 74 515 33Q440-8 343-8Q244-8 180.50 38Q117 84 93 167.50Q69 251 86 363M129 353Q113 254 133.50 182.50Q154 111 208 72Q262 33 346 33Q476 33 557 117Q638 201 662 352Q678 450 657 522Q636 594 582.50 633Q529 672 445 672Q315 672 234.50 588.50Q154 505 129 353M346 927L352 965L632 965L626 927L346 927M437 806L447 866L508 866L498 806L437 806Z"  horiz-adv-x="759" vert-adv-y="1000"  />

      
      <glyph glyph-name="uni1ECC" unicode="&#x1ECC;" d="M86 363Q104 475 152.50 553Q201 631 276 672Q351 713 447 713Q547 713 610.50 666.50Q674 620 698.50 536.50Q723 453 705 342Q688 231 639 152.50Q590 74 515 33Q440-8 343-8Q244-8 180.50 38Q117 84 93 167.50Q69 251 86 363M129 353Q113 254 133.50 182.50Q154 111 208 72Q262 33 346 33Q476 33 557 117Q638 201 662 352Q678 450 657 522Q636 594 582.50 633Q529 672 445 672Q315 672 234.50 588.50Q154 505 129 353M280-172L290-109L354-109L344-172L280-172Z"  horiz-adv-x="759" vert-adv-y="1000"  />

      
      <glyph glyph-name="unid2" unicode="&#xd2;" d="M86 363Q104 475 152.50 553Q201 631 276 672Q351 713 447 713Q547 713 610.50 666.50Q674 620 698.50 536.50Q723 453 705 342Q688 231 639 152.50Q590 74 515 33Q440-8 343-8Q244-8 180.50 38Q117 84 93 167.50Q69 251 86 363M129 353Q113 254 133.50 182.50Q154 111 208 72Q262 33 346 33Q476 33 557 117Q638 201 662 352Q678 450 657 522Q636 594 582.50 633Q529 672 445 672Q315 672 234.50 588.50Q154 505 129 353M442 765L320 935L375 935L480 765L442 765Z"  horiz-adv-x="759" vert-adv-y="1000"  />

      
      <glyph glyph-name="uni1ECE" unicode="&#x1ECE;" d="M86 363Q104 475 152.50 553Q201 631 276 672Q351 713 447 713Q547 713 610.50 666.50Q674 620 698.50 536.50Q723 453 705 342Q688 231 639 152.50Q590 74 515 33Q440-8 343-8Q244-8 180.50 38Q117 84 93 167.50Q69 251 86 363M129 353Q113 254 133.50 182.50Q154 111 208 72Q262 33 346 33Q476 33 557 117Q638 201 662 352Q678 450 657 522Q636 594 582.50 633Q529 672 445 672Q315 672 234.50 588.50Q154 505 129 353M442 765L444 779Q447 802 459.50 816Q472 830 486 839Q500 848 510.50 857.50Q521 867 521 881Q521 892 509.50 898Q498 904 472 904Q457 904 441 900.50Q425 897 405 888L399 921Q434 940 479 940Q519 940 540.50 925Q562 910 562 885Q562 862 550.50 849Q539 836 523.50 827Q508 818 495.50 806.50Q483 795 481 775L480 765L442 765Z"  horiz-adv-x="759" vert-adv-y="1000"  />

      
      <glyph glyph-name="uni01A0" unicode="&#x01A0;" d="M86 363Q104 475 152.50 553Q201 631 276 672Q351 713 447 713Q547 713 610.50 666.50Q674 620 698.50 536.50Q723 453 705 342Q688 231 639 152.50Q590 74 515 33Q440-8 343-8Q244-8 180.50 38Q117 84 93 167.50Q69 251 86 363M129 353Q113 254 133.50 182.50Q154 111 208 72Q262 33 346 33Q476 33 557 117Q638 201 662 352Q678 450 657 522Q636 594 582.50 633Q529 672 445 672Q315 672 234.50 588.50Q154 505 129 353M548 667L501 709Q530 707 551 706Q572 705 594 705Q643 705 670.50 718.50Q698 732 712.50 759Q727 786 733 825L735 837L775 837L772 817Q765 768 744.50 734.50Q724 701 689.50 684Q655 667 604 667L548 667Z"  horiz-adv-x="759" vert-adv-y="1000"  />

      
      <glyph glyph-name="uni1EDA" unicode="&#x1EDA;" d="M86 363Q104 475 152.50 553Q201 631 276 672Q351 713 447 713Q547 713 610.50 666.50Q674 620 698.50 536.50Q723 453 705 342Q688 231 639 152.50Q590 74 515 33Q440-8 343-8Q244-8 180.50 38Q117 84 93 167.50Q69 251 86 363M129 353Q113 254 133.50 182.50Q154 111 208 72Q262 33 346 33Q476 33 557 117Q638 201 662 352Q678 450 657 522Q636 594 582.50 633Q529 672 445 672Q315 672 234.50 588.50Q154 505 129 353M548 667L501 709Q530 707 551 706Q572 705 594 705Q643 705 670.50 718.50Q698 732 712.50 759Q727 786 733 825L735 837L775 837L772 817Q765 768 744.50 734.50Q724 701 689.50 684Q655 667 604 667L548 667M450 765L581 935L638 935L488 765L450 765Z"  horiz-adv-x="759" vert-adv-y="1000"  />

      
      <glyph glyph-name="uni1EE2" unicode="&#x1EE2;" d="M86 363Q104 475 152.50 553Q201 631 276 672Q351 713 447 713Q547 713 610.50 666.50Q674 620 698.50 536.50Q723 453 705 342Q688 231 639 152.50Q590 74 515 33Q440-8 343-8Q244-8 180.50 38Q117 84 93 167.50Q69 251 86 363M129 353Q113 254 133.50 182.50Q154 111 208 72Q262 33 346 33Q476 33 557 117Q638 201 662 352Q678 450 657 522Q636 594 582.50 633Q529 672 445 672Q315 672 234.50 588.50Q154 505 129 353M548 667L501 709Q530 707 551 706Q572 705 594 705Q643 705 670.50 718.50Q698 732 712.50 759Q727 786 733 825L735 837L775 837L772 817Q765 768 744.50 734.50Q724 701 689.50 684Q655 667 604 667L548 667M289-172L299-109L363-109L353-172L289-172Z"  horiz-adv-x="759" vert-adv-y="1000"  />

      
      <glyph glyph-name="uni1EDC" unicode="&#x1EDC;" d="M86 363Q104 475 152.50 553Q201 631 276 672Q351 713 447 713Q547 713 610.50 666.50Q674 620 698.50 536.50Q723 453 705 342Q688 231 639 152.50Q590 74 515 33Q440-8 343-8Q244-8 180.50 38Q117 84 93 167.50Q69 251 86 363M129 353Q113 254 133.50 182.50Q154 111 208 72Q262 33 346 33Q476 33 557 117Q638 201 662 352Q678 450 657 522Q636 594 582.50 633Q529 672 445 672Q315 672 234.50 588.50Q154 505 129 353M548 667L501 709Q530 707 551 706Q572 705 594 705Q643 705 670.50 718.50Q698 732 712.50 759Q727 786 733 825L735 837L775 837L772 817Q765 768 744.50 734.50Q724 701 689.50 684Q655 667 604 667L548 667M450 765L328 935L383 935L488 765L450 765Z"  horiz-adv-x="759" vert-adv-y="1000"  />

      
      <glyph glyph-name="uni1EDE" unicode="&#x1EDE;" d="M86 363Q104 475 152.50 553Q201 631 276 672Q351 713 447 713Q547 713 610.50 666.50Q674 620 698.50 536.50Q723 453 705 342Q688 231 639 152.50Q590 74 515 33Q440-8 343-8Q244-8 180.50 38Q117 84 93 167.50Q69 251 86 363M129 353Q113 254 133.50 182.50Q154 111 208 72Q262 33 346 33Q476 33 557 117Q638 201 662 352Q678 450 657 522Q636 594 582.50 633Q529 672 445 672Q315 672 234.50 588.50Q154 505 129 353M548 667L501 709Q530 707 551 706Q572 705 594 705Q643 705 670.50 718.50Q698 732 712.50 759Q727 786 733 825L735 837L775 837L772 817Q765 768 744.50 734.50Q724 701 689.50 684Q655 667 604 667L548 667M450 765L452 779Q455 802 467.50 816Q480 830 494 839Q508 848 518.50 857.50Q529 867 529 881Q529 892 517.50 898Q506 904 480 904Q465 904 449 900.50Q433 897 413 888L407 921Q442 940 487 940Q527 940 548.50 925Q570 910 570 885Q570 862 558.50 849Q547 836 531.50 827Q516 818 503.50 806.50Q491 795 489 775L488 765L450 765Z"  horiz-adv-x="759" vert-adv-y="1000"  />

      
      <glyph glyph-name="uni1EE0" unicode="&#x1EE0;" d="M86 363Q104 475 152.50 553Q201 631 276 672Q351 713 447 713Q547 713 610.50 666.50Q674 620 698.50 536.50Q723 453 705 342Q688 231 639 152.50Q590 74 515 33Q440-8 343-8Q244-8 180.50 38Q117 84 93 167.50Q69 251 86 363M129 353Q113 254 133.50 182.50Q154 111 208 72Q262 33 346 33Q476 33 557 117Q638 201 662 352Q678 450 657 522Q636 594 582.50 633Q529 672 445 672Q315 672 234.50 588.50Q154 505 129 353M548 667L501 709Q530 707 551 706Q572 705 594 705Q643 705 670.50 718.50Q698 732 712.50 759Q727 786 733 825L735 837L775 837L772 817Q765 768 744.50 734.50Q724 701 689.50 684Q655 667 604 667L548 667M328 792L296 794Q307 852 336.50 883.50Q366 915 410 915Q439 915 459 900Q479 885 496 868Q511 853 525.50 841.50Q540 830 559 830Q618 830 638 917L670 915Q659 857 630 825.50Q601 794 557 794Q528 794 507.50 809Q487 824 470 841Q455 856 440 867.50Q425 879 407 879Q348 879 328 792Z"  horiz-adv-x="759" vert-adv-y="1000"  />

      
      <glyph glyph-name="uni0150" unicode="&#x0150;" d="M86 363Q104 475 152.50 553Q201 631 276 672Q351 713 447 713Q547 713 610.50 666.50Q674 620 698.50 536.50Q723 453 705 342Q688 231 639 152.50Q590 74 515 33Q440-8 343-8Q244-8 180.50 38Q117 84 93 167.50Q69 251 86 363M129 353Q113 254 133.50 182.50Q154 111 208 72Q262 33 346 33Q476 33 557 117Q638 201 662 352Q678 450 657 522Q636 594 582.50 633Q529 672 445 672Q315 672 234.50 588.50Q154 505 129 353M393 765L493 935L545 935L420 765L393 765M502 765L601 935L653 935L529 765L502 765Z"  horiz-adv-x="759" vert-adv-y="1000"  />

      
      <glyph glyph-name="uni020E" unicode="&#x020E;" d="M86 363Q104 475 152.50 553Q201 631 276 672Q351 713 447 713Q547 713 610.50 666.50Q674 620 698.50 536.50Q723 453 705 342Q688 231 639 152.50Q590 74 515 33Q440-8 343-8Q244-8 180.50 38Q117 84 93 167.50Q69 251 86 363M129 353Q113 254 133.50 182.50Q154 111 208 72Q262 33 346 33Q476 33 557 117Q638 201 662 352Q678 450 657 522Q636 594 582.50 633Q529 672 445 672Q315 672 234.50 588.50Q154 505 129 353M330 760L297 764Q310 842 357 886.50Q404 931 468 931Q511 931 543.50 911Q576 891 594.50 853.50Q613 816 611 764L578 760Q581 825 549.50 860Q518 895 465 895Q412 895 376 860Q340 825 330 760Z"  horiz-adv-x="759" vert-adv-y="1000"  />

      
      <glyph glyph-name="uni014C" unicode="&#x014C;" d="M86 363Q104 475 152.50 553Q201 631 276 672Q351 713 447 713Q547 713 610.50 666.50Q674 620 698.50 536.50Q723 453 705 342Q688 231 639 152.50Q590 74 515 33Q440-8 343-8Q244-8 180.50 38Q117 84 93 167.50Q69 251 86 363M129 353Q113 254 133.50 182.50Q154 111 208 72Q262 33 346 33Q476 33 557 117Q638 201 662 352Q678 450 657 522Q636 594 582.50 633Q529 672 445 672Q315 672 234.50 588.50Q154 505 129 353M315 822L321 860L631 860L625 822L315 822Z"  horiz-adv-x="759" vert-adv-y="1000"  />

      
      <glyph glyph-name="uni1E52" unicode="&#x1E52;" d="M86 363Q104 475 152.50 553Q201 631 276 672Q351 713 447 713Q547 713 610.50 666.50Q674 620 698.50 536.50Q723 453 705 342Q688 231 639 152.50Q590 74 515 33Q440-8 343-8Q244-8 180.50 38Q117 84 93 167.50Q69 251 86 363M129 353Q113 254 133.50 182.50Q154 111 208 72Q262 33 346 33Q476 33 557 117Q638 201 662 352Q678 450 657 522Q636 594 582.50 633Q529 672 445 672Q315 672 234.50 588.50Q154 505 129 353M325 796L331 834L611 834L605 796L325 796M459 871L570 1021L625 1021L495 871L459 871Z"  horiz-adv-x="759" vert-adv-y="1000"  />

      
      <glyph glyph-name="uni1E50" unicode="&#x1E50;" d="M86 363Q104 475 152.50 553Q201 631 276 672Q351 713 447 713Q547 713 610.50 666.50Q674 620 698.50 536.50Q723 453 705 342Q688 231 639 152.50Q590 74 515 33Q440-8 343-8Q244-8 180.50 38Q117 84 93 167.50Q69 251 86 363M129 353Q113 254 133.50 182.50Q154 111 208 72Q262 33 346 33Q476 33 557 117Q638 201 662 352Q678 450 657 522Q636 594 582.50 633Q529 672 445 672Q315 672 234.50 588.50Q154 505 129 353M459 871L357 1021L410 1021L495 871L459 871M325 796L331 834L611 834L605 796L325 796Z"  horiz-adv-x="759" vert-adv-y="1000"  />

      
      <glyph glyph-name="uni01EA" unicode="&#x01EA;" d="M86 363Q104 475 152.50 553Q201 631 276 672Q351 713 447 713Q547 713 610.50 666.50Q674 620 698.50 536.50Q723 453 705 342Q688 231 639 152.50Q590 74 515 33Q440-8 343-8Q244-8 180.50 38Q117 84 93 167.50Q69 251 86 363M129 353Q113 254 133.50 182.50Q154 111 208 72Q262 33 346 33Q476 33 557 117Q638 201 662 352Q678 450 657 522Q636 594 582.50 633Q529 672 445 672Q315 672 234.50 588.50Q154 505 129 353M366-190Q323-190 300-165.50Q277-141 277-103Q277-59 305.50-23.50Q334 12 378 31L396 0Q356-16 336-43Q316-70 316-99Q316-124 329.50-139Q343-154 371-154Q383-154 396.50-151Q410-148 425-141L434-175Q424-180 405-185Q386-190 366-190Z"  horiz-adv-x="759" vert-adv-y="1000"  />

      
      <glyph glyph-name="unid8" unicode="&#xd8;" d="M86 363Q104 475 152.50 553Q201 631 276 672Q351 713 447 713Q547 713 610.50 666.50Q674 620 698.50 536.50Q723 453 705 342Q688 231 639 152.50Q590 74 515 33Q440-8 343-8Q244-8 180.50 38Q117 84 93 167.50Q69 251 86 363M129 353Q113 254 133.50 182.50Q154 111 208 72Q262 33 346 33Q476 33 557 117Q638 201 662 352Q678 450 657 522Q636 594 582.50 633Q529 672 445 672Q315 672 234.50 588.50Q154 505 129 353M198 54L140-24L110-2L168 77L185 99L577 629L593 651L652 729L682 707L623 628L607 606L215 76L198 54Z"  horiz-adv-x="759" vert-adv-y="1000"  />

      
      <glyph glyph-name="uni01FE" unicode="&#x01FE;" d="M86 363Q104 475 152.50 553Q201 631 276 672Q351 713 447 713Q547 713 610.50 666.50Q674 620 698.50 536.50Q723 453 705 342Q688 231 639 152.50Q590 74 515 33Q440-8 343-8Q244-8 180.50 38Q117 84 93 167.50Q69 251 86 363M129 353Q113 254 133.50 182.50Q154 111 208 72Q262 33 346 33Q476 33 557 117Q638 201 662 352Q678 450 657 522Q636 594 582.50 633Q529 672 445 672Q315 672 234.50 588.50Q154 505 129 353M198 54L140-24L110-2L168 77L185 99L577 629L593 651L652 729L682 707L623 628L607 606L215 76L198 54M442 765L573 935L630 935L480 765L442 765Z"  horiz-adv-x="759" vert-adv-y="1000"  />

      
      <glyph glyph-name="unid5" unicode="&#xd5;" d="M86 363Q104 475 152.50 553Q201 631 276 672Q351 713 447 713Q547 713 610.50 666.50Q674 620 698.50 536.50Q723 453 705 342Q688 231 639 152.50Q590 74 515 33Q440-8 343-8Q244-8 180.50 38Q117 84 93 167.50Q69 251 86 363M129 353Q113 254 133.50 182.50Q154 111 208 72Q262 33 346 33Q476 33 557 117Q638 201 662 352Q678 450 657 522Q636 594 582.50 633Q529 672 445 672Q315 672 234.50 588.50Q154 505 129 353M296 792L264 794Q275 852 304.50 883.50Q334 915 378 915Q407 915 432 900Q457 885 480 868Q500 853 518 841.50Q536 830 555 830Q614 830 634 917L666 915Q655 857 626 825.50Q597 794 553 794Q524 794 498.50 809.50Q473 825 450 841Q431 856 412 867.50Q393 879 375 879Q316 879 296 792Z"  horiz-adv-x="759" vert-adv-y="1000"  />

      
      <glyph glyph-name="uni1E4C" unicode="&#x1E4C;" d="M86 363Q104 475 152.50 553Q201 631 276 672Q351 713 447 713Q547 713 610.50 666.50Q674 620 698.50 536.50Q723 453 705 342Q688 231 639 152.50Q590 74 515 33Q440-8 343-8Q244-8 180.50 38Q117 84 93 167.50Q69 251 86 363M129 353Q113 254 133.50 182.50Q154 111 208 72Q262 33 346 33Q476 33 557 117Q638 201 662 352Q678 450 657 522Q636 594 582.50 633Q529 672 445 672Q315 672 234.50 588.50Q154 505 129 353M459 871L570 1021L625 1021L495 871L459 871M531 768Q511 768 494 778.50Q477 789 461 800Q448 811 434 819.50Q420 828 405 828Q383 828 370.50 813.50Q358 799 350 766L317 768Q325 816 349.50 840Q374 864 408 864Q428 864 444.50 854Q461 844 477 832Q491 822 504.50 813Q518 804 533 804Q556 804 568.50 818.50Q581 833 588 866L621 864Q613 816 589 792Q565 768 531 768Z"  horiz-adv-x="759" vert-adv-y="1000"  />

      
      <glyph glyph-name="uni1E4E" unicode="&#x1E4E;" d="M86 363Q104 475 152.50 553Q201 631 276 672Q351 713 447 713Q547 713 610.50 666.50Q674 620 698.50 536.50Q723 453 705 342Q688 231 639 152.50Q590 74 515 33Q440-8 343-8Q244-8 180.50 38Q117 84 93 167.50Q69 251 86 363M129 353Q113 254 133.50 182.50Q154 111 208 72Q262 33 346 33Q476 33 557 117Q638 201 662 352Q678 450 657 522Q636 594 582.50 633Q529 672 445 672Q315 672 234.50 588.50Q154 505 129 353M531 768Q511 768 494 778.50Q477 789 461 800Q448 811 434 819.50Q420 828 405 828Q383 828 370.50 813.50Q358 799 350 766L317 768Q325 816 349.50 840Q374 864 408 864Q428 864 444.50 854Q461 844 477 832Q491 822 504.50 813Q518 804 533 804Q556 804 568.50 818.50Q581 833 588 866L621 864Q613 816 589 792Q565 768 531 768M372 910L382 970L443 970L433 910L372 910M533 910L543 970L604 970L594 910L533 910Z"  horiz-adv-x="759" vert-adv-y="1000"  />

      
      <glyph glyph-name="uni022C" unicode="&#x022C;" d="M86 363Q104 475 152.50 553Q201 631 276 672Q351 713 447 713Q547 713 610.50 666.50Q674 620 698.50 536.50Q723 453 705 342Q688 231 639 152.50Q590 74 515 33Q440-8 343-8Q244-8 180.50 38Q117 84 93 167.50Q69 251 86 363M129 353Q113 254 133.50 182.50Q154 111 208 72Q262 33 346 33Q476 33 557 117Q638 201 662 352Q678 450 657 522Q636 594 582.50 633Q529 672 445 672Q315 672 234.50 588.50Q154 505 129 353M346 927L352 965L632 965L626 927L346 927M531 768Q511 768 494 778.50Q477 789 461 800Q448 811 434 819.50Q420 828 405 828Q383 828 370.50 813.50Q358 799 350 766L317 768Q325 816 349.50 840Q374 864 408 864Q428 864 444.50 854Q461 844 477 832Q491 822 504.50 813Q518 804 533 804Q556 804 568.50 818.50Q581 833 588 866L621 864Q613 816 589 792Q565 768 531 768Z"  horiz-adv-x="759" vert-adv-y="1000"  />

      
      <glyph glyph-name="uni0152" unicode="&#x0152;" d="M532 0L644 705L1072 705L1065 666L679 666L634 377L1000 377L994 338L628 338L580 39L966 39L960 0L532 0M343-8Q241-8 178 38.50Q115 85 92 168.50Q69 252 86 363Q104 475 152.50 553Q201 631 276 672Q351 713 447 713Q512 713 565 691Q618 669 652 623L642 565Q616 615 565.50 643.50Q515 672 445 672Q315 672 234 588.50Q153 505 129 353Q114 256 132.50 184Q151 112 204.50 72.50Q258 33 344 33Q415 33 473.50 60.50Q532 88 575 141L565 75Q519 33 464 12.50Q409-8 343-8Z"  horiz-adv-x="1057" vert-adv-y="1000"  />

      
      <glyph glyph-name="uni50" unicode="&#x50;" d="M57 0L169 705L427 705Q537 705 588.50 651.50Q640 598 624 501Q615 440 582 399Q549 358 497.50 337.50Q446 317 380 317L149 317L99 0L57 0M155 356L374 356Q463 356 515.50 393Q568 430 580 505Q593 584 553 625Q513 666 424 666L204 666L155 356Z"  horiz-adv-x="638" vert-adv-y="1000"  />

      
      <glyph glyph-name="unide" unicode="&#xde;" d="M57 0L169 705L211 705L188 559L404 559Q514 559 565 505.50Q616 452 601 355Q592 294 559 253Q526 212 474.50 191.50Q423 171 357 171L126 171L99 0L57 0M132 210L351 210Q440 210 492.50 247Q545 284 557 359Q570 438 530 479Q490 520 401 520L181 520L132 210Z"  horiz-adv-x="638" vert-adv-y="1000"  />

      
      <glyph glyph-name="uni51" unicode="&#x51;" d="M501-191Q477-171 452-140Q427-109 406-72.50Q385-36 371 1L419 12Q438-40 470-83Q502-126 536-158L501-191M86 363Q104 475 152.50 553Q201 631 276 672Q351 713 447 713Q547 713 610.50 666.50Q674 620 698.50 536.50Q723 453 705 342Q688 231 639 152.50Q590 74 515 33Q440-8 343-8Q244-8 180.50 38Q117 84 93 167.50Q69 251 86 363M129 353Q113 254 133.50 182.50Q154 111 208 72Q262 33 346 33Q476 33 557 117Q638 201 662 352Q678 450 657 522Q636 594 582.50 633Q529 672 445 672Q315 672 234.50 588.50Q154 505 129 353Z"  horiz-adv-x="759" vert-adv-y="1000"  />

      
      <glyph glyph-name="uni52" unicode="&#x52;" d="M57 0L169 705L434 705Q544 705 595.50 652Q647 599 632 504Q623 448 590 408.50Q557 369 507 349Q457 329 397 329L405 337L413 337Q453 337 480.50 318Q508 299 521 252L592 0L547 0L482 236Q467 290 432.50 306Q398 322 337 322L150 322L99 0L57 0M156 361L390 361Q475 361 526 400Q577 439 588 509Q600 586 559 626Q518 666 428 666L204 666L156 361Z"  horiz-adv-x="684" vert-adv-y="1000"  />

      
      <glyph glyph-name="uni0154" unicode="&#x0154;" d="M57 0L169 705L434 705Q544 705 595.50 652Q647 599 632 504Q623 448 590 408.50Q557 369 507 349Q457 329 397 329L405 337L413 337Q453 337 480.50 318Q508 299 521 252L592 0L547 0L482 236Q467 290 432.50 306Q398 322 337 322L150 322L99 0L57 0M156 361L390 361Q475 361 526 400Q577 439 588 509Q600 586 559 626Q518 666 428 666L204 666L156 361M401 765L532 935L589 935L439 765L401 765Z"  horiz-adv-x="684" vert-adv-y="1000"  />

      
      <glyph glyph-name="uni0158" unicode="&#x0158;" d="M57 0L169 705L434 705Q544 705 595.50 652Q647 599 632 504Q623 448 590 408.50Q557 369 507 349Q457 329 397 329L405 337L413 337Q453 337 480.50 318Q508 299 521 252L592 0L547 0L482 236Q467 290 432.50 306Q398 322 337 322L150 322L99 0L57 0M156 361L390 361Q475 361 526 400Q577 439 588 509Q600 586 559 626Q518 666 428 666L204 666L156 361M396 765L293 935L329 935L420 803L545 935L583 935L444 765L396 765Z"  horiz-adv-x="684" vert-adv-y="1000"  />

      
      <glyph glyph-name="uni0156" unicode="&#x0156;" d="M57 0L169 705L434 705Q544 705 595.50 652Q647 599 632 504Q623 448 590 408.50Q557 369 507 349Q457 329 397 329L405 337L413 337Q453 337 480.50 318Q508 299 521 252L592 0L547 0L482 236Q467 290 432.50 306Q398 322 337 322L150 322L99 0L57 0M156 361L390 361Q475 361 526 400Q577 439 588 509Q600 586 559 626Q518 666 428 666L204 666L156 361M248-259L228-237Q255-214 263-193Q271-172 276-144L289-151L239-151L250-86L320-86L310-147Q304-183 289.50-211Q275-239 248-259Z"  horiz-adv-x="684" vert-adv-y="1000"  />

      
      <glyph glyph-name="uni0210" unicode="&#x0210;" d="M57 0L169 705L434 705Q544 705 595.50 652Q647 599 632 504Q623 448 590 408.50Q557 369 507 349Q457 329 397 329L405 337L413 337Q453 337 480.50 318Q508 299 521 252L592 0L547 0L482 236Q467 290 432.50 306Q398 322 337 322L150 322L99 0L57 0M156 361L390 361Q475 361 526 400Q577 439 588 509Q600 586 559 626Q518 666 428 666L204 666L156 361M461 765L364 935L415 935L488 765L461 765M352 765L256 935L307 935L379 765L352 765Z"  horiz-adv-x="684" vert-adv-y="1000"  />

      
      <glyph glyph-name="uni1E5A" unicode="&#x1E5A;" d="M57 0L169 705L434 705Q544 705 595.50 652Q647 599 632 504Q623 448 590 408.50Q557 369 507 349Q457 329 397 329L405 337L413 337Q453 337 480.50 318Q508 299 521 252L592 0L547 0L482 236Q467 290 432.50 306Q398 322 337 322L150 322L99 0L57 0M156 361L390 361Q475 361 526 400Q577 439 588 509Q600 586 559 626Q518 666 428 666L204 666L156 361M239-172L249-109L313-109L303-172L239-172Z"  horiz-adv-x="684" vert-adv-y="1000"  />

      
      <glyph glyph-name="uni0212" unicode="&#x0212;" d="M57 0L169 705L434 705Q544 705 595.50 652Q647 599 632 504Q623 448 590 408.50Q557 369 507 349Q457 329 397 329L405 337L413 337Q453 337 480.50 318Q508 299 521 252L592 0L547 0L482 236Q467 290 432.50 306Q398 322 337 322L150 322L99 0L57 0M156 361L390 361Q475 361 526 400Q577 439 588 509Q600 586 559 626Q518 666 428 666L204 666L156 361M289 760L256 764Q269 842 316 886.50Q363 931 427 931Q470 931 502.50 911Q535 891 553.50 853.50Q572 816 570 764L537 760Q540 825 508.50 860Q477 895 424 895Q371 895 335 860Q299 825 289 760Z"  horiz-adv-x="684" vert-adv-y="1000"  />

      
      <glyph glyph-name="uni1E5E" unicode="&#x1E5E;" d="M57 0L169 705L434 705Q544 705 595.50 652Q647 599 632 504Q623 448 590 408.50Q557 369 507 349Q457 329 397 329L405 337L413 337Q453 337 480.50 318Q508 299 521 252L592 0L547 0L482 236Q467 290 432.50 306Q398 322 337 322L150 322L99 0L57 0M156 361L390 361Q475 361 526 400Q577 439 588 509Q600 586 559 626Q518 666 428 666L204 666L156 361M135-148L141-110L421-110L415-148L135-148Z"  horiz-adv-x="684" vert-adv-y="1000"  />

      
      <glyph glyph-name="uni53" unicode="&#x53;" d="M280-8Q194-8 131 13.50Q68 35 25 67L49 103Q99 69 150 51Q201 33 280 33Q376 33 432 72Q488 111 498 174Q508 233 477 268Q446 303 363 314L277 326Q176 340 135 391.50Q94 443 107 522Q116 577 151.50 620Q187 663 245 688Q303 713 379 713Q453 713 510 690.50Q567 668 604 634L582 598Q540 635 491 653.50Q442 672 375 672Q282 672 221.50 629.50Q161 587 150 517Q140 453 171 415.50Q202 378 285 367L372 355Q473 342 513.50 296Q554 250 541 169Q533 119 498.50 78.50Q464 38 408 15Q352-8 280-8Z"  horiz-adv-x="604" vert-adv-y="1000"  />

      
      <glyph glyph-name="uni015A" unicode="&#x015A;" d="M280-8Q194-8 131 13.50Q68 35 25 67L49 103Q99 69 150 51Q201 33 280 33Q376 33 432 72Q488 111 498 174Q508 233 477 268Q446 303 363 314L277 326Q176 340 135 391.50Q94 443 107 522Q116 577 151.50 620Q187 663 245 688Q303 713 379 713Q453 713 510 690.50Q567 668 604 634L582 598Q540 635 491 653.50Q442 672 375 672Q282 672 221.50 629.50Q161 587 150 517Q140 453 171 415.50Q202 378 285 367L372 355Q473 342 513.50 296Q554 250 541 169Q533 119 498.50 78.50Q464 38 408 15Q352-8 280-8M376 765L507 935L564 935L414 765L376 765Z"  horiz-adv-x="604" vert-adv-y="1000"  />

      
      <glyph glyph-name="uni1E64" unicode="&#x1E64;" d="M280-8Q194-8 131 13.50Q68 35 25 67L49 103Q99 69 150 51Q201 33 280 33Q376 33 432 72Q488 111 498 174Q508 233 477 268Q446 303 363 314L277 326Q176 340 135 391.50Q94 443 107 522Q116 577 151.50 620Q187 663 245 688Q303 713 379 713Q453 713 510 690.50Q567 668 604 634L582 598Q540 635 491 653.50Q442 672 375 672Q282 672 221.50 629.50Q161 587 150 517Q140 453 171 415.50Q202 378 285 367L372 355Q473 342 513.50 296Q554 250 541 169Q533 119 498.50 78.50Q464 38 408 15Q352-8 280-8M358 976L367 1036L428 1036L419 976L358 976M377 765L499 965L554 965L413 765L377 765Z"  horiz-adv-x="604" vert-adv-y="1000"  />

      
      <glyph glyph-name="uni0160" unicode="&#x0160;" d="M280-8Q194-8 131 13.50Q68 35 25 67L49 103Q99 69 150 51Q201 33 280 33Q376 33 432 72Q488 111 498 174Q508 233 477 268Q446 303 363 314L277 326Q176 340 135 391.50Q94 443 107 522Q116 577 151.50 620Q187 663 245 688Q303 713 379 713Q453 713 510 690.50Q567 668 604 634L582 598Q540 635 491 653.50Q442 672 375 672Q282 672 221.50 629.50Q161 587 150 517Q140 453 171 415.50Q202 378 285 367L372 355Q473 342 513.50 296Q554 250 541 169Q533 119 498.50 78.50Q464 38 408 15Q352-8 280-8M371 765L268 935L304 935L395 803L520 935L558 935L419 765L371 765Z"  horiz-adv-x="604" vert-adv-y="1000"  />

      
      <glyph glyph-name="uni1E66" unicode="&#x1E66;" d="M280-8Q194-8 131 13.50Q68 35 25 67L49 103Q99 69 150 51Q201 33 280 33Q376 33 432 72Q488 111 498 174Q508 233 477 268Q446 303 363 314L277 326Q176 340 135 391.50Q94 443 107 522Q116 577 151.50 620Q187 663 245 688Q303 713 379 713Q453 713 510 690.50Q567 668 604 634L582 598Q540 635 491 653.50Q442 672 375 672Q282 672 221.50 629.50Q161 587 150 517Q140 453 171 415.50Q202 378 285 367L372 355Q473 342 513.50 296Q554 250 541 169Q533 119 498.50 78.50Q464 38 408 15Q352-8 280-8M371 765L276 925L311 925L397 804L507 925L542 925L419 765L371 765M391 976L400 1036L461 1036L452 976L391 976Z"  horiz-adv-x="604" vert-adv-y="1000"  />

      
      <glyph glyph-name="uni015E" unicode="&#x015E;" d="M280-8Q194-8 131 13.50Q68 35 25 67L49 103Q99 69 150 51Q201 33 280 33Q376 33 432 72Q488 111 498 174Q508 233 477 268Q446 303 363 314L277 326Q176 340 135 391.50Q94 443 107 522Q116 577 151.50 620Q187 663 245 688Q303 713 379 713Q453 713 510 690.50Q567 668 604 634L582 598Q540 635 491 653.50Q442 672 375 672Q282 672 221.50 629.50Q161 587 150 517Q140 453 171 415.50Q202 378 285 367L372 355Q473 342 513.50 296Q554 250 541 169Q533 119 498.50 78.50Q464 38 408 15Q352-8 280-8M261-190Q238-190 217.50-185Q197-180 184-172L196-138Q214-147 229-150.50Q244-154 268-154Q296-154 315-142.50Q334-131 334-109Q334-95 325-87Q316-79 299-79Q288-79 276-81Q264-83 246-89L233-76L264 20L302 20L277-55L259-53Q272-50 283.50-48Q295-46 305-46Q334-46 354-61.50Q374-77 374-106Q374-143 342-166.50Q310-190 261-190Z"  horiz-adv-x="604" vert-adv-y="1000"  />

      
      <glyph glyph-name="uni015C" unicode="&#x015C;" d="M280-8Q194-8 131 13.50Q68 35 25 67L49 103Q99 69 150 51Q201 33 280 33Q376 33 432 72Q488 111 498 174Q508 233 477 268Q446 303 363 314L277 326Q176 340 135 391.50Q94 443 107 522Q116 577 151.50 620Q187 663 245 688Q303 713 379 713Q453 713 510 690.50Q567 668 604 634L582 598Q540 635 491 653.50Q442 672 375 672Q282 672 221.50 629.50Q161 587 150 517Q140 453 171 415.50Q202 378 285 367L372 355Q473 342 513.50 296Q554 250 541 169Q533 119 498.50 78.50Q464 38 408 15Q352-8 280-8M241 765L380 935L428 935L531 765L494 765L402 897L278 765L241 765Z"  horiz-adv-x="604" vert-adv-y="1000"  />

      
      <glyph glyph-name="uni0218" unicode="&#x0218;" d="M280-8Q194-8 131 13.50Q68 35 25 67L49 103Q99 69 150 51Q201 33 280 33Q376 33 432 72Q488 111 498 174Q508 233 477 268Q446 303 363 314L277 326Q176 340 135 391.50Q94 443 107 522Q116 577 151.50 620Q187 663 245 688Q303 713 379 713Q453 713 510 690.50Q567 668 604 634L582 598Q540 635 491 653.50Q442 672 375 672Q282 672 221.50 629.50Q161 587 150 517Q140 453 171 415.50Q202 378 285 367L372 355Q473 342 513.50 296Q554 250 541 169Q533 119 498.50 78.50Q464 38 408 15Q352-8 280-8M229-259L209-237Q236-214 244-193Q252-172 257-144L270-151L220-151L231-86L301-86L291-147Q285-183 270.50-211Q256-239 229-259Z"  horiz-adv-x="604" vert-adv-y="1000"  />

      
      <glyph glyph-name="uni1E60" unicode="&#x1E60;" d="M280-8Q194-8 131 13.50Q68 35 25 67L49 103Q99 69 150 51Q201 33 280 33Q376 33 432 72Q488 111 498 174Q508 233 477 268Q446 303 363 314L277 326Q176 340 135 391.50Q94 443 107 522Q116 577 151.50 620Q187 663 245 688Q303 713 379 713Q453 713 510 690.50Q567 668 604 634L582 598Q540 635 491 653.50Q442 672 375 672Q282 672 221.50 629.50Q161 587 150 517Q140 453 171 415.50Q202 378 285 367L372 355Q473 342 513.50 296Q554 250 541 169Q533 119 498.50 78.50Q464 38 408 15Q352-8 280-8M372 818L382 881L444 881L434 818L372 818Z"  horiz-adv-x="604" vert-adv-y="1000"  />

      
      <glyph glyph-name="uni1E62" unicode="&#x1E62;" d="M280-8Q194-8 131 13.50Q68 35 25 67L49 103Q99 69 150 51Q201 33 280 33Q376 33 432 72Q488 111 498 174Q508 233 477 268Q446 303 363 314L277 326Q176 340 135 391.50Q94 443 107 522Q116 577 151.50 620Q187 663 245 688Q303 713 379 713Q453 713 510 690.50Q567 668 604 634L582 598Q540 635 491 653.50Q442 672 375 672Q282 672 221.50 629.50Q161 587 150 517Q140 453 171 415.50Q202 378 285 367L372 355Q473 342 513.50 296Q554 250 541 169Q533 119 498.50 78.50Q464 38 408 15Q352-8 280-8M220-172L230-109L294-109L284-172L220-172Z"  horiz-adv-x="604" vert-adv-y="1000"  />

      
      <glyph glyph-name="uni1E68" unicode="&#x1E68;" d="M280-8Q194-8 131 13.50Q68 35 25 67L49 103Q99 69 150 51Q201 33 280 33Q376 33 432 72Q488 111 498 174Q508 233 477 268Q446 303 363 314L277 326Q176 340 135 391.50Q94 443 107 522Q116 577 151.50 620Q187 663 245 688Q303 713 379 713Q453 713 510 690.50Q567 668 604 634L582 598Q540 635 491 653.50Q442 672 375 672Q282 672 221.50 629.50Q161 587 150 517Q140 453 171 415.50Q202 378 285 367L372 355Q473 342 513.50 296Q554 250 541 169Q533 119 498.50 78.50Q464 38 408 15Q352-8 280-8M220-172L230-109L294-109L284-172L220-172M372 818L382 881L444 881L434 818L372 818Z"  horiz-adv-x="604" vert-adv-y="1000"  />

      
      <glyph glyph-name="uni1E9E" unicode="&#x1E9E;" d="M354-8Q296-8 248 9Q200 26 169 55L194 88Q229 59 268 45.50Q307 32 356 32Q442 32 493.50 70.50Q545 109 555 176Q568 256 528 295.50Q488 335 393 335L250 335L256 374L371 374Q453 374 506.50 412.50Q560 451 571 524Q582 597 544 635Q506 673 412 673Q300 673 244.50 621Q189 569 172 463L99 0L57 0L131 470Q151 593 220 653Q289 713 413 713Q523 713 576 662.50Q629 612 615 519Q609 479 586 444Q563 409 528.50 384.50Q494 360 451 352L453 366Q531 356 572 308Q613 260 599 168Q586 88 521 40Q456-8 354-8Z"  horiz-adv-x="683" vert-adv-y="1000"  />

      
      <glyph glyph-name="uni018F" unicode="&#x018F;" d="M327-8Q223-8 163.50 36Q104 80 85 160Q66 240 83 348L88 376L648 376L641 337L113 337L128 353Q113 250 125.50 178.50Q138 107 187 70Q236 33 329 33Q454 33 534 116Q614 199 639 354Q663 506 605 589Q547 672 413 672Q336 672 281 652.50Q226 633 168 586L148 621Q204 668 268.50 690.50Q333 713 414 713Q517 713 583.50 669.50Q650 626 676 543.50Q702 461 683 344Q666 236 618.50 157Q571 78 497.50 35Q424-8 327-8Z"  horiz-adv-x="736" vert-adv-y="1000"  />

      
      <glyph glyph-name="uni54" unicode="&#x54;" d="M232 0L337 666L75 666L82 705L648 705L641 666L379 666L274 0L232 0Z"  horiz-adv-x="590" vert-adv-y="1000"  />

      
      <glyph glyph-name="uni0166" unicode="&#x0166;" d="M232 0L337 666L75 666L82 705L648 705L641 666L379 666L274 0L232 0M142 340L148 377L482 377L476 340L142 340Z"  horiz-adv-x="590" vert-adv-y="1000"  />

      
      <glyph glyph-name="uni0164" unicode="&#x0164;" d="M232 0L337 666L75 666L82 705L648 705L641 666L379 666L274 0L232 0M353 765L250 935L286 935L377 803L502 935L540 935L401 765L353 765Z"  horiz-adv-x="590" vert-adv-y="1000"  />

      
      <glyph glyph-name="uni0162" unicode="&#x0162;" d="M232 0L337 666L75 666L82 705L648 705L641 666L379 666L274 0L232 0M237-190Q214-190 193.50-185Q173-180 160-172L172-138Q190-147 205-150.50Q220-154 244-154Q272-154 291-142.50Q310-131 310-109Q310-95 301-87Q292-79 275-79Q264-79 252-81Q240-83 222-89L209-76L240 20L278 20L253-55L235-53Q248-50 259.50-48Q271-46 281-46Q310-46 330-61.50Q350-77 350-106Q350-143 318-166.50Q286-190 237-190Z"  horiz-adv-x="590" vert-adv-y="1000"  />

      
      <glyph glyph-name="uni021A" unicode="&#x021A;" d="M232 0L337 666L75 666L82 705L648 705L641 666L379 666L274 0L232 0M205-259L185-237Q212-214 220-193Q228-172 233-144L246-151L196-151L207-86L277-86L267-147Q261-183 246.50-211Q232-239 205-259Z"  horiz-adv-x="590" vert-adv-y="1000"  />

      
      <glyph glyph-name="uni1E6C" unicode="&#x1E6C;" d="M232 0L337 666L75 666L82 705L648 705L641 666L379 666L274 0L232 0M196-172L206-109L270-109L260-172L196-172Z"  horiz-adv-x="590" vert-adv-y="1000"  />

      
      <glyph glyph-name="uni1E6E" unicode="&#x1E6E;" d="M232 0L337 666L75 666L82 705L648 705L641 666L379 666L274 0L232 0M92-148L98-110L378-110L372-148L92-148Z"  horiz-adv-x="590" vert-adv-y="1000"  />

      
      <glyph glyph-name="uni55" unicode="&#x55;" d="M328-8Q238-8 181.50 23.50Q125 55 103 117Q81 179 95 270L164 705L206 705L138 276Q119 154 163 93.50Q207 33 331 33Q438 33 504.50 88.50Q571 144 592 276L660 705L702 705L633 270Q618 172 577.50 110.50Q537 49 474 20.50Q411-8 328-8Z"  horiz-adv-x="722" vert-adv-y="1000"  />

      
      <glyph glyph-name="unida" unicode="&#xda;" d="M328-8Q238-8 181.50 23.50Q125 55 103 117Q81 179 95 270L164 705L206 705L138 276Q119 154 163 93.50Q207 33 331 33Q438 33 504.50 88.50Q571 144 592 276L660 705L702 705L633 270Q618 172 577.50 110.50Q537 49 474 20.50Q411-8 328-8M424 765L555 935L612 935L462 765L424 765Z"  horiz-adv-x="722" vert-adv-y="1000"  />

      
      <glyph glyph-name="uni016C" unicode="&#x016C;" d="M328-8Q238-8 181.50 23.50Q125 55 103 117Q81 179 95 270L164 705L206 705L138 276Q119 154 163 93.50Q207 33 331 33Q438 33 504.50 88.50Q571 144 592 276L660 705L702 705L633 270Q618 172 577.50 110.50Q537 49 474 20.50Q411-8 328-8M446 760Q404 760 371 780Q338 800 320 837.50Q302 875 303 927L336 931Q333 867 364.50 831.50Q396 796 449 796Q502 796 538 831.50Q574 867 584 931L617 927Q604 849 557 804.50Q510 760 446 760Z"  horiz-adv-x="722" vert-adv-y="1000"  />

      
      <glyph glyph-name="unidb" unicode="&#xdb;" d="M328-8Q238-8 181.50 23.50Q125 55 103 117Q81 179 95 270L164 705L206 705L138 276Q119 154 163 93.50Q207 33 331 33Q438 33 504.50 88.50Q571 144 592 276L660 705L702 705L633 270Q618 172 577.50 110.50Q537 49 474 20.50Q411-8 328-8M289 765L428 935L476 935L579 765L542 765L450 897L326 765L289 765Z"  horiz-adv-x="722" vert-adv-y="1000"  />

      
      <glyph glyph-name="uni0214" unicode="&#x0214;" d="M328-8Q238-8 181.50 23.50Q125 55 103 117Q81 179 95 270L164 705L206 705L138 276Q119 154 163 93.50Q207 33 331 33Q438 33 504.50 88.50Q571 144 592 276L660 705L702 705L633 270Q618 172 577.50 110.50Q537 49 474 20.50Q411-8 328-8M484 765L387 935L438 935L511 765L484 765M375 765L279 935L330 935L402 765L375 765Z"  horiz-adv-x="722" vert-adv-y="1000"  />

      
      <glyph glyph-name="unidc" unicode="&#xdc;" d="M328-8Q238-8 181.50 23.50Q125 55 103 117Q81 179 95 270L164 705L206 705L138 276Q119 154 163 93.50Q207 33 331 33Q438 33 504.50 88.50Q571 144 592 276L660 705L702 705L633 270Q618 172 577.50 110.50Q537 49 474 20.50Q411-8 328-8M501 820L511 880L572 880L562 820L501 820M340 820L350 880L411 880L401 820L340 820Z"  horiz-adv-x="722" vert-adv-y="1000"  />

      
      <glyph glyph-name="uni1EE4" unicode="&#x1EE4;" d="M328-8Q238-8 181.50 23.50Q125 55 103 117Q81 179 95 270L164 705L206 705L138 276Q119 154 163 93.50Q207 33 331 33Q438 33 504.50 88.50Q571 144 592 276L660 705L702 705L633 270Q618 172 577.50 110.50Q537 49 474 20.50Q411-8 328-8M262-172L272-109L336-109L326-172L262-172Z"  horiz-adv-x="722" vert-adv-y="1000"  />

      
      <glyph glyph-name="unid9" unicode="&#xd9;" d="M328-8Q238-8 181.50 23.50Q125 55 103 117Q81 179 95 270L164 705L206 705L138 276Q119 154 163 93.50Q207 33 331 33Q438 33 504.50 88.50Q571 144 592 276L660 705L702 705L633 270Q618 172 577.50 110.50Q537 49 474 20.50Q411-8 328-8M424 765L302 935L357 935L462 765L424 765Z"  horiz-adv-x="722" vert-adv-y="1000"  />

      
      <glyph glyph-name="uni1EE6" unicode="&#x1EE6;" d="M328-8Q238-8 181.50 23.50Q125 55 103 117Q81 179 95 270L164 705L206 705L138 276Q119 154 163 93.50Q207 33 331 33Q438 33 504.50 88.50Q571 144 592 276L660 705L702 705L633 270Q618 172 577.50 110.50Q537 49 474 20.50Q411-8 328-8M424 765L426 779Q429 802 441.50 816Q454 830 468 839Q482 848 492.50 857.50Q503 867 503 881Q503 892 491.50 898Q480 904 454 904Q439 904 423 900.50Q407 897 387 888L381 921Q416 940 461 940Q501 940 522.50 925Q544 910 544 885Q544 862 532.50 849Q521 836 505.50 827Q490 818 477.50 806.50Q465 795 463 775L462 765L424 765Z"  horiz-adv-x="722" vert-adv-y="1000"  />

      
      <glyph glyph-name="uni01AF" unicode="&#x01AF;" d="M328-8Q238-8 181.50 23.50Q125 55 103 117Q81 179 95 270L164 705L206 705L138 276Q119 154 163 93.50Q207 33 331 33Q438 33 504.50 88.50Q571 144 592 276L660 705L702 705L633 270Q618 172 577.50 110.50Q537 49 474 20.50Q411-8 328-8M677 667L664 680L668 705Q717 706 745 719.50Q773 733 787 760Q801 787 807 825L809 837L849 837L846 817Q836 747 792 708.50Q748 670 677 667Z"  horiz-adv-x="722" vert-adv-y="1000"  />

      
      <glyph glyph-name="uni1EE8" unicode="&#x1EE8;" d="M328-8Q238-8 181.50 23.50Q125 55 103 117Q81 179 95 270L164 705L206 705L138 276Q119 154 163 93.50Q207 33 331 33Q438 33 504.50 88.50Q571 144 592 276L660 705L702 705L633 270Q618 172 577.50 110.50Q537 49 474 20.50Q411-8 328-8M677 667L664 680L668 705Q717 706 745 719.50Q773 733 787 760Q801 787 807 825L809 837L849 837L846 817Q836 747 792 708.50Q748 670 677 667M435 765L566 935L623 935L473 765L435 765Z"  horiz-adv-x="722" vert-adv-y="1000"  />

      
      <glyph glyph-name="uni1EF0" unicode="&#x1EF0;" d="M328-8Q238-8 181.50 23.50Q125 55 103 117Q81 179 95 270L164 705L206 705L138 276Q119 154 163 93.50Q207 33 331 33Q438 33 504.50 88.50Q571 144 592 276L660 705L702 705L633 270Q618 172 577.50 110.50Q537 49 474 20.50Q411-8 328-8M677 667L664 680L668 705Q717 706 745 719.50Q773 733 787 760Q801 787 807 825L809 837L849 837L846 817Q836 747 792 708.50Q748 670 677 667M273-172L283-109L347-109L337-172L273-172Z"  horiz-adv-x="722" vert-adv-y="1000"  />

      
      <glyph glyph-name="uni1EEA" unicode="&#x1EEA;" d="M328-8Q238-8 181.50 23.50Q125 55 103 117Q81 179 95 270L164 705L206 705L138 276Q119 154 163 93.50Q207 33 331 33Q438 33 504.50 88.50Q571 144 592 276L660 705L702 705L633 270Q618 172 577.50 110.50Q537 49 474 20.50Q411-8 328-8M677 667L664 680L668 705Q717 706 745 719.50Q773 733 787 760Q801 787 807 825L809 837L849 837L846 817Q836 747 792 708.50Q748 670 677 667M435 765L313 935L368 935L473 765L435 765Z"  horiz-adv-x="722" vert-adv-y="1000"  />

      
      <glyph glyph-name="uni1EEC" unicode="&#x1EEC;" d="M328-8Q238-8 181.50 23.50Q125 55 103 117Q81 179 95 270L164 705L206 705L138 276Q119 154 163 93.50Q207 33 331 33Q438 33 504.50 88.50Q571 144 592 276L660 705L702 705L633 270Q618 172 577.50 110.50Q537 49 474 20.50Q411-8 328-8M677 667L664 680L668 705Q717 706 745 719.50Q773 733 787 760Q801 787 807 825L809 837L849 837L846 817Q836 747 792 708.50Q748 670 677 667M435 765L437 779Q440 802 452.50 816Q465 830 479 839Q493 848 503.50 857.50Q514 867 514 881Q514 892 502.50 898Q491 904 465 904Q450 904 434 900.50Q418 897 398 888L392 921Q427 940 472 940Q512 940 533.50 925Q555 910 555 885Q555 862 543.50 849Q532 836 516.50 827Q501 818 488.50 806.50Q476 795 474 775L473 765L435 765Z"  horiz-adv-x="722" vert-adv-y="1000"  />

      
      <glyph glyph-name="uni1EEE" unicode="&#x1EEE;" d="M328-8Q238-8 181.50 23.50Q125 55 103 117Q81 179 95 270L164 705L206 705L138 276Q119 154 163 93.50Q207 33 331 33Q438 33 504.50 88.50Q571 144 592 276L660 705L702 705L633 270Q618 172 577.50 110.50Q537 49 474 20.50Q411-8 328-8M677 667L664 680L668 705Q717 706 745 719.50Q773 733 787 760Q801 787 807 825L809 837L849 837L846 817Q836 747 792 708.50Q748 670 677 667M313 792L281 794Q292 852 321.50 883.50Q351 915 395 915Q424 915 444 900Q464 885 481 868Q496 853 510.50 841.50Q525 830 544 830Q603 830 623 917L655 915Q644 857 615 825.50Q586 794 542 794Q513 794 492.50 809Q472 824 455 841Q440 856 425 867.50Q410 879 392 879Q333 879 313 792Z"  horiz-adv-x="722" vert-adv-y="1000"  />

      
      <glyph glyph-name="uni0170" unicode="&#x0170;" d="M328-8Q238-8 181.50 23.50Q125 55 103 117Q81 179 95 270L164 705L206 705L138 276Q119 154 163 93.50Q207 33 331 33Q438 33 504.50 88.50Q571 144 592 276L660 705L702 705L633 270Q618 172 577.50 110.50Q537 49 474 20.50Q411-8 328-8M375 765L475 935L527 935L402 765L375 765M484 765L583 935L635 935L511 765L484 765Z"  horiz-adv-x="722" vert-adv-y="1000"  />

      
      <glyph glyph-name="uni0216" unicode="&#x0216;" d="M328-8Q238-8 181.50 23.50Q125 55 103 117Q81 179 95 270L164 705L206 705L138 276Q119 154 163 93.50Q207 33 331 33Q438 33 504.50 88.50Q571 144 592 276L660 705L702 705L633 270Q618 172 577.50 110.50Q537 49 474 20.50Q411-8 328-8M312 760L279 764Q292 842 339 886.50Q386 931 450 931Q493 931 525.50 911Q558 891 576.50 853.50Q595 816 593 764L560 760Q563 825 531.50 860Q500 895 447 895Q394 895 358 860Q322 825 312 760Z"  horiz-adv-x="722" vert-adv-y="1000"  />

      
      <glyph glyph-name="uni016A" unicode="&#x016A;" d="M328-8Q238-8 181.50 23.50Q125 55 103 117Q81 179 95 270L164 705L206 705L138 276Q119 154 163 93.50Q207 33 331 33Q438 33 504.50 88.50Q571 144 592 276L660 705L702 705L633 270Q618 172 577.50 110.50Q537 49 474 20.50Q411-8 328-8M297 822L303 860L613 860L607 822L297 822Z"  horiz-adv-x="722" vert-adv-y="1000"  />

      
      <glyph glyph-name="uni1E7A" unicode="&#x1E7A;" d="M328-8Q238-8 181.50 23.50Q125 55 103 117Q81 179 95 270L164 705L206 705L138 276Q119 154 163 93.50Q207 33 331 33Q438 33 504.50 88.50Q571 144 592 276L660 705L702 705L633 270Q618 172 577.50 110.50Q537 49 474 20.50Q411-8 328-8M309 806L315 844L595 844L589 806L309 806M354 905L363 965L424 965L415 905L354 905M515 905L524 965L585 965L576 905L515 905Z"  horiz-adv-x="722" vert-adv-y="1000"  />

      
      <glyph glyph-name="uni0172" unicode="&#x0172;" d="M328-8Q238-8 181.50 23.50Q125 55 103 117Q81 179 95 270L164 705L206 705L138 276Q119 154 163 93.50Q207 33 331 33Q438 33 504.50 88.50Q571 144 592 276L660 705L702 705L633 270Q618 172 577.50 110.50Q537 49 474 20.50Q411-8 328-8M359-190Q316-190 293-165.50Q270-141 270-103Q270-59 298.50-23.50Q327 12 371 31L389 0Q349-16 329-43Q309-70 309-99Q309-124 322.50-139Q336-154 364-154Q376-154 389.50-151Q403-148 418-141L427-175Q417-180 398-185Q379-190 359-190Z"  horiz-adv-x="722" vert-adv-y="1000"  />

      
      <glyph glyph-name="uni016E" unicode="&#x016E;" d="M328-8Q238-8 181.50 23.50Q125 55 103 117Q81 179 95 270L164 705L206 705L138 276Q119 154 163 93.50Q207 33 331 33Q438 33 504.50 88.50Q571 144 592 276L660 705L702 705L633 270Q618 172 577.50 110.50Q537 49 474 20.50Q411-8 328-8M460 760Q429 760 403.50 775Q378 790 363 815Q348 840 348 870Q348 901 363 925.50Q378 950 403.50 965Q429 980 460 980Q492 980 517 965Q542 950 557 925.50Q572 901 572 870Q572 840 557 815Q542 790 517 775Q492 760 460 760M460 792Q495 792 516.50 814.50Q538 837 538 870Q538 903 516.50 925.50Q495 948 460 948Q426 948 404 925.50Q382 903 382 870Q382 837 404 814.50Q426 792 460 792Z"  horiz-adv-x="722" vert-adv-y="1000"  />

      
      <glyph glyph-name="uni0168" unicode="&#x0168;" d="M328-8Q238-8 181.50 23.50Q125 55 103 117Q81 179 95 270L164 705L206 705L138 276Q119 154 163 93.50Q207 33 331 33Q438 33 504.50 88.50Q571 144 592 276L660 705L702 705L633 270Q618 172 577.50 110.50Q537 49 474 20.50Q411-8 328-8M278 792L246 794Q257 852 286.50 883.50Q316 915 360 915Q389 915 414 900Q439 885 462 868Q482 853 500 841.50Q518 830 537 830Q596 830 616 917L648 915Q637 857 608 825.50Q579 794 535 794Q506 794 480.50 809.50Q455 825 432 841Q413 856 394 867.50Q375 879 357 879Q298 879 278 792Z"  horiz-adv-x="722" vert-adv-y="1000"  />

      
      <glyph glyph-name="uni1E78" unicode="&#x1E78;" d="M328-8Q238-8 181.50 23.50Q125 55 103 117Q81 179 95 270L164 705L206 705L138 276Q119 154 163 93.50Q207 33 331 33Q438 33 504.50 88.50Q571 144 592 276L660 705L702 705L633 270Q618 172 577.50 110.50Q537 49 474 20.50Q411-8 328-8M441 871L552 1021L607 1021L477 871L441 871M513 768Q493 768 476 778.50Q459 789 443 800Q430 811 416 819.50Q402 828 387 828Q365 828 352.50 813.50Q340 799 332 766L299 768Q307 816 331.50 840Q356 864 390 864Q410 864 426.50 854Q443 844 459 832Q473 822 486.50 813Q500 804 515 804Q538 804 550.50 818.50Q563 833 570 866L603 864Q595 816 571 792Q547 768 513 768Z"  horiz-adv-x="722" vert-adv-y="1000"  />

      
      <glyph glyph-name="uni56" unicode="&#x56;" d="M274 0L84 705L126 705L310 24L290 24L690 705L737 705L320 0L274 0Z"  horiz-adv-x="677" vert-adv-y="1000"  />

      
      <glyph glyph-name="uni57" unicode="&#x57;" d="M245 0L114 705L156 705L282 19L252 19L604 705L643 705L767 19L740 19L1088 705L1134 705L776 0L732 0L611 672L631 672L287 0L245 0Z"  horiz-adv-x="1104" vert-adv-y="1000"  />

      
      <glyph glyph-name="uni1E82" unicode="&#x1E82;" d="M245 0L114 705L156 705L282 19L252 19L604 705L643 705L767 19L740 19L1088 705L1134 705L776 0L732 0L611 672L631 672L287 0L245 0M615 765L746 935L803 935L653 765L615 765Z"  horiz-adv-x="1104" vert-adv-y="1000"  />

      
      <glyph glyph-name="uni0174" unicode="&#x0174;" d="M245 0L114 705L156 705L282 19L252 19L604 705L643 705L767 19L740 19L1088 705L1134 705L776 0L732 0L611 672L631 672L287 0L245 0M480 765L619 935L667 935L770 765L733 765L641 897L517 765L480 765Z"  horiz-adv-x="1104" vert-adv-y="1000"  />

      
      <glyph glyph-name="uni1E84" unicode="&#x1E84;" d="M245 0L114 705L156 705L282 19L252 19L604 705L643 705L767 19L740 19L1088 705L1134 705L776 0L732 0L611 672L631 672L287 0L245 0M692 820L702 880L763 880L753 820L692 820M531 820L541 880L602 880L592 820L531 820Z"  horiz-adv-x="1104" vert-adv-y="1000"  />

      
      <glyph glyph-name="uni1E80" unicode="&#x1E80;" d="M245 0L114 705L156 705L282 19L252 19L604 705L643 705L767 19L740 19L1088 705L1134 705L776 0L732 0L611 672L631 672L287 0L245 0M615 765L493 935L548 935L653 765L615 765Z"  horiz-adv-x="1104" vert-adv-y="1000"  />

      
      <glyph glyph-name="uni58" unicode="&#x58;" d="M-18 0L314 367L316 357L112 705L160 705L345 387L333 387L616 705L671 705L358 357L355 367L570 0L522 0L323 342L345 342L37 0L-18 0Z"  horiz-adv-x="636" vert-adv-y="1000"  />

      
      <glyph glyph-name="uni59" unicode="&#x59;" d="M232 0L284 326L289 288L73 705L119 705L311 327L296 327L608 705L658 705L310 288L326 326L274 0L232 0Z"  horiz-adv-x="587" vert-adv-y="1000"  />

      
      <glyph glyph-name="unidd" unicode="&#xdd;" d="M232 0L284 326L289 288L73 705L119 705L311 327L296 327L608 705L658 705L310 288L326 326L274 0L232 0M357 765L488 935L545 935L395 765L357 765Z"  horiz-adv-x="587" vert-adv-y="1000"  />

      
      <glyph glyph-name="uni0176" unicode="&#x0176;" d="M232 0L284 326L289 288L73 705L119 705L311 327L296 327L608 705L658 705L310 288L326 326L274 0L232 0M222 765L361 935L409 935L512 765L475 765L383 897L259 765L222 765Z"  horiz-adv-x="587" vert-adv-y="1000"  />

      
      </font>
</defs>
</svg>
