<?xml version="1.0" standalone="no"?>
  <!DOCTYPE svg PUBLIC "-//W3C//DTD SVG 1.1//EN" "http://www.w3.org/Graphics/SVG/1.1/DTD/svg11.dtd" >
  <svg>
  <metadata>
  Created by font-carrier
  </metadata>
  <defs>
  <font id="Mulish-LightItalic" horiz-adv-x="1324" vert-adv-y="1324" >
    <font-face
      
      font-family="Mulish Light"
      
      font-weight="400"
      
      font-stretch="normal"
      
      units-per-em="1000"
      
      ascent="1005"
      
      descent="-250"
      
    />
      <missing-glyph />

      

      
      <glyph glyph-name="uni41" unicode="&#x41;" d="M-14 0L405 705L461 705L661 0L599 0L543 203L571 188L137 188L173 203L54 0L-14 0M423 630L189 229L168 241L556 241L537 229L426 630L423 630Z"  horiz-adv-x="728" vert-adv-y="1000"  />

      
      <glyph glyph-name="unic1" unicode="&#xc1;" d="M-14 0L405 705L461 705L661 0L599 0L543 203L571 188L137 188L173 203L54 0L-14 0M423 630L189 229L168 241L556 241L537 229L426 630L423 630M419 765L550 936L624 936L469 765L419 765Z"  horiz-adv-x="728" vert-adv-y="1000"  />

      
      <glyph glyph-name="uni0102" unicode="&#x0102;" d="M-14 0L405 705L461 705L661 0L599 0L543 203L571 188L137 188L173 203L54 0L-14 0M423 630L189 229L168 241L556 241L537 229L426 630L423 630M446 760Q402 760 368 780.50Q334 801 315.50 838.50Q297 876 297 928L339 933Q336 872 367 838.50Q398 805 450 805Q502 805 537 838.50Q572 872 581 933L623 928Q610 850 561.50 805Q513 760 446 760Z"  horiz-adv-x="728" vert-adv-y="1000"  />

      
      <glyph glyph-name="uni1EAE" unicode="&#x1EAE;" d="M-14 0L405 705L461 705L661 0L599 0L543 203L571 188L137 188L173 203L54 0L-14 0M423 630L189 229L168 241L556 241L537 229L426 630L423 630M442 767Q378 767 339 806.50Q300 846 303 916L342 920Q341 868 368 839.50Q395 811 444 811Q493 811 524 839.50Q555 868 564 920L603 916Q593 846 550 806.50Q507 767 442 767M417 876L521 1022L591 1022L463 876L417 876Z"  horiz-adv-x="728" vert-adv-y="1000"  />

      
      <glyph glyph-name="uni1EB6" unicode="&#x1EB6;" d="M-14 0L405 705L461 705L661 0L599 0L543 203L571 188L137 188L173 203L54 0L-14 0M423 630L189 229L168 241L556 241L537 229L426 630L423 630M255-179L267-104L344-104L332-179L255-179M446 760Q402 760 368 780.50Q334 801 315.50 838.50Q297 876 297 928L339 933Q336 872 367 838.50Q398 805 450 805Q502 805 537 838.50Q572 872 581 933L623 928Q610 850 561.50 805Q513 760 446 760Z"  horiz-adv-x="728" vert-adv-y="1000"  />

      
      <glyph glyph-name="uni1EB0" unicode="&#x1EB0;" d="M-14 0L405 705L461 705L661 0L599 0L543 203L571 188L137 188L173 203L54 0L-14 0M423 630L189 229L168 241L556 241L537 229L426 630L423 630M442 760Q378 760 339.50 799.50Q301 839 303 909L342 913Q341 861 368 832.50Q395 804 444 804Q493 804 524 832.50Q555 861 564 913L603 909Q593 839 550 799.50Q507 760 442 760M433 868L331 1015L399 1015L478 868L433 868Z"  horiz-adv-x="728" vert-adv-y="1000"  />

      
      <glyph glyph-name="uni1EB2" unicode="&#x1EB2;" d="M-14 0L405 705L461 705L661 0L599 0L543 203L571 188L137 188L173 203L54 0L-14 0M423 630L189 229L168 241L556 241L537 229L426 630L423 630M442 760Q378 760 339.50 799.50Q301 839 303 909L342 913Q341 861 368 832.50Q395 804 444 804Q493 804 524 832.50Q555 861 564 913L603 909Q593 839 550 799.50Q507 760 442 760M429 868Q431 892 441.50 905Q452 918 466 926Q480 934 490 942.50Q500 951 500 963Q500 974 488.50 978.50Q477 983 460 983Q443 983 424 979.50Q405 976 390 971L383 1004Q401 1012 421.50 1016Q442 1020 465 1020Q506 1020 528 1007.50Q550 995 550 972Q550 951 538.50 938.50Q527 926 511.50 917.50Q496 909 484 898.50Q472 888 471 868L429 868Z"  horiz-adv-x="728" vert-adv-y="1000"  />

      
      <glyph glyph-name="uni1EB4" unicode="&#x1EB4;" d="M-14 0L405 705L461 705L661 0L599 0L543 203L571 188L137 188L173 203L54 0L-14 0M423 630L189 229L168 241L556 241L537 229L426 630L423 630M441 760Q383 760 344 789Q305 818 297 869L336 875Q345 841 372 822.50Q399 804 442 804Q484 804 514 822.50Q544 841 558 875L597 869Q581 819 539.50 789.50Q498 760 441 760M340 919L301 921Q309 970 333 995Q357 1020 394 1020Q416 1020 434.50 1010.50Q453 1001 470 988Q484 979 498 971Q512 963 526 963Q549 963 561.50 976.50Q574 990 581 1021L620 1019Q612 970 588.50 945Q565 920 528 920Q506 920 487 929.50Q468 939 451 951Q437 962 423 969.50Q409 977 395 977Q373 977 360.50 963Q348 949 340 919Z"  horiz-adv-x="728" vert-adv-y="1000"  />

      
      <glyph glyph-name="uni01CD" unicode="&#x01CD;" d="M-14 0L405 705L461 705L661 0L599 0L543 203L571 188L137 188L173 203L54 0L-14 0M423 630L189 229L168 241L556 241L537 229L426 630L423 630M413 765L308 936L356 936L444 810L564 936L614 936L474 765L413 765Z"  horiz-adv-x="728" vert-adv-y="1000"  />

      
      <glyph glyph-name="unic2" unicode="&#xc2;" d="M-14 0L405 705L461 705L661 0L599 0L543 203L571 188L137 188L173 203L54 0L-14 0M423 630L189 229L168 241L556 241L537 229L426 630L423 630M282 765L422 936L484 936L588 765L539 765L450 891L331 765L282 765Z"  horiz-adv-x="728" vert-adv-y="1000"  />

      
      <glyph glyph-name="uni1EA4" unicode="&#x1EA4;" d="M-14 0L405 705L461 705L661 0L599 0L543 203L571 188L137 188L173 203L54 0L-14 0M423 630L189 229L168 241L556 241L537 229L426 630L423 630M299 765L422 926L484 926L579 765L535 765L450 882L343 765L299 765M535 867L634 1017L701 1017L579 867L535 867Z"  horiz-adv-x="728" vert-adv-y="1000"  />

      
      <glyph glyph-name="uni1EAC" unicode="&#x1EAC;" d="M-14 0L405 705L461 705L661 0L599 0L543 203L571 188L137 188L173 203L54 0L-14 0M423 630L189 229L168 241L556 241L537 229L426 630L423 630M255-179L267-104L344-104L332-179L255-179M282 765L422 936L484 936L588 765L539 765L450 891L331 765L282 765Z"  horiz-adv-x="728" vert-adv-y="1000"  />

      
      <glyph glyph-name="uni1EA6" unicode="&#x1EA6;" d="M-14 0L405 705L461 705L661 0L599 0L543 203L571 188L137 188L173 203L54 0L-14 0M423 630L189 229L168 241L556 241L537 229L426 630L423 630M299 765L422 926L484 926L579 765L535 765L450 882L343 765L299 765M576 867L480 1017L545 1017L620 867L576 867Z"  horiz-adv-x="728" vert-adv-y="1000"  />

      
      <glyph glyph-name="uni1EA8" unicode="&#x1EA8;" d="M-14 0L405 705L461 705L661 0L599 0L543 203L571 188L137 188L173 203L54 0L-14 0M423 630L189 229L168 241L556 241L537 229L426 630L423 630M299 765L422 926L484 926L579 765L535 765L450 882L343 765L299 765M545 867Q547 891 558 904.50Q569 918 583 926.50Q597 935 607 943Q617 951 617 965Q617 975 605.50 979.50Q594 984 577 984Q560 984 541 980.50Q522 977 507 972L500 1005Q518 1013 538 1017Q558 1021 582 1021Q623 1021 645 1008.50Q667 996 667 973Q667 952 655.50 939.50Q644 927 628.50 917.50Q613 908 601 897.50Q589 887 587 867L545 867Z"  horiz-adv-x="728" vert-adv-y="1000"  />

      
      <glyph glyph-name="uni1EAA" unicode="&#x1EAA;" d="M-14 0L405 705L461 705L661 0L599 0L543 203L571 188L137 188L173 203L54 0L-14 0M423 630L189 229L168 241L556 241L537 229L426 630L423 630M299 765L420 896L482 896L580 765L536 765L448 856L343 765L299 765M339 921L301 924Q309 973 333 997.50Q357 1022 394 1022Q416 1022 433 1012.50Q450 1003 466 991Q480 982 492.50 974Q505 966 519 966Q542 966 554 979.50Q566 993 574 1024L613 1022Q604 973 581 948Q558 923 521 923Q499 923 481.50 933Q464 943 449 954Q435 964 422 972Q409 980 395 980Q373 980 360 966Q347 952 339 921Z"  horiz-adv-x="728" vert-adv-y="1000"  />

      
      <glyph glyph-name="uni0200" unicode="&#x0200;" d="M-14 0L405 705L461 705L661 0L599 0L543 203L571 188L137 188L173 203L54 0L-14 0M423 630L189 229L168 241L556 241L537 229L426 630L423 630M484 765L384 936L449 936L521 765L484 765M367 765L265 936L330 936L404 765L367 765Z"  horiz-adv-x="728" vert-adv-y="1000"  />

      
      <glyph glyph-name="unic4" unicode="&#xc4;" d="M-14 0L405 705L461 705L661 0L599 0L543 203L571 188L137 188L173 203L54 0L-14 0M423 630L189 229L168 241L556 241L537 229L426 630L423 630M497 813L509 886L582 886L570 813L497 813M330 813L342 886L415 886L403 813L330 813Z"  horiz-adv-x="728" vert-adv-y="1000"  />

      
      <glyph glyph-name="uni0226" unicode="&#x0226;" d="M-14 0L405 705L461 705L661 0L599 0L543 203L571 188L137 188L173 203L54 0L-14 0M423 630L189 229L168 241L556 241L537 229L426 630L423 630M412 813L424 888L500 888L488 813L412 813Z"  horiz-adv-x="728" vert-adv-y="1000"  />

      
      <glyph glyph-name="uni1EA0" unicode="&#x1EA0;" d="M-14 0L405 705L461 705L661 0L599 0L543 203L571 188L137 188L173 203L54 0L-14 0M423 630L189 229L168 241L556 241L537 229L426 630L423 630M255-179L267-104L344-104L332-179L255-179Z"  horiz-adv-x="728" vert-adv-y="1000"  />

      
      <glyph glyph-name="unic0" unicode="&#xc0;" d="M-14 0L405 705L461 705L661 0L599 0L543 203L571 188L137 188L173 203L54 0L-14 0M423 630L189 229L168 241L556 241L537 229L426 630L423 630M419 765L292 936L364 936L469 765L419 765Z"  horiz-adv-x="728" vert-adv-y="1000"  />

      
      <glyph glyph-name="uni1EA2" unicode="&#x1EA2;" d="M-14 0L405 705L461 705L661 0L599 0L543 203L571 188L137 188L173 203L54 0L-14 0M423 630L189 229L168 241L556 241L537 229L426 630L423 630M420 765L422 780Q425 802 437 815.50Q449 829 462.50 837.50Q476 846 486 855Q496 864 496 878Q496 888 484.50 894Q473 900 449 900Q434 900 418.50 896.50Q403 893 383 884L375 922Q412 941 462 941Q504 941 526.50 926Q549 911 549 885Q549 862 537.50 849Q526 836 510.50 827Q495 818 482.50 806.50Q470 795 468 775L467 765L420 765Z"  horiz-adv-x="728" vert-adv-y="1000"  />

      
      <glyph glyph-name="uni0202" unicode="&#x0202;" d="M-14 0L405 705L461 705L661 0L599 0L543 203L571 188L137 188L173 203L54 0L-14 0M423 630L189 229L168 241L556 241L537 229L426 630L423 630M316 760L274 765Q287 843 335.50 888Q384 933 451 933Q496 933 530 912.50Q564 892 583 854.50Q602 817 600 765L558 760Q561 822 530.50 855Q500 888 448 888Q396 888 361 855Q326 822 316 760Z"  horiz-adv-x="728" vert-adv-y="1000"  />

      
      <glyph glyph-name="uni0100" unicode="&#x0100;" d="M-14 0L405 705L461 705L661 0L599 0L543 203L571 188L137 188L173 203L54 0L-14 0M423 630L189 229L168 241L556 241L537 229L426 630L423 630M292 818L300 865L618 865L610 818L292 818Z"  horiz-adv-x="728" vert-adv-y="1000"  />

      
      <glyph glyph-name="uni0104" unicode="&#x0104;" d="M-14 0L405 705L461 705L661 0L599 0L543 203L571 188L137 188L173 203L54 0L-14 0M423 630L189 229L168 241L556 241L537 229L426 630L423 630M619-191Q575-191 551-166.50Q527-142 527-103Q527-58 556-21.50Q585 15 630 34L652 0Q613-16 594-41.50Q575-67 575-95Q575-119 588.50-133.50Q602-148 629-148Q641-148 654.50-145Q668-142 683-136L693-176Q679-181 659.50-186Q640-191 619-191Z"  horiz-adv-x="728" vert-adv-y="1000"  />

      
      <glyph glyph-name="unic5" unicode="&#xc5;" d="M-14 0L405 705L461 705L661 0L599 0L543 203L571 188L137 188L173 203L54 0L-14 0M423 630L189 229L168 241L556 241L537 229L426 630L423 630M460 759Q428 759 402 774.50Q376 790 360.50 815.50Q345 841 345 872Q345 904 360.50 929Q376 954 402 969.50Q428 985 460 985Q493 985 519 969.50Q545 954 560 929Q575 904 575 872Q575 841 560 815.50Q545 790 519 774.50Q493 759 460 759M460 797Q494 797 514.50 818.50Q535 840 535 872Q535 904 514.50 925.50Q494 947 460 947Q428 947 406.50 925.50Q385 904 385 872Q385 840 406.50 818.50Q428 797 460 797Z"  horiz-adv-x="728" vert-adv-y="1000"  />

      
      <glyph glyph-name="uni01FA" unicode="&#x01FA;" d="M-14 0L405 705L461 705L661 0L599 0L543 203L571 188L137 188L173 203L54 0L-14 0M423 630L189 229L168 241L556 241L537 229L426 630L423 630M443 759Q412 759 386 774Q360 789 344.50 814.50Q329 840 329 871Q329 902 344.50 927Q360 952 386 967Q412 982 443 982Q463 982 479.50 977Q496 972 510 961L584 1030L653 1030L538 933Q557 906 557 871Q557 840 542 814.50Q527 789 501.50 774Q476 759 443 759M443 795Q477 795 497.50 817Q518 839 518 871Q518 903 497.50 924.50Q477 946 443 946Q411 946 389.50 924Q368 902 368 871Q368 839 389.50 817Q411 795 443 795Z"  horiz-adv-x="728" vert-adv-y="1000"  />

      
      <glyph glyph-name="unic3" unicode="&#xc3;" d="M-14 0L405 705L461 705L661 0L599 0L543 203L571 188L137 188L173 203L54 0L-14 0M423 630L189 229L168 241L556 241L537 229L426 630L423 630M279 787L240 790Q251 851 282.50 884Q314 917 360 917Q390 917 415 903Q440 889 463 872Q483 858 501 847Q519 836 538 836Q596 836 616 920L655 917Q644 856 613 823Q582 790 536 790Q506 790 480.50 804.50Q455 819 432 835Q413 849 394 860Q375 871 357 871Q299 871 279 787Z"  horiz-adv-x="728" vert-adv-y="1000"  />

      
      <glyph glyph-name="unic6" unicode="&#xc6;" d="M-34 0L504 705L1019 705L1010 652L601 652L625 675L605 368L590 384L947 384L939 331L591 331L603 341L583 32L578 53L916 53L907 0L521 0L534 197L558 188L166 188L196 205L40 0L-34 0M531 651L211 226L202 241L547 241L537 226L564 651L531 651Z"  horiz-adv-x="1001" vert-adv-y="1000"  />

      
      <glyph glyph-name="uni01FC" unicode="&#x01FC;" d="M-34 0L504 705L1019 705L1010 652L601 652L625 675L605 368L590 384L947 384L939 331L591 331L603 341L583 32L578 53L916 53L907 0L521 0L534 197L558 188L166 188L196 205L40 0L-34 0M531 651L211 226L202 241L547 241L537 226L564 651L531 651M572 765L703 936L777 936L622 765L572 765Z"  horiz-adv-x="1001" vert-adv-y="1000"  />

      
      <glyph glyph-name="uni42" unicode="&#x42;" d="M53 0L165 705L441 705Q548 705 599 656.50Q650 608 636 516Q625 446 578.50 405Q532 364 459 350L461 364Q537 356 574 307Q611 258 599 182Q585 89 517.50 44.50Q450 0 336 0L53 0M121 53L339 53Q421 53 474 83.50Q527 114 537 182Q547 238 530 270Q513 302 477.50 316.50Q442 331 391 331L165 331L121 53M174 383L376 383Q464 383 513.50 416.50Q563 450 572 508Q584 581 548.50 617Q513 653 435 653L216 653L174 383Z"  horiz-adv-x="676" vert-adv-y="1000"  />

      
      <glyph glyph-name="uni0181" unicode="&#x0181;" d="M170 0L273 654L237 654Q175 654 142.50 626.50Q110 599 100 542L93 498L38 498L45 544Q59 625 109.50 665Q160 705 256 705L558 705Q665 705 716.50 656.50Q768 608 753 516Q742 446 695.50 405Q649 364 576 350L578 364Q654 356 691 307Q728 258 717 182Q702 89 634 44.50Q566 0 452 0L170 0M239 53L456 53Q538 53 590.50 83.50Q643 114 654 182Q664 238 647 270Q630 302 594.50 316.50Q559 331 508 331L282 331L239 53M292 383L494 383Q581 383 630.50 416.50Q680 450 690 508Q701 581 665 617Q629 653 552 653L333 653L292 383Z"  horiz-adv-x="793" vert-adv-y="1000"  />

      
      <glyph glyph-name="uni43" unicode="&#x43;" d="M368-8Q255-8 185.50 38.50Q116 85 90.50 169Q65 253 82 364Q100 476 150 554Q200 632 277 673Q354 714 454 713Q527 713 582.50 692Q638 671 677 629L649 577Q605 621 559.50 638.50Q514 656 451 656Q326 656 248 577Q170 498 147 355Q133 263 151.50 194Q170 125 225 87Q280 49 371 49Q429 49 484.50 69Q540 89 587 134L612 85Q567 39 501.50 15.50Q436-8 368-8Z"  horiz-adv-x="684" vert-adv-y="1000"  />

      
      <glyph glyph-name="uni0106" unicode="&#x0106;" d="M368-8Q255-8 185.50 38.50Q116 85 90.50 169Q65 253 82 364Q100 476 150 554Q200 632 277 673Q354 714 454 713Q527 713 582.50 692Q638 671 677 629L649 577Q605 621 559.50 638.50Q514 656 451 656Q326 656 248 577Q170 498 147 355Q133 263 151.50 194Q170 125 225 87Q280 49 371 49Q429 49 484.50 69Q540 89 587 134L612 85Q567 39 501.50 15.50Q436-8 368-8M446 765L577 936L651 936L496 765L446 765Z"  horiz-adv-x="684" vert-adv-y="1000"  />

      
      <glyph glyph-name="uni010C" unicode="&#x010C;" d="M368-8Q255-8 185.50 38.50Q116 85 90.50 169Q65 253 82 364Q100 476 150 554Q200 632 277 673Q354 714 454 713Q527 713 582.50 692Q638 671 677 629L649 577Q605 621 559.50 638.50Q514 656 451 656Q326 656 248 577Q170 498 147 355Q133 263 151.50 194Q170 125 225 87Q280 49 371 49Q429 49 484.50 69Q540 89 587 134L612 85Q567 39 501.50 15.50Q436-8 368-8M440 765L335 936L383 936L471 810L591 936L641 936L501 765L440 765Z"  horiz-adv-x="684" vert-adv-y="1000"  />

      
      <glyph glyph-name="unic7" unicode="&#xc7;" d="M368-8Q255-8 185.50 38.50Q116 85 90.50 169Q65 253 82 364Q100 476 150 554Q200 632 277 673Q354 714 454 713Q527 713 582.50 692Q638 671 677 629L649 577Q605 621 559.50 638.50Q514 656 451 656Q326 656 248 577Q170 498 147 355Q133 263 151.50 194Q170 125 225 87Q280 49 371 49Q429 49 484.50 69Q540 89 587 134L612 85Q567 39 501.50 15.50Q436-8 368-8M329-191Q304-191 282.50-186Q261-181 246-172L261-133Q279-142 294.50-146Q310-150 333-150Q361-150 379-139Q397-128 397-108Q397-95 388-87.50Q379-80 362-80Q352-80 340.50-81.50Q329-83 312-89L298-75L328 20L372 20L348-55L327-51Q339-48 351-46Q363-44 373-44Q404-44 424.50-60Q445-76 445-105Q445-143 412-167Q379-191 329-191Z"  horiz-adv-x="684" vert-adv-y="1000"  />

      
      <glyph glyph-name="uni1E08" unicode="&#x1E08;" d="M368-8Q255-8 185.50 38.50Q116 85 90.50 169Q65 253 82 364Q100 476 150 554Q200 632 277 673Q354 714 454 713Q527 713 582.50 692Q638 671 677 629L649 577Q605 621 559.50 638.50Q514 656 451 656Q326 656 248 577Q170 498 147 355Q133 263 151.50 194Q170 125 225 87Q280 49 371 49Q429 49 484.50 69Q540 89 587 134L612 85Q567 39 501.50 15.50Q436-8 368-8M329-191Q304-191 282.50-186Q261-181 246-172L261-133Q279-142 294.50-146Q310-150 333-150Q361-150 379-139Q397-128 397-108Q397-95 388-87.50Q379-80 362-80Q352-80 340.50-81.50Q329-83 312-89L298-75L328 20L372 20L348-55L327-51Q339-48 351-46Q363-44 373-44Q404-44 424.50-60Q445-76 445-105Q445-143 412-167Q379-191 329-191M446 765L577 936L651 936L496 765L446 765Z"  horiz-adv-x="684" vert-adv-y="1000"  />

      
      <glyph glyph-name="uni0108" unicode="&#x0108;" d="M368-8Q255-8 185.50 38.50Q116 85 90.50 169Q65 253 82 364Q100 476 150 554Q200 632 277 673Q354 714 454 713Q527 713 582.50 692Q638 671 677 629L649 577Q605 621 559.50 638.50Q514 656 451 656Q326 656 248 577Q170 498 147 355Q133 263 151.50 194Q170 125 225 87Q280 49 371 49Q429 49 484.50 69Q540 89 587 134L612 85Q567 39 501.50 15.50Q436-8 368-8M309 765L449 936L511 936L615 765L566 765L477 891L358 765L309 765Z"  horiz-adv-x="684" vert-adv-y="1000"  />

      
      <glyph glyph-name="uni010A" unicode="&#x010A;" d="M368-8Q255-8 185.50 38.50Q116 85 90.50 169Q65 253 82 364Q100 476 150 554Q200 632 277 673Q354 714 454 713Q527 713 582.50 692Q638 671 677 629L649 577Q605 621 559.50 638.50Q514 656 451 656Q326 656 248 577Q170 498 147 355Q133 263 151.50 194Q170 125 225 87Q280 49 371 49Q429 49 484.50 69Q540 89 587 134L612 85Q567 39 501.50 15.50Q436-8 368-8M440 813L452 888L528 888L516 813L440 813Z"  horiz-adv-x="684" vert-adv-y="1000"  />

      
      <glyph glyph-name="uni44" unicode="&#x44;" d="M53 0L165 705L382 705Q503 705 576.50 662Q650 619 678.50 538Q707 457 689 342Q661 170 555.50 85Q450 0 277 0L53 0M123 55L280 55Q431 55 517 127.50Q603 200 626 351Q650 502 587.50 576.50Q525 651 374 651L217 651L123 55Z"  horiz-adv-x="740" vert-adv-y="1000"  />

      
      <glyph glyph-name="uni01C4" unicode="&#x01C4;" d="M53 0L165 705L382 705Q503 705 576.50 662Q650 619 678.50 538Q707 457 689 342Q661 170 555.50 85Q450 0 277 0L53 0M123 55L280 55Q431 55 517 127.50Q603 200 626 351Q650 502 587.50 576.50Q525 651 374 651L217 651L123 55M728 0L735 46L1271 678L1266 650L830 650L840 705L1339 705L1332 660L795 28L799 55L1246 55L1238 0L728 0M1074 765L969 936L1017 936L1105 810L1225 936L1275 936L1135 765L1074 765Z"  horiz-adv-x="1315" vert-adv-y="1000"  />

      
      <glyph glyph-name="unid0" unicode="&#xd0;" d="M53 0L165 705L382 705Q503 705 576.50 662Q650 619 678.50 538Q707 457 689 342Q661 170 555.50 85Q450 0 277 0L53 0M123 55L280 55Q431 55 517 127.50Q603 200 626 351Q650 502 587.50 576.50Q525 651 374 651L217 651L123 55M19 333L27 383L377 383L369 333L19 333Z"  horiz-adv-x="740" vert-adv-y="1000"  />

      
      <glyph glyph-name="uni010E" unicode="&#x010E;" d="M53 0L165 705L382 705Q503 705 576.50 662Q650 619 678.50 538Q707 457 689 342Q661 170 555.50 85Q450 0 277 0L53 0M123 55L280 55Q431 55 517 127.50Q603 200 626 351Q650 502 587.50 576.50Q525 651 374 651L217 651L123 55M427 765L322 936L370 936L458 810L578 936L628 936L488 765L427 765Z"  horiz-adv-x="740" vert-adv-y="1000"  />

      
      <glyph glyph-name="uni0110" unicode="&#x0110;" d="M53 0L165 705L382 705Q503 705 576.50 662Q650 619 678.50 538Q707 457 689 342Q661 170 555.50 85Q450 0 277 0L53 0M123 55L280 55Q431 55 517 127.50Q603 200 626 351Q650 502 587.50 576.50Q525 651 374 651L217 651L123 55M19 333L27 383L377 383L369 333L19 333Z"  horiz-adv-x="740" vert-adv-y="1000"  />

      
      <glyph glyph-name="uni1E0C" unicode="&#x1E0C;" d="M53 0L165 705L382 705Q503 705 576.50 662Q650 619 678.50 538Q707 457 689 342Q661 170 555.50 85Q450 0 277 0L53 0M123 55L280 55Q431 55 517 127.50Q603 200 626 351Q650 502 587.50 576.50Q525 651 374 651L217 651L123 55M269-179L281-104L358-104L346-179L269-179Z"  horiz-adv-x="740" vert-adv-y="1000"  />

      
      <glyph glyph-name="uni018A" unicode="&#x018A;" d="M170 0L273 654L237 654Q175 654 142.50 626.50Q110 599 100 542L93 498L38 498L45 544Q59 625 109 665Q159 705 248 705L499 705Q620 705 694 662Q768 619 796.50 538Q825 457 806 342Q778 170 672.50 85Q567 0 395 0L170 0M240 55L397 55Q548 55 634 127.50Q720 200 743 351Q767 502 704.50 576.50Q642 651 491 651L334 651L240 55Z"  horiz-adv-x="857" vert-adv-y="1000"  />

      
      <glyph glyph-name="uni1E0E" unicode="&#x1E0E;" d="M53 0L165 705L382 705Q503 705 576.50 662Q650 619 678.50 538Q707 457 689 342Q661 170 555.50 85Q450 0 277 0L53 0M123 55L280 55Q431 55 517 127.50Q603 200 626 351Q650 502 587.50 576.50Q525 651 374 651L217 651L123 55M168-152L176-106L464-106L456-152L168-152Z"  horiz-adv-x="740" vert-adv-y="1000"  />

      
      <glyph glyph-name="uni01C5" unicode="&#x01C5;" d="M53 0L165 705L382 705Q503 705 576.50 662Q650 619 678.50 538Q707 457 689 342Q661 170 555.50 85Q450 0 277 0L53 0M123 55L280 55Q431 55 517 127.50Q603 200 626 351Q650 502 587.50 576.50Q525 651 374 651L217 651L123 55M750 0L757 42L1169 469L1166 452L821 452L830 501L1237 501L1230 459L817 31L820 49L1178 49L1169 0L750 0M1011 550L923 751L967 751L1044 596L1157 751L1204 751L1073 550L1011 550Z"  horiz-adv-x="1255" vert-adv-y="1000"  />

      
      <glyph glyph-name="uni45" unicode="&#x45;" d="M53 0L165 705L603 705L594 652L216 652L175 384L530 384L522 331L166 331L122 53L500 53L491 0L53 0Z"  horiz-adv-x="585" vert-adv-y="1000"  />

      
      <glyph glyph-name="unic9" unicode="&#xc9;" d="M53 0L165 705L603 705L594 652L216 652L175 384L530 384L522 331L166 331L122 53L500 53L491 0L53 0M382 765L513 936L587 936L432 765L382 765Z"  horiz-adv-x="585" vert-adv-y="1000"  />

      
      <glyph glyph-name="uni0114" unicode="&#x0114;" d="M53 0L165 705L603 705L594 652L216 652L175 384L530 384L522 331L166 331L122 53L500 53L491 0L53 0M410 760Q366 760 332 780.50Q298 801 279.50 838.50Q261 876 261 928L303 933Q300 872 331 838.50Q362 805 414 805Q466 805 501 838.50Q536 872 545 933L587 928Q574 850 525.50 805Q477 760 410 760Z"  horiz-adv-x="585" vert-adv-y="1000"  />

      
      <glyph glyph-name="uni011A" unicode="&#x011A;" d="M53 0L165 705L603 705L594 652L216 652L175 384L530 384L522 331L166 331L122 53L500 53L491 0L53 0M377 765L272 936L320 936L408 810L528 936L578 936L438 765L377 765Z"  horiz-adv-x="585" vert-adv-y="1000"  />

      
      <glyph glyph-name="uni0228" unicode="&#x0228;" d="M53 0L165 705L603 705L594 652L216 652L175 384L530 384L522 331L166 331L122 53L500 53L491 0L53 0M267-191Q242-191 220.50-186Q199-181 184-172L199-133Q217-142 232.50-146Q248-150 271-150Q299-150 317-139Q335-128 335-108Q335-95 326-87.50Q317-80 300-80Q290-80 278.50-81.50Q267-83 250-89L236-75L266 20L310 20L286-55L265-51Q277-48 289-46Q301-44 311-44Q342-44 362.50-60Q383-76 383-105Q383-143 350-167Q317-191 267-191Z"  horiz-adv-x="585" vert-adv-y="1000"  />

      
      <glyph glyph-name="uni1E1C" unicode="&#x1E1C;" d="M53 0L165 705L603 705L594 652L216 652L175 384L530 384L522 331L166 331L122 53L500 53L491 0L53 0M267-191Q242-191 220.50-186Q199-181 184-172L199-133Q217-142 232.50-146Q248-150 271-150Q299-150 317-139Q335-128 335-108Q335-95 326-87.50Q317-80 300-80Q290-80 278.50-81.50Q267-83 250-89L236-75L266 20L310 20L286-55L265-51Q277-48 289-46Q301-44 311-44Q342-44 362.50-60Q383-76 383-105Q383-143 350-167Q317-191 267-191M410 760Q366 760 332 780.50Q298 801 279.50 838.50Q261 876 261 928L303 933Q300 872 331 838.50Q362 805 414 805Q466 805 501 838.50Q536 872 545 933L587 928Q574 850 525.50 805Q477 760 410 760Z"  horiz-adv-x="585" vert-adv-y="1000"  />

      
      <glyph glyph-name="unica" unicode="&#xca;" d="M53 0L165 705L603 705L594 652L216 652L175 384L530 384L522 331L166 331L122 53L500 53L491 0L53 0M246 765L386 936L448 936L552 765L503 765L414 891L295 765L246 765Z"  horiz-adv-x="585" vert-adv-y="1000"  />

      
      <glyph glyph-name="uni1EBE" unicode="&#x1EBE;" d="M53 0L165 705L603 705L594 652L216 652L175 384L530 384L522 331L166 331L122 53L500 53L491 0L53 0M263 765L386 926L448 926L543 765L499 765L414 882L307 765L263 765M499 867L598 1017L665 1017L543 867L499 867Z"  horiz-adv-x="585" vert-adv-y="1000"  />

      
      <glyph glyph-name="uni1EC6" unicode="&#x1EC6;" d="M53 0L165 705L603 705L594 652L216 652L175 384L530 384L522 331L166 331L122 53L500 53L491 0L53 0M218-179L230-104L307-104L295-179L218-179M246 765L386 936L448 936L552 765L503 765L414 891L295 765L246 765Z"  horiz-adv-x="585" vert-adv-y="1000"  />

      
      <glyph glyph-name="uni1EC0" unicode="&#x1EC0;" d="M53 0L165 705L603 705L594 652L216 652L175 384L530 384L522 331L166 331L122 53L500 53L491 0L53 0M263 765L386 926L448 926L543 765L499 765L414 882L307 765L263 765M540 867L444 1017L509 1017L584 867L540 867Z"  horiz-adv-x="585" vert-adv-y="1000"  />

      
      <glyph glyph-name="uni1EC2" unicode="&#x1EC2;" d="M53 0L165 705L603 705L594 652L216 652L175 384L530 384L522 331L166 331L122 53L500 53L491 0L53 0M263 765L386 926L448 926L543 765L499 765L414 882L307 765L263 765M509 867Q511 891 522 904.50Q533 918 547 926.50Q561 935 571 943Q581 951 581 965Q581 975 569.50 979.50Q558 984 541 984Q524 984 505 980.50Q486 977 471 972L464 1005Q482 1013 502 1017Q522 1021 546 1021Q587 1021 609 1008.50Q631 996 631 973Q631 952 619.50 939.50Q608 927 592.50 917.50Q577 908 565 897.50Q553 887 551 867L509 867Z"  horiz-adv-x="585" vert-adv-y="1000"  />

      
      <glyph glyph-name="uni1EC4" unicode="&#x1EC4;" d="M53 0L165 705L603 705L594 652L216 652L175 384L530 384L522 331L166 331L122 53L500 53L491 0L53 0M262 765L383 896L445 896L543 765L499 765L411 856L306 765L262 765M302 921L264 924Q272 973 296 997.50Q320 1022 357 1022Q379 1022 396 1012.50Q413 1003 429 991Q443 982 455.50 974Q468 966 482 966Q505 966 517 979.50Q529 993 537 1024L576 1022Q567 973 544 948Q521 923 484 923Q462 923 444.50 933Q427 943 412 954Q398 964 385 972Q372 980 358 980Q336 980 323 966Q310 952 302 921Z"  horiz-adv-x="585" vert-adv-y="1000"  />

      
      <glyph glyph-name="uni0204" unicode="&#x0204;" d="M53 0L165 705L603 705L594 652L216 652L175 384L530 384L522 331L166 331L122 53L500 53L491 0L53 0M447 765L347 936L412 936L484 765L447 765M330 765L228 936L293 936L367 765L330 765Z"  horiz-adv-x="585" vert-adv-y="1000"  />

      
      <glyph glyph-name="unicb" unicode="&#xcb;" d="M53 0L165 705L603 705L594 652L216 652L175 384L530 384L522 331L166 331L122 53L500 53L491 0L53 0M461 813L473 886L546 886L534 813L461 813M294 813L306 886L379 886L367 813L294 813Z"  horiz-adv-x="585" vert-adv-y="1000"  />

      
      <glyph glyph-name="uni0116" unicode="&#x0116;" d="M53 0L165 705L603 705L594 652L216 652L175 384L530 384L522 331L166 331L122 53L500 53L491 0L53 0M376 813L388 888L464 888L452 813L376 813Z"  horiz-adv-x="585" vert-adv-y="1000"  />

      
      <glyph glyph-name="uni1EB8" unicode="&#x1EB8;" d="M53 0L165 705L603 705L594 652L216 652L175 384L530 384L522 331L166 331L122 53L500 53L491 0L53 0M218-179L230-104L307-104L295-179L218-179Z"  horiz-adv-x="585" vert-adv-y="1000"  />

      
      <glyph glyph-name="unic8" unicode="&#xc8;" d="M53 0L165 705L603 705L594 652L216 652L175 384L530 384L522 331L166 331L122 53L500 53L491 0L53 0M382 765L255 936L327 936L432 765L382 765Z"  horiz-adv-x="585" vert-adv-y="1000"  />

      
      <glyph glyph-name="uni1EBA" unicode="&#x1EBA;" d="M53 0L165 705L603 705L594 652L216 652L175 384L530 384L522 331L166 331L122 53L500 53L491 0L53 0M384 765L386 780Q389 802 401 815.50Q413 829 426.50 837.50Q440 846 450 855Q460 864 460 878Q460 888 448.50 894Q437 900 413 900Q398 900 382.50 896.50Q367 893 347 884L339 922Q376 941 426 941Q468 941 490.50 926Q513 911 513 885Q513 862 501.50 849Q490 836 474.50 827Q459 818 446.50 806.50Q434 795 432 775L431 765L384 765Z"  horiz-adv-x="585" vert-adv-y="1000"  />

      
      <glyph glyph-name="uni0206" unicode="&#x0206;" d="M53 0L165 705L603 705L594 652L216 652L175 384L530 384L522 331L166 331L122 53L500 53L491 0L53 0M280 760L238 765Q251 843 299.50 888Q348 933 415 933Q460 933 494 912.50Q528 892 547 854.50Q566 817 564 765L522 760Q525 822 494.50 855Q464 888 412 888Q360 888 325 855Q290 822 280 760Z"  horiz-adv-x="585" vert-adv-y="1000"  />

      
      <glyph glyph-name="uni0112" unicode="&#x0112;" d="M53 0L165 705L603 705L594 652L216 652L175 384L530 384L522 331L166 331L122 53L500 53L491 0L53 0M256 818L264 865L582 865L574 818L256 818Z"  horiz-adv-x="585" vert-adv-y="1000"  />

      
      <glyph glyph-name="uni1E16" unicode="&#x1E16;" d="M53 0L165 705L603 705L594 652L216 652L175 384L530 384L522 331L166 331L122 53L500 53L491 0L53 0M266 793L274 839L562 839L555 793L266 793M401 876L506 1022L576 1022L447 876L401 876Z"  horiz-adv-x="585" vert-adv-y="1000"  />

      
      <glyph glyph-name="uni1E14" unicode="&#x1E14;" d="M53 0L165 705L603 705L594 652L216 652L175 384L530 384L522 331L166 331L122 53L500 53L491 0L53 0M401 876L299 1022L367 1022L447 876L401 876M267 793L274 839L562 839L555 793L267 793Z"  horiz-adv-x="585" vert-adv-y="1000"  />

      
      <glyph glyph-name="uni0118" unicode="&#x0118;" d="M53 0L165 705L603 705L594 652L216 652L175 384L530 384L522 331L166 331L122 53L500 53L491 0L53 0M429-191Q385-191 361-166.50Q337-142 337-103Q337-58 366-21.50Q395 15 440 34L462 0Q423-16 404-41.50Q385-67 385-95Q385-119 398.50-133.50Q412-148 439-148Q451-148 464.50-145Q478-142 493-136L503-176Q489-181 469.50-186Q450-191 429-191Z"  horiz-adv-x="585" vert-adv-y="1000"  />

      
      <glyph glyph-name="uni1EBC" unicode="&#x1EBC;" d="M53 0L165 705L603 705L594 652L216 652L175 384L530 384L522 331L166 331L122 53L500 53L491 0L53 0M243 787L204 790Q215 851 246.50 884Q278 917 324 917Q354 917 379 903Q404 889 427 872Q447 858 465 847Q483 836 502 836Q560 836 580 920L619 917Q608 856 577 823Q546 790 500 790Q470 790 444.50 804.50Q419 819 396 835Q377 849 358 860Q339 871 321 871Q263 871 243 787Z"  horiz-adv-x="585" vert-adv-y="1000"  />

      
      <glyph glyph-name="uni46" unicode="&#x46;" d="M53 0L165 705L593 705L584 652L217 652L175 383L521 383L513 330L167 330L115 0L53 0Z"  horiz-adv-x="558" vert-adv-y="1000"  />

      
      <glyph glyph-name="uni47" unicode="&#x47;" d="M376-8Q258-8 187 37Q116 82 90.50 166Q65 250 83 364Q101 476 152 553.50Q203 631 282.50 672Q362 713 466 713Q543 713 596 692Q649 671 687 633L657 581Q617 621 573.50 638.50Q530 656 462 656Q333 656 251 576.50Q169 497 147 353Q124 210 179.50 129Q235 48 379 48Q433 48 481.50 58.50Q530 69 577 90L555 47L596 311L409 311L418 363L660 363L609 44Q581 28 541.50 16.50Q502 5 459-1.50Q416-8 376-8Z"  horiz-adv-x="727" vert-adv-y="1000"  />

      
      <glyph glyph-name="uni011E" unicode="&#x011E;" d="M376-8Q258-8 187 37Q116 82 90.50 166Q65 250 83 364Q101 476 152 553.50Q203 631 282.50 672Q362 713 466 713Q543 713 596 692Q649 671 687 633L657 581Q617 621 573.50 638.50Q530 656 462 656Q333 656 251 576.50Q169 497 147 353Q124 210 179.50 129Q235 48 379 48Q433 48 481.50 58.50Q530 69 577 90L555 47L596 311L409 311L418 363L660 363L609 44Q581 28 541.50 16.50Q502 5 459-1.50Q416-8 376-8M480 760Q436 760 402 780.50Q368 801 349.50 838.50Q331 876 331 928L373 933Q370 872 401 838.50Q432 805 484 805Q536 805 571 838.50Q606 872 615 933L657 928Q644 850 595.50 805Q547 760 480 760Z"  horiz-adv-x="727" vert-adv-y="1000"  />

      
      <glyph glyph-name="uni01E6" unicode="&#x01E6;" d="M376-8Q258-8 187 37Q116 82 90.50 166Q65 250 83 364Q101 476 152 553.50Q203 631 282.50 672Q362 713 466 713Q543 713 596 692Q649 671 687 633L657 581Q617 621 573.50 638.50Q530 656 462 656Q333 656 251 576.50Q169 497 147 353Q124 210 179.50 129Q235 48 379 48Q433 48 481.50 58.50Q530 69 577 90L555 47L596 311L409 311L418 363L660 363L609 44Q581 28 541.50 16.50Q502 5 459-1.50Q416-8 376-8M447 765L342 936L390 936L478 810L598 936L648 936L508 765L447 765Z"  horiz-adv-x="727" vert-adv-y="1000"  />

      
      <glyph glyph-name="uni011C" unicode="&#x011C;" d="M376-8Q258-8 187 37Q116 82 90.50 166Q65 250 83 364Q101 476 152 553.50Q203 631 282.50 672Q362 713 466 713Q543 713 596 692Q649 671 687 633L657 581Q617 621 573.50 638.50Q530 656 462 656Q333 656 251 576.50Q169 497 147 353Q124 210 179.50 129Q235 48 379 48Q433 48 481.50 58.50Q530 69 577 90L555 47L596 311L409 311L418 363L660 363L609 44Q581 28 541.50 16.50Q502 5 459-1.50Q416-8 376-8M316 765L456 936L518 936L622 765L573 765L484 891L365 765L316 765Z"  horiz-adv-x="727" vert-adv-y="1000"  />

      
      <glyph glyph-name="uni0122" unicode="&#x0122;" d="M376-8Q258-8 187 37Q116 82 90.50 166Q65 250 83 364Q101 476 152 553.50Q203 631 282.50 672Q362 713 466 713Q543 713 596 692Q649 671 687 633L657 581Q617 621 573.50 638.50Q530 656 462 656Q333 656 251 576.50Q169 497 147 353Q124 210 179.50 129Q235 48 379 48Q433 48 481.50 58.50Q530 69 577 90L555 47L596 311L409 311L418 363L660 363L609 44Q581 28 541.50 16.50Q502 5 459-1.50Q416-8 376-8M322-263L298-238Q325-216 333.50-195.50Q342-175 346-148L362-156L302-156L315-83L399-83L388-147Q382-185 367-213.50Q352-242 322-263Z"  horiz-adv-x="727" vert-adv-y="1000"  />

      
      <glyph glyph-name="uni0120" unicode="&#x0120;" d="M376-8Q258-8 187 37Q116 82 90.50 166Q65 250 83 364Q101 476 152 553.50Q203 631 282.50 672Q362 713 466 713Q543 713 596 692Q649 671 687 633L657 581Q617 621 573.50 638.50Q530 656 462 656Q333 656 251 576.50Q169 497 147 353Q124 210 179.50 129Q235 48 379 48Q433 48 481.50 58.50Q530 69 577 90L555 47L596 311L409 311L418 363L660 363L609 44Q581 28 541.50 16.50Q502 5 459-1.50Q416-8 376-8M446 813L458 888L534 888L522 813L446 813Z"  horiz-adv-x="727" vert-adv-y="1000"  />

      
      <glyph glyph-name="uni1E20" unicode="&#x1E20;" d="M376-8Q258-8 187 37Q116 82 90.50 166Q65 250 83 364Q101 476 152 553.50Q203 631 282.50 672Q362 713 466 713Q543 713 596 692Q649 671 687 633L657 581Q617 621 573.50 638.50Q530 656 462 656Q333 656 251 576.50Q169 497 147 353Q124 210 179.50 129Q235 48 379 48Q433 48 481.50 58.50Q530 69 577 90L555 47L596 311L409 311L418 363L660 363L609 44Q581 28 541.50 16.50Q502 5 459-1.50Q416-8 376-8M326 818L334 865L652 865L644 818L326 818Z"  horiz-adv-x="727" vert-adv-y="1000"  />

      
      <glyph glyph-name="uni48" unicode="&#x48;" d="M53 0L165 705L227 705L176 385L629 385L680 705L742 705L630 0L568 0L621 330L167 330L115 0L53 0Z"  horiz-adv-x="762" vert-adv-y="1000"  />

      
      <glyph glyph-name="uni0126" unicode="&#x0126;" d="M62 0L144 523L49 523L57 574L152 574L174 705L236 705L214 574L666 574L688 705L750 705L728 574L823 574L815 523L720 523L638 0L576 0L628 327L176 327L124 0L62 0M185 382L636 382L658 523L206 523L185 382Z"  horiz-adv-x="779" vert-adv-y="1000"  />

      
      <glyph glyph-name="uni1E2A" unicode="&#x1E2A;" d="M53 0L165 705L227 705L176 385L629 385L680 705L742 705L630 0L568 0L621 330L167 330L115 0L53 0M321-215Q257-215 218.50-175.50Q180-136 183-67L225-62Q222-114 248.50-142Q275-170 323-170Q371-170 401-142Q431-114 440-62L481-67Q472-136 429-175.50Q386-215 321-215Z"  horiz-adv-x="762" vert-adv-y="1000"  />

      
      <glyph glyph-name="uni0124" unicode="&#x0124;" d="M53 0L165 705L227 705L176 385L629 385L680 705L742 705L630 0L568 0L621 330L167 330L115 0L53 0M302 765L442 936L504 936L608 765L559 765L470 891L351 765L302 765Z"  horiz-adv-x="762" vert-adv-y="1000"  />

      
      <glyph glyph-name="uni1E24" unicode="&#x1E24;" d="M53 0L165 705L227 705L176 385L629 385L680 705L742 705L630 0L568 0L621 330L167 330L115 0L53 0M275-179L287-104L364-104L352-179L275-179Z"  horiz-adv-x="762" vert-adv-y="1000"  />

      
      <glyph glyph-name="uni49" unicode="&#x49;" d="M53 0L165 705L227 705L115 0L53 0Z"  horiz-adv-x="247" vert-adv-y="1000"  />

      
      <glyph glyph-name="uni0132" unicode="&#x0132;" d="M53 0L165 705L227 705L115 0L53 0M252-186Q236-186 217-184Q198-182 179-175L188-122Q206-129 221.50-131Q237-133 251-133Q297-133 326-104Q355-75 365-12L479 705L541 705L426-16Q417-71 395-109Q373-147 337.50-166.50Q302-186 252-186Z"  horiz-adv-x="561" vert-adv-y="1000"  />

      
      <glyph glyph-name="unicd" unicode="&#xcd;" d="M53 0L165 705L227 705L115 0L53 0M180 765L311 936L385 936L230 765L180 765Z"  horiz-adv-x="247" vert-adv-y="1000"  />

      
      <glyph glyph-name="uni012C" unicode="&#x012C;" d="M53 0L165 705L227 705L115 0L53 0M208 760Q164 760 130 780.50Q96 801 77.50 838.50Q59 876 59 928L101 933Q98 872 129 838.50Q160 805 212 805Q264 805 299 838.50Q334 872 343 933L385 928Q372 850 323.50 805Q275 760 208 760Z"  horiz-adv-x="247" vert-adv-y="1000"  />

      
      <glyph glyph-name="unice" unicode="&#xce;" d="M53 0L165 705L227 705L115 0L53 0M44 765L184 936L246 936L350 765L301 765L212 891L93 765L44 765Z"  horiz-adv-x="247" vert-adv-y="1000"  />

      
      <glyph glyph-name="uni0208" unicode="&#x0208;" d="M53 0L165 705L227 705L115 0L53 0M245 765L145 936L210 936L282 765L245 765M128 765L26 936L91 936L165 765L128 765Z"  horiz-adv-x="247" vert-adv-y="1000"  />

      
      <glyph glyph-name="unicf" unicode="&#xcf;" d="M53 0L165 705L227 705L115 0L53 0M259 813L271 886L344 886L332 813L259 813M92 813L104 886L177 886L165 813L92 813Z"  horiz-adv-x="247" vert-adv-y="1000"  />

      
      <glyph glyph-name="uni1E2E" unicode="&#x1E2E;" d="M53 0L165 705L227 705L115 0L53 0M199 876L304 1022L374 1022L245 876L199 876M85 771L96 837L169 837L158 771L85 771M252 771L263 837L336 837L325 771L252 771Z"  horiz-adv-x="247" vert-adv-y="1000"  />

      
      <glyph glyph-name="uni0130" unicode="&#x0130;" d="M53 0L165 705L227 705L115 0L53 0M174 813L186 888L262 888L250 813L174 813Z"  horiz-adv-x="247" vert-adv-y="1000"  />

      
      <glyph glyph-name="uni1ECA" unicode="&#x1ECA;" d="M53 0L165 705L227 705L115 0L53 0M16-179L28-104L105-104L93-179L16-179Z"  horiz-adv-x="247" vert-adv-y="1000"  />

      
      <glyph glyph-name="unicc" unicode="&#xcc;" d="M53 0L165 705L227 705L115 0L53 0M180 765L53 936L125 936L230 765L180 765Z"  horiz-adv-x="247" vert-adv-y="1000"  />

      
      <glyph glyph-name="uni1EC8" unicode="&#x1EC8;" d="M53 0L165 705L227 705L115 0L53 0M182 765L184 780Q187 802 199 815.50Q211 829 224.50 837.50Q238 846 248 855Q258 864 258 878Q258 888 246.50 894Q235 900 211 900Q196 900 180.50 896.50Q165 893 145 884L137 922Q174 941 224 941Q266 941 288.50 926Q311 911 311 885Q311 862 299.50 849Q288 836 272.50 827Q257 818 244.50 806.50Q232 795 230 775L229 765L182 765Z"  horiz-adv-x="247" vert-adv-y="1000"  />

      
      <glyph glyph-name="uni020A" unicode="&#x020A;" d="M53 0L165 705L227 705L115 0L53 0M78 760L36 765Q49 843 97.50 888Q146 933 213 933Q258 933 292 912.50Q326 892 345 854.50Q364 817 362 765L320 760Q323 822 292.50 855Q262 888 210 888Q158 888 123 855Q88 822 78 760Z"  horiz-adv-x="247" vert-adv-y="1000"  />

      
      <glyph glyph-name="uni012A" unicode="&#x012A;" d="M53 0L165 705L227 705L115 0L53 0M54 818L62 865L380 865L372 818L54 818Z"  horiz-adv-x="247" vert-adv-y="1000"  />

      
      <glyph glyph-name="uni012E" unicode="&#x012E;" d="M53 0L165 705L227 705L115 0L53 0M75-191Q31-191 7-166.50Q-17-142-17-103Q-17-58 12-21.50Q41 15 86 34L108 0Q69-16 50-41.50Q31-67 31-95Q31-119 44.50-133.50Q58-148 85-148Q97-148 110.50-145Q124-142 139-136L149-176Q135-181 115.50-186Q96-191 75-191Z"  horiz-adv-x="247" vert-adv-y="1000"  />

      
      <glyph glyph-name="uni0128" unicode="&#x0128;" d="M53 0L165 705L227 705L115 0L53 0M41 787L2 790Q13 851 44.50 884Q76 917 122 917Q152 917 177 903Q202 889 225 872Q245 858 263 847Q281 836 300 836Q358 836 378 920L417 917Q406 856 375 823Q344 790 298 790Q268 790 242.50 804.50Q217 819 194 835Q175 849 156 860Q137 871 119 871Q61 871 41 787Z"  horiz-adv-x="247" vert-adv-y="1000"  />

      
      <glyph glyph-name="uni4a" unicode="&#x4a;" d="M5-186Q-11-186-30-184Q-49-182-68-175L-59-122Q-41-129-25.50-131Q-10-133 4-133Q50-133 79-104Q108-75 118-12L232 705L294 705L179-16Q170-71 148-109Q126-147 90.50-166.50Q55-186 5-186Z"  horiz-adv-x="314" vert-adv-y="1000"  />

      
      <glyph glyph-name="uni0134" unicode="&#x0134;" d="M5-186Q-11-186-30-184Q-49-182-68-175L-59-122Q-41-129-25.50-131Q-10-133 4-133Q50-133 79-104Q108-75 118-12L232 705L294 705L179-16Q170-71 148-109Q126-147 90.50-166.50Q55-186 5-186M111 765L251 936L313 936L417 765L368 765L279 891L160 765L111 765Z"  horiz-adv-x="314" vert-adv-y="1000"  />

      
      <glyph glyph-name="uni4b" unicode="&#x4b;" d="M53 0L165 705L227 705L175 381L177 381L577 705L664 705L212 342L211 378L581 0L499 0L170 335L168 335L115 0L53 0Z"  horiz-adv-x="619" vert-adv-y="1000"  />

      
      <glyph glyph-name="uni0136" unicode="&#x0136;" d="M53 0L165 705L227 705L175 381L177 381L577 705L664 705L212 342L211 378L581 0L499 0L170 335L168 335L115 0L53 0M228-263L204-238Q231-216 239.50-195.50Q248-175 252-148L268-156L208-156L221-83L305-83L294-147Q288-185 273-213.50Q258-242 228-263Z"  horiz-adv-x="619" vert-adv-y="1000"  />

      
      <glyph glyph-name="uni4c" unicode="&#x4c;" d="M53 0L165 705L227 705L123 55L491 55L482 0L53 0Z"  horiz-adv-x="538" vert-adv-y="1000"  />

      
      <glyph glyph-name="uni01C7" unicode="&#x01C7;" d="M53 0L165 705L227 705L123 55L491 55L482 0L53 0M583-186Q567-186 548-184Q529-182 510-175L519-122Q537-129 552.50-131Q568-133 582-133Q628-133 657-104Q686-75 696-12L810 705L872 705L757-16Q748-71 726-109Q704-147 668.50-166.50Q633-186 583-186Z"  horiz-adv-x="893" vert-adv-y="1000"  />

      
      <glyph glyph-name="uni0139" unicode="&#x0139;" d="M53 0L165 705L227 705L123 55L491 55L482 0L53 0M180 765L311 936L385 936L230 765L180 765Z"  horiz-adv-x="538" vert-adv-y="1000"  />

      
      <glyph glyph-name="uni013D" unicode="&#x013D;" d="M53 0L165 705L227 705L123 55L491 55L482 0L53 0M306 484L341 705L401 705L346 484L306 484Z"  horiz-adv-x="538" vert-adv-y="1000"  />

      
      <glyph glyph-name="uni013B" unicode="&#x013B;" d="M53 0L165 705L227 705L123 55L491 55L482 0L53 0M218-263L194-238Q221-216 229.50-195.50Q238-175 242-148L258-156L198-156L211-83L295-83L284-147Q278-185 263-213.50Q248-242 218-263Z"  horiz-adv-x="538" vert-adv-y="1000"  />

      
      <glyph glyph-name="uni013F" unicode="&#x013F;" d="M53 0L165 705L227 705L123 55L491 55L482 0L53 0M366 347L379 428L464 428L451 347L366 347Z"  horiz-adv-x="538" vert-adv-y="1000"  />

      
      <glyph glyph-name="uni1E36" unicode="&#x1E36;" d="M53 0L165 705L227 705L123 55L491 55L482 0L53 0M198-179L210-104L287-104L275-179L198-179Z"  horiz-adv-x="538" vert-adv-y="1000"  />

      
      <glyph glyph-name="uni01C8" unicode="&#x01C8;" d="M53 0L165 705L227 705L123 55L491 55L482 0L53 0M474-219Q462-219 443-216.50Q424-214 411-207L420-154Q432-158 447.50-161.50Q463-165 476-165Q521-165 546.50-136.50Q572-108 581-45L668 501L729 501L640-53Q628-135 585.50-177Q543-219 474-219M677 624L689 700L770 700L758 624L677 624Z"  horiz-adv-x="766" vert-adv-y="1000"  />

      
      <glyph glyph-name="uni1E3A" unicode="&#x1E3A;" d="M53 0L165 705L227 705L123 55L491 55L482 0L53 0M97-152L105-106L393-106L385-152L97-152Z"  horiz-adv-x="538" vert-adv-y="1000"  />

      
      <glyph glyph-name="uni0141" unicode="&#x0141;" d="M53 0L165 705L227 705L123 55L491 55L482 0L53 0M20 283L-3 329L355 495L377 449L20 283Z"  horiz-adv-x="538" vert-adv-y="1000"  />

      
      <glyph glyph-name="uni4d" unicode="&#x4d;" d="M53 0L165 705L219 705L408 41L379 41L779 705L832 705L720 0L663 0L763 632L793 632L409 0L367 0L184 632L210 632L110 0L53 0Z"  horiz-adv-x="853" vert-adv-y="1000"  />

      
      <glyph glyph-name="uni1E42" unicode="&#x1E42;" d="M53 0L165 705L219 705L408 41L379 41L779 705L832 705L720 0L663 0L763 632L793 632L409 0L367 0L184 632L210 632L110 0L53 0M320-179L332-104L409-104L397-179L320-179Z"  horiz-adv-x="853" vert-adv-y="1000"  />

      
      <glyph glyph-name="uni4e" unicode="&#x4e;" d="M53 0L165 705L215 705L582 71L565 73L665 705L722 705L610 0L561 0L194 634L210 632L110 0L53 0Z"  horiz-adv-x="743" vert-adv-y="1000"  />

      
      <glyph glyph-name="uni01CA" unicode="&#x01CA;" d="M53 0L165 705L215 705L582 71L565 73L665 705L722 705L610 0L561 0L194 634L210 632L110 0L53 0M748-186Q732-186 713-184Q694-182 675-175L684-122Q702-129 717.50-131Q733-133 747-133Q793-133 822-104Q851-75 861-12L975 705L1037 705L922-16Q913-71 891-109Q869-147 833.50-166.50Q798-186 748-186Z"  horiz-adv-x="1057" vert-adv-y="1000"  />

      
      <glyph glyph-name="uni0143" unicode="&#x0143;" d="M53 0L165 705L215 705L582 71L565 73L665 705L722 705L610 0L561 0L194 634L210 632L110 0L53 0M429 765L560 936L634 936L479 765L429 765Z"  horiz-adv-x="743" vert-adv-y="1000"  />

      
      <glyph glyph-name="uni0147" unicode="&#x0147;" d="M53 0L165 705L215 705L582 71L565 73L665 705L722 705L610 0L561 0L194 634L210 632L110 0L53 0M424 765L319 936L367 936L455 810L575 936L625 936L485 765L424 765Z"  horiz-adv-x="743" vert-adv-y="1000"  />

      
      <glyph glyph-name="uni0145" unicode="&#x0145;" d="M53 0L165 705L215 705L582 71L565 73L665 705L722 705L610 0L561 0L194 634L210 632L110 0L53 0M285-263L261-238Q288-216 296.50-195.50Q305-175 309-148L325-156L265-156L278-83L362-83L351-147Q345-185 330-213.50Q315-242 285-263Z"  horiz-adv-x="743" vert-adv-y="1000"  />

      
      <glyph glyph-name="uni1E44" unicode="&#x1E44;" d="M53 0L165 705L215 705L582 71L565 73L665 705L722 705L610 0L561 0L194 634L210 632L110 0L53 0M423 813L435 888L511 888L499 813L423 813Z"  horiz-adv-x="743" vert-adv-y="1000"  />

      
      <glyph glyph-name="uni1E46" unicode="&#x1E46;" d="M53 0L165 705L215 705L582 71L565 73L665 705L722 705L610 0L561 0L194 634L210 632L110 0L53 0M266-179L278-104L355-104L343-179L266-179Z"  horiz-adv-x="743" vert-adv-y="1000"  />

      
      <glyph glyph-name="uni014A" unicode="&#x014A;" d="M376-193L380-143L425-139Q477-136 509-105Q541-74 550-19L558 32L561 0L194 634L210 632L110 0L53 0L165 705L215 705L582 71L565 73L665 705L722 705L608-15Q600-69 575.50-107Q551-145 513-166Q475-187 422-190L376-193Z"  horiz-adv-x="743" vert-adv-y="1000"  />

      
      <glyph glyph-name="uni01CB" unicode="&#x01CB;" d="M53 0L165 705L215 705L582 71L565 73L665 705L722 705L610 0L561 0L194 634L210 632L110 0L53 0M679-219Q667-219 648-216.50Q629-214 616-207L625-154Q637-158 652.50-161.50Q668-165 681-165Q726-165 751.50-136.50Q777-108 786-45L873 501L934 501L845-53Q833-135 790.50-177Q748-219 679-219M882 624L894 700L975 700L963 624L882 624Z"  horiz-adv-x="971" vert-adv-y="1000"  />

      
      <glyph glyph-name="uni1E48" unicode="&#x1E48;" d="M53 0L165 705L215 705L582 71L565 73L665 705L722 705L610 0L561 0L194 634L210 632L110 0L53 0M165-152L173-106L461-106L453-152L165-152Z"  horiz-adv-x="743" vert-adv-y="1000"  />

      
      <glyph glyph-name="unid1" unicode="&#xd1;" d="M53 0L165 705L215 705L582 71L565 73L665 705L722 705L610 0L561 0L194 634L210 632L110 0L53 0M290 787L251 790Q262 851 293.50 884Q325 917 371 917Q401 917 426 903Q451 889 474 872Q494 858 512 847Q530 836 549 836Q607 836 627 920L666 917Q655 856 624 823Q593 790 547 790Q517 790 491.50 804.50Q466 819 443 835Q424 849 405 860Q386 871 368 871Q310 871 290 787Z"  horiz-adv-x="743" vert-adv-y="1000"  />

      
      <glyph glyph-name="uni4f" unicode="&#x4f;" d="M83 364Q101 476 150 554Q199 632 275 672.50Q351 713 448 713Q551 713 616.50 666.50Q682 620 707 536Q732 452 714 341Q697 230 647.50 152Q598 74 522 33Q446-8 348-8Q246-8 181 38.50Q116 85 91 169Q66 253 83 364M147 354Q132 259 151 191Q170 123 221.50 85.50Q273 48 353 48Q476 48 552 128Q628 208 651 351Q666 445 646 514Q626 583 575 620Q524 657 444 657Q321 657 245.50 577.50Q170 498 147 354Z"  horiz-adv-x="765" vert-adv-y="1000"  />

      
      <glyph glyph-name="unid3" unicode="&#xd3;" d="M83 364Q101 476 150 554Q199 632 275 672.50Q351 713 448 713Q551 713 616.50 666.50Q682 620 707 536Q732 452 714 341Q697 230 647.50 152Q598 74 522 33Q446-8 348-8Q246-8 181 38.50Q116 85 91 169Q66 253 83 364M147 354Q132 259 151 191Q170 123 221.50 85.50Q273 48 353 48Q476 48 552 128Q628 208 651 351Q666 445 646 514Q626 583 575 620Q524 657 444 657Q321 657 245.50 577.50Q170 498 147 354M439 765L570 936L644 936L489 765L439 765Z"  horiz-adv-x="765" vert-adv-y="1000"  />

      
      <glyph glyph-name="uni014E" unicode="&#x014E;" d="M83 364Q101 476 150 554Q199 632 275 672.50Q351 713 448 713Q551 713 616.50 666.50Q682 620 707 536Q732 452 714 341Q697 230 647.50 152Q598 74 522 33Q446-8 348-8Q246-8 181 38.50Q116 85 91 169Q66 253 83 364M147 354Q132 259 151 191Q170 123 221.50 85.50Q273 48 353 48Q476 48 552 128Q628 208 651 351Q666 445 646 514Q626 583 575 620Q524 657 444 657Q321 657 245.50 577.50Q170 498 147 354M467 760Q423 760 389 780.50Q355 801 336.50 838.50Q318 876 318 928L360 933Q357 872 388 838.50Q419 805 471 805Q523 805 558 838.50Q593 872 602 933L644 928Q631 850 582.50 805Q534 760 467 760Z"  horiz-adv-x="765" vert-adv-y="1000"  />

      
      <glyph glyph-name="unid4" unicode="&#xd4;" d="M83 364Q101 476 150 554Q199 632 275 672.50Q351 713 448 713Q551 713 616.50 666.50Q682 620 707 536Q732 452 714 341Q697 230 647.50 152Q598 74 522 33Q446-8 348-8Q246-8 181 38.50Q116 85 91 169Q66 253 83 364M147 354Q132 259 151 191Q170 123 221.50 85.50Q273 48 353 48Q476 48 552 128Q628 208 651 351Q666 445 646 514Q626 583 575 620Q524 657 444 657Q321 657 245.50 577.50Q170 498 147 354M303 765L443 936L505 936L609 765L560 765L471 891L352 765L303 765Z"  horiz-adv-x="765" vert-adv-y="1000"  />

      
      <glyph glyph-name="uni1ED0" unicode="&#x1ED0;" d="M83 364Q101 476 150 554Q199 632 275 672.50Q351 713 448 713Q551 713 616.50 666.50Q682 620 707 536Q732 452 714 341Q697 230 647.50 152Q598 74 522 33Q446-8 348-8Q246-8 181 38.50Q116 85 91 169Q66 253 83 364M147 354Q132 259 151 191Q170 123 221.50 85.50Q273 48 353 48Q476 48 552 128Q628 208 651 351Q666 445 646 514Q626 583 575 620Q524 657 444 657Q321 657 245.50 577.50Q170 498 147 354M320 765L443 926L505 926L600 765L556 765L471 882L364 765L320 765M556 867L655 1017L722 1017L600 867L556 867Z"  horiz-adv-x="765" vert-adv-y="1000"  />

      
      <glyph glyph-name="uni1ED8" unicode="&#x1ED8;" d="M83 364Q101 476 150 554Q199 632 275 672.50Q351 713 448 713Q551 713 616.50 666.50Q682 620 707 536Q732 452 714 341Q697 230 647.50 152Q598 74 522 33Q446-8 348-8Q246-8 181 38.50Q116 85 91 169Q66 253 83 364M147 354Q132 259 151 191Q170 123 221.50 85.50Q273 48 353 48Q476 48 552 128Q628 208 651 351Q666 445 646 514Q626 583 575 620Q524 657 444 657Q321 657 245.50 577.50Q170 498 147 354M275-179L287-104L364-104L352-179L275-179M303 765L443 936L505 936L609 765L560 765L471 891L352 765L303 765Z"  horiz-adv-x="765" vert-adv-y="1000"  />

      
      <glyph glyph-name="uni1ED2" unicode="&#x1ED2;" d="M83 364Q101 476 150 554Q199 632 275 672.50Q351 713 448 713Q551 713 616.50 666.50Q682 620 707 536Q732 452 714 341Q697 230 647.50 152Q598 74 522 33Q446-8 348-8Q246-8 181 38.50Q116 85 91 169Q66 253 83 364M147 354Q132 259 151 191Q170 123 221.50 85.50Q273 48 353 48Q476 48 552 128Q628 208 651 351Q666 445 646 514Q626 583 575 620Q524 657 444 657Q321 657 245.50 577.50Q170 498 147 354M320 765L443 926L505 926L600 765L556 765L471 882L364 765L320 765M597 867L501 1017L566 1017L641 867L597 867Z"  horiz-adv-x="765" vert-adv-y="1000"  />

      
      <glyph glyph-name="uni1ED4" unicode="&#x1ED4;" d="M83 364Q101 476 150 554Q199 632 275 672.50Q351 713 448 713Q551 713 616.50 666.50Q682 620 707 536Q732 452 714 341Q697 230 647.50 152Q598 74 522 33Q446-8 348-8Q246-8 181 38.50Q116 85 91 169Q66 253 83 364M147 354Q132 259 151 191Q170 123 221.50 85.50Q273 48 353 48Q476 48 552 128Q628 208 651 351Q666 445 646 514Q626 583 575 620Q524 657 444 657Q321 657 245.50 577.50Q170 498 147 354M320 765L443 926L505 926L600 765L556 765L471 882L364 765L320 765M566 867Q568 891 579 904.50Q590 918 604 926.50Q618 935 628 943Q638 951 638 965Q638 975 626.50 979.50Q615 984 598 984Q581 984 562 980.50Q543 977 528 972L521 1005Q539 1013 559 1017Q579 1021 603 1021Q644 1021 666 1008.50Q688 996 688 973Q688 952 676.50 939.50Q665 927 649.50 917.50Q634 908 622 897.50Q610 887 608 867L566 867Z"  horiz-adv-x="765" vert-adv-y="1000"  />

      
      <glyph glyph-name="uni1ED6" unicode="&#x1ED6;" d="M83 364Q101 476 150 554Q199 632 275 672.50Q351 713 448 713Q551 713 616.50 666.50Q682 620 707 536Q732 452 714 341Q697 230 647.50 152Q598 74 522 33Q446-8 348-8Q246-8 181 38.50Q116 85 91 169Q66 253 83 364M147 354Q132 259 151 191Q170 123 221.50 85.50Q273 48 353 48Q476 48 552 128Q628 208 651 351Q666 445 646 514Q626 583 575 620Q524 657 444 657Q321 657 245.50 577.50Q170 498 147 354M319 765L440 896L502 896L600 765L556 765L468 856L363 765L319 765M359 921L321 924Q329 973 353 997.50Q377 1022 414 1022Q436 1022 453 1012.50Q470 1003 486 991Q500 982 512.50 974Q525 966 539 966Q562 966 574 979.50Q586 993 594 1024L633 1022Q624 973 601 948Q578 923 541 923Q519 923 501.50 933Q484 943 469 954Q455 964 442 972Q429 980 415 980Q393 980 380 966Q367 952 359 921Z"  horiz-adv-x="765" vert-adv-y="1000"  />

      
      <glyph glyph-name="uni020C" unicode="&#x020C;" d="M83 364Q101 476 150 554Q199 632 275 672.50Q351 713 448 713Q551 713 616.50 666.50Q682 620 707 536Q732 452 714 341Q697 230 647.50 152Q598 74 522 33Q446-8 348-8Q246-8 181 38.50Q116 85 91 169Q66 253 83 364M147 354Q132 259 151 191Q170 123 221.50 85.50Q273 48 353 48Q476 48 552 128Q628 208 651 351Q666 445 646 514Q626 583 575 620Q524 657 444 657Q321 657 245.50 577.50Q170 498 147 354M504 765L404 936L469 936L541 765L504 765M387 765L285 936L350 936L424 765L387 765Z"  horiz-adv-x="765" vert-adv-y="1000"  />

      
      <glyph glyph-name="unid6" unicode="&#xd6;" d="M83 364Q101 476 150 554Q199 632 275 672.50Q351 713 448 713Q551 713 616.50 666.50Q682 620 707 536Q732 452 714 341Q697 230 647.50 152Q598 74 522 33Q446-8 348-8Q246-8 181 38.50Q116 85 91 169Q66 253 83 364M147 354Q132 259 151 191Q170 123 221.50 85.50Q273 48 353 48Q476 48 552 128Q628 208 651 351Q666 445 646 514Q626 583 575 620Q524 657 444 657Q321 657 245.50 577.50Q170 498 147 354M518 813L530 886L603 886L591 813L518 813M351 813L363 886L436 886L424 813L351 813Z"  horiz-adv-x="765" vert-adv-y="1000"  />

      
      <glyph glyph-name="uni022A" unicode="&#x022A;" d="M83 364Q101 476 150 554Q199 632 275 672.50Q351 713 448 713Q551 713 616.50 666.50Q682 620 707 536Q732 452 714 341Q697 230 647.50 152Q598 74 522 33Q446-8 348-8Q246-8 181 38.50Q116 85 91 169Q66 253 83 364M147 354Q132 259 151 191Q170 123 221.50 85.50Q273 48 353 48Q476 48 552 128Q628 208 651 351Q666 445 646 514Q626 583 575 620Q524 657 444 657Q321 657 245.50 577.50Q170 498 147 354M345 926L352 973L640 973L633 926L345 926M349 802L360 868L433 868L422 802L349 802M516 802L527 868L601 868L590 802L516 802Z"  horiz-adv-x="765" vert-adv-y="1000"  />

      
      <glyph glyph-name="uni0230" unicode="&#x0230;" d="M83 364Q101 476 150 554Q199 632 275 672.50Q351 713 448 713Q551 713 616.50 666.50Q682 620 707 536Q732 452 714 341Q697 230 647.50 152Q598 74 522 33Q446-8 348-8Q246-8 181 38.50Q116 85 91 169Q66 253 83 364M147 354Q132 259 151 191Q170 123 221.50 85.50Q273 48 353 48Q476 48 552 128Q628 208 651 351Q666 445 646 514Q626 583 575 620Q524 657 444 657Q321 657 245.50 577.50Q170 498 147 354M345 926L352 973L640 973L633 926L345 926M433 802L444 868L517 868L506 802L433 802Z"  horiz-adv-x="765" vert-adv-y="1000"  />

      
      <glyph glyph-name="uni1ECC" unicode="&#x1ECC;" d="M83 364Q101 476 150 554Q199 632 275 672.50Q351 713 448 713Q551 713 616.50 666.50Q682 620 707 536Q732 452 714 341Q697 230 647.50 152Q598 74 522 33Q446-8 348-8Q246-8 181 38.50Q116 85 91 169Q66 253 83 364M147 354Q132 259 151 191Q170 123 221.50 85.50Q273 48 353 48Q476 48 552 128Q628 208 651 351Q666 445 646 514Q626 583 575 620Q524 657 444 657Q321 657 245.50 577.50Q170 498 147 354M275-179L287-104L364-104L352-179L275-179Z"  horiz-adv-x="765" vert-adv-y="1000"  />

      
      <glyph glyph-name="unid2" unicode="&#xd2;" d="M83 364Q101 476 150 554Q199 632 275 672.50Q351 713 448 713Q551 713 616.50 666.50Q682 620 707 536Q732 452 714 341Q697 230 647.50 152Q598 74 522 33Q446-8 348-8Q246-8 181 38.50Q116 85 91 169Q66 253 83 364M147 354Q132 259 151 191Q170 123 221.50 85.50Q273 48 353 48Q476 48 552 128Q628 208 651 351Q666 445 646 514Q626 583 575 620Q524 657 444 657Q321 657 245.50 577.50Q170 498 147 354M439 765L312 936L384 936L489 765L439 765Z"  horiz-adv-x="765" vert-adv-y="1000"  />

      
      <glyph glyph-name="uni1ECE" unicode="&#x1ECE;" d="M83 364Q101 476 150 554Q199 632 275 672.50Q351 713 448 713Q551 713 616.50 666.50Q682 620 707 536Q732 452 714 341Q697 230 647.50 152Q598 74 522 33Q446-8 348-8Q246-8 181 38.50Q116 85 91 169Q66 253 83 364M147 354Q132 259 151 191Q170 123 221.50 85.50Q273 48 353 48Q476 48 552 128Q628 208 651 351Q666 445 646 514Q626 583 575 620Q524 657 444 657Q321 657 245.50 577.50Q170 498 147 354M441 765L443 780Q446 802 458 815.50Q470 829 483.50 837.50Q497 846 507 855Q517 864 517 878Q517 888 505.50 894Q494 900 470 900Q455 900 439.50 896.50Q424 893 404 884L396 922Q433 941 483 941Q525 941 547.50 926Q570 911 570 885Q570 862 558.50 849Q547 836 531.50 827Q516 818 503.50 806.50Q491 795 489 775L488 765L441 765Z"  horiz-adv-x="765" vert-adv-y="1000"  />

      
      <glyph glyph-name="uni01A0" unicode="&#x01A0;" d="M83 364Q101 476 150 554Q199 632 275 672.50Q351 713 448 713Q551 713 616.50 666.50Q682 620 707 536Q732 452 714 341Q697 230 647.50 152Q598 74 522 33Q446-8 348-8Q246-8 181 38.50Q116 85 91 169Q66 253 83 364M147 354Q132 259 151 191Q170 123 221.50 85.50Q273 48 353 48Q476 48 552 128Q628 208 651 351Q666 445 646 514Q626 583 575 620Q524 657 444 657Q321 657 245.50 577.50Q170 498 147 354M550 661L506 709Q533 707 553 706Q573 705 594 705Q640 705 666 717.50Q692 730 706 756.50Q720 783 727 822L729 836L785 836L781 812Q774 764 753.50 730Q733 696 698.50 678.50Q664 661 615 661L550 661Z"  horiz-adv-x="765" vert-adv-y="1000"  />

      
      <glyph glyph-name="uni1EDA" unicode="&#x1EDA;" d="M83 364Q101 476 150 554Q199 632 275 672.50Q351 713 448 713Q551 713 616.50 666.50Q682 620 707 536Q732 452 714 341Q697 230 647.50 152Q598 74 522 33Q446-8 348-8Q246-8 181 38.50Q116 85 91 169Q66 253 83 364M147 354Q132 259 151 191Q170 123 221.50 85.50Q273 48 353 48Q476 48 552 128Q628 208 651 351Q666 445 646 514Q626 583 575 620Q524 657 444 657Q321 657 245.50 577.50Q170 498 147 354M550 661L506 709Q533 707 553 706Q573 705 594 705Q640 705 666 717.50Q692 730 706 756.50Q720 783 727 822L729 836L785 836L781 812Q774 764 753.50 730Q733 696 698.50 678.50Q664 661 615 661L550 661M447 765L578 936L652 936L497 765L447 765Z"  horiz-adv-x="765" vert-adv-y="1000"  />

      
      <glyph glyph-name="uni1EE2" unicode="&#x1EE2;" d="M83 364Q101 476 150 554Q199 632 275 672.50Q351 713 448 713Q551 713 616.50 666.50Q682 620 707 536Q732 452 714 341Q697 230 647.50 152Q598 74 522 33Q446-8 348-8Q246-8 181 38.50Q116 85 91 169Q66 253 83 364M147 354Q132 259 151 191Q170 123 221.50 85.50Q273 48 353 48Q476 48 552 128Q628 208 651 351Q666 445 646 514Q626 583 575 620Q524 657 444 657Q321 657 245.50 577.50Q170 498 147 354M550 661L506 709Q533 707 553 706Q573 705 594 705Q640 705 666 717.50Q692 730 706 756.50Q720 783 727 822L729 836L785 836L781 812Q774 764 753.50 730Q733 696 698.50 678.50Q664 661 615 661L550 661M284-179L296-104L373-104L361-179L284-179Z"  horiz-adv-x="765" vert-adv-y="1000"  />

      
      <glyph glyph-name="uni1EDC" unicode="&#x1EDC;" d="M83 364Q101 476 150 554Q199 632 275 672.50Q351 713 448 713Q551 713 616.50 666.50Q682 620 707 536Q732 452 714 341Q697 230 647.50 152Q598 74 522 33Q446-8 348-8Q246-8 181 38.50Q116 85 91 169Q66 253 83 364M147 354Q132 259 151 191Q170 123 221.50 85.50Q273 48 353 48Q476 48 552 128Q628 208 651 351Q666 445 646 514Q626 583 575 620Q524 657 444 657Q321 657 245.50 577.50Q170 498 147 354M550 661L506 709Q533 707 553 706Q573 705 594 705Q640 705 666 717.50Q692 730 706 756.50Q720 783 727 822L729 836L785 836L781 812Q774 764 753.50 730Q733 696 698.50 678.50Q664 661 615 661L550 661M447 765L320 936L392 936L497 765L447 765Z"  horiz-adv-x="765" vert-adv-y="1000"  />

      
      <glyph glyph-name="uni1EDE" unicode="&#x1EDE;" d="M83 364Q101 476 150 554Q199 632 275 672.50Q351 713 448 713Q551 713 616.50 666.50Q682 620 707 536Q732 452 714 341Q697 230 647.50 152Q598 74 522 33Q446-8 348-8Q246-8 181 38.50Q116 85 91 169Q66 253 83 364M147 354Q132 259 151 191Q170 123 221.50 85.50Q273 48 353 48Q476 48 552 128Q628 208 651 351Q666 445 646 514Q626 583 575 620Q524 657 444 657Q321 657 245.50 577.50Q170 498 147 354M550 661L506 709Q533 707 553 706Q573 705 594 705Q640 705 666 717.50Q692 730 706 756.50Q720 783 727 822L729 836L785 836L781 812Q774 764 753.50 730Q733 696 698.50 678.50Q664 661 615 661L550 661M449 765L451 780Q454 802 466 815.50Q478 829 491.50 837.50Q505 846 515 855Q525 864 525 878Q525 888 513.50 894Q502 900 478 900Q463 900 447.50 896.50Q432 893 412 884L404 922Q441 941 491 941Q533 941 555.50 926Q578 911 578 885Q578 862 566.50 849Q555 836 539.50 827Q524 818 511.50 806.50Q499 795 497 775L496 765L449 765Z"  horiz-adv-x="765" vert-adv-y="1000"  />

      
      <glyph glyph-name="uni1EE0" unicode="&#x1EE0;" d="M83 364Q101 476 150 554Q199 632 275 672.50Q351 713 448 713Q551 713 616.50 666.50Q682 620 707 536Q732 452 714 341Q697 230 647.50 152Q598 74 522 33Q446-8 348-8Q246-8 181 38.50Q116 85 91 169Q66 253 83 364M147 354Q132 259 151 191Q170 123 221.50 85.50Q273 48 353 48Q476 48 552 128Q628 208 651 351Q666 445 646 514Q626 583 575 620Q524 657 444 657Q321 657 245.50 577.50Q170 498 147 354M550 661L506 709Q533 707 553 706Q573 705 594 705Q640 705 666 717.50Q692 730 706 756.50Q720 783 727 822L729 836L785 836L781 812Q774 764 753.50 730Q733 696 698.50 678.50Q664 661 615 661L550 661M331 787L292 790Q303 851 334 884Q365 917 411 917Q440 917 459.50 903Q479 889 496 873Q511 858 525.50 847Q540 836 559 836Q617 836 637 920L676 917Q665 856 634.50 823Q604 790 558 790Q529 790 508.50 804Q488 818 471 835Q456 849 441 860Q426 871 408 871Q350 871 331 787Z"  horiz-adv-x="765" vert-adv-y="1000"  />

      
      <glyph glyph-name="uni0150" unicode="&#x0150;" d="M83 364Q101 476 150 554Q199 632 275 672.50Q351 713 448 713Q551 713 616.50 666.50Q682 620 707 536Q732 452 714 341Q697 230 647.50 152Q598 74 522 33Q446-8 348-8Q246-8 181 38.50Q116 85 91 169Q66 253 83 364M147 354Q132 259 151 191Q170 123 221.50 85.50Q273 48 353 48Q476 48 552 128Q628 208 651 351Q666 445 646 514Q626 583 575 620Q524 657 444 657Q321 657 245.50 577.50Q170 498 147 354M387 765L487 936L553 936L424 765L387 765M504 765L606 936L672 936L541 765L504 765Z"  horiz-adv-x="765" vert-adv-y="1000"  />

      
      <glyph glyph-name="uni020E" unicode="&#x020E;" d="M83 364Q101 476 150 554Q199 632 275 672.50Q351 713 448 713Q551 713 616.50 666.50Q682 620 707 536Q732 452 714 341Q697 230 647.50 152Q598 74 522 33Q446-8 348-8Q246-8 181 38.50Q116 85 91 169Q66 253 83 364M147 354Q132 259 151 191Q170 123 221.50 85.50Q273 48 353 48Q476 48 552 128Q628 208 651 351Q666 445 646 514Q626 583 575 620Q524 657 444 657Q321 657 245.50 577.50Q170 498 147 354M337 760L295 765Q308 843 356.50 888Q405 933 472 933Q517 933 551 912.50Q585 892 604 854.50Q623 817 621 765L579 760Q582 822 551.50 855Q521 888 469 888Q417 888 382 855Q347 822 337 760Z"  horiz-adv-x="765" vert-adv-y="1000"  />

      
      <glyph glyph-name="uni014C" unicode="&#x014C;" d="M83 364Q101 476 150 554Q199 632 275 672.50Q351 713 448 713Q551 713 616.50 666.50Q682 620 707 536Q732 452 714 341Q697 230 647.50 152Q598 74 522 33Q446-8 348-8Q246-8 181 38.50Q116 85 91 169Q66 253 83 364M147 354Q132 259 151 191Q170 123 221.50 85.50Q273 48 353 48Q476 48 552 128Q628 208 651 351Q666 445 646 514Q626 583 575 620Q524 657 444 657Q321 657 245.50 577.50Q170 498 147 354M313 818L321 865L639 865L631 818L313 818Z"  horiz-adv-x="765" vert-adv-y="1000"  />

      
      <glyph glyph-name="uni1E52" unicode="&#x1E52;" d="M83 364Q101 476 150 554Q199 632 275 672.50Q351 713 448 713Q551 713 616.50 666.50Q682 620 707 536Q732 452 714 341Q697 230 647.50 152Q598 74 522 33Q446-8 348-8Q246-8 181 38.50Q116 85 91 169Q66 253 83 364M147 354Q132 259 151 191Q170 123 221.50 85.50Q273 48 353 48Q476 48 552 128Q628 208 651 351Q666 445 646 514Q626 583 575 620Q524 657 444 657Q321 657 245.50 577.50Q170 498 147 354M323 793L331 839L619 839L612 793L323 793M458 876L563 1022L633 1022L504 876L458 876Z"  horiz-adv-x="765" vert-adv-y="1000"  />

      
      <glyph glyph-name="uni1E50" unicode="&#x1E50;" d="M83 364Q101 476 150 554Q199 632 275 672.50Q351 713 448 713Q551 713 616.50 666.50Q682 620 707 536Q732 452 714 341Q697 230 647.50 152Q598 74 522 33Q446-8 348-8Q246-8 181 38.50Q116 85 91 169Q66 253 83 364M147 354Q132 259 151 191Q170 123 221.50 85.50Q273 48 353 48Q476 48 552 128Q628 208 651 351Q666 445 646 514Q626 583 575 620Q524 657 444 657Q321 657 245.50 577.50Q170 498 147 354M458 876L356 1022L424 1022L504 876L458 876M324 793L331 839L619 839L612 793L324 793Z"  horiz-adv-x="765" vert-adv-y="1000"  />

      
      <glyph glyph-name="uni01EA" unicode="&#x01EA;" d="M83 364Q101 476 150 554Q199 632 275 672.50Q351 713 448 713Q551 713 616.50 666.50Q682 620 707 536Q732 452 714 341Q697 230 647.50 152Q598 74 522 33Q446-8 348-8Q246-8 181 38.50Q116 85 91 169Q66 253 83 364M147 354Q132 259 151 191Q170 123 221.50 85.50Q273 48 353 48Q476 48 552 128Q628 208 651 351Q666 445 646 514Q626 583 575 620Q524 657 444 657Q321 657 245.50 577.50Q170 498 147 354M369-191Q325-191 301-166.50Q277-142 277-103Q277-58 306-21.50Q335 15 380 34L402 0Q363-16 344-41.50Q325-67 325-95Q325-119 338.50-133.50Q352-148 379-148Q391-148 404.50-145Q418-142 433-136L443-176Q429-181 409.50-186Q390-191 369-191Z"  horiz-adv-x="765" vert-adv-y="1000"  />

      
      <glyph glyph-name="unid8" unicode="&#xd8;" d="M83 364Q101 476 150 554Q199 632 275 672.50Q351 713 448 713Q551 713 616.50 666.50Q682 620 707 536Q732 452 714 341Q697 230 647.50 152Q598 74 522 33Q446-8 348-8Q246-8 181 38.50Q116 85 91 169Q66 253 83 364M147 354Q132 259 151 191Q170 123 221.50 85.50Q273 48 353 48Q476 48 552 128Q628 208 651 351Q666 445 646 514Q626 583 575 620Q524 657 444 657Q321 657 245.50 577.50Q170 498 147 354M211 56L148-29L107 0L170 86L194 115L569 620L588 650L652 734L693 705L629 620L606 590L231 85L211 56Z"  horiz-adv-x="765" vert-adv-y="1000"  />

      
      <glyph glyph-name="uni01FE" unicode="&#x01FE;" d="M83 364Q101 476 150 554Q199 632 275 672.50Q351 713 448 713Q551 713 616.50 666.50Q682 620 707 536Q732 452 714 341Q697 230 647.50 152Q598 74 522 33Q446-8 348-8Q246-8 181 38.50Q116 85 91 169Q66 253 83 364M147 354Q132 259 151 191Q170 123 221.50 85.50Q273 48 353 48Q476 48 552 128Q628 208 651 351Q666 445 646 514Q626 583 575 620Q524 657 444 657Q321 657 245.50 577.50Q170 498 147 354M211 56L148-29L107 0L170 86L194 115L569 620L588 650L652 734L693 705L629 620L606 590L231 85L211 56M439 765L570 936L644 936L489 765L439 765Z"  horiz-adv-x="765" vert-adv-y="1000"  />

      
      <glyph glyph-name="unid5" unicode="&#xd5;" d="M83 364Q101 476 150 554Q199 632 275 672.50Q351 713 448 713Q551 713 616.50 666.50Q682 620 707 536Q732 452 714 341Q697 230 647.50 152Q598 74 522 33Q446-8 348-8Q246-8 181 38.50Q116 85 91 169Q66 253 83 364M147 354Q132 259 151 191Q170 123 221.50 85.50Q273 48 353 48Q476 48 552 128Q628 208 651 351Q666 445 646 514Q626 583 575 620Q524 657 444 657Q321 657 245.50 577.50Q170 498 147 354M300 787L261 790Q272 851 303.50 884Q335 917 381 917Q411 917 436 903Q461 889 484 872Q504 858 522 847Q540 836 559 836Q617 836 637 920L676 917Q665 856 634 823Q603 790 557 790Q527 790 501.50 804.50Q476 819 453 835Q434 849 415 860Q396 871 378 871Q320 871 300 787Z"  horiz-adv-x="765" vert-adv-y="1000"  />

      
      <glyph glyph-name="uni1E4C" unicode="&#x1E4C;" d="M83 364Q101 476 150 554Q199 632 275 672.50Q351 713 448 713Q551 713 616.50 666.50Q682 620 707 536Q732 452 714 341Q697 230 647.50 152Q598 74 522 33Q446-8 348-8Q246-8 181 38.50Q116 85 91 169Q66 253 83 364M147 354Q132 259 151 191Q170 123 221.50 85.50Q273 48 353 48Q476 48 552 128Q628 208 651 351Q666 445 646 514Q626 583 575 620Q524 657 444 657Q321 657 245.50 577.50Q170 498 147 354M458 876L563 1022L633 1022L504 876L458 876M536 768Q515 768 497.50 778Q480 788 464 798Q450 808 436.50 816Q423 824 408 824Q386 824 373 810.50Q360 797 353 766L314 768Q322 818 348 842.50Q374 867 410 867Q431 867 448 857.50Q465 848 481 837Q495 827 509 819Q523 811 537 811Q560 811 572.50 824.50Q585 838 592 869L631 867Q623 817 597.50 792.50Q572 768 536 768Z"  horiz-adv-x="765" vert-adv-y="1000"  />

      
      <glyph glyph-name="uni1E4E" unicode="&#x1E4E;" d="M83 364Q101 476 150 554Q199 632 275 672.50Q351 713 448 713Q551 713 616.50 666.50Q682 620 707 536Q732 452 714 341Q697 230 647.50 152Q598 74 522 33Q446-8 348-8Q246-8 181 38.50Q116 85 91 169Q66 253 83 364M147 354Q132 259 151 191Q170 123 221.50 85.50Q273 48 353 48Q476 48 552 128Q628 208 651 351Q666 445 646 514Q626 583 575 620Q524 657 444 657Q321 657 245.50 577.50Q170 498 147 354M536 768Q515 768 497.50 778Q480 788 464 798Q450 808 436.50 816Q423 824 408 824Q386 824 373 810.50Q360 797 353 766L314 768Q322 818 348 842.50Q374 867 410 867Q431 867 448 857.50Q465 848 481 837Q495 827 509 819Q523 811 537 811Q560 811 572.50 824.50Q585 838 592 869L631 867Q623 817 597.50 792.50Q572 768 536 768M366 911L377 977L450 977L439 911L366 911M533 911L544 977L618 977L607 911L533 911Z"  horiz-adv-x="765" vert-adv-y="1000"  />

      
      <glyph glyph-name="uni022C" unicode="&#x022C;" d="M83 364Q101 476 150 554Q199 632 275 672.50Q351 713 448 713Q551 713 616.50 666.50Q682 620 707 536Q732 452 714 341Q697 230 647.50 152Q598 74 522 33Q446-8 348-8Q246-8 181 38.50Q116 85 91 169Q66 253 83 364M147 354Q132 259 151 191Q170 123 221.50 85.50Q273 48 353 48Q476 48 552 128Q628 208 651 351Q666 445 646 514Q626 583 575 620Q524 657 444 657Q321 657 245.50 577.50Q170 498 147 354M345 926L352 973L640 973L633 926L345 926M536 768Q515 768 497.50 778Q480 788 464 798Q450 808 436.50 816Q423 824 408 824Q386 824 373 810.50Q360 797 353 766L314 768Q322 818 348 842.50Q374 867 410 867Q431 867 448 857.50Q465 848 481 837Q495 827 509 819Q523 811 537 811Q560 811 572.50 824.50Q585 838 592 869L631 867Q623 817 597.50 792.50Q572 768 536 768Z"  horiz-adv-x="765" vert-adv-y="1000"  />

      
      <glyph glyph-name="uni0152" unicode="&#x0152;" d="M526 0L638 705L1075 705L1066 652L689 652L648 384L1004 384L995 331L639 331L595 53L971 53L963 0L526 0M343-8Q241-8 177 38.50Q113 85 89.50 169Q66 253 83 364Q101 476 149.50 554Q198 632 273.50 672.50Q349 713 445 713Q509 713 561 692.50Q613 672 645 628L633 552Q608 602 559.50 629.50Q511 657 444 657Q321 657 245 577.50Q169 498 147 354Q132 261 149.50 192Q167 123 218 85.50Q269 48 350 48Q419 48 474 74.50Q529 101 569 151L557 71Q513 31 460 11.50Q407-8 343-8Z"  horiz-adv-x="1057" vert-adv-y="1000"  />

      
      <glyph glyph-name="uni50" unicode="&#x50;" d="M53 0L165 705L432 705Q545 705 597.50 650Q650 595 633 496Q624 436 591 394Q558 352 505.50 330.50Q453 309 385 309L163 309L115 0L53 0M172 363L379 363Q463 363 511.50 397.50Q560 432 571 502Q583 575 546 613.50Q509 652 425 652L217 652L172 363Z"  horiz-adv-x="644" vert-adv-y="1000"  />

      
      <glyph glyph-name="unide" unicode="&#xde;" d="M53 0L165 705L227 705L204 564L410 564Q523 564 575 509Q627 454 611 356Q602 295 569 253Q536 211 483.50 190Q431 169 363 169L141 169L115 0L53 0M149 222L357 222Q440 222 489 256.50Q538 291 549 361Q561 435 524 473Q487 511 403 511L195 511L149 222Z"  horiz-adv-x="645" vert-adv-y="1000"  />

      
      <glyph glyph-name="uni51" unicode="&#x51;" d="M504-191Q478-172 452.50-141Q427-110 405.50-73.50Q384-37 370 0L433 19Q451-33 484-76Q517-119 553-150L504-191M83 364Q101 476 150 554Q199 632 275 672.50Q351 713 448 713Q551 713 616.50 666.50Q682 620 707 536Q732 452 714 341Q697 230 647.50 152Q598 74 522 33Q446-8 348-8Q246-8 181 38.50Q116 85 91 169Q66 253 83 364M147 354Q132 259 151 191Q170 123 221.50 85.50Q273 48 353 48Q476 48 552 128Q628 208 651 351Q666 445 646 514Q626 583 575 620Q524 657 444 657Q321 657 245.50 577.50Q170 498 147 354Z"  horiz-adv-x="765" vert-adv-y="1000"  />

      
      <glyph glyph-name="uni52" unicode="&#x52;" d="M53 0L165 705L437 705Q550 705 602.50 651Q655 597 640 500Q631 443 597.50 402.50Q564 362 512.50 341Q461 320 399 320L406 331L419 331Q460 331 487.50 311Q515 291 529 245L601 0L535 0L468 234Q454 284 421 299Q388 314 332 314L164 314L115 0L53 0M172 366L391 366Q471 366 519 402.50Q567 439 577 504Q589 577 550 614.50Q511 652 426 652L217 652L172 366Z"  horiz-adv-x="688" vert-adv-y="1000"  />

      
      <glyph glyph-name="uni0154" unicode="&#x0154;" d="M53 0L165 705L437 705Q550 705 602.50 651Q655 597 640 500Q631 443 597.50 402.50Q564 362 512.50 341Q461 320 399 320L406 331L419 331Q460 331 487.50 311Q515 291 529 245L601 0L535 0L468 234Q454 284 421 299Q388 314 332 314L164 314L115 0L53 0M172 366L391 366Q471 366 519 402.50Q567 439 577 504Q589 577 550 614.50Q511 652 426 652L217 652L172 366M399 765L530 936L604 936L449 765L399 765Z"  horiz-adv-x="688" vert-adv-y="1000"  />

      
      <glyph glyph-name="uni0158" unicode="&#x0158;" d="M53 0L165 705L437 705Q550 705 602.50 651Q655 597 640 500Q631 443 597.50 402.50Q564 362 512.50 341Q461 320 399 320L406 331L419 331Q460 331 487.50 311Q515 291 529 245L601 0L535 0L468 234Q454 284 421 299Q388 314 332 314L164 314L115 0L53 0M172 366L391 366Q471 366 519 402.50Q567 439 577 504Q589 577 550 614.50Q511 652 426 652L217 652L172 366M393 765L288 936L336 936L424 810L544 936L594 936L454 765L393 765Z"  horiz-adv-x="688" vert-adv-y="1000"  />

      
      <glyph glyph-name="uni0156" unicode="&#x0156;" d="M53 0L165 705L437 705Q550 705 602.50 651Q655 597 640 500Q631 443 597.50 402.50Q564 362 512.50 341Q461 320 399 320L406 331L419 331Q460 331 487.50 311Q515 291 529 245L601 0L535 0L468 234Q454 284 421 299Q388 314 332 314L164 314L115 0L53 0M172 366L391 366Q471 366 519 402.50Q567 439 577 504Q589 577 550 614.50Q511 652 426 652L217 652L172 366M254-263L230-238Q257-216 265.50-195.50Q274-175 278-148L294-156L234-156L247-83L331-83L320-147Q314-185 299-213.50Q284-242 254-263Z"  horiz-adv-x="688" vert-adv-y="1000"  />

      
      <glyph glyph-name="uni0210" unicode="&#x0210;" d="M53 0L165 705L437 705Q550 705 602.50 651Q655 597 640 500Q631 443 597.50 402.50Q564 362 512.50 341Q461 320 399 320L406 331L419 331Q460 331 487.50 311Q515 291 529 245L601 0L535 0L468 234Q454 284 421 299Q388 314 332 314L164 314L115 0L53 0M172 366L391 366Q471 366 519 402.50Q567 439 577 504Q589 577 550 614.50Q511 652 426 652L217 652L172 366M464 765L364 936L429 936L501 765L464 765M347 765L245 936L310 936L384 765L347 765Z"  horiz-adv-x="688" vert-adv-y="1000"  />

      
      <glyph glyph-name="uni1E5A" unicode="&#x1E5A;" d="M53 0L165 705L437 705Q550 705 602.50 651Q655 597 640 500Q631 443 597.50 402.50Q564 362 512.50 341Q461 320 399 320L406 331L419 331Q460 331 487.50 311Q515 291 529 245L601 0L535 0L468 234Q454 284 421 299Q388 314 332 314L164 314L115 0L53 0M172 366L391 366Q471 366 519 402.50Q567 439 577 504Q589 577 550 614.50Q511 652 426 652L217 652L172 366M235-179L247-104L324-104L312-179L235-179Z"  horiz-adv-x="688" vert-adv-y="1000"  />

      
      <glyph glyph-name="uni0212" unicode="&#x0212;" d="M53 0L165 705L437 705Q550 705 602.50 651Q655 597 640 500Q631 443 597.50 402.50Q564 362 512.50 341Q461 320 399 320L406 331L419 331Q460 331 487.50 311Q515 291 529 245L601 0L535 0L468 234Q454 284 421 299Q388 314 332 314L164 314L115 0L53 0M172 366L391 366Q471 366 519 402.50Q567 439 577 504Q589 577 550 614.50Q511 652 426 652L217 652L172 366M296 760L254 765Q267 843 315.50 888Q364 933 431 933Q476 933 510 912.50Q544 892 563 854.50Q582 817 580 765L538 760Q541 822 510.50 855Q480 888 428 888Q376 888 341 855Q306 822 296 760Z"  horiz-adv-x="688" vert-adv-y="1000"  />

      
      <glyph glyph-name="uni1E5E" unicode="&#x1E5E;" d="M53 0L165 705L437 705Q550 705 602.50 651Q655 597 640 500Q631 443 597.50 402.50Q564 362 512.50 341Q461 320 399 320L406 331L419 331Q460 331 487.50 311Q515 291 529 245L601 0L535 0L468 234Q454 284 421 299Q388 314 332 314L164 314L115 0L53 0M172 366L391 366Q471 366 519 402.50Q567 439 577 504Q589 577 550 614.50Q511 652 426 652L217 652L172 366M134-152L142-106L430-106L422-152L134-152Z"  horiz-adv-x="688" vert-adv-y="1000"  />

      
      <glyph glyph-name="uni53" unicode="&#x53;" d="M283-8Q197-8 133 13Q69 34 25 65L54 116Q104 84 156 66Q208 48 285 48Q377 48 429 84Q481 120 490 178Q499 232 470.50 264.50Q442 297 365 307L275 320Q176 334 134 386Q92 438 105 518Q114 575 150.50 619Q187 663 247 688Q307 713 385 713Q458 713 515.50 691.50Q573 670 610 637L583 586Q542 621 493.50 639Q445 657 379 657Q290 657 233.50 618Q177 579 167 515Q158 456 186.50 421.50Q215 387 293 376L383 363Q483 350 524 303Q565 256 552 174Q544 122 508.50 80.50Q473 39 415.50 15.50Q358-8 283-8Z"  horiz-adv-x="613" vert-adv-y="1000"  />

      
      <glyph glyph-name="uni015A" unicode="&#x015A;" d="M283-8Q197-8 133 13Q69 34 25 65L54 116Q104 84 156 66Q208 48 285 48Q377 48 429 84Q481 120 490 178Q499 232 470.50 264.50Q442 297 365 307L275 320Q176 334 134 386Q92 438 105 518Q114 575 150.50 619Q187 663 247 688Q307 713 385 713Q458 713 515.50 691.50Q573 670 610 637L583 586Q542 621 493.50 639Q445 657 379 657Q290 657 233.50 618Q177 579 167 515Q158 456 186.50 421.50Q215 387 293 376L383 363Q483 350 524 303Q565 256 552 174Q544 122 508.50 80.50Q473 39 415.50 15.50Q358-8 283-8M374 765L505 936L579 936L424 765L374 765Z"  horiz-adv-x="613" vert-adv-y="1000"  />

      
      <glyph glyph-name="uni1E64" unicode="&#x1E64;" d="M283-8Q197-8 133 13Q69 34 25 65L54 116Q104 84 156 66Q208 48 285 48Q377 48 429 84Q481 120 490 178Q499 232 470.50 264.50Q442 297 365 307L275 320Q176 334 134 386Q92 438 105 518Q114 575 150.50 619Q187 663 247 688Q307 713 385 713Q458 713 515.50 691.50Q573 670 610 637L583 586Q542 621 493.50 639Q445 657 379 657Q290 657 233.50 618Q177 579 167 515Q158 456 186.50 421.50Q215 387 293 376L383 363Q483 350 524 303Q565 256 552 174Q544 122 508.50 80.50Q473 39 415.50 15.50Q358-8 283-8M350 973L360 1039L434 1039L424 973L350 973M376 765L500 966L571 966L423 765L376 765Z"  horiz-adv-x="613" vert-adv-y="1000"  />

      
      <glyph glyph-name="uni0160" unicode="&#x0160;" d="M283-8Q197-8 133 13Q69 34 25 65L54 116Q104 84 156 66Q208 48 285 48Q377 48 429 84Q481 120 490 178Q499 232 470.50 264.50Q442 297 365 307L275 320Q176 334 134 386Q92 438 105 518Q114 575 150.50 619Q187 663 247 688Q307 713 385 713Q458 713 515.50 691.50Q573 670 610 637L583 586Q542 621 493.50 639Q445 657 379 657Q290 657 233.50 618Q177 579 167 515Q158 456 186.50 421.50Q215 387 293 376L383 363Q483 350 524 303Q565 256 552 174Q544 122 508.50 80.50Q473 39 415.50 15.50Q358-8 283-8M369 765L264 936L312 936L400 810L520 936L570 936L430 765L369 765Z"  horiz-adv-x="613" vert-adv-y="1000"  />

      
      <glyph glyph-name="uni1E66" unicode="&#x1E66;" d="M283-8Q197-8 133 13Q69 34 25 65L54 116Q104 84 156 66Q208 48 285 48Q377 48 429 84Q481 120 490 178Q499 232 470.50 264.50Q442 297 365 307L275 320Q176 334 134 386Q92 438 105 518Q114 575 150.50 619Q187 663 247 688Q307 713 385 713Q458 713 515.50 691.50Q573 670 610 637L583 586Q542 621 493.50 639Q445 657 379 657Q290 657 233.50 618Q177 579 167 515Q158 456 186.50 421.50Q215 387 293 376L383 363Q483 350 524 303Q565 256 552 174Q544 122 508.50 80.50Q473 39 415.50 15.50Q358-8 283-8M368 765L272 925L318 925L402 811L508 925L553 925L430 765L368 765M389 973L399 1039L472 1039L462 973L389 973Z"  horiz-adv-x="613" vert-adv-y="1000"  />

      
      <glyph glyph-name="uni015E" unicode="&#x015E;" d="M283-8Q197-8 133 13Q69 34 25 65L54 116Q104 84 156 66Q208 48 285 48Q377 48 429 84Q481 120 490 178Q499 232 470.50 264.50Q442 297 365 307L275 320Q176 334 134 386Q92 438 105 518Q114 575 150.50 619Q187 663 247 688Q307 713 385 713Q458 713 515.50 691.50Q573 670 610 637L583 586Q542 621 493.50 639Q445 657 379 657Q290 657 233.50 618Q177 579 167 515Q158 456 186.50 421.50Q215 387 293 376L383 363Q483 350 524 303Q565 256 552 174Q544 122 508.50 80.50Q473 39 415.50 15.50Q358-8 283-8M263-191Q238-191 216.50-186Q195-181 180-172L195-133Q213-142 228.50-146Q244-150 267-150Q295-150 313-139Q331-128 331-108Q331-95 322-87.50Q313-80 296-80Q286-80 274.50-81.50Q263-83 246-89L232-75L262 20L306 20L282-55L261-51Q273-48 285-46Q297-44 307-44Q338-44 358.50-60Q379-76 379-105Q379-143 346-167Q313-191 263-191Z"  horiz-adv-x="613" vert-adv-y="1000"  />

      
      <glyph glyph-name="uni015C" unicode="&#x015C;" d="M283-8Q197-8 133 13Q69 34 25 65L54 116Q104 84 156 66Q208 48 285 48Q377 48 429 84Q481 120 490 178Q499 232 470.50 264.50Q442 297 365 307L275 320Q176 334 134 386Q92 438 105 518Q114 575 150.50 619Q187 663 247 688Q307 713 385 713Q458 713 515.50 691.50Q573 670 610 637L583 586Q542 621 493.50 639Q445 657 379 657Q290 657 233.50 618Q177 579 167 515Q158 456 186.50 421.50Q215 387 293 376L383 363Q483 350 524 303Q565 256 552 174Q544 122 508.50 80.50Q473 39 415.50 15.50Q358-8 283-8M238 765L378 936L440 936L544 765L495 765L406 891L287 765L238 765Z"  horiz-adv-x="613" vert-adv-y="1000"  />

      
      <glyph glyph-name="uni0218" unicode="&#x0218;" d="M283-8Q197-8 133 13Q69 34 25 65L54 116Q104 84 156 66Q208 48 285 48Q377 48 429 84Q481 120 490 178Q499 232 470.50 264.50Q442 297 365 307L275 320Q176 334 134 386Q92 438 105 518Q114 575 150.50 619Q187 663 247 688Q307 713 385 713Q458 713 515.50 691.50Q573 670 610 637L583 586Q542 621 493.50 639Q445 657 379 657Q290 657 233.50 618Q177 579 167 515Q158 456 186.50 421.50Q215 387 293 376L383 363Q483 350 524 303Q565 256 552 174Q544 122 508.50 80.50Q473 39 415.50 15.50Q358-8 283-8M234-263L210-238Q237-216 245.50-195.50Q254-175 258-148L274-156L214-156L227-83L311-83L300-147Q294-185 279-213.50Q264-242 234-263Z"  horiz-adv-x="613" vert-adv-y="1000"  />

      
      <glyph glyph-name="uni1E60" unicode="&#x1E60;" d="M283-8Q197-8 133 13Q69 34 25 65L54 116Q104 84 156 66Q208 48 285 48Q377 48 429 84Q481 120 490 178Q499 232 470.50 264.50Q442 297 365 307L275 320Q176 334 134 386Q92 438 105 518Q114 575 150.50 619Q187 663 247 688Q307 713 385 713Q458 713 515.50 691.50Q573 670 610 637L583 586Q542 621 493.50 639Q445 657 379 657Q290 657 233.50 618Q177 579 167 515Q158 456 186.50 421.50Q215 387 293 376L383 363Q483 350 524 303Q565 256 552 174Q544 122 508.50 80.50Q473 39 415.50 15.50Q358-8 283-8M368 813L380 888L456 888L444 813L368 813Z"  horiz-adv-x="613" vert-adv-y="1000"  />

      
      <glyph glyph-name="uni1E62" unicode="&#x1E62;" d="M283-8Q197-8 133 13Q69 34 25 65L54 116Q104 84 156 66Q208 48 285 48Q377 48 429 84Q481 120 490 178Q499 232 470.50 264.50Q442 297 365 307L275 320Q176 334 134 386Q92 438 105 518Q114 575 150.50 619Q187 663 247 688Q307 713 385 713Q458 713 515.50 691.50Q573 670 610 637L583 586Q542 621 493.50 639Q445 657 379 657Q290 657 233.50 618Q177 579 167 515Q158 456 186.50 421.50Q215 387 293 376L383 363Q483 350 524 303Q565 256 552 174Q544 122 508.50 80.50Q473 39 415.50 15.50Q358-8 283-8M215-179L227-104L304-104L292-179L215-179Z"  horiz-adv-x="613" vert-adv-y="1000"  />

      
      <glyph glyph-name="uni1E68" unicode="&#x1E68;" d="M283-8Q197-8 133 13Q69 34 25 65L54 116Q104 84 156 66Q208 48 285 48Q377 48 429 84Q481 120 490 178Q499 232 470.50 264.50Q442 297 365 307L275 320Q176 334 134 386Q92 438 105 518Q114 575 150.50 619Q187 663 247 688Q307 713 385 713Q458 713 515.50 691.50Q573 670 610 637L583 586Q542 621 493.50 639Q445 657 379 657Q290 657 233.50 618Q177 579 167 515Q158 456 186.50 421.50Q215 387 293 376L383 363Q483 350 524 303Q565 256 552 174Q544 122 508.50 80.50Q473 39 415.50 15.50Q358-8 283-8M215-179L227-104L304-104L292-179L215-179M368 813L380 888L456 888L444 813L368 813Z"  horiz-adv-x="613" vert-adv-y="1000"  />

      
      <glyph glyph-name="uni1E9E" unicode="&#x1E9E;" d="M365-8Q308-8 261 7.50Q214 23 181 52L211 98Q245 71 281.50 58.50Q318 46 364 46Q444 46 492 82Q540 118 549 180Q561 255 523.50 291.50Q486 328 398 328L261 328L269 381L376 381Q454 381 504 416.50Q554 452 564 520Q575 588 538.50 623.50Q502 659 415 659Q307 659 254.50 609.50Q202 560 186 459L113 0L53 0L126 465Q146 591 218 652Q290 713 418 713Q532 713 586.50 662Q641 611 627 518Q621 479 598.50 444.50Q576 410 542 385.50Q508 361 465 352L467 366Q544 356 584.50 308Q625 260 611 169Q598 88 532.50 40Q467-8 365-8Z"  horiz-adv-x="689" vert-adv-y="1000"  />

      
      <glyph glyph-name="uni018F" unicode="&#x018F;" d="M333-8Q227-8 165.50 36.50Q104 81 84 162Q64 243 80 351L86 382L644 382L635 329L124 329L144 353Q130 254 142 186Q154 118 201 82.50Q248 47 336 47Q454 47 529.50 125.50Q605 204 629 352Q652 498 596.50 577.50Q541 657 411 657Q337 657 282 638Q227 619 169 575L145 624Q202 669 267.50 691Q333 713 416 713Q522 713 590 669Q658 625 684.50 542Q711 459 693 343Q676 235 627.50 156Q579 77 504.50 34.50Q430-8 333-8Z"  horiz-adv-x="743" vert-adv-y="1000"  />

      
      <glyph glyph-name="uni54" unicode="&#x54;" d="M226 0L328 651L73 651L82 705L655 705L646 651L390 651L288 0L226 0Z"  horiz-adv-x="597" vert-adv-y="1000"  />

      
      <glyph glyph-name="uni0166" unicode="&#x0166;" d="M226 0L328 651L73 651L82 705L655 705L646 651L390 651L288 0L226 0M136 333L144 383L494 383L486 333L136 333Z"  horiz-adv-x="597" vert-adv-y="1000"  />

      
      <glyph glyph-name="uni0164" unicode="&#x0164;" d="M226 0L328 651L73 651L82 705L655 705L646 651L390 651L288 0L226 0M350 765L245 936L293 936L381 810L501 936L551 936L411 765L350 765Z"  horiz-adv-x="597" vert-adv-y="1000"  />

      
      <glyph glyph-name="uni0162" unicode="&#x0162;" d="M226 0L328 651L73 651L82 705L655 705L646 651L390 651L288 0L226 0M240-191Q215-191 193.50-186Q172-181 157-172L172-133Q190-142 205.50-146Q221-150 244-150Q272-150 290-139Q308-128 308-108Q308-95 299-87.50Q290-80 273-80Q263-80 251.50-81.50Q240-83 223-89L209-75L239 20L283 20L259-55L238-51Q250-48 262-46Q274-44 284-44Q315-44 335.50-60Q356-76 356-105Q356-143 323-167Q290-191 240-191Z"  horiz-adv-x="597" vert-adv-y="1000"  />

      
      <glyph glyph-name="uni021A" unicode="&#x021A;" d="M226 0L328 651L73 651L82 705L655 705L646 651L390 651L288 0L226 0M211-263L187-238Q214-216 222.50-195.50Q231-175 235-148L251-156L191-156L204-83L288-83L277-147Q271-185 256-213.50Q241-242 211-263Z"  horiz-adv-x="597" vert-adv-y="1000"  />

      
      <glyph glyph-name="uni1E6C" unicode="&#x1E6C;" d="M226 0L328 651L73 651L82 705L655 705L646 651L390 651L288 0L226 0M191-179L203-104L280-104L268-179L191-179Z"  horiz-adv-x="597" vert-adv-y="1000"  />

      
      <glyph glyph-name="uni1E6E" unicode="&#x1E6E;" d="M226 0L328 651L73 651L82 705L655 705L646 651L390 651L288 0L226 0M90-152L98-106L386-106L378-152L90-152Z"  horiz-adv-x="597" vert-adv-y="1000"  />

      
      <glyph glyph-name="uni55" unicode="&#x55;" d="M331-8Q240-8 181.50 23.50Q123 55 100 118.50Q77 182 92 275L160 705L222 705L154 279Q136 163 177.50 105.50Q219 48 336 48Q438 48 500 101.50Q562 155 582 279L649 705L711 705L642 273Q627 175 586.50 112.50Q546 50 481.50 21Q417-8 331-8Z"  horiz-adv-x="726" vert-adv-y="1000"  />

      
      <glyph glyph-name="unida" unicode="&#xda;" d="M331-8Q240-8 181.50 23.50Q123 55 100 118.50Q77 182 92 275L160 705L222 705L154 279Q136 163 177.50 105.50Q219 48 336 48Q438 48 500 101.50Q562 155 582 279L649 705L711 705L642 273Q627 175 586.50 112.50Q546 50 481.50 21Q417-8 331-8M421 765L552 936L626 936L471 765L421 765Z"  horiz-adv-x="726" vert-adv-y="1000"  />

      
      <glyph glyph-name="uni016C" unicode="&#x016C;" d="M331-8Q240-8 181.50 23.50Q123 55 100 118.50Q77 182 92 275L160 705L222 705L154 279Q136 163 177.50 105.50Q219 48 336 48Q438 48 500 101.50Q562 155 582 279L649 705L711 705L642 273Q627 175 586.50 112.50Q546 50 481.50 21Q417-8 331-8M448 760Q404 760 370 780.50Q336 801 317.50 838.50Q299 876 299 928L341 933Q338 872 369 838.50Q400 805 452 805Q504 805 539 838.50Q574 872 583 933L625 928Q612 850 563.50 805Q515 760 448 760Z"  horiz-adv-x="726" vert-adv-y="1000"  />

      
      <glyph glyph-name="unidb" unicode="&#xdb;" d="M331-8Q240-8 181.50 23.50Q123 55 100 118.50Q77 182 92 275L160 705L222 705L154 279Q136 163 177.50 105.50Q219 48 336 48Q438 48 500 101.50Q562 155 582 279L649 705L711 705L642 273Q627 175 586.50 112.50Q546 50 481.50 21Q417-8 331-8M284 765L424 936L486 936L590 765L541 765L452 891L333 765L284 765Z"  horiz-adv-x="726" vert-adv-y="1000"  />

      
      <glyph glyph-name="uni0214" unicode="&#x0214;" d="M331-8Q240-8 181.50 23.50Q123 55 100 118.50Q77 182 92 275L160 705L222 705L154 279Q136 163 177.50 105.50Q219 48 336 48Q438 48 500 101.50Q562 155 582 279L649 705L711 705L642 273Q627 175 586.50 112.50Q546 50 481.50 21Q417-8 331-8M486 765L386 936L451 936L523 765L486 765M369 765L267 936L332 936L406 765L369 765Z"  horiz-adv-x="726" vert-adv-y="1000"  />

      
      <glyph glyph-name="unidc" unicode="&#xdc;" d="M331-8Q240-8 181.50 23.50Q123 55 100 118.50Q77 182 92 275L160 705L222 705L154 279Q136 163 177.50 105.50Q219 48 336 48Q438 48 500 101.50Q562 155 582 279L649 705L711 705L642 273Q627 175 586.50 112.50Q546 50 481.50 21Q417-8 331-8M499 813L511 886L584 886L572 813L499 813M332 813L344 886L417 886L405 813L332 813Z"  horiz-adv-x="726" vert-adv-y="1000"  />

      
      <glyph glyph-name="uni1EE4" unicode="&#x1EE4;" d="M331-8Q240-8 181.50 23.50Q123 55 100 118.50Q77 182 92 275L160 705L222 705L154 279Q136 163 177.50 105.50Q219 48 336 48Q438 48 500 101.50Q562 155 582 279L649 705L711 705L642 273Q627 175 586.50 112.50Q546 50 481.50 21Q417-8 331-8M257-179L269-104L346-104L334-179L257-179Z"  horiz-adv-x="726" vert-adv-y="1000"  />

      
      <glyph glyph-name="unid9" unicode="&#xd9;" d="M331-8Q240-8 181.50 23.50Q123 55 100 118.50Q77 182 92 275L160 705L222 705L154 279Q136 163 177.50 105.50Q219 48 336 48Q438 48 500 101.50Q562 155 582 279L649 705L711 705L642 273Q627 175 586.50 112.50Q546 50 481.50 21Q417-8 331-8M421 765L294 936L366 936L471 765L421 765Z"  horiz-adv-x="726" vert-adv-y="1000"  />

      
      <glyph glyph-name="uni1EE6" unicode="&#x1EE6;" d="M331-8Q240-8 181.50 23.50Q123 55 100 118.50Q77 182 92 275L160 705L222 705L154 279Q136 163 177.50 105.50Q219 48 336 48Q438 48 500 101.50Q562 155 582 279L649 705L711 705L642 273Q627 175 586.50 112.50Q546 50 481.50 21Q417-8 331-8M422 765L424 780Q427 802 439 815.50Q451 829 464.50 837.50Q478 846 488 855Q498 864 498 878Q498 888 486.50 894Q475 900 451 900Q436 900 420.50 896.50Q405 893 385 884L377 922Q414 941 464 941Q506 941 528.50 926Q551 911 551 885Q551 862 539.50 849Q528 836 512.50 827Q497 818 484.50 806.50Q472 795 470 775L469 765L422 765Z"  horiz-adv-x="726" vert-adv-y="1000"  />

      
      <glyph glyph-name="uni01AF" unicode="&#x01AF;" d="M331-8Q240-8 181.50 23.50Q123 55 100 118.50Q77 182 92 275L160 705L222 705L154 279Q136 163 177.50 105.50Q219 48 336 48Q438 48 500 101.50Q562 155 582 279L649 705L711 705L642 273Q627 175 586.50 112.50Q546 50 481.50 21Q417-8 331-8M688 661L662 681L666 705Q712 706 738.50 718.50Q765 731 779 757Q793 783 799 821L801 836L857 836L853 812Q843 743 800 704Q757 665 688 661Z"  horiz-adv-x="726" vert-adv-y="1000"  />

      
      <glyph glyph-name="uni1EE8" unicode="&#x1EE8;" d="M331-8Q240-8 181.50 23.50Q123 55 100 118.50Q77 182 92 275L160 705L222 705L154 279Q136 163 177.50 105.50Q219 48 336 48Q438 48 500 101.50Q562 155 582 279L649 705L711 705L642 273Q627 175 586.50 112.50Q546 50 481.50 21Q417-8 331-8M688 661L662 681L666 705Q712 706 738.50 718.50Q765 731 779 757Q793 783 799 821L801 836L857 836L853 812Q843 743 800 704Q757 665 688 661M431 765L562 936L636 936L481 765L431 765Z"  horiz-adv-x="726" vert-adv-y="1000"  />

      
      <glyph glyph-name="uni1EF0" unicode="&#x1EF0;" d="M331-8Q240-8 181.50 23.50Q123 55 100 118.50Q77 182 92 275L160 705L222 705L154 279Q136 163 177.50 105.50Q219 48 336 48Q438 48 500 101.50Q562 155 582 279L649 705L711 705L642 273Q627 175 586.50 112.50Q546 50 481.50 21Q417-8 331-8M688 661L662 681L666 705Q712 706 738.50 718.50Q765 731 779 757Q793 783 799 821L801 836L857 836L853 812Q843 743 800 704Q757 665 688 661M267-179L279-104L356-104L344-179L267-179Z"  horiz-adv-x="726" vert-adv-y="1000"  />

      
      <glyph glyph-name="uni1EEA" unicode="&#x1EEA;" d="M331-8Q240-8 181.50 23.50Q123 55 100 118.50Q77 182 92 275L160 705L222 705L154 279Q136 163 177.50 105.50Q219 48 336 48Q438 48 500 101.50Q562 155 582 279L649 705L711 705L642 273Q627 175 586.50 112.50Q546 50 481.50 21Q417-8 331-8M688 661L662 681L666 705Q712 706 738.50 718.50Q765 731 779 757Q793 783 799 821L801 836L857 836L853 812Q843 743 800 704Q757 665 688 661M431 765L304 936L376 936L481 765L431 765Z"  horiz-adv-x="726" vert-adv-y="1000"  />

      
      <glyph glyph-name="uni1EEC" unicode="&#x1EEC;" d="M331-8Q240-8 181.50 23.50Q123 55 100 118.50Q77 182 92 275L160 705L222 705L154 279Q136 163 177.50 105.50Q219 48 336 48Q438 48 500 101.50Q562 155 582 279L649 705L711 705L642 273Q627 175 586.50 112.50Q546 50 481.50 21Q417-8 331-8M688 661L662 681L666 705Q712 706 738.50 718.50Q765 731 779 757Q793 783 799 821L801 836L857 836L853 812Q843 743 800 704Q757 665 688 661M433 765L435 780Q438 802 450 815.50Q462 829 475.50 837.50Q489 846 499 855Q509 864 509 878Q509 888 497.50 894Q486 900 462 900Q447 900 431.50 896.50Q416 893 396 884L388 922Q425 941 475 941Q517 941 539.50 926Q562 911 562 885Q562 862 550.50 849Q539 836 523.50 827Q508 818 495.50 806.50Q483 795 481 775L480 765L433 765Z"  horiz-adv-x="726" vert-adv-y="1000"  />

      
      <glyph glyph-name="uni1EEE" unicode="&#x1EEE;" d="M331-8Q240-8 181.50 23.50Q123 55 100 118.50Q77 182 92 275L160 705L222 705L154 279Q136 163 177.50 105.50Q219 48 336 48Q438 48 500 101.50Q562 155 582 279L649 705L711 705L642 273Q627 175 586.50 112.50Q546 50 481.50 21Q417-8 331-8M688 661L662 681L666 705Q712 706 738.50 718.50Q765 731 779 757Q793 783 799 821L801 836L857 836L853 812Q843 743 800 704Q757 665 688 661M315 787L276 790Q287 851 318 884Q349 917 395 917Q424 917 443.50 903Q463 889 480 873Q495 858 509.50 847Q524 836 543 836Q601 836 621 920L660 917Q649 856 618.50 823Q588 790 542 790Q513 790 492.50 804Q472 818 455 835Q440 849 425 860Q410 871 392 871Q334 871 315 787Z"  horiz-adv-x="726" vert-adv-y="1000"  />

      
      <glyph glyph-name="uni0170" unicode="&#x0170;" d="M331-8Q240-8 181.50 23.50Q123 55 100 118.50Q77 182 92 275L160 705L222 705L154 279Q136 163 177.50 105.50Q219 48 336 48Q438 48 500 101.50Q562 155 582 279L649 705L711 705L642 273Q627 175 586.50 112.50Q546 50 481.50 21Q417-8 331-8M369 765L469 936L535 936L406 765L369 765M486 765L588 936L654 936L523 765L486 765Z"  horiz-adv-x="726" vert-adv-y="1000"  />

      
      <glyph glyph-name="uni0216" unicode="&#x0216;" d="M331-8Q240-8 181.50 23.50Q123 55 100 118.50Q77 182 92 275L160 705L222 705L154 279Q136 163 177.50 105.50Q219 48 336 48Q438 48 500 101.50Q562 155 582 279L649 705L711 705L642 273Q627 175 586.50 112.50Q546 50 481.50 21Q417-8 331-8M318 760L276 765Q289 843 337.50 888Q386 933 453 933Q498 933 532 912.50Q566 892 585 854.50Q604 817 602 765L560 760Q563 822 532.50 855Q502 888 450 888Q398 888 363 855Q328 822 318 760Z"  horiz-adv-x="726" vert-adv-y="1000"  />

      
      <glyph glyph-name="uni016A" unicode="&#x016A;" d="M331-8Q240-8 181.50 23.50Q123 55 100 118.50Q77 182 92 275L160 705L222 705L154 279Q136 163 177.50 105.50Q219 48 336 48Q438 48 500 101.50Q562 155 582 279L649 705L711 705L642 273Q627 175 586.50 112.50Q546 50 481.50 21Q417-8 331-8M294 818L302 865L620 865L612 818L294 818Z"  horiz-adv-x="726" vert-adv-y="1000"  />

      
      <glyph glyph-name="uni1E7A" unicode="&#x1E7A;" d="M331-8Q240-8 181.50 23.50Q123 55 100 118.50Q77 182 92 275L160 705L222 705L154 279Q136 163 177.50 105.50Q219 48 336 48Q438 48 500 101.50Q562 155 582 279L649 705L711 705L642 273Q627 175 586.50 112.50Q546 50 481.50 21Q417-8 331-8M307 802L315 848L603 848L595 802L307 802M348 906L358 973L431 973L421 906L348 906M515 906L525 973L599 973L588 906L515 906Z"  horiz-adv-x="726" vert-adv-y="1000"  />

      
      <glyph glyph-name="uni0172" unicode="&#x0172;" d="M331-8Q240-8 181.50 23.50Q123 55 100 118.50Q77 182 92 275L160 705L222 705L154 279Q136 163 177.50 105.50Q219 48 336 48Q438 48 500 101.50Q562 155 582 279L649 705L711 705L642 273Q627 175 586.50 112.50Q546 50 481.50 21Q417-8 331-8M364-191Q320-191 296-166.50Q272-142 272-103Q272-58 301-21.50Q330 15 375 34L397 0Q358-16 339-41.50Q320-67 320-95Q320-119 333.50-133.50Q347-148 374-148Q386-148 399.50-145Q413-142 428-136L438-176Q424-181 404.50-186Q385-191 364-191Z"  horiz-adv-x="726" vert-adv-y="1000"  />

      
      <glyph glyph-name="uni016E" unicode="&#x016E;" d="M331-8Q240-8 181.50 23.50Q123 55 100 118.50Q77 182 92 275L160 705L222 705L154 279Q136 163 177.50 105.50Q219 48 336 48Q438 48 500 101.50Q562 155 582 279L649 705L711 705L642 273Q627 175 586.50 112.50Q546 50 481.50 21Q417-8 331-8M461 759Q429 759 403 774.50Q377 790 361.50 815.50Q346 841 346 872Q346 904 361.50 929Q377 954 403 969.50Q429 985 461 985Q494 985 520 969.50Q546 954 561 929Q576 904 576 872Q576 841 561 815.50Q546 790 520 774.50Q494 759 461 759M461 797Q495 797 515.50 818.50Q536 840 536 872Q536 904 515.50 925.50Q495 947 461 947Q429 947 407.50 925.50Q386 904 386 872Q386 840 407.50 818.50Q429 797 461 797Z"  horiz-adv-x="726" vert-adv-y="1000"  />

      
      <glyph glyph-name="uni0168" unicode="&#x0168;" d="M331-8Q240-8 181.50 23.50Q123 55 100 118.50Q77 182 92 275L160 705L222 705L154 279Q136 163 177.50 105.50Q219 48 336 48Q438 48 500 101.50Q562 155 582 279L649 705L711 705L642 273Q627 175 586.50 112.50Q546 50 481.50 21Q417-8 331-8M281 787L242 790Q253 851 284.50 884Q316 917 362 917Q392 917 417 903Q442 889 465 872Q485 858 503 847Q521 836 540 836Q598 836 618 920L657 917Q646 856 615 823Q584 790 538 790Q508 790 482.50 804.50Q457 819 434 835Q415 849 396 860Q377 871 359 871Q301 871 281 787Z"  horiz-adv-x="726" vert-adv-y="1000"  />

      
      <glyph glyph-name="uni1E78" unicode="&#x1E78;" d="M331-8Q240-8 181.50 23.50Q123 55 100 118.50Q77 182 92 275L160 705L222 705L154 279Q136 163 177.50 105.50Q219 48 336 48Q438 48 500 101.50Q562 155 582 279L649 705L711 705L642 273Q627 175 586.50 112.50Q546 50 481.50 21Q417-8 331-8M439 876L544 1022L614 1022L485 876L439 876M517 768Q496 768 478.50 778Q461 788 445 798Q431 808 417.50 816Q404 824 389 824Q367 824 354 810.50Q341 797 334 766L295 768Q303 818 329 842.50Q355 867 391 867Q412 867 429 857.50Q446 848 462 837Q476 827 490 819Q504 811 518 811Q541 811 553.50 824.50Q566 838 573 869L612 867Q604 817 578.50 792.50Q553 768 517 768Z"  horiz-adv-x="726" vert-adv-y="1000"  />

      
      <glyph glyph-name="uni56" unicode="&#x56;" d="M272 0L80 705L142 705L321 44L296 44L684 705L752 705L333 0L272 0Z"  horiz-adv-x="687" vert-adv-y="1000"  />

      
      <glyph glyph-name="uni57" unicode="&#x57;" d="M242 0L110 705L172 705L292 44L260 44L600 705L652 705L770 44L741 44L1076 705L1142 705L783 0L724 0L608 642L628 642L299 0L242 0Z"  horiz-adv-x="1108" vert-adv-y="1000"  />

      
      <glyph glyph-name="uni1E82" unicode="&#x1E82;" d="M242 0L110 705L172 705L292 44L260 44L600 705L652 705L770 44L741 44L1076 705L1142 705L783 0L724 0L608 642L628 642L299 0L242 0M611 765L742 936L816 936L661 765L611 765Z"  horiz-adv-x="1108" vert-adv-y="1000"  />

      
      <glyph glyph-name="uni0174" unicode="&#x0174;" d="M242 0L110 705L172 705L292 44L260 44L600 705L652 705L770 44L741 44L1076 705L1142 705L783 0L724 0L608 642L628 642L299 0L242 0M475 765L615 936L677 936L781 765L732 765L643 891L524 765L475 765Z"  horiz-adv-x="1108" vert-adv-y="1000"  />

      
      <glyph glyph-name="uni1E84" unicode="&#x1E84;" d="M242 0L110 705L172 705L292 44L260 44L600 705L652 705L770 44L741 44L1076 705L1142 705L783 0L724 0L608 642L628 642L299 0L242 0M690 813L702 886L775 886L763 813L690 813M523 813L535 886L608 886L596 813L523 813Z"  horiz-adv-x="1108" vert-adv-y="1000"  />

      
      <glyph glyph-name="uni1E80" unicode="&#x1E80;" d="M242 0L110 705L172 705L292 44L260 44L600 705L652 705L770 44L741 44L1076 705L1142 705L783 0L724 0L608 642L628 642L299 0L242 0M611 765L484 936L556 936L661 765L611 765Z"  horiz-adv-x="1108" vert-adv-y="1000"  />

      
      <glyph glyph-name="uni58" unicode="&#x58;" d="M-26 0L311 371L312 351L104 705L174 705L353 395L334 395L609 705L688 705L369 351L367 371L585 0L514 0L323 331L350 331L53 0L-26 0Z"  horiz-adv-x="644" vert-adv-y="1000"  />

      
      <glyph glyph-name="uni59" unicode="&#x59;" d="M227 0L279 328L286 281L67 705L135 705L319 340L301 340L601 705L674 705L320 280L341 328L289 0L227 0Z"  horiz-adv-x="597" vert-adv-y="1000"  />

      
      <glyph glyph-name="unidd" unicode="&#xdd;" d="M227 0L279 328L286 281L67 705L135 705L319 340L301 340L601 705L674 705L320 280L341 328L289 0L227 0M356 765L487 936L561 936L406 765L356 765Z"  horiz-adv-x="597" vert-adv-y="1000"  />

      
      <glyph glyph-name="uni0176" unicode="&#x0176;" d="M227 0L279 328L286 281L67 705L135 705L319 340L301 340L601 705L674 705L320 280L341 328L289 0L227 0M219 765L359 936L421 936L525 765L476 765L387 891L268 765L219 765Z"  horiz-adv-x="597" vert-adv-y="1000"  />

      
      </font>
</defs>
</svg>
