<?xml version="1.0" standalone="no"?>
  <!DOCTYPE svg PUBLIC "-//W3C//DTD SVG 1.1//EN" "http://www.w3.org/Graphics/SVG/1.1/DTD/svg11.dtd" >
  <svg>
  <metadata>
  Created by font-carrier
  </metadata>
  <defs>
  <font id="Mulish-Regular" horiz-adv-x="1324" vert-adv-y="1324" >
    <font-face
      
      font-family="Mulish"
      
      font-weight="400"
      
      font-stretch="normal"
      
      units-per-em="1000"
      
      ascent="1005"
      
      descent="-250"
      
    />
      <missing-glyph />

      

      
      <glyph glyph-name="uni41" unicode="&#x41;" d="M18 0L329 705L401 705L717 0L631 0L543 201L580 180L149 180L189 201L103 0L18 0M364 610L202 230L178 248L550 248L532 230L366 610L364 610Z"  horiz-adv-x="735" vert-adv-y="1000"  />

      
      <glyph glyph-name="unic1" unicode="&#xc1;" d="M18 0L329 705L401 705L717 0L631 0L543 201L580 180L149 180L189 201L103 0L18 0M364 610L202 230L178 248L550 248L532 230L366 610L364 610M335 765L453 937L544 937L397 765L335 765Z"  horiz-adv-x="735" vert-adv-y="1000"  />

      
      <glyph glyph-name="uni0102" unicode="&#x0102;" d="M18 0L329 705L401 705L717 0L631 0L543 201L580 180L149 180L189 201L103 0L18 0M364 610L202 230L178 248L550 248L532 230L366 610L364 610M366 760Q295 760 249 805Q203 850 197 928L248 935Q253 878 284 846Q315 814 366 814Q417 814 448.50 846Q480 878 484 935L535 928Q529 850 483 805Q437 760 366 760Z"  horiz-adv-x="735" vert-adv-y="1000"  />

      
      <glyph glyph-name="uni1EAE" unicode="&#x1EAE;" d="M18 0L329 705L401 705L717 0L631 0L543 201L580 180L149 180L189 201L103 0L18 0M364 610L202 230L178 248L550 248L532 230L366 610L364 610M366 760Q299 760 257 800Q215 840 209 910L255 915Q261 866 289 839Q317 812 366 812Q415 812 443 839Q471 866 477 915L523 910Q517 840 475.50 800Q434 760 366 760M332 874L418 1016L503 1016L388 874L332 874Z"  horiz-adv-x="735" vert-adv-y="1000"  />

      
      <glyph glyph-name="uni1EB6" unicode="&#x1EB6;" d="M18 0L329 705L401 705L717 0L631 0L543 201L580 180L149 180L189 201L103 0L18 0M364 610L202 230L178 248L550 248L532 230L366 610L364 610M320-187L320-99L412-99L412-187L320-187M366 760Q295 760 249 805Q203 850 197 928L248 935Q253 878 284 846Q315 814 366 814Q417 814 448.50 846Q480 878 484 935L535 928Q529 850 483 805Q437 760 366 760Z"  horiz-adv-x="735" vert-adv-y="1000"  />

      
      <glyph glyph-name="uni1EB0" unicode="&#x1EB0;" d="M18 0L329 705L401 705L717 0L631 0L543 201L580 180L149 180L189 201L103 0L18 0M364 610L202 230L178 248L550 248L532 230L366 610L364 610M366 760Q299 760 257 800Q215 840 209 910L255 915Q261 866 289 839Q317 812 366 812Q415 812 443 839Q471 866 477 915L523 910Q517 840 475.50 800Q434 760 366 760M344 874L229 1016L314 1016L400 874L344 874Z"  horiz-adv-x="735" vert-adv-y="1000"  />

      
      <glyph glyph-name="uni1EB2" unicode="&#x1EB2;" d="M18 0L329 705L401 705L717 0L631 0L543 201L580 180L149 180L189 201L103 0L18 0M364 610L202 230L178 248L550 248L532 230L366 610L364 610M366 760Q299 760 257 800Q215 840 209 910L255 915Q261 866 289 839Q317 812 366 812Q415 812 443 839Q471 866 477 915L523 910Q517 841 475.50 800.50Q434 760 366 760M341 874Q341 895 350 907.50Q359 920 370.50 927.50Q382 935 391 942.50Q400 950 400 962Q400 973 389 977Q378 981 356 981Q343 981 327.50 978.50Q312 976 295 970L283 1007Q301 1016 322 1020Q343 1024 369 1024Q413 1024 436.50 1010.50Q460 997 460 973Q460 952 449.50 941Q439 930 425.50 921.50Q412 913 401.50 902.50Q391 892 391 874L341 874Z"  horiz-adv-x="735" vert-adv-y="1000"  />

      
      <glyph glyph-name="uni1EB4" unicode="&#x1EB4;" d="M18 0L329 705L401 705L717 0L631 0L543 201L580 180L149 180L189 201L103 0L18 0M364 610L202 230L178 248L550 248L532 230L366 610L364 610M366 760Q306 760 264.50 789.50Q223 819 209 870L255 880Q267 848 295 830Q323 812 366 812Q409 812 437 830Q465 848 477 880L523 870Q510 820 468 790Q426 760 366 760M253 919L208 922Q212 972 237.50 998Q263 1024 302 1024Q321 1024 337.50 1016.50Q354 1009 375 994Q397 980 408 975.50Q419 971 429 971Q452 971 463.50 983.50Q475 996 479 1025L524 1022Q521 972 496 946Q471 920 431 920Q412 920 394.50 928.50Q377 937 352 953Q341 960 329 966.50Q317 973 303 973Q281 973 269.50 960.50Q258 948 253 919Z"  horiz-adv-x="735" vert-adv-y="1000"  />

      
      <glyph glyph-name="uni01CD" unicode="&#x01CD;" d="M18 0L329 705L401 705L717 0L631 0L543 201L580 180L149 180L189 201L103 0L18 0M364 610L202 230L178 248L550 248L532 230L366 610L364 610M328 765L205 937L266 937L366 818L466 937L527 937L404 765L328 765Z"  horiz-adv-x="735" vert-adv-y="1000"  />

      
      <glyph glyph-name="unic2" unicode="&#xc2;" d="M18 0L329 705L401 705L717 0L631 0L543 201L580 180L149 180L189 201L103 0L18 0M364 610L202 230L178 248L550 248L532 230L366 610L364 610M205 765L328 937L404 937L527 765L466 765L366 884L266 765L205 765Z"  horiz-adv-x="735" vert-adv-y="1000"  />

      
      <glyph glyph-name="uni1EA4" unicode="&#x1EA4;" d="M18 0L329 705L401 705L717 0L631 0L543 201L580 180L149 180L189 201L103 0L18 0M364 610L202 230L178 248L550 248L532 230L366 610L364 610M218 765L327 927L405 927L514 765L459 765L366 875L273 765L218 765M460 869L546 1019L624 1019L513 869L460 869Z"  horiz-adv-x="735" vert-adv-y="1000"  />

      
      <glyph glyph-name="uni1EAC" unicode="&#x1EAC;" d="M18 0L329 705L401 705L717 0L631 0L543 201L580 180L149 180L189 201L103 0L18 0M364 610L202 230L178 248L550 248L532 230L366 610L364 610M320-187L320-99L412-99L412-187L320-187M205 765L328 937L404 937L527 765L466 765L366 884L266 765L205 765Z"  horiz-adv-x="735" vert-adv-y="1000"  />

      
      <glyph glyph-name="uni1EA6" unicode="&#x1EA6;" d="M18 0L329 705L401 705L717 0L631 0L543 201L580 180L149 180L189 201L103 0L18 0M364 610L202 230L178 248L550 248L532 230L366 610L364 610M218 765L327 927L405 927L514 765L459 765L366 875L273 765L218 765M500 869L389 1019L467 1019L553 869L500 869Z"  horiz-adv-x="735" vert-adv-y="1000"  />

      
      <glyph glyph-name="uni1EA8" unicode="&#x1EA8;" d="M18 0L329 705L401 705L717 0L631 0L543 201L580 180L149 180L189 201L103 0L18 0M364 610L202 230L178 248L550 248L532 230L366 610L364 610M218 765L327 927L405 927L514 765L459 765L366 875L273 765L218 765M467 869Q467 890 476 903Q485 916 497 924.50Q509 933 517.50 941Q526 949 526 960Q526 972 515 976Q504 980 482 980Q469 980 454 977.50Q439 975 422 968L410 1005Q427 1014 448.50 1018.50Q470 1023 496 1023Q539 1023 562.50 1009Q586 995 586 971Q586 951 576 939.50Q566 928 552 918.50Q538 909 528 898Q518 887 518 869L467 869Z"  horiz-adv-x="735" vert-adv-y="1000"  />

      
      <glyph glyph-name="uni1EAA" unicode="&#x1EAA;" d="M18 0L329 705L401 705L717 0L631 0L543 201L580 180L149 180L189 201L103 0L18 0M364 610L202 230L178 248L550 248L532 230L366 610L364 610M218 765L327 897L405 897L514 765L460 765L366 850L272 765L218 765M253 919L208 922Q212 972 237.50 998Q263 1024 302 1024Q321 1024 337.50 1016.50Q354 1009 375 994Q397 980 408 975.50Q419 971 429 971Q452 971 463.50 983.50Q475 996 479 1025L524 1022Q521 972 496 946Q471 920 431 920Q412 920 394.50 928.50Q377 937 352 953Q341 960 329 966.50Q317 973 303 973Q281 973 269.50 960.50Q258 948 253 919Z"  horiz-adv-x="735" vert-adv-y="1000"  />

      
      <glyph glyph-name="uni0200" unicode="&#x0200;" d="M18 0L329 705L401 705L717 0L631 0L543 201L580 180L149 180L189 201L103 0L18 0M364 610L202 230L178 248L550 248L532 230L366 610L364 610M406 765L287 937L368 937L453 765L406 765M279 765L157 937L237 937L326 765L279 765Z"  horiz-adv-x="735" vert-adv-y="1000"  />

      
      <glyph glyph-name="unic4" unicode="&#xc4;" d="M18 0L329 705L401 705L717 0L631 0L543 201L580 180L149 180L189 201L103 0L18 0M364 610L202 230L178 248L550 248L532 230L366 610L364 610M410 806L410 892L496 892L496 806L410 806M236 806L236 892L322 892L322 806L236 806Z"  horiz-adv-x="735" vert-adv-y="1000"  />

      
      <glyph glyph-name="uni0226" unicode="&#x0226;" d="M18 0L329 705L401 705L717 0L631 0L543 201L580 180L149 180L189 201L103 0L18 0M364 610L202 230L178 248L550 248L532 230L366 610L364 610M321 807L321 895L411 895L411 807L321 807Z"  horiz-adv-x="735" vert-adv-y="1000"  />

      
      <glyph glyph-name="uni1EA0" unicode="&#x1EA0;" d="M18 0L329 705L401 705L717 0L631 0L543 201L580 180L149 180L189 201L103 0L18 0M364 610L202 230L178 248L550 248L532 230L366 610L364 610M320-187L320-99L412-99L412-187L320-187Z"  horiz-adv-x="735" vert-adv-y="1000"  />

      
      <glyph glyph-name="unic0" unicode="&#xc0;" d="M18 0L329 705L401 705L717 0L631 0L543 201L580 180L149 180L189 201L103 0L18 0M364 610L202 230L178 248L550 248L532 230L366 610L364 610M335 765L188 937L279 937L397 765L335 765Z"  horiz-adv-x="735" vert-adv-y="1000"  />

      
      <glyph glyph-name="uni1EA2" unicode="&#x1EA2;" d="M18 0L329 705L401 705L717 0L631 0L543 201L580 180L149 180L189 201L103 0L18 0M364 610L202 230L178 248L550 248L532 230L366 610L364 610M338 765L338 781Q338 801 347.50 813.50Q357 826 369.50 835Q382 844 391.50 852Q401 860 401 872Q401 883 389.50 889Q378 895 355 895Q339 895 324.50 892Q310 889 291 880L278 923Q315 943 371 943Q416 943 441.50 926Q467 909 467 881Q467 860 456 847Q445 834 430.50 825.50Q416 817 405 806Q394 795 394 776L394 765L338 765Z"  horiz-adv-x="735" vert-adv-y="1000"  />

      
      <glyph glyph-name="uni0202" unicode="&#x0202;" d="M18 0L329 705L401 705L717 0L631 0L543 201L580 180L149 180L189 201L103 0L18 0M364 610L202 230L178 248L550 248L532 230L366 610L364 610M248 760L197 766Q203 845 249 890Q295 935 366 935Q437 935 483 890Q529 845 535 766L484 760Q480 818 448.50 849.50Q417 881 366 881Q315 881 284 849.50Q253 818 248 760Z"  horiz-adv-x="735" vert-adv-y="1000"  />

      
      <glyph glyph-name="uni0100" unicode="&#x0100;" d="M18 0L329 705L401 705L717 0L631 0L543 201L580 180L149 180L189 201L103 0L18 0M364 610L202 230L178 248L550 248L532 230L366 610L364 610M203 814L203 869L529 869L529 814L203 814Z"  horiz-adv-x="735" vert-adv-y="1000"  />

      
      <glyph glyph-name="uni0104" unicode="&#x0104;" d="M18 0L329 705L401 705L717 0L631 0L543 201L580 180L149 180L189 201L103 0L18 0M364 610L202 230L178 248L550 248L532 230L366 610L364 610M678-192Q630-192 601-166Q572-140 572-95Q572-55 598-19.50Q624 16 668 36L697 0Q681-6 665.50-18.50Q650-31 640-48Q630-65 630-86Q630-114 647-128Q664-142 688-142Q702-142 715-139Q728-136 742-130L756-175Q742-183 722-187.50Q702-192 678-192Z"  horiz-adv-x="735" vert-adv-y="1000"  />

      
      <glyph glyph-name="unic5" unicode="&#xc5;" d="M18 0L329 705L401 705L717 0L631 0L543 201L580 180L149 180L189 201L103 0L18 0M364 610L202 230L178 248L550 248L532 230L366 610L364 610M366 758Q333 758 306 773.50Q279 789 263 815.50Q247 842 247 874Q247 907 263 932.50Q279 958 306 973.50Q333 989 366 989Q400 989 426.50 973.50Q453 958 469 932.50Q485 907 485 874Q485 842 469 815.50Q453 789 426.50 773.50Q400 758 366 758M366 801Q398 801 418 822Q438 843 438 874Q438 904 418 925Q398 946 366 946Q335 946 314.50 925Q294 904 294 874Q294 843 314.50 822Q335 801 366 801Z"  horiz-adv-x="735" vert-adv-y="1000"  />

      
      <glyph glyph-name="uni01FA" unicode="&#x01FA;" d="M18 0L329 705L401 705L717 0L631 0L543 201L580 180L149 180L189 201L103 0L18 0M364 610L202 230L178 248L550 248L532 230L366 610L364 610M366 758Q334 758 307.50 773Q281 788 265.50 814Q250 840 250 871Q250 904 265.50 929Q281 954 307.50 969.50Q334 985 366 985Q385 985 401.50 980Q418 975 432 965L503 1031L582 1031L465 931Q482 905 482 871Q482 840 466.50 814Q451 788 425 773Q399 758 366 758M366 799Q398 799 418 820Q438 841 438 871Q438 902 418 922.50Q398 943 366 943Q335 943 314.50 922.50Q294 902 294 871Q294 841 314.50 820Q335 799 366 799Z"  horiz-adv-x="735" vert-adv-y="1000"  />

      
      <glyph glyph-name="unic3" unicode="&#xc3;" d="M18 0L329 705L401 705L717 0L631 0L543 201L580 180L149 180L189 201L103 0L18 0M364 610L202 230L178 248L550 248L532 230L366 610L364 610M203 783L157 786Q163 850 195.50 884.50Q228 919 277 919Q300 919 323.50 909.50Q347 900 380 878Q411 859 427 851Q443 843 458 843Q488 843 505 863.50Q522 884 529 922L575 919Q569 855 537 820.50Q505 786 456 786Q433 786 409 796Q385 806 349 829Q322 847 305 854.50Q288 862 274 862Q244 862 227 841.50Q210 821 203 783Z"  horiz-adv-x="735" vert-adv-y="1000"  />

      
      <glyph glyph-name="unic6" unicode="&#xc6;" d="M-2 0L429 705L956 705L956 637L557 637L578 659L604 370L587 392L934 392L934 323L594 323L607 333L634 45L622 69L956 69L956 0L560 0L542 196L568 180L184 180L212 202L90 0L-2 0M471 636L228 229L218 249L549 249L540 227L503 636L471 636Z"  horiz-adv-x="1006" vert-adv-y="1000"  />

      
      <glyph glyph-name="uni01FC" unicode="&#x01FC;" d="M-2 0L429 705L956 705L956 637L557 637L578 659L604 370L587 392L934 392L934 323L594 323L607 333L634 45L622 69L956 69L956 0L560 0L542 196L568 180L184 180L212 202L90 0L-2 0M471 636L228 229L218 249L549 249L540 227L503 636L471 636M485 765L603 937L694 937L547 765L485 765Z"  horiz-adv-x="1006" vert-adv-y="1000"  />

      
      <glyph glyph-name="uni42" unicode="&#x42;" d="M88 0L88 705L370 705Q482 705 543 657Q604 609 604 521Q604 455 564.50 411Q525 367 455 353L455 367Q533 358 577.50 313.50Q622 269 622 194Q622 100 559.50 50Q497 0 383 0L88 0M169 67L375 67Q451 67 495.50 96.50Q540 126 540 195Q540 265 495.50 294.50Q451 324 375 324L169 324L169 67M169 390L358 390Q440 390 481 422Q522 454 522 514Q522 576 481 607.50Q440 639 358 639L169 639L169 390Z"  horiz-adv-x="680" vert-adv-y="1000"  />

      
      <glyph glyph-name="uni0181" unicode="&#x0181;" d="M217 0L217 642L183 642Q125 642 97.50 615.50Q70 589 70 534L70 489L-1 489L-1 537Q-1 621 46.50 663Q94 705 193 705L499 705Q610 705 671 657Q732 609 732 521Q732 456 692.50 411.50Q653 367 584 353L584 367Q663 358 706.50 313Q750 268 750 194Q750 100 687.50 50Q625 0 511 0L217 0M297 67L503 67Q586 67 627.50 98.50Q669 130 669 195Q669 260 628 292Q587 324 504 324L297 324L297 67M297 390L487 390Q568 390 609 422Q650 454 650 514Q650 576 609 607.50Q568 639 487 639L297 639L297 390Z"  horiz-adv-x="809" vert-adv-y="1000"  />

      
      <glyph glyph-name="uni43" unicode="&#x43;" d="M395-9Q289-9 215 35Q141 79 101.50 160Q62 241 62 353Q62 465 101.50 545.50Q141 626 215 670Q289 714 395 714Q470 714 529 691Q588 668 632 624L601 558Q553 600 506 619.50Q459 639 396 639Q275 639 212 564Q149 489 149 353Q149 217 212 141.50Q275 66 396 66Q459 66 506 85.50Q553 105 601 148L632 81Q588 38 529 14.50Q470-9 395-9Z"  horiz-adv-x="684" vert-adv-y="1000"  />

      
      <glyph glyph-name="uni0106" unicode="&#x0106;" d="M395-9Q289-9 215 35Q141 79 101.50 160Q62 241 62 353Q62 465 101.50 545.50Q141 626 215 670Q289 714 395 714Q470 714 529 691Q588 668 632 624L601 558Q553 600 506 619.50Q459 639 396 639Q275 639 212 564Q149 489 149 353Q149 217 212 141.50Q275 66 396 66Q459 66 506 85.50Q553 105 601 148L632 81Q588 38 529 14.50Q470-9 395-9M361 765L479 937L570 937L423 765L361 765Z"  horiz-adv-x="684" vert-adv-y="1000"  />

      
      <glyph glyph-name="uni010C" unicode="&#x010C;" d="M395-9Q289-9 215 35Q141 79 101.50 160Q62 241 62 353Q62 465 101.50 545.50Q141 626 215 670Q289 714 395 714Q470 714 529 691Q588 668 632 624L601 558Q553 600 506 619.50Q459 639 396 639Q275 639 212 564Q149 489 149 353Q149 217 212 141.50Q275 66 396 66Q459 66 506 85.50Q553 105 601 148L632 81Q588 38 529 14.50Q470-9 395-9M354 765L231 937L292 937L392 818L492 937L553 937L430 765L354 765Z"  horiz-adv-x="684" vert-adv-y="1000"  />

      
      <glyph glyph-name="unic7" unicode="&#xc7;" d="M395-9Q289-9 215 35Q141 79 101.50 160Q62 241 62 353Q62 465 101.50 545.50Q141 626 215 670Q289 714 395 714Q470 714 529 691Q588 668 632 624L601 558Q553 600 506 619.50Q459 639 396 639Q275 639 212 564Q149 489 149 353Q149 217 212 141.50Q275 66 396 66Q459 66 506 85.50Q553 105 601 148L632 81Q588 38 529 14.50Q470-9 395-9M394-192Q368-192 344.50-187Q321-182 304-173L318-129Q336-137 352.50-141Q369-145 391-145Q418-145 434-135.50Q450-126 450-108Q450-80 412-80Q401-80 390.50-81.50Q380-83 365-89L348-73L363 20L414 20L401-55L377-49Q388-46 400-44Q412-42 422-42Q458-42 482-60Q506-78 506-110Q506-147 475-169.50Q444-192 394-192Z"  horiz-adv-x="684" vert-adv-y="1000"  />

      
      <glyph glyph-name="uni1E08" unicode="&#x1E08;" d="M395-9Q289-9 215 35Q141 79 101.50 160Q62 241 62 353Q62 465 101.50 545.50Q141 626 215 670Q289 714 395 714Q470 714 529 691Q588 668 632 624L601 558Q553 600 506 619.50Q459 639 396 639Q275 639 212 564Q149 489 149 353Q149 217 212 141.50Q275 66 396 66Q459 66 506 85.50Q553 105 601 148L632 81Q588 38 529 14.50Q470-9 395-9M394-192Q368-192 344.50-187Q321-182 304-173L318-129Q336-137 352.50-141Q369-145 391-145Q418-145 434-135.50Q450-126 450-108Q450-80 412-80Q401-80 390.50-81.50Q380-83 365-89L348-73L363 20L414 20L401-55L377-49Q388-46 400-44Q412-42 422-42Q458-42 482-60Q506-78 506-110Q506-147 475-169.50Q444-192 394-192M361 765L479 937L570 937L423 765L361 765Z"  horiz-adv-x="684" vert-adv-y="1000"  />

      
      <glyph glyph-name="uni0108" unicode="&#x0108;" d="M395-9Q289-9 215 35Q141 79 101.50 160Q62 241 62 353Q62 465 101.50 545.50Q141 626 215 670Q289 714 395 714Q470 714 529 691Q588 668 632 624L601 558Q553 600 506 619.50Q459 639 396 639Q275 639 212 564Q149 489 149 353Q149 217 212 141.50Q275 66 396 66Q459 66 506 85.50Q553 105 601 148L632 81Q588 38 529 14.50Q470-9 395-9M231 765L354 937L430 937L553 765L492 765L392 884L292 765L231 765Z"  horiz-adv-x="684" vert-adv-y="1000"  />

      
      <glyph glyph-name="uni010A" unicode="&#x010A;" d="M395-9Q289-9 215 35Q141 79 101.50 160Q62 241 62 353Q62 465 101.50 545.50Q141 626 215 670Q289 714 395 714Q470 714 529 691Q588 668 632 624L601 558Q553 600 506 619.50Q459 639 396 639Q275 639 212 564Q149 489 149 353Q149 217 212 141.50Q275 66 396 66Q459 66 506 85.50Q553 105 601 148L632 81Q588 38 529 14.50Q470-9 395-9M347 807L347 895L437 895L437 807L347 807Z"  horiz-adv-x="684" vert-adv-y="1000"  />

      
      <glyph glyph-name="uni44" unicode="&#x44;" d="M88 0L88 705L322 705Q439 705 520 664.50Q601 624 643 545.50Q685 467 685 353Q685 240 643 161Q601 82 520 41Q439 0 322 0L88 0M171 71L316 71Q460 71 530 141.50Q600 212 600 353Q600 495 530 565Q460 635 316 635L171 635L171 71Z"  horiz-adv-x="747" vert-adv-y="1000"  />

      
      <glyph glyph-name="uni01C4" unicode="&#x01C4;" d="M88 0L88 705L322 705Q439 705 520 664.50Q601 624 643 545.50Q685 467 685 353Q685 240 643 161Q601 82 520 41Q439 0 322 0L88 0M171 71L316 71Q460 71 530 141.50Q600 212 600 353Q600 495 530 565Q460 635 316 635L171 635L171 71M775 0L775 61L1202 666L1202 634L775 634L775 705L1281 705L1281 644L853 40L853 71L1292 71L1292 0L775 0M996 765L873 937L934 937L1034 818L1134 937L1195 937L1072 765L996 765Z"  horiz-adv-x="1327" vert-adv-y="1000"  />

      
      <glyph glyph-name="unid0" unicode="&#xd0;" d="M88 0L88 705L322 705Q439 705 520 664.50Q601 624 643 545.50Q685 467 685 353Q685 240 643 161Q601 82 520 41Q439 0 322 0L88 0M171 71L316 71Q460 71 530 141.50Q600 212 600 353Q600 495 530 565Q460 635 316 635L171 635L171 71M2 326L2 390L369 390L369 326L2 326Z"  horiz-adv-x="747" vert-adv-y="1000"  />

      
      <glyph glyph-name="uni010E" unicode="&#x010E;" d="M88 0L88 705L322 705Q439 705 520 664.50Q601 624 643 545.50Q685 467 685 353Q685 240 643 161Q601 82 520 41Q439 0 322 0L88 0M171 71L316 71Q460 71 530 141.50Q600 212 600 353Q600 495 530 565Q460 635 316 635L171 635L171 71M342 765L219 937L280 937L380 818L480 937L541 937L418 765L342 765Z"  horiz-adv-x="747" vert-adv-y="1000"  />

      
      <glyph glyph-name="uni0110" unicode="&#x0110;" d="M88 0L88 705L322 705Q439 705 520 664.50Q601 624 643 545.50Q685 467 685 353Q685 240 643 161Q601 82 520 41Q439 0 322 0L88 0M171 71L316 71Q460 71 530 141.50Q600 212 600 353Q600 495 530 565Q460 635 316 635L171 635L171 71M2 326L2 390L369 390L369 326L2 326Z"  horiz-adv-x="747" vert-adv-y="1000"  />

      
      <glyph glyph-name="uni1E0C" unicode="&#x1E0C;" d="M88 0L88 705L322 705Q439 705 520 664.50Q601 624 643 545.50Q685 467 685 353Q685 240 643 161Q601 82 520 41Q439 0 322 0L88 0M171 71L316 71Q460 71 530 141.50Q600 212 600 353Q600 495 530 565Q460 635 316 635L171 635L171 71M334-187L334-99L426-99L426-187L334-187Z"  horiz-adv-x="747" vert-adv-y="1000"  />

      
      <glyph glyph-name="uni018A" unicode="&#x018A;" d="M217 0L217 642L183 642Q125 642 97.50 615.50Q70 589 70 534L70 489L-1 489L-1 537Q-1 621 45.50 663Q92 705 186 705L451 705Q626 705 720 615Q814 525 814 353Q814 181 720 90.50Q626 0 451 0L217 0M300 71L444 71Q588 71 658.50 141.50Q729 212 729 353Q729 495 658.50 565Q588 635 444 635L300 635L300 71Z"  horiz-adv-x="876" vert-adv-y="1000"  />

      
      <glyph glyph-name="uni1E0E" unicode="&#x1E0E;" d="M88 0L88 705L322 705Q439 705 520 664.50Q601 624 643 545.50Q685 467 685 353Q685 240 643 161Q601 82 520 41Q439 0 322 0L88 0M171 71L316 71Q460 71 530 141.50Q600 212 600 353Q600 495 530 565Q460 635 316 635L171 635L171 71M232-156L232-101L528-101L528-156L232-156Z"  horiz-adv-x="747" vert-adv-y="1000"  />

      
      <glyph glyph-name="uni01C5" unicode="&#x01C5;" d="M88 0L88 705L322 705Q439 705 520 664.50Q601 624 643 545.50Q685 467 685 353Q685 240 643 161Q601 82 520 41Q439 0 322 0L88 0M171 71L316 71Q460 71 530 141.50Q600 212 600 353Q600 495 530 565Q460 635 316 635L171 635L171 71M797 0L797 54L1135 460L1136 439L797 439L797 502L1211 502L1211 448L869 40L868 63L1222 63L1222 0L797 0M966 551L857 753L913 753L1005 605L1097 753L1153 753L1044 551L966 551Z"  horiz-adv-x="1265" vert-adv-y="1000"  />

      
      <glyph glyph-name="uni45" unicode="&#x45;" d="M88 0L88 705L538 705L538 637L169 637L169 392L516 392L516 323L169 323L169 69L538 69L538 0L88 0Z"  horiz-adv-x="588" vert-adv-y="1000"  />

      
      <glyph glyph-name="unic9" unicode="&#xc9;" d="M88 0L88 705L538 705L538 637L169 637L169 392L516 392L516 323L169 323L169 69L538 69L538 0L88 0M297 765L415 937L506 937L359 765L297 765Z"  horiz-adv-x="588" vert-adv-y="1000"  />

      
      <glyph glyph-name="uni0114" unicode="&#x0114;" d="M88 0L88 705L538 705L538 637L169 637L169 392L516 392L516 323L169 323L169 69L538 69L538 0L88 0M328 760Q257 760 211 805Q165 850 159 928L210 935Q215 878 246 846Q277 814 328 814Q379 814 410.50 846Q442 878 446 935L497 928Q491 850 445 805Q399 760 328 760Z"  horiz-adv-x="588" vert-adv-y="1000"  />

      
      <glyph glyph-name="uni011A" unicode="&#x011A;" d="M88 0L88 705L538 705L538 637L169 637L169 392L516 392L516 323L169 323L169 69L538 69L538 0L88 0M290 765L167 937L228 937L328 818L428 937L489 937L366 765L290 765Z"  horiz-adv-x="588" vert-adv-y="1000"  />

      
      <glyph glyph-name="uni0228" unicode="&#x0228;" d="M88 0L88 705L538 705L538 637L169 637L169 392L516 392L516 323L169 323L169 69L538 69L538 0L88 0M331-192Q305-192 281.50-187Q258-182 241-173L255-129Q273-137 289.50-141Q306-145 328-145Q355-145 371-135.50Q387-126 387-108Q387-80 349-80Q338-80 327.50-81.50Q317-83 302-89L285-73L300 20L351 20L338-55L314-49Q325-46 337-44Q349-42 359-42Q395-42 419-60Q443-78 443-110Q443-147 412-169.50Q381-192 331-192Z"  horiz-adv-x="588" vert-adv-y="1000"  />

      
      <glyph glyph-name="uni1E1C" unicode="&#x1E1C;" d="M88 0L88 705L538 705L538 637L169 637L169 392L516 392L516 323L169 323L169 69L538 69L538 0L88 0M331-192Q305-192 281.50-187Q258-182 241-173L255-129Q273-137 289.50-141Q306-145 328-145Q355-145 371-135.50Q387-126 387-108Q387-80 349-80Q338-80 327.50-81.50Q317-83 302-89L285-73L300 20L351 20L338-55L314-49Q325-46 337-44Q349-42 359-42Q395-42 419-60Q443-78 443-110Q443-147 412-169.50Q381-192 331-192M328 760Q257 760 211 805Q165 850 159 928L210 935Q215 878 246 846Q277 814 328 814Q379 814 410.50 846Q442 878 446 935L497 928Q491 850 445 805Q399 760 328 760Z"  horiz-adv-x="588" vert-adv-y="1000"  />

      
      <glyph glyph-name="unica" unicode="&#xca;" d="M88 0L88 705L538 705L538 637L169 637L169 392L516 392L516 323L169 323L169 69L538 69L538 0L88 0M167 765L290 937L366 937L489 765L428 765L328 884L228 765L167 765Z"  horiz-adv-x="588" vert-adv-y="1000"  />

      
      <glyph glyph-name="uni1EBE" unicode="&#x1EBE;" d="M88 0L88 705L538 705L538 637L169 637L169 392L516 392L516 323L169 323L169 69L538 69L538 0L88 0M180 765L289 927L367 927L476 765L421 765L328 875L235 765L180 765M422 869L508 1019L586 1019L475 869L422 869Z"  horiz-adv-x="588" vert-adv-y="1000"  />

      
      <glyph glyph-name="uni1EC6" unicode="&#x1EC6;" d="M88 0L88 705L538 705L538 637L169 637L169 392L516 392L516 323L169 323L169 69L538 69L538 0L88 0M282-187L282-99L374-99L374-187L282-187M167 765L290 937L366 937L489 765L428 765L328 884L228 765L167 765Z"  horiz-adv-x="588" vert-adv-y="1000"  />

      
      <glyph glyph-name="uni1EC0" unicode="&#x1EC0;" d="M88 0L88 705L538 705L538 637L169 637L169 392L516 392L516 323L169 323L169 69L538 69L538 0L88 0M180 765L289 927L367 927L476 765L421 765L328 875L235 765L180 765M462 869L351 1019L429 1019L515 869L462 869Z"  horiz-adv-x="588" vert-adv-y="1000"  />

      
      <glyph glyph-name="uni1EC2" unicode="&#x1EC2;" d="M88 0L88 705L538 705L538 637L169 637L169 392L516 392L516 323L169 323L169 69L538 69L538 0L88 0M180 765L289 927L367 927L476 765L421 765L328 875L235 765L180 765M429 869Q429 890 438 903Q447 916 459 924.50Q471 933 479.50 941Q488 949 488 960Q488 972 477 976Q466 980 444 980Q431 980 416 977.50Q401 975 384 968L372 1005Q389 1014 410.50 1018.50Q432 1023 458 1023Q501 1023 524.50 1009Q548 995 548 971Q548 951 538 939.50Q528 928 514 918.50Q500 909 490 898Q480 887 480 869L429 869Z"  horiz-adv-x="588" vert-adv-y="1000"  />

      
      <glyph glyph-name="uni1EC4" unicode="&#x1EC4;" d="M88 0L88 705L538 705L538 637L169 637L169 392L516 392L516 323L169 323L169 69L538 69L538 0L88 0M180 765L289 897L367 897L476 765L422 765L328 850L234 765L180 765M215 919L170 922Q174 972 199.50 998Q225 1024 264 1024Q283 1024 299.50 1016.50Q316 1009 337 994Q359 980 370 975.50Q381 971 391 971Q414 971 425.50 983.50Q437 996 441 1025L486 1022Q483 972 458 946Q433 920 393 920Q374 920 356.50 928.50Q339 937 314 953Q303 960 291 966.50Q279 973 265 973Q243 973 231.50 960.50Q220 948 215 919Z"  horiz-adv-x="588" vert-adv-y="1000"  />

      
      <glyph glyph-name="uni0204" unicode="&#x0204;" d="M88 0L88 705L538 705L538 637L169 637L169 392L516 392L516 323L169 323L169 69L538 69L538 0L88 0M368 765L249 937L330 937L415 765L368 765M241 765L119 937L199 937L288 765L241 765Z"  horiz-adv-x="588" vert-adv-y="1000"  />

      
      <glyph glyph-name="unicb" unicode="&#xcb;" d="M88 0L88 705L538 705L538 637L169 637L169 392L516 392L516 323L169 323L169 69L538 69L538 0L88 0M372 806L372 892L458 892L458 806L372 806M198 806L198 892L284 892L284 806L198 806Z"  horiz-adv-x="588" vert-adv-y="1000"  />

      
      <glyph glyph-name="uni0116" unicode="&#x0116;" d="M88 0L88 705L538 705L538 637L169 637L169 392L516 392L516 323L169 323L169 69L538 69L538 0L88 0M283 807L283 895L373 895L373 807L283 807Z"  horiz-adv-x="588" vert-adv-y="1000"  />

      
      <glyph glyph-name="uni1EB8" unicode="&#x1EB8;" d="M88 0L88 705L538 705L538 637L169 637L169 392L516 392L516 323L169 323L169 69L538 69L538 0L88 0M282-187L282-99L374-99L374-187L282-187Z"  horiz-adv-x="588" vert-adv-y="1000"  />

      
      <glyph glyph-name="unic8" unicode="&#xc8;" d="M88 0L88 705L538 705L538 637L169 637L169 392L516 392L516 323L169 323L169 69L538 69L538 0L88 0M297 765L150 937L241 937L359 765L297 765Z"  horiz-adv-x="588" vert-adv-y="1000"  />

      
      <glyph glyph-name="uni1EBA" unicode="&#x1EBA;" d="M88 0L88 705L538 705L538 637L169 637L169 392L516 392L516 323L169 323L169 69L538 69L538 0L88 0M300 765L300 781Q300 801 309.50 813.50Q319 826 331.50 835Q344 844 353.50 852Q363 860 363 872Q363 883 351.50 889Q340 895 317 895Q301 895 286.50 892Q272 889 253 880L240 923Q277 943 333 943Q378 943 403.50 926Q429 909 429 881Q429 860 418 847Q407 834 392.50 825.50Q378 817 367 806Q356 795 356 776L356 765L300 765Z"  horiz-adv-x="588" vert-adv-y="1000"  />

      
      <glyph glyph-name="uni0206" unicode="&#x0206;" d="M88 0L88 705L538 705L538 637L169 637L169 392L516 392L516 323L169 323L169 69L538 69L538 0L88 0M210 760L159 766Q165 845 211 890Q257 935 328 935Q399 935 445 890Q491 845 497 766L446 760Q442 818 410.50 849.50Q379 881 328 881Q277 881 246 849.50Q215 818 210 760Z"  horiz-adv-x="588" vert-adv-y="1000"  />

      
      <glyph glyph-name="uni0112" unicode="&#x0112;" d="M88 0L88 705L538 705L538 637L169 637L169 392L516 392L516 323L169 323L169 69L538 69L538 0L88 0M165 814L165 869L491 869L491 814L165 814Z"  horiz-adv-x="588" vert-adv-y="1000"  />

      
      <glyph glyph-name="uni1E16" unicode="&#x1E16;" d="M88 0L88 705L538 705L538 637L169 637L169 392L516 392L516 323L169 323L169 69L538 69L538 0L88 0M180 790L180 845L476 845L476 790L180 790M300 882L386 1023L471 1023L356 882L300 882Z"  horiz-adv-x="588" vert-adv-y="1000"  />

      
      <glyph glyph-name="uni1E14" unicode="&#x1E14;" d="M88 0L88 705L538 705L538 637L169 637L169 392L516 392L516 323L169 323L169 69L538 69L538 0L88 0M300 882L185 1023L270 1023L356 882L300 882M180 790L180 845L476 845L476 790L180 790Z"  horiz-adv-x="588" vert-adv-y="1000"  />

      
      <glyph glyph-name="uni0118" unicode="&#x0118;" d="M88 0L88 705L538 705L538 637L169 637L169 392L516 392L516 323L169 323L169 69L538 69L538 0L88 0M486-192Q438-192 409-166Q380-140 380-95Q380-55 406-19.50Q432 16 476 36L505 0Q489-6 473.50-18.50Q458-31 448-48Q438-65 438-86Q438-114 455-128Q472-142 496-142Q510-142 523-139Q536-136 550-130L564-175Q550-183 530-187.50Q510-192 486-192Z"  horiz-adv-x="588" vert-adv-y="1000"  />

      
      <glyph glyph-name="uni1EBC" unicode="&#x1EBC;" d="M88 0L88 705L538 705L538 637L169 637L169 392L516 392L516 323L169 323L169 69L538 69L538 0L88 0M165 783L119 786Q125 850 157.50 884.50Q190 919 239 919Q262 919 285.50 909.50Q309 900 342 878Q373 859 389 851Q405 843 420 843Q450 843 467 863.50Q484 884 491 922L537 919Q531 855 499 820.50Q467 786 418 786Q395 786 371 796Q347 806 311 829Q284 847 267 854.50Q250 862 236 862Q206 862 189 841.50Q172 821 165 783Z"  horiz-adv-x="588" vert-adv-y="1000"  />

      
      <glyph glyph-name="uni46" unicode="&#x46;" d="M88 0L88 705L528 705L528 637L171 637L171 390L506 390L506 322L171 322L171 0L88 0Z"  horiz-adv-x="562" vert-adv-y="1000"  />

      
      <glyph glyph-name="uni47" unicode="&#x47;" d="M412-9Q296-9 218 34Q140 77 101 158Q62 239 62 352Q62 464 103 545Q144 626 221 670Q298 714 407 714Q484 714 540.50 691.50Q597 669 642 625L611 560Q578 589 547.50 606Q517 623 484 631.50Q451 640 407 640Q282 640 215.50 564.50Q149 489 149 351Q149 212 213.50 138Q278 64 414 64Q464 64 509.50 73.50Q555 83 598 101L580 56L580 304L400 304L400 369L651 369L651 42Q608 19 542.50 5Q477-9 412-9Z"  horiz-adv-x="731" vert-adv-y="1000"  />

      
      <glyph glyph-name="uni011E" unicode="&#x011E;" d="M412-9Q296-9 218 34Q140 77 101 158Q62 239 62 352Q62 464 103 545Q144 626 221 670Q298 714 407 714Q484 714 540.50 691.50Q597 669 642 625L611 560Q578 589 547.50 606Q517 623 484 631.50Q451 640 407 640Q282 640 215.50 564.50Q149 489 149 351Q149 212 213.50 138Q278 64 414 64Q464 64 509.50 73.50Q555 83 598 101L580 56L580 304L400 304L400 369L651 369L651 42Q608 19 542.50 5Q477-9 412-9M400 760Q329 760 283 805Q237 850 231 928L282 935Q287 878 318 846Q349 814 400 814Q451 814 482.50 846Q514 878 518 935L569 928Q563 850 517 805Q471 760 400 760Z"  horiz-adv-x="731" vert-adv-y="1000"  />

      
      <glyph glyph-name="uni01E6" unicode="&#x01E6;" d="M412-9Q296-9 218 34Q140 77 101 158Q62 239 62 352Q62 464 103 545Q144 626 221 670Q298 714 407 714Q484 714 540.50 691.50Q597 669 642 625L611 560Q578 589 547.50 606Q517 623 484 631.50Q451 640 407 640Q282 640 215.50 564.50Q149 489 149 351Q149 212 213.50 138Q278 64 414 64Q464 64 509.50 73.50Q555 83 598 101L580 56L580 304L400 304L400 369L651 369L651 42Q608 19 542.50 5Q477-9 412-9M362 765L239 937L300 937L400 818L500 937L561 937L438 765L362 765Z"  horiz-adv-x="731" vert-adv-y="1000"  />

      
      <glyph glyph-name="uni011C" unicode="&#x011C;" d="M412-9Q296-9 218 34Q140 77 101 158Q62 239 62 352Q62 464 103 545Q144 626 221 670Q298 714 407 714Q484 714 540.50 691.50Q597 669 642 625L611 560Q578 589 547.50 606Q517 623 484 631.50Q451 640 407 640Q282 640 215.50 564.50Q149 489 149 351Q149 212 213.50 138Q278 64 414 64Q464 64 509.50 73.50Q555 83 598 101L580 56L580 304L400 304L400 369L651 369L651 42Q608 19 542.50 5Q477-9 412-9M239 765L362 937L438 937L561 765L500 765L400 884L300 765L239 765Z"  horiz-adv-x="731" vert-adv-y="1000"  />

      
      <glyph glyph-name="uni0122" unicode="&#x0122;" d="M412-9Q296-9 218 34Q140 77 101 158Q62 239 62 352Q62 464 103 545Q144 626 221 670Q298 714 407 714Q484 714 540.50 691.50Q597 669 642 625L611 560Q578 589 547.50 606Q517 623 484 631.50Q451 640 407 640Q282 640 215.50 564.50Q149 489 149 351Q149 212 213.50 138Q278 64 414 64Q464 64 509.50 73.50Q555 83 598 101L580 56L580 304L400 304L400 369L651 369L651 42Q608 19 542.50 5Q477-9 412-9M410-268L374-242Q397-218 404.50-197Q412-176 412-152L433-162L363-162L363-80L462-80L462-140Q462-177 449.50-209.50Q437-242 410-268Z"  horiz-adv-x="731" vert-adv-y="1000"  />

      
      <glyph glyph-name="uni0120" unicode="&#x0120;" d="M412-9Q296-9 218 34Q140 77 101 158Q62 239 62 352Q62 464 103 545Q144 626 221 670Q298 714 407 714Q484 714 540.50 691.50Q597 669 642 625L611 560Q578 589 547.50 606Q517 623 484 631.50Q451 640 407 640Q282 640 215.50 564.50Q149 489 149 351Q149 212 213.50 138Q278 64 414 64Q464 64 509.50 73.50Q555 83 598 101L580 56L580 304L400 304L400 369L651 369L651 42Q608 19 542.50 5Q477-9 412-9M355 807L355 895L445 895L445 807L355 807Z"  horiz-adv-x="731" vert-adv-y="1000"  />

      
      <glyph glyph-name="uni1E20" unicode="&#x1E20;" d="M412-9Q296-9 218 34Q140 77 101 158Q62 239 62 352Q62 464 103 545Q144 626 221 670Q298 714 407 714Q484 714 540.50 691.50Q597 669 642 625L611 560Q578 589 547.50 606Q517 623 484 631.50Q451 640 407 640Q282 640 215.50 564.50Q149 489 149 351Q149 212 213.50 138Q278 64 414 64Q464 64 509.50 73.50Q555 83 598 101L580 56L580 304L400 304L400 369L651 369L651 42Q608 19 542.50 5Q477-9 412-9M237 814L237 869L563 869L563 814L237 814Z"  horiz-adv-x="731" vert-adv-y="1000"  />

      
      <glyph glyph-name="uni48" unicode="&#x48;" d="M88 0L88 705L171 705L171 393L596 393L596 705L678 705L678 0L596 0L596 322L171 322L171 0L88 0Z"  horiz-adv-x="766" vert-adv-y="1000"  />

      
      <glyph glyph-name="uni0126" unicode="&#x0126;" d="M102 0L102 519L9 519L9 584L102 584L102 705L185 705L185 584L608 584L608 705L691 705L691 584L784 584L784 519L691 519L691 0L608 0L608 316L185 316L185 0L102 0M185 388L608 388L608 519L185 519L185 388Z"  horiz-adv-x="792" vert-adv-y="1000"  />

      
      <glyph glyph-name="uni1E2A" unicode="&#x1E2A;" d="M88 0L88 705L171 705L171 393L596 393L596 705L678 705L678 0L596 0L596 322L171 322L171 0L88 0M384-215Q317-215 275-175Q233-135 230-65L281-60Q285-108 311.50-134.50Q338-161 384-161Q430-161 456.50-134.50Q483-108 487-60L538-65Q535-135 493.50-175Q452-215 384-215Z"  horiz-adv-x="766" vert-adv-y="1000"  />

      
      <glyph glyph-name="uni0124" unicode="&#x0124;" d="M88 0L88 705L171 705L171 393L596 393L596 705L678 705L678 0L596 0L596 322L171 322L171 0L88 0M223 765L346 937L422 937L545 765L484 765L384 884L284 765L223 765Z"  horiz-adv-x="766" vert-adv-y="1000"  />

      
      <glyph glyph-name="uni1E24" unicode="&#x1E24;" d="M88 0L88 705L171 705L171 393L596 393L596 705L678 705L678 0L596 0L596 322L171 322L171 0L88 0M338-187L338-99L430-99L430-187L338-187Z"  horiz-adv-x="766" vert-adv-y="1000"  />

      
      <glyph glyph-name="uni49" unicode="&#x49;" d="M88 0L88 705L171 705L171 0L88 0Z"  horiz-adv-x="259" vert-adv-y="1000"  />

      
      <glyph glyph-name="uni0132" unicode="&#x0132;" d="M88 0L88 705L171 705L171 0L88 0M338-186Q322-186 301.50-184.50Q281-183 260-178L260-109Q279-113 295.50-115.50Q312-118 325-118Q371-118 394-89.50Q417-61 417 1L417 705L500 705L500 0Q500-60 482.50-102Q465-144 429.50-165Q394-186 338-186Z"  horiz-adv-x="588" vert-adv-y="1000"  />

      
      <glyph glyph-name="unicd" unicode="&#xcd;" d="M88 0L88 705L171 705L171 0L88 0M98 765L216 937L307 937L160 765L98 765Z"  horiz-adv-x="259" vert-adv-y="1000"  />

      
      <glyph glyph-name="uni012C" unicode="&#x012C;" d="M88 0L88 705L171 705L171 0L88 0M129 760Q58 760 12 805Q-34 850-40 928L11 935Q16 878 47 846Q78 814 129 814Q180 814 211.50 846Q243 878 247 935L298 928Q292 850 246 805Q200 760 129 760Z"  horiz-adv-x="259" vert-adv-y="1000"  />

      
      <glyph glyph-name="unice" unicode="&#xce;" d="M88 0L88 705L171 705L171 0L88 0M-32 765L91 937L167 937L290 765L229 765L129 884L29 765L-32 765Z"  horiz-adv-x="259" vert-adv-y="1000"  />

      
      <glyph glyph-name="uni0208" unicode="&#x0208;" d="M88 0L88 705L171 705L171 0L88 0M169 765L50 937L131 937L216 765L169 765M42 765L-80 937L0 937L89 765L42 765Z"  horiz-adv-x="259" vert-adv-y="1000"  />

      
      <glyph glyph-name="unicf" unicode="&#xcf;" d="M88 0L88 705L171 705L171 0L88 0M173 806L173 892L259 892L259 806L173 806M-1 806L-1 892L85 892L85 806L-1 806Z"  horiz-adv-x="259" vert-adv-y="1000"  />

      
      <glyph glyph-name="uni1E2E" unicode="&#x1E2E;" d="M88 0L88 705L171 705L171 0L88 0M101 882L187 1023L272 1023L157 882L101 882M-1 771L-1 844L85 844L85 771L-1 771M173 771L173 844L259 844L259 771L173 771Z"  horiz-adv-x="259" vert-adv-y="1000"  />

      
      <glyph glyph-name="uni0130" unicode="&#x0130;" d="M88 0L88 705L171 705L171 0L88 0M84 807L84 895L174 895L174 807L84 807Z"  horiz-adv-x="259" vert-adv-y="1000"  />

      
      <glyph glyph-name="uni1ECA" unicode="&#x1ECA;" d="M88 0L88 705L171 705L171 0L88 0M83-187L83-99L175-99L175-187L83-187Z"  horiz-adv-x="259" vert-adv-y="1000"  />

      
      <glyph glyph-name="unicc" unicode="&#xcc;" d="M88 0L88 705L171 705L171 0L88 0M98 765L-49 937L42 937L160 765L98 765Z"  horiz-adv-x="259" vert-adv-y="1000"  />

      
      <glyph glyph-name="uni1EC8" unicode="&#x1EC8;" d="M88 0L88 705L171 705L171 0L88 0M101 765L101 781Q101 801 110.50 813.50Q120 826 132.50 835Q145 844 154.50 852Q164 860 164 872Q164 883 152.50 889Q141 895 118 895Q102 895 87.50 892Q73 889 54 880L41 923Q78 943 134 943Q179 943 204.50 926Q230 909 230 881Q230 860 219 847Q208 834 193.50 825.50Q179 817 168 806Q157 795 157 776L157 765L101 765Z"  horiz-adv-x="259" vert-adv-y="1000"  />

      
      <glyph glyph-name="uni020A" unicode="&#x020A;" d="M88 0L88 705L171 705L171 0L88 0M11 760L-40 766Q-34 845 12 890Q58 935 129 935Q200 935 246 890Q292 845 298 766L247 760Q243 818 211.50 849.50Q180 881 129 881Q78 881 47 849.50Q16 818 11 760Z"  horiz-adv-x="259" vert-adv-y="1000"  />

      
      <glyph glyph-name="uni012A" unicode="&#x012A;" d="M88 0L88 705L171 705L171 0L88 0M-34 814L-34 869L292 869L292 814L-34 814Z"  horiz-adv-x="259" vert-adv-y="1000"  />

      
      <glyph glyph-name="uni012E" unicode="&#x012E;" d="M88 0L88 705L171 705L171 0L88 0M139-192Q91-192 62-166Q33-140 33-95Q33-55 59-19.50Q85 16 129 36L158 0Q142-6 126.50-18.50Q111-31 101-48Q91-65 91-86Q91-114 108-128Q125-142 149-142Q163-142 176-139Q189-136 203-130L217-175Q203-183 183-187.50Q163-192 139-192Z"  horiz-adv-x="259" vert-adv-y="1000"  />

      
      <glyph glyph-name="uni0128" unicode="&#x0128;" d="M88 0L88 705L171 705L171 0L88 0M-34 783L-80 786Q-74 850-41.50 884.50Q-9 919 40 919Q63 919 86.50 909.50Q110 900 143 878Q174 859 190 851Q206 843 221 843Q251 843 268 863.50Q285 884 292 922L338 919Q332 855 300 820.50Q268 786 219 786Q196 786 172 796Q148 806 112 829Q85 847 68 854.50Q51 862 37 862Q7 862-10 841.50Q-27 821-34 783Z"  horiz-adv-x="259" vert-adv-y="1000"  />

      
      <glyph glyph-name="uni4a" unicode="&#x4a;" d="M79-186Q63-186 42.50-184.50Q22-183 1-178L1-109Q20-113 36.50-115.50Q53-118 66-118Q112-118 135-89.50Q158-61 158 1L158 705L241 705L241 0Q241-60 223.50-102Q206-144 170.50-165Q135-186 79-186Z"  horiz-adv-x="329" vert-adv-y="1000"  />

      
      <glyph glyph-name="uni0134" unicode="&#x0134;" d="M79-186Q63-186 42.50-184.50Q22-183 1-178L1-109Q20-113 36.50-115.50Q53-118 66-118Q112-118 135-89.50Q158-61 158 1L158 705L241 705L241 0Q241-60 223.50-102Q206-144 170.50-165Q135-186 79-186M39 765L162 937L238 937L361 765L300 765L200 884L100 765L39 765Z"  horiz-adv-x="329" vert-adv-y="1000"  />

      
      <glyph glyph-name="uni4b" unicode="&#x4b;" d="M88 0L88 705L171 705L171 385L173 385L511 705L617 705L228 341L229 383L645 0L536 0L173 332L171 332L171 0L88 0Z"  horiz-adv-x="634" vert-adv-y="1000"  />

      
      <glyph glyph-name="uni0136" unicode="&#x0136;" d="M88 0L88 705L171 705L171 385L173 385L511 705L617 705L228 341L229 383L645 0L536 0L173 332L171 332L171 0L88 0M320-268L284-242Q307-218 314.50-197Q322-176 322-152L343-162L273-162L273-80L372-80L372-140Q372-177 359.50-209.50Q347-242 320-268Z"  horiz-adv-x="634" vert-adv-y="1000"  />

      
      <glyph glyph-name="uni4c" unicode="&#x4c;" d="M88 0L88 705L171 705L171 72L527 72L527 0L88 0Z"  horiz-adv-x="545" vert-adv-y="1000"  />

      
      <glyph glyph-name="uni01C7" unicode="&#x01C7;" d="M88 0L88 705L171 705L171 72L527 72L527 0L88 0M664-186Q648-186 627.50-184.50Q607-183 586-178L586-109Q605-113 621.50-115.50Q638-118 651-118Q697-118 720-89.50Q743-61 743 1L743 705L826 705L826 0Q826-60 808.50-102Q791-144 755.50-165Q720-186 664-186Z"  horiz-adv-x="914" vert-adv-y="1000"  />

      
      <glyph glyph-name="uni0139" unicode="&#x0139;" d="M88 0L88 705L171 705L171 72L527 72L527 0L88 0M98 765L216 937L307 937L160 765L98 765Z"  horiz-adv-x="545" vert-adv-y="1000"  />

      
      <glyph glyph-name="uni013D" unicode="&#x013D;" d="M88 0L88 705L171 705L171 72L527 72L527 0L88 0M282 480L282 705L354 705L333 480L282 480Z"  horiz-adv-x="545" vert-adv-y="1000"  />

      
      <glyph glyph-name="uni013B" unicode="&#x013B;" d="M88 0L88 705L171 705L171 72L527 72L527 0L88 0M305-268L269-242Q292-218 299.50-197Q307-176 307-152L328-162L258-162L258-80L357-80L357-140Q357-177 344.50-209.50Q332-242 305-268Z"  horiz-adv-x="545" vert-adv-y="1000"  />

      
      <glyph glyph-name="uni013F" unicode="&#x013F;" d="M88 0L88 705L171 705L171 72L527 72L527 0L88 0M355 342L355 436L457 436L457 342L355 342Z"  horiz-adv-x="545" vert-adv-y="1000"  />

      
      <glyph glyph-name="uni1E36" unicode="&#x1E36;" d="M88 0L88 705L171 705L171 72L527 72L527 0L88 0M262-187L262-99L354-99L354-187L262-187Z"  horiz-adv-x="545" vert-adv-y="1000"  />

      
      <glyph glyph-name="uni01C8" unicode="&#x01C8;" d="M88 0L88 705L171 705L171 72L527 72L527 0L88 0M558-220Q544-220 523-216.50Q502-213 488-208L488-140Q500-144 516-147.50Q532-151 546-151Q588-151 608.50-124.50Q629-98 629-38L629 502L710 502L710-46Q710-132 672.50-176Q635-220 558-220M620 616L620 707L719 707L719 616L620 616Z"  horiz-adv-x="783" vert-adv-y="1000"  />

      
      <glyph glyph-name="uni1E3A" unicode="&#x1E3A;" d="M88 0L88 705L171 705L171 72L527 72L527 0L88 0M160-156L160-101L456-101L456-156L160-156Z"  horiz-adv-x="545" vert-adv-y="1000"  />

      
      <glyph glyph-name="uni0141" unicode="&#x0141;" d="M88 0L88 705L171 705L171 72L527 72L527 0L88 0M12 254L-21 312L339 519L372 461L12 254Z"  horiz-adv-x="545" vert-adv-y="1000"  />

      
      <glyph glyph-name="uni4d" unicode="&#x4d;" d="M89 0L89 705L161 705L444 66L415 66L698 705L770 705L770 0L694 0L694 598L724 598L457 0L402 0L134 598L164 598L164 0L89 0Z"  horiz-adv-x="858" vert-adv-y="1000"  />

      
      <glyph glyph-name="uni1E42" unicode="&#x1E42;" d="M89 0L89 705L161 705L444 66L415 66L698 705L770 705L770 0L694 0L694 598L724 598L457 0L402 0L134 598L164 598L164 0L89 0M383-187L383-99L475-99L475-187L383-187Z"  horiz-adv-x="858" vert-adv-y="1000"  />

      
      <glyph glyph-name="uni4e" unicode="&#x4e;" d="M88 0L88 705L153 705L605 105L582 105L582 705L659 705L659 0L595 0L143 600L165 600L165 0L88 0Z"  horiz-adv-x="747" vert-adv-y="1000"  />

      
      <glyph glyph-name="uni01CA" unicode="&#x01CA;" d="M88 0L88 705L153 705L605 105L582 105L582 705L659 705L659 0L595 0L143 600L165 600L165 0L88 0M826-186Q810-186 789.50-184.50Q769-183 748-178L748-109Q767-113 783.50-115.50Q800-118 813-118Q859-118 882-89.50Q905-61 905 1L905 705L988 705L988 0Q988-60 970.50-102Q953-144 917.50-165Q882-186 826-186Z"  horiz-adv-x="1076" vert-adv-y="1000"  />

      
      <glyph glyph-name="uni0143" unicode="&#x0143;" d="M88 0L88 705L153 705L605 105L582 105L582 705L659 705L659 0L595 0L143 600L165 600L165 0L88 0M344 765L462 937L553 937L406 765L344 765Z"  horiz-adv-x="747" vert-adv-y="1000"  />

      
      <glyph glyph-name="uni0147" unicode="&#x0147;" d="M88 0L88 705L153 705L605 105L582 105L582 705L659 705L659 0L595 0L143 600L165 600L165 0L88 0M337 765L214 937L275 937L375 818L475 937L536 937L413 765L337 765Z"  horiz-adv-x="747" vert-adv-y="1000"  />

      
      <glyph glyph-name="uni0145" unicode="&#x0145;" d="M88 0L88 705L153 705L605 105L582 105L582 705L659 705L659 0L595 0L143 600L165 600L165 0L88 0M372-268L336-242Q359-218 366.50-197Q374-176 374-152L395-162L325-162L325-80L424-80L424-140Q424-177 411.50-209.50Q399-242 372-268Z"  horiz-adv-x="747" vert-adv-y="1000"  />

      
      <glyph glyph-name="uni1E44" unicode="&#x1E44;" d="M88 0L88 705L153 705L605 105L582 105L582 705L659 705L659 0L595 0L143 600L165 600L165 0L88 0M330 807L330 895L420 895L420 807L330 807Z"  horiz-adv-x="747" vert-adv-y="1000"  />

      
      <glyph glyph-name="uni1E46" unicode="&#x1E46;" d="M88 0L88 705L153 705L605 105L582 105L582 705L659 705L659 0L595 0L143 600L165 600L165 0L88 0M329-187L329-99L421-99L421-187L329-187Z"  horiz-adv-x="747" vert-adv-y="1000"  />

      
      <glyph glyph-name="uni014A" unicode="&#x014A;" d="M443-193L437-130L483-126Q531-123 556.50-94.50Q582-66 582-15L582 38L595 0L143 600L165 600L165 0L88 0L88 705L153 705L605 105L582 105L582 705L659 705L659-6Q659-64 640.50-104Q622-144 584-165Q546-186 488-190L443-193Z"  horiz-adv-x="747" vert-adv-y="1000"  />

      
      <glyph glyph-name="uni01CB" unicode="&#x01CB;" d="M88 0L88 705L153 705L605 105L582 105L582 705L659 705L659 0L595 0L143 600L165 600L165 0L88 0M760-220Q746-220 725-216.50Q704-213 690-208L690-140Q702-144 718-147.50Q734-151 748-151Q790-151 810.50-124.50Q831-98 831-38L831 502L912 502L912-46Q912-132 874.50-176Q837-220 760-220M822 616L822 707L921 707L921 616L822 616Z"  horiz-adv-x="985" vert-adv-y="1000"  />

      
      <glyph glyph-name="uni1E48" unicode="&#x1E48;" d="M88 0L88 705L153 705L605 105L582 105L582 705L659 705L659 0L595 0L143 600L165 600L165 0L88 0M227-156L227-101L523-101L523-156L227-156Z"  horiz-adv-x="747" vert-adv-y="1000"  />

      
      <glyph glyph-name="unid1" unicode="&#xd1;" d="M88 0L88 705L153 705L605 105L582 105L582 705L659 705L659 0L595 0L143 600L165 600L165 0L88 0M212 783L166 786Q172 850 204.50 884.50Q237 919 286 919Q309 919 332.50 909.50Q356 900 389 878Q420 859 436 851Q452 843 467 843Q497 843 514 863.50Q531 884 538 922L584 919Q578 855 546 820.50Q514 786 465 786Q442 786 418 796Q394 806 358 829Q331 847 314 854.50Q297 862 283 862Q253 862 236 841.50Q219 821 212 783Z"  horiz-adv-x="747" vert-adv-y="1000"  />

      
      <glyph glyph-name="uni4f" unicode="&#x4f;" d="M62 353Q62 465 100.50 545.50Q139 626 211.50 670Q284 714 386 714Q485 714 558 670Q631 626 670.50 545.50Q710 465 710 354Q710 242 670 161Q630 80 557.50 35.50Q485-9 386-9Q284-9 212 35.50Q140 80 101 161Q62 242 62 353M149 353Q149 217 209 140.50Q269 64 386 64Q498 64 560.50 140.50Q623 217 623 353Q623 490 561 565.50Q499 641 386 641Q269 641 209 565.50Q149 490 149 353Z"  horiz-adv-x="772" vert-adv-y="1000"  />

      
      <glyph glyph-name="unid3" unicode="&#xd3;" d="M62 353Q62 465 100.50 545.50Q139 626 211.50 670Q284 714 386 714Q485 714 558 670Q631 626 670.50 545.50Q710 465 710 354Q710 242 670 161Q630 80 557.50 35.50Q485-9 386-9Q284-9 212 35.50Q140 80 101 161Q62 242 62 353M149 353Q149 217 209 140.50Q269 64 386 64Q498 64 560.50 140.50Q623 217 623 353Q623 490 561 565.50Q499 641 386 641Q269 641 209 565.50Q149 490 149 353M355 765L473 937L564 937L417 765L355 765Z"  horiz-adv-x="772" vert-adv-y="1000"  />

      
      <glyph glyph-name="uni014E" unicode="&#x014E;" d="M62 353Q62 465 100.50 545.50Q139 626 211.50 670Q284 714 386 714Q485 714 558 670Q631 626 670.50 545.50Q710 465 710 354Q710 242 670 161Q630 80 557.50 35.50Q485-9 386-9Q284-9 212 35.50Q140 80 101 161Q62 242 62 353M149 353Q149 217 209 140.50Q269 64 386 64Q498 64 560.50 140.50Q623 217 623 353Q623 490 561 565.50Q499 641 386 641Q269 641 209 565.50Q149 490 149 353M386 760Q315 760 269 805Q223 850 217 928L268 935Q273 878 304 846Q335 814 386 814Q437 814 468.50 846Q500 878 504 935L555 928Q549 850 503 805Q457 760 386 760Z"  horiz-adv-x="772" vert-adv-y="1000"  />

      
      <glyph glyph-name="unid4" unicode="&#xd4;" d="M62 353Q62 465 100.50 545.50Q139 626 211.50 670Q284 714 386 714Q485 714 558 670Q631 626 670.50 545.50Q710 465 710 354Q710 242 670 161Q630 80 557.50 35.50Q485-9 386-9Q284-9 212 35.50Q140 80 101 161Q62 242 62 353M149 353Q149 217 209 140.50Q269 64 386 64Q498 64 560.50 140.50Q623 217 623 353Q623 490 561 565.50Q499 641 386 641Q269 641 209 565.50Q149 490 149 353M225 765L348 937L424 937L547 765L486 765L386 884L286 765L225 765Z"  horiz-adv-x="772" vert-adv-y="1000"  />

      
      <glyph glyph-name="uni1ED0" unicode="&#x1ED0;" d="M62 353Q62 465 100.50 545.50Q139 626 211.50 670Q284 714 386 714Q485 714 558 670Q631 626 670.50 545.50Q710 465 710 354Q710 242 670 161Q630 80 557.50 35.50Q485-9 386-9Q284-9 212 35.50Q140 80 101 161Q62 242 62 353M149 353Q149 217 209 140.50Q269 64 386 64Q498 64 560.50 140.50Q623 217 623 353Q623 490 561 565.50Q499 641 386 641Q269 641 209 565.50Q149 490 149 353M238 765L347 927L425 927L534 765L479 765L386 875L293 765L238 765M480 869L566 1019L644 1019L533 869L480 869Z"  horiz-adv-x="772" vert-adv-y="1000"  />

      
      <glyph glyph-name="uni1ED8" unicode="&#x1ED8;" d="M62 353Q62 465 100.50 545.50Q139 626 211.50 670Q284 714 386 714Q485 714 558 670Q631 626 670.50 545.50Q710 465 710 354Q710 242 670 161Q630 80 557.50 35.50Q485-9 386-9Q284-9 212 35.50Q140 80 101 161Q62 242 62 353M149 353Q149 217 209 140.50Q269 64 386 64Q498 64 560.50 140.50Q623 217 623 353Q623 490 561 565.50Q499 641 386 641Q269 641 209 565.50Q149 490 149 353M340-187L340-99L432-99L432-187L340-187M225 765L348 937L424 937L547 765L486 765L386 884L286 765L225 765Z"  horiz-adv-x="772" vert-adv-y="1000"  />

      
      <glyph glyph-name="uni1ED2" unicode="&#x1ED2;" d="M62 353Q62 465 100.50 545.50Q139 626 211.50 670Q284 714 386 714Q485 714 558 670Q631 626 670.50 545.50Q710 465 710 354Q710 242 670 161Q630 80 557.50 35.50Q485-9 386-9Q284-9 212 35.50Q140 80 101 161Q62 242 62 353M149 353Q149 217 209 140.50Q269 64 386 64Q498 64 560.50 140.50Q623 217 623 353Q623 490 561 565.50Q499 641 386 641Q269 641 209 565.50Q149 490 149 353M238 765L347 927L425 927L534 765L479 765L386 875L293 765L238 765M520 869L409 1019L487 1019L573 869L520 869Z"  horiz-adv-x="772" vert-adv-y="1000"  />

      
      <glyph glyph-name="uni1ED4" unicode="&#x1ED4;" d="M62 353Q62 465 100.50 545.50Q139 626 211.50 670Q284 714 386 714Q485 714 558 670Q631 626 670.50 545.50Q710 465 710 354Q710 242 670 161Q630 80 557.50 35.50Q485-9 386-9Q284-9 212 35.50Q140 80 101 161Q62 242 62 353M149 353Q149 217 209 140.50Q269 64 386 64Q498 64 560.50 140.50Q623 217 623 353Q623 490 561 565.50Q499 641 386 641Q269 641 209 565.50Q149 490 149 353M238 765L347 927L425 927L534 765L479 765L386 875L293 765L238 765M487 869Q487 890 496 903Q505 916 517 924.50Q529 933 537.50 941Q546 949 546 960Q546 972 535 976Q524 980 502 980Q489 980 474 977.50Q459 975 442 968L430 1005Q447 1014 468.50 1018.50Q490 1023 516 1023Q559 1023 582.50 1009Q606 995 606 971Q606 951 596 939.50Q586 928 572 918.50Q558 909 548 898Q538 887 538 869L487 869Z"  horiz-adv-x="772" vert-adv-y="1000"  />

      
      <glyph glyph-name="uni1ED6" unicode="&#x1ED6;" d="M62 353Q62 465 100.50 545.50Q139 626 211.50 670Q284 714 386 714Q485 714 558 670Q631 626 670.50 545.50Q710 465 710 354Q710 242 670 161Q630 80 557.50 35.50Q485-9 386-9Q284-9 212 35.50Q140 80 101 161Q62 242 62 353M149 353Q149 217 209 140.50Q269 64 386 64Q498 64 560.50 140.50Q623 217 623 353Q623 490 561 565.50Q499 641 386 641Q269 641 209 565.50Q149 490 149 353M238 765L347 897L425 897L534 765L480 765L386 850L292 765L238 765M273 919L228 922Q232 972 257.50 998Q283 1024 322 1024Q341 1024 357.50 1016.50Q374 1009 395 994Q417 980 428 975.50Q439 971 449 971Q472 971 483.50 983.50Q495 996 499 1025L544 1022Q541 972 516 946Q491 920 451 920Q432 920 414.50 928.50Q397 937 372 953Q361 960 349 966.50Q337 973 323 973Q301 973 289.50 960.50Q278 948 273 919Z"  horiz-adv-x="772" vert-adv-y="1000"  />

      
      <glyph glyph-name="uni020C" unicode="&#x020C;" d="M62 353Q62 465 100.50 545.50Q139 626 211.50 670Q284 714 386 714Q485 714 558 670Q631 626 670.50 545.50Q710 465 710 354Q710 242 670 161Q630 80 557.50 35.50Q485-9 386-9Q284-9 212 35.50Q140 80 101 161Q62 242 62 353M149 353Q149 217 209 140.50Q269 64 386 64Q498 64 560.50 140.50Q623 217 623 353Q623 490 561 565.50Q499 641 386 641Q269 641 209 565.50Q149 490 149 353M426 765L307 937L388 937L473 765L426 765M299 765L177 937L257 937L346 765L299 765Z"  horiz-adv-x="772" vert-adv-y="1000"  />

      
      <glyph glyph-name="unid6" unicode="&#xd6;" d="M62 353Q62 465 100.50 545.50Q139 626 211.50 670Q284 714 386 714Q485 714 558 670Q631 626 670.50 545.50Q710 465 710 354Q710 242 670 161Q630 80 557.50 35.50Q485-9 386-9Q284-9 212 35.50Q140 80 101 161Q62 242 62 353M149 353Q149 217 209 140.50Q269 64 386 64Q498 64 560.50 140.50Q623 217 623 353Q623 490 561 565.50Q499 641 386 641Q269 641 209 565.50Q149 490 149 353M430 806L430 892L516 892L516 806L430 806M256 806L256 892L342 892L342 806L256 806Z"  horiz-adv-x="772" vert-adv-y="1000"  />

      
      <glyph glyph-name="uni022A" unicode="&#x022A;" d="M62 353Q62 465 100.50 545.50Q139 626 211.50 670Q284 714 386 714Q485 714 558 670Q631 626 670.50 545.50Q710 465 710 354Q710 242 670 161Q630 80 557.50 35.50Q485-9 386-9Q284-9 212 35.50Q140 80 101 161Q62 242 62 353M149 353Q149 217 209 140.50Q269 64 386 64Q498 64 560.50 140.50Q623 217 623 353Q623 490 561 565.50Q499 641 386 641Q269 641 209 565.50Q149 490 149 353M238 926L238 981L534 981L534 926L238 926M256 798L256 870L342 870L342 798L256 798M430 798L430 870L516 870L516 798L430 798Z"  horiz-adv-x="772" vert-adv-y="1000"  />

      
      <glyph glyph-name="uni0230" unicode="&#x0230;" d="M62 353Q62 465 100.50 545.50Q139 626 211.50 670Q284 714 386 714Q485 714 558 670Q631 626 670.50 545.50Q710 465 710 354Q710 242 670 161Q630 80 557.50 35.50Q485-9 386-9Q284-9 212 35.50Q140 80 101 161Q62 242 62 353M149 353Q149 217 209 140.50Q269 64 386 64Q498 64 560.50 140.50Q623 217 623 353Q623 490 561 565.50Q499 641 386 641Q269 641 209 565.50Q149 490 149 353M238 926L238 981L534 981L534 926L238 926M343 798L343 870L430 870L430 798L343 798Z"  horiz-adv-x="772" vert-adv-y="1000"  />

      
      <glyph glyph-name="uni1ECC" unicode="&#x1ECC;" d="M62 353Q62 465 100.50 545.50Q139 626 211.50 670Q284 714 386 714Q485 714 558 670Q631 626 670.50 545.50Q710 465 710 354Q710 242 670 161Q630 80 557.50 35.50Q485-9 386-9Q284-9 212 35.50Q140 80 101 161Q62 242 62 353M149 353Q149 217 209 140.50Q269 64 386 64Q498 64 560.50 140.50Q623 217 623 353Q623 490 561 565.50Q499 641 386 641Q269 641 209 565.50Q149 490 149 353M340-187L340-99L432-99L432-187L340-187Z"  horiz-adv-x="772" vert-adv-y="1000"  />

      
      <glyph glyph-name="unid2" unicode="&#xd2;" d="M62 353Q62 465 100.50 545.50Q139 626 211.50 670Q284 714 386 714Q485 714 558 670Q631 626 670.50 545.50Q710 465 710 354Q710 242 670 161Q630 80 557.50 35.50Q485-9 386-9Q284-9 212 35.50Q140 80 101 161Q62 242 62 353M149 353Q149 217 209 140.50Q269 64 386 64Q498 64 560.50 140.50Q623 217 623 353Q623 490 561 565.50Q499 641 386 641Q269 641 209 565.50Q149 490 149 353M355 765L208 937L299 937L417 765L355 765Z"  horiz-adv-x="772" vert-adv-y="1000"  />

      
      <glyph glyph-name="uni1ECE" unicode="&#x1ECE;" d="M62 353Q62 465 100.50 545.50Q139 626 211.50 670Q284 714 386 714Q485 714 558 670Q631 626 670.50 545.50Q710 465 710 354Q710 242 670 161Q630 80 557.50 35.50Q485-9 386-9Q284-9 212 35.50Q140 80 101 161Q62 242 62 353M149 353Q149 217 209 140.50Q269 64 386 64Q498 64 560.50 140.50Q623 217 623 353Q623 490 561 565.50Q499 641 386 641Q269 641 209 565.50Q149 490 149 353M358 765L358 781Q358 801 367.50 813.50Q377 826 389.50 835Q402 844 411.50 852Q421 860 421 872Q421 883 409.50 889Q398 895 375 895Q359 895 344.50 892Q330 889 311 880L298 923Q335 943 391 943Q436 943 461.50 926Q487 909 487 881Q487 860 476 847Q465 834 450.50 825.50Q436 817 425 806Q414 795 414 776L414 765L358 765Z"  horiz-adv-x="772" vert-adv-y="1000"  />

      
      <glyph glyph-name="uni01A0" unicode="&#x01A0;" d="M62 353Q62 465 100.50 545.50Q139 626 211.50 670Q284 714 386 714Q485 714 558 670Q631 626 670.50 545.50Q710 465 710 354Q710 242 670 161Q630 80 557.50 35.50Q485-9 386-9Q284-9 212 35.50Q140 80 101 161Q62 242 62 353M149 353Q149 217 209 140.50Q269 64 386 64Q498 64 560.50 140.50Q623 217 623 353Q623 490 561 565.50Q499 641 386 641Q269 641 209 565.50Q149 490 149 353M496 655L447 709Q473 707 492 706Q511 705 530 705Q573 705 596.50 716.50Q620 728 630 753.50Q640 779 640 818L640 835L712 835L712 807Q712 762 694.50 727.50Q677 693 645 674Q613 655 569 655L496 655Z"  horiz-adv-x="772" vert-adv-y="1000"  />

      
      <glyph glyph-name="uni1EDA" unicode="&#x1EDA;" d="M62 353Q62 465 100.50 545.50Q139 626 211.50 670Q284 714 386 714Q485 714 558 670Q631 626 670.50 545.50Q710 465 710 354Q710 242 670 161Q630 80 557.50 35.50Q485-9 386-9Q284-9 212 35.50Q140 80 101 161Q62 242 62 353M149 353Q149 217 209 140.50Q269 64 386 64Q498 64 560.50 140.50Q623 217 623 353Q623 490 561 565.50Q499 641 386 641Q269 641 209 565.50Q149 490 149 353M496 655L447 709Q473 707 492 706Q511 705 530 705Q573 705 596.50 716.50Q620 728 630 753.50Q640 779 640 818L640 835L712 835L712 807Q712 762 694.50 727.50Q677 693 645 674Q613 655 569 655L496 655M363 765L481 937L572 937L425 765L363 765Z"  horiz-adv-x="772" vert-adv-y="1000"  />

      
      <glyph glyph-name="uni1EE2" unicode="&#x1EE2;" d="M62 353Q62 465 100.50 545.50Q139 626 211.50 670Q284 714 386 714Q485 714 558 670Q631 626 670.50 545.50Q710 465 710 354Q710 242 670 161Q630 80 557.50 35.50Q485-9 386-9Q284-9 212 35.50Q140 80 101 161Q62 242 62 353M149 353Q149 217 209 140.50Q269 64 386 64Q498 64 560.50 140.50Q623 217 623 353Q623 490 561 565.50Q499 641 386 641Q269 641 209 565.50Q149 490 149 353M496 655L447 709Q473 707 492 706Q511 705 530 705Q573 705 596.50 716.50Q620 728 630 753.50Q640 779 640 818L640 835L712 835L712 807Q712 762 694.50 727.50Q677 693 645 674Q613 655 569 655L496 655M349-187L349-99L441-99L441-187L349-187Z"  horiz-adv-x="772" vert-adv-y="1000"  />

      
      <glyph glyph-name="uni1EDC" unicode="&#x1EDC;" d="M62 353Q62 465 100.50 545.50Q139 626 211.50 670Q284 714 386 714Q485 714 558 670Q631 626 670.50 545.50Q710 465 710 354Q710 242 670 161Q630 80 557.50 35.50Q485-9 386-9Q284-9 212 35.50Q140 80 101 161Q62 242 62 353M149 353Q149 217 209 140.50Q269 64 386 64Q498 64 560.50 140.50Q623 217 623 353Q623 490 561 565.50Q499 641 386 641Q269 641 209 565.50Q149 490 149 353M496 655L447 709Q473 707 492 706Q511 705 530 705Q573 705 596.50 716.50Q620 728 630 753.50Q640 779 640 818L640 835L712 835L712 807Q712 762 694.50 727.50Q677 693 645 674Q613 655 569 655L496 655M363 765L216 937L307 937L425 765L363 765Z"  horiz-adv-x="772" vert-adv-y="1000"  />

      
      <glyph glyph-name="uni1EDE" unicode="&#x1EDE;" d="M62 353Q62 465 100.50 545.50Q139 626 211.50 670Q284 714 386 714Q485 714 558 670Q631 626 670.50 545.50Q710 465 710 354Q710 242 670 161Q630 80 557.50 35.50Q485-9 386-9Q284-9 212 35.50Q140 80 101 161Q62 242 62 353M149 353Q149 217 209 140.50Q269 64 386 64Q498 64 560.50 140.50Q623 217 623 353Q623 490 561 565.50Q499 641 386 641Q269 641 209 565.50Q149 490 149 353M496 655L447 709Q473 707 492 706Q511 705 530 705Q573 705 596.50 716.50Q620 728 630 753.50Q640 779 640 818L640 835L712 835L712 807Q712 762 694.50 727.50Q677 693 645 674Q613 655 569 655L496 655M366 765L366 781Q366 801 375.50 813.50Q385 826 397.50 835Q410 844 419.50 852Q429 860 429 872Q429 883 417.50 889Q406 895 383 895Q367 895 352.50 892Q338 889 319 880L306 923Q343 943 399 943Q444 943 469.50 926Q495 909 495 881Q495 860 484 847Q473 834 458.50 825.50Q444 817 433 806Q422 795 422 776L422 765L366 765Z"  horiz-adv-x="772" vert-adv-y="1000"  />

      
      <glyph glyph-name="uni1EE0" unicode="&#x1EE0;" d="M62 353Q62 465 100.50 545.50Q139 626 211.50 670Q284 714 386 714Q485 714 558 670Q631 626 670.50 545.50Q710 465 710 354Q710 242 670 161Q630 80 557.50 35.50Q485-9 386-9Q284-9 212 35.50Q140 80 101 161Q62 242 62 353M149 353Q149 217 209 140.50Q269 64 386 64Q498 64 560.50 140.50Q623 217 623 353Q623 490 561 565.50Q499 641 386 641Q269 641 209 565.50Q149 490 149 353M496 655L447 709Q473 707 492 706Q511 705 530 705Q573 705 596.50 716.50Q620 728 630 753.50Q640 779 640 818L640 835L712 835L712 807Q712 762 694.50 727.50Q677 693 645 674Q613 655 569 655L496 655M241 783L195 786Q201 850 232 884.50Q263 919 311 919Q335 919 356 908.50Q377 898 401 878Q423 860 438 851.50Q453 843 468 843Q498 843 514.50 863.50Q531 884 537 922L583 919Q577 855 546.50 820.50Q516 786 468 786Q443 786 422 797Q401 808 377 827Q356 846 340 854Q324 862 310 862Q281 862 264.50 841.50Q248 821 241 783Z"  horiz-adv-x="772" vert-adv-y="1000"  />

      
      <glyph glyph-name="uni0150" unicode="&#x0150;" d="M62 353Q62 465 100.50 545.50Q139 626 211.50 670Q284 714 386 714Q485 714 558 670Q631 626 670.50 545.50Q710 465 710 354Q710 242 670 161Q630 80 557.50 35.50Q485-9 386-9Q284-9 212 35.50Q140 80 101 161Q62 242 62 353M149 353Q149 217 209 140.50Q269 64 386 64Q498 64 560.50 140.50Q623 217 623 353Q623 490 561 565.50Q499 641 386 641Q269 641 209 565.50Q149 490 149 353M299 765L384 937L465 937L346 765L299 765M426 765L515 937L595 937L473 765L426 765Z"  horiz-adv-x="772" vert-adv-y="1000"  />

      
      <glyph glyph-name="uni020E" unicode="&#x020E;" d="M62 353Q62 465 100.50 545.50Q139 626 211.50 670Q284 714 386 714Q485 714 558 670Q631 626 670.50 545.50Q710 465 710 354Q710 242 670 161Q630 80 557.50 35.50Q485-9 386-9Q284-9 212 35.50Q140 80 101 161Q62 242 62 353M149 353Q149 217 209 140.50Q269 64 386 64Q498 64 560.50 140.50Q623 217 623 353Q623 490 561 565.50Q499 641 386 641Q269 641 209 565.50Q149 490 149 353M268 760L217 766Q223 845 269 890Q315 935 386 935Q457 935 503 890Q549 845 555 766L504 760Q500 818 468.50 849.50Q437 881 386 881Q335 881 304 849.50Q273 818 268 760Z"  horiz-adv-x="772" vert-adv-y="1000"  />

      
      <glyph glyph-name="uni014C" unicode="&#x014C;" d="M62 353Q62 465 100.50 545.50Q139 626 211.50 670Q284 714 386 714Q485 714 558 670Q631 626 670.50 545.50Q710 465 710 354Q710 242 670 161Q630 80 557.50 35.50Q485-9 386-9Q284-9 212 35.50Q140 80 101 161Q62 242 62 353M149 353Q149 217 209 140.50Q269 64 386 64Q498 64 560.50 140.50Q623 217 623 353Q623 490 561 565.50Q499 641 386 641Q269 641 209 565.50Q149 490 149 353M223 814L223 869L549 869L549 814L223 814Z"  horiz-adv-x="772" vert-adv-y="1000"  />

      
      <glyph glyph-name="uni1E52" unicode="&#x1E52;" d="M62 353Q62 465 100.50 545.50Q139 626 211.50 670Q284 714 386 714Q485 714 558 670Q631 626 670.50 545.50Q710 465 710 354Q710 242 670 161Q630 80 557.50 35.50Q485-9 386-9Q284-9 212 35.50Q140 80 101 161Q62 242 62 353M149 353Q149 217 209 140.50Q269 64 386 64Q498 64 560.50 140.50Q623 217 623 353Q623 490 561 565.50Q499 641 386 641Q269 641 209 565.50Q149 490 149 353M238 790L238 845L534 845L534 790L238 790M358 882L444 1023L529 1023L414 882L358 882Z"  horiz-adv-x="772" vert-adv-y="1000"  />

      
      <glyph glyph-name="uni1E50" unicode="&#x1E50;" d="M62 353Q62 465 100.50 545.50Q139 626 211.50 670Q284 714 386 714Q485 714 558 670Q631 626 670.50 545.50Q710 465 710 354Q710 242 670 161Q630 80 557.50 35.50Q485-9 386-9Q284-9 212 35.50Q140 80 101 161Q62 242 62 353M149 353Q149 217 209 140.50Q269 64 386 64Q498 64 560.50 140.50Q623 217 623 353Q623 490 561 565.50Q499 641 386 641Q269 641 209 565.50Q149 490 149 353M358 882L243 1023L328 1023L414 882L358 882M238 790L238 845L534 845L534 790L238 790Z"  horiz-adv-x="772" vert-adv-y="1000"  />

      
      <glyph glyph-name="uni01EA" unicode="&#x01EA;" d="M62 353Q62 465 100.50 545.50Q139 626 211.50 670Q284 714 386 714Q485 714 558 670Q631 626 670.50 545.50Q710 465 710 354Q710 242 670 161Q630 80 557.50 35.50Q485-9 386-9Q284-9 212 35.50Q140 80 101 161Q62 242 62 353M149 353Q149 217 209 140.50Q269 64 386 64Q498 64 560.50 140.50Q623 217 623 353Q623 490 561 565.50Q499 641 386 641Q269 641 209 565.50Q149 490 149 353M428-192Q380-192 351-166Q322-140 322-95Q322-55 348-19.50Q374 16 418 36L447 0Q431-6 415.50-18.50Q400-31 390-48Q380-65 380-86Q380-114 397-128Q414-142 438-142Q452-142 465-139Q478-136 492-130L506-175Q492-183 472-187.50Q452-192 428-192Z"  horiz-adv-x="772" vert-adv-y="1000"  />

      
      <glyph glyph-name="unid8" unicode="&#xd8;" d="M62 353Q62 465 100.50 545.50Q139 626 211.50 670Q284 714 386 714Q485 714 558 670Q631 626 670.50 545.50Q710 465 710 354Q710 242 670 161Q630 80 557.50 35.50Q485-9 386-9Q284-9 212 35.50Q140 80 101 161Q62 242 62 353M149 353Q149 217 209 140.50Q269 64 386 64Q498 64 560.50 140.50Q623 217 623 353Q623 490 561 565.50Q499 641 386 641Q269 641 209 565.50Q149 490 149 353M247 46L193-47L137-14L191 79L217 116L513 623L530 660L584 752L640 719L586 626L560 590L264 82L247 46Z"  horiz-adv-x="772" vert-adv-y="1000"  />

      
      <glyph glyph-name="uni01FE" unicode="&#x01FE;" d="M62 353Q62 465 100.50 545.50Q139 626 211.50 670Q284 714 386 714Q485 714 558 670Q631 626 670.50 545.50Q710 465 710 354Q710 242 670 161Q630 80 557.50 35.50Q485-9 386-9Q284-9 212 35.50Q140 80 101 161Q62 242 62 353M149 353Q149 217 209 140.50Q269 64 386 64Q498 64 560.50 140.50Q623 217 623 353Q623 490 561 565.50Q499 641 386 641Q269 641 209 565.50Q149 490 149 353M247 46L193-47L137-14L191 79L217 116L513 623L530 660L584 752L640 719L586 626L560 590L264 82L247 46M355 765L473 937L564 937L417 765L355 765Z"  horiz-adv-x="772" vert-adv-y="1000"  />

      
      <glyph glyph-name="unid5" unicode="&#xd5;" d="M62 353Q62 465 100.50 545.50Q139 626 211.50 670Q284 714 386 714Q485 714 558 670Q631 626 670.50 545.50Q710 465 710 354Q710 242 670 161Q630 80 557.50 35.50Q485-9 386-9Q284-9 212 35.50Q140 80 101 161Q62 242 62 353M149 353Q149 217 209 140.50Q269 64 386 64Q498 64 560.50 140.50Q623 217 623 353Q623 490 561 565.50Q499 641 386 641Q269 641 209 565.50Q149 490 149 353M223 783L177 786Q183 850 215.50 884.50Q248 919 297 919Q320 919 343.50 909.50Q367 900 400 878Q431 859 447 851Q463 843 478 843Q508 843 525 863.50Q542 884 549 922L595 919Q589 855 557 820.50Q525 786 476 786Q453 786 429 796Q405 806 369 829Q342 847 325 854.50Q308 862 294 862Q264 862 247 841.50Q230 821 223 783Z"  horiz-adv-x="772" vert-adv-y="1000"  />

      
      <glyph glyph-name="uni1E4C" unicode="&#x1E4C;" d="M62 353Q62 465 100.50 545.50Q139 626 211.50 670Q284 714 386 714Q485 714 558 670Q631 626 670.50 545.50Q710 465 710 354Q710 242 670 161Q630 80 557.50 35.50Q485-9 386-9Q284-9 212 35.50Q140 80 101 161Q62 242 62 353M149 353Q149 217 209 140.50Q269 64 386 64Q498 64 560.50 140.50Q623 217 623 353Q623 490 561 565.50Q499 641 386 641Q269 641 209 565.50Q149 490 149 353M358 882L444 1023L529 1023L414 882L358 882M451 768Q433 768 415.50 775Q398 782 376 797Q356 812 344.50 816Q333 820 323 820Q301 820 289.50 807Q278 794 273 766L228 768Q232 819 257.50 844.50Q283 870 322 870Q339 870 354.50 864Q370 858 393 843Q414 828 426 823Q438 818 449 818Q472 818 483.50 830.50Q495 843 499 872L544 869Q540 818 515 793Q490 768 451 768Z"  horiz-adv-x="772" vert-adv-y="1000"  />

      
      <glyph glyph-name="uni1E4E" unicode="&#x1E4E;" d="M62 353Q62 465 100.50 545.50Q139 626 211.50 670Q284 714 386 714Q485 714 558 670Q631 626 670.50 545.50Q710 465 710 354Q710 242 670 161Q630 80 557.50 35.50Q485-9 386-9Q284-9 212 35.50Q140 80 101 161Q62 242 62 353M149 353Q149 217 209 140.50Q269 64 386 64Q498 64 560.50 140.50Q623 217 623 353Q623 490 561 565.50Q499 641 386 641Q269 641 209 565.50Q149 490 149 353M451 768Q433 768 415.50 775Q398 782 376 797Q356 812 344.50 816Q333 820 323 820Q301 820 289.50 807Q278 794 273 766L228 768Q232 819 257.50 844.50Q283 870 322 870Q339 870 354.50 864Q370 858 393 843Q414 828 426 823Q438 818 449 818Q472 818 483.50 830.50Q495 843 499 872L544 869Q540 818 515 793Q490 768 451 768M256 911L256 985L342 985L342 911L256 911M430 911L430 985L516 985L516 911L430 911Z"  horiz-adv-x="772" vert-adv-y="1000"  />

      
      <glyph glyph-name="uni022C" unicode="&#x022C;" d="M62 353Q62 465 100.50 545.50Q139 626 211.50 670Q284 714 386 714Q485 714 558 670Q631 626 670.50 545.50Q710 465 710 354Q710 242 670 161Q630 80 557.50 35.50Q485-9 386-9Q284-9 212 35.50Q140 80 101 161Q62 242 62 353M149 353Q149 217 209 140.50Q269 64 386 64Q498 64 560.50 140.50Q623 217 623 353Q623 490 561 565.50Q499 641 386 641Q269 641 209 565.50Q149 490 149 353M238 926L238 981L534 981L534 926L238 926M451 768Q433 768 415.50 775Q398 782 376 797Q356 812 344.50 816Q333 820 323 820Q301 820 289.50 807Q278 794 273 766L228 768Q232 819 257.50 844.50Q283 870 322 870Q339 870 354.50 864Q370 858 393 843Q414 828 426 823Q438 818 449 818Q472 818 483.50 830.50Q495 843 499 872L544 869Q540 818 515 793Q490 768 451 768Z"  horiz-adv-x="772" vert-adv-y="1000"  />

      
      <glyph glyph-name="uni0152" unicode="&#x0152;" d="M559 0L559 705L1006 705L1006 637L640 637L640 392L985 392L985 323L640 323L640 69L1006 69L1006 0L559 0M381-9Q281-9 209.50 35.50Q138 80 100 161Q62 242 62 353Q62 465 99.50 545.50Q137 626 208.50 670Q280 714 381 714Q438 714 488 701Q538 688 574 655L574 559Q545 604 497 622.50Q449 641 386 641Q269 641 209 565.50Q149 490 149 353Q149 217 209 140.50Q269 64 386 64Q451 64 500 86Q549 108 578 155L578 60Q554 37 523 22Q492 7 456-1Q420-9 381-9Z"  horiz-adv-x="1056" vert-adv-y="1000"  />

      
      <glyph glyph-name="uni50" unicode="&#x50;" d="M88 0L88 705L375 705Q486 705 546 651.50Q606 598 606 503Q606 410 546 355.50Q486 301 375 301L171 301L171 0L88 0M171 370L367 370Q444 370 483.50 405Q523 440 523 503Q523 567 483.50 602Q444 637 367 637L171 637L171 370Z"  horiz-adv-x="651" vert-adv-y="1000"  />

      
      <glyph glyph-name="unide" unicode="&#xde;" d="M88 0L88 705L171 705L171 570L373 570Q483 570 544.50 516.50Q606 463 606 368Q606 274 544.50 220Q483 166 373 166L171 166L171 0L88 0M171 235L367 235Q444 235 483.50 270Q523 305 523 368Q523 432 483.50 467Q444 502 367 502L171 502L171 235Z"  horiz-adv-x="652" vert-adv-y="1000"  />

      
      <glyph glyph-name="uni51" unicode="&#x51;" d="M576-191Q547-172 516-142Q485-112 457.50-75Q430-38 410-1L483 26Q509-26 550-68.50Q591-111 633-142L576-191M62 353Q62 465 100.50 545.50Q139 626 211.50 670Q284 714 386 714Q485 714 558 670Q631 626 670.50 545.50Q710 465 710 354Q710 242 670 161Q630 80 557.50 35.50Q485-9 386-9Q284-9 212 35.50Q140 80 101 161Q62 242 62 353M149 353Q149 217 209 140.50Q269 64 386 64Q498 64 560.50 140.50Q623 217 623 353Q623 490 561 565.50Q499 641 386 641Q269 641 209 565.50Q149 490 149 353Z"  horiz-adv-x="772" vert-adv-y="1000"  />

      
      <glyph glyph-name="uni52" unicode="&#x52;" d="M88 0L88 705L376 705Q487 705 548 652.50Q609 600 609 506Q609 444 581.50 400.50Q554 357 504.50 334Q455 311 389 311L407 324L427 324Q468 324 500.50 304Q533 284 552 237L652 0L561 0L465 233Q448 278 414 291.50Q380 305 329 305L171 305L171 0L88 0M171 370L364 370Q444 370 485.50 404.50Q527 439 527 504Q527 569 485.50 603Q444 637 364 637L171 637L171 370Z"  horiz-adv-x="692" vert-adv-y="1000"  />

      
      <glyph glyph-name="uni0154" unicode="&#x0154;" d="M88 0L88 705L376 705Q487 705 548 652.50Q609 600 609 506Q609 444 581.50 400.50Q554 357 504.50 334Q455 311 389 311L407 324L427 324Q468 324 500.50 304Q533 284 552 237L652 0L561 0L465 233Q448 278 414 291.50Q380 305 329 305L171 305L171 0L88 0M171 370L364 370Q444 370 485.50 404.50Q527 439 527 504Q527 569 485.50 603Q444 637 364 637L171 637L171 370M315 765L433 937L524 937L377 765L315 765Z"  horiz-adv-x="692" vert-adv-y="1000"  />

      
      <glyph glyph-name="uni0158" unicode="&#x0158;" d="M88 0L88 705L376 705Q487 705 548 652.50Q609 600 609 506Q609 444 581.50 400.50Q554 357 504.50 334Q455 311 389 311L407 324L427 324Q468 324 500.50 304Q533 284 552 237L652 0L561 0L465 233Q448 278 414 291.50Q380 305 329 305L171 305L171 0L88 0M171 370L364 370Q444 370 485.50 404.50Q527 439 527 504Q527 569 485.50 603Q444 637 364 637L171 637L171 370M308 765L185 937L246 937L346 818L446 937L507 937L384 765L308 765Z"  horiz-adv-x="692" vert-adv-y="1000"  />

      
      <glyph glyph-name="uni0156" unicode="&#x0156;" d="M88 0L88 705L376 705Q487 705 548 652.50Q609 600 609 506Q609 444 581.50 400.50Q554 357 504.50 334Q455 311 389 311L407 324L427 324Q468 324 500.50 304Q533 284 552 237L652 0L561 0L465 233Q448 278 414 291.50Q380 305 329 305L171 305L171 0L88 0M171 370L364 370Q444 370 485.50 404.50Q527 439 527 504Q527 569 485.50 603Q444 637 364 637L171 637L171 370M343-268L307-242Q330-218 337.50-197Q345-176 345-152L366-162L296-162L296-80L395-80L395-140Q395-177 382.50-209.50Q370-242 343-268Z"  horiz-adv-x="692" vert-adv-y="1000"  />

      
      <glyph glyph-name="uni0210" unicode="&#x0210;" d="M88 0L88 705L376 705Q487 705 548 652.50Q609 600 609 506Q609 444 581.50 400.50Q554 357 504.50 334Q455 311 389 311L407 324L427 324Q468 324 500.50 304Q533 284 552 237L652 0L561 0L465 233Q448 278 414 291.50Q380 305 329 305L171 305L171 0L88 0M171 370L364 370Q444 370 485.50 404.50Q527 439 527 504Q527 569 485.50 603Q444 637 364 637L171 637L171 370M386 765L267 937L348 937L433 765L386 765M259 765L137 937L217 937L306 765L259 765Z"  horiz-adv-x="692" vert-adv-y="1000"  />

      
      <glyph glyph-name="uni1E5A" unicode="&#x1E5A;" d="M88 0L88 705L376 705Q487 705 548 652.50Q609 600 609 506Q609 444 581.50 400.50Q554 357 504.50 334Q455 311 389 311L407 324L427 324Q468 324 500.50 304Q533 284 552 237L652 0L561 0L465 233Q448 278 414 291.50Q380 305 329 305L171 305L171 0L88 0M171 370L364 370Q444 370 485.50 404.50Q527 439 527 504Q527 569 485.50 603Q444 637 364 637L171 637L171 370M300-187L300-99L392-99L392-187L300-187Z"  horiz-adv-x="692" vert-adv-y="1000"  />

      
      <glyph glyph-name="uni0212" unicode="&#x0212;" d="M88 0L88 705L376 705Q487 705 548 652.50Q609 600 609 506Q609 444 581.50 400.50Q554 357 504.50 334Q455 311 389 311L407 324L427 324Q468 324 500.50 304Q533 284 552 237L652 0L561 0L465 233Q448 278 414 291.50Q380 305 329 305L171 305L171 0L88 0M171 370L364 370Q444 370 485.50 404.50Q527 439 527 504Q527 569 485.50 603Q444 637 364 637L171 637L171 370M228 760L177 766Q183 845 229 890Q275 935 346 935Q417 935 463 890Q509 845 515 766L464 760Q460 818 428.50 849.50Q397 881 346 881Q295 881 264 849.50Q233 818 228 760Z"  horiz-adv-x="692" vert-adv-y="1000"  />

      
      <glyph glyph-name="uni1E5E" unicode="&#x1E5E;" d="M88 0L88 705L376 705Q487 705 548 652.50Q609 600 609 506Q609 444 581.50 400.50Q554 357 504.50 334Q455 311 389 311L407 324L427 324Q468 324 500.50 304Q533 284 552 237L652 0L561 0L465 233Q448 278 414 291.50Q380 305 329 305L171 305L171 0L88 0M171 370L364 370Q444 370 485.50 404.50Q527 439 527 504Q527 569 485.50 603Q444 637 364 637L171 637L171 370M198-156L198-101L494-101L494-156L198-156Z"  horiz-adv-x="692" vert-adv-y="1000"  />

      
      <glyph glyph-name="uni53" unicode="&#x53;" d="M318-9Q233-9 166 13Q99 35 49 76L79 142Q114 116 149.50 98.50Q185 81 226 72.50Q267 64 318 64Q407 64 450 97Q493 130 493 185Q493 232 463 257Q433 282 358 297L253 318Q156 338 108.50 383Q61 428 61 505Q61 568 93.50 615Q126 662 185 688Q244 714 322 714Q397 714 459 691.50Q521 669 565 626L536 562Q489 604 437.50 622.50Q386 641 321 641Q239 641 191.50 605.50Q144 570 144 509Q144 460 174 432.50Q204 405 273 391L379 370Q481 349 529 307Q577 265 577 189Q577 131 545.50 86Q514 41 456 16Q398-9 318-9Z"  horiz-adv-x="623" vert-adv-y="1000"  />

      
      <glyph glyph-name="uni015A" unicode="&#x015A;" d="M318-9Q233-9 166 13Q99 35 49 76L79 142Q114 116 149.50 98.50Q185 81 226 72.50Q267 64 318 64Q407 64 450 97Q493 130 493 185Q493 232 463 257Q433 282 358 297L253 318Q156 338 108.50 383Q61 428 61 505Q61 568 93.50 615Q126 662 185 688Q244 714 322 714Q397 714 459 691.50Q521 669 565 626L536 562Q489 604 437.50 622.50Q386 641 321 641Q239 641 191.50 605.50Q144 570 144 509Q144 460 174 432.50Q204 405 273 391L379 370Q481 349 529 307Q577 265 577 189Q577 131 545.50 86Q514 41 456 16Q398-9 318-9M290 765L408 937L499 937L352 765L290 765Z"  horiz-adv-x="623" vert-adv-y="1000"  />

      
      <glyph glyph-name="uni1E64" unicode="&#x1E64;" d="M318-9Q233-9 166 13Q99 35 49 76L79 142Q114 116 149.50 98.50Q185 81 226 72.50Q267 64 318 64Q407 64 450 97Q493 130 493 185Q493 232 463 257Q433 282 358 297L253 318Q156 338 108.50 383Q61 428 61 505Q61 568 93.50 615Q126 662 185 688Q244 714 322 714Q397 714 459 691.50Q521 669 565 626L536 562Q489 604 437.50 622.50Q386 641 321 641Q239 641 191.50 605.50Q144 570 144 509Q144 460 174 432.50Q204 405 273 391L379 370Q481 349 529 307Q577 265 577 189Q577 131 545.50 86Q514 41 456 16Q398-9 318-9M235 940L235 1013L321 1013L321 940L235 940M290 765L408 937L499 937L352 765L290 765Z"  horiz-adv-x="623" vert-adv-y="1000"  />

      
      <glyph glyph-name="uni0160" unicode="&#x0160;" d="M318-9Q233-9 166 13Q99 35 49 76L79 142Q114 116 149.50 98.50Q185 81 226 72.50Q267 64 318 64Q407 64 450 97Q493 130 493 185Q493 232 463 257Q433 282 358 297L253 318Q156 338 108.50 383Q61 428 61 505Q61 568 93.50 615Q126 662 185 688Q244 714 322 714Q397 714 459 691.50Q521 669 565 626L536 562Q489 604 437.50 622.50Q386 641 321 641Q239 641 191.50 605.50Q144 570 144 509Q144 460 174 432.50Q204 405 273 391L379 370Q481 349 529 307Q577 265 577 189Q577 131 545.50 86Q514 41 456 16Q398-9 318-9M283 765L160 937L221 937L321 818L421 937L482 937L359 765L283 765Z"  horiz-adv-x="623" vert-adv-y="1000"  />

      
      <glyph glyph-name="uni1E66" unicode="&#x1E66;" d="M318-9Q233-9 166 13Q99 35 49 76L79 142Q114 116 149.50 98.50Q185 81 226 72.50Q267 64 318 64Q407 64 450 97Q493 130 493 185Q493 232 463 257Q433 282 358 297L253 318Q156 338 108.50 383Q61 428 61 505Q61 568 93.50 615Q126 662 185 688Q244 714 322 714Q397 714 459 691.50Q521 669 565 626L536 562Q489 604 437.50 622.50Q386 641 321 641Q239 641 191.50 605.50Q144 570 144 509Q144 460 174 432.50Q204 405 273 391L379 370Q481 349 529 307Q577 265 577 189Q577 131 545.50 86Q514 41 456 16Q398-9 318-9M282 765L173 925L229 925L321 818L413 925L469 925L360 765L282 765M278 970L278 1043L365 1043L365 970L278 970Z"  horiz-adv-x="623" vert-adv-y="1000"  />

      
      <glyph glyph-name="uni015E" unicode="&#x015E;" d="M318-9Q233-9 166 13Q99 35 49 76L79 142Q114 116 149.50 98.50Q185 81 226 72.50Q267 64 318 64Q407 64 450 97Q493 130 493 185Q493 232 463 257Q433 282 358 297L253 318Q156 338 108.50 383Q61 428 61 505Q61 568 93.50 615Q126 662 185 688Q244 714 322 714Q397 714 459 691.50Q521 669 565 626L536 562Q489 604 437.50 622.50Q386 641 321 641Q239 641 191.50 605.50Q144 570 144 509Q144 460 174 432.50Q204 405 273 391L379 370Q481 349 529 307Q577 265 577 189Q577 131 545.50 86Q514 41 456 16Q398-9 318-9M327-192Q301-192 277.50-187Q254-182 237-173L251-129Q269-137 285.50-141Q302-145 324-145Q351-145 367-135.50Q383-126 383-108Q383-80 345-80Q334-80 323.50-81.50Q313-83 298-89L281-73L296 20L347 20L334-55L310-49Q321-46 333-44Q345-42 355-42Q391-42 415-60Q439-78 439-110Q439-147 408-169.50Q377-192 327-192Z"  horiz-adv-x="623" vert-adv-y="1000"  />

      
      <glyph glyph-name="uni015C" unicode="&#x015C;" d="M318-9Q233-9 166 13Q99 35 49 76L79 142Q114 116 149.50 98.50Q185 81 226 72.50Q267 64 318 64Q407 64 450 97Q493 130 493 185Q493 232 463 257Q433 282 358 297L253 318Q156 338 108.50 383Q61 428 61 505Q61 568 93.50 615Q126 662 185 688Q244 714 322 714Q397 714 459 691.50Q521 669 565 626L536 562Q489 604 437.50 622.50Q386 641 321 641Q239 641 191.50 605.50Q144 570 144 509Q144 460 174 432.50Q204 405 273 391L379 370Q481 349 529 307Q577 265 577 189Q577 131 545.50 86Q514 41 456 16Q398-9 318-9M160 765L283 937L359 937L482 765L421 765L321 884L221 765L160 765Z"  horiz-adv-x="623" vert-adv-y="1000"  />

      
      <glyph glyph-name="uni0218" unicode="&#x0218;" d="M318-9Q233-9 166 13Q99 35 49 76L79 142Q114 116 149.50 98.50Q185 81 226 72.50Q267 64 318 64Q407 64 450 97Q493 130 493 185Q493 232 463 257Q433 282 358 297L253 318Q156 338 108.50 383Q61 428 61 505Q61 568 93.50 615Q126 662 185 688Q244 714 322 714Q397 714 459 691.50Q521 669 565 626L536 562Q489 604 437.50 622.50Q386 641 321 641Q239 641 191.50 605.50Q144 570 144 509Q144 460 174 432.50Q204 405 273 391L379 370Q481 349 529 307Q577 265 577 189Q577 131 545.50 86Q514 41 456 16Q398-9 318-9M321-268L285-242Q308-218 315.50-197Q323-176 323-152L344-162L274-162L274-80L373-80L373-140Q373-177 360.50-209.50Q348-242 321-268Z"  horiz-adv-x="623" vert-adv-y="1000"  />

      
      <glyph glyph-name="uni1E60" unicode="&#x1E60;" d="M318-9Q233-9 166 13Q99 35 49 76L79 142Q114 116 149.50 98.50Q185 81 226 72.50Q267 64 318 64Q407 64 450 97Q493 130 493 185Q493 232 463 257Q433 282 358 297L253 318Q156 338 108.50 383Q61 428 61 505Q61 568 93.50 615Q126 662 185 688Q244 714 322 714Q397 714 459 691.50Q521 669 565 626L536 562Q489 604 437.50 622.50Q386 641 321 641Q239 641 191.50 605.50Q144 570 144 509Q144 460 174 432.50Q204 405 273 391L379 370Q481 349 529 307Q577 265 577 189Q577 131 545.50 86Q514 41 456 16Q398-9 318-9M276 807L276 895L366 895L366 807L276 807Z"  horiz-adv-x="623" vert-adv-y="1000"  />

      
      <glyph glyph-name="uni1E62" unicode="&#x1E62;" d="M318-9Q233-9 166 13Q99 35 49 76L79 142Q114 116 149.50 98.50Q185 81 226 72.50Q267 64 318 64Q407 64 450 97Q493 130 493 185Q493 232 463 257Q433 282 358 297L253 318Q156 338 108.50 383Q61 428 61 505Q61 568 93.50 615Q126 662 185 688Q244 714 322 714Q397 714 459 691.50Q521 669 565 626L536 562Q489 604 437.50 622.50Q386 641 321 641Q239 641 191.50 605.50Q144 570 144 509Q144 460 174 432.50Q204 405 273 391L379 370Q481 349 529 307Q577 265 577 189Q577 131 545.50 86Q514 41 456 16Q398-9 318-9M278-187L278-99L370-99L370-187L278-187Z"  horiz-adv-x="623" vert-adv-y="1000"  />

      
      <glyph glyph-name="uni1E68" unicode="&#x1E68;" d="M318-9Q233-9 166 13Q99 35 49 76L79 142Q114 116 149.50 98.50Q185 81 226 72.50Q267 64 318 64Q407 64 450 97Q493 130 493 185Q493 232 463 257Q433 282 358 297L253 318Q156 338 108.50 383Q61 428 61 505Q61 568 93.50 615Q126 662 185 688Q244 714 322 714Q397 714 459 691.50Q521 669 565 626L536 562Q489 604 437.50 622.50Q386 641 321 641Q239 641 191.50 605.50Q144 570 144 509Q144 460 174 432.50Q204 405 273 391L379 370Q481 349 529 307Q577 265 577 189Q577 131 545.50 86Q514 41 456 16Q398-9 318-9M278-187L278-99L370-99L370-187L278-187M276 807L276 895L366 895L366 807L276 807Z"  horiz-adv-x="623" vert-adv-y="1000"  />

      
      <glyph glyph-name="uni1E9E" unicode="&#x1E9E;" d="M409-9Q351-9 305.50 6.50Q260 22 222 54L253 116Q289 85 323 73Q357 61 403 61Q477 61 515.50 95.50Q554 130 554 192Q554 255 513 287.50Q472 320 386 320L261 320L261 388L361 388Q434 388 474.50 421Q515 454 515 516Q515 579 476 611.50Q437 644 355 644Q253 644 211 598Q169 552 169 459L169 0L88 0L88 461Q88 586 154.50 650Q221 714 359 714Q475 714 536 664.50Q597 615 597 527Q597 462 561 415Q525 368 463 353L463 369Q542 360 589 312.50Q636 265 636 188Q636 94 576.50 42.50Q517-9 409-9Z"  horiz-adv-x="695" vert-adv-y="1000"  />

      
      <glyph glyph-name="uni018F" unicode="&#x018F;" d="M372-9Q262-9 193.50 36Q125 81 93.50 162.50Q62 244 62 353L62 389L618 389L618 321L124 321L146 353Q146 258 167.50 193.50Q189 129 238 96Q287 63 370 63Q482 63 542.50 138.50Q603 214 603 354Q603 492 538.50 566.50Q474 641 347 641Q299 641 261 632.50Q223 624 190 606Q157 588 123 559L90 624Q140 668 203.50 691Q267 714 355 714Q460 714 534.50 670.50Q609 627 648.50 546.50Q688 466 688 354Q688 242 650 160.50Q612 79 541 35Q470-9 372-9Z"  horiz-adv-x="750" vert-adv-y="1000"  />

      
      <glyph glyph-name="uni54" unicode="&#x54;" d="M259 0L259 635L10 635L10 705L590 705L590 635L342 635L342 0L259 0Z"  horiz-adv-x="604" vert-adv-y="1000"  />

      
      <glyph glyph-name="uni0166" unicode="&#x0166;" d="M259 0L259 635L10 635L10 705L590 705L590 635L342 635L342 0L259 0M118 326L118 390L485 390L485 326L118 326Z"  horiz-adv-x="604" vert-adv-y="1000"  />

      
      <glyph glyph-name="uni0164" unicode="&#x0164;" d="M259 0L259 635L10 635L10 705L590 705L590 635L342 635L342 0L259 0M264 765L141 937L202 937L302 818L402 937L463 937L340 765L264 765Z"  horiz-adv-x="604" vert-adv-y="1000"  />

      
      <glyph glyph-name="uni0162" unicode="&#x0162;" d="M259 0L259 635L10 635L10 705L590 705L590 635L342 635L342 0L259 0M305-192Q279-192 255.50-187Q232-182 215-173L229-129Q247-137 263.50-141Q280-145 302-145Q329-145 345-135.50Q361-126 361-108Q361-80 323-80Q312-80 301.50-81.50Q291-83 276-89L259-73L274 20L325 20L312-55L288-49Q299-46 311-44Q323-42 333-42Q369-42 393-60Q417-78 417-110Q417-147 386-169.50Q355-192 305-192Z"  horiz-adv-x="604" vert-adv-y="1000"  />

      
      <glyph glyph-name="uni021A" unicode="&#x021A;" d="M259 0L259 635L10 635L10 705L590 705L590 635L342 635L342 0L259 0M299-268L263-242Q286-218 293.50-197Q301-176 301-152L322-162L252-162L252-80L351-80L351-140Q351-177 338.50-209.50Q326-242 299-268Z"  horiz-adv-x="604" vert-adv-y="1000"  />

      
      <glyph glyph-name="uni1E6C" unicode="&#x1E6C;" d="M259 0L259 635L10 635L10 705L590 705L590 635L342 635L342 0L259 0M256-187L256-99L348-99L348-187L256-187Z"  horiz-adv-x="604" vert-adv-y="1000"  />

      
      <glyph glyph-name="uni1E6E" unicode="&#x1E6E;" d="M259 0L259 635L10 635L10 705L590 705L590 635L342 635L342 0L259 0M154-156L154-101L450-101L450-156L154-156Z"  horiz-adv-x="604" vert-adv-y="1000"  />

      
      <glyph glyph-name="uni55" unicode="&#x55;" d="M366-9Q223-9 153.50 64Q84 137 84 279L84 705L166 705L166 283Q166 174 214 119Q262 64 366 64Q464 64 515 119Q566 174 566 283L566 705L648 705L648 279Q648 137 576.50 64Q505-9 366-9Z"  horiz-adv-x="730" vert-adv-y="1000"  />

      
      <glyph glyph-name="unida" unicode="&#xda;" d="M366-9Q223-9 153.50 64Q84 137 84 279L84 705L166 705L166 283Q166 174 214 119Q262 64 366 64Q464 64 515 119Q566 174 566 283L566 705L648 705L648 279Q648 137 576.50 64Q505-9 366-9M335 765L453 937L544 937L397 765L335 765Z"  horiz-adv-x="730" vert-adv-y="1000"  />

      
      <glyph glyph-name="uni016C" unicode="&#x016C;" d="M366-9Q223-9 153.50 64Q84 137 84 279L84 705L166 705L166 283Q166 174 214 119Q262 64 366 64Q464 64 515 119Q566 174 566 283L566 705L648 705L648 279Q648 137 576.50 64Q505-9 366-9M366 760Q295 760 249 805Q203 850 197 928L248 935Q253 878 284 846Q315 814 366 814Q417 814 448.50 846Q480 878 484 935L535 928Q529 850 483 805Q437 760 366 760Z"  horiz-adv-x="730" vert-adv-y="1000"  />

      
      <glyph glyph-name="unidb" unicode="&#xdb;" d="M366-9Q223-9 153.50 64Q84 137 84 279L84 705L166 705L166 283Q166 174 214 119Q262 64 366 64Q464 64 515 119Q566 174 566 283L566 705L648 705L648 279Q648 137 576.50 64Q505-9 366-9M205 765L328 937L404 937L527 765L466 765L366 884L266 765L205 765Z"  horiz-adv-x="730" vert-adv-y="1000"  />

      
      <glyph glyph-name="uni0214" unicode="&#x0214;" d="M366-9Q223-9 153.50 64Q84 137 84 279L84 705L166 705L166 283Q166 174 214 119Q262 64 366 64Q464 64 515 119Q566 174 566 283L566 705L648 705L648 279Q648 137 576.50 64Q505-9 366-9M406 765L287 937L368 937L453 765L406 765M279 765L157 937L237 937L326 765L279 765Z"  horiz-adv-x="730" vert-adv-y="1000"  />

      
      <glyph glyph-name="unidc" unicode="&#xdc;" d="M366-9Q223-9 153.50 64Q84 137 84 279L84 705L166 705L166 283Q166 174 214 119Q262 64 366 64Q464 64 515 119Q566 174 566 283L566 705L648 705L648 279Q648 137 576.50 64Q505-9 366-9M410 806L410 892L496 892L496 806L410 806M236 806L236 892L322 892L322 806L236 806Z"  horiz-adv-x="730" vert-adv-y="1000"  />

      
      <glyph glyph-name="uni1EE4" unicode="&#x1EE4;" d="M366-9Q223-9 153.50 64Q84 137 84 279L84 705L166 705L166 283Q166 174 214 119Q262 64 366 64Q464 64 515 119Q566 174 566 283L566 705L648 705L648 279Q648 137 576.50 64Q505-9 366-9M320-187L320-99L412-99L412-187L320-187Z"  horiz-adv-x="730" vert-adv-y="1000"  />

      
      <glyph glyph-name="unid9" unicode="&#xd9;" d="M366-9Q223-9 153.50 64Q84 137 84 279L84 705L166 705L166 283Q166 174 214 119Q262 64 366 64Q464 64 515 119Q566 174 566 283L566 705L648 705L648 279Q648 137 576.50 64Q505-9 366-9M335 765L188 937L279 937L397 765L335 765Z"  horiz-adv-x="730" vert-adv-y="1000"  />

      
      <glyph glyph-name="uni1EE6" unicode="&#x1EE6;" d="M366-9Q223-9 153.50 64Q84 137 84 279L84 705L166 705L166 283Q166 174 214 119Q262 64 366 64Q464 64 515 119Q566 174 566 283L566 705L648 705L648 279Q648 137 576.50 64Q505-9 366-9M338 765L338 781Q338 801 347.50 813.50Q357 826 369.50 835Q382 844 391.50 852Q401 860 401 872Q401 883 389.50 889Q378 895 355 895Q339 895 324.50 892Q310 889 291 880L278 923Q315 943 371 943Q416 943 441.50 926Q467 909 467 881Q467 860 456 847Q445 834 430.50 825.50Q416 817 405 806Q394 795 394 776L394 765L338 765Z"  horiz-adv-x="730" vert-adv-y="1000"  />

      
      <glyph glyph-name="uni01AF" unicode="&#x01AF;" d="M366-9Q223-9 153.50 64Q84 137 84 279L84 705L166 705L166 283Q166 174 214 119Q262 64 366 64Q464 64 515 119Q566 174 566 283L566 705L648 705L648 279Q648 137 576.50 64Q505-9 366-9M632 655L591 683L591 705Q634 706 657.50 717.50Q681 729 691 754Q701 779 701 818L701 835L773 835L773 807Q773 762 756.50 729Q740 696 708.50 677Q677 658 632 655Z"  horiz-adv-x="730" vert-adv-y="1000"  />

      
      <glyph glyph-name="uni1EE8" unicode="&#x1EE8;" d="M366-9Q223-9 153.50 64Q84 137 84 279L84 705L166 705L166 283Q166 174 214 119Q262 64 366 64Q464 64 515 119Q566 174 566 283L566 705L648 705L648 279Q648 137 576.50 64Q505-9 366-9M632 655L591 683L591 705Q634 706 657.50 717.50Q681 729 691 754Q701 779 701 818L701 835L773 835L773 807Q773 762 756.50 729Q740 696 708.50 677Q677 658 632 655M345 765L463 937L554 937L407 765L345 765Z"  horiz-adv-x="730" vert-adv-y="1000"  />

      
      <glyph glyph-name="uni1EF0" unicode="&#x1EF0;" d="M366-9Q223-9 153.50 64Q84 137 84 279L84 705L166 705L166 283Q166 174 214 119Q262 64 366 64Q464 64 515 119Q566 174 566 283L566 705L648 705L648 279Q648 137 576.50 64Q505-9 366-9M632 655L591 683L591 705Q634 706 657.50 717.50Q681 729 691 754Q701 779 701 818L701 835L773 835L773 807Q773 762 756.50 729Q740 696 708.50 677Q677 658 632 655M330-187L330-99L422-99L422-187L330-187Z"  horiz-adv-x="730" vert-adv-y="1000"  />

      
      <glyph glyph-name="uni1EEA" unicode="&#x1EEA;" d="M366-9Q223-9 153.50 64Q84 137 84 279L84 705L166 705L166 283Q166 174 214 119Q262 64 366 64Q464 64 515 119Q566 174 566 283L566 705L648 705L648 279Q648 137 576.50 64Q505-9 366-9M632 655L591 683L591 705Q634 706 657.50 717.50Q681 729 691 754Q701 779 701 818L701 835L773 835L773 807Q773 762 756.50 729Q740 696 708.50 677Q677 658 632 655M345 765L198 937L289 937L407 765L345 765Z"  horiz-adv-x="730" vert-adv-y="1000"  />

      
      <glyph glyph-name="uni1EEC" unicode="&#x1EEC;" d="M366-9Q223-9 153.50 64Q84 137 84 279L84 705L166 705L166 283Q166 174 214 119Q262 64 366 64Q464 64 515 119Q566 174 566 283L566 705L648 705L648 279Q648 137 576.50 64Q505-9 366-9M632 655L591 683L591 705Q634 706 657.50 717.50Q681 729 691 754Q701 779 701 818L701 835L773 835L773 807Q773 762 756.50 729Q740 696 708.50 677Q677 658 632 655M348 765L348 781Q348 801 357.50 813.50Q367 826 379.50 835Q392 844 401.50 852Q411 860 411 872Q411 883 399.50 889Q388 895 365 895Q349 895 334.50 892Q320 889 301 880L288 923Q325 943 381 943Q426 943 451.50 926Q477 909 477 881Q477 860 466 847Q455 834 440.50 825.50Q426 817 415 806Q404 795 404 776L404 765L348 765Z"  horiz-adv-x="730" vert-adv-y="1000"  />

      
      <glyph glyph-name="uni1EEE" unicode="&#x1EEE;" d="M366-9Q223-9 153.50 64Q84 137 84 279L84 705L166 705L166 283Q166 174 214 119Q262 64 366 64Q464 64 515 119Q566 174 566 283L566 705L648 705L648 279Q648 137 576.50 64Q505-9 366-9M632 655L591 683L591 705Q634 706 657.50 717.50Q681 729 691 754Q701 779 701 818L701 835L773 835L773 807Q773 762 756.50 729Q740 696 708.50 677Q677 658 632 655M223 783L177 786Q183 850 214 884.50Q245 919 293 919Q317 919 338 908.50Q359 898 383 878Q405 860 420 851.50Q435 843 450 843Q480 843 496.50 863.50Q513 884 519 922L565 919Q559 855 528.50 820.50Q498 786 450 786Q425 786 404 797Q383 808 359 827Q338 846 322 854Q306 862 292 862Q263 862 246.50 841.50Q230 821 223 783Z"  horiz-adv-x="730" vert-adv-y="1000"  />

      
      <glyph glyph-name="uni0170" unicode="&#x0170;" d="M366-9Q223-9 153.50 64Q84 137 84 279L84 705L166 705L166 283Q166 174 214 119Q262 64 366 64Q464 64 515 119Q566 174 566 283L566 705L648 705L648 279Q648 137 576.50 64Q505-9 366-9M279 765L364 937L445 937L326 765L279 765M406 765L495 937L575 937L453 765L406 765Z"  horiz-adv-x="730" vert-adv-y="1000"  />

      
      <glyph glyph-name="uni0216" unicode="&#x0216;" d="M366-9Q223-9 153.50 64Q84 137 84 279L84 705L166 705L166 283Q166 174 214 119Q262 64 366 64Q464 64 515 119Q566 174 566 283L566 705L648 705L648 279Q648 137 576.50 64Q505-9 366-9M248 760L197 766Q203 845 249 890Q295 935 366 935Q437 935 483 890Q529 845 535 766L484 760Q480 818 448.50 849.50Q417 881 366 881Q315 881 284 849.50Q253 818 248 760Z"  horiz-adv-x="730" vert-adv-y="1000"  />

      
      <glyph glyph-name="uni016A" unicode="&#x016A;" d="M366-9Q223-9 153.50 64Q84 137 84 279L84 705L166 705L166 283Q166 174 214 119Q262 64 366 64Q464 64 515 119Q566 174 566 283L566 705L648 705L648 279Q648 137 576.50 64Q505-9 366-9M203 814L203 869L529 869L529 814L203 814Z"  horiz-adv-x="730" vert-adv-y="1000"  />

      
      <glyph glyph-name="uni1E7A" unicode="&#x1E7A;" d="M366-9Q223-9 153.50 64Q84 137 84 279L84 705L166 705L166 283Q166 174 214 119Q262 64 366 64Q464 64 515 119Q566 174 566 283L566 705L648 705L648 279Q648 137 576.50 64Q505-9 366-9M218 798L218 852L514 852L514 798L218 798M236 908L236 981L322 981L322 908L236 908M410 908L410 981L496 981L496 908L410 908Z"  horiz-adv-x="730" vert-adv-y="1000"  />

      
      <glyph glyph-name="uni0172" unicode="&#x0172;" d="M366-9Q223-9 153.50 64Q84 137 84 279L84 705L166 705L166 283Q166 174 214 119Q262 64 366 64Q464 64 515 119Q566 174 566 283L566 705L648 705L648 279Q648 137 576.50 64Q505-9 366-9M425-192Q377-192 348-166Q319-140 319-95Q319-55 345-19.50Q371 16 415 36L444 0Q428-6 412.50-18.50Q397-31 387-48Q377-65 377-86Q377-114 394-128Q411-142 435-142Q449-142 462-139Q475-136 489-130L503-175Q489-183 469-187.50Q449-192 425-192Z"  horiz-adv-x="730" vert-adv-y="1000"  />

      
      <glyph glyph-name="uni016E" unicode="&#x016E;" d="M366-9Q223-9 153.50 64Q84 137 84 279L84 705L166 705L166 283Q166 174 214 119Q262 64 366 64Q464 64 515 119Q566 174 566 283L566 705L648 705L648 279Q648 137 576.50 64Q505-9 366-9M366 758Q333 758 306 773.50Q279 789 263 815.50Q247 842 247 874Q247 907 263 932.50Q279 958 306 973.50Q333 989 366 989Q400 989 426.50 973.50Q453 958 469 932.50Q485 907 485 874Q485 842 469 815.50Q453 789 426.50 773.50Q400 758 366 758M366 801Q398 801 418 822Q438 843 438 874Q438 904 418 925Q398 946 366 946Q335 946 314.50 925Q294 904 294 874Q294 843 314.50 822Q335 801 366 801Z"  horiz-adv-x="730" vert-adv-y="1000"  />

      
      <glyph glyph-name="uni0168" unicode="&#x0168;" d="M366-9Q223-9 153.50 64Q84 137 84 279L84 705L166 705L166 283Q166 174 214 119Q262 64 366 64Q464 64 515 119Q566 174 566 283L566 705L648 705L648 279Q648 137 576.50 64Q505-9 366-9M203 783L157 786Q163 850 195.50 884.50Q228 919 277 919Q300 919 323.50 909.50Q347 900 380 878Q411 859 427 851Q443 843 458 843Q488 843 505 863.50Q522 884 529 922L575 919Q569 855 537 820.50Q505 786 456 786Q433 786 409 796Q385 806 349 829Q322 847 305 854.50Q288 862 274 862Q244 862 227 841.50Q210 821 203 783Z"  horiz-adv-x="730" vert-adv-y="1000"  />

      
      <glyph glyph-name="uni1E78" unicode="&#x1E78;" d="M366-9Q223-9 153.50 64Q84 137 84 279L84 705L166 705L166 283Q166 174 214 119Q262 64 366 64Q464 64 515 119Q566 174 566 283L566 705L648 705L648 279Q648 137 576.50 64Q505-9 366-9M338 882L424 1023L509 1023L394 882L338 882M431 768Q413 768 395.50 775Q378 782 356 797Q336 812 324.50 816Q313 820 303 820Q281 820 269.50 807Q258 794 253 766L208 768Q212 819 237.50 844.50Q263 870 302 870Q319 870 334.50 864Q350 858 373 843Q394 828 406 823Q418 818 429 818Q452 818 463.50 830.50Q475 843 479 872L524 869Q520 818 495 793Q470 768 431 768Z"  horiz-adv-x="730" vert-adv-y="1000"  />

      
      <glyph glyph-name="uni56" unicode="&#x56;" d="M310 0L3 705L92 705L365 66L334 66L609 705L695 705L386 0L310 0Z"  horiz-adv-x="698" vert-adv-y="1000"  />

      
      <glyph glyph-name="uni57" unicode="&#x57;" d="M280 0L34 705L121 705L336 70L301 70L527 705L593 705L807 70L775 70L996 705L1078 705L830 0L756 0L548 611L569 611L352 0L280 0Z"  horiz-adv-x="1112" vert-adv-y="1000"  />

      
      <glyph glyph-name="uni1E82" unicode="&#x1E82;" d="M280 0L34 705L121 705L336 70L301 70L527 705L593 705L807 70L775 70L996 705L1078 705L830 0L756 0L548 611L569 611L352 0L280 0M525 765L643 937L734 937L587 765L525 765Z"  horiz-adv-x="1112" vert-adv-y="1000"  />

      
      <glyph glyph-name="uni0174" unicode="&#x0174;" d="M280 0L34 705L121 705L336 70L301 70L527 705L593 705L807 70L775 70L996 705L1078 705L830 0L756 0L548 611L569 611L352 0L280 0M395 765L518 937L594 937L717 765L656 765L556 884L456 765L395 765Z"  horiz-adv-x="1112" vert-adv-y="1000"  />

      
      <glyph glyph-name="uni1E84" unicode="&#x1E84;" d="M280 0L34 705L121 705L336 70L301 70L527 705L593 705L807 70L775 70L996 705L1078 705L830 0L756 0L548 611L569 611L352 0L280 0M600 806L600 892L686 892L686 806L600 806M426 806L426 892L512 892L512 806L426 806Z"  horiz-adv-x="1112" vert-adv-y="1000"  />

      
      <glyph glyph-name="uni1E80" unicode="&#x1E80;" d="M280 0L34 705L121 705L336 70L301 70L527 705L593 705L807 70L775 70L996 705L1078 705L830 0L756 0L548 611L569 611L352 0L280 0M525 765L378 937L469 937L587 765L525 765Z"  horiz-adv-x="1112" vert-adv-y="1000"  />

      
      <glyph glyph-name="uni58" unicode="&#x58;" d="M9 0L290 376L290 345L22 705L120 705L340 404L314 404L532 705L631 705L362 345L362 376L643 0L545 0L310 319L342 319L107 0L9 0Z"  horiz-adv-x="652" vert-adv-y="1000"  />

      
      <glyph glyph-name="uni59" unicode="&#x59;" d="M262 0L262 329L280 273L-12 705L84 705L316 354L295 354L526 705L618 705L327 273L345 329L345 0L262 0Z"  horiz-adv-x="607" vert-adv-y="1000"  />

      
      <glyph glyph-name="unidd" unicode="&#xdd;" d="M262 0L262 329L280 273L-12 705L84 705L316 354L295 354L526 705L618 705L327 273L345 329L345 0L262 0M273 765L391 937L482 937L335 765L273 765Z"  horiz-adv-x="607" vert-adv-y="1000"  />

      
      <glyph glyph-name="uni0176" unicode="&#x0176;" d="M262 0L262 329L280 273L-12 705L84 705L316 354L295 354L526 705L618 705L327 273L345 329L345 0L262 0M143 765L266 937L342 937L465 765L404 765L304 884L204 765L143 765Z"  horiz-adv-x="607" vert-adv-y="1000"  />

      
      <glyph glyph-name="uni0178" unicode="&#x0178;" d="M262 0L262 329L280 273L-12 705L84 705L316 354L295 354L526 705L618 705L327 273L345 329L345 0L262 0M348 806L348 892L434 892L434 806L348 806M174 806L174 892L260 892L260 806L174 806Z"  horiz-adv-x="607" vert-adv-y="1000"  />

      
      <glyph glyph-name="uni1E8E" unicode="&#x1E8E;" d="M262 0L262 329L280 273L-12 705L84 705L316 354L295 354L526 705L618 705L327 273L345 329L345 0L262 0M259 807L259 895L349 895L349 807L259 807Z"  horiz-adv-x="607" vert-adv-y="1000"  />

      
      <glyph glyph-name="uni1EF4" unicode="&#x1EF4;" d="M262 0L262 329L280 273L-12 705L84 705L316 354L295 354L526 705L618 705L327 273L345 329L345 0L262 0M258-187L258-99L350-99L350-187L258-187Z"  horiz-adv-x="607" vert-adv-y="1000"  />

      
      <glyph glyph-name="uni1EF2" unicode="&#x1EF2;" d="M262 0L262 329L280 273L-12 705L84 705L316 354L295 354L526 705L618 705L327 273L345 329L345 0L262 0M273 765L126 937L217 937L335 765L273 765Z"  horiz-adv-x="607" vert-adv-y="1000"  />

      
      <glyph glyph-name="uni01B3" unicode="&#x01B3;" d="M262 0L262 365L280 308L-12 705L84 705L316 390L295 390L468 633Q497 675 533.50 694Q570 713 616 713Q633 713 647.50 711Q662 709 675 704L675 642Q665 646 653 648Q641 650 626 650Q600 650 577.50 638.50Q555 627 535 600L327 308L345 365L345 0L262 0Z"  horiz-adv-x="607" vert-adv-y="1000"  />

      
      <glyph glyph-name="uni1EF6" unicode="&#x1EF6;" d="M262 0L262 329L280 273L-12 705L84 705L316 354L295 354L526 705L618 705L327 273L345 329L345 0L262 0M276 765L276 781Q276 801 285.50 813.50Q295 826 307.50 835Q320 844 329.50 852Q339 860 339 872Q339 883 327.50 889Q316 895 293 895Q277 895 262.50 892Q248 889 229 880L216 923Q253 943 309 943Q354 943 379.50 926Q405 909 405 881Q405 860 394 847Q383 834 368.50 825.50Q354 817 343 806Q332 795 332 776L332 765L276 765Z"  horiz-adv-x="607" vert-adv-y="1000"  />

      
      <glyph glyph-name="uni0232" unicode="&#x0232;" d="M262 0L262 329L280 273L-12 705L84 705L316 354L295 354L526 705L618 705L327 273L345 329L345 0L262 0M141 814L141 869L467 869L467 814L141 814Z"  horiz-adv-x="607" vert-adv-y="1000"  />

      
      </font>
</defs>
</svg>
