<?xml version="1.0" standalone="no"?>
  <!DOCTYPE svg PUBLIC "-//W3C//DTD SVG 1.1//EN" "http://www.w3.org/Graphics/SVG/1.1/DTD/svg11.dtd" >
  <svg>
  <metadata>
  Created by font-carrier
  </metadata>
  <defs>
  <font id="Mulish-SemiBoldItalic" horiz-adv-x="1324" vert-adv-y="1324" >
    <font-face
      
      font-family="Mulish SemiBold"
      
      font-weight="400"
      
      font-stretch="normal"
      
      units-per-em="1000"
      
      ascent="1005"
      
      descent="-250"
      
    />
      <missing-glyph />

      

      
      <glyph glyph-name="uni41" unicode="&#x41;" d="M-30 0L396 705L485 705L692 0L590 0L534 200L574 172L147 172L197 200L80 0L-30 0M426 591L217 232L196 255L551 255L527 232L429 591L426 591Z"  horiz-adv-x="742" vert-adv-y="1000"  />

      
      <glyph glyph-name="unic1" unicode="&#xc1;" d="M-30 0L396 705L485 705L692 0L590 0L534 200L574 172L147 172L197 200L80 0L-30 0M426 591L217 232L196 255L551 255L527 232L429 591L426 591M414 765L545 938L656 938L488 765L414 765Z"  horiz-adv-x="742" vert-adv-y="1000"  />

      
      <glyph glyph-name="uni0102" unicode="&#x0102;" d="M-30 0L396 705L485 705L692 0L590 0L534 200L574 172L147 172L197 200L80 0L-30 0M426 591L217 232L196 255L551 255L527 232L429 591L426 591M454 760Q405 760 368.50 781Q332 802 312 840.50Q292 879 292 929L352 937Q351 883 380 853.50Q409 824 458 824Q508 824 541 853.50Q574 883 583 937L642 929Q630 851 579 805.50Q528 760 454 760Z"  horiz-adv-x="742" vert-adv-y="1000"  />

      
      <glyph glyph-name="uni1EAE" unicode="&#x1EAE;" d="M-30 0L396 705L485 705L692 0L590 0L534 200L574 172L147 172L197 200L80 0L-30 0M426 591L217 232L196 255L551 255L527 232L429 591L426 591M455 765Q385 765 342.50 806Q300 847 302 917L355 923Q357 877 383.50 851Q410 825 457 825Q506 825 536 851Q566 877 576 923L629 917Q618 847 571.50 806Q525 765 455 765M422 885L513 1023L614 1023L487 885L422 885Z"  horiz-adv-x="742" vert-adv-y="1000"  />

      
      <glyph glyph-name="uni1EB6" unicode="&#x1EB6;" d="M-30 0L396 705L485 705L692 0L590 0L534 200L574 172L147 172L197 200L80 0L-30 0M426 591L217 232L196 255L551 255L527 232L429 591L426 591M245-195L262-94L367-94L350-195L245-195M454 760Q405 760 368.50 781Q332 802 312 840.50Q292 879 292 929L352 937Q351 883 380 853.50Q409 824 458 824Q508 824 541 853.50Q574 883 583 937L642 929Q630 851 579 805.50Q528 760 454 760Z"  horiz-adv-x="742" vert-adv-y="1000"  />

      
      <glyph glyph-name="uni1EB0" unicode="&#x1EB0;" d="M-30 0L396 705L485 705L692 0L590 0L534 200L574 172L147 172L197 200L80 0L-30 0M426 591L217 232L196 255L551 255L527 232L429 591L426 591M454 760Q385 760 342.50 801Q300 842 302 912L354 917Q357 872 383 846Q409 820 457 820Q505 820 535 846Q565 872 576 917L628 912Q618 842 571 801Q524 760 454 760M434 880L334 1018L435 1018L500 880L434 880Z"  horiz-adv-x="742" vert-adv-y="1000"  />

      
      <glyph glyph-name="uni1EB2" unicode="&#x1EB2;" d="M-30 0L396 705L485 705L692 0L590 0L534 200L574 172L147 172L197 200L80 0L-30 0M426 591L217 232L196 255L551 255L527 232L429 591L426 591M452 760Q383 760 340.50 801Q298 842 300 912L352 917Q355 872 381 846Q407 820 455 820Q503 820 533 846Q563 872 574 917L626 912Q616 842 569 801Q522 760 452 760M430 880Q432 900 442 911.50Q452 923 464 930Q476 937 485 944.50Q494 952 494 963Q494 972 483.50 976Q473 980 457 980Q442 980 424.50 976.50Q407 973 393 968L383 1010Q402 1019 425 1023.50Q448 1028 477 1028Q519 1028 542 1015Q565 1002 565 980Q565 959 554 947Q543 935 528.50 926.50Q514 918 502.50 908Q491 898 489 880L430 880Z"  horiz-adv-x="742" vert-adv-y="1000"  />

      
      <glyph glyph-name="uni1EB4" unicode="&#x1EB4;" d="M-30 0L396 705L485 705L692 0L590 0L534 200L574 172L147 172L197 200L80 0L-30 0M426 591L217 232L196 255L551 255L527 232L429 591L426 591M453 760Q390 760 347.50 790.50Q305 821 296 872L349 885Q359 854 385.50 837Q412 820 455 820Q499 820 527.50 837Q556 854 570 885L622 872Q605 821 560 790.50Q515 760 453 760M351 920L301 923Q309 974 336 1000.50Q363 1027 405 1027Q427 1027 446 1018.50Q465 1010 482 1000Q496 992 509.50 985.50Q523 979 537 979Q560 979 572.50 990.50Q585 1002 592 1029L643 1025Q635 974 607.50 947.50Q580 921 539 921Q517 921 497.50 929.50Q478 938 461 948Q447 957 433.50 963.50Q420 970 406 970Q384 970 371.50 958Q359 946 351 920Z"  horiz-adv-x="742" vert-adv-y="1000"  />

      
      <glyph glyph-name="uni01CD" unicode="&#x01CD;" d="M-30 0L396 705L485 705L692 0L590 0L534 200L574 172L147 172L197 200L80 0L-30 0M426 591L217 232L196 255L551 255L527 232L429 591L426 591M406 765L300 938L370 938L454 826L561 938L637 938L496 765L406 765Z"  horiz-adv-x="742" vert-adv-y="1000"  />

      
      <glyph glyph-name="unic2" unicode="&#xc2;" d="M-30 0L396 705L485 705L692 0L590 0L534 200L574 172L147 172L197 200L80 0L-30 0M426 591L217 232L196 255L551 255L527 232L429 591L426 591M276 765L417 938L507 938L612 765L540 765L457 877L348 765L276 765Z"  horiz-adv-x="742" vert-adv-y="1000"  />

      
      <glyph glyph-name="uni1EA4" unicode="&#x1EA4;" d="M-30 0L396 705L485 705L692 0L590 0L534 200L574 172L147 172L197 200L80 0L-30 0M426 591L217 232L196 255L551 255L527 232L429 591L426 591M293 765L418 928L509 928L605 765L539 765L459 869L359 765L293 765M559 870L656 1020L747 1020L620 870L559 870Z"  horiz-adv-x="742" vert-adv-y="1000"  />

      
      <glyph glyph-name="uni1EAC" unicode="&#x1EAC;" d="M-30 0L396 705L485 705L692 0L590 0L534 200L574 172L147 172L197 200L80 0L-30 0M426 591L217 232L196 255L551 255L527 232L429 591L426 591M245-195L262-94L367-94L350-195L245-195M276 765L417 938L507 938L612 765L540 765L457 877L348 765L276 765Z"  horiz-adv-x="742" vert-adv-y="1000"  />

      
      <glyph glyph-name="uni1EA6" unicode="&#x1EA6;" d="M-30 0L396 705L485 705L692 0L590 0L534 200L574 172L147 172L197 200L80 0L-30 0M426 591L217 232L196 255L551 255L527 232L429 591L426 591M293 765L418 928L509 928L605 765L539 765L459 869L359 765L293 765M598 870L498 1020L587 1020L660 870L598 870Z"  horiz-adv-x="742" vert-adv-y="1000"  />

      
      <glyph glyph-name="uni1EA8" unicode="&#x1EA8;" d="M-30 0L396 705L485 705L692 0L590 0L534 200L574 172L147 172L197 200L80 0L-30 0M426 591L217 232L196 255L551 255L527 232L429 591L426 591M293 765L418 928L509 928L605 765L539 765L459 869L359 765L293 765M565 870Q567 891 576 903Q585 915 597.50 923.50Q610 932 619 940Q628 948 628 960Q628 969 618 972.50Q608 976 593 976Q577 976 559.50 972.50Q542 969 528 964L518 1006Q537 1015 559.50 1019.50Q582 1024 611 1024Q653 1024 676 1011.50Q699 999 699 976Q699 956 688 943Q677 930 662 920.50Q647 911 636 899.50Q625 888 623 870L565 870Z"  horiz-adv-x="742" vert-adv-y="1000"  />

      
      <glyph glyph-name="uni1EAA" unicode="&#x1EAA;" d="M-30 0L396 705L485 705L692 0L590 0L534 200L574 172L147 172L197 200L80 0L-30 0M426 591L217 232L196 255L551 255L527 232L429 591L426 591M293 765L414 898L506 898L604 765L540 765L456 844L358 765L293 765M351 922L301 925Q309 977 336 1003.50Q363 1030 405 1030Q428 1030 445.50 1021Q463 1012 479 1002Q493 994 505.50 987.50Q518 981 532 981Q555 981 567 992.50Q579 1004 587 1031L637 1028Q629 976 602.50 949.50Q576 923 534 923Q512 923 493.50 931.50Q475 940 460 950Q446 959 433 965.50Q420 972 407 972Q384 972 371 960Q358 948 351 922Z"  horiz-adv-x="742" vert-adv-y="1000"  />

      
      <glyph glyph-name="uni0200" unicode="&#x0200;" d="M-30 0L396 705L485 705L692 0L590 0L534 200L574 172L147 172L197 200L80 0L-30 0M426 591L217 232L196 255L551 255L527 232L429 591L426 591M490 765L382 938L477 938L547 765L490 765M354 765L240 938L334 938L412 765L354 765Z"  horiz-adv-x="742" vert-adv-y="1000"  />

      
      <glyph glyph-name="unic4" unicode="&#xc4;" d="M-30 0L396 705L485 705L692 0L590 0L534 200L574 172L147 172L197 200L80 0L-30 0M426 591L217 232L196 255L551 255L527 232L429 591L426 591M497 799L513 898L612 898L596 799L497 799M316 799L332 898L431 898L415 799L316 799Z"  horiz-adv-x="742" vert-adv-y="1000"  />

      
      <glyph glyph-name="uni0226" unicode="&#x0226;" d="M-30 0L396 705L485 705L692 0L590 0L534 200L574 172L147 172L197 200L80 0L-30 0M426 591L217 232L196 255L551 255L527 232L429 591L426 591M405 801L420 902L524 902L508 801L405 801Z"  horiz-adv-x="742" vert-adv-y="1000"  />

      
      <glyph glyph-name="uni1EA0" unicode="&#x1EA0;" d="M-30 0L396 705L485 705L692 0L590 0L534 200L574 172L147 172L197 200L80 0L-30 0M426 591L217 232L196 255L551 255L527 232L429 591L426 591M245-195L262-94L367-94L350-195L245-195Z"  horiz-adv-x="742" vert-adv-y="1000"  />

      
      <glyph glyph-name="unic0" unicode="&#xc0;" d="M-30 0L396 705L485 705L692 0L590 0L534 200L574 172L147 172L197 200L80 0L-30 0M426 591L217 232L196 255L551 255L527 232L429 591L426 591M414 765L275 938L383 938L488 765L414 765Z"  horiz-adv-x="742" vert-adv-y="1000"  />

      
      <glyph glyph-name="uni1EA2" unicode="&#x1EA2;" d="M-30 0L396 705L485 705L692 0L590 0L534 200L574 172L147 172L197 200L80 0L-30 0M426 591L217 232L196 255L551 255L527 232L429 591L426 591M418 765L421 782Q424 801 435 813.50Q446 826 458.50 834.50Q471 843 480 851Q489 859 489 871Q489 881 478 885.50Q467 890 447 890Q431 890 416 887Q401 884 384 877L371 924Q413 944 473 944Q518 944 543 928.50Q568 913 568 886Q568 862 556.50 848.50Q545 835 529 826Q513 817 500.50 806Q488 795 486 776L484 765L418 765Z"  horiz-adv-x="742" vert-adv-y="1000"  />

      
      <glyph glyph-name="uni0202" unicode="&#x0202;" d="M-30 0L396 705L485 705L692 0L590 0L534 200L574 172L147 172L197 200L80 0L-30 0M426 591L217 232L196 255L551 255L527 232L429 591L426 591M332 760L272 768Q285 846 336.50 891.50Q388 937 462 937Q510 937 546.50 916Q583 895 603.50 857Q624 819 623 768L562 760Q564 814 535.50 844Q507 874 457 874Q408 874 374.50 844Q341 814 332 760Z"  horiz-adv-x="742" vert-adv-y="1000"  />

      
      <glyph glyph-name="uni0100" unicode="&#x0100;" d="M-30 0L396 705L485 705L692 0L590 0L534 200L574 172L147 172L197 200L80 0L-30 0M426 591L217 232L196 255L551 255L527 232L429 591L426 591M291 811L300 874L636 874L626 811L291 811Z"  horiz-adv-x="742" vert-adv-y="1000"  />

      
      <glyph glyph-name="uni0104" unicode="&#x0104;" d="M-30 0L396 705L485 705L692 0L590 0L534 200L574 172L147 172L197 200L80 0L-30 0M426 591L217 232L196 255L551 255L527 232L429 591L426 591M625-194Q576-194 550-168.50Q524-143 524-102Q524-55 555-17.50Q586 20 634 39L662 0Q626-15 609-38Q592-61 592-86Q592-108 605.50-122Q619-136 644-136Q657-136 670-133Q683-130 698-124L709-178Q689-184 668.50-189Q648-194 625-194Z"  horiz-adv-x="742" vert-adv-y="1000"  />

      
      <glyph glyph-name="unic5" unicode="&#xc5;" d="M-30 0L396 705L485 705L692 0L590 0L534 200L574 172L147 172L197 200L80 0L-30 0M426 591L217 232L196 255L551 255L527 232L429 591L426 591M466 756Q432 756 404 772.50Q376 789 360 816Q344 843 344 876Q344 910 360 936.50Q376 963 404 978.50Q432 994 466 994Q501 994 528.50 978.50Q556 963 572 936Q588 909 588 876Q588 843 572 816Q556 789 528.50 772.50Q501 756 466 756M466 806Q496 806 515 826Q534 846 534 876Q534 905 515.50 924.50Q497 944 466 944Q436 944 416.50 924.50Q397 905 397 876Q397 846 416.50 826Q436 806 466 806Z"  horiz-adv-x="742" vert-adv-y="1000"  />

      
      <glyph glyph-name="uni01FA" unicode="&#x01FA;" d="M-30 0L396 705L485 705L692 0L590 0L534 200L574 172L147 172L197 200L80 0L-30 0M426 591L217 232L196 255L551 255L527 232L429 591L426 591M452 756Q419 756 392 771.50Q365 787 349 813.50Q333 840 333 872Q333 905 349 930.50Q365 956 392 971.50Q419 987 452 987Q470 987 486.50 982.50Q503 978 516 969L584 1032L673 1032L554 930Q570 905 570 872Q570 840 554.50 813.50Q539 787 512 771.50Q485 756 452 756M452 803Q482 803 501 823Q520 843 520 872Q520 902 501 921.50Q482 941 451 941Q422 941 402.50 921Q383 901 383 872Q383 843 402.50 823Q422 803 452 803Z"  horiz-adv-x="742" vert-adv-y="1000"  />

      
      <glyph glyph-name="unic3" unicode="&#xc3;" d="M-30 0L396 705L485 705L692 0L590 0L534 200L574 172L147 172L197 200L80 0L-30 0M426 591L217 232L196 255L551 255L527 232L429 591L426 591M288 778L235 781Q246 848 281 884.50Q316 921 368 921Q398 921 423.50 908.50Q449 896 472 882Q492 869 510 859.50Q528 850 547 850Q604 850 622 925L676 921Q665 854 630 817.50Q595 781 544 781Q514 781 488 794Q462 807 439 821Q419 833 400.50 843Q382 853 363 853Q307 853 288 778Z"  horiz-adv-x="742" vert-adv-y="1000"  />

      
      <glyph glyph-name="unic6" unicode="&#xc6;" d="M-50 0L495 705L1037 705L1022 622L633 622L659 644L640 372L627 400L966 400L953 316L619 316L636 326L618 58L608 84L938 84L925 0L518 0L531 195L555 172L178 172L219 200L68 0L-50 0M536 621L242 231L233 256L549 256L535 229L563 621L536 621Z"  horiz-adv-x="1011" vert-adv-y="1000"  />

      
      <glyph glyph-name="uni01FC" unicode="&#x01FC;" d="M-50 0L495 705L1037 705L1022 622L633 622L659 644L640 372L627 400L966 400L953 316L619 316L636 326L618 58L608 84L938 84L925 0L518 0L531 195L555 172L178 172L219 200L68 0L-50 0M536 621L242 231L233 256L549 256L535 229L563 621L536 621M563 765L694 938L805 938L637 765L563 765Z"  horiz-adv-x="1011" vert-adv-y="1000"  />

      
      <glyph glyph-name="uni42" unicode="&#x42;" d="M43 0L155 705L452 705Q564 705 617 656Q670 607 656 515Q646 450 600 408.50Q554 367 484 352L486 367Q562 357 597 308Q632 259 621 185Q607 94 538 47Q469 0 354 0L43 0M156 81L353 81Q424 81 468.50 107Q513 133 522 191Q529 238 515 265.50Q501 293 470 305Q439 317 394 317L193 317L156 81M207 397L386 397Q461 397 502.50 425Q544 453 552 503Q562 566 531.50 595.50Q501 625 432 625L242 625L207 397Z"  horiz-adv-x="685" vert-adv-y="1000"  />

      
      <glyph glyph-name="uni0181" unicode="&#x0181;" d="M184 0L283 629L252 629Q197 629 167.50 604Q138 579 129 526L122 480L35 480L43 530Q58 618 114 661.50Q170 705 274 705L592 705Q704 705 757.50 656Q811 607 796 515Q786 450 740.50 408.50Q695 367 625 352L627 367Q702 357 737.50 308Q773 259 762 185Q748 94 678.50 47Q609 0 493 0L184 0M297 81L493 81Q564 81 608.50 107Q653 133 662 191Q670 238 655.50 265.50Q641 293 610.50 305Q580 317 534 317L334 317L297 81M347 397L526 397Q602 397 643.50 425Q685 453 693 503Q702 566 671.50 595.50Q641 625 572 625L383 625L347 397Z"  horiz-adv-x="826" vert-adv-y="1000"  />

      
      <glyph glyph-name="uni43" unicode="&#x43;" d="M377-9Q260-9 187 38.50Q114 86 86.50 171Q59 256 76 367Q94 478 145.50 555.50Q197 633 278 674Q359 715 464 714Q535 714 590 694Q645 674 684 636L645 553Q602 591 559.50 606.50Q517 622 458 622Q347 622 276 553Q205 484 184 358Q172 275 189 213Q206 151 256 117Q306 83 388 83Q441 83 492.50 101Q544 119 591 160L624 78Q576 36 511 13.50Q446-9 377-9Z"  horiz-adv-x="685" vert-adv-y="1000"  />

      
      <glyph glyph-name="uni0106" unicode="&#x0106;" d="M377-9Q260-9 187 38.50Q114 86 86.50 171Q59 256 76 367Q94 478 145.50 555.50Q197 633 278 674Q359 715 464 714Q535 714 590 694Q645 674 684 636L645 553Q602 591 559.50 606.50Q517 622 458 622Q347 622 276 553Q205 484 184 358Q172 275 189 213Q206 151 256 117Q306 83 388 83Q441 83 492.50 101Q544 119 591 160L624 78Q576 36 511 13.50Q446-9 377-9M440 765L571 938L682 938L514 765L440 765Z"  horiz-adv-x="685" vert-adv-y="1000"  />

      
      <glyph glyph-name="uni010C" unicode="&#x010C;" d="M377-9Q260-9 187 38.50Q114 86 86.50 171Q59 256 76 367Q94 478 145.50 555.50Q197 633 278 674Q359 715 464 714Q535 714 590 694Q645 674 684 636L645 553Q602 591 559.50 606.50Q517 622 458 622Q347 622 276 553Q205 484 184 358Q172 275 189 213Q206 151 256 117Q306 83 388 83Q441 83 492.50 101Q544 119 591 160L624 78Q576 36 511 13.50Q446-9 377-9M431 765L325 938L395 938L479 826L586 938L662 938L521 765L431 765Z"  horiz-adv-x="685" vert-adv-y="1000"  />

      
      <glyph glyph-name="unic7" unicode="&#xc7;" d="M377-9Q260-9 187 38.50Q114 86 86.50 171Q59 256 76 367Q94 478 145.50 555.50Q197 633 278 674Q359 715 464 714Q535 714 590 694Q645 674 684 636L645 553Q602 591 559.50 606.50Q517 622 458 622Q347 622 276 553Q205 484 184 358Q172 275 189 213Q206 151 256 117Q306 83 388 83Q441 83 492.50 101Q544 119 591 160L624 78Q576 36 511 13.50Q446-9 377-9M333-194Q305-194 280.50-188.50Q256-183 239-173L259-124Q276-132 293-136Q310-140 332-140Q359-140 375.50-131Q392-122 392-105Q392-94 383-87.50Q374-81 357-81Q347-81 336.50-82.50Q326-84 311-88L295-72L324 20L382 20L358-56L331-47Q343-44 355-42Q367-40 377-40Q413-40 434.50-56.50Q456-73 456-104Q456-144 421-169Q386-194 333-194Z"  horiz-adv-x="685" vert-adv-y="1000"  />

      
      <glyph glyph-name="uni1E08" unicode="&#x1E08;" d="M377-9Q260-9 187 38.50Q114 86 86.50 171Q59 256 76 367Q94 478 145.50 555.50Q197 633 278 674Q359 715 464 714Q535 714 590 694Q645 674 684 636L645 553Q602 591 559.50 606.50Q517 622 458 622Q347 622 276 553Q205 484 184 358Q172 275 189 213Q206 151 256 117Q306 83 388 83Q441 83 492.50 101Q544 119 591 160L624 78Q576 36 511 13.50Q446-9 377-9M333-194Q305-194 280.50-188.50Q256-183 239-173L259-124Q276-132 293-136Q310-140 332-140Q359-140 375.50-131Q392-122 392-105Q392-94 383-87.50Q374-81 357-81Q347-81 336.50-82.50Q326-84 311-88L295-72L324 20L382 20L358-56L331-47Q343-44 355-42Q367-40 377-40Q413-40 434.50-56.50Q456-73 456-104Q456-144 421-169Q386-194 333-194M440 765L571 938L682 938L514 765L440 765Z"  horiz-adv-x="685" vert-adv-y="1000"  />

      
      <glyph glyph-name="uni0108" unicode="&#x0108;" d="M377-9Q260-9 187 38.50Q114 86 86.50 171Q59 256 76 367Q94 478 145.50 555.50Q197 633 278 674Q359 715 464 714Q535 714 590 694Q645 674 684 636L645 553Q602 591 559.50 606.50Q517 622 458 622Q347 622 276 553Q205 484 184 358Q172 275 189 213Q206 151 256 117Q306 83 388 83Q441 83 492.50 101Q544 119 591 160L624 78Q576 36 511 13.50Q446-9 377-9M301 765L442 938L532 938L637 765L565 765L482 877L373 765L301 765Z"  horiz-adv-x="685" vert-adv-y="1000"  />

      
      <glyph glyph-name="uni010A" unicode="&#x010A;" d="M377-9Q260-9 187 38.50Q114 86 86.50 171Q59 256 76 367Q94 478 145.50 555.50Q197 633 278 674Q359 715 464 714Q535 714 590 694Q645 674 684 636L645 553Q602 591 559.50 606.50Q517 622 458 622Q347 622 276 553Q205 484 184 358Q172 275 189 213Q206 151 256 117Q306 83 388 83Q441 83 492.50 101Q544 119 591 160L624 78Q576 36 511 13.50Q446-9 377-9M430 801L445 902L549 902L533 801L430 801Z"  horiz-adv-x="685" vert-adv-y="1000"  />

      
      <glyph glyph-name="uni44" unicode="&#x44;" d="M43 0L155 705L389 705Q515 705 591.50 661Q668 617 697.50 535.50Q727 454 709 339Q682 169 574.50 84.50Q467 0 291 0L43 0M161 87L294 87Q431 87 508 151.50Q585 216 605 348Q627 486 570.50 552Q514 618 377 618L245 618L161 87Z"  horiz-adv-x="754" vert-adv-y="1000"  />

      
      <glyph glyph-name="uni01C4" unicode="&#x01C4;" d="M43 0L155 705L389 705Q515 705 591.50 661Q668 617 697.50 535.50Q727 454 709 339Q682 169 574.50 84.50Q467 0 291 0L43 0M161 87L294 87Q431 87 508 151.50Q585 216 605 348Q627 486 570.50 552Q514 618 377 618L245 618L161 87M743 0L755 76L1253 653L1248 618L841 618L855 705L1366 705L1354 629L855 52L860 87L1280 87L1266 0L743 0M1081 765L975 938L1045 938L1129 826L1236 938L1312 938L1171 765L1081 765Z"  horiz-adv-x="1340" vert-adv-y="1000"  />

      
      <glyph glyph-name="unid0" unicode="&#xd0;" d="M43 0L155 705L389 705Q515 705 591.50 661Q668 617 697.50 535.50Q727 454 709 339Q682 169 574.50 84.50Q467 0 291 0L43 0M161 87L294 87Q431 87 508 151.50Q585 216 605 348Q627 486 570.50 552Q514 618 377 618L245 618L161 87M9 319L21 396L406 396L393 319L9 319Z"  horiz-adv-x="754" vert-adv-y="1000"  />

      
      <glyph glyph-name="uni010E" unicode="&#x010E;" d="M43 0L155 705L389 705Q515 705 591.50 661Q668 617 697.50 535.50Q727 454 709 339Q682 169 574.50 84.50Q467 0 291 0L43 0M161 87L294 87Q431 87 508 151.50Q585 216 605 348Q627 486 570.50 552Q514 618 377 618L245 618L161 87M420 765L314 938L384 938L468 826L575 938L651 938L510 765L420 765Z"  horiz-adv-x="754" vert-adv-y="1000"  />

      
      <glyph glyph-name="uni0110" unicode="&#x0110;" d="M43 0L155 705L389 705Q515 705 591.50 661Q668 617 697.50 535.50Q727 454 709 339Q682 169 574.50 84.50Q467 0 291 0L43 0M161 87L294 87Q431 87 508 151.50Q585 216 605 348Q627 486 570.50 552Q514 618 377 618L245 618L161 87M9 319L21 396L406 396L393 319L9 319Z"  horiz-adv-x="754" vert-adv-y="1000"  />

      
      <glyph glyph-name="uni1E0C" unicode="&#x1E0C;" d="M43 0L155 705L389 705Q515 705 591.50 661Q668 617 697.50 535.50Q727 454 709 339Q682 169 574.50 84.50Q467 0 291 0L43 0M161 87L294 87Q431 87 508 151.50Q585 216 605 348Q627 486 570.50 552Q514 618 377 618L245 618L161 87M259-195L276-94L381-94L364-195L259-195Z"  horiz-adv-x="754" vert-adv-y="1000"  />

      
      <glyph glyph-name="uni018A" unicode="&#x018A;" d="M184 0L283 629L252 629Q197 629 167.50 604Q138 579 129 526L122 480L35 480L43 530Q58 618 114 661.50Q170 705 268 705L529 705Q656 705 732.50 661Q809 617 838.50 535.50Q868 454 850 339Q822 169 715 84.50Q608 0 432 0L184 0M301 87L434 87Q571 87 648.50 151.50Q726 216 746 348Q768 486 711 552Q654 618 517 618L385 618L301 87Z"  horiz-adv-x="894" vert-adv-y="1000"  />

      
      <glyph glyph-name="uni1E0E" unicode="&#x1E0E;" d="M43 0L155 705L389 705Q515 705 591.50 661Q668 617 697.50 535.50Q727 454 709 339Q682 169 574.50 84.50Q467 0 291 0L43 0M161 87L294 87Q431 87 508 151.50Q585 216 605 348Q627 486 570.50 552Q514 618 377 618L245 618L161 87M165-160L175-96L481-96L471-160L165-160Z"  horiz-adv-x="754" vert-adv-y="1000"  />

      
      <glyph glyph-name="uni01C5" unicode="&#x01C5;" d="M43 0L155 705L389 705Q515 705 591.50 661Q668 617 697.50 535.50Q727 454 709 339Q682 169 574.50 84.50Q467 0 291 0L43 0M161 87L294 87Q431 87 508 151.50Q585 216 605 348Q627 486 570.50 552Q514 618 377 618L245 618L161 87M763 0L774 67L1157 451L1153 426L830 426L843 504L1263 504L1253 437L867 50L871 77L1207 77L1195 0L763 0M1018 553L929 755L995 755L1068 614L1173 755L1240 755L1109 553L1018 553Z"  horiz-adv-x="1276" vert-adv-y="1000"  />

      
      <glyph glyph-name="uni45" unicode="&#x45;" d="M43 0L155 705L617 705L604 622L242 622L207 400L546 400L533 316L194 316L157 84L518 84L505 0L43 0Z"  horiz-adv-x="591" vert-adv-y="1000"  />

      
      <glyph glyph-name="unic9" unicode="&#xc9;" d="M43 0L155 705L617 705L604 622L242 622L207 400L546 400L533 316L194 316L157 84L518 84L505 0L43 0M375 765L506 938L617 938L449 765L375 765Z"  horiz-adv-x="591" vert-adv-y="1000"  />

      
      <glyph glyph-name="uni0114" unicode="&#x0114;" d="M43 0L155 705L617 705L604 622L242 622L207 400L546 400L533 316L194 316L157 84L518 84L505 0L43 0M415 760Q366 760 329.50 781Q293 802 273 840.50Q253 879 253 929L313 937Q312 883 341 853.50Q370 824 419 824Q469 824 502 853.50Q535 883 544 937L603 929Q591 851 540 805.50Q489 760 415 760Z"  horiz-adv-x="591" vert-adv-y="1000"  />

      
      <glyph glyph-name="uni011A" unicode="&#x011A;" d="M43 0L155 705L617 705L604 622L242 622L207 400L546 400L533 316L194 316L157 84L518 84L505 0L43 0M367 765L261 938L331 938L415 826L522 938L598 938L457 765L367 765Z"  horiz-adv-x="591" vert-adv-y="1000"  />

      
      <glyph glyph-name="uni0228" unicode="&#x0228;" d="M43 0L155 705L617 705L604 622L242 622L207 400L546 400L533 316L194 316L157 84L518 84L505 0L43 0M270-194Q242-194 217.50-188.50Q193-183 176-173L196-124Q213-132 230-136Q247-140 269-140Q296-140 312.50-131Q329-122 329-105Q329-94 320-87.50Q311-81 294-81Q284-81 273.50-82.50Q263-84 248-88L232-72L261 20L319 20L295-56L268-47Q280-44 292-42Q304-40 314-40Q350-40 371.50-56.50Q393-73 393-104Q393-144 358-169Q323-194 270-194Z"  horiz-adv-x="591" vert-adv-y="1000"  />

      
      <glyph glyph-name="uni1E1C" unicode="&#x1E1C;" d="M43 0L155 705L617 705L604 622L242 622L207 400L546 400L533 316L194 316L157 84L518 84L505 0L43 0M270-194Q242-194 217.50-188.50Q193-183 176-173L196-124Q213-132 230-136Q247-140 269-140Q296-140 312.50-131Q329-122 329-105Q329-94 320-87.50Q311-81 294-81Q284-81 273.50-82.50Q263-84 248-88L232-72L261 20L319 20L295-56L268-47Q280-44 292-42Q304-40 314-40Q350-40 371.50-56.50Q393-73 393-104Q393-144 358-169Q323-194 270-194M415 760Q366 760 329.50 781Q293 802 273 840.50Q253 879 253 929L313 937Q312 883 341 853.50Q370 824 419 824Q469 824 502 853.50Q535 883 544 937L603 929Q591 851 540 805.50Q489 760 415 760Z"  horiz-adv-x="591" vert-adv-y="1000"  />

      
      <glyph glyph-name="unica" unicode="&#xca;" d="M43 0L155 705L617 705L604 622L242 622L207 400L546 400L533 316L194 316L157 84L518 84L505 0L43 0M237 765L378 938L468 938L573 765L501 765L418 877L309 765L237 765Z"  horiz-adv-x="591" vert-adv-y="1000"  />

      
      <glyph glyph-name="uni1EBE" unicode="&#x1EBE;" d="M43 0L155 705L617 705L604 622L242 622L207 400L546 400L533 316L194 316L157 84L518 84L505 0L43 0M253 765L378 928L469 928L565 765L499 765L419 869L319 765L253 765M519 870L616 1020L707 1020L580 870L519 870Z"  horiz-adv-x="591" vert-adv-y="1000"  />

      
      <glyph glyph-name="uni1EC6" unicode="&#x1EC6;" d="M43 0L155 705L617 705L604 622L242 622L207 400L546 400L533 316L194 316L157 84L518 84L505 0L43 0M206-195L223-94L328-94L311-195L206-195M237 765L378 938L468 938L573 765L501 765L418 877L309 765L237 765Z"  horiz-adv-x="591" vert-adv-y="1000"  />

      
      <glyph glyph-name="uni1EC0" unicode="&#x1EC0;" d="M43 0L155 705L617 705L604 622L242 622L207 400L546 400L533 316L194 316L157 84L518 84L505 0L43 0M253 765L378 928L469 928L565 765L499 765L419 869L319 765L253 765M558 870L458 1020L547 1020L620 870L558 870Z"  horiz-adv-x="591" vert-adv-y="1000"  />

      
      <glyph glyph-name="uni1EC2" unicode="&#x1EC2;" d="M43 0L155 705L617 705L604 622L242 622L207 400L546 400L533 316L194 316L157 84L518 84L505 0L43 0M253 765L378 928L469 928L565 765L499 765L419 869L319 765L253 765M525 870Q527 891 536 903Q545 915 557.50 923.50Q570 932 579 940Q588 948 588 960Q588 969 578 972.50Q568 976 553 976Q537 976 519.50 972.50Q502 969 488 964L478 1006Q497 1015 519.50 1019.50Q542 1024 571 1024Q613 1024 636 1011.50Q659 999 659 976Q659 956 648 943Q637 930 622 920.50Q607 911 596 899.50Q585 888 583 870L525 870Z"  horiz-adv-x="591" vert-adv-y="1000"  />

      
      <glyph glyph-name="uni1EC4" unicode="&#x1EC4;" d="M43 0L155 705L617 705L604 622L242 622L207 400L546 400L533 316L194 316L157 84L518 84L505 0L43 0M254 765L375 898L467 898L565 765L501 765L417 844L319 765L254 765M312 922L262 925Q270 977 297 1003.50Q324 1030 366 1030Q389 1030 406.50 1021Q424 1012 440 1002Q454 994 466.50 987.50Q479 981 493 981Q516 981 528 992.50Q540 1004 548 1031L598 1028Q590 976 563.50 949.50Q537 923 495 923Q473 923 454.50 931.50Q436 940 421 950Q407 959 394 965.50Q381 972 368 972Q345 972 332 960Q319 948 312 922Z"  horiz-adv-x="591" vert-adv-y="1000"  />

      
      <glyph glyph-name="uni0204" unicode="&#x0204;" d="M43 0L155 705L617 705L604 622L242 622L207 400L546 400L533 316L194 316L157 84L518 84L505 0L43 0M451 765L343 938L438 938L508 765L451 765M315 765L201 938L295 938L373 765L315 765Z"  horiz-adv-x="591" vert-adv-y="1000"  />

      
      <glyph glyph-name="unicb" unicode="&#xcb;" d="M43 0L155 705L617 705L604 622L242 622L207 400L546 400L533 316L194 316L157 84L518 84L505 0L43 0M457 799L473 898L572 898L556 799L457 799M276 799L292 898L391 898L375 799L276 799Z"  horiz-adv-x="591" vert-adv-y="1000"  />

      
      <glyph glyph-name="uni0116" unicode="&#x0116;" d="M43 0L155 705L617 705L604 622L242 622L207 400L546 400L533 316L194 316L157 84L518 84L505 0L43 0M365 801L380 902L484 902L468 801L365 801Z"  horiz-adv-x="591" vert-adv-y="1000"  />

      
      <glyph glyph-name="uni1EB8" unicode="&#x1EB8;" d="M43 0L155 705L617 705L604 622L242 622L207 400L546 400L533 316L194 316L157 84L518 84L505 0L43 0M206-195L223-94L328-94L311-195L206-195Z"  horiz-adv-x="591" vert-adv-y="1000"  />

      
      <glyph glyph-name="unic8" unicode="&#xc8;" d="M43 0L155 705L617 705L604 622L242 622L207 400L546 400L533 316L194 316L157 84L518 84L505 0L43 0M375 765L236 938L344 938L449 765L375 765Z"  horiz-adv-x="591" vert-adv-y="1000"  />

      
      <glyph glyph-name="uni1EBA" unicode="&#x1EBA;" d="M43 0L155 705L617 705L604 622L242 622L207 400L546 400L533 316L194 316L157 84L518 84L505 0L43 0M378 765L381 782Q384 801 395 813.50Q406 826 418.50 834.50Q431 843 440 851Q449 859 449 871Q449 881 438 885.50Q427 890 407 890Q391 890 376 887Q361 884 344 877L331 924Q373 944 433 944Q478 944 503 928.50Q528 913 528 886Q528 862 516.50 848.50Q505 835 489 826Q473 817 460.50 806Q448 795 446 776L444 765L378 765Z"  horiz-adv-x="591" vert-adv-y="1000"  />

      
      <glyph glyph-name="uni0206" unicode="&#x0206;" d="M43 0L155 705L617 705L604 622L242 622L207 400L546 400L533 316L194 316L157 84L518 84L505 0L43 0M292 760L232 768Q245 846 296.50 891.50Q348 937 422 937Q470 937 506.50 916Q543 895 563.50 857Q584 819 583 768L522 760Q524 814 495.50 844Q467 874 417 874Q368 874 334.50 844Q301 814 292 760Z"  horiz-adv-x="591" vert-adv-y="1000"  />

      
      <glyph glyph-name="uni0112" unicode="&#x0112;" d="M43 0L155 705L617 705L604 622L242 622L207 400L546 400L533 316L194 316L157 84L518 84L505 0L43 0M251 811L260 874L596 874L586 811L251 811Z"  horiz-adv-x="591" vert-adv-y="1000"  />

      
      <glyph glyph-name="uni1E16" unicode="&#x1E16;" d="M43 0L155 705L617 705L604 622L242 622L207 400L546 400L533 316L194 316L157 84L518 84L505 0L43 0M262 787L272 850L577 850L567 787L262 787M398 887L490 1025L591 1025L464 887L398 887Z"  horiz-adv-x="591" vert-adv-y="1000"  />

      
      <glyph glyph-name="uni1E14" unicode="&#x1E14;" d="M43 0L155 705L617 705L604 622L242 622L207 400L546 400L533 316L194 316L157 84L518 84L505 0L43 0M398 887L295 1025L395 1025L463 887L398 887M261 787L272 850L577 850L567 787L261 787Z"  horiz-adv-x="591" vert-adv-y="1000"  />

      
      <glyph glyph-name="uni0118" unicode="&#x0118;" d="M43 0L155 705L617 705L604 622L242 622L207 400L546 400L533 316L194 316L157 84L518 84L505 0L43 0M430-194Q381-194 355-168.50Q329-143 329-102Q329-55 360-17.50Q391 20 439 39L467 0Q431-15 414-38Q397-61 397-86Q397-108 410.50-122Q424-136 449-136Q462-136 475-133Q488-130 503-124L514-178Q494-184 473.50-189Q453-194 430-194Z"  horiz-adv-x="591" vert-adv-y="1000"  />

      
      <glyph glyph-name="uni1EBC" unicode="&#x1EBC;" d="M43 0L155 705L617 705L604 622L242 622L207 400L546 400L533 316L194 316L157 84L518 84L505 0L43 0M249 778L196 781Q207 848 242 884.50Q277 921 329 921Q359 921 384.50 908.50Q410 896 433 882Q453 869 471 859.50Q489 850 508 850Q565 850 583 925L637 921Q626 854 591 817.50Q556 781 505 781Q475 781 449 794Q423 807 400 821Q380 833 361.50 843Q343 853 324 853Q268 853 249 778Z"  horiz-adv-x="591" vert-adv-y="1000"  />

      
      <glyph glyph-name="uni46" unicode="&#x46;" d="M43 0L155 705L607 705L593 622L245 622L210 396L535 396L522 313L197 313L147 0L43 0Z"  horiz-adv-x="567" vert-adv-y="1000"  />

      
      <glyph glyph-name="uni47" unicode="&#x47;" d="M386-9Q262-9 187.50 37Q113 83 86 167.50Q59 252 77 365Q95 477 148.50 554.50Q202 632 286 673Q370 714 478 714Q555 714 609 695Q663 676 701 642L660 559Q620 593 579 608Q538 623 473 623Q353 623 278.50 553Q204 483 184 354Q164 225 213.50 153Q263 81 394 81Q444 81 487.50 89.50Q531 98 575 116L543 66L579 297L406 297L419 375L680 375L627 45Q596 28 555 16Q514 4 470-2.50Q426-9 386-9Z"  horiz-adv-x="735" vert-adv-y="1000"  />

      
      <glyph glyph-name="uni011E" unicode="&#x011E;" d="M386-9Q262-9 187.50 37Q113 83 86 167.50Q59 252 77 365Q95 477 148.50 554.50Q202 632 286 673Q370 714 478 714Q555 714 609 695Q663 676 701 642L660 559Q620 593 579 608Q538 623 473 623Q353 623 278.50 553Q204 483 184 354Q164 225 213.50 153Q263 81 394 81Q444 81 487.50 89.50Q531 98 575 116L543 66L579 297L406 297L419 375L680 375L627 45Q596 28 555 16Q514 4 470-2.50Q426-9 386-9M489 760Q440 760 403.50 781Q367 802 347 840.50Q327 879 327 929L387 937Q386 883 415 853.50Q444 824 493 824Q543 824 576 853.50Q609 883 618 937L677 929Q665 851 614 805.50Q563 760 489 760Z"  horiz-adv-x="735" vert-adv-y="1000"  />

      
      <glyph glyph-name="uni01E6" unicode="&#x01E6;" d="M386-9Q262-9 187.50 37Q113 83 86 167.50Q59 252 77 365Q95 477 148.50 554.50Q202 632 286 673Q370 714 478 714Q555 714 609 695Q663 676 701 642L660 559Q620 593 579 608Q538 623 473 623Q353 623 278.50 553Q204 483 184 354Q164 225 213.50 153Q263 81 394 81Q444 81 487.50 89.50Q531 98 575 116L543 66L579 297L406 297L419 375L680 375L627 45Q596 28 555 16Q514 4 470-2.50Q426-9 386-9M441 765L335 938L405 938L489 826L596 938L672 938L531 765L441 765Z"  horiz-adv-x="735" vert-adv-y="1000"  />

      
      <glyph glyph-name="uni011C" unicode="&#x011C;" d="M386-9Q262-9 187.50 37Q113 83 86 167.50Q59 252 77 365Q95 477 148.50 554.50Q202 632 286 673Q370 714 478 714Q555 714 609 695Q663 676 701 642L660 559Q620 593 579 608Q538 623 473 623Q353 623 278.50 553Q204 483 184 354Q164 225 213.50 153Q263 81 394 81Q444 81 487.50 89.50Q531 98 575 116L543 66L579 297L406 297L419 375L680 375L627 45Q596 28 555 16Q514 4 470-2.50Q426-9 386-9M311 765L452 938L542 938L647 765L575 765L492 877L383 765L311 765Z"  horiz-adv-x="735" vert-adv-y="1000"  />

      
      <glyph glyph-name="uni0122" unicode="&#x0122;" d="M386-9Q262-9 187.50 37Q113 83 86 167.50Q59 252 77 365Q95 477 148.50 554.50Q202 632 286 673Q370 714 478 714Q555 714 609 695Q663 676 701 642L660 559Q620 593 579 608Q538 623 473 623Q353 623 278.50 553Q204 483 184 354Q164 225 213.50 153Q263 81 394 81Q444 81 487.50 89.50Q531 98 575 116L543 66L579 297L406 297L419 375L680 375L627 45Q596 28 555 16Q514 4 470-2.50Q426-9 386-9M336-273L303-241Q329-220 338-200.50Q347-181 351-155L372-168L293-168L308-77L421-77L409-148Q402-189 386.50-219Q371-249 336-273Z"  horiz-adv-x="735" vert-adv-y="1000"  />

      
      <glyph glyph-name="uni0120" unicode="&#x0120;" d="M386-9Q262-9 187.50 37Q113 83 86 167.50Q59 252 77 365Q95 477 148.50 554.50Q202 632 286 673Q370 714 478 714Q555 714 609 695Q663 676 701 642L660 559Q620 593 579 608Q538 623 473 623Q353 623 278.50 553Q204 483 184 354Q164 225 213.50 153Q263 81 394 81Q444 81 487.50 89.50Q531 98 575 116L543 66L579 297L406 297L419 375L680 375L627 45Q596 28 555 16Q514 4 470-2.50Q426-9 386-9M440 801L455 902L559 902L543 801L440 801Z"  horiz-adv-x="735" vert-adv-y="1000"  />

      
      <glyph glyph-name="uni1E20" unicode="&#x1E20;" d="M386-9Q262-9 187.50 37Q113 83 86 167.50Q59 252 77 365Q95 477 148.50 554.50Q202 632 286 673Q370 714 478 714Q555 714 609 695Q663 676 701 642L660 559Q620 593 579 608Q538 623 473 623Q353 623 278.50 553Q204 483 184 354Q164 225 213.50 153Q263 81 394 81Q444 81 487.50 89.50Q531 98 575 116L543 66L579 297L406 297L419 375L680 375L627 45Q596 28 555 16Q514 4 470-2.50Q426-9 386-9M326 811L335 874L671 874L661 811L326 811Z"  horiz-adv-x="735" vert-adv-y="1000"  />

      
      <glyph glyph-name="uni48" unicode="&#x48;" d="M43 0L155 705L259 705L211 401L607 401L655 705L759 705L647 0L543 0L593 314L197 314L147 0L43 0Z"  horiz-adv-x="770" vert-adv-y="1000"  />

      
      <glyph glyph-name="uni0126" unicode="&#x0126;" d="M62 0L143 516L53 516L65 593L155 593L174 705L278 705L259 593L654 593L672 705L776 705L757 593L848 593L835 516L745 516L664 0L560 0L609 305L214 305L166 0L62 0M228 393L622 393L641 516L247 516L228 393Z"  horiz-adv-x="805" vert-adv-y="1000"  />

      
      <glyph glyph-name="uni1E2A" unicode="&#x1E2A;" d="M43 0L155 705L259 705L211 401L607 401L655 705L759 705L647 0L543 0L593 314L197 314L147 0L43 0M326-215Q256-215 214.50-174Q173-133 177-64L237-58Q235-102 259.50-127Q284-152 328-152Q372-152 400.50-127Q429-102 436-58L496-64Q488-133 442-174Q396-215 326-215Z"  horiz-adv-x="770" vert-adv-y="1000"  />

      
      <glyph glyph-name="uni0124" unicode="&#x0124;" d="M43 0L155 705L259 705L211 401L607 401L655 705L759 705L647 0L543 0L593 314L197 314L147 0L43 0M292 765L433 938L523 938L628 765L556 765L473 877L364 765L292 765Z"  horiz-adv-x="770" vert-adv-y="1000"  />

      
      <glyph glyph-name="uni1E24" unicode="&#x1E24;" d="M43 0L155 705L259 705L211 401L607 401L655 705L759 705L647 0L543 0L593 314L197 314L147 0L43 0M262-195L279-94L384-94L367-195L262-195Z"  horiz-adv-x="770" vert-adv-y="1000"  />

      
      <glyph glyph-name="uni49" unicode="&#x49;" d="M43 0L155 705L259 705L147 0L43 0Z"  horiz-adv-x="270" vert-adv-y="1000"  />

      
      <glyph glyph-name="uni0132" unicode="&#x0132;" d="M43 0L155 705L259 705L147 0L43 0M285-187Q268-187 246-184.50Q224-182 203-175L216-91Q235-98 251.50-100.50Q268-103 281-103Q327-103 353.50-75Q380-47 389 14L499 705L603 705L492 6Q481-60 455.50-102.50Q430-145 388-166Q346-187 285-187Z"  horiz-adv-x="614" vert-adv-y="1000"  />

      
      <glyph glyph-name="unicd" unicode="&#xcd;" d="M43 0L155 705L259 705L147 0L43 0M180 765L311 938L422 938L254 765L180 765Z"  horiz-adv-x="270" vert-adv-y="1000"  />

      
      <glyph glyph-name="uni012C" unicode="&#x012C;" d="M43 0L155 705L259 705L147 0L43 0M220 760Q171 760 134.50 781Q98 802 78 840.50Q58 879 58 929L118 937Q117 883 146 853.50Q175 824 224 824Q274 824 307 853.50Q340 883 349 937L408 929Q396 851 345 805.50Q294 760 220 760Z"  horiz-adv-x="270" vert-adv-y="1000"  />

      
      <glyph glyph-name="unice" unicode="&#xce;" d="M43 0L155 705L259 705L147 0L43 0M41 765L182 938L272 938L377 765L305 765L222 877L113 765L41 765Z"  horiz-adv-x="270" vert-adv-y="1000"  />

      
      <glyph glyph-name="uni0208" unicode="&#x0208;" d="M43 0L155 705L259 705L147 0L43 0M256 765L148 938L243 938L313 765L256 765M120 765L6 938L100 938L178 765L120 765Z"  horiz-adv-x="270" vert-adv-y="1000"  />

      
      <glyph glyph-name="unicf" unicode="&#xcf;" d="M43 0L155 705L259 705L147 0L43 0M262 799L278 898L377 898L361 799L262 799M81 799L97 898L196 898L180 799L81 799Z"  horiz-adv-x="270" vert-adv-y="1000"  />

      
      <glyph glyph-name="uni1E2E" unicode="&#x1E2E;" d="M43 0L155 705L259 705L147 0L43 0M203 887L295 1025L396 1025L269 887L203 887M77 770L90 850L189 850L176 770L77 770M258 770L271 850L370 850L357 770L258 770Z"  horiz-adv-x="270" vert-adv-y="1000"  />

      
      <glyph glyph-name="uni0130" unicode="&#x0130;" d="M43 0L155 705L259 705L147 0L43 0M170 801L185 902L289 902L273 801L170 801Z"  horiz-adv-x="270" vert-adv-y="1000"  />

      
      <glyph glyph-name="uni1ECA" unicode="&#x1ECA;" d="M43 0L155 705L259 705L147 0L43 0M11-195L28-94L133-94L116-195L11-195Z"  horiz-adv-x="270" vert-adv-y="1000"  />

      
      <glyph glyph-name="unicc" unicode="&#xcc;" d="M43 0L155 705L259 705L147 0L43 0M180 765L41 938L149 938L254 765L180 765Z"  horiz-adv-x="270" vert-adv-y="1000"  />

      
      <glyph glyph-name="uni1EC8" unicode="&#x1EC8;" d="M43 0L155 705L259 705L147 0L43 0M183 765L186 782Q189 801 200 813.50Q211 826 223.50 834.50Q236 843 245 851Q254 859 254 871Q254 881 243 885.50Q232 890 212 890Q196 890 181 887Q166 884 149 877L136 924Q178 944 238 944Q283 944 308 928.50Q333 913 333 886Q333 862 321.50 848.50Q310 835 294 826Q278 817 265.50 806Q253 795 251 776L249 765L183 765Z"  horiz-adv-x="270" vert-adv-y="1000"  />

      
      <glyph glyph-name="uni020A" unicode="&#x020A;" d="M43 0L155 705L259 705L147 0L43 0M97 760L37 768Q50 846 101.50 891.50Q153 937 227 937Q275 937 311.50 916Q348 895 368.50 857Q389 819 388 768L327 760Q329 814 300.50 844Q272 874 222 874Q173 874 139.50 844Q106 814 97 760Z"  horiz-adv-x="270" vert-adv-y="1000"  />

      
      <glyph glyph-name="uni012A" unicode="&#x012A;" d="M43 0L155 705L259 705L147 0L43 0M56 811L65 874L401 874L391 811L56 811Z"  horiz-adv-x="270" vert-adv-y="1000"  />

      
      <glyph glyph-name="uni012E" unicode="&#x012E;" d="M43 0L155 705L259 705L147 0L43 0M90-194Q41-194 15-168.50Q-11-143-11-102Q-11-55 20-17.50Q51 20 99 39L127 0Q91-15 74-38Q57-61 57-86Q57-108 70.50-122Q84-136 109-136Q122-136 135-133Q148-130 163-124L174-178Q154-184 133.50-189Q113-194 90-194Z"  horiz-adv-x="270" vert-adv-y="1000"  />

      
      <glyph glyph-name="uni0128" unicode="&#x0128;" d="M43 0L155 705L259 705L147 0L43 0M53 778L0 781Q11 848 46 884.50Q81 921 133 921Q163 921 188.50 908.50Q214 896 237 882Q257 869 275 859.50Q293 850 312 850Q369 850 387 925L441 921Q430 854 395 817.50Q360 781 309 781Q279 781 253 794Q227 807 204 821Q184 833 165.50 843Q147 853 128 853Q72 853 53 778Z"  horiz-adv-x="270" vert-adv-y="1000"  />

      
      <glyph glyph-name="uni4a" unicode="&#x4a;" d="M15-187Q-2-187-24-184.50Q-46-182-67-175L-54-91Q-35-98-18.50-100.50Q-2-103 11-103Q57-103 83.50-75Q110-47 119 14L229 705L333 705L222 6Q211-60 185.50-102.50Q160-145 118-166Q76-187 15-187Z"  horiz-adv-x="344" vert-adv-y="1000"  />

      
      <glyph glyph-name="uni0134" unicode="&#x0134;" d="M15-187Q-2-187-24-184.50Q-46-182-67-175L-54-91Q-35-98-18.50-100.50Q-2-103 11-103Q57-103 83.50-75Q110-47 119 14L229 705L333 705L222 6Q211-60 185.50-102.50Q160-145 118-166Q76-187 15-187M116 765L257 938L347 938L452 765L380 765L297 877L188 765L116 765Z"  horiz-adv-x="344" vert-adv-y="1000"  />

      
      <glyph glyph-name="uni4b" unicode="&#x4b;" d="M43 0L155 705L259 705L209 388L211 388L581 705L714 705L282 339L280 388L628 0L500 0L202 329L200 329L147 0L43 0Z"  horiz-adv-x="648" vert-adv-y="1000"  />

      
      <glyph glyph-name="uni0136" unicode="&#x0136;" d="M43 0L155 705L259 705L209 388L211 388L581 705L714 705L282 339L280 388L628 0L500 0L202 329L200 329L147 0L43 0M250-273L217-241Q243-220 252-200.50Q261-181 265-155L286-168L207-168L222-77L335-77L323-148Q316-189 300.50-219Q285-249 250-273Z"  horiz-adv-x="648" vert-adv-y="1000"  />

      
      <glyph glyph-name="uni4c" unicode="&#x4c;" d="M43 0L155 705L259 705L161 89L506 89L493 0L43 0Z"  horiz-adv-x="552" vert-adv-y="1000"  />

      
      <glyph glyph-name="uni01C7" unicode="&#x01C7;" d="M43 0L155 705L259 705L161 89L506 89L493 0L43 0M607-187Q590-187 568-184.50Q546-182 525-175L538-91Q557-98 573.50-100.50Q590-103 603-103Q649-103 675.50-75Q702-47 711 14L821 705L925 705L814 6Q803-60 777.50-102.50Q752-145 710-166Q668-187 607-187Z"  horiz-adv-x="936" vert-adv-y="1000"  />

      
      <glyph glyph-name="uni0139" unicode="&#x0139;" d="M43 0L155 705L259 705L161 89L506 89L493 0L43 0M180 765L311 938L422 938L254 765L180 765Z"  horiz-adv-x="552" vert-adv-y="1000"  />

      
      <glyph glyph-name="uni013D" unicode="&#x013D;" d="M43 0L155 705L259 705L161 89L506 89L493 0L43 0M331 475L368 705L451 705L392 475L331 475Z"  horiz-adv-x="552" vert-adv-y="1000"  />

      
      <glyph glyph-name="uni013B" unicode="&#x013B;" d="M43 0L155 705L259 705L161 89L506 89L493 0L43 0M230-273L197-241Q223-220 232-200.50Q241-181 245-155L266-168L187-168L202-77L315-77L303-148Q296-189 280.50-219Q265-249 230-273Z"  horiz-adv-x="552" vert-adv-y="1000"  />

      
      <glyph glyph-name="uni013F" unicode="&#x013F;" d="M43 0L155 705L259 705L161 89L506 89L493 0L43 0M369 337L386 444L505 444L489 337L369 337Z"  horiz-adv-x="552" vert-adv-y="1000"  />

      
      <glyph glyph-name="uni1E36" unicode="&#x1E36;" d="M43 0L155 705L259 705L161 89L506 89L493 0L43 0M186-195L203-94L308-94L291-195L186-195Z"  horiz-adv-x="552" vert-adv-y="1000"  />

      
      <glyph glyph-name="uni01C8" unicode="&#x01C8;" d="M43 0L155 705L259 705L161 89L506 89L493 0L43 0M492-221Q475-221 455-218Q435-215 419-208L433-126Q445-130 459.50-133.50Q474-137 488-137Q527-137 551.50-112.50Q576-88 585-32L670 504L771 504L685-39Q671-129 623-175Q575-221 492-221M678 609L695 714L812 714L795 609L678 609Z"  horiz-adv-x="800" vert-adv-y="1000"  />

      
      <glyph glyph-name="uni1E3A" unicode="&#x1E3A;" d="M43 0L155 705L259 705L161 89L506 89L493 0L43 0M92-160L102-96L408-96L398-160L92-160Z"  horiz-adv-x="552" vert-adv-y="1000"  />

      
      <glyph glyph-name="uni0141" unicode="&#x0141;" d="M43 0L155 705L259 705L161 89L506 89L493 0L43 0M16 260L-18 332L378 516L412 444L16 260Z"  horiz-adv-x="552" vert-adv-y="1000"  />

      
      <glyph glyph-name="uni4d" unicode="&#x4d;" d="M44 0L156 705L247 705L422 92L391 92L761 705L851 705L739 0L645 0L734 564L768 564L424 0L361 0L195 564L228 564L139 0L44 0Z"  horiz-adv-x="864" vert-adv-y="1000"  />

      
      <glyph glyph-name="uni1E42" unicode="&#x1E42;" d="M44 0L156 705L247 705L422 92L391 92L761 705L851 705L739 0L645 0L734 564L768 564L424 0L361 0L195 564L228 564L139 0L44 0M308-195L325-94L430-94L413-195L308-195Z"  horiz-adv-x="864" vert-adv-y="1000"  />

      
      <glyph glyph-name="uni4e" unicode="&#x4e;" d="M43 0L155 705L235 705L574 132L553 137L643 705L740 705L628 0L549 0L209 573L230 568L140 0L43 0Z"  horiz-adv-x="750" vert-adv-y="1000"  />

      
      <glyph glyph-name="uni01CA" unicode="&#x01CA;" d="M43 0L155 705L235 705L574 132L553 137L643 705L740 705L628 0L549 0L209 573L230 568L140 0L43 0M765-187Q748-187 726-184.50Q704-182 683-175L696-91Q715-98 731.50-100.50Q748-103 761-103Q807-103 833.50-75Q860-47 869 14L979 705L1083 705L972 6Q961-60 935.50-102.50Q910-145 868-166Q826-187 765-187Z"  horiz-adv-x="1094" vert-adv-y="1000"  />

      
      <glyph glyph-name="uni0143" unicode="&#x0143;" d="M43 0L155 705L235 705L574 132L553 137L643 705L740 705L628 0L549 0L209 573L230 568L140 0L43 0M422 765L553 938L664 938L496 765L422 765Z"  horiz-adv-x="750" vert-adv-y="1000"  />

      
      <glyph glyph-name="uni0147" unicode="&#x0147;" d="M43 0L155 705L235 705L574 132L553 137L643 705L740 705L628 0L549 0L209 573L230 568L140 0L43 0M414 765L308 938L378 938L462 826L569 938L645 938L504 765L414 765Z"  horiz-adv-x="750" vert-adv-y="1000"  />

      
      <glyph glyph-name="uni0145" unicode="&#x0145;" d="M43 0L155 705L235 705L574 132L553 137L643 705L740 705L628 0L549 0L209 573L230 568L140 0L43 0M297-273L264-241Q290-220 299-200.50Q308-181 312-155L333-168L254-168L269-77L382-77L370-148Q363-189 347.50-219Q332-249 297-273Z"  horiz-adv-x="750" vert-adv-y="1000"  />

      
      <glyph glyph-name="uni1E44" unicode="&#x1E44;" d="M43 0L155 705L235 705L574 132L553 137L643 705L740 705L628 0L549 0L209 573L230 568L140 0L43 0M412 801L427 902L531 902L515 801L412 801Z"  horiz-adv-x="750" vert-adv-y="1000"  />

      
      <glyph glyph-name="uni1E46" unicode="&#x1E46;" d="M43 0L155 705L235 705L574 132L553 137L643 705L740 705L628 0L549 0L209 573L230 568L140 0L43 0M254-195L271-94L376-94L359-195L254-195Z"  horiz-adv-x="750" vert-adv-y="1000"  />

      
      <glyph glyph-name="uni014A" unicode="&#x014A;" d="M368-193L373-117L421-113Q467-110 494.50-84.50Q522-59 529-11L538 44L549 0L209 573L230 568L140 0L43 0L155 705L235 705L574 132L553 137L643 705L740 705L627-3Q618-63 592-103.50Q566-144 522.50-165Q479-186 414-190L368-193Z"  horiz-adv-x="750" vert-adv-y="1000"  />

      
      <glyph glyph-name="uni01CB" unicode="&#x01CB;" d="M43 0L155 705L235 705L574 132L553 137L643 705L740 705L628 0L549 0L209 573L230 568L140 0L43 0M690-221Q673-221 653-218Q633-215 617-208L631-126Q643-130 657.50-133.50Q672-137 686-137Q725-137 749.50-112.50Q774-88 783-32L868 504L969 504L883-39Q869-129 821-175Q773-221 690-221M876 609L893 714L1010 714L993 609L876 609Z"  horiz-adv-x="999" vert-adv-y="1000"  />

      
      <glyph glyph-name="uni1E48" unicode="&#x1E48;" d="M43 0L155 705L235 705L574 132L553 137L643 705L740 705L628 0L549 0L209 573L230 568L140 0L43 0M160-160L170-96L476-96L466-160L160-160Z"  horiz-adv-x="750" vert-adv-y="1000"  />

      
      <glyph glyph-name="unid1" unicode="&#xd1;" d="M43 0L155 705L235 705L574 132L553 137L643 705L740 705L628 0L549 0L209 573L230 568L140 0L43 0M296 778L243 781Q254 848 289 884.50Q324 921 376 921Q406 921 431.50 908.50Q457 896 480 882Q500 869 518 859.50Q536 850 555 850Q612 850 630 925L684 921Q673 854 638 817.50Q603 781 552 781Q522 781 496 794Q470 807 447 821Q427 833 408.50 843Q390 853 371 853Q315 853 296 778Z"  horiz-adv-x="750" vert-adv-y="1000"  />

      
      <glyph glyph-name="uni4f" unicode="&#x4f;" d="M77 367Q95 478 145 555.50Q195 633 273.50 673.50Q352 714 451 714Q560 714 628.50 666.50Q697 619 724 534Q751 449 733 339Q716 228 665.50 150.50Q615 73 537 32Q459-9 359-9Q251-9 182 38.50Q113 86 86.50 171Q60 256 77 367M184 357Q171 270 187.50 208.50Q204 147 249.50 114Q295 81 367 81Q475 81 541 152.50Q607 224 626 349Q640 435 622.50 496.50Q605 558 560 591Q515 624 443 624Q335 624 270 553.50Q205 483 184 357Z"  horiz-adv-x="779" vert-adv-y="1000"  />

      
      <glyph glyph-name="unid3" unicode="&#xd3;" d="M77 367Q95 478 145 555.50Q195 633 273.50 673.50Q352 714 451 714Q560 714 628.50 666.50Q697 619 724 534Q751 449 733 339Q716 228 665.50 150.50Q615 73 537 32Q459-9 359-9Q251-9 182 38.50Q113 86 86.50 171Q60 256 77 367M184 357Q171 270 187.50 208.50Q204 147 249.50 114Q295 81 367 81Q475 81 541 152.50Q607 224 626 349Q640 435 622.50 496.50Q605 558 560 591Q515 624 443 624Q335 624 270 553.50Q205 483 184 357M434 765L565 938L676 938L508 765L434 765Z"  horiz-adv-x="779" vert-adv-y="1000"  />

      
      <glyph glyph-name="uni014E" unicode="&#x014E;" d="M77 367Q95 478 145 555.50Q195 633 273.50 673.50Q352 714 451 714Q560 714 628.50 666.50Q697 619 724 534Q751 449 733 339Q716 228 665.50 150.50Q615 73 537 32Q459-9 359-9Q251-9 182 38.50Q113 86 86.50 171Q60 256 77 367M184 357Q171 270 187.50 208.50Q204 147 249.50 114Q295 81 367 81Q475 81 541 152.50Q607 224 626 349Q640 435 622.50 496.50Q605 558 560 591Q515 624 443 624Q335 624 270 553.50Q205 483 184 357M474 760Q425 760 388.50 781Q352 802 332 840.50Q312 879 312 929L372 937Q371 883 400 853.50Q429 824 478 824Q528 824 561 853.50Q594 883 603 937L662 929Q650 851 599 805.50Q548 760 474 760Z"  horiz-adv-x="779" vert-adv-y="1000"  />

      
      <glyph glyph-name="unid4" unicode="&#xd4;" d="M77 367Q95 478 145 555.50Q195 633 273.50 673.50Q352 714 451 714Q560 714 628.50 666.50Q697 619 724 534Q751 449 733 339Q716 228 665.50 150.50Q615 73 537 32Q459-9 359-9Q251-9 182 38.50Q113 86 86.50 171Q60 256 77 367M184 357Q171 270 187.50 208.50Q204 147 249.50 114Q295 81 367 81Q475 81 541 152.50Q607 224 626 349Q640 435 622.50 496.50Q605 558 560 591Q515 624 443 624Q335 624 270 553.50Q205 483 184 357M295 765L436 938L526 938L631 765L559 765L476 877L367 765L295 765Z"  horiz-adv-x="779" vert-adv-y="1000"  />

      
      <glyph glyph-name="uni1ED0" unicode="&#x1ED0;" d="M77 367Q95 478 145 555.50Q195 633 273.50 673.50Q352 714 451 714Q560 714 628.50 666.50Q697 619 724 534Q751 449 733 339Q716 228 665.50 150.50Q615 73 537 32Q459-9 359-9Q251-9 182 38.50Q113 86 86.50 171Q60 256 77 367M184 357Q171 270 187.50 208.50Q204 147 249.50 114Q295 81 367 81Q475 81 541 152.50Q607 224 626 349Q640 435 622.50 496.50Q605 558 560 591Q515 624 443 624Q335 624 270 553.50Q205 483 184 357M312 765L437 928L528 928L624 765L558 765L478 869L378 765L312 765M578 870L675 1020L766 1020L639 870L578 870Z"  horiz-adv-x="779" vert-adv-y="1000"  />

      
      <glyph glyph-name="uni1ED8" unicode="&#x1ED8;" d="M77 367Q95 478 145 555.50Q195 633 273.50 673.50Q352 714 451 714Q560 714 628.50 666.50Q697 619 724 534Q751 449 733 339Q716 228 665.50 150.50Q615 73 537 32Q459-9 359-9Q251-9 182 38.50Q113 86 86.50 171Q60 256 77 367M184 357Q171 270 187.50 208.50Q204 147 249.50 114Q295 81 367 81Q475 81 541 152.50Q607 224 626 349Q640 435 622.50 496.50Q605 558 560 591Q515 624 443 624Q335 624 270 553.50Q205 483 184 357M265-195L282-94L387-94L370-195L265-195M295 765L436 938L526 938L631 765L559 765L476 877L367 765L295 765Z"  horiz-adv-x="779" vert-adv-y="1000"  />

      
      <glyph glyph-name="uni1ED2" unicode="&#x1ED2;" d="M77 367Q95 478 145 555.50Q195 633 273.50 673.50Q352 714 451 714Q560 714 628.50 666.50Q697 619 724 534Q751 449 733 339Q716 228 665.50 150.50Q615 73 537 32Q459-9 359-9Q251-9 182 38.50Q113 86 86.50 171Q60 256 77 367M184 357Q171 270 187.50 208.50Q204 147 249.50 114Q295 81 367 81Q475 81 541 152.50Q607 224 626 349Q640 435 622.50 496.50Q605 558 560 591Q515 624 443 624Q335 624 270 553.50Q205 483 184 357M312 765L437 928L528 928L624 765L558 765L478 869L378 765L312 765M617 870L517 1020L606 1020L679 870L617 870Z"  horiz-adv-x="779" vert-adv-y="1000"  />

      
      <glyph glyph-name="uni1ED4" unicode="&#x1ED4;" d="M77 367Q95 478 145 555.50Q195 633 273.50 673.50Q352 714 451 714Q560 714 628.50 666.50Q697 619 724 534Q751 449 733 339Q716 228 665.50 150.50Q615 73 537 32Q459-9 359-9Q251-9 182 38.50Q113 86 86.50 171Q60 256 77 367M184 357Q171 270 187.50 208.50Q204 147 249.50 114Q295 81 367 81Q475 81 541 152.50Q607 224 626 349Q640 435 622.50 496.50Q605 558 560 591Q515 624 443 624Q335 624 270 553.50Q205 483 184 357M312 765L437 928L528 928L624 765L558 765L478 869L378 765L312 765M584 870Q586 891 595 903Q604 915 616.50 923.50Q629 932 638 940Q647 948 647 960Q647 969 637 972.50Q627 976 612 976Q596 976 578.50 972.50Q561 969 547 964L537 1006Q556 1015 578.50 1019.50Q601 1024 630 1024Q672 1024 695 1011.50Q718 999 718 976Q718 956 707 943Q696 930 681 920.50Q666 911 655 899.50Q644 888 642 870L584 870Z"  horiz-adv-x="779" vert-adv-y="1000"  />

      
      <glyph glyph-name="uni1ED6" unicode="&#x1ED6;" d="M77 367Q95 478 145 555.50Q195 633 273.50 673.50Q352 714 451 714Q560 714 628.50 666.50Q697 619 724 534Q751 449 733 339Q716 228 665.50 150.50Q615 73 537 32Q459-9 359-9Q251-9 182 38.50Q113 86 86.50 171Q60 256 77 367M184 357Q171 270 187.50 208.50Q204 147 249.50 114Q295 81 367 81Q475 81 541 152.50Q607 224 626 349Q640 435 622.50 496.50Q605 558 560 591Q515 624 443 624Q335 624 270 553.50Q205 483 184 357M312 765L433 898L525 898L623 765L559 765L475 844L377 765L312 765M370 922L320 925Q328 977 355 1003.50Q382 1030 424 1030Q447 1030 464.50 1021Q482 1012 498 1002Q512 994 524.50 987.50Q537 981 551 981Q574 981 586 992.50Q598 1004 606 1031L656 1028Q648 976 621.50 949.50Q595 923 553 923Q531 923 512.50 931.50Q494 940 479 950Q465 959 452 965.50Q439 972 426 972Q403 972 390 960Q377 948 370 922Z"  horiz-adv-x="779" vert-adv-y="1000"  />

      
      <glyph glyph-name="uni020C" unicode="&#x020C;" d="M77 367Q95 478 145 555.50Q195 633 273.50 673.50Q352 714 451 714Q560 714 628.50 666.50Q697 619 724 534Q751 449 733 339Q716 228 665.50 150.50Q615 73 537 32Q459-9 359-9Q251-9 182 38.50Q113 86 86.50 171Q60 256 77 367M184 357Q171 270 187.50 208.50Q204 147 249.50 114Q295 81 367 81Q475 81 541 152.50Q607 224 626 349Q640 435 622.50 496.50Q605 558 560 591Q515 624 443 624Q335 624 270 553.50Q205 483 184 357M510 765L402 938L497 938L567 765L510 765M374 765L260 938L354 938L432 765L374 765Z"  horiz-adv-x="779" vert-adv-y="1000"  />

      
      <glyph glyph-name="unid6" unicode="&#xd6;" d="M77 367Q95 478 145 555.50Q195 633 273.50 673.50Q352 714 451 714Q560 714 628.50 666.50Q697 619 724 534Q751 449 733 339Q716 228 665.50 150.50Q615 73 537 32Q459-9 359-9Q251-9 182 38.50Q113 86 86.50 171Q60 256 77 367M184 357Q171 270 187.50 208.50Q204 147 249.50 114Q295 81 367 81Q475 81 541 152.50Q607 224 626 349Q640 435 622.50 496.50Q605 558 560 591Q515 624 443 624Q335 624 270 553.50Q205 483 184 357M516 799L532 898L631 898L615 799L516 799M335 799L351 898L450 898L434 799L335 799Z"  horiz-adv-x="779" vert-adv-y="1000"  />

      
      <glyph glyph-name="uni022A" unicode="&#x022A;" d="M77 367Q95 478 145 555.50Q195 633 273.50 673.50Q352 714 451 714Q560 714 628.50 666.50Q697 619 724 534Q751 449 733 339Q716 228 665.50 150.50Q615 73 537 32Q459-9 359-9Q251-9 182 38.50Q113 86 86.50 171Q60 256 77 367M184 357Q171 270 187.50 208.50Q204 147 249.50 114Q295 81 367 81Q475 81 541 152.50Q607 224 626 349Q640 435 622.50 496.50Q605 558 560 591Q515 624 443 624Q335 624 270 553.50Q205 483 184 357M343 925L353 988L658 988L648 925L343 925M335 793L348 872L447 872L434 793L335 793M516 793L528 872L628 872L615 793L516 793Z"  horiz-adv-x="779" vert-adv-y="1000"  />

      
      <glyph glyph-name="uni0230" unicode="&#x0230;" d="M77 367Q95 478 145 555.50Q195 633 273.50 673.50Q352 714 451 714Q560 714 628.50 666.50Q697 619 724 534Q751 449 733 339Q716 228 665.50 150.50Q615 73 537 32Q459-9 359-9Q251-9 182 38.50Q113 86 86.50 171Q60 256 77 367M184 357Q171 270 187.50 208.50Q204 147 249.50 114Q295 81 367 81Q475 81 541 152.50Q607 224 626 349Q640 435 622.50 496.50Q605 558 560 591Q515 624 443 624Q335 624 270 553.50Q205 483 184 357M343 925L353 988L658 988L648 925L343 925M426 793L439 872L538 872L525 793L426 793Z"  horiz-adv-x="779" vert-adv-y="1000"  />

      
      <glyph glyph-name="uni1ECC" unicode="&#x1ECC;" d="M77 367Q95 478 145 555.50Q195 633 273.50 673.50Q352 714 451 714Q560 714 628.50 666.50Q697 619 724 534Q751 449 733 339Q716 228 665.50 150.50Q615 73 537 32Q459-9 359-9Q251-9 182 38.50Q113 86 86.50 171Q60 256 77 367M184 357Q171 270 187.50 208.50Q204 147 249.50 114Q295 81 367 81Q475 81 541 152.50Q607 224 626 349Q640 435 622.50 496.50Q605 558 560 591Q515 624 443 624Q335 624 270 553.50Q205 483 184 357M265-195L282-94L387-94L370-195L265-195Z"  horiz-adv-x="779" vert-adv-y="1000"  />

      
      <glyph glyph-name="unid2" unicode="&#xd2;" d="M77 367Q95 478 145 555.50Q195 633 273.50 673.50Q352 714 451 714Q560 714 628.50 666.50Q697 619 724 534Q751 449 733 339Q716 228 665.50 150.50Q615 73 537 32Q459-9 359-9Q251-9 182 38.50Q113 86 86.50 171Q60 256 77 367M184 357Q171 270 187.50 208.50Q204 147 249.50 114Q295 81 367 81Q475 81 541 152.50Q607 224 626 349Q640 435 622.50 496.50Q605 558 560 591Q515 624 443 624Q335 624 270 553.50Q205 483 184 357M434 765L295 938L403 938L508 765L434 765Z"  horiz-adv-x="779" vert-adv-y="1000"  />

      
      <glyph glyph-name="uni1ECE" unicode="&#x1ECE;" d="M77 367Q95 478 145 555.50Q195 633 273.50 673.50Q352 714 451 714Q560 714 628.50 666.50Q697 619 724 534Q751 449 733 339Q716 228 665.50 150.50Q615 73 537 32Q459-9 359-9Q251-9 182 38.50Q113 86 86.50 171Q60 256 77 367M184 357Q171 270 187.50 208.50Q204 147 249.50 114Q295 81 367 81Q475 81 541 152.50Q607 224 626 349Q640 435 622.50 496.50Q605 558 560 591Q515 624 443 624Q335 624 270 553.50Q205 483 184 357M437 765L440 782Q443 801 454 813.50Q465 826 477.50 834.50Q490 843 499 851Q508 859 508 871Q508 881 497 885.50Q486 890 466 890Q450 890 435 887Q420 884 403 877L390 924Q432 944 492 944Q537 944 562 928.50Q587 913 587 886Q587 862 575.50 848.50Q564 835 548 826Q532 817 519.50 806Q507 795 505 776L503 765L437 765Z"  horiz-adv-x="779" vert-adv-y="1000"  />

      
      <glyph glyph-name="uni01A0" unicode="&#x01A0;" d="M77 367Q95 478 145 555.50Q195 633 273.50 673.50Q352 714 451 714Q560 714 628.50 666.50Q697 619 724 534Q751 449 733 339Q716 228 665.50 150.50Q615 73 537 32Q459-9 359-9Q251-9 182 38.50Q113 86 86.50 171Q60 256 77 367M184 357Q171 270 187.50 208.50Q204 147 249.50 114Q295 81 367 81Q475 81 541 152.50Q607 224 626 349Q640 435 622.50 496.50Q605 558 560 591Q515 624 443 624Q335 624 270 553.50Q205 483 184 357M556 649L517 709Q541 708 558.50 706.50Q576 705 594 705Q634 705 657.50 715.50Q681 726 694 750.50Q707 775 714 815L717 833L806 833L801 801Q794 756 773 721.50Q752 687 718 668Q684 649 637 649L556 649Z"  horiz-adv-x="779" vert-adv-y="1000"  />

      
      <glyph glyph-name="uni1EDA" unicode="&#x1EDA;" d="M77 367Q95 478 145 555.50Q195 633 273.50 673.50Q352 714 451 714Q560 714 628.50 666.50Q697 619 724 534Q751 449 733 339Q716 228 665.50 150.50Q615 73 537 32Q459-9 359-9Q251-9 182 38.50Q113 86 86.50 171Q60 256 77 367M184 357Q171 270 187.50 208.50Q204 147 249.50 114Q295 81 367 81Q475 81 541 152.50Q607 224 626 349Q640 435 622.50 496.50Q605 558 560 591Q515 624 443 624Q335 624 270 553.50Q205 483 184 357M556 649L517 709Q541 708 558.50 706.50Q576 705 594 705Q634 705 657.50 715.50Q681 726 694 750.50Q707 775 714 815L717 833L806 833L801 801Q794 756 773 721.50Q752 687 718 668Q684 649 637 649L556 649M442 765L573 938L684 938L516 765L442 765Z"  horiz-adv-x="779" vert-adv-y="1000"  />

      
      <glyph glyph-name="uni1EE2" unicode="&#x1EE2;" d="M77 367Q95 478 145 555.50Q195 633 273.50 673.50Q352 714 451 714Q560 714 628.50 666.50Q697 619 724 534Q751 449 733 339Q716 228 665.50 150.50Q615 73 537 32Q459-9 359-9Q251-9 182 38.50Q113 86 86.50 171Q60 256 77 367M184 357Q171 270 187.50 208.50Q204 147 249.50 114Q295 81 367 81Q475 81 541 152.50Q607 224 626 349Q640 435 622.50 496.50Q605 558 560 591Q515 624 443 624Q335 624 270 553.50Q205 483 184 357M556 649L517 709Q541 708 558.50 706.50Q576 705 594 705Q634 705 657.50 715.50Q681 726 694 750.50Q707 775 714 815L717 833L806 833L801 801Q794 756 773 721.50Q752 687 718 668Q684 649 637 649L556 649M274-195L291-94L396-94L379-195L274-195Z"  horiz-adv-x="779" vert-adv-y="1000"  />

      
      <glyph glyph-name="uni1EDC" unicode="&#x1EDC;" d="M77 367Q95 478 145 555.50Q195 633 273.50 673.50Q352 714 451 714Q560 714 628.50 666.50Q697 619 724 534Q751 449 733 339Q716 228 665.50 150.50Q615 73 537 32Q459-9 359-9Q251-9 182 38.50Q113 86 86.50 171Q60 256 77 367M184 357Q171 270 187.50 208.50Q204 147 249.50 114Q295 81 367 81Q475 81 541 152.50Q607 224 626 349Q640 435 622.50 496.50Q605 558 560 591Q515 624 443 624Q335 624 270 553.50Q205 483 184 357M556 649L517 709Q541 708 558.50 706.50Q576 705 594 705Q634 705 657.50 715.50Q681 726 694 750.50Q707 775 714 815L717 833L806 833L801 801Q794 756 773 721.50Q752 687 718 668Q684 649 637 649L556 649M442 765L303 938L411 938L516 765L442 765Z"  horiz-adv-x="779" vert-adv-y="1000"  />

      
      <glyph glyph-name="uni1EDE" unicode="&#x1EDE;" d="M77 367Q95 478 145 555.50Q195 633 273.50 673.50Q352 714 451 714Q560 714 628.50 666.50Q697 619 724 534Q751 449 733 339Q716 228 665.50 150.50Q615 73 537 32Q459-9 359-9Q251-9 182 38.50Q113 86 86.50 171Q60 256 77 367M184 357Q171 270 187.50 208.50Q204 147 249.50 114Q295 81 367 81Q475 81 541 152.50Q607 224 626 349Q640 435 622.50 496.50Q605 558 560 591Q515 624 443 624Q335 624 270 553.50Q205 483 184 357M556 649L517 709Q541 708 558.50 706.50Q576 705 594 705Q634 705 657.50 715.50Q681 726 694 750.50Q707 775 714 815L717 833L806 833L801 801Q794 756 773 721.50Q752 687 718 668Q684 649 637 649L556 649M445 765L448 782Q451 801 462 813.50Q473 826 485.50 834.50Q498 843 507 851Q516 859 516 871Q516 881 505 885.50Q494 890 474 890Q458 890 443 887Q428 884 411 877L398 924Q440 944 500 944Q545 944 570 928.50Q595 913 595 886Q595 862 583.50 848.50Q572 835 556 826Q540 817 527.50 806Q515 795 513 776L511 765L445 765Z"  horiz-adv-x="779" vert-adv-y="1000"  />

      
      <glyph glyph-name="uni1EE0" unicode="&#x1EE0;" d="M77 367Q95 478 145 555.50Q195 633 273.50 673.50Q352 714 451 714Q560 714 628.50 666.50Q697 619 724 534Q751 449 733 339Q716 228 665.50 150.50Q615 73 537 32Q459-9 359-9Q251-9 182 38.50Q113 86 86.50 171Q60 256 77 367M184 357Q171 270 187.50 208.50Q204 147 249.50 114Q295 81 367 81Q475 81 541 152.50Q607 224 626 349Q640 435 622.50 496.50Q605 558 560 591Q515 624 443 624Q335 624 270 553.50Q205 483 184 357M556 649L517 709Q541 708 558.50 706.50Q576 705 594 705Q634 705 657.50 715.50Q681 726 694 750.50Q707 775 714 815L717 833L806 833L801 801Q794 756 773 721.50Q752 687 718 668Q684 649 637 649L556 649M337 778L284 781Q294 848 328 884.50Q362 921 412 921Q441 921 460.50 909Q480 897 497 883Q512 870 526.50 860Q541 850 560 850Q616 850 633 925L687 921Q677 854 643.50 817.50Q610 781 560 781Q531 781 510.50 794Q490 807 473 821Q458 834 443 843.50Q428 853 411 853Q355 853 337 778Z"  horiz-adv-x="779" vert-adv-y="1000"  />

      
      <glyph glyph-name="uni0150" unicode="&#x0150;" d="M77 367Q95 478 145 555.50Q195 633 273.50 673.50Q352 714 451 714Q560 714 628.50 666.50Q697 619 724 534Q751 449 733 339Q716 228 665.50 150.50Q615 73 537 32Q459-9 359-9Q251-9 182 38.50Q113 86 86.50 171Q60 256 77 367M184 357Q171 270 187.50 208.50Q204 147 249.50 114Q295 81 367 81Q475 81 541 152.50Q607 224 626 349Q640 435 622.50 496.50Q605 558 560 591Q515 624 443 624Q335 624 270 553.50Q205 483 184 357M374 765L475 938L569 938L432 765L374 765M510 765L617 938L711 938L568 765L510 765Z"  horiz-adv-x="779" vert-adv-y="1000"  />

      
      <glyph glyph-name="uni020E" unicode="&#x020E;" d="M77 367Q95 478 145 555.50Q195 633 273.50 673.50Q352 714 451 714Q560 714 628.50 666.50Q697 619 724 534Q751 449 733 339Q716 228 665.50 150.50Q615 73 537 32Q459-9 359-9Q251-9 182 38.50Q113 86 86.50 171Q60 256 77 367M184 357Q171 270 187.50 208.50Q204 147 249.50 114Q295 81 367 81Q475 81 541 152.50Q607 224 626 349Q640 435 622.50 496.50Q605 558 560 591Q515 624 443 624Q335 624 270 553.50Q205 483 184 357M351 760L291 768Q304 846 355.50 891.50Q407 937 481 937Q529 937 565.50 916Q602 895 622.50 857Q643 819 642 768L581 760Q583 814 554.50 844Q526 874 476 874Q427 874 393.50 844Q360 814 351 760Z"  horiz-adv-x="779" vert-adv-y="1000"  />

      
      <glyph glyph-name="uni014C" unicode="&#x014C;" d="M77 367Q95 478 145 555.50Q195 633 273.50 673.50Q352 714 451 714Q560 714 628.50 666.50Q697 619 724 534Q751 449 733 339Q716 228 665.50 150.50Q615 73 537 32Q459-9 359-9Q251-9 182 38.50Q113 86 86.50 171Q60 256 77 367M184 357Q171 270 187.50 208.50Q204 147 249.50 114Q295 81 367 81Q475 81 541 152.50Q607 224 626 349Q640 435 622.50 496.50Q605 558 560 591Q515 624 443 624Q335 624 270 553.50Q205 483 184 357M310 811L319 874L655 874L645 811L310 811Z"  horiz-adv-x="779" vert-adv-y="1000"  />

      
      <glyph glyph-name="uni1E52" unicode="&#x1E52;" d="M77 367Q95 478 145 555.50Q195 633 273.50 673.50Q352 714 451 714Q560 714 628.50 666.50Q697 619 724 534Q751 449 733 339Q716 228 665.50 150.50Q615 73 537 32Q459-9 359-9Q251-9 182 38.50Q113 86 86.50 171Q60 256 77 367M184 357Q171 270 187.50 208.50Q204 147 249.50 114Q295 81 367 81Q475 81 541 152.50Q607 224 626 349Q640 435 622.50 496.50Q605 558 560 591Q515 624 443 624Q335 624 270 553.50Q205 483 184 357M321 787L331 850L636 850L626 787L321 787M457 887L549 1025L650 1025L523 887L457 887Z"  horiz-adv-x="779" vert-adv-y="1000"  />

      
      <glyph glyph-name="uni1E50" unicode="&#x1E50;" d="M77 367Q95 478 145 555.50Q195 633 273.50 673.50Q352 714 451 714Q560 714 628.50 666.50Q697 619 724 534Q751 449 733 339Q716 228 665.50 150.50Q615 73 537 32Q459-9 359-9Q251-9 182 38.50Q113 86 86.50 171Q60 256 77 367M184 357Q171 270 187.50 208.50Q204 147 249.50 114Q295 81 367 81Q475 81 541 152.50Q607 224 626 349Q640 435 622.50 496.50Q605 558 560 591Q515 624 443 624Q335 624 270 553.50Q205 483 184 357M457 887L354 1025L454 1025L522 887L457 887M320 787L331 850L636 850L626 787L320 787Z"  horiz-adv-x="779" vert-adv-y="1000"  />

      
      <glyph glyph-name="uni01EA" unicode="&#x01EA;" d="M77 367Q95 478 145 555.50Q195 633 273.50 673.50Q352 714 451 714Q560 714 628.50 666.50Q697 619 724 534Q751 449 733 339Q716 228 665.50 150.50Q615 73 537 32Q459-9 359-9Q251-9 182 38.50Q113 86 86.50 171Q60 256 77 367M184 357Q171 270 187.50 208.50Q204 147 249.50 114Q295 81 367 81Q475 81 541 152.50Q607 224 626 349Q640 435 622.50 496.50Q605 558 560 591Q515 624 443 624Q335 624 270 553.50Q205 483 184 357M376-194Q327-194 301-168.50Q275-143 275-102Q275-55 306-17.50Q337 20 385 39L413 0Q377-15 360-38Q343-61 343-86Q343-108 356.50-122Q370-136 395-136Q408-136 421-133Q434-130 449-124L460-178Q440-184 419.50-189Q399-194 376-194Z"  horiz-adv-x="779" vert-adv-y="1000"  />

      
      <glyph glyph-name="unid8" unicode="&#xd8;" d="M77 367Q95 478 145 555.50Q195 633 273.50 673.50Q352 714 451 714Q560 714 628.50 666.50Q697 619 724 534Q751 449 733 339Q716 228 665.50 150.50Q615 73 537 32Q459-9 359-9Q251-9 182 38.50Q113 86 86.50 171Q60 256 77 367M184 357Q171 270 187.50 208.50Q204 147 249.50 114Q295 81 367 81Q475 81 541 152.50Q607 224 626 349Q640 435 622.50 496.50Q605 558 560 591Q515 624 443 624Q335 624 270 553.50Q205 483 184 357M238 60L164-40L100 4L174 105L214 149L554 602L579 647L653 746L718 701L643 602L603 557L264 104L238 60Z"  horiz-adv-x="779" vert-adv-y="1000"  />

      
      <glyph glyph-name="uni01FE" unicode="&#x01FE;" d="M77 367Q95 478 145 555.50Q195 633 273.50 673.50Q352 714 451 714Q560 714 628.50 666.50Q697 619 724 534Q751 449 733 339Q716 228 665.50 150.50Q615 73 537 32Q459-9 359-9Q251-9 182 38.50Q113 86 86.50 171Q60 256 77 367M184 357Q171 270 187.50 208.50Q204 147 249.50 114Q295 81 367 81Q475 81 541 152.50Q607 224 626 349Q640 435 622.50 496.50Q605 558 560 591Q515 624 443 624Q335 624 270 553.50Q205 483 184 357M238 60L164-40L100 4L174 105L214 149L554 602L579 647L653 746L718 701L643 602L603 557L264 104L238 60M434 765L565 938L676 938L508 765L434 765Z"  horiz-adv-x="779" vert-adv-y="1000"  />

      
      <glyph glyph-name="unid5" unicode="&#xd5;" d="M77 367Q95 478 145 555.50Q195 633 273.50 673.50Q352 714 451 714Q560 714 628.50 666.50Q697 619 724 534Q751 449 733 339Q716 228 665.50 150.50Q615 73 537 32Q459-9 359-9Q251-9 182 38.50Q113 86 86.50 171Q60 256 77 367M184 357Q171 270 187.50 208.50Q204 147 249.50 114Q295 81 367 81Q475 81 541 152.50Q607 224 626 349Q640 435 622.50 496.50Q605 558 560 591Q515 624 443 624Q335 624 270 553.50Q205 483 184 357M307 778L254 781Q265 848 300 884.50Q335 921 387 921Q417 921 442.50 908.50Q468 896 491 882Q511 869 529 859.50Q547 850 566 850Q623 850 641 925L695 921Q684 854 649 817.50Q614 781 563 781Q533 781 507 794Q481 807 458 821Q438 833 419.50 843Q401 853 382 853Q326 853 307 778Z"  horiz-adv-x="779" vert-adv-y="1000"  />

      
      <glyph glyph-name="uni1E4C" unicode="&#x1E4C;" d="M77 367Q95 478 145 555.50Q195 633 273.50 673.50Q352 714 451 714Q560 714 628.50 666.50Q697 619 724 534Q751 449 733 339Q716 228 665.50 150.50Q615 73 537 32Q459-9 359-9Q251-9 182 38.50Q113 86 86.50 171Q60 256 77 367M184 357Q171 270 187.50 208.50Q204 147 249.50 114Q295 81 367 81Q475 81 541 152.50Q607 224 626 349Q640 435 622.50 496.50Q605 558 560 591Q515 624 443 624Q335 624 270 553.50Q205 483 184 357M457 887L549 1025L650 1025L522 887L457 887M545 767Q524 767 505 776Q486 785 469 794Q455 802 441.50 809Q428 816 413 816Q391 816 378 804Q365 792 358 766L308 769Q316 821 344 847Q372 873 415 873Q436 873 454.50 865Q473 857 490 847Q504 839 518 832Q532 825 546 825Q569 825 581.50 837Q594 849 601 875L651 872Q643 820 614.50 793.50Q586 767 545 767Z"  horiz-adv-x="779" vert-adv-y="1000"  />

      
      <glyph glyph-name="uni1E4E" unicode="&#x1E4E;" d="M77 367Q95 478 145 555.50Q195 633 273.50 673.50Q352 714 451 714Q560 714 628.50 666.50Q697 619 724 534Q751 449 733 339Q716 228 665.50 150.50Q615 73 537 32Q459-9 359-9Q251-9 182 38.50Q113 86 86.50 171Q60 256 77 367M184 357Q171 270 187.50 208.50Q204 147 249.50 114Q295 81 367 81Q475 81 541 152.50Q607 224 626 349Q640 435 622.50 496.50Q605 558 560 591Q515 624 443 624Q335 624 270 553.50Q205 483 184 357M545 767Q524 767 505 776Q486 785 469 794Q455 802 441.50 809Q428 816 413 816Q391 816 378 804Q365 792 358 766L308 769Q316 821 344 847Q372 873 415 873Q436 873 454.50 865Q473 857 490 847Q504 839 518 832Q532 825 546 825Q569 825 581.50 837Q594 849 601 875L651 872Q643 820 614.50 793.50Q586 767 545 767M353 912L366 992L466 992L453 912L353 912M534 912L547 992L646 992L634 912L534 912Z"  horiz-adv-x="779" vert-adv-y="1000"  />

      
      <glyph glyph-name="uni022C" unicode="&#x022C;" d="M77 367Q95 478 145 555.50Q195 633 273.50 673.50Q352 714 451 714Q560 714 628.50 666.50Q697 619 724 534Q751 449 733 339Q716 228 665.50 150.50Q615 73 537 32Q459-9 359-9Q251-9 182 38.50Q113 86 86.50 171Q60 256 77 367M184 357Q171 270 187.50 208.50Q204 147 249.50 114Q295 81 367 81Q475 81 541 152.50Q607 224 626 349Q640 435 622.50 496.50Q605 558 560 591Q515 624 443 624Q335 624 270 553.50Q205 483 184 357M343 925L353 988L658 988L649 925L343 925M545 767Q524 767 505 776Q486 785 469 794Q455 802 441.50 809Q428 816 413 816Q391 816 378 804Q365 792 358 766L308 769Q316 821 344 847Q372 873 415 873Q436 873 454.50 865Q473 857 490 847Q504 839 518 832Q532 825 546 825Q569 825 581.50 837Q594 849 601 875L651 872Q643 820 614.50 793.50Q586 767 545 767Z"  horiz-adv-x="779" vert-adv-y="1000"  />

      
      <glyph glyph-name="uni0152" unicode="&#x0152;" d="M513 0L625 705L1081 705L1068 622L711 622L677 400L1011 400L998 316L664 316L626 84L982 84L969 0L513 0M344-9Q240-9 174.50 38.50Q109 86 84.50 171Q60 256 77 367Q95 478 144 555.50Q193 633 269 673.50Q345 714 441 714Q502 714 552 695.50Q602 677 631 639L613 526Q590 574 547 599Q504 624 443 624Q335 624 269.50 553.50Q204 483 184 357Q171 272 186.50 210Q202 148 246.50 114.50Q291 81 362 81Q426 81 474 105Q522 129 557 173L539 62Q500 27 452 9Q404-9 344-9Z"  horiz-adv-x="1056" vert-adv-y="1000"  />

      
      <glyph glyph-name="uni50" unicode="&#x50;" d="M43 0L155 705L444 705Q562 705 616 646.50Q670 588 653 487Q644 426 610.50 383Q577 340 523 317Q469 294 395 294L194 294L147 0L43 0M207 377L390 377Q462 377 502.50 406.50Q543 436 552 494Q562 557 530.50 589.50Q499 622 428 622L245 622L207 377Z"  horiz-adv-x="658" vert-adv-y="1000"  />

      
      <glyph glyph-name="unide" unicode="&#xde;" d="M43 0L155 705L259 705L238 575L423 575Q542 575 595.50 516.50Q649 458 633 357Q624 297 590.50 253.50Q557 210 503 187Q449 164 375 164L173 164L147 0L43 0M186 248L369 248Q441 248 482 277Q523 306 532 365Q542 427 510.50 459.50Q479 492 407 492L225 492L186 248Z"  horiz-adv-x="659" vert-adv-y="1000"  />

      
      <glyph glyph-name="uni51" unicode="&#x51;" d="M509-192Q481-173 454-143Q427-113 405-76.50Q383-40 369-2L462 33Q479-19 514.50-61.50Q550-104 588-134L509-192M77 367Q95 478 145 555.50Q195 633 273.50 673.50Q352 714 451 714Q560 714 628.50 666.50Q697 619 724 534Q751 449 733 339Q716 228 665.50 150.50Q615 73 537 32Q459-9 359-9Q251-9 182 38.50Q113 86 86.50 171Q60 256 77 367M184 357Q171 270 187.50 208.50Q204 147 249.50 114Q295 81 367 81Q475 81 541 152.50Q607 224 626 349Q640 435 622.50 496.50Q605 558 560 591Q515 624 443 624Q335 624 270 553.50Q205 483 184 357Z"  horiz-adv-x="779" vert-adv-y="1000"  />

      
      <glyph glyph-name="uni52" unicode="&#x52;" d="M43 0L155 705L443 705Q563 705 618 649Q673 593 656 492Q647 432 612.50 389.50Q578 347 524 324.50Q470 302 403 302L409 318L433 318Q474 318 502.50 296.50Q531 275 546 230L620 0L511 0L438 231Q426 272 397 284Q368 296 322 296L194 296L147 0L43 0M206 375L392 375Q463 375 504.50 406.50Q546 438 555 495Q564 558 530.50 590Q497 622 423 622L245 622L206 375Z"  horiz-adv-x="697" vert-adv-y="1000"  />

      
      <glyph glyph-name="uni0154" unicode="&#x0154;" d="M43 0L155 705L443 705Q563 705 618 649Q673 593 656 492Q647 432 612.50 389.50Q578 347 524 324.50Q470 302 403 302L409 318L433 318Q474 318 502.50 296.50Q531 275 546 230L620 0L511 0L438 231Q426 272 397 284Q368 296 322 296L194 296L147 0L43 0M206 375L392 375Q463 375 504.50 406.50Q546 438 555 495Q564 558 530.50 590Q497 622 423 622L245 622L206 375M394 765L525 938L636 938L468 765L394 765Z"  horiz-adv-x="697" vert-adv-y="1000"  />

      
      <glyph glyph-name="uni0158" unicode="&#x0158;" d="M43 0L155 705L443 705Q563 705 618 649Q673 593 656 492Q647 432 612.50 389.50Q578 347 524 324.50Q470 302 403 302L409 318L433 318Q474 318 502.50 296.50Q531 275 546 230L620 0L511 0L438 231Q426 272 397 284Q368 296 322 296L194 296L147 0L43 0M206 375L392 375Q463 375 504.50 406.50Q546 438 555 495Q564 558 530.50 590Q497 622 423 622L245 622L206 375M386 765L280 938L350 938L434 826L541 938L617 938L476 765L386 765Z"  horiz-adv-x="697" vert-adv-y="1000"  />

      
      <glyph glyph-name="uni0156" unicode="&#x0156;" d="M43 0L155 705L443 705Q563 705 618 649Q673 593 656 492Q647 432 612.50 389.50Q578 347 524 324.50Q470 302 403 302L409 318L433 318Q474 318 502.50 296.50Q531 275 546 230L620 0L511 0L438 231Q426 272 397 284Q368 296 322 296L194 296L147 0L43 0M206 375L392 375Q463 375 504.50 406.50Q546 438 555 495Q564 558 530.50 590Q497 622 423 622L245 622L206 375M270-273L237-241Q263-220 272-200.50Q281-181 285-155L306-168L227-168L242-77L355-77L343-148Q336-189 320.50-219Q305-249 270-273Z"  horiz-adv-x="697" vert-adv-y="1000"  />

      
      <glyph glyph-name="uni0210" unicode="&#x0210;" d="M43 0L155 705L443 705Q563 705 618 649Q673 593 656 492Q647 432 612.50 389.50Q578 347 524 324.50Q470 302 403 302L409 318L433 318Q474 318 502.50 296.50Q531 275 546 230L620 0L511 0L438 231Q426 272 397 284Q368 296 322 296L194 296L147 0L43 0M206 375L392 375Q463 375 504.50 406.50Q546 438 555 495Q564 558 530.50 590Q497 622 423 622L245 622L206 375M470 765L362 938L457 938L527 765L470 765M334 765L220 938L314 938L392 765L334 765Z"  horiz-adv-x="697" vert-adv-y="1000"  />

      
      <glyph glyph-name="uni1E5A" unicode="&#x1E5A;" d="M43 0L155 705L443 705Q563 705 618 649Q673 593 656 492Q647 432 612.50 389.50Q578 347 524 324.50Q470 302 403 302L409 318L433 318Q474 318 502.50 296.50Q531 275 546 230L620 0L511 0L438 231Q426 272 397 284Q368 296 322 296L194 296L147 0L43 0M206 375L392 375Q463 375 504.50 406.50Q546 438 555 495Q564 558 530.50 590Q497 622 423 622L245 622L206 375M226-195L243-94L348-94L331-195L226-195Z"  horiz-adv-x="697" vert-adv-y="1000"  />

      
      <glyph glyph-name="uni0212" unicode="&#x0212;" d="M43 0L155 705L443 705Q563 705 618 649Q673 593 656 492Q647 432 612.50 389.50Q578 347 524 324.50Q470 302 403 302L409 318L433 318Q474 318 502.50 296.50Q531 275 546 230L620 0L511 0L438 231Q426 272 397 284Q368 296 322 296L194 296L147 0L43 0M206 375L392 375Q463 375 504.50 406.50Q546 438 555 495Q564 558 530.50 590Q497 622 423 622L245 622L206 375M312 760L252 768Q265 846 316.50 891.50Q368 937 442 937Q490 937 526.50 916Q563 895 583.50 857Q604 819 603 768L542 760Q544 814 515.50 844Q487 874 437 874Q388 874 354.50 844Q321 814 312 760Z"  horiz-adv-x="697" vert-adv-y="1000"  />

      
      <glyph glyph-name="uni1E5E" unicode="&#x1E5E;" d="M43 0L155 705L443 705Q563 705 618 649Q673 593 656 492Q647 432 612.50 389.50Q578 347 524 324.50Q470 302 403 302L409 318L433 318Q474 318 502.50 296.50Q531 275 546 230L620 0L511 0L438 231Q426 272 397 284Q368 296 322 296L194 296L147 0L43 0M206 375L392 375Q463 375 504.50 406.50Q546 438 555 495Q564 558 530.50 590Q497 622 423 622L245 622L206 375M132-160L142-96L448-96L438-160L132-160Z"  horiz-adv-x="697" vert-adv-y="1000"  />

      
      <glyph glyph-name="uni53" unicode="&#x53;" d="M288-9Q205-9 138 11Q71 31 26 62L65 144Q113 114 167.50 96.50Q222 79 295 79Q378 79 422 109Q466 139 473 186Q480 230 457 256.50Q434 283 369 292L271 308Q175 322 131.50 375Q88 428 101 511Q110 572 149 617.50Q188 663 251 688.50Q314 714 397 714Q469 714 528 694.50Q587 675 624 643L586 562Q547 592 498.50 609Q450 626 386 626Q308 626 260 595Q212 564 203 510Q195 464 219 435Q243 406 308 396L408 381Q505 367 547.50 317.50Q590 268 577 185Q568 129 530 85Q492 41 431 16Q370-9 288-9Z"  horiz-adv-x="633" vert-adv-y="1000"  />

      
      <glyph glyph-name="uni015A" unicode="&#x015A;" d="M288-9Q205-9 138 11Q71 31 26 62L65 144Q113 114 167.50 96.50Q222 79 295 79Q378 79 422 109Q466 139 473 186Q480 230 457 256.50Q434 283 369 292L271 308Q175 322 131.50 375Q88 428 101 511Q110 572 149 617.50Q188 663 251 688.50Q314 714 397 714Q469 714 528 694.50Q587 675 624 643L586 562Q547 592 498.50 609Q450 626 386 626Q308 626 260 595Q212 564 203 510Q195 464 219 435Q243 406 308 396L408 381Q505 367 547.50 317.50Q590 268 577 185Q568 129 530 85Q492 41 431 16Q370-9 288-9M371 765L502 938L613 938L445 765L371 765Z"  horiz-adv-x="633" vert-adv-y="1000"  />

      
      <glyph glyph-name="uni1E64" unicode="&#x1E64;" d="M288-9Q205-9 138 11Q71 31 26 62L65 144Q113 114 167.50 96.50Q222 79 295 79Q378 79 422 109Q466 139 473 186Q480 230 457 256.50Q434 283 369 292L271 308Q175 322 131.50 375Q88 428 101 511Q110 572 149 617.50Q188 663 251 688.50Q314 714 397 714Q469 714 528 694.50Q587 675 624 643L586 562Q547 592 498.50 609Q450 626 386 626Q308 626 260 595Q212 564 203 510Q195 464 219 435Q243 406 308 396L408 381Q505 367 547.50 317.50Q590 268 577 185Q568 129 530 85Q492 41 431 16Q370-9 288-9M332 967L345 1047L444 1047L432 967L332 967M373 765L500 968L605 968L443 765L373 765Z"  horiz-adv-x="633" vert-adv-y="1000"  />

      
      <glyph glyph-name="uni0160" unicode="&#x0160;" d="M288-9Q205-9 138 11Q71 31 26 62L65 144Q113 114 167.50 96.50Q222 79 295 79Q378 79 422 109Q466 139 473 186Q480 230 457 256.50Q434 283 369 292L271 308Q175 322 131.50 375Q88 428 101 511Q110 572 149 617.50Q188 663 251 688.50Q314 714 397 714Q469 714 528 694.50Q587 675 624 643L586 562Q547 592 498.50 609Q450 626 386 626Q308 626 260 595Q212 564 203 510Q195 464 219 435Q243 406 308 396L408 381Q505 367 547.50 317.50Q590 268 577 185Q568 129 530 85Q492 41 431 16Q370-9 288-9M362 765L256 938L326 938L410 826L517 938L593 938L452 765L362 765Z"  horiz-adv-x="633" vert-adv-y="1000"  />

      
      <glyph glyph-name="uni1E66" unicode="&#x1E66;" d="M288-9Q205-9 138 11Q71 31 26 62L65 144Q113 114 167.50 96.50Q222 79 295 79Q378 79 422 109Q466 139 473 186Q480 230 457 256.50Q434 283 369 292L271 308Q175 322 131.50 375Q88 428 101 511Q110 572 149 617.50Q188 663 251 688.50Q314 714 397 714Q469 714 528 694.50Q587 675 624 643L586 562Q547 592 498.50 609Q450 626 386 626Q308 626 260 595Q212 564 203 510Q195 464 219 435Q243 406 308 396L408 381Q505 367 547.50 317.50Q590 268 577 185Q568 129 530 85Q492 41 431 16Q370-9 288-9M363 765L267 924L334 924L413 825L512 924L579 924L454 765L363 765M387 967L399 1047L498 1047L486 967L387 967Z"  horiz-adv-x="633" vert-adv-y="1000"  />

      
      <glyph glyph-name="uni015E" unicode="&#x015E;" d="M288-9Q205-9 138 11Q71 31 26 62L65 144Q113 114 167.50 96.50Q222 79 295 79Q378 79 422 109Q466 139 473 186Q480 230 457 256.50Q434 283 369 292L271 308Q175 322 131.50 375Q88 428 101 511Q110 572 149 617.50Q188 663 251 688.50Q314 714 397 714Q469 714 528 694.50Q587 675 624 643L586 562Q547 592 498.50 609Q450 626 386 626Q308 626 260 595Q212 564 203 510Q195 464 219 435Q243 406 308 396L408 381Q505 367 547.50 317.50Q590 268 577 185Q568 129 530 85Q492 41 431 16Q370-9 288-9M266-194Q238-194 213.50-188.50Q189-183 172-173L192-124Q209-132 226-136Q243-140 265-140Q292-140 308.50-131Q325-122 325-105Q325-94 316-87.50Q307-81 290-81Q280-81 269.50-82.50Q259-84 244-88L228-72L257 20L315 20L291-56L264-47Q276-44 288-42Q300-40 310-40Q346-40 367.50-56.50Q389-73 389-104Q389-144 354-169Q319-194 266-194Z"  horiz-adv-x="633" vert-adv-y="1000"  />

      
      <glyph glyph-name="uni015C" unicode="&#x015C;" d="M288-9Q205-9 138 11Q71 31 26 62L65 144Q113 114 167.50 96.50Q222 79 295 79Q378 79 422 109Q466 139 473 186Q480 230 457 256.50Q434 283 369 292L271 308Q175 322 131.50 375Q88 428 101 511Q110 572 149 617.50Q188 663 251 688.50Q314 714 397 714Q469 714 528 694.50Q587 675 624 643L586 562Q547 592 498.50 609Q450 626 386 626Q308 626 260 595Q212 564 203 510Q195 464 219 435Q243 406 308 396L408 381Q505 367 547.50 317.50Q590 268 577 185Q568 129 530 85Q492 41 431 16Q370-9 288-9M232 765L373 938L463 938L568 765L496 765L413 877L304 765L232 765Z"  horiz-adv-x="633" vert-adv-y="1000"  />

      
      <glyph glyph-name="uni0218" unicode="&#x0218;" d="M288-9Q205-9 138 11Q71 31 26 62L65 144Q113 114 167.50 96.50Q222 79 295 79Q378 79 422 109Q466 139 473 186Q480 230 457 256.50Q434 283 369 292L271 308Q175 322 131.50 375Q88 428 101 511Q110 572 149 617.50Q188 663 251 688.50Q314 714 397 714Q469 714 528 694.50Q587 675 624 643L586 562Q547 592 498.50 609Q450 626 386 626Q308 626 260 595Q212 564 203 510Q195 464 219 435Q243 406 308 396L408 381Q505 367 547.50 317.50Q590 268 577 185Q568 129 530 85Q492 41 431 16Q370-9 288-9M246-273L213-241Q239-220 248-200.50Q257-181 261-155L282-168L203-168L218-77L331-77L319-148Q312-189 296.50-219Q281-249 246-273Z"  horiz-adv-x="633" vert-adv-y="1000"  />

      
      <glyph glyph-name="uni1E60" unicode="&#x1E60;" d="M288-9Q205-9 138 11Q71 31 26 62L65 144Q113 114 167.50 96.50Q222 79 295 79Q378 79 422 109Q466 139 473 186Q480 230 457 256.50Q434 283 369 292L271 308Q175 322 131.50 375Q88 428 101 511Q110 572 149 617.50Q188 663 251 688.50Q314 714 397 714Q469 714 528 694.50Q587 675 624 643L586 562Q547 592 498.50 609Q450 626 386 626Q308 626 260 595Q212 564 203 510Q195 464 219 435Q243 406 308 396L408 381Q505 367 547.50 317.50Q590 268 577 185Q568 129 530 85Q492 41 431 16Q370-9 288-9M361 801L376 902L480 902L464 801L361 801Z"  horiz-adv-x="633" vert-adv-y="1000"  />

      
      <glyph glyph-name="uni1E62" unicode="&#x1E62;" d="M288-9Q205-9 138 11Q71 31 26 62L65 144Q113 114 167.50 96.50Q222 79 295 79Q378 79 422 109Q466 139 473 186Q480 230 457 256.50Q434 283 369 292L271 308Q175 322 131.50 375Q88 428 101 511Q110 572 149 617.50Q188 663 251 688.50Q314 714 397 714Q469 714 528 694.50Q587 675 624 643L586 562Q547 592 498.50 609Q450 626 386 626Q308 626 260 595Q212 564 203 510Q195 464 219 435Q243 406 308 396L408 381Q505 367 547.50 317.50Q590 268 577 185Q568 129 530 85Q492 41 431 16Q370-9 288-9M203-195L220-94L325-94L308-195L203-195Z"  horiz-adv-x="633" vert-adv-y="1000"  />

      
      <glyph glyph-name="uni1E68" unicode="&#x1E68;" d="M288-9Q205-9 138 11Q71 31 26 62L65 144Q113 114 167.50 96.50Q222 79 295 79Q378 79 422 109Q466 139 473 186Q480 230 457 256.50Q434 283 369 292L271 308Q175 322 131.50 375Q88 428 101 511Q110 572 149 617.50Q188 663 251 688.50Q314 714 397 714Q469 714 528 694.50Q587 675 624 643L586 562Q547 592 498.50 609Q450 626 386 626Q308 626 260 595Q212 564 203 510Q195 464 219 435Q243 406 308 396L408 381Q505 367 547.50 317.50Q590 268 577 185Q568 129 530 85Q492 41 431 16Q370-9 288-9M203-195L220-94L325-94L308-195L203-195M361 801L376 902L480 902L464 801L361 801Z"  horiz-adv-x="633" vert-adv-y="1000"  />

      
      <glyph glyph-name="uni1E9E" unicode="&#x1E9E;" d="M387-9Q333-9 287.50 4.50Q242 18 205 44L247 119Q277 96 309.50 85.50Q342 75 382 75Q448 75 488.50 106Q529 137 537 189Q547 252 514.50 282Q482 312 409 312L283 312L296 395L388 395Q456 395 499 425Q542 455 550 512Q559 569 526.50 599Q494 629 420 629Q323 629 276.50 585Q230 541 215 452L144 0L43 0L115 456Q136 588 213.50 651Q291 714 430 714Q552 714 609 661Q666 608 652 516Q646 479 625 445Q604 411 571 386.50Q538 362 493 351L496 367Q572 355 610.50 307Q649 259 635 171Q622 87 555.50 39Q489-9 387-9Z"  horiz-adv-x="701" vert-adv-y="1000"  />

      
      <glyph glyph-name="uni018F" unicode="&#x018F;" d="M347-9Q236-9 170.50 37.50Q105 84 82 166Q59 248 75 356L82 396L636 396L623 314L146 314L179 353Q166 263 177 201.50Q188 140 230 109Q272 78 350 78Q455 78 520.50 146Q586 214 607 347Q628 480 578.50 552Q529 624 406 624Q338 624 283.50 607Q229 590 172 550L139 630Q197 672 265.50 693Q334 714 419 714Q532 714 603.50 668Q675 622 703 538.50Q731 455 713 340Q696 232 646 153.50Q596 75 520 33Q444-9 347-9Z"  horiz-adv-x="757" vert-adv-y="1000"  />

      
      <glyph glyph-name="uni54" unicode="&#x54;" d="M212 0L310 618L69 618L83 705L669 705L655 618L414 618L316 0L212 0Z"  horiz-adv-x="611" vert-adv-y="1000"  />

      
      <glyph glyph-name="uni0166" unicode="&#x0166;" d="M212 0L310 618L69 618L83 705L669 705L655 618L414 618L316 0L212 0M124 319L136 396L521 396L508 319L124 319Z"  horiz-adv-x="611" vert-adv-y="1000"  />

      
      <glyph glyph-name="uni0164" unicode="&#x0164;" d="M212 0L310 618L69 618L83 705L669 705L655 618L414 618L316 0L212 0M342 765L236 938L306 938L390 826L497 938L573 938L432 765L342 765Z"  horiz-adv-x="611" vert-adv-y="1000"  />

      
      <glyph glyph-name="uni0162" unicode="&#x0162;" d="M212 0L310 618L69 618L83 705L669 705L655 618L414 618L316 0L212 0M245-194Q217-194 192.50-188.50Q168-183 151-173L171-124Q188-132 205-136Q222-140 244-140Q271-140 287.50-131Q304-122 304-105Q304-94 295-87.50Q286-81 269-81Q259-81 248.50-82.50Q238-84 223-88L207-72L236 20L294 20L270-56L243-47Q255-44 267-42Q279-40 289-40Q325-40 346.50-56.50Q368-73 368-104Q368-144 333-169Q298-194 245-194Z"  horiz-adv-x="611" vert-adv-y="1000"  />

      
      <glyph glyph-name="uni021A" unicode="&#x021A;" d="M212 0L310 618L69 618L83 705L669 705L655 618L414 618L316 0L212 0M225-273L192-241Q218-220 227-200.50Q236-181 240-155L261-168L182-168L197-77L310-77L298-148Q291-189 275.50-219Q260-249 225-273Z"  horiz-adv-x="611" vert-adv-y="1000"  />

      
      <glyph glyph-name="uni1E6C" unicode="&#x1E6C;" d="M212 0L310 618L69 618L83 705L669 705L655 618L414 618L316 0L212 0M182-195L199-94L304-94L287-195L182-195Z"  horiz-adv-x="611" vert-adv-y="1000"  />

      
      <glyph glyph-name="uni1E6E" unicode="&#x1E6E;" d="M212 0L310 618L69 618L83 705L669 705L655 618L414 618L316 0L212 0M88-160L98-96L404-96L394-160L88-160Z"  horiz-adv-x="611" vert-adv-y="1000"  />

      
      <glyph glyph-name="uni55" unicode="&#x55;" d="M337-9Q244-9 182 23.50Q120 56 94.50 122Q69 188 84 286L151 705L255 705L188 285Q172 183 208.50 132Q245 81 347 81Q437 81 490 129Q543 177 560 286L627 705L729 705L661 280Q646 181 605 117Q564 53 497 22Q430-9 337-9Z"  horiz-adv-x="735" vert-adv-y="1000"  />

      
      <glyph glyph-name="unida" unicode="&#xda;" d="M337-9Q244-9 182 23.50Q120 56 94.50 122Q69 188 84 286L151 705L255 705L188 285Q172 183 208.50 132Q245 81 347 81Q437 81 490 129Q543 177 560 286L627 705L729 705L661 280Q646 181 605 117Q564 53 497 22Q430-9 337-9M414 765L545 938L656 938L488 765L414 765Z"  horiz-adv-x="735" vert-adv-y="1000"  />

      
      <glyph glyph-name="uni016C" unicode="&#x016C;" d="M337-9Q244-9 182 23.50Q120 56 94.50 122Q69 188 84 286L151 705L255 705L188 285Q172 183 208.50 132Q245 81 347 81Q437 81 490 129Q543 177 560 286L627 705L729 705L661 280Q646 181 605 117Q564 53 497 22Q430-9 337-9M453 760Q404 760 367.50 781Q331 802 311 840.50Q291 879 291 929L351 937Q350 883 379 853.50Q408 824 457 824Q507 824 540 853.50Q573 883 582 937L641 929Q629 851 578 805.50Q527 760 453 760Z"  horiz-adv-x="735" vert-adv-y="1000"  />

      
      <glyph glyph-name="unidb" unicode="&#xdb;" d="M337-9Q244-9 182 23.50Q120 56 94.50 122Q69 188 84 286L151 705L255 705L188 285Q172 183 208.50 132Q245 81 347 81Q437 81 490 129Q543 177 560 286L627 705L729 705L661 280Q646 181 605 117Q564 53 497 22Q430-9 337-9M275 765L416 938L506 938L611 765L539 765L456 877L347 765L275 765Z"  horiz-adv-x="735" vert-adv-y="1000"  />

      
      <glyph glyph-name="uni0214" unicode="&#x0214;" d="M337-9Q244-9 182 23.50Q120 56 94.50 122Q69 188 84 286L151 705L255 705L188 285Q172 183 208.50 132Q245 81 347 81Q437 81 490 129Q543 177 560 286L627 705L729 705L661 280Q646 181 605 117Q564 53 497 22Q430-9 337-9M490 765L382 938L477 938L547 765L490 765M354 765L240 938L334 938L412 765L354 765Z"  horiz-adv-x="735" vert-adv-y="1000"  />

      
      <glyph glyph-name="unidc" unicode="&#xdc;" d="M337-9Q244-9 182 23.50Q120 56 94.50 122Q69 188 84 286L151 705L255 705L188 285Q172 183 208.50 132Q245 81 347 81Q437 81 490 129Q543 177 560 286L627 705L729 705L661 280Q646 181 605 117Q564 53 497 22Q430-9 337-9M496 799L512 898L611 898L595 799L496 799M315 799L331 898L430 898L414 799L315 799Z"  horiz-adv-x="735" vert-adv-y="1000"  />

      
      <glyph glyph-name="uni1EE4" unicode="&#x1EE4;" d="M337-9Q244-9 182 23.50Q120 56 94.50 122Q69 188 84 286L151 705L255 705L188 285Q172 183 208.50 132Q245 81 347 81Q437 81 490 129Q543 177 560 286L627 705L729 705L661 280Q646 181 605 117Q564 53 497 22Q430-9 337-9M245-195L262-94L367-94L350-195L245-195Z"  horiz-adv-x="735" vert-adv-y="1000"  />

      
      <glyph glyph-name="unid9" unicode="&#xd9;" d="M337-9Q244-9 182 23.50Q120 56 94.50 122Q69 188 84 286L151 705L255 705L188 285Q172 183 208.50 132Q245 81 347 81Q437 81 490 129Q543 177 560 286L627 705L729 705L661 280Q646 181 605 117Q564 53 497 22Q430-9 337-9M414 765L275 938L383 938L488 765L414 765Z"  horiz-adv-x="735" vert-adv-y="1000"  />

      
      <glyph glyph-name="uni1EE6" unicode="&#x1EE6;" d="M337-9Q244-9 182 23.50Q120 56 94.50 122Q69 188 84 286L151 705L255 705L188 285Q172 183 208.50 132Q245 81 347 81Q437 81 490 129Q543 177 560 286L627 705L729 705L661 280Q646 181 605 117Q564 53 497 22Q430-9 337-9M417 765L420 782Q423 801 434 813.50Q445 826 457.50 834.50Q470 843 479 851Q488 859 488 871Q488 881 477 885.50Q466 890 446 890Q430 890 415 887Q400 884 383 877L370 924Q412 944 472 944Q517 944 542 928.50Q567 913 567 886Q567 862 555.50 848.50Q544 835 528 826Q512 817 499.50 806Q487 795 485 776L483 765L417 765Z"  horiz-adv-x="735" vert-adv-y="1000"  />

      
      <glyph glyph-name="uni01AF" unicode="&#x01AF;" d="M337-9Q244-9 182 23.50Q120 56 94.50 122Q69 188 84 286L151 705L255 705L188 285Q172 183 208.50 132Q245 81 347 81Q437 81 490 129Q543 177 560 286L627 705L729 705L661 280Q646 181 605 117Q564 53 497 22Q430-9 337-9M709 649L658 684L661 705Q701 706 724.50 716.50Q748 727 761.50 750.50Q775 774 781 814L784 833L873 833L868 800Q858 734 816.50 694Q775 654 709 649Z"  horiz-adv-x="735" vert-adv-y="1000"  />

      
      <glyph glyph-name="uni1EE8" unicode="&#x1EE8;" d="M337-9Q244-9 182 23.50Q120 56 94.50 122Q69 188 84 286L151 705L255 705L188 285Q172 183 208.50 132Q245 81 347 81Q437 81 490 129Q543 177 560 286L627 705L729 705L661 280Q646 181 605 117Q564 53 497 22Q430-9 337-9M709 649L658 684L661 705Q701 706 724.50 716.50Q748 727 761.50 750.50Q775 774 781 814L784 833L873 833L868 800Q858 734 816.50 694Q775 654 709 649M423 765L554 938L665 938L497 765L423 765Z"  horiz-adv-x="735" vert-adv-y="1000"  />

      
      <glyph glyph-name="uni1EF0" unicode="&#x1EF0;" d="M337-9Q244-9 182 23.50Q120 56 94.50 122Q69 188 84 286L151 705L255 705L188 285Q172 183 208.50 132Q245 81 347 81Q437 81 490 129Q543 177 560 286L627 705L729 705L661 280Q646 181 605 117Q564 53 497 22Q430-9 337-9M709 649L658 684L661 705Q701 706 724.50 716.50Q748 727 761.50 750.50Q775 774 781 814L784 833L873 833L868 800Q858 734 816.50 694Q775 654 709 649M254-195L271-94L376-94L359-195L254-195Z"  horiz-adv-x="735" vert-adv-y="1000"  />

      
      <glyph glyph-name="uni1EEA" unicode="&#x1EEA;" d="M337-9Q244-9 182 23.50Q120 56 94.50 122Q69 188 84 286L151 705L255 705L188 285Q172 183 208.50 132Q245 81 347 81Q437 81 490 129Q543 177 560 286L627 705L729 705L661 280Q646 181 605 117Q564 53 497 22Q430-9 337-9M709 649L658 684L661 705Q701 706 724.50 716.50Q748 727 761.50 750.50Q775 774 781 814L784 833L873 833L868 800Q858 734 816.50 694Q775 654 709 649M423 765L284 938L392 938L497 765L423 765Z"  horiz-adv-x="735" vert-adv-y="1000"  />

      
      <glyph glyph-name="uni1EEC" unicode="&#x1EEC;" d="M337-9Q244-9 182 23.50Q120 56 94.50 122Q69 188 84 286L151 705L255 705L188 285Q172 183 208.50 132Q245 81 347 81Q437 81 490 129Q543 177 560 286L627 705L729 705L661 280Q646 181 605 117Q564 53 497 22Q430-9 337-9M709 649L658 684L661 705Q701 706 724.50 716.50Q748 727 761.50 750.50Q775 774 781 814L784 833L873 833L868 800Q858 734 816.50 694Q775 654 709 649M427 765L430 782Q433 801 444 813.50Q455 826 467.50 834.50Q480 843 489 851Q498 859 498 871Q498 881 487 885.50Q476 890 456 890Q440 890 425 887Q410 884 393 877L380 924Q422 944 482 944Q527 944 552 928.50Q577 913 577 886Q577 862 565.50 848.50Q554 835 538 826Q522 817 509.50 806Q497 795 495 776L493 765L427 765Z"  horiz-adv-x="735" vert-adv-y="1000"  />

      
      <glyph glyph-name="uni1EEE" unicode="&#x1EEE;" d="M337-9Q244-9 182 23.50Q120 56 94.50 122Q69 188 84 286L151 705L255 705L188 285Q172 183 208.50 132Q245 81 347 81Q437 81 490 129Q543 177 560 286L627 705L729 705L661 280Q646 181 605 117Q564 53 497 22Q430-9 337-9M709 649L658 684L661 705Q701 706 724.50 716.50Q748 727 761.50 750.50Q775 774 781 814L784 833L873 833L868 800Q858 734 816.50 694Q775 654 709 649M318 778L265 781Q275 848 309 884.50Q343 921 393 921Q422 921 441.50 909Q461 897 478 883Q493 870 507.50 860Q522 850 541 850Q597 850 614 925L668 921Q658 854 624.50 817.50Q591 781 541 781Q512 781 491.50 794Q471 807 454 821Q439 834 424 843.50Q409 853 392 853Q336 853 318 778Z"  horiz-adv-x="735" vert-adv-y="1000"  />

      
      <glyph glyph-name="uni0170" unicode="&#x0170;" d="M337-9Q244-9 182 23.50Q120 56 94.50 122Q69 188 84 286L151 705L255 705L188 285Q172 183 208.50 132Q245 81 347 81Q437 81 490 129Q543 177 560 286L627 705L729 705L661 280Q646 181 605 117Q564 53 497 22Q430-9 337-9M354 765L455 938L549 938L412 765L354 765M490 765L597 938L691 938L548 765L490 765Z"  horiz-adv-x="735" vert-adv-y="1000"  />

      
      <glyph glyph-name="uni0216" unicode="&#x0216;" d="M337-9Q244-9 182 23.50Q120 56 94.50 122Q69 188 84 286L151 705L255 705L188 285Q172 183 208.50 132Q245 81 347 81Q437 81 490 129Q543 177 560 286L627 705L729 705L661 280Q646 181 605 117Q564 53 497 22Q430-9 337-9M331 760L271 768Q284 846 335.50 891.50Q387 937 461 937Q509 937 545.50 916Q582 895 602.50 857Q623 819 622 768L561 760Q563 814 534.50 844Q506 874 456 874Q407 874 373.50 844Q340 814 331 760Z"  horiz-adv-x="735" vert-adv-y="1000"  />

      
      <glyph glyph-name="uni016A" unicode="&#x016A;" d="M337-9Q244-9 182 23.50Q120 56 94.50 122Q69 188 84 286L151 705L255 705L188 285Q172 183 208.50 132Q245 81 347 81Q437 81 490 129Q543 177 560 286L627 705L729 705L661 280Q646 181 605 117Q564 53 497 22Q430-9 337-9M290 811L299 874L635 874L625 811L290 811Z"  horiz-adv-x="735" vert-adv-y="1000"  />

      
      <glyph glyph-name="uni1E7A" unicode="&#x1E7A;" d="M337-9Q244-9 182 23.50Q120 56 94.50 122Q69 188 84 286L151 705L255 705L188 285Q172 183 208.50 132Q245 81 347 81Q437 81 490 129Q543 177 560 286L627 705L729 705L661 280Q646 181 605 117Q564 53 497 22Q430-9 337-9M302 793L312 857L617 857L608 793L302 793M334 909L345 988L445 988L433 909L334 909M514 909L526 988L626 988L613 909L514 909Z"  horiz-adv-x="735" vert-adv-y="1000"  />

      
      <glyph glyph-name="uni0172" unicode="&#x0172;" d="M337-9Q244-9 182 23.50Q120 56 94.50 122Q69 188 84 286L151 705L255 705L188 285Q172 183 208.50 132Q245 81 347 81Q437 81 490 129Q543 177 560 286L627 705L729 705L661 280Q646 181 605 117Q564 53 497 22Q430-9 337-9M374-194Q325-194 299-168.50Q273-143 273-102Q273-55 304-17.50Q335 20 383 39L411 0Q375-15 358-38Q341-61 341-86Q341-108 354.50-122Q368-136 393-136Q406-136 419-133Q432-130 447-124L458-178Q438-184 417.50-189Q397-194 374-194Z"  horiz-adv-x="735" vert-adv-y="1000"  />

      
      <glyph glyph-name="uni016E" unicode="&#x016E;" d="M337-9Q244-9 182 23.50Q120 56 94.50 122Q69 188 84 286L151 705L255 705L188 285Q172 183 208.50 132Q245 81 347 81Q437 81 490 129Q543 177 560 286L627 705L729 705L661 280Q646 181 605 117Q564 53 497 22Q430-9 337-9M465 756Q431 756 403 772.50Q375 789 359 816Q343 843 343 876Q343 910 359 936.50Q375 963 403 978.50Q431 994 465 994Q500 994 527.50 978.50Q555 963 571 936Q587 909 587 876Q587 843 571 816Q555 789 527.50 772.50Q500 756 465 756M465 806Q495 806 514 826Q533 846 533 876Q533 905 514.50 924.50Q496 944 465 944Q435 944 415.50 924.50Q396 905 396 876Q396 846 415.50 826Q435 806 465 806Z"  horiz-adv-x="735" vert-adv-y="1000"  />

      
      <glyph glyph-name="uni0168" unicode="&#x0168;" d="M337-9Q244-9 182 23.50Q120 56 94.50 122Q69 188 84 286L151 705L255 705L188 285Q172 183 208.50 132Q245 81 347 81Q437 81 490 129Q543 177 560 286L627 705L729 705L661 280Q646 181 605 117Q564 53 497 22Q430-9 337-9M287 778L234 781Q245 848 280 884.50Q315 921 367 921Q397 921 422.50 908.50Q448 896 471 882Q491 869 509 859.50Q527 850 546 850Q603 850 621 925L675 921Q664 854 629 817.50Q594 781 543 781Q513 781 487 794Q461 807 438 821Q418 833 399.50 843Q381 853 362 853Q306 853 287 778Z"  horiz-adv-x="735" vert-adv-y="1000"  />

      
      <glyph glyph-name="uni1E78" unicode="&#x1E78;" d="M337-9Q244-9 182 23.50Q120 56 94.50 122Q69 188 84 286L151 705L255 705L188 285Q172 183 208.50 132Q245 81 347 81Q437 81 490 129Q543 177 560 286L627 705L729 705L661 280Q646 181 605 117Q564 53 497 22Q430-9 337-9M437 887L529 1025L630 1025L502 887L437 887M525 767Q504 767 485 776Q466 785 449 794Q435 802 421.50 809Q408 816 393 816Q371 816 358 804Q345 792 338 766L288 769Q296 821 324 847Q352 873 395 873Q416 873 434.50 865Q453 857 470 847Q484 839 498 832Q512 825 526 825Q549 825 561.50 837Q574 849 581 875L631 872Q623 820 594.50 793.50Q566 767 525 767Z"  horiz-adv-x="735" vert-adv-y="1000"  />

      
      <glyph glyph-name="uni56" unicode="&#x56;" d="M268 0L70 705L177 705L343 87L308 87L670 705L782 705L359 0L268 0Z"  horiz-adv-x="708" vert-adv-y="1000"  />

      
      <glyph glyph-name="uni57" unicode="&#x57;" d="M237 0L102 705L206 705L313 96L276 96L590 705L670 705L777 96L743 96L1052 705L1158 705L797 0L708 0L602 580L622 580L325 0L237 0Z"  horiz-adv-x="1116" vert-adv-y="1000"  />

      
      <glyph glyph-name="uni1E82" unicode="&#x1E82;" d="M237 0L102 705L206 705L313 96L276 96L590 705L670 705L777 96L743 96L1052 705L1158 705L797 0L708 0L602 580L622 580L325 0L237 0M603 765L734 938L845 938L677 765L603 765Z"  horiz-adv-x="1116" vert-adv-y="1000"  />

      
      <glyph glyph-name="uni0174" unicode="&#x0174;" d="M237 0L102 705L206 705L313 96L276 96L590 705L670 705L777 96L743 96L1052 705L1158 705L797 0L708 0L602 580L622 580L325 0L237 0M465 765L606 938L696 938L801 765L729 765L646 877L537 765L465 765Z"  horiz-adv-x="1116" vert-adv-y="1000"  />

      
      <glyph glyph-name="uni1E84" unicode="&#x1E84;" d="M237 0L102 705L206 705L313 96L276 96L590 705L670 705L777 96L743 96L1052 705L1158 705L797 0L708 0L602 580L622 580L325 0L237 0M686 799L702 898L801 898L785 799L686 799M505 799L521 898L620 898L604 799L505 799Z"  horiz-adv-x="1116" vert-adv-y="1000"  />

      
      <glyph glyph-name="uni1E80" unicode="&#x1E80;" d="M237 0L102 705L206 705L313 96L276 96L590 705L670 705L777 96L743 96L1052 705L1158 705L797 0L708 0L602 580L622 580L325 0L237 0M603 765L464 938L572 938L677 765L603 765Z"  horiz-adv-x="1116" vert-adv-y="1000"  />

      
      <glyph glyph-name="uni58" unicode="&#x58;" d="M-41 0L304 381L302 339L86 705L204 705L370 413L337 413L595 705L723 705L391 339L391 381L617 0L499 0L322 308L361 308L86 0L-41 0Z"  horiz-adv-x="661" vert-adv-y="1000"  />

      
      <glyph glyph-name="uni59" unicode="&#x59;" d="M216 0L269 331L280 265L55 705L169 705L337 368L312 368L587 705L707 705L341 262L373 331L320 0L216 0Z"  horiz-adv-x="617" vert-adv-y="1000"  />

      
      <glyph glyph-name="unidd" unicode="&#xdd;" d="M216 0L269 331L280 265L55 705L169 705L337 368L312 368L587 705L707 705L341 262L373 331L320 0L216 0M354 765L485 938L596 938L428 765L354 765Z"  horiz-adv-x="617" vert-adv-y="1000"  />

      
      <glyph glyph-name="uni0176" unicode="&#x0176;" d="M216 0L269 331L280 265L55 705L169 705L337 368L312 368L587 705L707 705L341 262L373 331L320 0L216 0M215 765L356 938L446 938L551 765L479 765L396 877L287 765L215 765Z"  horiz-adv-x="617" vert-adv-y="1000"  />

      
      </font>
</defs>
</svg>
