<?xml version="1.0" standalone="no"?>
  <!DOCTYPE svg PUBLIC "-//W3C//DTD SVG 1.1//EN" "http://www.w3.org/Graphics/SVG/1.1/DTD/svg11.dtd" >
  <svg>
  <metadata>
  Created by font-carrier
  </metadata>
  <defs>
  <font id="Mulish-Bold" horiz-adv-x="1324" vert-adv-y="1324" >
    <font-face
      
      font-family="Mulish"
      
      font-weight="400"
      
      font-stretch="normal"
      
      units-per-em="1000"
      
      ascent="1005"
      
      descent="-250"
      
    />
      <missing-glyph />

      

      
      <glyph glyph-name="uni41" unicode="&#x41;" d="M0 0L319 705L427 705L750 0L619 0L533 198L585 163L162 163L216 198L130 0L0 0M372 567L231 233L205 264L541 264L520 233L376 567L372 567Z"  horiz-adv-x="750" vert-adv-y="1000"  />

      
      <glyph glyph-name="unic1" unicode="&#xc1;" d="M0 0L319 705L427 705L750 0L619 0L533 198L585 163L162 163L216 198L130 0L0 0M372 567L231 233L205 264L541 264L520 233L376 567L372 567M329 765L448 939L578 939L419 765L329 765Z"  horiz-adv-x="750" vert-adv-y="1000"  />

      
      <glyph glyph-name="uni0102" unicode="&#x0102;" d="M0 0L319 705L427 705L750 0L619 0L533 198L585 163L162 163L216 198L130 0L0 0M372 567L231 233L205 264L541 264L520 233L376 567L372 567M374 760Q296 760 246.50 806Q197 852 191 930L262 939Q267 890 296 862.50Q325 835 373 835Q422 835 452 862.50Q482 890 486 939L557 930Q551 852 501.50 806Q452 760 374 760Z"  horiz-adv-x="750" vert-adv-y="1000"  />

      
      <glyph glyph-name="uni1EAE" unicode="&#x1EAE;" d="M0 0L319 705L427 705L750 0L619 0L533 198L585 163L162 163L216 198L130 0L0 0M372 567L231 233L205 264L541 264L520 233L376 567L372 567M374 760Q301 760 255 801.50Q209 843 203 914L264 920Q272 878 299 854Q326 830 374 830Q422 830 449 854Q476 878 484 920L545 914Q539 843 493.50 801.50Q448 760 374 760M329 887L402 1020L522 1020L407 887L329 887Z"  horiz-adv-x="750" vert-adv-y="1000"  />

      
      <glyph glyph-name="uni1EB6" unicode="&#x1EB6;" d="M0 0L319 705L427 705L750 0L619 0L533 198L585 163L162 163L216 198L130 0L0 0M372 567L231 233L205 264L541 264L520 233L376 567L372 567M313-204L313-88L435-88L435-204L313-204M374 760Q296 760 246.50 806Q197 852 191 930L262 939Q267 890 296 862.50Q325 835 373 835Q422 835 452 862.50Q482 890 486 939L557 930Q551 852 501.50 806Q452 760 374 760Z"  horiz-adv-x="750" vert-adv-y="1000"  />

      
      <glyph glyph-name="uni1EB0" unicode="&#x1EB0;" d="M0 0L319 705L427 705L750 0L619 0L533 198L585 163L162 163L216 198L130 0L0 0M372 567L231 233L205 264L541 264L520 233L376 567L372 567M374 760Q301 760 255 801.50Q209 843 203 914L264 920Q272 878 299 854Q326 830 374 830Q422 830 449 854Q476 878 484 920L545 914Q539 843 493.50 801.50Q448 760 374 760M341 887L226 1020L346 1020L419 887L341 887Z"  horiz-adv-x="750" vert-adv-y="1000"  />

      
      <glyph glyph-name="uni1EB2" unicode="&#x1EB2;" d="M0 0L319 705L427 705L750 0L619 0L533 198L585 163L162 163L216 198L130 0L0 0M372 567L231 233L205 264L541 264L520 233L376 567L372 567M374 760Q301 760 255 801.50Q209 843 203 914L264 920Q272 878 299 854Q326 830 374 830Q422 830 449 854Q476 878 484 920L545 914Q539 844 493.50 802Q448 760 374 760M340 887Q340 905 347.50 915Q355 925 365 931.50Q375 938 382.50 945Q390 952 390 962Q390 971 380.50 974.50Q371 978 354 978Q341 978 326.50 975.50Q312 973 296 967L281 1014Q301 1023 324 1027.50Q347 1032 379 1032Q424 1032 448.50 1018.50Q473 1005 473 981Q473 962 463.50 951Q454 940 441 931.50Q428 923 418.50 913.50Q409 904 409 887L340 887Z"  horiz-adv-x="750" vert-adv-y="1000"  />

      
      <glyph glyph-name="uni1EB4" unicode="&#x1EB4;" d="M0 0L319 705L427 705L750 0L619 0L533 198L585 163L162 163L216 198L130 0L0 0M372 567L231 233L205 264L541 264L520 233L376 567L372 567M374 760Q308 760 262.50 791Q217 822 203 874L264 890Q276 862 303 846Q330 830 374 830Q418 830 445 846Q472 862 484 890L545 874Q532 822 486 791Q440 760 374 760M260 921L202 924Q206 977 235 1004.50Q264 1032 308 1032Q328 1032 345.50 1025.50Q363 1019 384 1007Q405 995 416 991.50Q427 988 437 988Q460 988 472 998.50Q484 1009 488 1033L546 1029Q543 976 514 948.50Q485 921 441 921Q421 921 402 928.50Q383 936 360 949Q348 955 336 960.50Q324 966 311 966Q289 966 277 955Q265 944 260 921Z"  horiz-adv-x="750" vert-adv-y="1000"  />

      
      <glyph glyph-name="uni01CD" unicode="&#x01CD;" d="M0 0L319 705L427 705L750 0L619 0L533 198L585 163L162 163L216 198L130 0L0 0M372 567L231 233L205 264L541 264L520 233L376 567L372 567M320 765L196 939L283 939L374 835L465 939L552 939L428 765L320 765Z"  horiz-adv-x="750" vert-adv-y="1000"  />

      
      <glyph glyph-name="unic2" unicode="&#xc2;" d="M0 0L319 705L427 705L750 0L619 0L533 198L585 163L162 163L216 198L130 0L0 0M372 567L231 233L205 264L541 264L520 233L376 567L372 567M196 765L320 939L428 939L552 765L465 765L374 869L283 765L196 765Z"  horiz-adv-x="750" vert-adv-y="1000"  />

      
      <glyph glyph-name="uni1EA4" unicode="&#x1EA4;" d="M0 0L319 705L427 705L750 0L619 0L533 198L585 163L162 163L216 198L130 0L0 0M372 567L231 233L205 264L541 264L520 233L376 567L372 567M209 765L319 929L429 929L539 765L460 765L374 861L288 765L209 765M483 872L567 1022L671 1022L554 872L483 872Z"  horiz-adv-x="750" vert-adv-y="1000"  />

      
      <glyph glyph-name="uni1EAC" unicode="&#x1EAC;" d="M0 0L319 705L427 705L750 0L619 0L533 198L585 163L162 163L216 198L130 0L0 0M372 567L231 233L205 264L541 264L520 233L376 567L372 567M313-204L313-88L435-88L435-204L313-204M196 765L320 939L428 939L552 765L465 765L374 869L283 765L196 765Z"  horiz-adv-x="750" vert-adv-y="1000"  />

      
      <glyph glyph-name="uni1EA6" unicode="&#x1EA6;" d="M0 0L319 705L427 705L750 0L619 0L533 198L585 163L162 163L216 198L130 0L0 0M372 567L231 233L205 264L541 264L520 233L376 567L372 567M209 765L319 929L429 929L539 765L460 765L374 861L288 765L209 765M522 872L405 1022L510 1022L594 872L522 872Z"  horiz-adv-x="750" vert-adv-y="1000"  />

      
      <glyph glyph-name="uni1EA8" unicode="&#x1EA8;" d="M0 0L319 705L427 705L750 0L619 0L533 198L585 163L162 163L216 198L130 0L0 0M372 567L231 233L205 264L541 264L520 233L376 567L372 567M209 765L319 929L429 929L539 765L460 765L374 861L288 765L209 765M485 872Q485 890 492.50 901.50Q500 913 510 921.50Q520 930 527.50 937.50Q535 945 535 955Q535 965 525.50 968.50Q516 972 500 972Q486 972 471.50 969.50Q457 967 442 960L426 1007Q446 1016 469 1021Q492 1026 524 1026Q569 1026 593.50 1012Q618 998 618 975Q618 956 608.50 944Q599 932 586 922Q573 912 563.50 900.50Q554 889 554 872L485 872Z"  horiz-adv-x="750" vert-adv-y="1000"  />

      
      <glyph glyph-name="uni1EAA" unicode="&#x1EAA;" d="M0 0L319 705L427 705L750 0L619 0L533 198L585 163L162 163L216 198L130 0L0 0M372 567L231 233L205 264L541 264L520 233L376 567L372 567M209 765L319 899L429 899L539 765L462 765L374 837L286 765L209 765M260 921L202 924Q206 977 235 1004.50Q264 1032 308 1032Q328 1032 345.50 1025.50Q363 1019 384 1007Q405 995 416 991.50Q427 988 437 988Q460 988 472 998.50Q484 1009 488 1033L546 1029Q543 976 514 948.50Q485 921 441 921Q421 921 402 928.50Q383 936 360 949Q348 955 336 960.50Q324 966 311 966Q289 966 277 955Q265 944 260 921Z"  horiz-adv-x="750" vert-adv-y="1000"  />

      
      <glyph glyph-name="uni0200" unicode="&#x0200;" d="M0 0L319 705L427 705L750 0L619 0L533 198L585 163L162 163L216 198L130 0L0 0M372 567L231 233L205 264L541 264L520 233L376 567L372 567M412 765L285 939L398 939L483 765L412 765M265 765L129 939L241 939L336 765L265 765Z"  horiz-adv-x="750" vert-adv-y="1000"  />

      
      <glyph glyph-name="unic4" unicode="&#xc4;" d="M0 0L319 705L427 705L750 0L619 0L533 198L585 163L162 163L216 198L130 0L0 0M372 567L231 233L205 264L541 264L520 233L376 567L372 567M411 790L411 905L526 905L526 790L411 790M222 790L222 905L337 905L337 790L222 790Z"  horiz-adv-x="750" vert-adv-y="1000"  />

      
      <glyph glyph-name="uni0226" unicode="&#x0226;" d="M0 0L319 705L427 705L750 0L619 0L533 198L585 163L162 163L216 198L130 0L0 0M372 567L231 233L205 264L541 264L520 233L376 567L372 567M313 794L313 910L435 910L435 794L313 794Z"  horiz-adv-x="750" vert-adv-y="1000"  />

      
      <glyph glyph-name="uni1EA0" unicode="&#x1EA0;" d="M0 0L319 705L427 705L750 0L619 0L533 198L585 163L162 163L216 198L130 0L0 0M372 567L231 233L205 264L541 264L520 233L376 567L372 567M313-204L313-88L435-88L435-204L313-204Z"  horiz-adv-x="750" vert-adv-y="1000"  />

      
      <glyph glyph-name="unic0" unicode="&#xc0;" d="M0 0L319 705L427 705L750 0L619 0L533 198L585 163L162 163L216 198L130 0L0 0M372 567L231 233L205 264L541 264L520 233L376 567L372 567M329 765L170 939L300 939L419 765L329 765Z"  horiz-adv-x="750" vert-adv-y="1000"  />

      
      <glyph glyph-name="uni1EA2" unicode="&#x1EA2;" d="M0 0L319 705L427 705L750 0L619 0L533 198L585 163L162 163L216 198L130 0L0 0M372 567L231 233L205 264L541 264L520 233L376 567L372 567M335 765L335 783Q335 801 343.50 812Q352 823 363.50 831.50Q375 840 383.50 847.50Q392 855 392 865Q392 875 382 880Q372 885 352 885Q336 885 322 882Q308 879 291 872L272 925Q314 946 382 946Q431 946 459 929Q487 912 487 883Q487 861 476 848Q465 835 450 825.50Q435 816 424 805.50Q413 795 413 777L413 765L335 765Z"  horiz-adv-x="750" vert-adv-y="1000"  />

      
      <glyph glyph-name="uni0202" unicode="&#x0202;" d="M0 0L319 705L427 705L750 0L619 0L533 198L585 163L162 163L216 198L130 0L0 0M372 567L231 233L205 264L541 264L520 233L376 567L372 567M262 760L191 769Q197 848 246.50 893.50Q296 939 374 939Q452 939 501.50 893.50Q551 848 557 769L486 760Q482 810 452 837.50Q422 865 373 865Q325 865 296 837.50Q267 810 262 760Z"  horiz-adv-x="750" vert-adv-y="1000"  />

      
      <glyph glyph-name="uni0100" unicode="&#x0100;" d="M0 0L319 705L427 705L750 0L619 0L533 198L585 163L162 163L216 198L130 0L0 0M372 567L231 233L205 264L541 264L520 233L376 567L372 567M201 806L201 880L547 880L547 806L201 806Z"  horiz-adv-x="750" vert-adv-y="1000"  />

      
      <glyph glyph-name="uni0104" unicode="&#x0104;" d="M0 0L319 705L427 705L750 0L619 0L533 198L585 163L162 163L216 198L130 0L0 0M372 567L231 233L205 264L541 264L520 233L376 567L372 567M687-195Q632-195 600.50-167Q569-139 569-91Q569-49 597-13Q625 23 671 42L709 0Q692-7 678-18.50Q664-30 656-45Q648-60 648-77Q648-102 664.50-115Q681-128 704-128Q719-128 732-125Q745-122 759-117L774-178Q755-187 734-191Q713-195 687-195Z"  horiz-adv-x="750" vert-adv-y="1000"  />

      
      <glyph glyph-name="unic5" unicode="&#xc5;" d="M0 0L319 705L427 705L750 0L619 0L533 198L585 163L162 163L216 198L130 0L0 0M372 567L231 233L205 264L541 264L520 233L376 567L372 567M374 755Q339 755 310 771.50Q281 788 264.50 816Q248 844 248 878Q248 913 264.50 940.50Q281 968 310 984Q339 1000 374 1000Q410 1000 438.50 984Q467 968 483.50 940.50Q500 913 500 878Q500 844 483.50 816Q467 788 438.50 771.50Q410 755 374 755M374 812Q403 812 421 831Q439 850 439 878Q439 906 421 924.50Q403 943 374 943Q346 943 327.50 924.50Q309 906 309 878Q309 850 327.50 831Q346 812 374 812Z"  horiz-adv-x="750" vert-adv-y="1000"  />

      
      <glyph glyph-name="uni01FA" unicode="&#x01FA;" d="M0 0L319 705L427 705L750 0L619 0L533 198L585 163L162 163L216 198L130 0L0 0M372 567L231 233L205 264L541 264L520 233L376 567L372 567M374 755Q340 755 312.50 770.50Q285 786 269 813Q253 840 253 873Q253 906 269 932.50Q285 959 312.50 974.50Q340 990 374 990Q392 990 408 985.50Q424 981 438 973L503 1033L603 1033L481 928Q495 903 495 873Q495 840 479 813Q463 786 435.50 770.50Q408 755 374 755M374 807Q403 807 421 826Q439 845 439 873Q439 901 421 919.50Q403 938 374 938Q346 938 327.50 919.50Q309 901 309 873Q309 845 327.50 826Q346 807 374 807Z"  horiz-adv-x="750" vert-adv-y="1000"  />

      
      <glyph glyph-name="unic3" unicode="&#xc3;" d="M0 0L319 705L427 705L750 0L619 0L533 198L585 163L162 163L216 198L130 0L0 0M372 567L231 233L205 264L541 264L520 233L376 567L372 567M213 772L151 776Q156 847 193 885.50Q230 924 285 924Q308 924 332 915.50Q356 907 389 888Q418 872 435 865Q452 858 466 858Q495 858 512 876Q529 894 535 928L597 924Q592 853 555.50 814.50Q519 776 464 776Q440 776 415.50 785Q391 794 356 814Q329 830 313 836Q297 842 282 842Q253 842 236 824.50Q219 807 213 772Z"  horiz-adv-x="750" vert-adv-y="1000"  />

      
      <glyph glyph-name="unic6" unicode="&#xc6;" d="M-20 0L420 705L975 705L975 604L598 604L621 625L642 374L624 409L953 409L953 307L627 307L646 317L667 74L651 102L975 102L975 0L556 0L540 194L568 163L199 163L238 197L119 0L-20 0M482 603L260 234L250 265L548 265L538 230L506 603L482 603Z"  horiz-adv-x="1017" vert-adv-y="1000"  />

      
      <glyph glyph-name="uni01FC" unicode="&#x01FC;" d="M-20 0L420 705L975 705L975 604L598 604L621 625L642 374L624 409L953 409L953 307L627 307L646 317L667 74L651 102L975 102L975 0L556 0L540 194L568 163L199 163L238 197L119 0L-20 0M482 603L260 234L250 265L548 265L538 230L506 603L482 603M474 765L593 939L723 939L564 765L474 765Z"  horiz-adv-x="1017" vert-adv-y="1000"  />

      
      <glyph glyph-name="uni42" unicode="&#x42;" d="M78 0L78 705L387 705Q502 705 564 656.50Q626 608 626 522Q626 458 588 414Q550 370 483 355L483 370Q560 359 602.50 314.50Q645 270 645 197Q645 103 580 51.50Q515 0 399 0L78 0M202 98L384 98Q449 98 485 122.50Q521 147 521 203Q521 260 485 284.50Q449 309 384 309L202 309L202 98M202 406L365 406Q434 406 467.50 431.50Q501 457 501 507Q501 557 467.50 582.50Q434 608 365 608L202 608L202 406Z"  horiz-adv-x="690" vert-adv-y="1000"  />

      
      <glyph glyph-name="uni0181" unicode="&#x0181;" d="M232 0L232 614L205 614Q153 614 129 590.50Q105 567 105 517L105 469L-1 469L-1 521Q-1 613 52 659Q105 705 213 705L542 705Q656 705 718 656.50Q780 608 780 522Q780 458 742 414Q704 370 638 355L638 370Q715 359 757 314Q799 269 799 197Q799 103 734 51.50Q669 0 553 0L232 0M356 98L538 98Q607 98 641 124Q675 150 675 203Q675 256 641.50 282.50Q608 309 538 309L356 309L356 98M356 406L520 406Q588 406 621.50 431.50Q655 457 655 507Q655 557 621.50 582.50Q588 608 520 608L356 608L356 406Z"  horiz-adv-x="845" vert-adv-y="1000"  />

      
      <glyph glyph-name="uni43" unicode="&#x43;" d="M406-10Q296-10 217.50 34.50Q139 79 97 160.50Q55 242 55 353Q55 464 97 545Q139 626 217.50 670.50Q296 715 406 715Q480 715 539.50 694Q599 673 642 632L600 530Q553 568 509.50 584.50Q466 601 410 601Q303 601 246.50 536.50Q190 472 190 353Q190 234 246.50 169Q303 104 410 104Q466 104 509.50 120.50Q553 137 600 176L642 74Q599 34 539.50 12Q480-10 406-10Z"  horiz-adv-x="685" vert-adv-y="1000"  />

      
      <glyph glyph-name="uni0106" unicode="&#x0106;" d="M406-10Q296-10 217.50 34.50Q139 79 97 160.50Q55 242 55 353Q55 464 97 545Q139 626 217.50 670.50Q296 715 406 715Q480 715 539.50 694Q599 673 642 632L600 530Q553 568 509.50 584.50Q466 601 410 601Q303 601 246.50 536.50Q190 472 190 353Q190 234 246.50 169Q303 104 410 104Q466 104 509.50 120.50Q553 137 600 176L642 74Q599 34 539.50 12Q480-10 406-10M353 765L472 939L602 939L443 765L353 765Z"  horiz-adv-x="685" vert-adv-y="1000"  />

      
      <glyph glyph-name="uni010C" unicode="&#x010C;" d="M406-10Q296-10 217.50 34.50Q139 79 97 160.50Q55 242 55 353Q55 464 97 545Q139 626 217.50 670.50Q296 715 406 715Q480 715 539.50 694Q599 673 642 632L600 530Q553 568 509.50 584.50Q466 601 410 601Q303 601 246.50 536.50Q190 472 190 353Q190 234 246.50 169Q303 104 410 104Q466 104 509.50 120.50Q553 137 600 176L642 74Q599 34 539.50 12Q480-10 406-10M344 765L220 939L307 939L398 835L489 939L576 939L452 765L344 765Z"  horiz-adv-x="685" vert-adv-y="1000"  />

      
      <glyph glyph-name="unic7" unicode="&#xc7;" d="M406-10Q296-10 217.50 34.50Q139 79 97 160.50Q55 242 55 353Q55 464 97 545Q139 626 217.50 670.50Q296 715 406 715Q480 715 539.50 694Q599 673 642 632L600 530Q553 568 509.50 584.50Q466 601 410 601Q303 601 246.50 536.50Q190 472 190 353Q190 234 246.50 169Q303 104 410 104Q466 104 509.50 120.50Q553 137 600 176L642 74Q599 34 539.50 12Q480-10 406-10M399-195Q369-195 342.50-189.50Q316-184 296-174L314-118Q332-126 350-130.50Q368-135 388-135Q415-135 429-127.50Q443-120 443-105Q443-82 406-82Q396-82 386.50-83Q377-84 364-88L345-70L359 20L426 20L413-56L381-45Q392-41 404.50-39Q417-37 427-37Q468-37 493-56Q518-75 518-109Q518-148 485-171.50Q452-195 399-195Z"  horiz-adv-x="685" vert-adv-y="1000"  />

      
      <glyph glyph-name="uni1E08" unicode="&#x1E08;" d="M406-10Q296-10 217.50 34.50Q139 79 97 160.50Q55 242 55 353Q55 464 97 545Q139 626 217.50 670.50Q296 715 406 715Q480 715 539.50 694Q599 673 642 632L600 530Q553 568 509.50 584.50Q466 601 410 601Q303 601 246.50 536.50Q190 472 190 353Q190 234 246.50 169Q303 104 410 104Q466 104 509.50 120.50Q553 137 600 176L642 74Q599 34 539.50 12Q480-10 406-10M399-195Q369-195 342.50-189.50Q316-184 296-174L314-118Q332-126 350-130.50Q368-135 388-135Q415-135 429-127.50Q443-120 443-105Q443-82 406-82Q396-82 386.50-83Q377-84 364-88L345-70L359 20L426 20L413-56L381-45Q392-41 404.50-39Q417-37 427-37Q468-37 493-56Q518-75 518-109Q518-148 485-171.50Q452-195 399-195M353 765L472 939L602 939L443 765L353 765Z"  horiz-adv-x="685" vert-adv-y="1000"  />

      
      <glyph glyph-name="uni0108" unicode="&#x0108;" d="M406-10Q296-10 217.50 34.50Q139 79 97 160.50Q55 242 55 353Q55 464 97 545Q139 626 217.50 670.50Q296 715 406 715Q480 715 539.50 694Q599 673 642 632L600 530Q553 568 509.50 584.50Q466 601 410 601Q303 601 246.50 536.50Q190 472 190 353Q190 234 246.50 169Q303 104 410 104Q466 104 509.50 120.50Q553 137 600 176L642 74Q599 34 539.50 12Q480-10 406-10M220 765L344 939L452 939L576 765L489 765L398 869L307 765L220 765Z"  horiz-adv-x="685" vert-adv-y="1000"  />

      
      <glyph glyph-name="uni010A" unicode="&#x010A;" d="M406-10Q296-10 217.50 34.50Q139 79 97 160.50Q55 242 55 353Q55 464 97 545Q139 626 217.50 670.50Q296 715 406 715Q480 715 539.50 694Q599 673 642 632L600 530Q553 568 509.50 584.50Q466 601 410 601Q303 601 246.50 536.50Q190 472 190 353Q190 234 246.50 169Q303 104 410 104Q466 104 509.50 120.50Q553 137 600 176L642 74Q599 34 539.50 12Q480-10 406-10M337 794L337 910L459 910L459 794L337 794Z"  horiz-adv-x="685" vert-adv-y="1000"  />

      
      <glyph glyph-name="uni44" unicode="&#x44;" d="M78 0L78 705L334 705Q455 705 538.50 663.50Q622 622 665 543.50Q708 465 708 353Q708 242 665 163Q622 84 538.50 42Q455 0 334 0L78 0M207 107L326 107Q454 107 516 168Q578 229 578 353Q578 478 516 538.50Q454 599 326 599L207 599L207 107Z"  horiz-adv-x="762" vert-adv-y="1000"  />

      
      <glyph glyph-name="uni01C4" unicode="&#x01C4;" d="M78 0L78 705L334 705Q455 705 538.50 663.50Q622 622 665 543.50Q708 465 708 353Q708 242 665 163Q622 84 538.50 42Q455 0 334 0L78 0M207 107L326 107Q454 107 516 168Q578 229 578 353Q578 478 516 538.50Q454 599 326 599L207 599L207 107M792 0L792 95L1187 639L1187 598L792 598L792 705L1310 705L1310 611L914 67L914 107L1323 107L1323 0L792 0M1004 765L880 939L967 939L1058 835L1149 939L1236 939L1112 765L1004 765Z"  horiz-adv-x="1355" vert-adv-y="1000"  />

      
      <glyph glyph-name="unid0" unicode="&#xd0;" d="M78 0L78 705L334 705Q455 705 538.50 663.50Q622 622 665 543.50Q708 465 708 353Q708 242 665 163Q622 84 538.50 42Q455 0 334 0L78 0M207 107L326 107Q454 107 516 168Q578 229 578 353Q578 478 516 538.50Q454 599 326 599L207 599L207 107M-6 310L-6 404L399 404L399 310L-6 310Z"  horiz-adv-x="762" vert-adv-y="1000"  />

      
      <glyph glyph-name="uni010E" unicode="&#x010E;" d="M78 0L78 705L334 705Q455 705 538.50 663.50Q622 622 665 543.50Q708 465 708 353Q708 242 665 163Q622 84 538.50 42Q455 0 334 0L78 0M207 107L326 107Q454 107 516 168Q578 229 578 353Q578 478 516 538.50Q454 599 326 599L207 599L207 107M334 765L210 939L297 939L388 835L479 939L566 939L442 765L334 765Z"  horiz-adv-x="762" vert-adv-y="1000"  />

      
      <glyph glyph-name="uni0110" unicode="&#x0110;" d="M78 0L78 705L334 705Q455 705 538.50 663.50Q622 622 665 543.50Q708 465 708 353Q708 242 665 163Q622 84 538.50 42Q455 0 334 0L78 0M207 107L326 107Q454 107 516 168Q578 229 578 353Q578 478 516 538.50Q454 599 326 599L207 599L207 107M-6 310L-6 404L399 404L399 310L-6 310Z"  horiz-adv-x="762" vert-adv-y="1000"  />

      
      <glyph glyph-name="uni1E0C" unicode="&#x1E0C;" d="M78 0L78 705L334 705Q455 705 538.50 663.50Q622 622 665 543.50Q708 465 708 353Q708 242 665 163Q622 84 538.50 42Q455 0 334 0L78 0M207 107L326 107Q454 107 516 168Q578 229 578 353Q578 478 516 538.50Q454 599 326 599L207 599L207 107M327-204L327-88L449-88L449-204L327-204Z"  horiz-adv-x="762" vert-adv-y="1000"  />

      
      <glyph glyph-name="uni018A" unicode="&#x018A;" d="M232 0L232 614L205 614Q153 614 129 590.50Q105 567 105 517L105 469L-1 469L-1 521Q-1 613 51.50 659Q104 705 208 705L489 705Q668 705 765 614Q862 523 862 353Q862 183 765 91.50Q668 0 489 0L232 0M361 107L480 107Q608 107 670.50 168Q733 229 733 353Q733 478 670.50 538.50Q608 599 480 599L361 599L361 107Z"  horiz-adv-x="917" vert-adv-y="1000"  />

      
      <glyph glyph-name="uni1E0E" unicode="&#x1E0E;" d="M78 0L78 705L334 705Q455 705 538.50 663.50Q622 622 665 543.50Q708 465 708 353Q708 242 665 163Q622 84 538.50 42Q455 0 334 0L78 0M207 107L326 107Q454 107 516 168Q578 229 578 353Q578 478 516 538.50Q454 599 326 599L207 599L207 107M230-165L230-91L546-91L546-165L230-165Z"  horiz-adv-x="762" vert-adv-y="1000"  />

      
      <glyph glyph-name="uni01C5" unicode="&#x01C5;" d="M78 0L78 705L334 705Q455 705 538.50 663.50Q622 622 665 543.50Q708 465 708 353Q708 242 665 163Q622 84 538.50 42Q455 0 334 0L78 0M207 107L326 107Q454 107 516 168Q578 229 578 353Q578 478 516 538.50Q454 599 326 599L207 599L207 107M810 0L810 82L1126 441L1126 411L810 411L810 505L1239 505L1239 423L920 61L919 94L1250 94L1250 0L810 0M974 554L864 757L943 757L1029 625L1115 757L1194 757L1084 554L974 554Z"  horiz-adv-x="1288" vert-adv-y="1000"  />

      
      <glyph glyph-name="uni45" unicode="&#x45;" d="M78 0L78 705L553 705L553 604L202 604L202 409L530 409L530 307L202 307L202 102L553 102L553 0L78 0Z"  horiz-adv-x="595" vert-adv-y="1000"  />

      
      <glyph glyph-name="unic9" unicode="&#xc9;" d="M78 0L78 705L553 705L553 604L202 604L202 409L530 409L530 307L202 307L202 102L553 102L553 0L78 0M288 765L407 939L537 939L378 765L288 765Z"  horiz-adv-x="595" vert-adv-y="1000"  />

      
      <glyph glyph-name="uni0114" unicode="&#x0114;" d="M78 0L78 705L553 705L553 604L202 604L202 409L530 409L530 307L202 307L202 102L553 102L553 0L78 0M333 760Q255 760 205.50 806Q156 852 150 930L221 939Q226 890 255 862.50Q284 835 332 835Q381 835 411 862.50Q441 890 445 939L516 930Q510 852 460.50 806Q411 760 333 760Z"  horiz-adv-x="595" vert-adv-y="1000"  />

      
      <glyph glyph-name="uni011A" unicode="&#x011A;" d="M78 0L78 705L553 705L553 604L202 604L202 409L530 409L530 307L202 307L202 102L553 102L553 0L78 0M279 765L155 939L242 939L333 835L424 939L511 939L387 765L279 765Z"  horiz-adv-x="595" vert-adv-y="1000"  />

      
      <glyph glyph-name="uni0228" unicode="&#x0228;" d="M78 0L78 705L553 705L553 604L202 604L202 409L530 409L530 307L202 307L202 102L553 102L553 0L78 0M334-195Q304-195 277.50-189.50Q251-184 231-174L249-118Q267-126 285-130.50Q303-135 323-135Q350-135 364-127.50Q378-120 378-105Q378-82 341-82Q331-82 321.50-83Q312-84 299-88L280-70L294 20L361 20L348-56L316-45Q327-41 339.50-39Q352-37 362-37Q403-37 428-56Q453-75 453-109Q453-148 420-171.50Q387-195 334-195Z"  horiz-adv-x="595" vert-adv-y="1000"  />

      
      <glyph glyph-name="uni1E1C" unicode="&#x1E1C;" d="M78 0L78 705L553 705L553 604L202 604L202 409L530 409L530 307L202 307L202 102L553 102L553 0L78 0M334-195Q304-195 277.50-189.50Q251-184 231-174L249-118Q267-126 285-130.50Q303-135 323-135Q350-135 364-127.50Q378-120 378-105Q378-82 341-82Q331-82 321.50-83Q312-84 299-88L280-70L294 20L361 20L348-56L316-45Q327-41 339.50-39Q352-37 362-37Q403-37 428-56Q453-75 453-109Q453-148 420-171.50Q387-195 334-195M333 760Q255 760 205.50 806Q156 852 150 930L221 939Q226 890 255 862.50Q284 835 332 835Q381 835 411 862.50Q441 890 445 939L516 930Q510 852 460.50 806Q411 760 333 760Z"  horiz-adv-x="595" vert-adv-y="1000"  />

      
      <glyph glyph-name="unica" unicode="&#xca;" d="M78 0L78 705L553 705L553 604L202 604L202 409L530 409L530 307L202 307L202 102L553 102L553 0L78 0M155 765L279 939L387 939L511 765L424 765L333 869L242 765L155 765Z"  horiz-adv-x="595" vert-adv-y="1000"  />

      
      <glyph glyph-name="uni1EBE" unicode="&#x1EBE;" d="M78 0L78 705L553 705L553 604L202 604L202 409L530 409L530 307L202 307L202 102L553 102L553 0L78 0M168 765L278 929L388 929L498 765L419 765L333 861L247 765L168 765M442 872L526 1022L630 1022L513 872L442 872Z"  horiz-adv-x="595" vert-adv-y="1000"  />

      
      <glyph glyph-name="uni1EC6" unicode="&#x1EC6;" d="M78 0L78 705L553 705L553 604L202 604L202 409L530 409L530 307L202 307L202 102L553 102L553 0L78 0M272-204L272-88L394-88L394-204L272-204M155 765L279 939L387 939L511 765L424 765L333 869L242 765L155 765Z"  horiz-adv-x="595" vert-adv-y="1000"  />

      
      <glyph glyph-name="uni1EC0" unicode="&#x1EC0;" d="M78 0L78 705L553 705L553 604L202 604L202 409L530 409L530 307L202 307L202 102L553 102L553 0L78 0M168 765L278 929L388 929L498 765L419 765L333 861L247 765L168 765M481 872L364 1022L469 1022L553 872L481 872Z"  horiz-adv-x="595" vert-adv-y="1000"  />

      
      <glyph glyph-name="uni1EC2" unicode="&#x1EC2;" d="M78 0L78 705L553 705L553 604L202 604L202 409L530 409L530 307L202 307L202 102L553 102L553 0L78 0M168 765L278 929L388 929L498 765L419 765L333 861L247 765L168 765M444 872Q444 890 451.50 901.50Q459 913 469 921.50Q479 930 486.50 937.50Q494 945 494 955Q494 965 484.50 968.50Q475 972 459 972Q445 972 430.50 969.50Q416 967 401 960L385 1007Q405 1016 428 1021Q451 1026 483 1026Q528 1026 552.50 1012Q577 998 577 975Q577 956 567.50 944Q558 932 545 922Q532 912 522.50 900.50Q513 889 513 872L444 872Z"  horiz-adv-x="595" vert-adv-y="1000"  />

      
      <glyph glyph-name="uni1EC4" unicode="&#x1EC4;" d="M78 0L78 705L553 705L553 604L202 604L202 409L530 409L530 307L202 307L202 102L553 102L553 0L78 0M168 765L278 899L388 899L498 765L421 765L333 837L245 765L168 765M219 921L161 924Q165 977 194 1004.50Q223 1032 267 1032Q287 1032 304.50 1025.50Q322 1019 343 1007Q364 995 375 991.50Q386 988 396 988Q419 988 431 998.50Q443 1009 447 1033L505 1029Q502 976 473 948.50Q444 921 400 921Q380 921 361 928.50Q342 936 319 949Q307 955 295 960.50Q283 966 270 966Q248 966 236 955Q224 944 219 921Z"  horiz-adv-x="595" vert-adv-y="1000"  />

      
      <glyph glyph-name="uni0204" unicode="&#x0204;" d="M78 0L78 705L553 705L553 604L202 604L202 409L530 409L530 307L202 307L202 102L553 102L553 0L78 0M371 765L244 939L357 939L442 765L371 765M224 765L88 939L200 939L295 765L224 765Z"  horiz-adv-x="595" vert-adv-y="1000"  />

      
      <glyph glyph-name="unicb" unicode="&#xcb;" d="M78 0L78 705L553 705L553 604L202 604L202 409L530 409L530 307L202 307L202 102L553 102L553 0L78 0M370 790L370 905L485 905L485 790L370 790M181 790L181 905L296 905L296 790L181 790Z"  horiz-adv-x="595" vert-adv-y="1000"  />

      
      <glyph glyph-name="uni0116" unicode="&#x0116;" d="M78 0L78 705L553 705L553 604L202 604L202 409L530 409L530 307L202 307L202 102L553 102L553 0L78 0M272 794L272 910L394 910L394 794L272 794Z"  horiz-adv-x="595" vert-adv-y="1000"  />

      
      <glyph glyph-name="uni1EB8" unicode="&#x1EB8;" d="M78 0L78 705L553 705L553 604L202 604L202 409L530 409L530 307L202 307L202 102L553 102L553 0L78 0M272-204L272-88L394-88L394-204L272-204Z"  horiz-adv-x="595" vert-adv-y="1000"  />

      
      <glyph glyph-name="unic8" unicode="&#xc8;" d="M78 0L78 705L553 705L553 604L202 604L202 409L530 409L530 307L202 307L202 102L553 102L553 0L78 0M288 765L129 939L259 939L378 765L288 765Z"  horiz-adv-x="595" vert-adv-y="1000"  />

      
      <glyph glyph-name="uni1EBA" unicode="&#x1EBA;" d="M78 0L78 705L553 705L553 604L202 604L202 409L530 409L530 307L202 307L202 102L553 102L553 0L78 0M294 765L294 783Q294 801 302.50 812Q311 823 322.50 831.50Q334 840 342.50 847.50Q351 855 351 865Q351 875 341 880Q331 885 311 885Q295 885 281 882Q267 879 250 872L231 925Q273 946 341 946Q390 946 418 929Q446 912 446 883Q446 861 435 848Q424 835 409 825.50Q394 816 383 805.50Q372 795 372 777L372 765L294 765Z"  horiz-adv-x="595" vert-adv-y="1000"  />

      
      <glyph glyph-name="uni0206" unicode="&#x0206;" d="M78 0L78 705L553 705L553 604L202 604L202 409L530 409L530 307L202 307L202 102L553 102L553 0L78 0M221 760L150 769Q156 848 205.50 893.50Q255 939 333 939Q411 939 460.50 893.50Q510 848 516 769L445 760Q441 810 411 837.50Q381 865 332 865Q284 865 255 837.50Q226 810 221 760Z"  horiz-adv-x="595" vert-adv-y="1000"  />

      
      <glyph glyph-name="uni0112" unicode="&#x0112;" d="M78 0L78 705L553 705L553 604L202 604L202 409L530 409L530 307L202 307L202 102L553 102L553 0L78 0M160 806L160 880L506 880L506 806L160 806Z"  horiz-adv-x="595" vert-adv-y="1000"  />

      
      <glyph glyph-name="uni1E16" unicode="&#x1E16;" d="M78 0L78 705L553 705L553 604L202 604L202 409L530 409L530 307L202 307L202 102L553 102L553 0L78 0M175 783L175 857L491 857L491 783L175 783M294 894L367 1026L487 1026L372 894L294 894Z"  horiz-adv-x="595" vert-adv-y="1000"  />

      
      <glyph glyph-name="uni1E14" unicode="&#x1E14;" d="M78 0L78 705L553 705L553 604L202 604L202 409L530 409L530 307L202 307L202 102L553 102L553 0L78 0M294 894L179 1026L299 1026L372 894L294 894M175 783L175 857L491 857L491 783L175 783Z"  horiz-adv-x="595" vert-adv-y="1000"  />

      
      <glyph glyph-name="uni0118" unicode="&#x0118;" d="M78 0L78 705L553 705L553 604L202 604L202 409L530 409L530 307L202 307L202 102L553 102L553 0L78 0M489-195Q434-195 402.50-167Q371-139 371-91Q371-49 399-13Q427 23 473 42L511 0Q494-7 480-18.50Q466-30 458-45Q450-60 450-77Q450-102 466.50-115Q483-128 506-128Q521-128 534-125Q547-122 561-117L576-178Q557-187 536-191Q515-195 489-195Z"  horiz-adv-x="595" vert-adv-y="1000"  />

      
      <glyph glyph-name="uni1EBC" unicode="&#x1EBC;" d="M78 0L78 705L553 705L553 604L202 604L202 409L530 409L530 307L202 307L202 102L553 102L553 0L78 0M172 772L110 776Q115 847 152 885.50Q189 924 244 924Q267 924 291 915.50Q315 907 348 888Q377 872 394 865Q411 858 425 858Q454 858 471 876Q488 894 494 928L556 924Q551 853 514.50 814.50Q478 776 423 776Q399 776 374.50 785Q350 794 315 814Q288 830 272 836Q256 842 241 842Q212 842 195 824.50Q178 807 172 772Z"  horiz-adv-x="595" vert-adv-y="1000"  />

      
      <glyph glyph-name="uni46" unicode="&#x46;" d="M78 0L78 705L543 705L543 604L207 604L207 404L520 404L520 303L207 303L207 0L78 0Z"  horiz-adv-x="572" vert-adv-y="1000"  />

      
      <glyph glyph-name="uni47" unicode="&#x47;" d="M418-10Q299-10 218 34Q137 78 96 159Q55 240 55 351Q55 463 99 544.50Q143 626 225.50 670.50Q308 715 424 715Q501 715 559 694.50Q617 674 661 635L618 535Q586 560 557 575Q528 590 497 596.50Q466 603 425 603Q309 603 249.50 537.50Q190 472 190 350Q190 228 246.50 164Q303 100 424 100Q465 100 506.50 108Q548 116 588 131L564 77L564 288L399 288L399 382L671 382L671 43Q622 18 554 4Q486-10 418-10Z"  horiz-adv-x="740" vert-adv-y="1000"  />

      
      <glyph glyph-name="uni011E" unicode="&#x011E;" d="M418-10Q299-10 218 34Q137 78 96 159Q55 240 55 351Q55 463 99 544.50Q143 626 225.50 670.50Q308 715 424 715Q501 715 559 694.50Q617 674 661 635L618 535Q586 560 557 575Q528 590 497 596.50Q466 603 425 603Q309 603 249.50 537.50Q190 472 190 350Q190 228 246.50 164Q303 100 424 100Q465 100 506.50 108Q548 116 588 131L564 77L564 288L399 288L399 382L671 382L671 43Q622 18 554 4Q486-10 418-10M410 760Q332 760 282.50 806Q233 852 227 930L298 939Q303 890 332 862.50Q361 835 409 835Q458 835 488 862.50Q518 890 522 939L593 930Q587 852 537.50 806Q488 760 410 760Z"  horiz-adv-x="740" vert-adv-y="1000"  />

      
      <glyph glyph-name="uni01E6" unicode="&#x01E6;" d="M418-10Q299-10 218 34Q137 78 96 159Q55 240 55 351Q55 463 99 544.50Q143 626 225.50 670.50Q308 715 424 715Q501 715 559 694.50Q617 674 661 635L618 535Q586 560 557 575Q528 590 497 596.50Q466 603 425 603Q309 603 249.50 537.50Q190 472 190 350Q190 228 246.50 164Q303 100 424 100Q465 100 506.50 108Q548 116 588 131L564 77L564 288L399 288L399 382L671 382L671 43Q622 18 554 4Q486-10 418-10M356 765L232 939L319 939L410 835L501 939L588 939L464 765L356 765Z"  horiz-adv-x="740" vert-adv-y="1000"  />

      
      <glyph glyph-name="uni011C" unicode="&#x011C;" d="M418-10Q299-10 218 34Q137 78 96 159Q55 240 55 351Q55 463 99 544.50Q143 626 225.50 670.50Q308 715 424 715Q501 715 559 694.50Q617 674 661 635L618 535Q586 560 557 575Q528 590 497 596.50Q466 603 425 603Q309 603 249.50 537.50Q190 472 190 350Q190 228 246.50 164Q303 100 424 100Q465 100 506.50 108Q548 116 588 131L564 77L564 288L399 288L399 382L671 382L671 43Q622 18 554 4Q486-10 418-10M232 765L356 939L464 939L588 765L501 765L410 869L319 765L232 765Z"  horiz-adv-x="740" vert-adv-y="1000"  />

      
      <glyph glyph-name="uni0122" unicode="&#x0122;" d="M418-10Q299-10 218 34Q137 78 96 159Q55 240 55 351Q55 463 99 544.50Q143 626 225.50 670.50Q308 715 424 715Q501 715 559 694.50Q617 674 661 635L618 535Q586 560 557 575Q528 590 497 596.50Q466 603 425 603Q309 603 249.50 537.50Q190 472 190 350Q190 228 246.50 164Q303 100 424 100Q465 100 506.50 108Q548 116 588 131L564 77L564 288L399 288L399 382L671 382L671 43Q622 18 554 4Q486-10 418-10M429-278L381-246Q404-224 411.50-203.50Q419-183 419-160L447-175L355-175L355-73L486-73L486-140Q486-181 473-215.50Q460-250 429-278Z"  horiz-adv-x="740" vert-adv-y="1000"  />

      
      <glyph glyph-name="uni0120" unicode="&#x0120;" d="M418-10Q299-10 218 34Q137 78 96 159Q55 240 55 351Q55 463 99 544.50Q143 626 225.50 670.50Q308 715 424 715Q501 715 559 694.50Q617 674 661 635L618 535Q586 560 557 575Q528 590 497 596.50Q466 603 425 603Q309 603 249.50 537.50Q190 472 190 350Q190 228 246.50 164Q303 100 424 100Q465 100 506.50 108Q548 116 588 131L564 77L564 288L399 288L399 382L671 382L671 43Q622 18 554 4Q486-10 418-10M349 794L349 910L471 910L471 794L349 794Z"  horiz-adv-x="740" vert-adv-y="1000"  />

      
      <glyph glyph-name="uni1E20" unicode="&#x1E20;" d="M418-10Q299-10 218 34Q137 78 96 159Q55 240 55 351Q55 463 99 544.50Q143 626 225.50 670.50Q308 715 424 715Q501 715 559 694.50Q617 674 661 635L618 535Q586 560 557 575Q528 590 497 596.50Q466 603 425 603Q309 603 249.50 537.50Q190 472 190 350Q190 228 246.50 164Q303 100 424 100Q465 100 506.50 108Q548 116 588 131L564 77L564 288L399 288L399 382L671 382L671 43Q622 18 554 4Q486-10 418-10M237 806L237 880L583 880L583 806L237 806Z"  horiz-adv-x="740" vert-adv-y="1000"  />

      
      <glyph glyph-name="uni48" unicode="&#x48;" d="M78 0L78 705L207 705L207 411L568 411L568 705L697 705L697 0L568 0L568 304L207 304L207 0L78 0Z"  horiz-adv-x="774" vert-adv-y="1000"  />

      
      <glyph glyph-name="uni0126" unicode="&#x0126;" d="M102 0L102 511L15 511L15 605L102 605L102 705L231 705L231 605L591 605L591 705L720 705L720 605L807 605L807 511L720 511L720 0L591 0L591 292L231 292L231 0L102 0M231 400L591 400L591 511L231 511L231 400Z"  horiz-adv-x="821" vert-adv-y="1000"  />

      
      <glyph glyph-name="uni1E2A" unicode="&#x1E2A;" d="M78 0L78 705L207 705L207 411L568 411L568 705L697 705L697 0L568 0L568 304L207 304L207 0L78 0M388-215Q315-215 269.50-173.50Q224-132 222-62L293-55Q297-95 321.50-118Q346-141 388-141Q430-141 454.50-118Q479-95 483-55L554-62Q552-132 507-173.50Q462-215 388-215Z"  horiz-adv-x="774" vert-adv-y="1000"  />

      
      <glyph glyph-name="uni0124" unicode="&#x0124;" d="M78 0L78 705L207 705L207 411L568 411L568 705L697 705L697 0L568 0L568 304L207 304L207 0L78 0M210 765L334 939L442 939L566 765L479 765L388 869L297 765L210 765Z"  horiz-adv-x="774" vert-adv-y="1000"  />

      
      <glyph glyph-name="uni1E24" unicode="&#x1E24;" d="M78 0L78 705L207 705L207 411L568 411L568 705L697 705L697 0L568 0L568 304L207 304L207 0L78 0M327-204L327-88L449-88L449-204L327-204Z"  horiz-adv-x="774" vert-adv-y="1000"  />

      
      <glyph glyph-name="uni49" unicode="&#x49;" d="M78 0L78 705L207 705L207 0L78 0Z"  horiz-adv-x="284" vert-adv-y="1000"  />

      
      <glyph glyph-name="uni0132" unicode="&#x0132;" d="M78 0L78 705L207 705L207 0L78 0M374-187Q357-187 333.50-185Q310-183 286-178L286-76Q305-80 322.50-82Q340-84 352-84Q398-84 418.50-57Q439-30 439 29L439 705L568 705L568 29Q568-43 548-91Q528-139 485.50-163Q443-187 374-187Z"  horiz-adv-x="646" vert-adv-y="1000"  />

      
      <glyph glyph-name="unicd" unicode="&#xcd;" d="M78 0L78 705L207 705L207 0L78 0M97 765L216 939L346 939L187 765L97 765Z"  horiz-adv-x="284" vert-adv-y="1000"  />

      
      <glyph glyph-name="uni012C" unicode="&#x012C;" d="M78 0L78 705L207 705L207 0L78 0M142 760Q64 760 14.50 806Q-35 852-41 930L30 939Q35 890 64 862.50Q93 835 141 835Q190 835 220 862.50Q250 890 254 939L325 930Q319 852 269.50 806Q220 760 142 760Z"  horiz-adv-x="284" vert-adv-y="1000"  />

      
      <glyph glyph-name="unice" unicode="&#xce;" d="M78 0L78 705L207 705L207 0L78 0M-36 765L88 939L196 939L320 765L233 765L142 869L51 765L-36 765Z"  horiz-adv-x="284" vert-adv-y="1000"  />

      
      <glyph glyph-name="uni0208" unicode="&#x0208;" d="M78 0L78 705L207 705L207 0L78 0M180 765L53 939L166 939L251 765L180 765M33 765L-103 939L9 939L104 765L33 765Z"  horiz-adv-x="284" vert-adv-y="1000"  />

      
      <glyph glyph-name="unicf" unicode="&#xcf;" d="M78 0L78 705L207 705L207 0L78 0M179 790L179 905L294 905L294 790L179 790M-10 790L-10 905L105 905L105 790L-10 790Z"  horiz-adv-x="284" vert-adv-y="1000"  />

      
      <glyph glyph-name="uni1E2E" unicode="&#x1E2E;" d="M78 0L78 705L207 705L207 0L78 0M103 894L176 1026L296 1026L181 894L103 894M-10 770L-10 858L105 858L105 770L-10 770M179 770L179 858L294 858L294 770L179 770Z"  horiz-adv-x="284" vert-adv-y="1000"  />

      
      <glyph glyph-name="uni0130" unicode="&#x0130;" d="M78 0L78 705L207 705L207 0L78 0M81 794L81 910L203 910L203 794L81 794Z"  horiz-adv-x="284" vert-adv-y="1000"  />

      
      <glyph glyph-name="uni1ECA" unicode="&#x1ECA;" d="M78 0L78 705L207 705L207 0L78 0M81-204L81-88L203-88L203-204L81-204Z"  horiz-adv-x="284" vert-adv-y="1000"  />

      
      <glyph glyph-name="unicc" unicode="&#xcc;" d="M78 0L78 705L207 705L207 0L78 0M97 765L-62 939L68 939L187 765L97 765Z"  horiz-adv-x="284" vert-adv-y="1000"  />

      
      <glyph glyph-name="uni1EC8" unicode="&#x1EC8;" d="M78 0L78 705L207 705L207 0L78 0M103 765L103 783Q103 801 111.50 812Q120 823 131.50 831.50Q143 840 151.50 847.50Q160 855 160 865Q160 875 150 880Q140 885 120 885Q104 885 90 882Q76 879 59 872L40 925Q82 946 150 946Q199 946 227 929Q255 912 255 883Q255 861 244 848Q233 835 218 825.50Q203 816 192 805.50Q181 795 181 777L181 765L103 765Z"  horiz-adv-x="284" vert-adv-y="1000"  />

      
      <glyph glyph-name="uni020A" unicode="&#x020A;" d="M78 0L78 705L207 705L207 0L78 0M30 760L-41 769Q-35 848 14.50 893.50Q64 939 142 939Q220 939 269.50 893.50Q319 848 325 769L254 760Q250 810 220 837.50Q190 865 141 865Q93 865 64 837.50Q35 810 30 760Z"  horiz-adv-x="284" vert-adv-y="1000"  />

      
      <glyph glyph-name="uni012A" unicode="&#x012A;" d="M78 0L78 705L207 705L207 0L78 0M-31 806L-31 880L315 880L315 806L-31 806Z"  horiz-adv-x="284" vert-adv-y="1000"  />

      
      <glyph glyph-name="uni012E" unicode="&#x012E;" d="M78 0L78 705L207 705L207 0L78 0M157-195Q102-195 70.50-167Q39-139 39-91Q39-49 67-13Q95 23 141 42L179 0Q162-7 148-18.50Q134-30 126-45Q118-60 118-77Q118-102 134.50-115Q151-128 174-128Q189-128 202-125Q215-122 229-117L244-178Q225-187 204-191Q183-195 157-195Z"  horiz-adv-x="284" vert-adv-y="1000"  />

      
      <glyph glyph-name="uni0128" unicode="&#x0128;" d="M78 0L78 705L207 705L207 0L78 0M-19 772L-81 776Q-76 847-39 885.50Q-2 924 53 924Q76 924 100 915.50Q124 907 157 888Q186 872 203 865Q220 858 234 858Q263 858 280 876Q297 894 303 928L365 924Q360 853 323.50 814.50Q287 776 232 776Q208 776 183.50 785Q159 794 124 814Q97 830 81 836Q65 842 50 842Q21 842 4 824.50Q-13 807-19 772Z"  horiz-adv-x="284" vert-adv-y="1000"  />

      
      <glyph glyph-name="uni4a" unicode="&#x4a;" d="M90-187Q73-187 49.50-185Q26-183 2-178L2-76Q21-80 38.50-82Q56-84 68-84Q114-84 134.50-57Q155-30 155 29L155 705L284 705L284 29Q284-43 264-91Q244-139 201.50-163Q159-187 90-187Z"  horiz-adv-x="362" vert-adv-y="1000"  />

      
      <glyph glyph-name="uni0134" unicode="&#x0134;" d="M90-187Q73-187 49.50-185Q26-183 2-178L2-76Q21-80 38.50-82Q56-84 68-84Q114-84 134.50-57Q155-30 155 29L155 705L284 705L284 29Q284-43 264-91Q244-139 201.50-163Q159-187 90-187M43 765L167 939L275 939L399 765L312 765L221 869L130 765L43 765Z"  horiz-adv-x="362" vert-adv-y="1000"  />

      
      <glyph glyph-name="uni4b" unicode="&#x4b;" d="M78 0L78 705L207 705L207 393L209 393L516 705L672 705L304 338L305 394L696 0L535 0L209 326L207 326L207 0L78 0Z"  horiz-adv-x="666" vert-adv-y="1000"  />

      
      <glyph glyph-name="uni0136" unicode="&#x0136;" d="M78 0L78 705L207 705L207 393L209 393L516 705L672 705L304 338L305 394L696 0L535 0L209 326L207 326L207 0L78 0M347-278L299-246Q322-224 329.50-203.50Q337-183 337-160L365-175L273-175L273-73L404-73L404-140Q404-181 391-215.50Q378-250 347-278Z"  horiz-adv-x="666" vert-adv-y="1000"  />

      
      <glyph glyph-name="uni4c" unicode="&#x4c;" d="M78 0L78 705L207 705L207 109L539 109L539 0L78 0Z"  horiz-adv-x="560" vert-adv-y="1000"  />

      
      <glyph glyph-name="uni01C7" unicode="&#x01C7;" d="M78 0L78 705L207 705L207 109L539 109L539 0L78 0M690-187Q673-187 649.50-185Q626-183 602-178L602-76Q621-80 638.50-82Q656-84 668-84Q714-84 734.50-57Q755-30 755 29L755 705L884 705L884 29Q884-43 864-91Q844-139 801.50-163Q759-187 690-187Z"  horiz-adv-x="962" vert-adv-y="1000"  />

      
      <glyph glyph-name="uni0139" unicode="&#x0139;" d="M78 0L78 705L207 705L207 109L539 109L539 0L78 0M97 765L216 939L346 939L187 765L97 765Z"  horiz-adv-x="560" vert-adv-y="1000"  />

      
      <glyph glyph-name="uni013D" unicode="&#x013D;" d="M78 0L78 705L207 705L207 109L539 109L539 0L78 0M312 469L312 705L409 705L386 469L312 469Z"  horiz-adv-x="560" vert-adv-y="1000"  />

      
      <glyph glyph-name="uni013B" unicode="&#x013B;" d="M78 0L78 705L207 705L207 109L539 109L539 0L78 0M321-278L273-246Q296-224 303.50-203.50Q311-183 311-160L339-175L247-175L247-73L378-73L378-140Q378-181 365-215.50Q352-250 321-278Z"  horiz-adv-x="560" vert-adv-y="1000"  />

      
      <glyph glyph-name="uni013F" unicode="&#x013F;" d="M78 0L78 705L207 705L207 109L539 109L539 0L78 0M359 332L359 455L499 455L499 332L359 332Z"  horiz-adv-x="560" vert-adv-y="1000"  />

      
      <glyph glyph-name="uni1E36" unicode="&#x1E36;" d="M78 0L78 705L207 705L207 109L539 109L539 0L78 0M252-204L252-88L374-88L374-204L252-204Z"  horiz-adv-x="560" vert-adv-y="1000"  />

      
      <glyph glyph-name="uni01C8" unicode="&#x01C8;" d="M78 0L78 705L207 705L207 109L539 109L539 0L78 0M578-222Q559-222 536.50-219Q514-216 497-209L497-110Q510-114 525-117Q540-120 554-120Q590-120 610.50-98Q631-76 631-24L631 505L756 505L756-31Q756-125 713-173.50Q670-222 578-222M623 600L623 722L762 722L762 600L623 600Z"  horiz-adv-x="821" vert-adv-y="1000"  />

      
      <glyph glyph-name="uni1E3A" unicode="&#x1E3A;" d="M78 0L78 705L207 705L207 109L539 109L539 0L78 0M155-165L155-91L471-91L471-165L155-165Z"  horiz-adv-x="560" vert-adv-y="1000"  />

      
      <glyph glyph-name="uni0141" unicode="&#x0141;" d="M78 0L78 705L207 705L207 109L539 109L539 0L78 0M12 229L-35 314L365 544L413 459L12 229Z"  horiz-adv-x="560" vert-adv-y="1000"  />

      
      <glyph glyph-name="uni4d" unicode="&#x4d;" d="M79 0L79 705L192 705L451 122L420 122L679 705L791 705L791 0L674 0L674 523L710 523L473 0L396 0L159 523L196 523L196 0L79 0Z"  horiz-adv-x="870" vert-adv-y="1000"  />

      
      <glyph glyph-name="uni1E42" unicode="&#x1E42;" d="M79 0L79 705L192 705L451 122L420 122L679 705L791 705L791 0L674 0L674 523L710 523L473 0L396 0L159 523L196 523L196 0L79 0M374-204L374-88L496-88L496-204L374-204Z"  horiz-adv-x="870" vert-adv-y="1000"  />

      
      <glyph glyph-name="uni4e" unicode="&#x4e;" d="M78 0L78 705L175 705L584 176L558 176L558 705L678 705L678 0L581 0L173 529L198 529L198 0L78 0Z"  horiz-adv-x="755" vert-adv-y="1000"  />

      
      <glyph glyph-name="uni01CA" unicode="&#x01CA;" d="M78 0L78 705L175 705L584 176L558 176L558 705L678 705L678 0L581 0L173 529L198 529L198 0L78 0M845-187Q828-187 804.50-185Q781-183 757-178L757-76Q776-80 793.50-82Q811-84 823-84Q869-84 889.50-57Q910-30 910 29L910 705L1039 705L1039 29Q1039-43 1019-91Q999-139 956.50-163Q914-187 845-187Z"  horiz-adv-x="1117" vert-adv-y="1000"  />

      
      <glyph glyph-name="uni0143" unicode="&#x0143;" d="M78 0L78 705L175 705L584 176L558 176L558 705L678 705L678 0L581 0L173 529L198 529L198 0L78 0M335 765L454 939L584 939L425 765L335 765Z"  horiz-adv-x="755" vert-adv-y="1000"  />

      
      <glyph glyph-name="uni0147" unicode="&#x0147;" d="M78 0L78 705L175 705L584 176L558 176L558 705L678 705L678 0L581 0L173 529L198 529L198 0L78 0M326 765L202 939L289 939L380 835L471 939L558 939L434 765L326 765Z"  horiz-adv-x="755" vert-adv-y="1000"  />

      
      <glyph glyph-name="uni0145" unicode="&#x0145;" d="M78 0L78 705L175 705L584 176L558 176L558 705L678 705L678 0L581 0L173 529L198 529L198 0L78 0M389-278L341-246Q364-224 371.50-203.50Q379-183 379-160L407-175L315-175L315-73L446-73L446-140Q446-181 433-215.50Q420-250 389-278Z"  horiz-adv-x="755" vert-adv-y="1000"  />

      
      <glyph glyph-name="uni1E44" unicode="&#x1E44;" d="M78 0L78 705L175 705L584 176L558 176L558 705L678 705L678 0L581 0L173 529L198 529L198 0L78 0M319 794L319 910L441 910L441 794L319 794Z"  horiz-adv-x="755" vert-adv-y="1000"  />

      
      <glyph glyph-name="uni1E46" unicode="&#x1E46;" d="M78 0L78 705L175 705L584 176L558 176L558 705L678 705L678 0L581 0L173 529L198 529L198 0L78 0M320-204L320-88L442-88L442-204L320-204Z"  horiz-adv-x="755" vert-adv-y="1000"  />

      
      <glyph glyph-name="uni014A" unicode="&#x014A;" d="M434-193L425-102L475-97Q516-94 537-71.50Q558-49 558-7L558 51L581 0L173 529L198 529L198 0L78 0L78 705L175 705L584 176L558 176L558 705L678 705L678 10Q678-55 658-98Q638-141 594.50-163Q551-185 479-190L434-193Z"  horiz-adv-x="755" vert-adv-y="1000"  />

      
      <glyph glyph-name="uni01CB" unicode="&#x01CB;" d="M78 0L78 705L175 705L584 176L558 176L558 705L678 705L678 0L581 0L173 529L198 529L198 0L78 0M773-222Q754-222 731.50-219Q709-216 692-209L692-110Q705-114 720-117Q735-120 749-120Q785-120 805.50-98Q826-76 826-24L826 505L951 505L951-31Q951-125 908-173.50Q865-222 773-222M818 600L818 722L957 722L957 600L818 600Z"  horiz-adv-x="1016" vert-adv-y="1000"  />

      
      <glyph glyph-name="uni1E48" unicode="&#x1E48;" d="M78 0L78 705L175 705L584 176L558 176L558 705L678 705L678 0L581 0L173 529L198 529L198 0L78 0M223-165L223-91L539-91L539-165L223-165Z"  horiz-adv-x="755" vert-adv-y="1000"  />

      
      <glyph glyph-name="unid1" unicode="&#xd1;" d="M78 0L78 705L175 705L584 176L558 176L558 705L678 705L678 0L581 0L173 529L198 529L198 0L78 0M219 772L157 776Q162 847 199 885.50Q236 924 291 924Q314 924 338 915.50Q362 907 395 888Q424 872 441 865Q458 858 472 858Q501 858 518 876Q535 894 541 928L603 924Q598 853 561.50 814.50Q525 776 470 776Q446 776 421.50 785Q397 794 362 814Q335 830 319 836Q303 842 288 842Q259 842 242 824.50Q225 807 219 772Z"  horiz-adv-x="755" vert-adv-y="1000"  />

      
      <glyph glyph-name="uni4f" unicode="&#x4f;" d="M55 353Q55 464 95.50 545Q136 626 212 670.50Q288 715 393 715Q497 715 573 670.50Q649 626 690.50 545Q732 464 732 354Q732 243 690.50 161.50Q649 80 573 35Q497-10 393-10Q288-10 212.50 35Q137 80 96 161.50Q55 243 55 353M190 353Q190 234 241 167Q292 100 393 100Q491 100 544 167Q597 234 597 353Q597 473 544.50 539Q492 605 393 605Q292 605 241 539Q190 473 190 353Z"  horiz-adv-x="787" vert-adv-y="1000"  />

      
      <glyph glyph-name="unid3" unicode="&#xd3;" d="M55 353Q55 464 95.50 545Q136 626 212 670.50Q288 715 393 715Q497 715 573 670.50Q649 626 690.50 545Q732 464 732 354Q732 243 690.50 161.50Q649 80 573 35Q497-10 393-10Q288-10 212.50 35Q137 80 96 161.50Q55 243 55 353M190 353Q190 234 241 167Q292 100 393 100Q491 100 544 167Q597 234 597 353Q597 473 544.50 539Q492 605 393 605Q292 605 241 539Q190 473 190 353M348 765L467 939L597 939L438 765L348 765Z"  horiz-adv-x="787" vert-adv-y="1000"  />

      
      <glyph glyph-name="uni014E" unicode="&#x014E;" d="M55 353Q55 464 95.50 545Q136 626 212 670.50Q288 715 393 715Q497 715 573 670.50Q649 626 690.50 545Q732 464 732 354Q732 243 690.50 161.50Q649 80 573 35Q497-10 393-10Q288-10 212.50 35Q137 80 96 161.50Q55 243 55 353M190 353Q190 234 241 167Q292 100 393 100Q491 100 544 167Q597 234 597 353Q597 473 544.50 539Q492 605 393 605Q292 605 241 539Q190 473 190 353M393 760Q315 760 265.50 806Q216 852 210 930L281 939Q286 890 315 862.50Q344 835 392 835Q441 835 471 862.50Q501 890 505 939L576 930Q570 852 520.50 806Q471 760 393 760Z"  horiz-adv-x="787" vert-adv-y="1000"  />

      
      <glyph glyph-name="unid4" unicode="&#xd4;" d="M55 353Q55 464 95.50 545Q136 626 212 670.50Q288 715 393 715Q497 715 573 670.50Q649 626 690.50 545Q732 464 732 354Q732 243 690.50 161.50Q649 80 573 35Q497-10 393-10Q288-10 212.50 35Q137 80 96 161.50Q55 243 55 353M190 353Q190 234 241 167Q292 100 393 100Q491 100 544 167Q597 234 597 353Q597 473 544.50 539Q492 605 393 605Q292 605 241 539Q190 473 190 353M215 765L339 939L447 939L571 765L484 765L393 869L302 765L215 765Z"  horiz-adv-x="787" vert-adv-y="1000"  />

      
      <glyph glyph-name="uni1ED0" unicode="&#x1ED0;" d="M55 353Q55 464 95.50 545Q136 626 212 670.50Q288 715 393 715Q497 715 573 670.50Q649 626 690.50 545Q732 464 732 354Q732 243 690.50 161.50Q649 80 573 35Q497-10 393-10Q288-10 212.50 35Q137 80 96 161.50Q55 243 55 353M190 353Q190 234 241 167Q292 100 393 100Q491 100 544 167Q597 234 597 353Q597 473 544.50 539Q492 605 393 605Q292 605 241 539Q190 473 190 353M228 765L338 929L448 929L558 765L479 765L393 861L307 765L228 765M502 872L586 1022L690 1022L573 872L502 872Z"  horiz-adv-x="787" vert-adv-y="1000"  />

      
      <glyph glyph-name="uni1ED8" unicode="&#x1ED8;" d="M55 353Q55 464 95.50 545Q136 626 212 670.50Q288 715 393 715Q497 715 573 670.50Q649 626 690.50 545Q732 464 732 354Q732 243 690.50 161.50Q649 80 573 35Q497-10 393-10Q288-10 212.50 35Q137 80 96 161.50Q55 243 55 353M190 353Q190 234 241 167Q292 100 393 100Q491 100 544 167Q597 234 597 353Q597 473 544.50 539Q492 605 393 605Q292 605 241 539Q190 473 190 353M332-204L332-88L454-88L454-204L332-204M215 765L339 939L447 939L571 765L484 765L393 869L302 765L215 765Z"  horiz-adv-x="787" vert-adv-y="1000"  />

      
      <glyph glyph-name="uni1ED2" unicode="&#x1ED2;" d="M55 353Q55 464 95.50 545Q136 626 212 670.50Q288 715 393 715Q497 715 573 670.50Q649 626 690.50 545Q732 464 732 354Q732 243 690.50 161.50Q649 80 573 35Q497-10 393-10Q288-10 212.50 35Q137 80 96 161.50Q55 243 55 353M190 353Q190 234 241 167Q292 100 393 100Q491 100 544 167Q597 234 597 353Q597 473 544.50 539Q492 605 393 605Q292 605 241 539Q190 473 190 353M228 765L338 929L448 929L558 765L479 765L393 861L307 765L228 765M541 872L424 1022L529 1022L613 872L541 872Z"  horiz-adv-x="787" vert-adv-y="1000"  />

      
      <glyph glyph-name="uni1ED4" unicode="&#x1ED4;" d="M55 353Q55 464 95.50 545Q136 626 212 670.50Q288 715 393 715Q497 715 573 670.50Q649 626 690.50 545Q732 464 732 354Q732 243 690.50 161.50Q649 80 573 35Q497-10 393-10Q288-10 212.50 35Q137 80 96 161.50Q55 243 55 353M190 353Q190 234 241 167Q292 100 393 100Q491 100 544 167Q597 234 597 353Q597 473 544.50 539Q492 605 393 605Q292 605 241 539Q190 473 190 353M228 765L338 929L448 929L558 765L479 765L393 861L307 765L228 765M504 872Q504 890 511.50 901.50Q519 913 529 921.50Q539 930 546.50 937.50Q554 945 554 955Q554 965 544.50 968.50Q535 972 519 972Q505 972 490.50 969.50Q476 967 461 960L445 1007Q465 1016 488 1021Q511 1026 543 1026Q588 1026 612.50 1012Q637 998 637 975Q637 956 627.50 944Q618 932 605 922Q592 912 582.50 900.50Q573 889 573 872L504 872Z"  horiz-adv-x="787" vert-adv-y="1000"  />

      
      <glyph glyph-name="uni1ED6" unicode="&#x1ED6;" d="M55 353Q55 464 95.50 545Q136 626 212 670.50Q288 715 393 715Q497 715 573 670.50Q649 626 690.50 545Q732 464 732 354Q732 243 690.50 161.50Q649 80 573 35Q497-10 393-10Q288-10 212.50 35Q137 80 96 161.50Q55 243 55 353M190 353Q190 234 241 167Q292 100 393 100Q491 100 544 167Q597 234 597 353Q597 473 544.50 539Q492 605 393 605Q292 605 241 539Q190 473 190 353M228 765L338 899L448 899L558 765L481 765L393 837L305 765L228 765M279 921L221 924Q225 977 254 1004.50Q283 1032 327 1032Q347 1032 364.50 1025.50Q382 1019 403 1007Q424 995 435 991.50Q446 988 456 988Q479 988 491 998.50Q503 1009 507 1033L565 1029Q562 976 533 948.50Q504 921 460 921Q440 921 421 928.50Q402 936 379 949Q367 955 355 960.50Q343 966 330 966Q308 966 296 955Q284 944 279 921Z"  horiz-adv-x="787" vert-adv-y="1000"  />

      
      <glyph glyph-name="uni020C" unicode="&#x020C;" d="M55 353Q55 464 95.50 545Q136 626 212 670.50Q288 715 393 715Q497 715 573 670.50Q649 626 690.50 545Q732 464 732 354Q732 243 690.50 161.50Q649 80 573 35Q497-10 393-10Q288-10 212.50 35Q137 80 96 161.50Q55 243 55 353M190 353Q190 234 241 167Q292 100 393 100Q491 100 544 167Q597 234 597 353Q597 473 544.50 539Q492 605 393 605Q292 605 241 539Q190 473 190 353M431 765L304 939L417 939L502 765L431 765M284 765L148 939L260 939L355 765L284 765Z"  horiz-adv-x="787" vert-adv-y="1000"  />

      
      <glyph glyph-name="unid6" unicode="&#xd6;" d="M55 353Q55 464 95.50 545Q136 626 212 670.50Q288 715 393 715Q497 715 573 670.50Q649 626 690.50 545Q732 464 732 354Q732 243 690.50 161.50Q649 80 573 35Q497-10 393-10Q288-10 212.50 35Q137 80 96 161.50Q55 243 55 353M190 353Q190 234 241 167Q292 100 393 100Q491 100 544 167Q597 234 597 353Q597 473 544.50 539Q492 605 393 605Q292 605 241 539Q190 473 190 353M430 790L430 905L545 905L545 790L430 790M241 790L241 905L356 905L356 790L241 790Z"  horiz-adv-x="787" vert-adv-y="1000"  />

      
      <glyph glyph-name="uni022A" unicode="&#x022A;" d="M55 353Q55 464 95.50 545Q136 626 212 670.50Q288 715 393 715Q497 715 573 670.50Q649 626 690.50 545Q732 464 732 354Q732 243 690.50 161.50Q649 80 573 35Q497-10 393-10Q288-10 212.50 35Q137 80 96 161.50Q55 243 55 353M190 353Q190 234 241 167Q292 100 393 100Q491 100 544 167Q597 234 597 353Q597 473 544.50 539Q492 605 393 605Q292 605 241 539Q190 473 190 353M235 924L235 998L551 998L551 924L235 924M241 788L241 875L356 875L356 788L241 788M430 788L430 875L545 875L545 788L430 788Z"  horiz-adv-x="787" vert-adv-y="1000"  />

      
      <glyph glyph-name="uni0230" unicode="&#x0230;" d="M55 353Q55 464 95.50 545Q136 626 212 670.50Q288 715 393 715Q497 715 573 670.50Q649 626 690.50 545Q732 464 732 354Q732 243 690.50 161.50Q649 80 573 35Q497-10 393-10Q288-10 212.50 35Q137 80 96 161.50Q55 243 55 353M190 353Q190 234 241 167Q292 100 393 100Q491 100 544 167Q597 234 597 353Q597 473 544.50 539Q492 605 393 605Q292 605 241 539Q190 473 190 353M235 924L235 998L551 998L551 924L235 924M336 788L336 875L451 875L451 788L336 788Z"  horiz-adv-x="787" vert-adv-y="1000"  />

      
      <glyph glyph-name="uni1ECC" unicode="&#x1ECC;" d="M55 353Q55 464 95.50 545Q136 626 212 670.50Q288 715 393 715Q497 715 573 670.50Q649 626 690.50 545Q732 464 732 354Q732 243 690.50 161.50Q649 80 573 35Q497-10 393-10Q288-10 212.50 35Q137 80 96 161.50Q55 243 55 353M190 353Q190 234 241 167Q292 100 393 100Q491 100 544 167Q597 234 597 353Q597 473 544.50 539Q492 605 393 605Q292 605 241 539Q190 473 190 353M332-204L332-88L454-88L454-204L332-204Z"  horiz-adv-x="787" vert-adv-y="1000"  />

      
      <glyph glyph-name="unid2" unicode="&#xd2;" d="M55 353Q55 464 95.50 545Q136 626 212 670.50Q288 715 393 715Q497 715 573 670.50Q649 626 690.50 545Q732 464 732 354Q732 243 690.50 161.50Q649 80 573 35Q497-10 393-10Q288-10 212.50 35Q137 80 96 161.50Q55 243 55 353M190 353Q190 234 241 167Q292 100 393 100Q491 100 544 167Q597 234 597 353Q597 473 544.50 539Q492 605 393 605Q292 605 241 539Q190 473 190 353M348 765L189 939L319 939L438 765L348 765Z"  horiz-adv-x="787" vert-adv-y="1000"  />

      
      <glyph glyph-name="uni1ECE" unicode="&#x1ECE;" d="M55 353Q55 464 95.50 545Q136 626 212 670.50Q288 715 393 715Q497 715 573 670.50Q649 626 690.50 545Q732 464 732 354Q732 243 690.50 161.50Q649 80 573 35Q497-10 393-10Q288-10 212.50 35Q137 80 96 161.50Q55 243 55 353M190 353Q190 234 241 167Q292 100 393 100Q491 100 544 167Q597 234 597 353Q597 473 544.50 539Q492 605 393 605Q292 605 241 539Q190 473 190 353M354 765L354 783Q354 801 362.50 812Q371 823 382.50 831.50Q394 840 402.50 847.50Q411 855 411 865Q411 875 401 880Q391 885 371 885Q355 885 341 882Q327 879 310 872L291 925Q333 946 401 946Q450 946 478 929Q506 912 506 883Q506 861 495 848Q484 835 469 825.50Q454 816 443 805.50Q432 795 432 777L432 765L354 765Z"  horiz-adv-x="787" vert-adv-y="1000"  />

      
      <glyph glyph-name="uni01A0" unicode="&#x01A0;" d="M55 353Q55 464 95.50 545Q136 626 212 670.50Q288 715 393 715Q497 715 573 670.50Q649 626 690.50 545Q732 464 732 354Q732 243 690.50 161.50Q649 80 573 35Q497-10 393-10Q288-10 212.50 35Q137 80 96 161.50Q55 243 55 353M190 353Q190 234 241 167Q292 100 393 100Q491 100 544 167Q597 234 597 353Q597 473 544.50 539Q492 605 393 605Q292 605 241 539Q190 473 190 353M503 641L459 709Q482 708 498 706.50Q514 705 530 705Q566 705 587.50 714.50Q609 724 619 747.50Q629 771 629 811L629 832L737 832L737 795Q737 752 719 717Q701 682 669 661.50Q637 641 595 641L503 641Z"  horiz-adv-x="787" vert-adv-y="1000"  />

      
      <glyph glyph-name="uni1EDA" unicode="&#x1EDA;" d="M55 353Q55 464 95.50 545Q136 626 212 670.50Q288 715 393 715Q497 715 573 670.50Q649 626 690.50 545Q732 464 732 354Q732 243 690.50 161.50Q649 80 573 35Q497-10 393-10Q288-10 212.50 35Q137 80 96 161.50Q55 243 55 353M190 353Q190 234 241 167Q292 100 393 100Q491 100 544 167Q597 234 597 353Q597 473 544.50 539Q492 605 393 605Q292 605 241 539Q190 473 190 353M503 641L459 709Q482 708 498 706.50Q514 705 530 705Q566 705 587.50 714.50Q609 724 619 747.50Q629 771 629 811L629 832L737 832L737 795Q737 752 719 717Q701 682 669 661.50Q637 641 595 641L503 641M356 765L475 939L605 939L446 765L356 765Z"  horiz-adv-x="787" vert-adv-y="1000"  />

      
      <glyph glyph-name="uni1EE2" unicode="&#x1EE2;" d="M55 353Q55 464 95.50 545Q136 626 212 670.50Q288 715 393 715Q497 715 573 670.50Q649 626 690.50 545Q732 464 732 354Q732 243 690.50 161.50Q649 80 573 35Q497-10 393-10Q288-10 212.50 35Q137 80 96 161.50Q55 243 55 353M190 353Q190 234 241 167Q292 100 393 100Q491 100 544 167Q597 234 597 353Q597 473 544.50 539Q492 605 393 605Q292 605 241 539Q190 473 190 353M503 641L459 709Q482 708 498 706.50Q514 705 530 705Q566 705 587.50 714.50Q609 724 619 747.50Q629 771 629 811L629 832L737 832L737 795Q737 752 719 717Q701 682 669 661.50Q637 641 595 641L503 641M341-204L341-88L463-88L463-204L341-204Z"  horiz-adv-x="787" vert-adv-y="1000"  />

      
      <glyph glyph-name="uni1EDC" unicode="&#x1EDC;" d="M55 353Q55 464 95.50 545Q136 626 212 670.50Q288 715 393 715Q497 715 573 670.50Q649 626 690.50 545Q732 464 732 354Q732 243 690.50 161.50Q649 80 573 35Q497-10 393-10Q288-10 212.50 35Q137 80 96 161.50Q55 243 55 353M190 353Q190 234 241 167Q292 100 393 100Q491 100 544 167Q597 234 597 353Q597 473 544.50 539Q492 605 393 605Q292 605 241 539Q190 473 190 353M503 641L459 709Q482 708 498 706.50Q514 705 530 705Q566 705 587.50 714.50Q609 724 619 747.50Q629 771 629 811L629 832L737 832L737 795Q737 752 719 717Q701 682 669 661.50Q637 641 595 641L503 641M356 765L197 939L327 939L446 765L356 765Z"  horiz-adv-x="787" vert-adv-y="1000"  />

      
      <glyph glyph-name="uni1EDE" unicode="&#x1EDE;" d="M55 353Q55 464 95.50 545Q136 626 212 670.50Q288 715 393 715Q497 715 573 670.50Q649 626 690.50 545Q732 464 732 354Q732 243 690.50 161.50Q649 80 573 35Q497-10 393-10Q288-10 212.50 35Q137 80 96 161.50Q55 243 55 353M190 353Q190 234 241 167Q292 100 393 100Q491 100 544 167Q597 234 597 353Q597 473 544.50 539Q492 605 393 605Q292 605 241 539Q190 473 190 353M503 641L459 709Q482 708 498 706.50Q514 705 530 705Q566 705 587.50 714.50Q609 724 619 747.50Q629 771 629 811L629 832L737 832L737 795Q737 752 719 717Q701 682 669 661.50Q637 641 595 641L503 641M362 765L362 783Q362 801 370.50 812Q379 823 390.50 831.50Q402 840 410.50 847.50Q419 855 419 865Q419 875 409 880Q399 885 379 885Q363 885 349 882Q335 879 318 872L299 925Q341 946 409 946Q458 946 486 929Q514 912 514 883Q514 861 503 848Q492 835 477 825.50Q462 816 451 805.50Q440 795 440 777L440 765L362 765Z"  horiz-adv-x="787" vert-adv-y="1000"  />

      
      <glyph glyph-name="uni1EE0" unicode="&#x1EE0;" d="M55 353Q55 464 95.50 545Q136 626 212 670.50Q288 715 393 715Q497 715 573 670.50Q649 626 690.50 545Q732 464 732 354Q732 243 690.50 161.50Q649 80 573 35Q497-10 393-10Q288-10 212.50 35Q137 80 96 161.50Q55 243 55 353M190 353Q190 234 241 167Q292 100 393 100Q491 100 544 167Q597 234 597 353Q597 473 544.50 539Q492 605 393 605Q292 605 241 539Q190 473 190 353M503 641L459 709Q482 708 498 706.50Q514 705 530 705Q566 705 587.50 714.50Q609 724 619 747.50Q629 771 629 811L629 832L737 832L737 795Q737 752 719 717Q701 682 669 661.50Q637 641 595 641L503 641M250 772L188 776Q193 847 227 885.50Q261 924 313 924Q338 924 359 914.50Q380 905 402 888Q423 873 437.50 865.50Q452 858 467 858Q495 858 510.50 876Q526 894 532 928L594 924Q589 853 555 814.50Q521 776 469 776Q444 776 423.50 786Q403 796 378 813Q359 829 344 835.50Q329 842 315 842Q287 842 271.50 824.50Q256 807 250 772Z"  horiz-adv-x="787" vert-adv-y="1000"  />

      
      <glyph glyph-name="uni0150" unicode="&#x0150;" d="M55 353Q55 464 95.50 545Q136 626 212 670.50Q288 715 393 715Q497 715 573 670.50Q649 626 690.50 545Q732 464 732 354Q732 243 690.50 161.50Q649 80 573 35Q497-10 393-10Q288-10 212.50 35Q137 80 96 161.50Q55 243 55 353M190 353Q190 234 241 167Q292 100 393 100Q491 100 544 167Q597 234 597 353Q597 473 544.50 539Q492 605 393 605Q292 605 241 539Q190 473 190 353M284 765L369 939L482 939L355 765L284 765M431 765L526 939L638 939L502 765L431 765Z"  horiz-adv-x="787" vert-adv-y="1000"  />

      
      <glyph glyph-name="uni020E" unicode="&#x020E;" d="M55 353Q55 464 95.50 545Q136 626 212 670.50Q288 715 393 715Q497 715 573 670.50Q649 626 690.50 545Q732 464 732 354Q732 243 690.50 161.50Q649 80 573 35Q497-10 393-10Q288-10 212.50 35Q137 80 96 161.50Q55 243 55 353M190 353Q190 234 241 167Q292 100 393 100Q491 100 544 167Q597 234 597 353Q597 473 544.50 539Q492 605 393 605Q292 605 241 539Q190 473 190 353M281 760L210 769Q216 848 265.50 893.50Q315 939 393 939Q471 939 520.50 893.50Q570 848 576 769L505 760Q501 810 471 837.50Q441 865 392 865Q344 865 315 837.50Q286 810 281 760Z"  horiz-adv-x="787" vert-adv-y="1000"  />

      
      <glyph glyph-name="uni014C" unicode="&#x014C;" d="M55 353Q55 464 95.50 545Q136 626 212 670.50Q288 715 393 715Q497 715 573 670.50Q649 626 690.50 545Q732 464 732 354Q732 243 690.50 161.50Q649 80 573 35Q497-10 393-10Q288-10 212.50 35Q137 80 96 161.50Q55 243 55 353M190 353Q190 234 241 167Q292 100 393 100Q491 100 544 167Q597 234 597 353Q597 473 544.50 539Q492 605 393 605Q292 605 241 539Q190 473 190 353M220 806L220 880L566 880L566 806L220 806Z"  horiz-adv-x="787" vert-adv-y="1000"  />

      
      <glyph glyph-name="uni1E52" unicode="&#x1E52;" d="M55 353Q55 464 95.50 545Q136 626 212 670.50Q288 715 393 715Q497 715 573 670.50Q649 626 690.50 545Q732 464 732 354Q732 243 690.50 161.50Q649 80 573 35Q497-10 393-10Q288-10 212.50 35Q137 80 96 161.50Q55 243 55 353M190 353Q190 234 241 167Q292 100 393 100Q491 100 544 167Q597 234 597 353Q597 473 544.50 539Q492 605 393 605Q292 605 241 539Q190 473 190 353M235 783L235 857L551 857L551 783L235 783M354 894L427 1026L547 1026L432 894L354 894Z"  horiz-adv-x="787" vert-adv-y="1000"  />

      
      <glyph glyph-name="uni1E50" unicode="&#x1E50;" d="M55 353Q55 464 95.50 545Q136 626 212 670.50Q288 715 393 715Q497 715 573 670.50Q649 626 690.50 545Q732 464 732 354Q732 243 690.50 161.50Q649 80 573 35Q497-10 393-10Q288-10 212.50 35Q137 80 96 161.50Q55 243 55 353M190 353Q190 234 241 167Q292 100 393 100Q491 100 544 167Q597 234 597 353Q597 473 544.50 539Q492 605 393 605Q292 605 241 539Q190 473 190 353M354 894L239 1026L359 1026L432 894L354 894M235 783L235 857L551 857L551 783L235 783Z"  horiz-adv-x="787" vert-adv-y="1000"  />

      
      <glyph glyph-name="uni01EA" unicode="&#x01EA;" d="M55 353Q55 464 95.50 545Q136 626 212 670.50Q288 715 393 715Q497 715 573 670.50Q649 626 690.50 545Q732 464 732 354Q732 243 690.50 161.50Q649 80 573 35Q497-10 393-10Q288-10 212.50 35Q137 80 96 161.50Q55 243 55 353M190 353Q190 234 241 167Q292 100 393 100Q491 100 544 167Q597 234 597 353Q597 473 544.50 539Q492 605 393 605Q292 605 241 539Q190 473 190 353M438-195Q383-195 351.50-167Q320-139 320-91Q320-49 348-13Q376 23 422 42L460 0Q443-7 429-18.50Q415-30 407-45Q399-60 399-77Q399-102 415.50-115Q432-128 455-128Q470-128 483-125Q496-122 510-117L525-178Q506-187 485-191Q464-195 438-195Z"  horiz-adv-x="787" vert-adv-y="1000"  />

      
      <glyph glyph-name="unid8" unicode="&#xd8;" d="M55 353Q55 464 95.50 545Q136 626 212 670.50Q288 715 393 715Q497 715 573 670.50Q649 626 690.50 545Q732 464 732 354Q732 243 690.50 161.50Q649 80 573 35Q497-10 393-10Q288-10 212.50 35Q137 80 96 161.50Q55 243 55 353M190 353Q190 234 241 167Q292 100 393 100Q491 100 544 167Q597 234 597 353Q597 473 544.50 539Q492 605 393 605Q292 605 241 539Q190 473 190 353M277 49L214-60L131-11L194 98L235 152L499 603L520 657L583 765L666 716L603 607L562 554L298 102L277 49Z"  horiz-adv-x="787" vert-adv-y="1000"  />

      
      <glyph glyph-name="uni01FE" unicode="&#x01FE;" d="M55 353Q55 464 95.50 545Q136 626 212 670.50Q288 715 393 715Q497 715 573 670.50Q649 626 690.50 545Q732 464 732 354Q732 243 690.50 161.50Q649 80 573 35Q497-10 393-10Q288-10 212.50 35Q137 80 96 161.50Q55 243 55 353M190 353Q190 234 241 167Q292 100 393 100Q491 100 544 167Q597 234 597 353Q597 473 544.50 539Q492 605 393 605Q292 605 241 539Q190 473 190 353M277 49L214-60L131-11L194 98L235 152L499 603L520 657L583 765L666 716L603 607L562 554L298 102L277 49M348 765L467 939L597 939L438 765L348 765Z"  horiz-adv-x="787" vert-adv-y="1000"  />

      
      <glyph glyph-name="unid5" unicode="&#xd5;" d="M55 353Q55 464 95.50 545Q136 626 212 670.50Q288 715 393 715Q497 715 573 670.50Q649 626 690.50 545Q732 464 732 354Q732 243 690.50 161.50Q649 80 573 35Q497-10 393-10Q288-10 212.50 35Q137 80 96 161.50Q55 243 55 353M190 353Q190 234 241 167Q292 100 393 100Q491 100 544 167Q597 234 597 353Q597 473 544.50 539Q492 605 393 605Q292 605 241 539Q190 473 190 353M232 772L170 776Q175 847 212 885.50Q249 924 304 924Q327 924 351 915.50Q375 907 408 888Q437 872 454 865Q471 858 485 858Q514 858 531 876Q548 894 554 928L616 924Q611 853 574.50 814.50Q538 776 483 776Q459 776 434.50 785Q410 794 375 814Q348 830 332 836Q316 842 301 842Q272 842 255 824.50Q238 807 232 772Z"  horiz-adv-x="787" vert-adv-y="1000"  />

      
      <glyph glyph-name="uni1E4C" unicode="&#x1E4C;" d="M55 353Q55 464 95.50 545Q136 626 212 670.50Q288 715 393 715Q497 715 573 670.50Q649 626 690.50 545Q732 464 732 354Q732 243 690.50 161.50Q649 80 573 35Q497-10 393-10Q288-10 212.50 35Q137 80 96 161.50Q55 243 55 353M190 353Q190 234 241 167Q292 100 393 100Q491 100 544 167Q597 234 597 353Q597 473 544.50 539Q492 605 393 605Q292 605 241 539Q190 473 190 353M354 894L427 1026L547 1026L432 894L354 894M460 767Q441 767 422 773.50Q403 780 382 792Q363 804 351.50 807.50Q340 811 330 811Q308 811 296 800Q284 789 279 766L221 769Q225 823 254 850Q283 877 327 877Q344 877 360.50 872Q377 867 401 854Q421 842 433.50 837.50Q446 833 456 833Q479 833 491 844Q503 855 507 878L565 875Q561 821 532.50 794Q504 767 460 767Z"  horiz-adv-x="787" vert-adv-y="1000"  />

      
      <glyph glyph-name="uni1E4E" unicode="&#x1E4E;" d="M55 353Q55 464 95.50 545Q136 626 212 670.50Q288 715 393 715Q497 715 573 670.50Q649 626 690.50 545Q732 464 732 354Q732 243 690.50 161.50Q649 80 573 35Q497-10 393-10Q288-10 212.50 35Q137 80 96 161.50Q55 243 55 353M190 353Q190 234 241 167Q292 100 393 100Q491 100 544 167Q597 234 597 353Q597 473 544.50 539Q492 605 393 605Q292 605 241 539Q190 473 190 353M460 767Q441 767 422 773.50Q403 780 382 792Q363 804 351.50 807.50Q340 811 330 811Q308 811 296 800Q284 789 279 766L221 769Q225 823 254 850Q283 877 327 877Q344 877 360.50 872Q377 867 401 854Q421 842 433.50 837.50Q446 833 456 833Q479 833 491 844Q503 855 507 878L565 875Q561 821 532.50 794Q504 767 460 767M241 913L241 1001L356 1001L356 913L241 913M430 913L430 1001L545 1001L545 913L430 913Z"  horiz-adv-x="787" vert-adv-y="1000"  />

      
      <glyph glyph-name="uni022C" unicode="&#x022C;" d="M55 353Q55 464 95.50 545Q136 626 212 670.50Q288 715 393 715Q497 715 573 670.50Q649 626 690.50 545Q732 464 732 354Q732 243 690.50 161.50Q649 80 573 35Q497-10 393-10Q288-10 212.50 35Q137 80 96 161.50Q55 243 55 353M190 353Q190 234 241 167Q292 100 393 100Q491 100 544 167Q597 234 597 353Q597 473 544.50 539Q492 605 393 605Q292 605 241 539Q190 473 190 353M235 924L235 998L551 998L551 924L235 924M460 767Q441 767 422 773.50Q403 780 382 792Q363 804 351.50 807.50Q340 811 330 811Q308 811 296 800Q284 789 279 766L221 769Q225 823 254 850Q283 877 327 877Q344 877 360.50 872Q377 867 401 854Q421 842 433.50 837.50Q446 833 456 833Q479 833 491 844Q503 855 507 878L565 875Q561 821 532.50 794Q504 767 460 767Z"  horiz-adv-x="787" vert-adv-y="1000"  />

      
      <glyph glyph-name="uni0152" unicode="&#x0152;" d="M545 0L545 705L1013 705L1013 604L669 604L669 409L991 409L991 307L669 307L669 102L1013 102L1013 0L545 0M383-10Q281-10 207.50 35Q134 80 94.50 161.50Q55 243 55 353Q55 464 94 545Q133 626 206.50 670.50Q280 715 383 715Q432 715 478.50 703.50Q525 692 558 663L558 530Q533 569 491.50 587Q450 605 393 605Q292 605 241 539Q190 473 190 353Q190 234 241 167Q292 100 393 100Q451 100 493.50 119Q536 138 561 178L561 51Q540 31 511 17.50Q482 4 449-3Q416-10 383-10Z"  horiz-adv-x="1055" vert-adv-y="1000"  />

      
      <glyph glyph-name="uni50" unicode="&#x50;" d="M78 0L78 705L391 705Q507 705 568 649Q629 593 629 495Q629 398 568 341Q507 284 391 284L207 284L207 0L78 0M207 386L376 386Q440 386 472 414.50Q504 443 504 495Q504 547 472 575.50Q440 604 376 604L207 604L207 386Z"  horiz-adv-x="666" vert-adv-y="1000"  />

      
      <glyph glyph-name="unide" unicode="&#xde;" d="M78 0L78 705L207 705L207 582L387 582Q502 582 565.50 526Q629 470 629 372Q629 275 565.50 218Q502 161 387 161L207 161L207 0L78 0M207 263L377 263Q439 263 471.50 291.50Q504 320 504 372Q504 424 471.50 452.50Q439 481 377 481L207 481L207 263Z"  horiz-adv-x="667" vert-adv-y="1000"  />

      
      <glyph glyph-name="uni51" unicode="&#x51;" d="M582-192Q550-174 517.50-144.50Q485-115 457-78Q429-41 409-3L512 41Q537-11 580-53Q623-95 669-124L582-192M55 353Q55 464 95.50 545Q136 626 212 670.50Q288 715 393 715Q497 715 573 670.50Q649 626 690.50 545Q732 464 732 354Q732 243 690.50 161.50Q649 80 573 35Q497-10 393-10Q288-10 212.50 35Q137 80 96 161.50Q55 243 55 353M190 353Q190 234 241 167Q292 100 393 100Q491 100 544 167Q597 234 597 353Q597 473 544.50 539Q492 605 393 605Q292 605 241 539Q190 473 190 353Z"  horiz-adv-x="787" vert-adv-y="1000"  />

      
      <glyph glyph-name="uni52" unicode="&#x52;" d="M78 0L78 705L386 705Q502 705 565.50 650Q629 595 629 497Q629 432 600.50 386Q572 340 519 315.50Q466 291 394 291L408 310L442 310Q484 310 517 288Q550 266 571 221L674 0L532 0L428 229Q414 264 385.50 275Q357 286 317 286L207 286L207 0L78 0M207 381L365 381Q433 381 468.50 409.50Q504 438 504 493Q504 548 468.50 576Q433 604 365 604L207 604L207 381Z"  horiz-adv-x="702" vert-adv-y="1000"  />

      
      <glyph glyph-name="uni0154" unicode="&#x0154;" d="M78 0L78 705L386 705Q502 705 565.50 650Q629 595 629 497Q629 432 600.50 386Q572 340 519 315.50Q466 291 394 291L408 310L442 310Q484 310 517 288Q550 266 571 221L674 0L532 0L428 229Q414 264 385.50 275Q357 286 317 286L207 286L207 0L78 0M207 381L365 381Q433 381 468.50 409.50Q504 438 504 493Q504 548 468.50 576Q433 604 365 604L207 604L207 381M309 765L428 939L558 939L399 765L309 765Z"  horiz-adv-x="702" vert-adv-y="1000"  />

      
      <glyph glyph-name="uni0158" unicode="&#x0158;" d="M78 0L78 705L386 705Q502 705 565.50 650Q629 595 629 497Q629 432 600.50 386Q572 340 519 315.50Q466 291 394 291L408 310L442 310Q484 310 517 288Q550 266 571 221L674 0L532 0L428 229Q414 264 385.50 275Q357 286 317 286L207 286L207 0L78 0M207 381L365 381Q433 381 468.50 409.50Q504 438 504 493Q504 548 468.50 576Q433 604 365 604L207 604L207 381M300 765L176 939L263 939L354 835L445 939L532 939L408 765L300 765Z"  horiz-adv-x="702" vert-adv-y="1000"  />

      
      <glyph glyph-name="uni0156" unicode="&#x0156;" d="M78 0L78 705L386 705Q502 705 565.50 650Q629 595 629 497Q629 432 600.50 386Q572 340 519 315.50Q466 291 394 291L408 310L442 310Q484 310 517 288Q550 266 571 221L674 0L532 0L428 229Q414 264 385.50 275Q357 286 317 286L207 286L207 0L78 0M207 381L365 381Q433 381 468.50 409.50Q504 438 504 493Q504 548 468.50 576Q433 604 365 604L207 604L207 381M363-278L315-246Q338-224 345.50-203.50Q353-183 353-160L381-175L289-175L289-73L420-73L420-140Q420-181 407-215.50Q394-250 363-278Z"  horiz-adv-x="702" vert-adv-y="1000"  />

      
      <glyph glyph-name="uni0210" unicode="&#x0210;" d="M78 0L78 705L386 705Q502 705 565.50 650Q629 595 629 497Q629 432 600.50 386Q572 340 519 315.50Q466 291 394 291L408 310L442 310Q484 310 517 288Q550 266 571 221L674 0L532 0L428 229Q414 264 385.50 275Q357 286 317 286L207 286L207 0L78 0M207 381L365 381Q433 381 468.50 409.50Q504 438 504 493Q504 548 468.50 576Q433 604 365 604L207 604L207 381M392 765L265 939L378 939L463 765L392 765M245 765L109 939L221 939L316 765L245 765Z"  horiz-adv-x="702" vert-adv-y="1000"  />

      
      <glyph glyph-name="uni1E5A" unicode="&#x1E5A;" d="M78 0L78 705L386 705Q502 705 565.50 650Q629 595 629 497Q629 432 600.50 386Q572 340 519 315.50Q466 291 394 291L408 310L442 310Q484 310 517 288Q550 266 571 221L674 0L532 0L428 229Q414 264 385.50 275Q357 286 317 286L207 286L207 0L78 0M207 381L365 381Q433 381 468.50 409.50Q504 438 504 493Q504 548 468.50 576Q433 604 365 604L207 604L207 381M294-204L294-88L416-88L416-204L294-204Z"  horiz-adv-x="702" vert-adv-y="1000"  />

      
      <glyph glyph-name="uni0212" unicode="&#x0212;" d="M78 0L78 705L386 705Q502 705 565.50 650Q629 595 629 497Q629 432 600.50 386Q572 340 519 315.50Q466 291 394 291L408 310L442 310Q484 310 517 288Q550 266 571 221L674 0L532 0L428 229Q414 264 385.50 275Q357 286 317 286L207 286L207 0L78 0M207 381L365 381Q433 381 468.50 409.50Q504 438 504 493Q504 548 468.50 576Q433 604 365 604L207 604L207 381M242 760L171 769Q177 848 226.50 893.50Q276 939 354 939Q432 939 481.50 893.50Q531 848 537 769L466 760Q462 810 432 837.50Q402 865 353 865Q305 865 276 837.50Q247 810 242 760Z"  horiz-adv-x="702" vert-adv-y="1000"  />

      
      <glyph glyph-name="uni1E5E" unicode="&#x1E5E;" d="M78 0L78 705L386 705Q502 705 565.50 650Q629 595 629 497Q629 432 600.50 386Q572 340 519 315.50Q466 291 394 291L408 310L442 310Q484 310 517 288Q550 266 571 221L674 0L532 0L428 229Q414 264 385.50 275Q357 286 317 286L207 286L207 0L78 0M207 381L365 381Q433 381 468.50 409.50Q504 438 504 493Q504 548 468.50 576Q433 604 365 604L207 604L207 381M197-165L197-91L513-91L513-165L197-165Z"  horiz-adv-x="702" vert-adv-y="1000"  />

      
      <glyph glyph-name="uni53" unicode="&#x53;" d="M324-10Q239-10 167.50 11.50Q96 33 45 71L85 172Q119 148 156 131.50Q193 115 235 106.50Q277 98 324 98Q403 98 438 124Q473 150 473 192Q473 229 449 248.50Q425 268 363 281L250 304Q153 324 105 371Q57 418 57 497Q57 563 92 612Q127 661 190 688Q253 715 337 715Q412 715 476 693.50Q540 672 583 632L543 536Q500 572 449 589.50Q398 607 335 607Q264 607 224.50 579.50Q185 552 185 504Q185 467 209.50 445Q234 423 293 411L405 389Q505 369 553 323.50Q601 278 601 201Q601 138 567 90.50Q533 43 471 16.50Q409-10 324-10Z"  horiz-adv-x="645" vert-adv-y="1000"  />

      
      <glyph glyph-name="uni015A" unicode="&#x015A;" d="M324-10Q239-10 167.50 11.50Q96 33 45 71L85 172Q119 148 156 131.50Q193 115 235 106.50Q277 98 324 98Q403 98 438 124Q473 150 473 192Q473 229 449 248.50Q425 268 363 281L250 304Q153 324 105 371Q57 418 57 497Q57 563 92 612Q127 661 190 688Q253 715 337 715Q412 715 476 693.50Q540 672 583 632L543 536Q500 572 449 589.50Q398 607 335 607Q264 607 224.50 579.50Q185 552 185 504Q185 467 209.50 445Q234 423 293 411L405 389Q505 369 553 323.50Q601 278 601 201Q601 138 567 90.50Q533 43 471 16.50Q409-10 324-10M286 765L405 939L535 939L376 765L286 765Z"  horiz-adv-x="645" vert-adv-y="1000"  />

      
      <glyph glyph-name="uni1E64" unicode="&#x1E64;" d="M324-10Q239-10 167.50 11.50Q96 33 45 71L85 172Q119 148 156 131.50Q193 115 235 106.50Q277 98 324 98Q403 98 438 124Q473 150 473 192Q473 229 449 248.50Q425 268 363 281L250 304Q153 324 105 371Q57 418 57 497Q57 563 92 612Q127 661 190 688Q253 715 337 715Q412 715 476 693.50Q540 672 583 632L543 536Q500 572 449 589.50Q398 607 335 607Q264 607 224.50 579.50Q185 552 185 504Q185 467 209.50 445Q234 423 293 411L405 389Q505 369 553 323.50Q601 278 601 201Q601 138 567 90.50Q533 43 471 16.50Q409-10 324-10M216 933L216 1021L331 1021L331 933L216 933M286 765L405 939L535 939L376 765L286 765Z"  horiz-adv-x="645" vert-adv-y="1000"  />

      
      <glyph glyph-name="uni0160" unicode="&#x0160;" d="M324-10Q239-10 167.50 11.50Q96 33 45 71L85 172Q119 148 156 131.50Q193 115 235 106.50Q277 98 324 98Q403 98 438 124Q473 150 473 192Q473 229 449 248.50Q425 268 363 281L250 304Q153 324 105 371Q57 418 57 497Q57 563 92 612Q127 661 190 688Q253 715 337 715Q412 715 476 693.50Q540 672 583 632L543 536Q500 572 449 589.50Q398 607 335 607Q264 607 224.50 579.50Q185 552 185 504Q185 467 209.50 445Q234 423 293 411L405 389Q505 369 553 323.50Q601 278 601 201Q601 138 567 90.50Q533 43 471 16.50Q409-10 324-10M277 765L153 939L240 939L331 835L422 939L509 939L385 765L277 765Z"  horiz-adv-x="645" vert-adv-y="1000"  />

      
      <glyph glyph-name="uni1E66" unicode="&#x1E66;" d="M324-10Q239-10 167.50 11.50Q96 33 45 71L85 172Q119 148 156 131.50Q193 115 235 106.50Q277 98 324 98Q403 98 438 124Q473 150 473 192Q473 229 449 248.50Q425 268 363 281L250 304Q153 324 105 371Q57 418 57 497Q57 563 92 612Q127 661 190 688Q253 715 337 715Q412 715 476 693.50Q540 672 583 632L543 536Q500 572 449 589.50Q398 607 335 607Q264 607 224.50 579.50Q185 552 185 504Q185 467 209.50 445Q234 423 293 411L405 389Q505 369 553 323.50Q601 278 601 201Q601 138 567 90.50Q533 43 471 16.50Q409-10 324-10M276 765L166 924L245 924L331 834L417 924L496 924L386 765L276 765M274 963L274 1051L389 1051L389 963L274 963Z"  horiz-adv-x="645" vert-adv-y="1000"  />

      
      <glyph glyph-name="uni015E" unicode="&#x015E;" d="M324-10Q239-10 167.50 11.50Q96 33 45 71L85 172Q119 148 156 131.50Q193 115 235 106.50Q277 98 324 98Q403 98 438 124Q473 150 473 192Q473 229 449 248.50Q425 268 363 281L250 304Q153 324 105 371Q57 418 57 497Q57 563 92 612Q127 661 190 688Q253 715 337 715Q412 715 476 693.50Q540 672 583 632L543 536Q500 572 449 589.50Q398 607 335 607Q264 607 224.50 579.50Q185 552 185 504Q185 467 209.50 445Q234 423 293 411L405 389Q505 369 553 323.50Q601 278 601 201Q601 138 567 90.50Q533 43 471 16.50Q409-10 324-10M331-195Q301-195 274.50-189.50Q248-184 228-174L246-118Q264-126 282-130.50Q300-135 320-135Q347-135 361-127.50Q375-120 375-105Q375-82 338-82Q328-82 318.50-83Q309-84 296-88L277-70L291 20L358 20L345-56L313-45Q324-41 336.50-39Q349-37 359-37Q400-37 425-56Q450-75 450-109Q450-148 417-171.50Q384-195 331-195Z"  horiz-adv-x="645" vert-adv-y="1000"  />

      
      <glyph glyph-name="uni015C" unicode="&#x015C;" d="M324-10Q239-10 167.50 11.50Q96 33 45 71L85 172Q119 148 156 131.50Q193 115 235 106.50Q277 98 324 98Q403 98 438 124Q473 150 473 192Q473 229 449 248.50Q425 268 363 281L250 304Q153 324 105 371Q57 418 57 497Q57 563 92 612Q127 661 190 688Q253 715 337 715Q412 715 476 693.50Q540 672 583 632L543 536Q500 572 449 589.50Q398 607 335 607Q264 607 224.50 579.50Q185 552 185 504Q185 467 209.50 445Q234 423 293 411L405 389Q505 369 553 323.50Q601 278 601 201Q601 138 567 90.50Q533 43 471 16.50Q409-10 324-10M153 765L277 939L385 939L509 765L422 765L331 869L240 765L153 765Z"  horiz-adv-x="645" vert-adv-y="1000"  />

      
      <glyph glyph-name="uni0218" unicode="&#x0218;" d="M324-10Q239-10 167.50 11.50Q96 33 45 71L85 172Q119 148 156 131.50Q193 115 235 106.50Q277 98 324 98Q403 98 438 124Q473 150 473 192Q473 229 449 248.50Q425 268 363 281L250 304Q153 324 105 371Q57 418 57 497Q57 563 92 612Q127 661 190 688Q253 715 337 715Q412 715 476 693.50Q540 672 583 632L543 536Q500 572 449 589.50Q398 607 335 607Q264 607 224.50 579.50Q185 552 185 504Q185 467 209.50 445Q234 423 293 411L405 389Q505 369 553 323.50Q601 278 601 201Q601 138 567 90.50Q533 43 471 16.50Q409-10 324-10M338-278L290-246Q313-224 320.50-203.50Q328-183 328-160L356-175L264-175L264-73L395-73L395-140Q395-181 382-215.50Q369-250 338-278Z"  horiz-adv-x="645" vert-adv-y="1000"  />

      
      <glyph glyph-name="uni1E60" unicode="&#x1E60;" d="M324-10Q239-10 167.50 11.50Q96 33 45 71L85 172Q119 148 156 131.50Q193 115 235 106.50Q277 98 324 98Q403 98 438 124Q473 150 473 192Q473 229 449 248.50Q425 268 363 281L250 304Q153 324 105 371Q57 418 57 497Q57 563 92 612Q127 661 190 688Q253 715 337 715Q412 715 476 693.50Q540 672 583 632L543 536Q500 572 449 589.50Q398 607 335 607Q264 607 224.50 579.50Q185 552 185 504Q185 467 209.50 445Q234 423 293 411L405 389Q505 369 553 323.50Q601 278 601 201Q601 138 567 90.50Q533 43 471 16.50Q409-10 324-10M270 794L270 910L392 910L392 794L270 794Z"  horiz-adv-x="645" vert-adv-y="1000"  />

      
      <glyph glyph-name="uni1E62" unicode="&#x1E62;" d="M324-10Q239-10 167.50 11.50Q96 33 45 71L85 172Q119 148 156 131.50Q193 115 235 106.50Q277 98 324 98Q403 98 438 124Q473 150 473 192Q473 229 449 248.50Q425 268 363 281L250 304Q153 324 105 371Q57 418 57 497Q57 563 92 612Q127 661 190 688Q253 715 337 715Q412 715 476 693.50Q540 672 583 632L543 536Q500 572 449 589.50Q398 607 335 607Q264 607 224.50 579.50Q185 552 185 504Q185 467 209.50 445Q234 423 293 411L405 389Q505 369 553 323.50Q601 278 601 201Q601 138 567 90.50Q533 43 471 16.50Q409-10 324-10M269-204L269-88L391-88L391-204L269-204Z"  horiz-adv-x="645" vert-adv-y="1000"  />

      
      <glyph glyph-name="uni1E68" unicode="&#x1E68;" d="M324-10Q239-10 167.50 11.50Q96 33 45 71L85 172Q119 148 156 131.50Q193 115 235 106.50Q277 98 324 98Q403 98 438 124Q473 150 473 192Q473 229 449 248.50Q425 268 363 281L250 304Q153 324 105 371Q57 418 57 497Q57 563 92 612Q127 661 190 688Q253 715 337 715Q412 715 476 693.50Q540 672 583 632L543 536Q500 572 449 589.50Q398 607 335 607Q264 607 224.50 579.50Q185 552 185 504Q185 467 209.50 445Q234 423 293 411L405 389Q505 369 553 323.50Q601 278 601 201Q601 138 567 90.50Q533 43 471 16.50Q409-10 324-10M269-204L269-88L391-88L391-204L269-204M270 794L270 910L392 910L392 794L270 794Z"  horiz-adv-x="645" vert-adv-y="1000"  />

      
      <glyph glyph-name="uni1E9E" unicode="&#x1E9E;" d="M429-10Q378-10 334.50 2.50Q291 15 250 45L290 138Q321 113 350 103Q379 93 417 93Q476 93 508 121.50Q540 150 540 199Q540 251 504 277Q468 303 392 303L289 303L289 403L371 403Q433 403 467 430Q501 457 501 507Q501 558 467.50 584.50Q434 611 366 611Q275 611 238.50 571Q202 531 202 449L202 0L78 0L78 450Q78 581 151.50 648Q225 715 376 715Q498 715 561.50 664.50Q625 614 625 525Q625 463 590.50 417Q556 371 494 354L494 371Q571 363 617.50 315Q664 267 664 190Q664 96 602 43Q540-10 429-10Z"  horiz-adv-x="709" vert-adv-y="1000"  />

      
      <glyph glyph-name="uni018F" unicode="&#x018F;" d="M383-10Q268-10 195.50 36.50Q123 83 89 166Q55 249 55 359L55 404L607 404L607 304L152 304L184 353Q184 268 202.50 211Q221 154 264 125Q307 96 378 96Q475 96 528 161.50Q581 227 581 354Q581 476 523.50 540.50Q466 605 346 605Q302 605 265.50 597.50Q229 590 196.50 574Q164 558 130 533L85 631Q137 672 203.50 693.50Q270 715 361 715Q472 715 550.50 671.50Q629 628 670 547Q711 466 711 353Q711 242 670.50 160.50Q630 79 556 34.50Q482-10 383-10Z"  horiz-adv-x="766" vert-adv-y="1000"  />

      
      <glyph glyph-name="uni54" unicode="&#x54;" d="M244 0L244 599L11 599L11 705L606 705L606 599L373 599L373 0L244 0Z"  horiz-adv-x="619" vert-adv-y="1000"  />

      
      <glyph glyph-name="uni0166" unicode="&#x0166;" d="M244 0L244 599L11 599L11 705L606 705L606 599L373 599L373 0L244 0M107 310L107 404L512 404L512 310L107 310Z"  horiz-adv-x="619" vert-adv-y="1000"  />

      
      <glyph glyph-name="uni0164" unicode="&#x0164;" d="M244 0L244 599L11 599L11 705L606 705L606 599L373 599L373 0L244 0M256 765L132 939L219 939L310 835L401 939L488 939L364 765L256 765Z"  horiz-adv-x="619" vert-adv-y="1000"  />

      
      <glyph glyph-name="uni0162" unicode="&#x0162;" d="M244 0L244 599L11 599L11 705L606 705L606 599L373 599L373 0L244 0M311-195Q281-195 254.50-189.50Q228-184 208-174L226-118Q244-126 262-130.50Q280-135 300-135Q327-135 341-127.50Q355-120 355-105Q355-82 318-82Q308-82 298.50-83Q289-84 276-88L257-70L271 20L338 20L325-56L293-45Q304-41 316.50-39Q329-37 339-37Q380-37 405-56Q430-75 430-109Q430-148 397-171.50Q364-195 311-195Z"  horiz-adv-x="619" vert-adv-y="1000"  />

      
      <glyph glyph-name="uni021A" unicode="&#x021A;" d="M244 0L244 599L11 599L11 705L606 705L606 599L373 599L373 0L244 0M318-278L270-246Q293-224 300.50-203.50Q308-183 308-160L336-175L244-175L244-73L375-73L375-140Q375-181 362-215.50Q349-250 318-278Z"  horiz-adv-x="619" vert-adv-y="1000"  />

      
      <glyph glyph-name="uni1E6C" unicode="&#x1E6C;" d="M244 0L244 599L11 599L11 705L606 705L606 599L373 599L373 0L244 0M249-204L249-88L371-88L371-204L249-204Z"  horiz-adv-x="619" vert-adv-y="1000"  />

      
      <glyph glyph-name="uni1E6E" unicode="&#x1E6E;" d="M244 0L244 599L11 599L11 705L606 705L606 599L373 599L373 0L244 0M152-165L152-91L468-91L468-165L152-165Z"  horiz-adv-x="619" vert-adv-y="1000"  />

      
      <glyph glyph-name="uni55" unicode="&#x55;" d="M372-10Q221-10 147.50 65.50Q74 141 74 289L74 705L203 705L203 290Q203 196 243.50 148Q284 100 372 100Q456 100 498.50 148Q541 196 541 290L541 705L668 705L668 289Q668 141 593.50 65.50Q519-10 372-10Z"  horiz-adv-x="740" vert-adv-y="1000"  />

      
      <glyph glyph-name="unida" unicode="&#xda;" d="M372-10Q221-10 147.50 65.50Q74 141 74 289L74 705L203 705L203 290Q203 196 243.50 148Q284 100 372 100Q456 100 498.50 148Q541 196 541 290L541 705L668 705L668 289Q668 141 593.50 65.50Q519-10 372-10M327 765L446 939L576 939L417 765L327 765Z"  horiz-adv-x="740" vert-adv-y="1000"  />

      
      <glyph glyph-name="uni016C" unicode="&#x016C;" d="M372-10Q221-10 147.50 65.50Q74 141 74 289L74 705L203 705L203 290Q203 196 243.50 148Q284 100 372 100Q456 100 498.50 148Q541 196 541 290L541 705L668 705L668 289Q668 141 593.50 65.50Q519-10 372-10M372 760Q294 760 244.50 806Q195 852 189 930L260 939Q265 890 294 862.50Q323 835 371 835Q420 835 450 862.50Q480 890 484 939L555 930Q549 852 499.50 806Q450 760 372 760Z"  horiz-adv-x="740" vert-adv-y="1000"  />

      
      <glyph glyph-name="unidb" unicode="&#xdb;" d="M372-10Q221-10 147.50 65.50Q74 141 74 289L74 705L203 705L203 290Q203 196 243.50 148Q284 100 372 100Q456 100 498.50 148Q541 196 541 290L541 705L668 705L668 289Q668 141 593.50 65.50Q519-10 372-10M194 765L318 939L426 939L550 765L463 765L372 869L281 765L194 765Z"  horiz-adv-x="740" vert-adv-y="1000"  />

      
      <glyph glyph-name="uni0214" unicode="&#x0214;" d="M372-10Q221-10 147.50 65.50Q74 141 74 289L74 705L203 705L203 290Q203 196 243.50 148Q284 100 372 100Q456 100 498.50 148Q541 196 541 290L541 705L668 705L668 289Q668 141 593.50 65.50Q519-10 372-10M410 765L283 939L396 939L481 765L410 765M263 765L127 939L239 939L334 765L263 765Z"  horiz-adv-x="740" vert-adv-y="1000"  />

      
      <glyph glyph-name="unidc" unicode="&#xdc;" d="M372-10Q221-10 147.50 65.50Q74 141 74 289L74 705L203 705L203 290Q203 196 243.50 148Q284 100 372 100Q456 100 498.50 148Q541 196 541 290L541 705L668 705L668 289Q668 141 593.50 65.50Q519-10 372-10M409 790L409 905L524 905L524 790L409 790M220 790L220 905L335 905L335 790L220 790Z"  horiz-adv-x="740" vert-adv-y="1000"  />

      
      <glyph glyph-name="uni1EE4" unicode="&#x1EE4;" d="M372-10Q221-10 147.50 65.50Q74 141 74 289L74 705L203 705L203 290Q203 196 243.50 148Q284 100 372 100Q456 100 498.50 148Q541 196 541 290L541 705L668 705L668 289Q668 141 593.50 65.50Q519-10 372-10M311-204L311-88L433-88L433-204L311-204Z"  horiz-adv-x="740" vert-adv-y="1000"  />

      
      <glyph glyph-name="unid9" unicode="&#xd9;" d="M372-10Q221-10 147.50 65.50Q74 141 74 289L74 705L203 705L203 290Q203 196 243.50 148Q284 100 372 100Q456 100 498.50 148Q541 196 541 290L541 705L668 705L668 289Q668 141 593.50 65.50Q519-10 372-10M327 765L168 939L298 939L417 765L327 765Z"  horiz-adv-x="740" vert-adv-y="1000"  />

      
      <glyph glyph-name="uni1EE6" unicode="&#x1EE6;" d="M372-10Q221-10 147.50 65.50Q74 141 74 289L74 705L203 705L203 290Q203 196 243.50 148Q284 100 372 100Q456 100 498.50 148Q541 196 541 290L541 705L668 705L668 289Q668 141 593.50 65.50Q519-10 372-10M333 765L333 783Q333 801 341.50 812Q350 823 361.50 831.50Q373 840 381.50 847.50Q390 855 390 865Q390 875 380 880Q370 885 350 885Q334 885 320 882Q306 879 289 872L270 925Q312 946 380 946Q429 946 457 929Q485 912 485 883Q485 861 474 848Q463 835 448 825.50Q433 816 422 805.50Q411 795 411 777L411 765L333 765Z"  horiz-adv-x="740" vert-adv-y="1000"  />

      
      <glyph glyph-name="uni01AF" unicode="&#x01AF;" d="M372-10Q221-10 147.50 65.50Q74 141 74 289L74 705L203 705L203 290Q203 196 243.50 148Q284 100 372 100Q456 100 498.50 148Q541 196 541 290L541 705L668 705L668 289Q668 141 593.50 65.50Q519-10 372-10M657 641L586 686L586 705Q622 706 643.50 715.50Q665 725 674.50 748Q684 771 684 811L684 832L793 832L793 795Q793 752 776.50 719Q760 686 729.50 665.50Q699 645 657 641Z"  horiz-adv-x="740" vert-adv-y="1000"  />

      
      <glyph glyph-name="uni1EE8" unicode="&#x1EE8;" d="M372-10Q221-10 147.50 65.50Q74 141 74 289L74 705L203 705L203 290Q203 196 243.50 148Q284 100 372 100Q456 100 498.50 148Q541 196 541 290L541 705L668 705L668 289Q668 141 593.50 65.50Q519-10 372-10M657 641L586 686L586 705Q622 706 643.50 715.50Q665 725 674.50 748Q684 771 684 811L684 832L793 832L793 795Q793 752 776.50 719Q760 686 729.50 665.50Q699 645 657 641M336 765L455 939L585 939L426 765L336 765Z"  horiz-adv-x="740" vert-adv-y="1000"  />

      
      <glyph glyph-name="uni1EF0" unicode="&#x1EF0;" d="M372-10Q221-10 147.50 65.50Q74 141 74 289L74 705L203 705L203 290Q203 196 243.50 148Q284 100 372 100Q456 100 498.50 148Q541 196 541 290L541 705L668 705L668 289Q668 141 593.50 65.50Q519-10 372-10M657 641L586 686L586 705Q622 706 643.50 715.50Q665 725 674.50 748Q684 771 684 811L684 832L793 832L793 795Q793 752 776.50 719Q760 686 729.50 665.50Q699 645 657 641M320-204L320-88L442-88L442-204L320-204Z"  horiz-adv-x="740" vert-adv-y="1000"  />

      
      <glyph glyph-name="uni1EEA" unicode="&#x1EEA;" d="M372-10Q221-10 147.50 65.50Q74 141 74 289L74 705L203 705L203 290Q203 196 243.50 148Q284 100 372 100Q456 100 498.50 148Q541 196 541 290L541 705L668 705L668 289Q668 141 593.50 65.50Q519-10 372-10M657 641L586 686L586 705Q622 706 643.50 715.50Q665 725 674.50 748Q684 771 684 811L684 832L793 832L793 795Q793 752 776.50 719Q760 686 729.50 665.50Q699 645 657 641M336 765L177 939L307 939L426 765L336 765Z"  horiz-adv-x="740" vert-adv-y="1000"  />

      
      <glyph glyph-name="uni1EEC" unicode="&#x1EEC;" d="M372-10Q221-10 147.50 65.50Q74 141 74 289L74 705L203 705L203 290Q203 196 243.50 148Q284 100 372 100Q456 100 498.50 148Q541 196 541 290L541 705L668 705L668 289Q668 141 593.50 65.50Q519-10 372-10M657 641L586 686L586 705Q622 706 643.50 715.50Q665 725 674.50 748Q684 771 684 811L684 832L793 832L793 795Q793 752 776.50 719Q760 686 729.50 665.50Q699 645 657 641M342 765L342 783Q342 801 350.50 812Q359 823 370.50 831.50Q382 840 390.50 847.50Q399 855 399 865Q399 875 389 880Q379 885 359 885Q343 885 329 882Q315 879 298 872L279 925Q321 946 389 946Q438 946 466 929Q494 912 494 883Q494 861 483 848Q472 835 457 825.50Q442 816 431 805.50Q420 795 420 777L420 765L342 765Z"  horiz-adv-x="740" vert-adv-y="1000"  />

      
      <glyph glyph-name="uni1EEE" unicode="&#x1EEE;" d="M372-10Q221-10 147.50 65.50Q74 141 74 289L74 705L203 705L203 290Q203 196 243.50 148Q284 100 372 100Q456 100 498.50 148Q541 196 541 290L541 705L668 705L668 289Q668 141 593.50 65.50Q519-10 372-10M657 641L586 686L586 705Q622 706 643.50 715.50Q665 725 674.50 748Q684 771 684 811L684 832L793 832L793 795Q793 752 776.50 719Q760 686 729.50 665.50Q699 645 657 641M230 772L168 776Q173 847 207 885.50Q241 924 293 924Q318 924 339 914.50Q360 905 382 888Q403 873 417.50 865.50Q432 858 447 858Q475 858 490.50 876Q506 894 512 928L574 924Q569 853 535 814.50Q501 776 449 776Q424 776 403.50 786Q383 796 358 813Q339 829 324 835.50Q309 842 295 842Q267 842 251.50 824.50Q236 807 230 772Z"  horiz-adv-x="740" vert-adv-y="1000"  />

      
      <glyph glyph-name="uni0170" unicode="&#x0170;" d="M372-10Q221-10 147.50 65.50Q74 141 74 289L74 705L203 705L203 290Q203 196 243.50 148Q284 100 372 100Q456 100 498.50 148Q541 196 541 290L541 705L668 705L668 289Q668 141 593.50 65.50Q519-10 372-10M263 765L348 939L461 939L334 765L263 765M410 765L505 939L617 939L481 765L410 765Z"  horiz-adv-x="740" vert-adv-y="1000"  />

      
      <glyph glyph-name="uni0216" unicode="&#x0216;" d="M372-10Q221-10 147.50 65.50Q74 141 74 289L74 705L203 705L203 290Q203 196 243.50 148Q284 100 372 100Q456 100 498.50 148Q541 196 541 290L541 705L668 705L668 289Q668 141 593.50 65.50Q519-10 372-10M260 760L189 769Q195 848 244.50 893.50Q294 939 372 939Q450 939 499.50 893.50Q549 848 555 769L484 760Q480 810 450 837.50Q420 865 371 865Q323 865 294 837.50Q265 810 260 760Z"  horiz-adv-x="740" vert-adv-y="1000"  />

      
      <glyph glyph-name="uni016A" unicode="&#x016A;" d="M372-10Q221-10 147.50 65.50Q74 141 74 289L74 705L203 705L203 290Q203 196 243.50 148Q284 100 372 100Q456 100 498.50 148Q541 196 541 290L541 705L668 705L668 289Q668 141 593.50 65.50Q519-10 372-10M199 806L199 880L545 880L545 806L199 806Z"  horiz-adv-x="740" vert-adv-y="1000"  />

      
      <glyph glyph-name="uni1E7A" unicode="&#x1E7A;" d="M372-10Q221-10 147.50 65.50Q74 141 74 289L74 705L203 705L203 290Q203 196 243.50 148Q284 100 372 100Q456 100 498.50 148Q541 196 541 290L541 705L668 705L668 289Q668 141 593.50 65.50Q519-10 372-10M214 788L214 862L530 862L530 788L214 788M220 911L220 998L335 998L335 911L220 911M409 911L409 998L524 998L524 911L409 911Z"  horiz-adv-x="740" vert-adv-y="1000"  />

      
      <glyph glyph-name="uni0172" unicode="&#x0172;" d="M372-10Q221-10 147.50 65.50Q74 141 74 289L74 705L203 705L203 290Q203 196 243.50 148Q284 100 372 100Q456 100 498.50 148Q541 196 541 290L541 705L668 705L668 289Q668 141 593.50 65.50Q519-10 372-10M439-195Q384-195 352.50-167Q321-139 321-91Q321-49 349-13Q377 23 423 42L461 0Q444-7 430-18.50Q416-30 408-45Q400-60 400-77Q400-102 416.50-115Q433-128 456-128Q471-128 484-125Q497-122 511-117L526-178Q507-187 486-191Q465-195 439-195Z"  horiz-adv-x="740" vert-adv-y="1000"  />

      
      <glyph glyph-name="uni016E" unicode="&#x016E;" d="M372-10Q221-10 147.50 65.50Q74 141 74 289L74 705L203 705L203 290Q203 196 243.50 148Q284 100 372 100Q456 100 498.50 148Q541 196 541 290L541 705L668 705L668 289Q668 141 593.50 65.50Q519-10 372-10M372 755Q337 755 308 771.50Q279 788 262.50 816Q246 844 246 878Q246 913 262.50 940.50Q279 968 308 984Q337 1000 372 1000Q408 1000 436.50 984Q465 968 481.50 940.50Q498 913 498 878Q498 844 481.50 816Q465 788 436.50 771.50Q408 755 372 755M372 812Q401 812 419 831Q437 850 437 878Q437 906 419 924.50Q401 943 372 943Q344 943 325.50 924.50Q307 906 307 878Q307 850 325.50 831Q344 812 372 812Z"  horiz-adv-x="740" vert-adv-y="1000"  />

      
      <glyph glyph-name="uni0168" unicode="&#x0168;" d="M372-10Q221-10 147.50 65.50Q74 141 74 289L74 705L203 705L203 290Q203 196 243.50 148Q284 100 372 100Q456 100 498.50 148Q541 196 541 290L541 705L668 705L668 289Q668 141 593.50 65.50Q519-10 372-10M211 772L149 776Q154 847 191 885.50Q228 924 283 924Q306 924 330 915.50Q354 907 387 888Q416 872 433 865Q450 858 464 858Q493 858 510 876Q527 894 533 928L595 924Q590 853 553.50 814.50Q517 776 462 776Q438 776 413.50 785Q389 794 354 814Q327 830 311 836Q295 842 280 842Q251 842 234 824.50Q217 807 211 772Z"  horiz-adv-x="740" vert-adv-y="1000"  />

      
      <glyph glyph-name="uni1E78" unicode="&#x1E78;" d="M372-10Q221-10 147.50 65.50Q74 141 74 289L74 705L203 705L203 290Q203 196 243.50 148Q284 100 372 100Q456 100 498.50 148Q541 196 541 290L541 705L668 705L668 289Q668 141 593.50 65.50Q519-10 372-10M333 894L406 1026L526 1026L411 894L333 894M439 767Q420 767 401 773.50Q382 780 361 792Q342 804 330.50 807.50Q319 811 309 811Q287 811 275 800Q263 789 258 766L200 769Q204 823 233 850Q262 877 306 877Q323 877 339.50 872Q356 867 380 854Q400 842 412.50 837.50Q425 833 435 833Q458 833 470 844Q482 855 486 878L544 875Q540 821 511.50 794Q483 767 439 767Z"  horiz-adv-x="740" vert-adv-y="1000"  />

      
      <glyph glyph-name="uni56" unicode="&#x56;" d="M306 0L-8 705L131 705L384 113L342 113L595 705L729 705L415 0L306 0Z"  horiz-adv-x="721" vert-adv-y="1000"  />

      
      <glyph glyph-name="uni57" unicode="&#x57;" d="M274 0L25 705L159 705L351 127L311 127L518 705L614 705L806 127L769 127L970 705L1096 705L845 0L738 0L552 542L574 542L381 0L274 0Z"  horiz-adv-x="1121" vert-adv-y="1000"  />

      
      <glyph glyph-name="uni1E82" unicode="&#x1E82;" d="M274 0L25 705L159 705L351 127L311 127L518 705L614 705L806 127L769 127L970 705L1096 705L845 0L738 0L552 542L574 542L381 0L274 0M516 765L635 939L765 939L606 765L516 765Z"  horiz-adv-x="1121" vert-adv-y="1000"  />

      
      <glyph glyph-name="uni0174" unicode="&#x0174;" d="M274 0L25 705L159 705L351 127L311 127L518 705L614 705L806 127L769 127L970 705L1096 705L845 0L738 0L552 542L574 542L381 0L274 0M383 765L507 939L615 939L739 765L652 765L561 869L470 765L383 765Z"  horiz-adv-x="1121" vert-adv-y="1000"  />

      
      <glyph glyph-name="uni1E84" unicode="&#x1E84;" d="M274 0L25 705L159 705L351 127L311 127L518 705L614 705L806 127L769 127L970 705L1096 705L845 0L738 0L552 542L574 542L381 0L274 0M598 790L598 905L713 905L713 790L598 790M409 790L409 905L524 905L524 790L409 790Z"  horiz-adv-x="1121" vert-adv-y="1000"  />

      
      <glyph glyph-name="uni1E80" unicode="&#x1E80;" d="M274 0L25 705L159 705L351 127L311 127L518 705L614 705L806 127L769 127L970 705L1096 705L845 0L738 0L552 542L574 542L381 0L274 0M516 765L357 939L487 939L606 765L516 765Z"  horiz-adv-x="1121" vert-adv-y="1000"  />

      
      <glyph glyph-name="uni58" unicode="&#x58;" d="M-8 0L282 386L282 331L2 705L153 705L356 424L315 424L517 705L669 705L388 331L388 386L679 0L527 0L313 294L357 294L143 0L-8 0Z"  horiz-adv-x="671" vert-adv-y="1000"  />

      
      <glyph glyph-name="uni59" unicode="&#x59;" d="M250 0L250 333L277 256L-26 705L123 705L331 385L303 385L511 705L655 705L353 256L379 333L379 0L250 0Z"  horiz-adv-x="629" vert-adv-y="1000"  />

      
      <glyph glyph-name="unidd" unicode="&#xdd;" d="M250 0L250 333L277 256L-26 705L123 705L331 385L303 385L511 705L655 705L353 256L379 333L379 0L250 0M270 765L389 939L519 939L360 765L270 765Z"  horiz-adv-x="629" vert-adv-y="1000"  />

      
      <glyph glyph-name="uni0176" unicode="&#x0176;" d="M250 0L250 333L277 256L-26 705L123 705L331 385L303 385L511 705L655 705L353 256L379 333L379 0L250 0M137 765L261 939L369 939L493 765L406 765L315 869L224 765L137 765Z"  horiz-adv-x="629" vert-adv-y="1000"  />

      
      <glyph glyph-name="uni0178" unicode="&#x0178;" d="M250 0L250 333L277 256L-26 705L123 705L331 385L303 385L511 705L655 705L353 256L379 333L379 0L250 0M352 790L352 905L467 905L467 790L352 790M163 790L163 905L278 905L278 790L163 790Z"  horiz-adv-x="629" vert-adv-y="1000"  />

      
      <glyph glyph-name="uni1E8E" unicode="&#x1E8E;" d="M250 0L250 333L277 256L-26 705L123 705L331 385L303 385L511 705L655 705L353 256L379 333L379 0L250 0M254 794L254 910L376 910L376 794L254 794Z"  horiz-adv-x="629" vert-adv-y="1000"  />

      
      <glyph glyph-name="uni1EF4" unicode="&#x1EF4;" d="M250 0L250 333L277 256L-26 705L123 705L331 385L303 385L511 705L655 705L353 256L379 333L379 0L250 0M255-204L255-88L377-88L377-204L255-204Z"  horiz-adv-x="629" vert-adv-y="1000"  />

      
      <glyph glyph-name="uni1EF2" unicode="&#x1EF2;" d="M250 0L250 333L277 256L-26 705L123 705L331 385L303 385L511 705L655 705L353 256L379 333L379 0L250 0M270 765L111 939L241 939L360 765L270 765Z"  horiz-adv-x="629" vert-adv-y="1000"  />

      
      <glyph glyph-name="uni01B3" unicode="&#x01B3;" d="M250 0L250 363L277 286L-26 705L123 705L331 415L303 415L448 622Q481 669 523.50 692Q566 715 624 715Q644 715 663 712Q682 709 695 703L695 614Q685 618 672.50 619.50Q660 621 645 621Q620 621 597.50 610Q575 599 556 573L353 286L379 363L379 0L250 0Z"  horiz-adv-x="629" vert-adv-y="1000"  />

      
      </font>
</defs>
</svg>
