<?xml version="1.0" standalone="no"?>
  <!DOCTYPE svg PUBLIC "-//W3C//DTD SVG 1.1//EN" "http://www.w3.org/Graphics/SVG/1.1/DTD/svg11.dtd" >
  <svg>
  <metadata>
  Created by font-carrier
  </metadata>
  <defs>
  <font id="Mulish-ExtraLight" horiz-adv-x="1324" vert-adv-y="1324" >
    <font-face
      
      font-family="Mulish ExtraLight"
      
      font-weight="400"
      
      font-stretch="normal"
      
      units-per-em="1000"
      
      ascent="1005"
      
      descent="-250"
      
    />
      <missing-glyph />

      

      
      <glyph glyph-name="uni41" unicode="&#x41;" d="M34 0L337 705L378 705L687 0L641 0L552 204L575 195L138 195L166 204L79 0L34 0M356 649L177 228L155 234L558 234L542 228L358 649L356 649Z"  horiz-adv-x="721" vert-adv-y="1000"  />

      
      <glyph glyph-name="unic1" unicode="&#xc1;" d="M34 0L337 705L378 705L687 0L641 0L552 204L575 195L138 195L166 204L79 0L34 0M356 649L177 228L155 234L558 234L542 228L358 649L356 649M339 765L457 935L513 935L377 765L339 765Z"  horiz-adv-x="721" vert-adv-y="1000"  />

      
      <glyph glyph-name="uni0102" unicode="&#x0102;" d="M34 0L337 705L378 705L687 0L641 0L552 204L575 195L138 195L166 204L79 0L34 0M356 649L177 228L155 234L558 234L542 228L358 649L356 649M358 760Q294 760 251 804.50Q208 849 201 927L234 931Q239 867 272 831.50Q305 796 358 796Q411 796 444.50 831.50Q478 867 482 931L515 927Q508 849 465 804.50Q422 760 358 760Z"  horiz-adv-x="721" vert-adv-y="1000"  />

      
      <glyph glyph-name="uni1EAE" unicode="&#x1EAE;" d="M34 0L337 705L378 705L687 0L641 0L552 204L575 195L138 195L166 204L79 0L34 0M356 649L177 228L155 234L558 234L542 228L358 649L356 649M358 760Q296 760 257.50 799Q219 838 214 907L247 911Q251 856 280 826Q309 796 358 796Q408 796 436.50 826Q465 856 469 911L502 907Q497 838 458.50 799Q420 760 358 760M334 863L432 1013L486 1013L370 863L334 863Z"  horiz-adv-x="721" vert-adv-y="1000"  />

      
      <glyph glyph-name="uni1EB6" unicode="&#x1EB6;" d="M34 0L337 705L378 705L687 0L641 0L552 204L575 195L138 195L166 204L79 0L34 0M356 649L177 228L155 234L558 234L542 228L358 649L356 649M326-172L326-109L390-109L390-172L326-172M358 760Q294 760 251 804.50Q208 849 201 927L234 931Q239 867 272 831.50Q305 796 358 796Q411 796 444.50 831.50Q478 867 482 931L515 927Q508 849 465 804.50Q422 760 358 760Z"  horiz-adv-x="721" vert-adv-y="1000"  />

      
      <glyph glyph-name="uni1EB0" unicode="&#x1EB0;" d="M34 0L337 705L378 705L687 0L641 0L552 204L575 195L138 195L166 204L79 0L34 0M356 649L177 228L155 234L558 234L542 228L358 649L356 649M358 760Q296 760 257.50 799Q219 838 214 907L247 911Q251 856 280 826Q309 796 358 796Q408 796 436.50 826Q465 856 469 911L502 907Q497 838 458.50 799Q420 760 358 760M346 863L230 1013L284 1013L382 863L346 863Z"  horiz-adv-x="721" vert-adv-y="1000"  />

      
      <glyph glyph-name="uni1EB2" unicode="&#x1EB2;" d="M34 0L337 705L378 705L687 0L641 0L552 204L575 195L138 195L166 204L79 0L34 0M356 649L177 228L155 234L558 234L542 228L358 649L356 649M358 760Q296 760 257.50 799Q219 838 214 907L247 911Q251 856 280 826Q309 796 358 796Q408 796 436.50 826Q465 856 469 911L502 907Q497 839 458.50 799.50Q420 760 358 760M341 863Q341 887 351 901Q361 915 374.50 923.50Q388 932 398 940.50Q408 949 408 962Q408 975 395.50 979.50Q383 984 356 984Q343 984 327.50 981.50Q312 979 293 972L284 1001Q300 1009 319.50 1013Q339 1017 360 1017Q402 1017 424.50 1003Q447 989 447 965Q447 944 436 932.50Q425 921 411 912.50Q397 904 386 893Q375 882 375 863L341 863Z"  horiz-adv-x="721" vert-adv-y="1000"  />

      
      <glyph glyph-name="uni1EB4" unicode="&#x1EB4;" d="M34 0L337 705L378 705L687 0L641 0L552 204L575 195L138 195L166 204L79 0L34 0M356 649L177 228L155 234L558 234L542 228L358 649L356 649M358 760Q303 760 265 788.50Q227 817 214 867L247 871Q258 835 287 815.50Q316 796 358 796Q400 796 429 815.50Q458 835 469 871L502 867Q489 818 451 789Q413 760 358 760M245 918L212 920Q217 968 239 992Q261 1016 295 1016Q314 1016 330 1008Q346 1000 367 983Q389 966 400 961Q411 956 421 956Q444 956 455 970.50Q466 985 471 1018L504 1016Q500 968 478.50 944Q457 920 422 920Q403 920 386.50 928.50Q370 937 344 957Q334 965 321.50 972.50Q309 980 295 980Q273 980 261.50 965.50Q250 951 245 918Z"  horiz-adv-x="721" vert-adv-y="1000"  />

      
      <glyph glyph-name="uni01CD" unicode="&#x01CD;" d="M34 0L337 705L378 705L687 0L641 0L552 204L575 195L138 195L166 204L79 0L34 0M356 649L177 228L155 234L558 234L542 228L358 649L356 649M334 765L213 935L250 935L358 803L466 935L503 935L382 765L334 765Z"  horiz-adv-x="721" vert-adv-y="1000"  />

      
      <glyph glyph-name="unic2" unicode="&#xc2;" d="M34 0L337 705L378 705L687 0L641 0L552 204L575 195L138 195L166 204L79 0L34 0M356 649L177 228L155 234L558 234L542 228L358 649L356 649M213 765L334 935L382 935L503 765L466 765L358 897L250 765L213 765Z"  horiz-adv-x="721" vert-adv-y="1000"  />

      
      <glyph glyph-name="uni1EA4" unicode="&#x1EA4;" d="M34 0L337 705L378 705L687 0L641 0L552 204L575 195L138 195L166 204L79 0L34 0M356 649L177 228L155 234L558 234L542 228L358 649L356 649M225 765L334 925L382 925L491 765L457 765L358 888L259 765L225 765M439 866L527 1016L581 1016L475 866L439 866Z"  horiz-adv-x="721" vert-adv-y="1000"  />

      
      <glyph glyph-name="uni1EAC" unicode="&#x1EAC;" d="M34 0L337 705L378 705L687 0L641 0L552 204L575 195L138 195L166 204L79 0L34 0M356 649L177 228L155 234L558 234L542 228L358 649L356 649M326-172L326-109L390-109L390-172L326-172M213 765L334 935L382 935L503 765L466 765L358 897L250 765L213 765Z"  horiz-adv-x="721" vert-adv-y="1000"  />

      
      <glyph glyph-name="uni1EA6" unicode="&#x1EA6;" d="M34 0L337 705L378 705L687 0L641 0L552 204L575 195L138 195L166 204L79 0L34 0M356 649L177 228L155 234L558 234L542 228L358 649L356 649M225 765L334 925L382 925L491 765L457 765L358 888L259 765L225 765M480 866L374 1016L428 1016L516 866L480 866Z"  horiz-adv-x="721" vert-adv-y="1000"  />

      
      <glyph glyph-name="uni1EA8" unicode="&#x1EA8;" d="M34 0L337 705L378 705L687 0L641 0L552 204L575 195L138 195L166 204L79 0L34 0M356 649L177 228L155 234L558 234L542 228L358 649L356 649M225 765L334 925L382 925L491 765L457 765L358 888L259 765L225 765M451 866Q451 890 461 904Q471 918 484.50 926.50Q498 935 508 943.50Q518 952 518 965Q518 978 505.50 982.50Q493 987 466 987Q453 987 437.50 984.50Q422 982 403 975L394 1004Q410 1012 429.50 1016Q449 1020 470 1020Q512 1020 534.50 1006Q557 992 557 968Q557 947 546 935.50Q535 924 521 915.50Q507 907 496 896Q485 885 485 866L451 866Z"  horiz-adv-x="721" vert-adv-y="1000"  />

      
      <glyph glyph-name="uni1EAA" unicode="&#x1EAA;" d="M34 0L337 705L378 705L687 0L641 0L552 204L575 195L138 195L166 204L79 0L34 0M356 649L177 228L155 234L558 234L542 228L358 649L356 649M225 765L334 895L382 895L491 765L457 765L358 861L259 765L225 765M245 918L212 920Q217 968 239 992Q261 1016 295 1016Q314 1016 330 1008Q346 1000 367 983Q389 966 400 961Q411 956 421 956Q444 956 455 970.50Q466 985 471 1018L504 1016Q500 968 478.50 944Q457 920 422 920Q403 920 386.50 928.50Q370 937 344 957Q334 965 321.50 972.50Q309 980 295 980Q273 980 261.50 965.50Q250 951 245 918Z"  horiz-adv-x="721" vert-adv-y="1000"  />

      
      <glyph glyph-name="uni0200" unicode="&#x0200;" d="M34 0L337 705L378 705L687 0L641 0L552 204L575 195L138 195L166 204L79 0L34 0M356 649L177 228L155 234L558 234L542 228L358 649L356 649M399 765L288 935L340 935L426 765L399 765M290 765L180 935L232 935L317 765L290 765Z"  horiz-adv-x="721" vert-adv-y="1000"  />

      
      <glyph glyph-name="unic4" unicode="&#xc4;" d="M34 0L337 705L378 705L687 0L641 0L552 204L575 195L138 195L166 204L79 0L34 0M356 649L177 228L155 234L558 234L542 228L358 649L356 649M408 820L408 880L469 880L469 820L408 820M247 820L247 880L308 880L308 820L247 820Z"  horiz-adv-x="721" vert-adv-y="1000"  />

      
      <glyph glyph-name="uni0226" unicode="&#x0226;" d="M34 0L337 705L378 705L687 0L641 0L552 204L575 195L138 195L166 204L79 0L34 0M356 649L177 228L155 234L558 234L542 228L358 649L356 649M327 818L327 881L389 881L389 818L327 818Z"  horiz-adv-x="721" vert-adv-y="1000"  />

      
      <glyph glyph-name="uni1EA0" unicode="&#x1EA0;" d="M34 0L337 705L378 705L687 0L641 0L552 204L575 195L138 195L166 204L79 0L34 0M356 649L177 228L155 234L558 234L542 228L358 649L356 649M326-172L326-109L390-109L390-172L326-172Z"  horiz-adv-x="721" vert-adv-y="1000"  />

      
      <glyph glyph-name="unic0" unicode="&#xc0;" d="M34 0L337 705L378 705L687 0L641 0L552 204L575 195L138 195L166 204L79 0L34 0M356 649L177 228L155 234L558 234L542 228L358 649L356 649M339 765L203 935L259 935L377 765L339 765Z"  horiz-adv-x="721" vert-adv-y="1000"  />

      
      <glyph glyph-name="uni1EA2" unicode="&#x1EA2;" d="M34 0L337 705L378 705L687 0L641 0L552 204L575 195L138 195L166 204L79 0L34 0M356 649L177 228L155 234L558 234L542 228L358 649L356 649M339 765L339 779Q339 801 349.50 814.50Q360 828 373.50 837.50Q387 847 397.50 856Q408 865 408 878Q408 890 395.50 897Q383 904 356 904Q341 904 325.50 900.50Q310 897 291 888L282 921Q315 940 360 940Q402 940 425.50 923.50Q449 907 449 880Q449 859 438 846.50Q427 834 413 825.50Q399 817 388 806Q377 795 377 775L377 765L339 765Z"  horiz-adv-x="721" vert-adv-y="1000"  />

      
      <glyph glyph-name="uni0202" unicode="&#x0202;" d="M34 0L337 705L378 705L687 0L641 0L552 204L575 195L138 195L166 204L79 0L34 0M356 649L177 228L155 234L558 234L542 228L358 649L356 649M234 760L201 764Q208 842 251 886.50Q294 931 358 931Q422 931 465 886.50Q508 842 515 764L482 760Q478 825 444.50 860Q411 895 358 895Q305 895 272 860Q239 825 234 760Z"  horiz-adv-x="721" vert-adv-y="1000"  />

      
      <glyph glyph-name="uni0100" unicode="&#x0100;" d="M34 0L337 705L378 705L687 0L641 0L552 204L575 195L138 195L166 204L79 0L34 0M356 649L177 228L155 234L558 234L542 228L358 649L356 649M203 822L203 860L513 860L513 822L203 822Z"  horiz-adv-x="721" vert-adv-y="1000"  />

      
      <glyph glyph-name="uni0104" unicode="&#x0104;" d="M34 0L337 705L378 705L687 0L641 0L552 204L575 195L138 195L166 204L79 0L34 0M356 649L177 228L155 234L558 234L542 228L358 649L356 649M670-190Q629-190 602.50-165Q576-140 576-98Q576-60 599.50-25.50Q623 9 666 31L687 0Q672-6 655.50-19Q639-32 627-51Q615-70 615-94Q615-125 632.50-139.50Q650-154 675-154Q688-154 701-151Q714-148 728-141L741-173Q731-180 712-185Q693-190 670-190Z"  horiz-adv-x="721" vert-adv-y="1000"  />

      
      <glyph glyph-name="unic5" unicode="&#xc5;" d="M34 0L337 705L378 705L687 0L641 0L552 204L575 195L138 195L166 204L79 0L34 0M356 649L177 228L155 234L558 234L542 228L358 649L356 649M358 760Q327 760 301.50 775Q276 790 261 815Q246 840 246 870Q246 901 261 925.50Q276 950 301.50 965Q327 980 358 980Q390 980 415 965Q440 950 455 925.50Q470 901 470 870Q470 840 455 815Q440 790 415 775Q390 760 358 760M358 792Q393 792 414.50 814.50Q436 837 436 870Q436 903 414.50 925.50Q393 948 358 948Q324 948 302 925.50Q280 903 280 870Q280 837 302 814.50Q324 792 358 792Z"  horiz-adv-x="721" vert-adv-y="1000"  />

      
      <glyph glyph-name="uni01FA" unicode="&#x01FA;" d="M34 0L337 705L378 705L687 0L641 0L552 204L575 195L138 195L166 204L79 0L34 0M356 649L177 228L155 234L558 234L542 228L358 649L356 649M358 760Q327 760 301.50 775Q276 790 261 815Q246 840 246 870Q246 901 261 925.50Q276 950 301.50 965Q327 980 358 980Q378 980 395 974.50Q412 969 426 958L502 1029L563 1029L450 934Q470 906 470 870Q470 840 455 815Q440 790 415 775Q390 760 358 760M358 792Q393 792 414.50 814.50Q436 837 436 870Q436 903 414.50 925.50Q393 948 358 948Q324 948 302 925.50Q280 903 280 870Q280 837 302 814.50Q324 792 358 792Z"  horiz-adv-x="721" vert-adv-y="1000"  />

      
      <glyph glyph-name="unic3" unicode="&#xc3;" d="M34 0L337 705L378 705L687 0L641 0L552 204L575 195L138 195L166 204L79 0L34 0M356 649L177 228L155 234L558 234L542 228L358 649L356 649M194 792L162 794Q169 852 197 883.50Q225 915 269 915Q292 915 315 904Q338 893 371 869Q403 847 419 838.50Q435 830 450 830Q480 830 497.50 852.50Q515 875 522 917L554 915Q547 857 519.50 825.50Q492 794 448 794Q426 794 402 805Q378 816 342 842Q314 863 297 871Q280 879 266 879Q236 879 218.50 856.50Q201 834 194 792Z"  horiz-adv-x="721" vert-adv-y="1000"  />

      
      <glyph glyph-name="unic6" unicode="&#xc6;" d="M14 0L437 705L939 705L939 666L520 666L540 690L571 366L554 377L918 377L918 338L564 338L572 348L604 20L597 39L939 39L939 0L563 0L544 198L568 195L170 195L189 207L64 0L14 0M461 665L199 224L190 234L549 234L542 225L500 665L461 665Z"  horiz-adv-x="996" vert-adv-y="1000"  />

      
      <glyph glyph-name="uni01FC" unicode="&#x01FC;" d="M14 0L437 705L939 705L939 666L520 666L540 690L571 366L554 377L918 377L918 338L564 338L572 348L604 20L597 39L939 39L939 0L563 0L544 198L568 195L170 195L189 207L64 0L14 0M461 665L199 224L190 234L549 234L542 225L500 665L461 665M495 765L613 935L669 935L533 765L495 765Z"  horiz-adv-x="996" vert-adv-y="1000"  />

      
      <glyph glyph-name="uni42" unicode="&#x42;" d="M97 0L97 705L354 705Q465 705 525 657.50Q585 610 585 521Q585 453 543.50 409Q502 365 431 351L431 365Q510 358 555.50 313Q601 268 601 191Q601 97 541 48.50Q481 0 368 0L97 0M139 39L367 39Q453 39 505 73Q557 107 557 188Q557 270 505 303.50Q453 337 367 337L139 337L139 39M139 376L352 376Q445 376 493 413.50Q541 451 541 521Q541 592 493 629Q445 666 352 666L139 666L139 376Z"  horiz-adv-x="672" vert-adv-y="1000"  />

      
      <glyph glyph-name="uni0181" unicode="&#x0181;" d="M203 0L203 666L164 666Q100 666 69.50 637.50Q39 609 39 549L39 506L-1 506L-1 551Q-1 629 41.50 667Q84 705 175 705L460 705Q570 705 630 657.50Q690 610 690 521Q690 454 649 409.50Q608 365 537 351L537 365Q616 358 661.50 312.50Q707 267 707 191Q707 97 646.50 48.50Q586 0 473 0L203 0M245 39L472 39Q567 39 615 75.50Q663 112 663 188Q663 264 615.50 300.50Q568 337 473 337L245 337L245 39M245 376L457 376Q550 376 598 413.50Q646 451 646 521Q646 592 598 629Q550 666 457 666L245 666L245 376Z"  horiz-adv-x="778" vert-adv-y="1000"  />

      
      <glyph glyph-name="uni43" unicode="&#x43;" d="M385-8Q283-8 212.50 35.50Q142 79 105 160Q68 241 68 353Q68 465 105 545.50Q142 626 212.50 669.50Q283 713 385 713Q462 713 520.50 688.50Q579 664 624 617L602 582Q553 629 502.50 650.50Q452 672 384 672Q251 672 182 588.50Q113 505 113 353Q113 201 182 117Q251 33 384 33Q452 33 502.50 54.50Q553 76 602 123L624 88Q579 41 520 16.50Q461-8 385-8Z"  horiz-adv-x="684" vert-adv-y="1000"  />

      
      <glyph glyph-name="uni0106" unicode="&#x0106;" d="M385-8Q283-8 212.50 35.50Q142 79 105 160Q68 241 68 353Q68 465 105 545.50Q142 626 212.50 669.50Q283 713 385 713Q462 713 520.50 688.50Q579 664 624 617L602 582Q553 629 502.50 650.50Q452 672 384 672Q251 672 182 588.50Q113 505 113 353Q113 201 182 117Q251 33 384 33Q452 33 502.50 54.50Q553 76 602 123L624 88Q579 41 520 16.50Q461-8 385-8M367 765L485 935L541 935L405 765L367 765Z"  horiz-adv-x="684" vert-adv-y="1000"  />

      
      <glyph glyph-name="uni010C" unicode="&#x010C;" d="M385-8Q283-8 212.50 35.50Q142 79 105 160Q68 241 68 353Q68 465 105 545.50Q142 626 212.50 669.50Q283 713 385 713Q462 713 520.50 688.50Q579 664 624 617L602 582Q553 629 502.50 650.50Q452 672 384 672Q251 672 182 588.50Q113 505 113 353Q113 201 182 117Q251 33 384 33Q452 33 502.50 54.50Q553 76 602 123L624 88Q579 41 520 16.50Q461-8 385-8M362 765L241 935L278 935L386 803L494 935L531 935L410 765L362 765Z"  horiz-adv-x="684" vert-adv-y="1000"  />

      
      <glyph glyph-name="unic7" unicode="&#xc7;" d="M385-8Q283-8 212.50 35.50Q142 79 105 160Q68 241 68 353Q68 465 105 545.50Q142 626 212.50 669.50Q283 713 385 713Q462 713 520.50 688.50Q579 664 624 617L602 582Q553 629 502.50 650.50Q452 672 384 672Q251 672 182 588.50Q113 505 113 353Q113 201 182 117Q251 33 384 33Q452 33 502.50 54.50Q553 76 602 123L624 88Q579 41 520 16.50Q461-8 385-8M389-190Q366-190 345.50-185Q325-180 311-172L320-138Q339-147 354-150.50Q369-154 393-154Q420-154 437.50-143Q455-132 455-111Q455-79 416-79Q405-79 393.50-81Q382-83 365-89L350-76L365 20L403 20L390-55L372-53Q384-50 395.50-48Q407-46 417-46Q449-46 472-63Q495-80 495-111Q495-146 465.50-168Q436-190 389-190Z"  horiz-adv-x="684" vert-adv-y="1000"  />

      
      <glyph glyph-name="uni1E08" unicode="&#x1E08;" d="M385-8Q283-8 212.50 35.50Q142 79 105 160Q68 241 68 353Q68 465 105 545.50Q142 626 212.50 669.50Q283 713 385 713Q462 713 520.50 688.50Q579 664 624 617L602 582Q553 629 502.50 650.50Q452 672 384 672Q251 672 182 588.50Q113 505 113 353Q113 201 182 117Q251 33 384 33Q452 33 502.50 54.50Q553 76 602 123L624 88Q579 41 520 16.50Q461-8 385-8M389-190Q366-190 345.50-185Q325-180 311-172L320-138Q339-147 354-150.50Q369-154 393-154Q420-154 437.50-143Q455-132 455-111Q455-79 416-79Q405-79 393.50-81Q382-83 365-89L350-76L365 20L403 20L390-55L372-53Q384-50 395.50-48Q407-46 417-46Q449-46 472-63Q495-80 495-111Q495-146 465.50-168Q436-190 389-190M367 765L485 935L541 935L405 765L367 765Z"  horiz-adv-x="684" vert-adv-y="1000"  />

      
      <glyph glyph-name="uni0108" unicode="&#x0108;" d="M385-8Q283-8 212.50 35.50Q142 79 105 160Q68 241 68 353Q68 465 105 545.50Q142 626 212.50 669.50Q283 713 385 713Q462 713 520.50 688.50Q579 664 624 617L602 582Q553 629 502.50 650.50Q452 672 384 672Q251 672 182 588.50Q113 505 113 353Q113 201 182 117Q251 33 384 33Q452 33 502.50 54.50Q553 76 602 123L624 88Q579 41 520 16.50Q461-8 385-8M241 765L362 935L410 935L531 765L494 765L386 897L278 765L241 765Z"  horiz-adv-x="684" vert-adv-y="1000"  />

      
      <glyph glyph-name="uni010A" unicode="&#x010A;" d="M385-8Q283-8 212.50 35.50Q142 79 105 160Q68 241 68 353Q68 465 105 545.50Q142 626 212.50 669.50Q283 713 385 713Q462 713 520.50 688.50Q579 664 624 617L602 582Q553 629 502.50 650.50Q452 672 384 672Q251 672 182 588.50Q113 505 113 353Q113 201 182 117Q251 33 384 33Q452 33 502.50 54.50Q553 76 602 123L624 88Q579 41 520 16.50Q461-8 385-8M355 818L355 881L417 881L417 818L355 818Z"  horiz-adv-x="684" vert-adv-y="1000"  />

      
      <glyph glyph-name="uni44" unicode="&#x44;" d="M97 0L97 705L311 705Q425 705 504 665Q583 625 624 546.50Q665 468 665 353Q665 238 624 159Q583 80 504 40Q425 0 311 0L97 0M139 39L307 39Q465 39 542.50 117.50Q620 196 620 353Q620 510 542.50 588Q465 666 307 666L139 666L139 39Z"  horiz-adv-x="733" vert-adv-y="1000"  />

      
      <glyph glyph-name="uni01C4" unicode="&#x01C4;" d="M97 0L97 705L311 705Q425 705 504 665Q583 625 624 546.50Q665 468 665 353Q665 238 624 159Q583 80 504 40Q425 0 311 0L97 0M139 39L307 39Q465 39 542.50 117.50Q620 196 620 353Q620 510 542.50 588Q465 666 307 666L139 666L139 39M760 0L760 31L1214 689L1214 666L760 666L760 705L1254 705L1254 674L799 16L799 39L1264 39L1264 0L760 0M988 765L867 935L904 935L1012 803L1120 935L1157 935L1036 765L988 765Z"  horiz-adv-x="1303" vert-adv-y="1000"  />

      
      <glyph glyph-name="unid0" unicode="&#xd0;" d="M97 0L97 705L311 705Q425 705 504 665Q583 625 624 546.50Q665 468 665 353Q665 238 624 159Q583 80 504 40Q425 0 311 0L97 0M139 39L307 39Q465 39 542.50 117.50Q620 196 620 353Q620 510 542.50 588Q465 666 307 666L139 666L139 39M9 340L9 377L343 377L343 340L9 340Z"  horiz-adv-x="733" vert-adv-y="1000"  />

      
      <glyph glyph-name="uni010E" unicode="&#x010E;" d="M97 0L97 705L311 705Q425 705 504 665Q583 625 624 546.50Q665 468 665 353Q665 238 624 159Q583 80 504 40Q425 0 311 0L97 0M139 39L307 39Q465 39 542.50 117.50Q620 196 620 353Q620 510 542.50 588Q465 666 307 666L139 666L139 39M348 765L227 935L264 935L372 803L480 935L517 935L396 765L348 765Z"  horiz-adv-x="733" vert-adv-y="1000"  />

      
      <glyph glyph-name="uni0110" unicode="&#x0110;" d="M97 0L97 705L311 705Q425 705 504 665Q583 625 624 546.50Q665 468 665 353Q665 238 624 159Q583 80 504 40Q425 0 311 0L97 0M139 39L307 39Q465 39 542.50 117.50Q620 196 620 353Q620 510 542.50 588Q465 666 307 666L139 666L139 39M9 340L9 377L343 377L343 340L9 340Z"  horiz-adv-x="733" vert-adv-y="1000"  />

      
      <glyph glyph-name="uni1E0C" unicode="&#x1E0C;" d="M97 0L97 705L311 705Q425 705 504 665Q583 625 624 546.50Q665 468 665 353Q665 238 624 159Q583 80 504 40Q425 0 311 0L97 0M139 39L307 39Q465 39 542.50 117.50Q620 196 620 353Q620 510 542.50 588Q465 666 307 666L139 666L139 39M340-172L340-109L404-109L404-172L340-172Z"  horiz-adv-x="733" vert-adv-y="1000"  />

      
      <glyph glyph-name="uni018A" unicode="&#x018A;" d="M203 0L203 666L164 666Q100 666 69.50 637.50Q39 609 39 549L39 506L-1 506L-1 551Q-1 629 40.50 667Q82 705 166 705L417 705Q588 705 679.50 615.50Q771 526 771 353Q771 180 679.50 90Q588 0 417 0L203 0M245 39L413 39Q571 39 648.50 117.50Q726 196 726 353Q726 510 648.50 588Q571 666 413 666L245 666L245 39Z"  horiz-adv-x="839" vert-adv-y="1000"  />

      
      <glyph glyph-name="uni1E0E" unicode="&#x1E0E;" d="M97 0L97 705L311 705Q425 705 504 665Q583 625 624 546.50Q665 468 665 353Q665 238 624 159Q583 80 504 40Q425 0 311 0L97 0M139 39L307 39Q465 39 542.50 117.50Q620 196 620 353Q620 510 542.50 588Q465 666 307 666L139 666L139 39M232-148L232-110L512-110L512-148L232-148Z"  horiz-adv-x="733" vert-adv-y="1000"  />

      
      <glyph glyph-name="uni01C5" unicode="&#x01C5;" d="M97 0L97 705L311 705Q425 705 504 665Q583 625 624 546.50Q665 468 665 353Q665 238 624 159Q583 80 504 40Q425 0 311 0L97 0M139 39L307 39Q465 39 542.50 117.50Q620 196 620 353Q620 510 542.50 588Q465 666 307 666L139 666L139 39M784 0L784 30L1143 477L1144 464L784 464L784 500L1185 500L1185 470L824 22L823 36L1197 36L1197 0L784 0M960 549L851 749L886 749L984 588L1082 749L1117 749L1008 549L960 549Z"  horiz-adv-x="1245" vert-adv-y="1000"  />

      
      <glyph glyph-name="uni45" unicode="&#x45;" d="M97 0L97 705L525 705L525 666L139 666L139 377L503 377L503 338L139 338L139 39L525 39L525 0L97 0Z"  horiz-adv-x="582" vert-adv-y="1000"  />

      
      <glyph glyph-name="unic9" unicode="&#xc9;" d="M97 0L97 705L525 705L525 666L139 666L139 377L503 377L503 338L139 338L139 39L525 39L525 0L97 0M304 765L422 935L478 935L342 765L304 765Z"  horiz-adv-x="582" vert-adv-y="1000"  />

      
      <glyph glyph-name="uni0114" unicode="&#x0114;" d="M97 0L97 705L525 705L525 666L139 666L139 377L503 377L503 338L139 338L139 39L525 39L525 0L97 0M323 760Q259 760 216 804.50Q173 849 166 927L199 931Q204 867 237 831.50Q270 796 323 796Q376 796 409.50 831.50Q443 867 447 931L480 927Q473 849 430 804.50Q387 760 323 760Z"  horiz-adv-x="582" vert-adv-y="1000"  />

      
      <glyph glyph-name="uni011A" unicode="&#x011A;" d="M97 0L97 705L525 705L525 666L139 666L139 377L503 377L503 338L139 338L139 39L525 39L525 0L97 0M299 765L178 935L215 935L323 803L431 935L468 935L347 765L299 765Z"  horiz-adv-x="582" vert-adv-y="1000"  />

      
      <glyph glyph-name="uni0228" unicode="&#x0228;" d="M97 0L97 705L525 705L525 666L139 666L139 377L503 377L503 338L139 338L139 39L525 39L525 0L97 0M328-190Q305-190 284.50-185Q264-180 250-172L259-138Q278-147 293-150.50Q308-154 332-154Q359-154 376.50-143Q394-132 394-111Q394-79 355-79Q344-79 332.50-81Q321-83 304-89L289-76L304 20L342 20L329-55L311-53Q323-50 334.50-48Q346-46 356-46Q388-46 411-63Q434-80 434-111Q434-146 404.50-168Q375-190 328-190Z"  horiz-adv-x="582" vert-adv-y="1000"  />

      
      <glyph glyph-name="uni1E1C" unicode="&#x1E1C;" d="M97 0L97 705L525 705L525 666L139 666L139 377L503 377L503 338L139 338L139 39L525 39L525 0L97 0M328-190Q305-190 284.50-185Q264-180 250-172L259-138Q278-147 293-150.50Q308-154 332-154Q359-154 376.50-143Q394-132 394-111Q394-79 355-79Q344-79 332.50-81Q321-83 304-89L289-76L304 20L342 20L329-55L311-53Q323-50 334.50-48Q346-46 356-46Q388-46 411-63Q434-80 434-111Q434-146 404.50-168Q375-190 328-190M323 760Q259 760 216 804.50Q173 849 166 927L199 931Q204 867 237 831.50Q270 796 323 796Q376 796 409.50 831.50Q443 867 447 931L480 927Q473 849 430 804.50Q387 760 323 760Z"  horiz-adv-x="582" vert-adv-y="1000"  />

      
      <glyph glyph-name="unica" unicode="&#xca;" d="M97 0L97 705L525 705L525 666L139 666L139 377L503 377L503 338L139 338L139 39L525 39L525 0L97 0M178 765L299 935L347 935L468 765L431 765L323 897L215 765L178 765Z"  horiz-adv-x="582" vert-adv-y="1000"  />

      
      <glyph glyph-name="uni1EBE" unicode="&#x1EBE;" d="M97 0L97 705L525 705L525 666L139 666L139 377L503 377L503 338L139 338L139 39L525 39L525 0L97 0M190 765L299 925L347 925L456 765L422 765L323 888L224 765L190 765M404 866L492 1016L546 1016L440 866L404 866Z"  horiz-adv-x="582" vert-adv-y="1000"  />

      
      <glyph glyph-name="uni1EC6" unicode="&#x1EC6;" d="M97 0L97 705L525 705L525 666L139 666L139 377L503 377L503 338L139 338L139 39L525 39L525 0L97 0M291-172L291-109L355-109L355-172L291-172M178 765L299 935L347 935L468 765L431 765L323 897L215 765L178 765Z"  horiz-adv-x="582" vert-adv-y="1000"  />

      
      <glyph glyph-name="uni1EC0" unicode="&#x1EC0;" d="M97 0L97 705L525 705L525 666L139 666L139 377L503 377L503 338L139 338L139 39L525 39L525 0L97 0M190 765L299 925L347 925L456 765L422 765L323 888L224 765L190 765M445 866L339 1016L393 1016L481 866L445 866Z"  horiz-adv-x="582" vert-adv-y="1000"  />

      
      <glyph glyph-name="uni1EC2" unicode="&#x1EC2;" d="M97 0L97 705L525 705L525 666L139 666L139 377L503 377L503 338L139 338L139 39L525 39L525 0L97 0M190 765L299 925L347 925L456 765L422 765L323 888L224 765L190 765M416 866Q416 890 426 904Q436 918 449.50 926.50Q463 935 473 943.50Q483 952 483 965Q483 978 470.50 982.50Q458 987 431 987Q418 987 402.50 984.50Q387 982 368 975L359 1004Q375 1012 394.50 1016Q414 1020 435 1020Q477 1020 499.50 1006Q522 992 522 968Q522 947 511 935.50Q500 924 486 915.50Q472 907 461 896Q450 885 450 866L416 866Z"  horiz-adv-x="582" vert-adv-y="1000"  />

      
      <glyph glyph-name="uni1EC4" unicode="&#x1EC4;" d="M97 0L97 705L525 705L525 666L139 666L139 377L503 377L503 338L139 338L139 39L525 39L525 0L97 0M190 765L299 895L347 895L456 765L422 765L323 861L224 765L190 765M210 918L177 920Q182 968 204 992Q226 1016 260 1016Q279 1016 295 1008Q311 1000 332 983Q354 966 365 961Q376 956 386 956Q409 956 420 970.50Q431 985 436 1018L469 1016Q465 968 443.50 944Q422 920 387 920Q368 920 351.50 928.50Q335 937 309 957Q299 965 286.50 972.50Q274 980 260 980Q238 980 226.50 965.50Q215 951 210 918Z"  horiz-adv-x="582" vert-adv-y="1000"  />

      
      <glyph glyph-name="uni0204" unicode="&#x0204;" d="M97 0L97 705L525 705L525 666L139 666L139 377L503 377L503 338L139 338L139 39L525 39L525 0L97 0M364 765L253 935L305 935L391 765L364 765M255 765L145 935L197 935L282 765L255 765Z"  horiz-adv-x="582" vert-adv-y="1000"  />

      
      <glyph glyph-name="unicb" unicode="&#xcb;" d="M97 0L97 705L525 705L525 666L139 666L139 377L503 377L503 338L139 338L139 39L525 39L525 0L97 0M373 820L373 880L434 880L434 820L373 820M212 820L212 880L273 880L273 820L212 820Z"  horiz-adv-x="582" vert-adv-y="1000"  />

      
      <glyph glyph-name="uni0116" unicode="&#x0116;" d="M97 0L97 705L525 705L525 666L139 666L139 377L503 377L503 338L139 338L139 39L525 39L525 0L97 0M292 818L292 881L354 881L354 818L292 818Z"  horiz-adv-x="582" vert-adv-y="1000"  />

      
      <glyph glyph-name="uni1EB8" unicode="&#x1EB8;" d="M97 0L97 705L525 705L525 666L139 666L139 377L503 377L503 338L139 338L139 39L525 39L525 0L97 0M291-172L291-109L355-109L355-172L291-172Z"  horiz-adv-x="582" vert-adv-y="1000"  />

      
      <glyph glyph-name="unic8" unicode="&#xc8;" d="M97 0L97 705L525 705L525 666L139 666L139 377L503 377L503 338L139 338L139 39L525 39L525 0L97 0M304 765L168 935L224 935L342 765L304 765Z"  horiz-adv-x="582" vert-adv-y="1000"  />

      
      <glyph glyph-name="uni1EBA" unicode="&#x1EBA;" d="M97 0L97 705L525 705L525 666L139 666L139 377L503 377L503 338L139 338L139 39L525 39L525 0L97 0M304 765L304 779Q304 801 314.50 814.50Q325 828 338.50 837.50Q352 847 362.50 856Q373 865 373 878Q373 890 360.50 897Q348 904 321 904Q306 904 290.50 900.50Q275 897 256 888L247 921Q280 940 325 940Q367 940 390.50 923.50Q414 907 414 880Q414 859 403 846.50Q392 834 378 825.50Q364 817 353 806Q342 795 342 775L342 765L304 765Z"  horiz-adv-x="582" vert-adv-y="1000"  />

      
      <glyph glyph-name="uni0206" unicode="&#x0206;" d="M97 0L97 705L525 705L525 666L139 666L139 377L503 377L503 338L139 338L139 39L525 39L525 0L97 0M199 760L166 764Q173 842 216 886.50Q259 931 323 931Q387 931 430 886.50Q473 842 480 764L447 760Q443 825 409.50 860Q376 895 323 895Q270 895 237 860Q204 825 199 760Z"  horiz-adv-x="582" vert-adv-y="1000"  />

      
      <glyph glyph-name="uni0112" unicode="&#x0112;" d="M97 0L97 705L525 705L525 666L139 666L139 377L503 377L503 338L139 338L139 39L525 39L525 0L97 0M168 822L168 860L478 860L478 822L168 822Z"  horiz-adv-x="582" vert-adv-y="1000"  />

      
      <glyph glyph-name="uni1E16" unicode="&#x1E16;" d="M97 0L97 705L525 705L525 666L139 666L139 377L503 377L503 338L139 338L139 39L525 39L525 0L97 0M183 796L183 834L463 834L463 796L183 796M305 871L403 1021L457 1021L341 871L305 871Z"  horiz-adv-x="582" vert-adv-y="1000"  />

      
      <glyph glyph-name="uni1E14" unicode="&#x1E14;" d="M97 0L97 705L525 705L525 666L139 666L139 377L503 377L503 338L139 338L139 39L525 39L525 0L97 0M305 871L189 1021L243 1021L341 871L305 871M183 796L183 834L463 834L463 796L183 796Z"  horiz-adv-x="582" vert-adv-y="1000"  />

      
      <glyph glyph-name="uni0118" unicode="&#x0118;" d="M97 0L97 705L525 705L525 666L139 666L139 377L503 377L503 338L139 338L139 39L525 39L525 0L97 0M482-190Q441-190 414.50-165Q388-140 388-98Q388-60 411.50-25.50Q435 9 478 31L499 0Q484-6 467.50-19Q451-32 439-51Q427-70 427-94Q427-125 444.50-139.50Q462-154 487-154Q500-154 513-151Q526-148 540-141L553-173Q543-180 524-185Q505-190 482-190Z"  horiz-adv-x="582" vert-adv-y="1000"  />

      
      <glyph glyph-name="uni1EBC" unicode="&#x1EBC;" d="M97 0L97 705L525 705L525 666L139 666L139 377L503 377L503 338L139 338L139 39L525 39L525 0L97 0M159 792L127 794Q134 852 162 883.50Q190 915 234 915Q257 915 280 904Q303 893 336 869Q368 847 384 838.50Q400 830 415 830Q445 830 462.50 852.50Q480 875 487 917L519 915Q512 857 484.50 825.50Q457 794 413 794Q391 794 367 805Q343 816 307 842Q279 863 262 871Q245 879 231 879Q201 879 183.50 856.50Q166 834 159 792Z"  horiz-adv-x="582" vert-adv-y="1000"  />

      
      <glyph glyph-name="uni46" unicode="&#x46;" d="M97 0L97 705L515 705L515 666L139 666L139 377L494 377L494 338L139 338L139 0L97 0Z"  horiz-adv-x="554" vert-adv-y="1000"  />

      
      <glyph glyph-name="uni47" unicode="&#x47;" d="M406-8Q294-8 218.50 34.50Q143 77 105.50 158Q68 239 68 353Q68 465 106.50 545.50Q145 626 217.50 669.50Q290 713 392 713Q469 713 524.50 688.50Q580 664 626 617L604 582Q571 614 539.50 633.50Q508 653 473 662.50Q438 672 391 672Q258 672 185.50 588Q113 504 113 352Q113 197 184.50 115Q256 33 406 33Q463 33 512.50 43.50Q562 54 606 74L594 38L594 318L400 318L400 357L634 357L634 41Q596 20 532.50 6Q469-8 406-8Z"  horiz-adv-x="723" vert-adv-y="1000"  />

      
      <glyph glyph-name="uni011E" unicode="&#x011E;" d="M406-8Q294-8 218.50 34.50Q143 77 105.50 158Q68 239 68 353Q68 465 106.50 545.50Q145 626 217.50 669.50Q290 713 392 713Q469 713 524.50 688.50Q580 664 626 617L604 582Q571 614 539.50 633.50Q508 653 473 662.50Q438 672 391 672Q258 672 185.50 588Q113 504 113 352Q113 197 184.50 115Q256 33 406 33Q463 33 512.50 43.50Q562 54 606 74L594 38L594 318L400 318L400 357L634 357L634 41Q596 20 532.50 6Q469-8 406-8M391 760Q327 760 284 804.50Q241 849 234 927L267 931Q272 867 305 831.50Q338 796 391 796Q444 796 477.50 831.50Q511 867 515 931L548 927Q541 849 498 804.50Q455 760 391 760Z"  horiz-adv-x="723" vert-adv-y="1000"  />

      
      <glyph glyph-name="uni01E6" unicode="&#x01E6;" d="M406-8Q294-8 218.50 34.50Q143 77 105.50 158Q68 239 68 353Q68 465 106.50 545.50Q145 626 217.50 669.50Q290 713 392 713Q469 713 524.50 688.50Q580 664 626 617L604 582Q571 614 539.50 633.50Q508 653 473 662.50Q438 672 391 672Q258 672 185.50 588Q113 504 113 352Q113 197 184.50 115Q256 33 406 33Q463 33 512.50 43.50Q562 54 606 74L594 38L594 318L400 318L400 357L634 357L634 41Q596 20 532.50 6Q469-8 406-8M367 765L246 935L283 935L391 803L499 935L536 935L415 765L367 765Z"  horiz-adv-x="723" vert-adv-y="1000"  />

      
      <glyph glyph-name="uni011C" unicode="&#x011C;" d="M406-8Q294-8 218.50 34.50Q143 77 105.50 158Q68 239 68 353Q68 465 106.50 545.50Q145 626 217.50 669.50Q290 713 392 713Q469 713 524.50 688.50Q580 664 626 617L604 582Q571 614 539.50 633.50Q508 653 473 662.50Q438 672 391 672Q258 672 185.50 588Q113 504 113 352Q113 197 184.50 115Q256 33 406 33Q463 33 512.50 43.50Q562 54 606 74L594 38L594 318L400 318L400 357L634 357L634 41Q596 20 532.50 6Q469-8 406-8M246 765L367 935L415 935L536 765L499 765L391 897L283 765L246 765Z"  horiz-adv-x="723" vert-adv-y="1000"  />

      
      <glyph glyph-name="uni0122" unicode="&#x0122;" d="M406-8Q294-8 218.50 34.50Q143 77 105.50 158Q68 239 68 353Q68 465 106.50 545.50Q145 626 217.50 669.50Q290 713 392 713Q469 713 524.50 688.50Q580 664 626 617L604 582Q571 614 539.50 633.50Q508 653 473 662.50Q438 672 391 672Q258 672 185.50 588Q113 504 113 352Q113 197 184.50 115Q256 33 406 33Q463 33 512.50 43.50Q562 54 606 74L594 38L594 318L400 318L400 357L634 357L634 41Q596 20 532.50 6Q469-8 406-8M394-259L368-239Q391-213 398.50-191Q406-169 406-144L421-151L371-151L371-86L441-86L441-140Q441-174 429-204.50Q417-235 394-259Z"  horiz-adv-x="723" vert-adv-y="1000"  />

      
      <glyph glyph-name="uni0120" unicode="&#x0120;" d="M406-8Q294-8 218.50 34.50Q143 77 105.50 158Q68 239 68 353Q68 465 106.50 545.50Q145 626 217.50 669.50Q290 713 392 713Q469 713 524.50 688.50Q580 664 626 617L604 582Q571 614 539.50 633.50Q508 653 473 662.50Q438 672 391 672Q258 672 185.50 588Q113 504 113 352Q113 197 184.50 115Q256 33 406 33Q463 33 512.50 43.50Q562 54 606 74L594 38L594 318L400 318L400 357L634 357L634 41Q596 20 532.50 6Q469-8 406-8M360 818L360 881L422 881L422 818L360 818Z"  horiz-adv-x="723" vert-adv-y="1000"  />

      
      <glyph glyph-name="uni1E20" unicode="&#x1E20;" d="M406-8Q294-8 218.50 34.50Q143 77 105.50 158Q68 239 68 353Q68 465 106.50 545.50Q145 626 217.50 669.50Q290 713 392 713Q469 713 524.50 688.50Q580 664 626 617L604 582Q571 614 539.50 633.50Q508 653 473 662.50Q438 672 391 672Q258 672 185.50 588Q113 504 113 352Q113 197 184.50 115Q256 33 406 33Q463 33 512.50 43.50Q562 54 606 74L594 38L594 318L400 318L400 357L634 357L634 41Q596 20 532.50 6Q469-8 406-8M236 822L236 860L546 860L546 822L236 822Z"  horiz-adv-x="723" vert-adv-y="1000"  />

      
      <glyph glyph-name="uni48" unicode="&#x48;" d="M97 0L97 705L139 705L139 377L620 377L620 705L662 705L662 0L620 0L620 338L139 338L139 0L97 0Z"  horiz-adv-x="759" vert-adv-y="1000"  />

      
      <glyph glyph-name="uni0126" unicode="&#x0126;" d="M102 0L102 527L4 527L4 565L102 565L102 705L144 705L144 565L623 565L623 705L665 705L665 565L763 565L763 527L665 527L665 0L623 0L623 338L144 338L144 0L102 0M144 377L623 377L623 527L144 527L144 377Z"  horiz-adv-x="767" vert-adv-y="1000"  />

      
      <glyph glyph-name="uni1E2A" unicode="&#x1E2A;" d="M97 0L97 705L139 705L139 377L620 377L620 705L662 705L662 0L620 0L620 338L139 338L139 0L97 0M380-215Q318-215 279.50-176Q241-137 236-68L269-64Q273-119 302-149Q331-179 380-179Q430-179 458.50-149Q487-119 491-64L524-68Q519-137 480.50-176Q442-215 380-215Z"  horiz-adv-x="759" vert-adv-y="1000"  />

      
      <glyph glyph-name="uni0124" unicode="&#x0124;" d="M97 0L97 705L139 705L139 377L620 377L620 705L662 705L662 0L620 0L620 338L139 338L139 0L97 0M235 765L356 935L404 935L525 765L488 765L380 897L272 765L235 765Z"  horiz-adv-x="759" vert-adv-y="1000"  />

      
      <glyph glyph-name="uni1E24" unicode="&#x1E24;" d="M97 0L97 705L139 705L139 377L620 377L620 705L662 705L662 0L620 0L620 338L139 338L139 0L97 0M348-172L348-109L412-109L412-172L348-172Z"  horiz-adv-x="759" vert-adv-y="1000"  />

      
      <glyph glyph-name="uni49" unicode="&#x49;" d="M97 0L97 705L139 705L139 0L97 0Z"  horiz-adv-x="236" vert-adv-y="1000"  />

      
      <glyph glyph-name="uni0132" unicode="&#x0132;" d="M97 0L97 705L139 705L139 0L97 0M306-186Q290-186 272.50-184.50Q255-183 236-178L236-139Q255-143 270.50-145.50Q286-148 300-148Q346-148 371.50-118Q397-88 397-24L397 705L439 705L439-26Q439-76 424-112Q409-148 379.50-167Q350-186 306-186Z"  horiz-adv-x="536" vert-adv-y="1000"  />

      
      <glyph glyph-name="unicd" unicode="&#xcd;" d="M97 0L97 705L139 705L139 0L97 0M99 765L217 935L273 935L137 765L99 765Z"  horiz-adv-x="236" vert-adv-y="1000"  />

      
      <glyph glyph-name="uni012C" unicode="&#x012C;" d="M97 0L97 705L139 705L139 0L97 0M118 760Q54 760 11 804.50Q-32 849-39 927L-6 931Q-1 867 32 831.50Q65 796 118 796Q171 796 204.50 831.50Q238 867 242 931L275 927Q268 849 225 804.50Q182 760 118 760Z"  horiz-adv-x="236" vert-adv-y="1000"  />

      
      <glyph glyph-name="unice" unicode="&#xce;" d="M97 0L97 705L139 705L139 0L97 0M-27 765L94 935L142 935L263 765L226 765L118 897L10 765L-27 765Z"  horiz-adv-x="236" vert-adv-y="1000"  />

      
      <glyph glyph-name="uni0208" unicode="&#x0208;" d="M97 0L97 705L139 705L139 0L97 0M159 765L48 935L100 935L186 765L159 765M50 765L-60 935L-8 935L77 765L50 765Z"  horiz-adv-x="236" vert-adv-y="1000"  />

      
      <glyph glyph-name="unicf" unicode="&#xcf;" d="M97 0L97 705L139 705L139 0L97 0M168 820L168 880L229 880L229 820L168 820M7 820L7 880L68 880L68 820L7 820Z"  horiz-adv-x="236" vert-adv-y="1000"  />

      
      <glyph glyph-name="uni1E2E" unicode="&#x1E2E;" d="M97 0L97 705L139 705L139 0L97 0M100 871L198 1021L252 1021L136 871L100 871M7 771L7 831L68 831L68 771L7 771M168 771L168 831L229 831L229 771L168 771Z"  horiz-adv-x="236" vert-adv-y="1000"  />

      
      <glyph glyph-name="uni0130" unicode="&#x0130;" d="M97 0L97 705L139 705L139 0L97 0M87 818L87 881L149 881L149 818L87 818Z"  horiz-adv-x="236" vert-adv-y="1000"  />

      
      <glyph glyph-name="uni1ECA" unicode="&#x1ECA;" d="M97 0L97 705L139 705L139 0L97 0M86-172L86-109L150-109L150-172L86-172Z"  horiz-adv-x="236" vert-adv-y="1000"  />

      
      <glyph glyph-name="unicc" unicode="&#xcc;" d="M97 0L97 705L139 705L139 0L97 0M99 765L-37 935L19 935L137 765L99 765Z"  horiz-adv-x="236" vert-adv-y="1000"  />

      
      <glyph glyph-name="uni1EC8" unicode="&#x1EC8;" d="M97 0L97 705L139 705L139 0L97 0M99 765L99 779Q99 801 109.50 814.50Q120 828 133.50 837.50Q147 847 157.50 856Q168 865 168 878Q168 890 155.50 897Q143 904 116 904Q101 904 85.50 900.50Q70 897 51 888L42 921Q75 940 120 940Q162 940 185.50 923.50Q209 907 209 880Q209 859 198 846.50Q187 834 173 825.50Q159 817 148 806Q137 795 137 775L137 765L99 765Z"  horiz-adv-x="236" vert-adv-y="1000"  />

      
      <glyph glyph-name="uni020A" unicode="&#x020A;" d="M97 0L97 705L139 705L139 0L97 0M-6 760L-39 764Q-32 842 11 886.50Q54 931 118 931Q182 931 225 886.50Q268 842 275 764L242 760Q238 825 204.50 860Q171 895 118 895Q65 895 32 860Q-1 825-6 760Z"  horiz-adv-x="236" vert-adv-y="1000"  />

      
      <glyph glyph-name="uni012A" unicode="&#x012A;" d="M97 0L97 705L139 705L139 0L97 0M-37 822L-37 860L273 860L273 822L-37 822Z"  horiz-adv-x="236" vert-adv-y="1000"  />

      
      <glyph glyph-name="uni012E" unicode="&#x012E;" d="M97 0L97 705L139 705L139 0L97 0M122-190Q81-190 54.50-165Q28-140 28-98Q28-60 51.50-25.50Q75 9 118 31L139 0Q124-6 107.50-19Q91-32 79-51Q67-70 67-94Q67-125 84.50-139.50Q102-154 127-154Q140-154 153-151Q166-148 180-141L193-173Q183-180 164-185Q145-190 122-190Z"  horiz-adv-x="236" vert-adv-y="1000"  />

      
      <glyph glyph-name="uni0128" unicode="&#x0128;" d="M97 0L97 705L139 705L139 0L97 0M-46 792L-78 794Q-71 852-43 883.50Q-15 915 29 915Q52 915 75 904Q98 893 131 869Q163 847 179 838.50Q195 830 210 830Q240 830 257.50 852.50Q275 875 282 917L314 915Q307 857 279.50 825.50Q252 794 208 794Q186 794 162 805Q138 816 102 842Q74 863 57 871Q40 879 26 879Q-4 879-21.50 856.50Q-39 834-46 792Z"  horiz-adv-x="236" vert-adv-y="1000"  />

      
      <glyph glyph-name="uni4a" unicode="&#x4a;" d="M70-186Q54-186 36.50-184.50Q19-183 0-178L0-139Q19-143 34.50-145.50Q50-148 64-148Q110-148 135.50-118Q161-88 161-24L161 705L203 705L203-26Q203-76 188-112Q173-148 143.50-167Q114-186 70-186Z"  horiz-adv-x="300" vert-adv-y="1000"  />

      
      <glyph glyph-name="uni0134" unicode="&#x0134;" d="M70-186Q54-186 36.50-184.50Q19-183 0-178L0-139Q19-143 34.50-145.50Q50-148 64-148Q110-148 135.50-118Q161-88 161-24L161 705L203 705L203-26Q203-76 188-112Q173-148 143.50-167Q114-186 70-186M36 765L157 935L205 935L326 765L289 765L181 897L73 765L36 765Z"  horiz-adv-x="300" vert-adv-y="1000"  />

      
      <glyph glyph-name="uni4b" unicode="&#x4b;" d="M97 0L97 705L139 705L139 377L141 377L507 705L568 705L160 343L161 373L599 0L536 0L141 338L139 338L139 0L97 0Z"  horiz-adv-x="605" vert-adv-y="1000"  />

      
      <glyph glyph-name="uni0136" unicode="&#x0136;" d="M97 0L97 705L139 705L139 377L141 377L507 705L568 705L160 343L161 373L599 0L536 0L141 338L139 338L139 0L97 0M297-259L271-239Q294-213 301.50-191Q309-169 309-144L324-151L274-151L274-86L344-86L344-140Q344-174 332-204.50Q320-235 297-259Z"  horiz-adv-x="605" vert-adv-y="1000"  />

      
      <glyph glyph-name="uni4c" unicode="&#x4c;" d="M97 0L97 705L139 705L139 39L517 39L517 0L97 0Z"  horiz-adv-x="532" vert-adv-y="1000"  />

      
      <glyph glyph-name="uni01C7" unicode="&#x01C7;" d="M97 0L97 705L139 705L139 39L517 39L517 0L97 0M642-186Q626-186 608.50-184.50Q591-183 572-178L572-139Q591-143 606.50-145.50Q622-148 636-148Q682-148 707.50-118Q733-88 733-24L733 705L775 705L775-26Q775-76 760-112Q745-148 715.50-167Q686-186 642-186Z"  horiz-adv-x="872" vert-adv-y="1000"  />

      
      <glyph glyph-name="uni0139" unicode="&#x0139;" d="M97 0L97 705L139 705L139 39L517 39L517 0L97 0M99 765L217 935L273 935L137 765L99 765Z"  horiz-adv-x="532" vert-adv-y="1000"  />

      
      <glyph glyph-name="uni013D" unicode="&#x013D;" d="M97 0L97 705L139 705L139 39L517 39L517 0L97 0M256 489L256 705L305 705L286 489L256 489Z"  horiz-adv-x="532" vert-adv-y="1000"  />

      
      <glyph glyph-name="uni013B" unicode="&#x013B;" d="M97 0L97 705L139 705L139 39L517 39L517 0L97 0M291-259L265-239Q288-213 295.50-191Q303-169 303-144L318-151L268-151L268-86L338-86L338-140Q338-174 326-204.50Q314-235 291-259Z"  horiz-adv-x="532" vert-adv-y="1000"  />

      
      <glyph glyph-name="uni013F" unicode="&#x013F;" d="M97 0L97 705L139 705L139 39L517 39L517 0L97 0M350 352L350 420L419 420L419 352L350 352Z"  horiz-adv-x="532" vert-adv-y="1000"  />

      
      <glyph glyph-name="uni1E36" unicode="&#x1E36;" d="M97 0L97 705L139 705L139 39L517 39L517 0L97 0M271-172L271-109L335-109L335-172L271-172Z"  horiz-adv-x="532" vert-adv-y="1000"  />

      
      <glyph glyph-name="uni01C8" unicode="&#x01C8;" d="M97 0L97 705L139 705L139 39L517 39L517 0L97 0M541-218Q531-218 511.50-214.50Q492-211 481-207L481-167Q492-171 509-175Q526-179 539-179Q586-179 607-148Q628-117 628-51L628 500L670 500L670-60Q670-138 637-178Q604-218 541-218M617 631L617 694L681 694L681 631L617 631Z"  horiz-adv-x="750" vert-adv-y="1000"  />

      
      <glyph glyph-name="uni1E3A" unicode="&#x1E3A;" d="M97 0L97 705L139 705L139 39L517 39L517 0L97 0M163-148L163-110L443-110L443-148L163-148Z"  horiz-adv-x="532" vert-adv-y="1000"  />

      
      <glyph glyph-name="uni0141" unicode="&#x0141;" d="M97 0L97 705L139 705L139 39L517 39L517 0L97 0M11 277L-9 311L315 497L335 464L11 277Z"  horiz-adv-x="532" vert-adv-y="1000"  />

      
      <glyph glyph-name="uni4d" unicode="&#x4d;" d="M97 0L97 705L134 705L438 17L410 17L715 705L751 705L751 0L712 0L712 664L736 664L442 0L407 0L112 665L136 665L136 0L97 0Z"  horiz-adv-x="848" vert-adv-y="1000"  />

      
      <glyph glyph-name="uni1E42" unicode="&#x1E42;" d="M97 0L97 705L134 705L438 17L410 17L715 705L751 705L751 0L712 0L712 664L736 664L442 0L407 0L112 665L136 665L136 0L97 0M392-172L392-109L456-109L456-172L392-172Z"  horiz-adv-x="848" vert-adv-y="1000"  />

      
      <glyph glyph-name="uni4e" unicode="&#x4e;" d="M97 0L97 705L133 705L624 42L603 42L603 705L642 705L642 0L607 0L116 663L136 663L136 0L97 0Z"  horiz-adv-x="739" vert-adv-y="1000"  />

      
      <glyph glyph-name="uni01CA" unicode="&#x01CA;" d="M97 0L97 705L133 705L624 42L603 42L603 705L642 705L642 0L607 0L116 663L136 663L136 0L97 0M809-186Q793-186 775.50-184.50Q758-183 739-178L739-139Q758-143 773.50-145.50Q789-148 803-148Q849-148 874.50-118Q900-88 900-24L900 705L942 705L942-26Q942-76 927-112Q912-148 882.50-167Q853-186 809-186Z"  horiz-adv-x="1039" vert-adv-y="1000"  />

      
      <glyph glyph-name="uni0143" unicode="&#x0143;" d="M97 0L97 705L133 705L624 42L603 42L603 705L642 705L642 0L607 0L116 663L136 663L136 0L97 0M351 765L469 935L525 935L389 765L351 765Z"  horiz-adv-x="739" vert-adv-y="1000"  />

      
      <glyph glyph-name="uni0147" unicode="&#x0147;" d="M97 0L97 705L133 705L624 42L603 42L603 705L642 705L642 0L607 0L116 663L136 663L136 0L97 0M346 765L225 935L262 935L370 803L478 935L515 935L394 765L346 765Z"  horiz-adv-x="739" vert-adv-y="1000"  />

      
      <glyph glyph-name="uni0145" unicode="&#x0145;" d="M97 0L97 705L133 705L624 42L603 42L603 705L642 705L642 0L607 0L116 663L136 663L136 0L97 0M358-259L332-239Q355-213 362.50-191Q370-169 370-144L385-151L335-151L335-86L405-86L405-140Q405-174 393-204.50Q381-235 358-259Z"  horiz-adv-x="739" vert-adv-y="1000"  />

      
      <glyph glyph-name="uni1E44" unicode="&#x1E44;" d="M97 0L97 705L133 705L624 42L603 42L603 705L642 705L642 0L607 0L116 663L136 663L136 0L97 0M339 818L339 881L401 881L401 818L339 818Z"  horiz-adv-x="739" vert-adv-y="1000"  />

      
      <glyph glyph-name="uni1E46" unicode="&#x1E46;" d="M97 0L97 705L133 705L624 42L603 42L603 705L642 705L642 0L607 0L116 663L136 663L136 0L97 0M338-172L338-109L402-109L402-172L338-172Z"  horiz-adv-x="739" vert-adv-y="1000"  />

      
      <glyph glyph-name="uni014A" unicode="&#x014A;" d="M451-193L448-155L491-152Q545-148 574-115Q603-82 603-22L603 26L607 0L116 663L136 663L136 0L97 0L97 705L133 705L624 42L603 42L603 705L642 705L642-21Q642-72 624.50-109Q607-146 574.50-166.50Q542-187 496-190L451-193Z"  horiz-adv-x="739" vert-adv-y="1000"  />

      
      <glyph glyph-name="uni01CB" unicode="&#x01CB;" d="M97 0L97 705L133 705L624 42L603 42L603 705L642 705L642 0L607 0L116 663L136 663L136 0L97 0M748-218Q738-218 718.50-214.50Q699-211 688-207L688-167Q699-171 716-175Q733-179 746-179Q793-179 814-148Q835-117 835-51L835 500L877 500L877-60Q877-138 844-178Q811-218 748-218M824 631L824 694L888 694L888 631L824 631Z"  horiz-adv-x="957" vert-adv-y="1000"  />

      
      <glyph glyph-name="uni1E48" unicode="&#x1E48;" d="M97 0L97 705L133 705L624 42L603 42L603 705L642 705L642 0L607 0L116 663L136 663L136 0L97 0M230-148L230-110L510-110L510-148L230-148Z"  horiz-adv-x="739" vert-adv-y="1000"  />

      
      <glyph glyph-name="unid1" unicode="&#xd1;" d="M97 0L97 705L133 705L624 42L603 42L603 705L642 705L642 0L607 0L116 663L136 663L136 0L97 0M206 792L174 794Q181 852 209 883.50Q237 915 281 915Q304 915 327 904Q350 893 383 869Q415 847 431 838.50Q447 830 462 830Q492 830 509.50 852.50Q527 875 534 917L566 915Q559 857 531.50 825.50Q504 794 460 794Q438 794 414 805Q390 816 354 842Q326 863 309 871Q292 879 278 879Q248 879 230.50 856.50Q213 834 206 792Z"  horiz-adv-x="739" vert-adv-y="1000"  />

      
      <glyph glyph-name="uni4f" unicode="&#x4f;" d="M68 353Q68 465 104.50 545.50Q141 626 210.50 669.50Q280 713 379 713Q475 713 545 669.50Q615 626 653 545.50Q691 465 691 354Q691 242 652.50 161Q614 80 544 36Q474-8 379-8Q281-8 211.50 36Q142 80 105 161Q68 242 68 353M113 353Q113 202 181 117.50Q249 33 379 33Q504 33 575 117Q646 201 646 353Q646 505 575.50 588.50Q505 672 379 672Q249 672 181 588.50Q113 505 113 353Z"  horiz-adv-x="759" vert-adv-y="1000"  />

      
      <glyph glyph-name="unid3" unicode="&#xd3;" d="M68 353Q68 465 104.50 545.50Q141 626 210.50 669.50Q280 713 379 713Q475 713 545 669.50Q615 626 653 545.50Q691 465 691 354Q691 242 652.50 161Q614 80 544 36Q474-8 379-8Q281-8 211.50 36Q142 80 105 161Q68 242 68 353M113 353Q113 202 181 117.50Q249 33 379 33Q504 33 575 117Q646 201 646 353Q646 505 575.50 588.50Q505 672 379 672Q249 672 181 588.50Q113 505 113 353M360 765L478 935L534 935L398 765L360 765Z"  horiz-adv-x="759" vert-adv-y="1000"  />

      
      <glyph glyph-name="uni014E" unicode="&#x014E;" d="M68 353Q68 465 104.50 545.50Q141 626 210.50 669.50Q280 713 379 713Q475 713 545 669.50Q615 626 653 545.50Q691 465 691 354Q691 242 652.50 161Q614 80 544 36Q474-8 379-8Q281-8 211.50 36Q142 80 105 161Q68 242 68 353M113 353Q113 202 181 117.50Q249 33 379 33Q504 33 575 117Q646 201 646 353Q646 505 575.50 588.50Q505 672 379 672Q249 672 181 588.50Q113 505 113 353M379 760Q315 760 272 804.50Q229 849 222 927L255 931Q260 867 293 831.50Q326 796 379 796Q432 796 465.50 831.50Q499 867 503 931L536 927Q529 849 486 804.50Q443 760 379 760Z"  horiz-adv-x="759" vert-adv-y="1000"  />

      
      <glyph glyph-name="unid4" unicode="&#xd4;" d="M68 353Q68 465 104.50 545.50Q141 626 210.50 669.50Q280 713 379 713Q475 713 545 669.50Q615 626 653 545.50Q691 465 691 354Q691 242 652.50 161Q614 80 544 36Q474-8 379-8Q281-8 211.50 36Q142 80 105 161Q68 242 68 353M113 353Q113 202 181 117.50Q249 33 379 33Q504 33 575 117Q646 201 646 353Q646 505 575.50 588.50Q505 672 379 672Q249 672 181 588.50Q113 505 113 353M234 765L355 935L403 935L524 765L487 765L379 897L271 765L234 765Z"  horiz-adv-x="759" vert-adv-y="1000"  />

      
      <glyph glyph-name="uni1ED0" unicode="&#x1ED0;" d="M68 353Q68 465 104.50 545.50Q141 626 210.50 669.50Q280 713 379 713Q475 713 545 669.50Q615 626 653 545.50Q691 465 691 354Q691 242 652.50 161Q614 80 544 36Q474-8 379-8Q281-8 211.50 36Q142 80 105 161Q68 242 68 353M113 353Q113 202 181 117.50Q249 33 379 33Q504 33 575 117Q646 201 646 353Q646 505 575.50 588.50Q505 672 379 672Q249 672 181 588.50Q113 505 113 353M246 765L355 925L403 925L512 765L478 765L379 888L280 765L246 765M460 866L548 1016L602 1016L496 866L460 866Z"  horiz-adv-x="759" vert-adv-y="1000"  />

      
      <glyph glyph-name="uni1ED8" unicode="&#x1ED8;" d="M68 353Q68 465 104.50 545.50Q141 626 210.50 669.50Q280 713 379 713Q475 713 545 669.50Q615 626 653 545.50Q691 465 691 354Q691 242 652.50 161Q614 80 544 36Q474-8 379-8Q281-8 211.50 36Q142 80 105 161Q68 242 68 353M113 353Q113 202 181 117.50Q249 33 379 33Q504 33 575 117Q646 201 646 353Q646 505 575.50 588.50Q505 672 379 672Q249 672 181 588.50Q113 505 113 353M347-172L347-109L411-109L411-172L347-172M234 765L355 935L403 935L524 765L487 765L379 897L271 765L234 765Z"  horiz-adv-x="759" vert-adv-y="1000"  />

      
      <glyph glyph-name="uni1ED2" unicode="&#x1ED2;" d="M68 353Q68 465 104.50 545.50Q141 626 210.50 669.50Q280 713 379 713Q475 713 545 669.50Q615 626 653 545.50Q691 465 691 354Q691 242 652.50 161Q614 80 544 36Q474-8 379-8Q281-8 211.50 36Q142 80 105 161Q68 242 68 353M113 353Q113 202 181 117.50Q249 33 379 33Q504 33 575 117Q646 201 646 353Q646 505 575.50 588.50Q505 672 379 672Q249 672 181 588.50Q113 505 113 353M246 765L355 925L403 925L512 765L478 765L379 888L280 765L246 765M501 866L395 1016L449 1016L537 866L501 866Z"  horiz-adv-x="759" vert-adv-y="1000"  />

      
      <glyph glyph-name="uni1ED4" unicode="&#x1ED4;" d="M68 353Q68 465 104.50 545.50Q141 626 210.50 669.50Q280 713 379 713Q475 713 545 669.50Q615 626 653 545.50Q691 465 691 354Q691 242 652.50 161Q614 80 544 36Q474-8 379-8Q281-8 211.50 36Q142 80 105 161Q68 242 68 353M113 353Q113 202 181 117.50Q249 33 379 33Q504 33 575 117Q646 201 646 353Q646 505 575.50 588.50Q505 672 379 672Q249 672 181 588.50Q113 505 113 353M246 765L355 925L403 925L512 765L478 765L379 888L280 765L246 765M472 866Q472 890 482 904Q492 918 505.50 926.50Q519 935 529 943.50Q539 952 539 965Q539 978 526.50 982.50Q514 987 487 987Q474 987 458.50 984.50Q443 982 424 975L415 1004Q431 1012 450.50 1016Q470 1020 491 1020Q533 1020 555.50 1006Q578 992 578 968Q578 947 567 935.50Q556 924 542 915.50Q528 907 517 896Q506 885 506 866L472 866Z"  horiz-adv-x="759" vert-adv-y="1000"  />

      
      <glyph glyph-name="uni1ED6" unicode="&#x1ED6;" d="M68 353Q68 465 104.50 545.50Q141 626 210.50 669.50Q280 713 379 713Q475 713 545 669.50Q615 626 653 545.50Q691 465 691 354Q691 242 652.50 161Q614 80 544 36Q474-8 379-8Q281-8 211.50 36Q142 80 105 161Q68 242 68 353M113 353Q113 202 181 117.50Q249 33 379 33Q504 33 575 117Q646 201 646 353Q646 505 575.50 588.50Q505 672 379 672Q249 672 181 588.50Q113 505 113 353M246 765L355 895L403 895L512 765L478 765L379 861L280 765L246 765M266 918L233 920Q238 968 260 992Q282 1016 316 1016Q335 1016 351 1008Q367 1000 388 983Q410 966 421 961Q432 956 442 956Q465 956 476 970.50Q487 985 492 1018L525 1016Q521 968 499.50 944Q478 920 443 920Q424 920 407.50 928.50Q391 937 365 957Q355 965 342.50 972.50Q330 980 316 980Q294 980 282.50 965.50Q271 951 266 918Z"  horiz-adv-x="759" vert-adv-y="1000"  />

      
      <glyph glyph-name="uni020C" unicode="&#x020C;" d="M68 353Q68 465 104.50 545.50Q141 626 210.50 669.50Q280 713 379 713Q475 713 545 669.50Q615 626 653 545.50Q691 465 691 354Q691 242 652.50 161Q614 80 544 36Q474-8 379-8Q281-8 211.50 36Q142 80 105 161Q68 242 68 353M113 353Q113 202 181 117.50Q249 33 379 33Q504 33 575 117Q646 201 646 353Q646 505 575.50 588.50Q505 672 379 672Q249 672 181 588.50Q113 505 113 353M420 765L309 935L361 935L447 765L420 765M311 765L201 935L253 935L338 765L311 765Z"  horiz-adv-x="759" vert-adv-y="1000"  />

      
      <glyph glyph-name="unid6" unicode="&#xd6;" d="M68 353Q68 465 104.50 545.50Q141 626 210.50 669.50Q280 713 379 713Q475 713 545 669.50Q615 626 653 545.50Q691 465 691 354Q691 242 652.50 161Q614 80 544 36Q474-8 379-8Q281-8 211.50 36Q142 80 105 161Q68 242 68 353M113 353Q113 202 181 117.50Q249 33 379 33Q504 33 575 117Q646 201 646 353Q646 505 575.50 588.50Q505 672 379 672Q249 672 181 588.50Q113 505 113 353M429 820L429 880L490 880L490 820L429 820M268 820L268 880L329 880L329 820L268 820Z"  horiz-adv-x="759" vert-adv-y="1000"  />

      
      <glyph glyph-name="uni022A" unicode="&#x022A;" d="M68 353Q68 465 104.50 545.50Q141 626 210.50 669.50Q280 713 379 713Q475 713 545 669.50Q615 626 653 545.50Q691 465 691 354Q691 242 652.50 161Q614 80 544 36Q474-8 379-8Q281-8 211.50 36Q142 80 105 161Q68 242 68 353M113 353Q113 202 181 117.50Q249 33 379 33Q504 33 575 117Q646 201 646 353Q646 505 575.50 588.50Q505 672 379 672Q249 672 181 588.50Q113 505 113 353M239 927L239 965L519 965L519 927L239 927M268 806L268 866L329 866L329 806L268 806M429 806L429 866L490 866L490 806L429 806Z"  horiz-adv-x="759" vert-adv-y="1000"  />

      
      <glyph glyph-name="uni0230" unicode="&#x0230;" d="M68 353Q68 465 104.50 545.50Q141 626 210.50 669.50Q280 713 379 713Q475 713 545 669.50Q615 626 653 545.50Q691 465 691 354Q691 242 652.50 161Q614 80 544 36Q474-8 379-8Q281-8 211.50 36Q142 80 105 161Q68 242 68 353M113 353Q113 202 181 117.50Q249 33 379 33Q504 33 575 117Q646 201 646 353Q646 505 575.50 588.50Q505 672 379 672Q249 672 181 588.50Q113 505 113 353M239 927L239 965L519 965L519 927L239 927M349 806L349 866L410 866L410 806L349 806Z"  horiz-adv-x="759" vert-adv-y="1000"  />

      
      <glyph glyph-name="uni1ECC" unicode="&#x1ECC;" d="M68 353Q68 465 104.50 545.50Q141 626 210.50 669.50Q280 713 379 713Q475 713 545 669.50Q615 626 653 545.50Q691 465 691 354Q691 242 652.50 161Q614 80 544 36Q474-8 379-8Q281-8 211.50 36Q142 80 105 161Q68 242 68 353M113 353Q113 202 181 117.50Q249 33 379 33Q504 33 575 117Q646 201 646 353Q646 505 575.50 588.50Q505 672 379 672Q249 672 181 588.50Q113 505 113 353M347-172L347-109L411-109L411-172L347-172Z"  horiz-adv-x="759" vert-adv-y="1000"  />

      
      <glyph glyph-name="unid2" unicode="&#xd2;" d="M68 353Q68 465 104.50 545.50Q141 626 210.50 669.50Q280 713 379 713Q475 713 545 669.50Q615 626 653 545.50Q691 465 691 354Q691 242 652.50 161Q614 80 544 36Q474-8 379-8Q281-8 211.50 36Q142 80 105 161Q68 242 68 353M113 353Q113 202 181 117.50Q249 33 379 33Q504 33 575 117Q646 201 646 353Q646 505 575.50 588.50Q505 672 379 672Q249 672 181 588.50Q113 505 113 353M360 765L224 935L280 935L398 765L360 765Z"  horiz-adv-x="759" vert-adv-y="1000"  />

      
      <glyph glyph-name="uni1ECE" unicode="&#x1ECE;" d="M68 353Q68 465 104.50 545.50Q141 626 210.50 669.50Q280 713 379 713Q475 713 545 669.50Q615 626 653 545.50Q691 465 691 354Q691 242 652.50 161Q614 80 544 36Q474-8 379-8Q281-8 211.50 36Q142 80 105 161Q68 242 68 353M113 353Q113 202 181 117.50Q249 33 379 33Q504 33 575 117Q646 201 646 353Q646 505 575.50 588.50Q505 672 379 672Q249 672 181 588.50Q113 505 113 353M360 765L360 779Q360 801 370.50 814.50Q381 828 394.50 837.50Q408 847 418.50 856Q429 865 429 878Q429 890 416.50 897Q404 904 377 904Q362 904 346.50 900.50Q331 897 312 888L303 921Q336 940 381 940Q423 940 446.50 923.50Q470 907 470 880Q470 859 459 846.50Q448 834 434 825.50Q420 817 409 806Q398 795 398 775L398 765L360 765Z"  horiz-adv-x="759" vert-adv-y="1000"  />

      
      <glyph glyph-name="uni01A0" unicode="&#x01A0;" d="M68 353Q68 465 104.50 545.50Q141 626 210.50 669.50Q280 713 379 713Q475 713 545 669.50Q615 626 653 545.50Q691 465 691 354Q691 242 652.50 161Q614 80 544 36Q474-8 379-8Q281-8 211.50 36Q142 80 105 161Q68 242 68 353M113 353Q113 202 181 117.50Q249 33 379 33Q504 33 575 117Q646 201 646 353Q646 505 575.50 588.50Q505 672 379 672Q249 672 181 588.50Q113 505 113 353M489 667L435 709Q464 707 485.50 706Q507 705 529 705Q578 705 603.50 718.50Q629 732 639 759Q649 786 649 825L649 837L689 837L689 817Q689 770 672 736.50Q655 703 623 685Q591 667 545 667L489 667Z"  horiz-adv-x="759" vert-adv-y="1000"  />

      
      <glyph glyph-name="uni1EDA" unicode="&#x1EDA;" d="M68 353Q68 465 104.50 545.50Q141 626 210.50 669.50Q280 713 379 713Q475 713 545 669.50Q615 626 653 545.50Q691 465 691 354Q691 242 652.50 161Q614 80 544 36Q474-8 379-8Q281-8 211.50 36Q142 80 105 161Q68 242 68 353M113 353Q113 202 181 117.50Q249 33 379 33Q504 33 575 117Q646 201 646 353Q646 505 575.50 588.50Q505 672 379 672Q249 672 181 588.50Q113 505 113 353M489 667L435 709Q464 707 485.50 706Q507 705 529 705Q578 705 603.50 718.50Q629 732 639 759Q649 786 649 825L649 837L689 837L689 817Q689 770 672 736.50Q655 703 623 685Q591 667 545 667L489 667M368 765L486 935L542 935L406 765L368 765Z"  horiz-adv-x="759" vert-adv-y="1000"  />

      
      <glyph glyph-name="uni1EE2" unicode="&#x1EE2;" d="M68 353Q68 465 104.50 545.50Q141 626 210.50 669.50Q280 713 379 713Q475 713 545 669.50Q615 626 653 545.50Q691 465 691 354Q691 242 652.50 161Q614 80 544 36Q474-8 379-8Q281-8 211.50 36Q142 80 105 161Q68 242 68 353M113 353Q113 202 181 117.50Q249 33 379 33Q504 33 575 117Q646 201 646 353Q646 505 575.50 588.50Q505 672 379 672Q249 672 181 588.50Q113 505 113 353M489 667L435 709Q464 707 485.50 706Q507 705 529 705Q578 705 603.50 718.50Q629 732 639 759Q649 786 649 825L649 837L689 837L689 817Q689 770 672 736.50Q655 703 623 685Q591 667 545 667L489 667M356-172L356-109L420-109L420-172L356-172Z"  horiz-adv-x="759" vert-adv-y="1000"  />

      
      <glyph glyph-name="uni1EDC" unicode="&#x1EDC;" d="M68 353Q68 465 104.50 545.50Q141 626 210.50 669.50Q280 713 379 713Q475 713 545 669.50Q615 626 653 545.50Q691 465 691 354Q691 242 652.50 161Q614 80 544 36Q474-8 379-8Q281-8 211.50 36Q142 80 105 161Q68 242 68 353M113 353Q113 202 181 117.50Q249 33 379 33Q504 33 575 117Q646 201 646 353Q646 505 575.50 588.50Q505 672 379 672Q249 672 181 588.50Q113 505 113 353M489 667L435 709Q464 707 485.50 706Q507 705 529 705Q578 705 603.50 718.50Q629 732 639 759Q649 786 649 825L649 837L689 837L689 817Q689 770 672 736.50Q655 703 623 685Q591 667 545 667L489 667M368 765L232 935L288 935L406 765L368 765Z"  horiz-adv-x="759" vert-adv-y="1000"  />

      
      <glyph glyph-name="uni1EDE" unicode="&#x1EDE;" d="M68 353Q68 465 104.50 545.50Q141 626 210.50 669.50Q280 713 379 713Q475 713 545 669.50Q615 626 653 545.50Q691 465 691 354Q691 242 652.50 161Q614 80 544 36Q474-8 379-8Q281-8 211.50 36Q142 80 105 161Q68 242 68 353M113 353Q113 202 181 117.50Q249 33 379 33Q504 33 575 117Q646 201 646 353Q646 505 575.50 588.50Q505 672 379 672Q249 672 181 588.50Q113 505 113 353M489 667L435 709Q464 707 485.50 706Q507 705 529 705Q578 705 603.50 718.50Q629 732 639 759Q649 786 649 825L649 837L689 837L689 817Q689 770 672 736.50Q655 703 623 685Q591 667 545 667L489 667M368 765L368 779Q368 801 378.50 814.50Q389 828 402.50 837.50Q416 847 426.50 856Q437 865 437 878Q437 890 424.50 897Q412 904 385 904Q370 904 354.50 900.50Q339 897 320 888L311 921Q344 940 389 940Q431 940 454.50 923.50Q478 907 478 880Q478 859 467 846.50Q456 834 442 825.50Q428 817 417 806Q406 795 406 775L406 765L368 765Z"  horiz-adv-x="759" vert-adv-y="1000"  />

      
      <glyph glyph-name="uni1EE0" unicode="&#x1EE0;" d="M68 353Q68 465 104.50 545.50Q141 626 210.50 669.50Q280 713 379 713Q475 713 545 669.50Q615 626 653 545.50Q691 465 691 354Q691 242 652.50 161Q614 80 544 36Q474-8 379-8Q281-8 211.50 36Q142 80 105 161Q68 242 68 353M113 353Q113 202 181 117.50Q249 33 379 33Q504 33 575 117Q646 201 646 353Q646 505 575.50 588.50Q505 672 379 672Q249 672 181 588.50Q113 505 113 353M489 667L435 709Q464 707 485.50 706Q507 705 529 705Q578 705 603.50 718.50Q629 732 639 759Q649 786 649 825L649 837L689 837L689 817Q689 770 672 736.50Q655 703 623 685Q591 667 545 667L489 667M233 792L201 794Q208 852 236 883.50Q264 915 308 915Q331 915 352.50 903.50Q374 892 399 869Q422 849 437.50 839.50Q453 830 469 830Q499 830 516.50 852.50Q534 875 541 917L573 915Q566 857 538.50 825.50Q511 794 467 794Q442 794 420.50 806.50Q399 819 375 840Q352 861 335.50 870Q319 879 305 879Q275 879 257.50 856.50Q240 834 233 792Z"  horiz-adv-x="759" vert-adv-y="1000"  />

      
      <glyph glyph-name="uni0150" unicode="&#x0150;" d="M68 353Q68 465 104.50 545.50Q141 626 210.50 669.50Q280 713 379 713Q475 713 545 669.50Q615 626 653 545.50Q691 465 691 354Q691 242 652.50 161Q614 80 544 36Q474-8 379-8Q281-8 211.50 36Q142 80 105 161Q68 242 68 353M113 353Q113 202 181 117.50Q249 33 379 33Q504 33 575 117Q646 201 646 353Q646 505 575.50 588.50Q505 672 379 672Q249 672 181 588.50Q113 505 113 353M311 765L397 935L449 935L338 765L311 765M420 765L505 935L557 935L447 765L420 765Z"  horiz-adv-x="759" vert-adv-y="1000"  />

      
      <glyph glyph-name="uni020E" unicode="&#x020E;" d="M68 353Q68 465 104.50 545.50Q141 626 210.50 669.50Q280 713 379 713Q475 713 545 669.50Q615 626 653 545.50Q691 465 691 354Q691 242 652.50 161Q614 80 544 36Q474-8 379-8Q281-8 211.50 36Q142 80 105 161Q68 242 68 353M113 353Q113 202 181 117.50Q249 33 379 33Q504 33 575 117Q646 201 646 353Q646 505 575.50 588.50Q505 672 379 672Q249 672 181 588.50Q113 505 113 353M255 760L222 764Q229 842 272 886.50Q315 931 379 931Q443 931 486 886.50Q529 842 536 764L503 760Q499 825 465.50 860Q432 895 379 895Q326 895 293 860Q260 825 255 760Z"  horiz-adv-x="759" vert-adv-y="1000"  />

      
      <glyph glyph-name="uni014C" unicode="&#x014C;" d="M68 353Q68 465 104.50 545.50Q141 626 210.50 669.50Q280 713 379 713Q475 713 545 669.50Q615 626 653 545.50Q691 465 691 354Q691 242 652.50 161Q614 80 544 36Q474-8 379-8Q281-8 211.50 36Q142 80 105 161Q68 242 68 353M113 353Q113 202 181 117.50Q249 33 379 33Q504 33 575 117Q646 201 646 353Q646 505 575.50 588.50Q505 672 379 672Q249 672 181 588.50Q113 505 113 353M224 822L224 860L534 860L534 822L224 822Z"  horiz-adv-x="759" vert-adv-y="1000"  />

      
      <glyph glyph-name="uni1E52" unicode="&#x1E52;" d="M68 353Q68 465 104.50 545.50Q141 626 210.50 669.50Q280 713 379 713Q475 713 545 669.50Q615 626 653 545.50Q691 465 691 354Q691 242 652.50 161Q614 80 544 36Q474-8 379-8Q281-8 211.50 36Q142 80 105 161Q68 242 68 353M113 353Q113 202 181 117.50Q249 33 379 33Q504 33 575 117Q646 201 646 353Q646 505 575.50 588.50Q505 672 379 672Q249 672 181 588.50Q113 505 113 353M239 796L239 834L519 834L519 796L239 796M361 871L459 1021L513 1021L397 871L361 871Z"  horiz-adv-x="759" vert-adv-y="1000"  />

      
      <glyph glyph-name="uni1E50" unicode="&#x1E50;" d="M68 353Q68 465 104.50 545.50Q141 626 210.50 669.50Q280 713 379 713Q475 713 545 669.50Q615 626 653 545.50Q691 465 691 354Q691 242 652.50 161Q614 80 544 36Q474-8 379-8Q281-8 211.50 36Q142 80 105 161Q68 242 68 353M113 353Q113 202 181 117.50Q249 33 379 33Q504 33 575 117Q646 201 646 353Q646 505 575.50 588.50Q505 672 379 672Q249 672 181 588.50Q113 505 113 353M361 871L245 1021L299 1021L397 871L361 871M239 796L239 834L519 834L519 796L239 796Z"  horiz-adv-x="759" vert-adv-y="1000"  />

      
      <glyph glyph-name="uni01EA" unicode="&#x01EA;" d="M68 353Q68 465 104.50 545.50Q141 626 210.50 669.50Q280 713 379 713Q475 713 545 669.50Q615 626 653 545.50Q691 465 691 354Q691 242 652.50 161Q614 80 544 36Q474-8 379-8Q281-8 211.50 36Q142 80 105 161Q68 242 68 353M113 353Q113 202 181 117.50Q249 33 379 33Q504 33 575 117Q646 201 646 353Q646 505 575.50 588.50Q505 672 379 672Q249 672 181 588.50Q113 505 113 353M419-190Q378-190 351.50-165Q325-140 325-98Q325-60 348.50-25.50Q372 9 415 31L436 0Q421-6 404.50-19Q388-32 376-51Q364-70 364-94Q364-125 381.50-139.50Q399-154 424-154Q437-154 450-151Q463-148 477-141L490-173Q480-180 461-185Q442-190 419-190Z"  horiz-adv-x="759" vert-adv-y="1000"  />

      
      <glyph glyph-name="unid8" unicode="&#xd8;" d="M68 353Q68 465 104.50 545.50Q141 626 210.50 669.50Q280 713 379 713Q475 713 545 669.50Q615 626 653 545.50Q691 465 691 354Q691 242 652.50 161Q614 80 544 36Q474-8 379-8Q281-8 211.50 36Q142 80 105 161Q68 242 68 353M113 353Q113 202 181 117.50Q249 33 379 33Q504 33 575 117Q646 201 646 353Q646 505 575.50 588.50Q505 672 379 672Q249 672 181 588.50Q113 505 113 353M221 43L175-35L142-17L188 62L201 84L525 640L538 662L584 740L617 722L571 643L558 621L234 65L221 43Z"  horiz-adv-x="759" vert-adv-y="1000"  />

      
      <glyph glyph-name="uni01FE" unicode="&#x01FE;" d="M68 353Q68 465 104.50 545.50Q141 626 210.50 669.50Q280 713 379 713Q475 713 545 669.50Q615 626 653 545.50Q691 465 691 354Q691 242 652.50 161Q614 80 544 36Q474-8 379-8Q281-8 211.50 36Q142 80 105 161Q68 242 68 353M113 353Q113 202 181 117.50Q249 33 379 33Q504 33 575 117Q646 201 646 353Q646 505 575.50 588.50Q505 672 379 672Q249 672 181 588.50Q113 505 113 353M221 43L175-35L142-17L188 62L201 84L525 640L538 662L584 740L617 722L571 643L558 621L234 65L221 43M360 765L478 935L534 935L398 765L360 765Z"  horiz-adv-x="759" vert-adv-y="1000"  />

      
      <glyph glyph-name="unid5" unicode="&#xd5;" d="M68 353Q68 465 104.50 545.50Q141 626 210.50 669.50Q280 713 379 713Q475 713 545 669.50Q615 626 653 545.50Q691 465 691 354Q691 242 652.50 161Q614 80 544 36Q474-8 379-8Q281-8 211.50 36Q142 80 105 161Q68 242 68 353M113 353Q113 202 181 117.50Q249 33 379 33Q504 33 575 117Q646 201 646 353Q646 505 575.50 588.50Q505 672 379 672Q249 672 181 588.50Q113 505 113 353M215 792L183 794Q190 852 218 883.50Q246 915 290 915Q313 915 336 904Q359 893 392 869Q424 847 440 838.50Q456 830 471 830Q501 830 518.50 852.50Q536 875 543 917L575 915Q568 857 540.50 825.50Q513 794 469 794Q447 794 423 805Q399 816 363 842Q335 863 318 871Q301 879 287 879Q257 879 239.50 856.50Q222 834 215 792Z"  horiz-adv-x="759" vert-adv-y="1000"  />

      
      <glyph glyph-name="uni1E4C" unicode="&#x1E4C;" d="M68 353Q68 465 104.50 545.50Q141 626 210.50 669.50Q280 713 379 713Q475 713 545 669.50Q615 626 653 545.50Q691 465 691 354Q691 242 652.50 161Q614 80 544 36Q474-8 379-8Q281-8 211.50 36Q142 80 105 161Q68 242 68 353M113 353Q113 202 181 117.50Q249 33 379 33Q504 33 575 117Q646 201 646 353Q646 505 575.50 588.50Q505 672 379 672Q249 672 181 588.50Q113 505 113 353M361 871L459 1021L513 1021L397 871L361 871M443 768Q425 768 408.50 776Q392 784 369 802Q349 819 337.50 823.50Q326 828 316 828Q294 828 282.50 813.50Q271 799 266 766L233 768Q238 816 260 840Q282 864 316 864Q333 864 348 857Q363 850 385 833Q407 816 419 810Q431 804 442 804Q465 804 476 818.50Q487 833 492 866L525 864Q521 816 499 792Q477 768 443 768Z"  horiz-adv-x="759" vert-adv-y="1000"  />

      
      <glyph glyph-name="uni1E4E" unicode="&#x1E4E;" d="M68 353Q68 465 104.50 545.50Q141 626 210.50 669.50Q280 713 379 713Q475 713 545 669.50Q615 626 653 545.50Q691 465 691 354Q691 242 652.50 161Q614 80 544 36Q474-8 379-8Q281-8 211.50 36Q142 80 105 161Q68 242 68 353M113 353Q113 202 181 117.50Q249 33 379 33Q504 33 575 117Q646 201 646 353Q646 505 575.50 588.50Q505 672 379 672Q249 672 181 588.50Q113 505 113 353M443 768Q425 768 408.50 776Q392 784 369 802Q349 819 337.50 823.50Q326 828 316 828Q294 828 282.50 813.50Q271 799 266 766L233 768Q238 816 260 840Q282 864 316 864Q333 864 348 857Q363 850 385 833Q407 816 419 810Q431 804 442 804Q465 804 476 818.50Q487 833 492 866L525 864Q521 816 499 792Q477 768 443 768M268 910L268 970L329 970L329 910L268 910M429 910L429 970L490 970L490 910L429 910Z"  horiz-adv-x="759" vert-adv-y="1000"  />

      
      <glyph glyph-name="uni022C" unicode="&#x022C;" d="M68 353Q68 465 104.50 545.50Q141 626 210.50 669.50Q280 713 379 713Q475 713 545 669.50Q615 626 653 545.50Q691 465 691 354Q691 242 652.50 161Q614 80 544 36Q474-8 379-8Q281-8 211.50 36Q142 80 105 161Q68 242 68 353M113 353Q113 202 181 117.50Q249 33 379 33Q504 33 575 117Q646 201 646 353Q646 505 575.50 588.50Q505 672 379 672Q249 672 181 588.50Q113 505 113 353M239 927L239 965L519 965L519 927L239 927M443 768Q425 768 408.50 776Q392 784 369 802Q349 819 337.50 823.50Q326 828 316 828Q294 828 282.50 813.50Q271 799 266 766L233 768Q238 816 260 840Q282 864 316 864Q333 864 348 857Q363 850 385 833Q407 816 419 810Q431 804 442 804Q465 804 476 818.50Q487 833 492 866L525 864Q521 816 499 792Q477 768 443 768Z"  horiz-adv-x="759" vert-adv-y="1000"  />

      
      <glyph glyph-name="uni0152" unicode="&#x0152;" d="M572 0L572 705L1000 705L1000 666L614 666L614 377L980 377L980 338L614 338L614 39L1000 39L1000 0L572 0M379-8Q281-8 211.50 36Q142 80 105 161Q68 242 68 353Q68 465 104.50 545.50Q141 626 210.50 669.50Q280 713 379 713Q444 713 497 698.50Q550 684 589 648L589 585Q555 635 502 653.50Q449 672 379 672Q249 672 181 588.50Q113 505 113 353Q113 202 181 117.50Q249 33 379 33Q451 33 505.50 57.50Q560 82 594 135L594 68Q567 43 534 26Q501 9 462 0.50Q423-8 379-8Z"  horiz-adv-x="1057" vert-adv-y="1000"  />

      
      <glyph glyph-name="uni50" unicode="&#x50;" d="M97 0L97 705L360 705Q467 705 526 654Q585 603 585 511Q585 420 526 368.50Q467 317 360 317L139 317L139 0L97 0M139 356L359 356Q448 356 494 396.50Q540 437 540 511Q540 585 494 625.50Q448 666 359 666L139 666L139 356Z"  horiz-adv-x="638" vert-adv-y="1000"  />

      
      <glyph glyph-name="unide" unicode="&#xde;" d="M97 0L97 705L139 705L139 559L360 559Q467 559 526 508Q585 457 585 365Q585 274 526 222.50Q467 171 360 171L139 171L139 0L97 0M139 210L359 210Q448 210 494 250.50Q540 291 540 365Q540 439 494 479.50Q448 520 359 520L139 520L139 210Z"  horiz-adv-x="638" vert-adv-y="1000"  />

      
      <glyph glyph-name="uni51" unicode="&#x51;" d="M571-191Q544-171 514.50-140Q485-109 458-72.50Q431-36 411 1L457 12Q484-40 523-83Q562-126 601-158L571-191M68 353Q68 465 104.50 545.50Q141 626 210.50 669.50Q280 713 379 713Q475 713 545 669.50Q615 626 653 545.50Q691 465 691 354Q691 242 652.50 161Q614 80 544 36Q474-8 379-8Q281-8 211.50 36Q142 80 105 161Q68 242 68 353M113 353Q113 202 181 117.50Q249 33 379 33Q504 33 575 117Q646 201 646 353Q646 505 575.50 588.50Q505 672 379 672Q249 672 181 588.50Q113 505 113 353Z"  horiz-adv-x="759" vert-adv-y="1000"  />

      
      <glyph glyph-name="uni52" unicode="&#x52;" d="M97 0L97 705L367 705Q474 705 533 655Q592 605 592 514Q592 455 565 413.50Q538 372 491.50 350.50Q445 329 385 329L406 337L414 337Q454 337 485.50 318.50Q517 300 536 252L633 0L586 0L498 236Q478 291 439.50 306.50Q401 322 340 322L139 322L139 0L97 0M139 361L363 361Q453 361 500 400.50Q547 440 547 514Q547 588 500 627Q453 666 363 666L139 666L139 361Z"  horiz-adv-x="684" vert-adv-y="1000"  />

      
      <glyph glyph-name="uni0154" unicode="&#x0154;" d="M97 0L97 705L367 705Q474 705 533 655Q592 605 592 514Q592 455 565 413.50Q538 372 491.50 350.50Q445 329 385 329L406 337L414 337Q454 337 485.50 318.50Q517 300 536 252L633 0L586 0L498 236Q478 291 439.50 306.50Q401 322 340 322L139 322L139 0L97 0M139 361L363 361Q453 361 500 400.50Q547 440 547 514Q547 588 500 627Q453 666 363 666L139 666L139 361M319 765L437 935L493 935L357 765L319 765Z"  horiz-adv-x="684" vert-adv-y="1000"  />

      
      <glyph glyph-name="uni0158" unicode="&#x0158;" d="M97 0L97 705L367 705Q474 705 533 655Q592 605 592 514Q592 455 565 413.50Q538 372 491.50 350.50Q445 329 385 329L406 337L414 337Q454 337 485.50 318.50Q517 300 536 252L633 0L586 0L498 236Q478 291 439.50 306.50Q401 322 340 322L139 322L139 0L97 0M139 361L363 361Q453 361 500 400.50Q547 440 547 514Q547 588 500 627Q453 666 363 666L139 666L139 361M314 765L193 935L230 935L338 803L446 935L483 935L362 765L314 765Z"  horiz-adv-x="684" vert-adv-y="1000"  />

      
      <glyph glyph-name="uni0156" unicode="&#x0156;" d="M97 0L97 705L367 705Q474 705 533 655Q592 605 592 514Q592 455 565 413.50Q538 372 491.50 350.50Q445 329 385 329L406 337L414 337Q454 337 485.50 318.50Q517 300 536 252L633 0L586 0L498 236Q478 291 439.50 306.50Q401 322 340 322L139 322L139 0L97 0M139 361L363 361Q453 361 500 400.50Q547 440 547 514Q547 588 500 627Q453 666 363 666L139 666L139 361M326-259L300-239Q323-213 330.50-191Q338-169 338-144L353-151L303-151L303-86L373-86L373-140Q373-174 361-204.50Q349-235 326-259Z"  horiz-adv-x="684" vert-adv-y="1000"  />

      
      <glyph glyph-name="uni0210" unicode="&#x0210;" d="M97 0L97 705L367 705Q474 705 533 655Q592 605 592 514Q592 455 565 413.50Q538 372 491.50 350.50Q445 329 385 329L406 337L414 337Q454 337 485.50 318.50Q517 300 536 252L633 0L586 0L498 236Q478 291 439.50 306.50Q401 322 340 322L139 322L139 0L97 0M139 361L363 361Q453 361 500 400.50Q547 440 547 514Q547 588 500 627Q453 666 363 666L139 666L139 361M379 765L268 935L320 935L406 765L379 765M270 765L160 935L212 935L297 765L270 765Z"  horiz-adv-x="684" vert-adv-y="1000"  />

      
      <glyph glyph-name="uni1E5A" unicode="&#x1E5A;" d="M97 0L97 705L367 705Q474 705 533 655Q592 605 592 514Q592 455 565 413.50Q538 372 491.50 350.50Q445 329 385 329L406 337L414 337Q454 337 485.50 318.50Q517 300 536 252L633 0L586 0L498 236Q478 291 439.50 306.50Q401 322 340 322L139 322L139 0L97 0M139 361L363 361Q453 361 500 400.50Q547 440 547 514Q547 588 500 627Q453 666 363 666L139 666L139 361M306-172L306-109L370-109L370-172L306-172Z"  horiz-adv-x="684" vert-adv-y="1000"  />

      
      <glyph glyph-name="uni0212" unicode="&#x0212;" d="M97 0L97 705L367 705Q474 705 533 655Q592 605 592 514Q592 455 565 413.50Q538 372 491.50 350.50Q445 329 385 329L406 337L414 337Q454 337 485.50 318.50Q517 300 536 252L633 0L586 0L498 236Q478 291 439.50 306.50Q401 322 340 322L139 322L139 0L97 0M139 361L363 361Q453 361 500 400.50Q547 440 547 514Q547 588 500 627Q453 666 363 666L139 666L139 361M214 760L181 764Q188 842 231 886.50Q274 931 338 931Q402 931 445 886.50Q488 842 495 764L462 760Q458 825 424.50 860Q391 895 338 895Q285 895 252 860Q219 825 214 760Z"  horiz-adv-x="684" vert-adv-y="1000"  />

      
      <glyph glyph-name="uni1E5E" unicode="&#x1E5E;" d="M97 0L97 705L367 705Q474 705 533 655Q592 605 592 514Q592 455 565 413.50Q538 372 491.50 350.50Q445 329 385 329L406 337L414 337Q454 337 485.50 318.50Q517 300 536 252L633 0L586 0L498 236Q478 291 439.50 306.50Q401 322 340 322L139 322L139 0L97 0M139 361L363 361Q453 361 500 400.50Q547 440 547 514Q547 588 500 627Q453 666 363 666L139 666L139 361M198-148L198-110L478-110L478-148L198-148Z"  horiz-adv-x="684" vert-adv-y="1000"  />

      
      <glyph glyph-name="uni53" unicode="&#x53;" d="M313-8Q228-8 165 14.50Q102 37 52 80L73 116Q110 87 144 68.50Q178 50 218.50 41.50Q259 33 312 33Q410 33 460.50 72.50Q511 112 511 178Q511 234 475.50 264Q440 294 354 311L255 331Q158 351 111 394Q64 437 64 513Q64 573 95 618Q126 663 181 688Q236 713 309 713Q383 713 444 690Q505 667 549 621L529 585Q480 632 428 652Q376 672 309 672Q217 672 162.50 629Q108 586 108 513Q108 454 143 421.50Q178 389 256 373L356 353Q460 332 507.50 292.50Q555 253 555 179Q555 124 526 81.50Q497 39 442.50 15.50Q388-8 313-8Z"  horiz-adv-x="604" vert-adv-y="1000"  />

      
      <glyph glyph-name="uni015A" unicode="&#x015A;" d="M313-8Q228-8 165 14.50Q102 37 52 80L73 116Q110 87 144 68.50Q178 50 218.50 41.50Q259 33 312 33Q410 33 460.50 72.50Q511 112 511 178Q511 234 475.50 264Q440 294 354 311L255 331Q158 351 111 394Q64 437 64 513Q64 573 95 618Q126 663 181 688Q236 713 309 713Q383 713 444 690Q505 667 549 621L529 585Q480 632 428 652Q376 672 309 672Q217 672 162.50 629Q108 586 108 513Q108 454 143 421.50Q178 389 256 373L356 353Q460 332 507.50 292.50Q555 253 555 179Q555 124 526 81.50Q497 39 442.50 15.50Q388-8 313-8M294 765L412 935L468 935L332 765L294 765Z"  horiz-adv-x="604" vert-adv-y="1000"  />

      
      <glyph glyph-name="uni1E64" unicode="&#x1E64;" d="M313-8Q228-8 165 14.50Q102 37 52 80L73 116Q110 87 144 68.50Q178 50 218.50 41.50Q259 33 312 33Q410 33 460.50 72.50Q511 112 511 178Q511 234 475.50 264Q440 294 354 311L255 331Q158 351 111 394Q64 437 64 513Q64 573 95 618Q126 663 181 688Q236 713 309 713Q383 713 444 690Q505 667 549 621L529 585Q480 632 428 652Q376 672 309 672Q217 672 162.50 629Q108 586 108 513Q108 454 143 421.50Q178 389 256 373L356 353Q460 332 507.50 292.50Q555 253 555 179Q555 124 526 81.50Q497 39 442.50 15.50Q388-8 313-8M252 946L252 1006L313 1006L313 946L252 946M294 765L412 935L468 935L332 765L294 765Z"  horiz-adv-x="604" vert-adv-y="1000"  />

      
      <glyph glyph-name="uni0160" unicode="&#x0160;" d="M313-8Q228-8 165 14.50Q102 37 52 80L73 116Q110 87 144 68.50Q178 50 218.50 41.50Q259 33 312 33Q410 33 460.50 72.50Q511 112 511 178Q511 234 475.50 264Q440 294 354 311L255 331Q158 351 111 394Q64 437 64 513Q64 573 95 618Q126 663 181 688Q236 713 309 713Q383 713 444 690Q505 667 549 621L529 585Q480 632 428 652Q376 672 309 672Q217 672 162.50 629Q108 586 108 513Q108 454 143 421.50Q178 389 256 373L356 353Q460 332 507.50 292.50Q555 253 555 179Q555 124 526 81.50Q497 39 442.50 15.50Q388-8 313-8M289 765L168 935L205 935L313 803L421 935L458 935L337 765L289 765Z"  horiz-adv-x="604" vert-adv-y="1000"  />

      
      <glyph glyph-name="uni1E66" unicode="&#x1E66;" d="M313-8Q228-8 165 14.50Q102 37 52 80L73 116Q110 87 144 68.50Q178 50 218.50 41.50Q259 33 312 33Q410 33 460.50 72.50Q511 112 511 178Q511 234 475.50 264Q440 294 354 311L255 331Q158 351 111 394Q64 437 64 513Q64 573 95 618Q126 663 181 688Q236 713 309 713Q383 713 444 690Q505 667 549 621L529 585Q480 632 428 652Q376 672 309 672Q217 672 162.50 629Q108 586 108 513Q108 454 143 421.50Q178 389 256 373L356 353Q460 332 507.50 292.50Q555 253 555 179Q555 124 526 81.50Q497 39 442.50 15.50Q388-8 313-8M289 765L180 925L215 925L313 804L411 925L446 925L337 765L289 765M283 976L283 1036L344 1036L344 976L283 976Z"  horiz-adv-x="604" vert-adv-y="1000"  />

      
      <glyph glyph-name="uni015E" unicode="&#x015E;" d="M313-8Q228-8 165 14.50Q102 37 52 80L73 116Q110 87 144 68.50Q178 50 218.50 41.50Q259 33 312 33Q410 33 460.50 72.50Q511 112 511 178Q511 234 475.50 264Q440 294 354 311L255 331Q158 351 111 394Q64 437 64 513Q64 573 95 618Q126 663 181 688Q236 713 309 713Q383 713 444 690Q505 667 549 621L529 585Q480 632 428 652Q376 672 309 672Q217 672 162.50 629Q108 586 108 513Q108 454 143 421.50Q178 389 256 373L356 353Q460 332 507.50 292.50Q555 253 555 179Q555 124 526 81.50Q497 39 442.50 15.50Q388-8 313-8M324-190Q301-190 280.50-185Q260-180 246-172L255-138Q274-147 289-150.50Q304-154 328-154Q355-154 372.50-143Q390-132 390-111Q390-79 351-79Q340-79 328.50-81Q317-83 300-89L285-76L300 20L338 20L325-55L307-53Q319-50 330.50-48Q342-46 352-46Q384-46 407-63Q430-80 430-111Q430-146 400.50-168Q371-190 324-190Z"  horiz-adv-x="604" vert-adv-y="1000"  />

      
      <glyph glyph-name="uni015C" unicode="&#x015C;" d="M313-8Q228-8 165 14.50Q102 37 52 80L73 116Q110 87 144 68.50Q178 50 218.50 41.50Q259 33 312 33Q410 33 460.50 72.50Q511 112 511 178Q511 234 475.50 264Q440 294 354 311L255 331Q158 351 111 394Q64 437 64 513Q64 573 95 618Q126 663 181 688Q236 713 309 713Q383 713 444 690Q505 667 549 621L529 585Q480 632 428 652Q376 672 309 672Q217 672 162.50 629Q108 586 108 513Q108 454 143 421.50Q178 389 256 373L356 353Q460 332 507.50 292.50Q555 253 555 179Q555 124 526 81.50Q497 39 442.50 15.50Q388-8 313-8M168 765L289 935L337 935L458 765L421 765L313 897L205 765L168 765Z"  horiz-adv-x="604" vert-adv-y="1000"  />

      
      <glyph glyph-name="uni0218" unicode="&#x0218;" d="M313-8Q228-8 165 14.50Q102 37 52 80L73 116Q110 87 144 68.50Q178 50 218.50 41.50Q259 33 312 33Q410 33 460.50 72.50Q511 112 511 178Q511 234 475.50 264Q440 294 354 311L255 331Q158 351 111 394Q64 437 64 513Q64 573 95 618Q126 663 181 688Q236 713 309 713Q383 713 444 690Q505 667 549 621L529 585Q480 632 428 652Q376 672 309 672Q217 672 162.50 629Q108 586 108 513Q108 454 143 421.50Q178 389 256 373L356 353Q460 332 507.50 292.50Q555 253 555 179Q555 124 526 81.50Q497 39 442.50 15.50Q388-8 313-8M307-259L281-239Q304-213 311.50-191Q319-169 319-144L334-151L284-151L284-86L354-86L354-140Q354-174 342-204.50Q330-235 307-259Z"  horiz-adv-x="604" vert-adv-y="1000"  />

      
      <glyph glyph-name="uni1E60" unicode="&#x1E60;" d="M313-8Q228-8 165 14.50Q102 37 52 80L73 116Q110 87 144 68.50Q178 50 218.50 41.50Q259 33 312 33Q410 33 460.50 72.50Q511 112 511 178Q511 234 475.50 264Q440 294 354 311L255 331Q158 351 111 394Q64 437 64 513Q64 573 95 618Q126 663 181 688Q236 713 309 713Q383 713 444 690Q505 667 549 621L529 585Q480 632 428 652Q376 672 309 672Q217 672 162.50 629Q108 586 108 513Q108 454 143 421.50Q178 389 256 373L356 353Q460 332 507.50 292.50Q555 253 555 179Q555 124 526 81.50Q497 39 442.50 15.50Q388-8 313-8M282 818L282 881L344 881L344 818L282 818Z"  horiz-adv-x="604" vert-adv-y="1000"  />

      
      <glyph glyph-name="uni1E62" unicode="&#x1E62;" d="M313-8Q228-8 165 14.50Q102 37 52 80L73 116Q110 87 144 68.50Q178 50 218.50 41.50Q259 33 312 33Q410 33 460.50 72.50Q511 112 511 178Q511 234 475.50 264Q440 294 354 311L255 331Q158 351 111 394Q64 437 64 513Q64 573 95 618Q126 663 181 688Q236 713 309 713Q383 713 444 690Q505 667 549 621L529 585Q480 632 428 652Q376 672 309 672Q217 672 162.50 629Q108 586 108 513Q108 454 143 421.50Q178 389 256 373L356 353Q460 332 507.50 292.50Q555 253 555 179Q555 124 526 81.50Q497 39 442.50 15.50Q388-8 313-8M287-172L287-109L351-109L351-172L287-172Z"  horiz-adv-x="604" vert-adv-y="1000"  />

      
      <glyph glyph-name="uni1E68" unicode="&#x1E68;" d="M313-8Q228-8 165 14.50Q102 37 52 80L73 116Q110 87 144 68.50Q178 50 218.50 41.50Q259 33 312 33Q410 33 460.50 72.50Q511 112 511 178Q511 234 475.50 264Q440 294 354 311L255 331Q158 351 111 394Q64 437 64 513Q64 573 95 618Q126 663 181 688Q236 713 309 713Q383 713 444 690Q505 667 549 621L529 585Q480 632 428 652Q376 672 309 672Q217 672 162.50 629Q108 586 108 513Q108 454 143 421.50Q178 389 256 373L356 353Q460 332 507.50 292.50Q555 253 555 179Q555 124 526 81.50Q497 39 442.50 15.50Q388-8 313-8M287-172L287-109L351-109L351-172L287-172M282 818L282 881L344 881L344 818L282 818Z"  horiz-adv-x="604" vert-adv-y="1000"  />

      
      <glyph glyph-name="uni1E9E" unicode="&#x1E9E;" d="M391-8Q328-8 280.50 10Q233 28 197 62L220 97Q261 61 299 46.50Q337 32 391 32Q477 32 522 72.50Q567 113 567 186Q567 258 521 296.50Q475 335 380 335L237 335L237 374L352 374Q434 374 481 412.50Q528 451 528 524Q528 597 483.50 635Q439 673 345 673Q233 673 186 621.50Q139 570 139 467L139 0L97 0L97 470Q97 590 157 651.50Q217 713 344 713Q454 713 513 664Q572 615 572 529Q572 462 534.50 414Q497 366 435 353L435 367Q516 357 564 310.50Q612 264 612 186Q612 92 554 42Q496-8 391-8Z"  horiz-adv-x="683" vert-adv-y="1000"  />

      
      <glyph glyph-name="uni018F" unicode="&#x018F;" d="M363-8Q257-8 192 36Q127 80 97.50 160Q68 240 68 348L68 376L628 376L628 337L100 337L112 353Q112 250 136 178.50Q160 107 215 70Q270 33 362 33Q489 33 556 117.50Q623 202 623 354Q623 506 552 589Q481 672 347 672Q296 672 257 663Q218 654 184.50 634Q151 614 116 582L95 617Q142 665 203 689Q264 713 349 713Q450 713 521 670Q592 627 630 546.50Q668 466 668 354Q668 242 632 160.50Q596 79 528 35.50Q460-8 363-8Z"  horiz-adv-x="736" vert-adv-y="1000"  />

      
      <glyph glyph-name="uni54" unicode="&#x54;" d="M272 0L272 666L10 666L10 705L576 705L576 666L314 666L314 0L272 0Z"  horiz-adv-x="590" vert-adv-y="1000"  />

      
      <glyph glyph-name="uni0166" unicode="&#x0166;" d="M272 0L272 666L10 666L10 705L576 705L576 666L314 666L314 0L272 0M128 340L128 377L462 377L462 340L128 340Z"  horiz-adv-x="590" vert-adv-y="1000"  />

      
      <glyph glyph-name="uni0164" unicode="&#x0164;" d="M272 0L272 666L10 666L10 705L576 705L576 666L314 666L314 0L272 0M271 765L150 935L187 935L295 803L403 935L440 935L319 765L271 765Z"  horiz-adv-x="590" vert-adv-y="1000"  />

      
      <glyph glyph-name="uni0162" unicode="&#x0162;" d="M272 0L272 666L10 666L10 705L576 705L576 666L314 666L314 0L272 0M300-190Q277-190 256.50-185Q236-180 222-172L231-138Q250-147 265-150.50Q280-154 304-154Q331-154 348.50-143Q366-132 366-111Q366-79 327-79Q316-79 304.50-81Q293-83 276-89L261-76L276 20L314 20L301-55L283-53Q295-50 306.50-48Q318-46 328-46Q360-46 383-63Q406-80 406-111Q406-146 376.50-168Q347-190 300-190Z"  horiz-adv-x="590" vert-adv-y="1000"  />

      
      <glyph glyph-name="uni021A" unicode="&#x021A;" d="M272 0L272 666L10 666L10 705L576 705L576 666L314 666L314 0L272 0M283-259L257-239Q280-213 287.50-191Q295-169 295-144L310-151L260-151L260-86L330-86L330-140Q330-174 318-204.50Q306-235 283-259Z"  horiz-adv-x="590" vert-adv-y="1000"  />

      
      <glyph glyph-name="uni1E6C" unicode="&#x1E6C;" d="M272 0L272 666L10 666L10 705L576 705L576 666L314 666L314 0L272 0M263-172L263-109L327-109L327-172L263-172Z"  horiz-adv-x="590" vert-adv-y="1000"  />

      
      <glyph glyph-name="uni1E6E" unicode="&#x1E6E;" d="M272 0L272 666L10 666L10 705L576 705L576 666L314 666L314 0L272 0M155-148L155-110L435-110L435-148L155-148Z"  horiz-adv-x="590" vert-adv-y="1000"  />

      
      <glyph glyph-name="uni55" unicode="&#x55;" d="M361-8Q224-8 158 63Q92 134 92 270L92 705L134 705L134 276Q134 154 188.50 93.50Q243 33 361 33Q472 33 530 93.50Q588 154 588 276L588 705L630 705L630 270Q630 134 561 63Q492-8 361-8Z"  horiz-adv-x="722" vert-adv-y="1000"  />

      
      <glyph glyph-name="unida" unicode="&#xda;" d="M361-8Q224-8 158 63Q92 134 92 270L92 705L134 705L134 276Q134 154 188.50 93.50Q243 33 361 33Q472 33 530 93.50Q588 154 588 276L588 705L630 705L630 270Q630 134 561 63Q492-8 361-8M342 765L460 935L516 935L380 765L342 765Z"  horiz-adv-x="722" vert-adv-y="1000"  />

      
      <glyph glyph-name="uni016C" unicode="&#x016C;" d="M361-8Q224-8 158 63Q92 134 92 270L92 705L134 705L134 276Q134 154 188.50 93.50Q243 33 361 33Q472 33 530 93.50Q588 154 588 276L588 705L630 705L630 270Q630 134 561 63Q492-8 361-8M361 760Q297 760 254 804.50Q211 849 204 927L237 931Q242 867 275 831.50Q308 796 361 796Q414 796 447.50 831.50Q481 867 485 931L518 927Q511 849 468 804.50Q425 760 361 760Z"  horiz-adv-x="722" vert-adv-y="1000"  />

      
      <glyph glyph-name="unidb" unicode="&#xdb;" d="M361-8Q224-8 158 63Q92 134 92 270L92 705L134 705L134 276Q134 154 188.50 93.50Q243 33 361 33Q472 33 530 93.50Q588 154 588 276L588 705L630 705L630 270Q630 134 561 63Q492-8 361-8M216 765L337 935L385 935L506 765L469 765L361 897L253 765L216 765Z"  horiz-adv-x="722" vert-adv-y="1000"  />

      
      <glyph glyph-name="uni0214" unicode="&#x0214;" d="M361-8Q224-8 158 63Q92 134 92 270L92 705L134 705L134 276Q134 154 188.50 93.50Q243 33 361 33Q472 33 530 93.50Q588 154 588 276L588 705L630 705L630 270Q630 134 561 63Q492-8 361-8M402 765L291 935L343 935L429 765L402 765M293 765L183 935L235 935L320 765L293 765Z"  horiz-adv-x="722" vert-adv-y="1000"  />

      
      <glyph glyph-name="unidc" unicode="&#xdc;" d="M361-8Q224-8 158 63Q92 134 92 270L92 705L134 705L134 276Q134 154 188.50 93.50Q243 33 361 33Q472 33 530 93.50Q588 154 588 276L588 705L630 705L630 270Q630 134 561 63Q492-8 361-8M411 820L411 880L472 880L472 820L411 820M250 820L250 880L311 880L311 820L250 820Z"  horiz-adv-x="722" vert-adv-y="1000"  />

      
      <glyph glyph-name="uni1EE4" unicode="&#x1EE4;" d="M361-8Q224-8 158 63Q92 134 92 270L92 705L134 705L134 276Q134 154 188.50 93.50Q243 33 361 33Q472 33 530 93.50Q588 154 588 276L588 705L630 705L630 270Q630 134 561 63Q492-8 361-8M329-172L329-109L393-109L393-172L329-172Z"  horiz-adv-x="722" vert-adv-y="1000"  />

      
      <glyph glyph-name="unid9" unicode="&#xd9;" d="M361-8Q224-8 158 63Q92 134 92 270L92 705L134 705L134 276Q134 154 188.50 93.50Q243 33 361 33Q472 33 530 93.50Q588 154 588 276L588 705L630 705L630 270Q630 134 561 63Q492-8 361-8M342 765L206 935L262 935L380 765L342 765Z"  horiz-adv-x="722" vert-adv-y="1000"  />

      
      <glyph glyph-name="uni1EE6" unicode="&#x1EE6;" d="M361-8Q224-8 158 63Q92 134 92 270L92 705L134 705L134 276Q134 154 188.50 93.50Q243 33 361 33Q472 33 530 93.50Q588 154 588 276L588 705L630 705L630 270Q630 134 561 63Q492-8 361-8M342 765L342 779Q342 801 352.50 814.50Q363 828 376.50 837.50Q390 847 400.50 856Q411 865 411 878Q411 890 398.50 897Q386 904 359 904Q344 904 328.50 900.50Q313 897 294 888L285 921Q318 940 363 940Q405 940 428.50 923.50Q452 907 452 880Q452 859 441 846.50Q430 834 416 825.50Q402 817 391 806Q380 795 380 775L380 765L342 765Z"  horiz-adv-x="722" vert-adv-y="1000"  />

      
      <glyph glyph-name="uni01AF" unicode="&#x01AF;" d="M361-8Q224-8 158 63Q92 134 92 270L92 705L134 705L134 276Q134 154 188.50 93.50Q243 33 361 33Q472 33 530 93.50Q588 154 588 276L588 705L630 705L630 270Q630 134 561 63Q492-8 361-8M611 667L596 680L596 705Q645 706 670.50 719.50Q696 733 706 760Q716 787 716 825L716 837L756 837L756 817Q756 770 739.50 737.50Q723 705 690.50 687Q658 669 611 667Z"  horiz-adv-x="722" vert-adv-y="1000"  />

      
      <glyph glyph-name="uni1EE8" unicode="&#x1EE8;" d="M361-8Q224-8 158 63Q92 134 92 270L92 705L134 705L134 276Q134 154 188.50 93.50Q243 33 361 33Q472 33 530 93.50Q588 154 588 276L588 705L630 705L630 270Q630 134 561 63Q492-8 361-8M611 667L596 680L596 705Q645 706 670.50 719.50Q696 733 706 760Q716 787 716 825L716 837L756 837L756 817Q756 770 739.50 737.50Q723 705 690.50 687Q658 669 611 667M353 765L471 935L527 935L391 765L353 765Z"  horiz-adv-x="722" vert-adv-y="1000"  />

      
      <glyph glyph-name="uni1EF0" unicode="&#x1EF0;" d="M361-8Q224-8 158 63Q92 134 92 270L92 705L134 705L134 276Q134 154 188.50 93.50Q243 33 361 33Q472 33 530 93.50Q588 154 588 276L588 705L630 705L630 270Q630 134 561 63Q492-8 361-8M611 667L596 680L596 705Q645 706 670.50 719.50Q696 733 706 760Q716 787 716 825L716 837L756 837L756 817Q756 770 739.50 737.50Q723 705 690.50 687Q658 669 611 667M340-172L340-109L404-109L404-172L340-172Z"  horiz-adv-x="722" vert-adv-y="1000"  />

      
      <glyph glyph-name="uni1EEA" unicode="&#x1EEA;" d="M361-8Q224-8 158 63Q92 134 92 270L92 705L134 705L134 276Q134 154 188.50 93.50Q243 33 361 33Q472 33 530 93.50Q588 154 588 276L588 705L630 705L630 270Q630 134 561 63Q492-8 361-8M611 667L596 680L596 705Q645 706 670.50 719.50Q696 733 706 760Q716 787 716 825L716 837L756 837L756 817Q756 770 739.50 737.50Q723 705 690.50 687Q658 669 611 667M353 765L217 935L273 935L391 765L353 765Z"  horiz-adv-x="722" vert-adv-y="1000"  />

      
      <glyph glyph-name="uni1EEC" unicode="&#x1EEC;" d="M361-8Q224-8 158 63Q92 134 92 270L92 705L134 705L134 276Q134 154 188.50 93.50Q243 33 361 33Q472 33 530 93.50Q588 154 588 276L588 705L630 705L630 270Q630 134 561 63Q492-8 361-8M611 667L596 680L596 705Q645 706 670.50 719.50Q696 733 706 760Q716 787 716 825L716 837L756 837L756 817Q756 770 739.50 737.50Q723 705 690.50 687Q658 669 611 667M353 765L353 779Q353 801 363.50 814.50Q374 828 387.50 837.50Q401 847 411.50 856Q422 865 422 878Q422 890 409.50 897Q397 904 370 904Q355 904 339.50 900.50Q324 897 305 888L296 921Q329 940 374 940Q416 940 439.50 923.50Q463 907 463 880Q463 859 452 846.50Q441 834 427 825.50Q413 817 402 806Q391 795 391 775L391 765L353 765Z"  horiz-adv-x="722" vert-adv-y="1000"  />

      
      <glyph glyph-name="uni1EEE" unicode="&#x1EEE;" d="M361-8Q224-8 158 63Q92 134 92 270L92 705L134 705L134 276Q134 154 188.50 93.50Q243 33 361 33Q472 33 530 93.50Q588 154 588 276L588 705L630 705L630 270Q630 134 561 63Q492-8 361-8M611 667L596 680L596 705Q645 706 670.50 719.50Q696 733 706 760Q716 787 716 825L716 837L756 837L756 817Q756 770 739.50 737.50Q723 705 690.50 687Q658 669 611 667M218 792L186 794Q193 852 221 883.50Q249 915 293 915Q316 915 337.50 903.50Q359 892 384 869Q407 849 422.50 839.50Q438 830 454 830Q484 830 501.50 852.50Q519 875 526 917L558 915Q551 857 523.50 825.50Q496 794 452 794Q427 794 405.50 806.50Q384 819 360 840Q337 861 320.50 870Q304 879 290 879Q260 879 242.50 856.50Q225 834 218 792Z"  horiz-adv-x="722" vert-adv-y="1000"  />

      
      <glyph glyph-name="uni0170" unicode="&#x0170;" d="M361-8Q224-8 158 63Q92 134 92 270L92 705L134 705L134 276Q134 154 188.50 93.50Q243 33 361 33Q472 33 530 93.50Q588 154 588 276L588 705L630 705L630 270Q630 134 561 63Q492-8 361-8M293 765L379 935L431 935L320 765L293 765M402 765L487 935L539 935L429 765L402 765Z"  horiz-adv-x="722" vert-adv-y="1000"  />

      
      <glyph glyph-name="uni0216" unicode="&#x0216;" d="M361-8Q224-8 158 63Q92 134 92 270L92 705L134 705L134 276Q134 154 188.50 93.50Q243 33 361 33Q472 33 530 93.50Q588 154 588 276L588 705L630 705L630 270Q630 134 561 63Q492-8 361-8M237 760L204 764Q211 842 254 886.50Q297 931 361 931Q425 931 468 886.50Q511 842 518 764L485 760Q481 825 447.50 860Q414 895 361 895Q308 895 275 860Q242 825 237 760Z"  horiz-adv-x="722" vert-adv-y="1000"  />

      
      <glyph glyph-name="uni016A" unicode="&#x016A;" d="M361-8Q224-8 158 63Q92 134 92 270L92 705L134 705L134 276Q134 154 188.50 93.50Q243 33 361 33Q472 33 530 93.50Q588 154 588 276L588 705L630 705L630 270Q630 134 561 63Q492-8 361-8M206 822L206 860L516 860L516 822L206 822Z"  horiz-adv-x="722" vert-adv-y="1000"  />

      
      <glyph glyph-name="uni1E7A" unicode="&#x1E7A;" d="M361-8Q224-8 158 63Q92 134 92 270L92 705L134 705L134 276Q134 154 188.50 93.50Q243 33 361 33Q472 33 530 93.50Q588 154 588 276L588 705L630 705L630 270Q630 134 561 63Q492-8 361-8M221 806L221 844L501 844L501 806L221 806M250 905L250 965L311 965L311 905L250 905M411 905L411 965L472 965L472 905L411 905Z"  horiz-adv-x="722" vert-adv-y="1000"  />

      
      <glyph glyph-name="uni0172" unicode="&#x0172;" d="M361-8Q224-8 158 63Q92 134 92 270L92 705L134 705L134 276Q134 154 188.50 93.50Q243 33 361 33Q472 33 530 93.50Q588 154 588 276L588 705L630 705L630 270Q630 134 561 63Q492-8 361-8M412-190Q371-190 344.50-165Q318-140 318-98Q318-60 341.50-25.50Q365 9 408 31L429 0Q414-6 397.50-19Q381-32 369-51Q357-70 357-94Q357-125 374.50-139.50Q392-154 417-154Q430-154 443-151Q456-148 470-141L483-173Q473-180 454-185Q435-190 412-190Z"  horiz-adv-x="722" vert-adv-y="1000"  />

      
      <glyph glyph-name="uni016E" unicode="&#x016E;" d="M361-8Q224-8 158 63Q92 134 92 270L92 705L134 705L134 276Q134 154 188.50 93.50Q243 33 361 33Q472 33 530 93.50Q588 154 588 276L588 705L630 705L630 270Q630 134 561 63Q492-8 361-8M361 760Q330 760 304.50 775Q279 790 264 815Q249 840 249 870Q249 901 264 925.50Q279 950 304.50 965Q330 980 361 980Q393 980 418 965Q443 950 458 925.50Q473 901 473 870Q473 840 458 815Q443 790 418 775Q393 760 361 760M361 792Q396 792 417.50 814.50Q439 837 439 870Q439 903 417.50 925.50Q396 948 361 948Q327 948 305 925.50Q283 903 283 870Q283 837 305 814.50Q327 792 361 792Z"  horiz-adv-x="722" vert-adv-y="1000"  />

      
      <glyph glyph-name="uni0168" unicode="&#x0168;" d="M361-8Q224-8 158 63Q92 134 92 270L92 705L134 705L134 276Q134 154 188.50 93.50Q243 33 361 33Q472 33 530 93.50Q588 154 588 276L588 705L630 705L630 270Q630 134 561 63Q492-8 361-8M197 792L165 794Q172 852 200 883.50Q228 915 272 915Q295 915 318 904Q341 893 374 869Q406 847 422 838.50Q438 830 453 830Q483 830 500.50 852.50Q518 875 525 917L557 915Q550 857 522.50 825.50Q495 794 451 794Q429 794 405 805Q381 816 345 842Q317 863 300 871Q283 879 269 879Q239 879 221.50 856.50Q204 834 197 792Z"  horiz-adv-x="722" vert-adv-y="1000"  />

      
      <glyph glyph-name="uni1E78" unicode="&#x1E78;" d="M361-8Q224-8 158 63Q92 134 92 270L92 705L134 705L134 276Q134 154 188.50 93.50Q243 33 361 33Q472 33 530 93.50Q588 154 588 276L588 705L630 705L630 270Q630 134 561 63Q492-8 361-8M343 871L441 1021L495 1021L379 871L343 871M425 768Q407 768 390.50 776Q374 784 351 802Q331 819 319.50 823.50Q308 828 298 828Q276 828 264.50 813.50Q253 799 248 766L215 768Q220 816 242 840Q264 864 298 864Q315 864 330 857Q345 850 367 833Q389 816 401 810Q413 804 424 804Q447 804 458 818.50Q469 833 474 866L507 864Q503 816 481 792Q459 768 425 768Z"  horiz-adv-x="722" vert-adv-y="1000"  />

      
      <glyph glyph-name="uni56" unicode="&#x56;" d="M314 0L12 705L57 705L349 24L327 24L621 705L665 705L360 0L314 0Z"  horiz-adv-x="677" vert-adv-y="1000"  />

      
      <glyph glyph-name="uni57" unicode="&#x57;" d="M285 0L42 705L87 705L322 19L292 19L535 705L574 705L807 19L780 19L1019 705L1062 705L816 0L772 0L545 672L565 672L327 0L285 0Z"  horiz-adv-x="1104" vert-adv-y="1000"  />

      
      <glyph glyph-name="uni1E82" unicode="&#x1E82;" d="M285 0L42 705L87 705L322 19L292 19L535 705L574 705L807 19L780 19L1019 705L1062 705L816 0L772 0L545 672L565 672L327 0L285 0M533 765L651 935L707 935L571 765L533 765Z"  horiz-adv-x="1104" vert-adv-y="1000"  />

      
      <glyph glyph-name="uni0174" unicode="&#x0174;" d="M285 0L42 705L87 705L322 19L292 19L535 705L574 705L807 19L780 19L1019 705L1062 705L816 0L772 0L545 672L565 672L327 0L285 0M407 765L528 935L576 935L697 765L660 765L552 897L444 765L407 765Z"  horiz-adv-x="1104" vert-adv-y="1000"  />

      
      <glyph glyph-name="uni1E84" unicode="&#x1E84;" d="M285 0L42 705L87 705L322 19L292 19L535 705L574 705L807 19L780 19L1019 705L1062 705L816 0L772 0L545 672L565 672L327 0L285 0M602 820L602 880L663 880L663 820L602 820M441 820L441 880L502 880L502 820L441 820Z"  horiz-adv-x="1104" vert-adv-y="1000"  />

      
      <glyph glyph-name="uni1E80" unicode="&#x1E80;" d="M285 0L42 705L87 705L322 19L292 19L535 705L574 705L807 19L780 19L1019 705L1062 705L816 0L772 0L545 672L565 672L327 0L285 0M533 765L397 935L453 935L571 765L533 765Z"  horiz-adv-x="1104" vert-adv-y="1000"  />

      
      <glyph glyph-name="uni58" unicode="&#x58;" d="M24 0L298 367L298 357L39 705L90 705L326 387L314 387L546 705L597 705L339 357L339 367L612 0L561 0L308 342L329 342L75 0L24 0Z"  horiz-adv-x="636" vert-adv-y="1000"  />

      
      <glyph glyph-name="uni59" unicode="&#x59;" d="M272 0L272 326L283 288L1 705L50 705L302 327L287 327L539 705L586 705L304 288L314 326L314 0L272 0Z"  horiz-adv-x="587" vert-adv-y="1000"  />

      
      <glyph glyph-name="unidd" unicode="&#xdd;" d="M272 0L272 326L283 288L1 705L50 705L302 327L287 327L539 705L586 705L304 288L314 326L314 0L272 0M275 765L393 935L449 935L313 765L275 765Z"  horiz-adv-x="587" vert-adv-y="1000"  />

      
      <glyph glyph-name="uni0176" unicode="&#x0176;" d="M272 0L272 326L283 288L1 705L50 705L302 327L287 327L539 705L586 705L304 288L314 326L314 0L272 0M149 765L270 935L318 935L439 765L402 765L294 897L186 765L149 765Z"  horiz-adv-x="587" vert-adv-y="1000"  />

      
      <glyph glyph-name="uni0178" unicode="&#x0178;" d="M272 0L272 326L283 288L1 705L50 705L302 327L287 327L539 705L586 705L304 288L314 326L314 0L272 0M344 820L344 880L405 880L405 820L344 820M183 820L183 880L244 880L244 820L183 820Z"  horiz-adv-x="587" vert-adv-y="1000"  />

      
      <glyph glyph-name="uni1E8E" unicode="&#x1E8E;" d="M272 0L272 326L283 288L1 705L50 705L302 327L287 327L539 705L586 705L304 288L314 326L314 0L272 0M263 818L263 881L325 881L325 818L263 818Z"  horiz-adv-x="587" vert-adv-y="1000"  />

      
      <glyph glyph-name="uni1EF4" unicode="&#x1EF4;" d="M272 0L272 326L283 288L1 705L50 705L302 327L287 327L539 705L586 705L304 288L314 326L314 0L272 0M262-172L262-109L326-109L326-172L262-172Z"  horiz-adv-x="587" vert-adv-y="1000"  />

      
      <glyph glyph-name="uni1EF2" unicode="&#x1EF2;" d="M272 0L272 326L283 288L1 705L50 705L302 327L287 327L539 705L586 705L304 288L314 326L314 0L272 0M275 765L139 935L195 935L313 765L275 765Z"  horiz-adv-x="587" vert-adv-y="1000"  />

      
      <glyph glyph-name="uni01B3" unicode="&#x01B3;" d="M272 0L272 366L283 328L1 705L50 705L302 367L288 367L486 643Q512 680 542.50 696Q573 712 608 712Q624 712 634.50 710.50Q645 709 658 704L658 667Q648 671 636 673Q624 675 610 675Q583 675 560.50 663.50Q538 652 517 623L304 328L314 366L314 0L272 0Z"  horiz-adv-x="587" vert-adv-y="1000"  />

      
      <glyph glyph-name="uni1EF6" unicode="&#x1EF6;" d="M272 0L272 326L283 288L1 705L50 705L302 327L287 327L539 705L586 705L304 288L314 326L314 0L272 0M275 765L275 779Q275 801 285.50 814.50Q296 828 309.50 837.50Q323 847 333.50 856Q344 865 344 878Q344 890 331.50 897Q319 904 292 904Q277 904 261.50 900.50Q246 897 227 888L218 921Q251 940 296 940Q338 940 361.50 923.50Q385 907 385 880Q385 859 374 846.50Q363 834 349 825.50Q335 817 324 806Q313 795 313 775L313 765L275 765Z"  horiz-adv-x="587" vert-adv-y="1000"  />

      
      </font>
</defs>
</svg>
