<?xml version="1.0" standalone="no"?>
  <!DOCTYPE svg PUBLIC "-//W3C//DTD SVG 1.1//EN" "http://www.w3.org/Graphics/SVG/1.1/DTD/svg11.dtd" >
  <svg>
  <metadata>
  Created by font-carrier
  </metadata>
  <defs>
  <font id="Mulish-BoldItalic" horiz-adv-x="1324" vert-adv-y="1324" >
    <font-face
      
      font-family="Mulish"
      
      font-weight="400"
      
      font-stretch="normal"
      
      units-per-em="1000"
      
      ascent="1005"
      
      descent="-250"
      
    />
      <missing-glyph />

      

      
      <glyph glyph-name="uni41" unicode="&#x41;" d="M-40 0L391 705L499 705L710 0L584 0L529 198L576 163L153 163L212 198L95 0L-40 0M427 567L233 233L212 264L548 264L522 233L431 567L427 567Z"  horiz-adv-x="750" vert-adv-y="1000"  />

      
      <glyph glyph-name="unic1" unicode="&#xc1;" d="M-40 0L391 705L499 705L710 0L584 0L529 198L576 163L153 163L212 198L95 0L-40 0M427 567L233 233L212 264L548 264L522 233L431 567L427 567M412 765L542 939L675 939L501 765L412 765Z"  horiz-adv-x="750" vert-adv-y="1000"  />

      
      <glyph glyph-name="uni0102" unicode="&#x0102;" d="M-40 0L391 705L499 705L710 0L584 0L529 198L576 163L153 163L212 198L95 0L-40 0M427 567L233 233L212 264L548 264L522 233L431 567L427 567M458 760Q407 760 369 781.50Q331 803 310 841.50Q289 880 289 930L360 939Q359 890 387 862.50Q415 835 463 835Q511 835 543 862.50Q575 890 584 939L654 930Q642 852 589 806Q536 760 458 760Z"  horiz-adv-x="750" vert-adv-y="1000"  />

      
      <glyph glyph-name="uni1EAE" unicode="&#x1EAE;" d="M-40 0L391 705L499 705L710 0L584 0L529 198L576 163L153 163L212 198L95 0L-40 0M427 567L233 233L212 264L548 264L522 233L431 567L427 567M462 764Q389 764 344.50 805.50Q300 847 301 918L363 924Q367 882 392.50 858Q418 834 465 834Q513 834 542.50 858Q572 882 583 924L644 918Q633 847 584.50 805.50Q536 764 462 764M424 891L508 1024L628 1024L502 891L424 891Z"  horiz-adv-x="750" vert-adv-y="1000"  />

      
      <glyph glyph-name="uni1EB6" unicode="&#x1EB6;" d="M-40 0L391 705L499 705L710 0L584 0L529 198L576 163L153 163L212 198L95 0L-40 0M427 567L233 233L212 264L548 264L522 233L431 567L427 567M240-204L259-88L381-88L362-204L240-204M458 760Q407 760 369 781.50Q331 803 310 841.50Q289 880 289 930L360 939Q359 890 387 862.50Q415 835 463 835Q511 835 543 862.50Q575 890 584 939L654 930Q642 852 589 806Q536 760 458 760Z"  horiz-adv-x="750" vert-adv-y="1000"  />

      
      <glyph glyph-name="uni1EB0" unicode="&#x1EB0;" d="M-40 0L391 705L499 705L710 0L584 0L529 198L576 163L153 163L212 198L95 0L-40 0M427 567L233 233L212 264L548 264L522 233L431 567L427 567M462 760Q389 760 344.50 801.50Q300 843 301 914L362 920Q367 878 392 854Q417 830 465 830Q512 830 541.50 854Q571 878 583 920L643 914Q633 843 584 801.50Q535 760 462 760M436 887L337 1020L457 1020L514 887L436 887Z"  horiz-adv-x="750" vert-adv-y="1000"  />

      
      <glyph glyph-name="uni1EB2" unicode="&#x1EB2;" d="M-40 0L391 705L499 705L710 0L584 0L529 198L576 163L153 163L212 198L95 0L-40 0M427 567L233 233L212 264L548 264L522 233L431 567L427 567M459 760Q386 760 341.50 801.50Q297 843 298 914L359 920Q364 878 389 854Q414 830 462 830Q509 830 538.50 854Q568 878 580 920L640 914Q630 843 581 801.50Q532 760 459 760M432 887Q434 905 443 915.50Q452 926 463 932.50Q474 939 482 946Q490 953 490 963Q490 971 480.50 974.50Q471 978 456 978Q442 978 425 975Q408 972 395 967L384 1014Q404 1023 428 1027.50Q452 1032 484 1032Q527 1032 550.50 1019Q574 1006 574 984Q574 964 563.50 952Q553 940 539 932Q525 924 513.50 914Q502 904 501 887L432 887Z"  horiz-adv-x="750" vert-adv-y="1000"  />

      
      <glyph glyph-name="uni1EB4" unicode="&#x1EB4;" d="M-40 0L391 705L499 705L710 0L584 0L529 198L576 163L153 163L212 198L95 0L-40 0M427 567L233 233L212 264L548 264L522 233L431 567L427 567M460 760Q394 760 349 791Q304 822 295 874L357 890Q367 862 393 846Q419 830 463 830Q507 830 535 846Q563 862 577 890L637 874Q620 822 572.50 791Q525 760 460 760M358 921L300 924Q308 977 337 1004.50Q366 1032 412 1032Q434 1032 453 1024Q472 1016 489 1007Q503 1000 516.50 994Q530 988 543 988Q566 988 578.50 998.50Q591 1009 598 1033L656 1029Q648 976 618.50 948.50Q589 921 545 921Q523 921 503.50 929Q484 937 467 946Q453 954 439.50 960Q426 966 413 966Q391 966 378 955Q365 944 358 921Z"  horiz-adv-x="750" vert-adv-y="1000"  />

      
      <glyph glyph-name="uni01CD" unicode="&#x01CD;" d="M-40 0L391 705L499 705L710 0L584 0L529 198L576 163L153 163L212 198L95 0L-40 0M427 567L233 233L212 264L548 264L522 233L431 567L427 567M402 765L294 939L379 939L459 835L560 939L651 939L509 765L402 765Z"  horiz-adv-x="750" vert-adv-y="1000"  />

      
      <glyph glyph-name="unic2" unicode="&#xc2;" d="M-40 0L391 705L499 705L710 0L584 0L529 198L576 163L153 163L212 198L95 0L-40 0M427 567L233 233L212 264L548 264L522 233L431 567L427 567M271 765L413 939L520 939L627 765L540 765L461 869L358 765L271 765Z"  horiz-adv-x="750" vert-adv-y="1000"  />

      
      <glyph glyph-name="uni1EA4" unicode="&#x1EA4;" d="M-40 0L391 705L499 705L710 0L584 0L529 198L576 163L153 163L212 198L95 0L-40 0M427 567L233 233L212 264L548 264L522 233L431 567L427 567M289 765L414 929L523 929L619 765L540 765L463 861L368 765L289 765M572 872L668 1022L773 1022L643 872L572 872Z"  horiz-adv-x="750" vert-adv-y="1000"  />

      
      <glyph glyph-name="uni1EAC" unicode="&#x1EAC;" d="M-40 0L391 705L499 705L710 0L584 0L529 198L576 163L153 163L212 198L95 0L-40 0M427 567L233 233L212 264L548 264L522 233L431 567L427 567M240-204L259-88L381-88L362-204L240-204M271 765L413 939L520 939L627 765L540 765L461 869L358 765L271 765Z"  horiz-adv-x="750" vert-adv-y="1000"  />

      
      <glyph glyph-name="uni1EA6" unicode="&#x1EA6;" d="M-40 0L391 705L499 705L710 0L584 0L529 198L576 163L153 163L212 198L95 0L-40 0M427 567L233 233L212 264L548 264L522 233L431 567L427 567M289 765L414 929L523 929L619 765L540 765L463 861L368 765L289 765M611 872L507 1022L611 1022L683 872L611 872Z"  horiz-adv-x="750" vert-adv-y="1000"  />

      
      <glyph glyph-name="uni1EA8" unicode="&#x1EA8;" d="M-40 0L391 705L499 705L710 0L584 0L529 198L576 163L153 163L212 198L95 0L-40 0M427 567L233 233L212 264L548 264L522 233L431 567L427 567M289 765L414 929L523 929L619 765L540 765L463 861L368 765L289 765M575 872Q577 891 585.50 902.50Q594 914 605.50 922.50Q617 931 625 938.50Q633 946 633 957Q633 965 624 968.50Q615 972 601 972Q586 972 569 968.50Q552 965 539 960L528 1007Q548 1016 571.50 1021Q595 1026 627 1026Q670 1026 693.50 1013Q717 1000 717 978Q717 958 706.50 945Q696 932 681.50 922Q667 912 656 900.50Q645 889 643 872L575 872Z"  horiz-adv-x="750" vert-adv-y="1000"  />

      
      <glyph glyph-name="uni1EAA" unicode="&#x1EAA;" d="M-40 0L391 705L499 705L710 0L584 0L529 198L576 163L153 163L212 198L95 0L-40 0M427 567L233 233L212 264L548 264L522 233L431 567L427 567M289 765L411 899L520 899L619 765L542 765L461 837L366 765L289 765M358 923L300 926Q308 979 337.50 1006.50Q367 1034 412 1034Q435 1034 453 1026Q471 1018 487 1009Q501 1002 513.50 996Q526 990 539 990Q562 990 574.50 1000.50Q587 1011 594 1035L652 1031Q644 978 615 950.50Q586 923 541 923Q519 923 500.50 931Q482 939 466 948Q452 956 439.50 962Q427 968 414 968Q391 968 378 957Q365 946 358 923Z"  horiz-adv-x="750" vert-adv-y="1000"  />

      
      <glyph glyph-name="uni0200" unicode="&#x0200;" d="M-40 0L391 705L499 705L710 0L584 0L529 198L576 163L153 163L212 198L95 0L-40 0M427 567L233 233L212 264L548 264L522 233L431 567L427 567M494 765L382 939L494 939L564 765L494 765M347 765L226 939L337 939L418 765L347 765Z"  horiz-adv-x="750" vert-adv-y="1000"  />

      
      <glyph glyph-name="unic4" unicode="&#xc4;" d="M-40 0L391 705L499 705L710 0L584 0L529 198L576 163L153 163L212 198L95 0L-40 0M427 567L233 233L212 264L548 264L522 233L431 567L427 567M496 790L514 905L629 905L610 790L496 790M307 790L325 905L440 905L422 790L307 790Z"  horiz-adv-x="750" vert-adv-y="1000"  />

      
      <glyph glyph-name="uni0226" unicode="&#x0226;" d="M-40 0L391 705L499 705L710 0L584 0L529 198L576 163L153 163L212 198L95 0L-40 0M427 567L233 233L212 264L548 264L522 233L431 567L427 567M399 794L417 910L538 910L520 794L399 794Z"  horiz-adv-x="750" vert-adv-y="1000"  />

      
      <glyph glyph-name="uni1EA0" unicode="&#x1EA0;" d="M-40 0L391 705L499 705L710 0L584 0L529 198L576 163L153 163L212 198L95 0L-40 0M427 567L233 233L212 264L548 264L522 233L431 567L427 567M240-204L259-88L381-88L362-204L240-204Z"  horiz-adv-x="750" vert-adv-y="1000"  />

      
      <glyph glyph-name="unic0" unicode="&#xc0;" d="M-40 0L391 705L499 705L710 0L584 0L529 198L576 163L153 163L212 198L95 0L-40 0M427 567L233 233L212 264L548 264L522 233L431 567L427 567M411 765L266 939L395 939L500 765L411 765Z"  horiz-adv-x="750" vert-adv-y="1000"  />

      
      <glyph glyph-name="uni1EA2" unicode="&#x1EA2;" d="M-40 0L391 705L499 705L710 0L584 0L529 198L576 163L153 163L212 198L95 0L-40 0M427 567L233 233L212 264L548 264L522 233L431 567L427 567M417 765L420 783Q423 801 433 812.50Q443 824 455 832.50Q467 841 475.50 848.50Q484 856 484 867Q484 876 473.50 880.50Q463 885 445 885Q429 885 414.50 882Q400 879 383 872L368 925Q412 946 479 946Q526 946 552 930Q578 914 578 886Q578 862 566.50 848.50Q555 835 539 826Q523 817 510.50 806Q498 795 496 777L494 765L417 765Z"  horiz-adv-x="750" vert-adv-y="1000"  />

      
      <glyph glyph-name="uni0202" unicode="&#x0202;" d="M-40 0L391 705L499 705L710 0L584 0L529 198L576 163L153 163L212 198L95 0L-40 0M427 567L233 233L212 264L548 264L522 233L431 567L427 567M341 760L270 769Q282 848 335.50 893.50Q389 939 467 939Q518 939 556 918Q594 897 615 858.50Q636 820 636 769L564 760Q565 810 537.50 837.50Q510 865 462 865Q414 865 381.50 837.50Q349 810 341 760Z"  horiz-adv-x="750" vert-adv-y="1000"  />

      
      <glyph glyph-name="uni0100" unicode="&#x0100;" d="M-40 0L391 705L499 705L710 0L584 0L529 198L576 163L153 163L212 198L95 0L-40 0M427 567L233 233L212 264L548 264L522 233L431 567L427 567M289 806L300 880L646 880L634 806L289 806Z"  horiz-adv-x="750" vert-adv-y="1000"  />

      
      <glyph glyph-name="uni0104" unicode="&#x0104;" d="M-40 0L391 705L499 705L710 0L584 0L529 198L576 163L153 163L212 198L95 0L-40 0M427 567L233 233L212 264L548 264L522 233L431 567L427 567M629-195Q578-195 550.50-169.50Q523-144 523-101Q523-53 555-15Q587 23 636 42L669 0Q634-14 618-36Q602-58 602-81Q602-102 616-115Q630-128 653-128Q667-128 679.50-125Q692-122 707-117L719-179Q695-186 674-190.50Q653-195 629-195Z"  horiz-adv-x="750" vert-adv-y="1000"  />

      
      <glyph glyph-name="unic5" unicode="&#xc5;" d="M-40 0L391 705L499 705L710 0L584 0L529 198L576 163L153 163L212 198L95 0L-40 0M427 567L233 233L212 264L548 264L522 233L431 567L427 567M469 755Q434 755 405 771.50Q376 788 359.50 816Q343 844 343 878Q343 913 359.50 940.50Q376 968 405 984Q434 1000 469 1000Q505 1000 533.50 984Q562 968 578.50 940.50Q595 913 595 878Q595 844 578.50 816Q562 788 533.50 771.50Q505 755 469 755M469 812Q498 812 516 831Q534 850 534 878Q534 906 516 924.50Q498 943 469 943Q441 943 422.50 924.50Q404 906 404 878Q404 850 422.50 831Q441 812 469 812Z"  horiz-adv-x="750" vert-adv-y="1000"  />

      
      <glyph glyph-name="uni01FA" unicode="&#x01FA;" d="M-40 0L391 705L499 705L710 0L584 0L529 198L576 163L153 163L212 198L95 0L-40 0M427 567L233 233L212 264L548 264L522 233L431 567L427 567M457 755Q423 755 395.50 770.50Q368 786 351.50 813Q335 840 335 873Q335 906 351.50 932.50Q368 959 395.50 974.50Q423 990 457 990Q474 990 490.50 985.50Q507 981 520 973L585 1033L685 1033L563 928Q578 904 578 873Q578 840 562 813Q546 786 518.50 770.50Q491 755 457 755M457 807Q485 807 503.50 826Q522 845 522 873Q522 901 503.50 919.50Q485 938 457 938Q429 938 410.50 919.50Q392 901 392 873Q392 845 410.50 826Q429 807 457 807Z"  horiz-adv-x="750" vert-adv-y="1000"  />

      
      <glyph glyph-name="unic3" unicode="&#xc3;" d="M-40 0L391 705L499 705L710 0L584 0L529 198L576 163L153 163L212 198L95 0L-40 0M427 567L233 233L212 264L548 264L522 233L431 567L427 567M293 772L231 776Q242 847 279.50 885.50Q317 924 372 924Q402 924 428 912.50Q454 901 477 887Q497 876 515 867Q533 858 552 858Q608 858 626 928L688 924Q677 853 640 814.50Q603 776 548 776Q518 776 492 788Q466 800 443 813Q423 824 404.50 833Q386 842 367 842Q311 842 293 772Z"  horiz-adv-x="750" vert-adv-y="1000"  />

      
      <glyph glyph-name="unic6" unicode="&#xc6;" d="M-60 0L489 705L1047 705L1030 604L653 604L680 625L661 374L649 409L978 409L962 307L636 307L656 317L639 74L627 102L951 102L935 0L516 0L530 194L554 163L185 163L233 197L84 0L-60 0M539 603L260 234L252 265L550 265L534 230L562 603L539 603Z"  horiz-adv-x="1017" vert-adv-y="1000"  />

      
      <glyph glyph-name="uni01FC" unicode="&#x01FC;" d="M-60 0L489 705L1047 705L1030 604L653 604L680 625L661 374L649 409L978 409L962 307L636 307L656 317L639 74L627 102L951 102L935 0L516 0L530 194L554 163L185 163L233 197L84 0L-60 0M539 603L260 234L252 265L550 265L534 230L562 603L539 603M557 765L687 939L820 939L646 765L557 765Z"  horiz-adv-x="1017" vert-adv-y="1000"  />

      
      <glyph glyph-name="uni42" unicode="&#x42;" d="M38 0L150 705L459 705Q574 705 628 655.50Q682 606 668 515Q658 452 613 410Q568 368 499 353L501 368Q576 357 610.50 308.50Q645 260 634 187Q620 97 550 48.50Q480 0 364 0L38 0M177 98L361 98Q426 98 465 121.50Q504 145 512 196Q519 238 506.50 262.50Q494 287 466 298Q438 309 396 309L210 309L177 98M226 406L391 406Q460 406 496.50 430.50Q533 455 540 500Q549 556 521.50 582Q494 608 430 608L258 608L226 406Z"  horiz-adv-x="690" vert-adv-y="1000"  />

      
      <glyph glyph-name="uni0181" unicode="&#x0181;" d="M192 0L289 614L262 614Q210 614 182.50 590.50Q155 567 147 517L139 469L34 469L42 521Q57 613 116.50 659Q176 705 285 705L613 705Q728 705 782 655.50Q836 606 822 515Q812 452 767 410Q722 368 654 353L656 368Q730 357 765 308.50Q800 260 789 187Q775 97 704.50 48.50Q634 0 518 0L192 0M332 98L515 98Q580 98 619 121.50Q658 145 666 196Q673 238 660.50 262.50Q648 287 620 298Q592 309 550 309L365 309L332 98M381 406L546 406Q614 406 651 430.50Q688 455 695 500Q703 556 675.50 582Q648 608 584 608L412 608L381 406Z"  horiz-adv-x="845" vert-adv-y="1000"  />

      
      <glyph glyph-name="uni43" unicode="&#x43;" d="M383-10Q263-10 188 38.50Q113 87 84.50 172.50Q56 258 73 368Q91 479 143.50 556.50Q196 634 279 675Q362 716 469 715Q539 715 594.50 695.50Q650 676 688 641L642 538Q600 573 559.50 587Q519 601 463 601Q360 601 293 538.50Q226 476 207 360Q195 282 211.50 224.50Q228 167 275 135.50Q322 104 398 104Q448 104 497 120.50Q546 137 593 175L631 74Q582 34 517 12Q452-10 383-10Z"  horiz-adv-x="685" vert-adv-y="1000"  />

      
      <glyph glyph-name="uni0106" unicode="&#x0106;" d="M383-10Q263-10 188 38.50Q113 87 84.50 172.50Q56 258 73 368Q91 479 143.50 556.50Q196 634 279 675Q362 716 469 715Q539 715 594.50 695.50Q650 676 688 641L642 538Q600 573 559.50 587Q519 601 463 601Q360 601 293 538.50Q226 476 207 360Q195 282 211.50 224.50Q228 167 275 135.50Q322 104 398 104Q448 104 497 120.50Q546 137 593 175L631 74Q582 34 517 12Q452-10 383-10M436 765L566 939L699 939L525 765L436 765Z"  horiz-adv-x="685" vert-adv-y="1000"  />

      
      <glyph glyph-name="uni010C" unicode="&#x010C;" d="M383-10Q263-10 188 38.50Q113 87 84.50 172.50Q56 258 73 368Q91 479 143.50 556.50Q196 634 279 675Q362 716 469 715Q539 715 594.50 695.50Q650 676 688 641L642 538Q600 573 559.50 587Q519 601 463 601Q360 601 293 538.50Q226 476 207 360Q195 282 211.50 224.50Q228 167 275 135.50Q322 104 398 104Q448 104 497 120.50Q546 137 593 175L631 74Q582 34 517 12Q452-10 383-10M426 765L318 939L403 939L483 835L584 939L675 939L533 765L426 765Z"  horiz-adv-x="685" vert-adv-y="1000"  />

      
      <glyph glyph-name="unic7" unicode="&#xc7;" d="M383-10Q263-10 188 38.50Q113 87 84.50 172.50Q56 258 73 368Q91 479 143.50 556.50Q196 634 279 675Q362 716 469 715Q539 715 594.50 695.50Q650 676 688 641L642 538Q600 573 559.50 587Q519 601 463 601Q360 601 293 538.50Q226 476 207 360Q195 282 211.50 224.50Q228 167 275 135.50Q322 104 398 104Q448 104 497 120.50Q546 137 593 175L631 74Q582 34 517 12Q452-10 383-10M336-195Q307-195 280.50-189.50Q254-184 236-174L259-118Q276-126 293.50-130.50Q311-135 332-135Q359-135 374-127Q389-119 389-103Q389-93 380.50-87.50Q372-82 354-82Q345-82 335.50-83Q326-84 312-88L295-70L323 20L389 20L365-56L334-45Q346-41 358-39Q370-37 380-37Q419-37 441.50-54Q464-71 464-103Q464-145 427.50-170Q391-195 336-195Z"  horiz-adv-x="685" vert-adv-y="1000"  />

      
      <glyph glyph-name="uni1E08" unicode="&#x1E08;" d="M383-10Q263-10 188 38.50Q113 87 84.50 172.50Q56 258 73 368Q91 479 143.50 556.50Q196 634 279 675Q362 716 469 715Q539 715 594.50 695.50Q650 676 688 641L642 538Q600 573 559.50 587Q519 601 463 601Q360 601 293 538.50Q226 476 207 360Q195 282 211.50 224.50Q228 167 275 135.50Q322 104 398 104Q448 104 497 120.50Q546 137 593 175L631 74Q582 34 517 12Q452-10 383-10M336-195Q307-195 280.50-189.50Q254-184 236-174L259-118Q276-126 293.50-130.50Q311-135 332-135Q359-135 374-127Q389-119 389-103Q389-93 380.50-87.50Q372-82 354-82Q345-82 335.50-83Q326-84 312-88L295-70L323 20L389 20L365-56L334-45Q346-41 358-39Q370-37 380-37Q419-37 441.50-54Q464-71 464-103Q464-145 427.50-170Q391-195 336-195M436 765L566 939L699 939L525 765L436 765Z"  horiz-adv-x="685" vert-adv-y="1000"  />

      
      <glyph glyph-name="uni0108" unicode="&#x0108;" d="M383-10Q263-10 188 38.50Q113 87 84.50 172.50Q56 258 73 368Q91 479 143.50 556.50Q196 634 279 675Q362 716 469 715Q539 715 594.50 695.50Q650 676 688 641L642 538Q600 573 559.50 587Q519 601 463 601Q360 601 293 538.50Q226 476 207 360Q195 282 211.50 224.50Q228 167 275 135.50Q322 104 398 104Q448 104 497 120.50Q546 137 593 175L631 74Q582 34 517 12Q452-10 383-10M295 765L437 939L544 939L651 765L564 765L485 869L382 765L295 765Z"  horiz-adv-x="685" vert-adv-y="1000"  />

      
      <glyph glyph-name="uni010A" unicode="&#x010A;" d="M383-10Q263-10 188 38.50Q113 87 84.50 172.50Q56 258 73 368Q91 479 143.50 556.50Q196 634 279 675Q362 716 469 715Q539 715 594.50 695.50Q650 676 688 641L642 538Q600 573 559.50 587Q519 601 463 601Q360 601 293 538.50Q226 476 207 360Q195 282 211.50 224.50Q228 167 275 135.50Q322 104 398 104Q448 104 497 120.50Q546 137 593 175L631 74Q582 34 517 12Q452-10 383-10M423 794L441 910L562 910L544 794L423 794Z"  horiz-adv-x="685" vert-adv-y="1000"  />

      
      <glyph glyph-name="uni44" unicode="&#x44;" d="M38 0L150 705L394 705Q522 705 600.50 660.50Q679 616 709 534Q739 452 721 338Q694 169 585.50 84.50Q477 0 299 0L38 0M184 107L303 107Q431 107 502.50 166Q574 225 593 346Q613 476 560 537.50Q507 599 379 599L261 599L184 107Z"  horiz-adv-x="762" vert-adv-y="1000"  />

      
      <glyph glyph-name="uni01C4" unicode="&#x01C4;" d="M38 0L150 705L394 705Q522 705 600.50 660.50Q679 616 709 534Q739 452 721 338Q694 169 585.50 84.50Q477 0 299 0L38 0M184 107L303 107Q431 107 502.50 166Q574 225 593 346Q613 476 560 537.50Q507 599 379 599L261 599L184 107M752 0L767 95L1242 639L1236 598L847 598L864 705L1382 705L1367 611L891 67L897 107L1300 107L1283 0L752 0M1086 765L978 939L1063 939L1143 835L1244 939L1335 939L1193 765L1086 765Z"  horiz-adv-x="1355" vert-adv-y="1000"  />

      
      <glyph glyph-name="unid0" unicode="&#xd0;" d="M38 0L150 705L394 705Q522 705 600.50 660.50Q679 616 709 534Q739 452 721 338Q694 169 585.50 84.50Q477 0 299 0L38 0M184 107L303 107Q431 107 502.50 166Q574 225 593 346Q613 476 560 537.50Q507 599 379 599L261 599L184 107M3 310L18 404L423 404L408 310L3 310Z"  horiz-adv-x="762" vert-adv-y="1000"  />

      
      <glyph glyph-name="uni010E" unicode="&#x010E;" d="M38 0L150 705L394 705Q522 705 600.50 660.50Q679 616 709 534Q739 452 721 338Q694 169 585.50 84.50Q477 0 299 0L38 0M184 107L303 107Q431 107 502.50 166Q574 225 593 346Q613 476 560 537.50Q507 599 379 599L261 599L184 107M416 765L308 939L393 939L473 835L574 939L665 939L523 765L416 765Z"  horiz-adv-x="762" vert-adv-y="1000"  />

      
      <glyph glyph-name="uni0110" unicode="&#x0110;" d="M38 0L150 705L394 705Q522 705 600.50 660.50Q679 616 709 534Q739 452 721 338Q694 169 585.50 84.50Q477 0 299 0L38 0M184 107L303 107Q431 107 502.50 166Q574 225 593 346Q613 476 560 537.50Q507 599 379 599L261 599L184 107M3 310L18 404L423 404L408 310L3 310Z"  horiz-adv-x="762" vert-adv-y="1000"  />

      
      <glyph glyph-name="uni1E0C" unicode="&#x1E0C;" d="M38 0L150 705L394 705Q522 705 600.50 660.50Q679 616 709 534Q739 452 721 338Q694 169 585.50 84.50Q477 0 299 0L38 0M184 107L303 107Q431 107 502.50 166Q574 225 593 346Q613 476 560 537.50Q507 599 379 599L261 599L184 107M254-204L273-88L395-88L376-204L254-204Z"  horiz-adv-x="762" vert-adv-y="1000"  />

      
      <glyph glyph-name="uni018A" unicode="&#x018A;" d="M192 0L289 614L262 614Q210 614 182.50 590.50Q155 567 147 517L139 469L34 469L42 521Q57 613 116.50 659Q176 705 280 705L548 705Q677 705 755.50 660.50Q834 616 864 534Q894 452 876 338Q849 169 740.50 84.50Q632 0 454 0L192 0M338 107L457 107Q585 107 657 166Q729 225 748 346Q768 476 715 537.50Q662 599 533 599L416 599L338 107Z"  horiz-adv-x="917" vert-adv-y="1000"  />

      
      <glyph glyph-name="uni1E0E" unicode="&#x1E0E;" d="M38 0L150 705L394 705Q522 705 600.50 660.50Q679 616 709 534Q739 452 721 338Q694 169 585.50 84.50Q477 0 299 0L38 0M184 107L303 107Q431 107 502.50 166Q574 225 593 346Q613 476 560 537.50Q507 599 379 599L261 599L184 107M164-165L176-91L492-91L480-165L164-165Z"  horiz-adv-x="762" vert-adv-y="1000"  />

      
      <glyph glyph-name="uni01C5" unicode="&#x01C5;" d="M38 0L150 705L394 705Q522 705 600.50 660.50Q679 616 709 534Q739 452 721 338Q694 169 585.50 84.50Q477 0 299 0L38 0M184 107L303 107Q431 107 502.50 166Q574 225 593 346Q613 476 560 537.50Q507 599 379 599L261 599L184 107M770 0L783 82L1150 441L1145 411L835 411L850 505L1279 505L1266 423L896 61L901 94L1225 94L1210 0L770 0M1023 554L933 757L1012 757L1082 625L1183 757L1263 757L1132 554L1023 554Z"  horiz-adv-x="1288" vert-adv-y="1000"  />

      
      <glyph glyph-name="uni45" unicode="&#x45;" d="M38 0L150 705L625 705L609 604L257 604L227 409L555 409L539 307L211 307L178 102L529 102L513 0L38 0Z"  horiz-adv-x="595" vert-adv-y="1000"  />

      
      <glyph glyph-name="unic9" unicode="&#xc9;" d="M38 0L150 705L625 705L609 604L257 604L227 409L555 409L539 307L211 307L178 102L529 102L513 0L38 0M371 765L501 939L634 939L460 765L371 765Z"  horiz-adv-x="595" vert-adv-y="1000"  />

      
      <glyph glyph-name="uni0114" unicode="&#x0114;" d="M38 0L150 705L625 705L609 604L257 604L227 409L555 409L539 307L211 307L178 102L529 102L513 0L38 0M417 760Q366 760 328 781.50Q290 803 269 841.50Q248 880 248 930L319 939Q318 890 346 862.50Q374 835 422 835Q470 835 502 862.50Q534 890 543 939L613 930Q601 852 548 806Q495 760 417 760Z"  horiz-adv-x="595" vert-adv-y="1000"  />

      
      <glyph glyph-name="uni011A" unicode="&#x011A;" d="M38 0L150 705L625 705L609 604L257 604L227 409L555 409L539 307L211 307L178 102L529 102L513 0L38 0M361 765L253 939L338 939L418 835L519 939L610 939L468 765L361 765Z"  horiz-adv-x="595" vert-adv-y="1000"  />

      
      <glyph glyph-name="uni0228" unicode="&#x0228;" d="M38 0L150 705L625 705L609 604L257 604L227 409L555 409L539 307L211 307L178 102L529 102L513 0L38 0M271-195Q242-195 215.50-189.50Q189-184 171-174L194-118Q211-126 228.50-130.50Q246-135 267-135Q294-135 309-127Q324-119 324-103Q324-93 315.50-87.50Q307-82 289-82Q280-82 270.50-83Q261-84 247-88L230-70L258 20L324 20L300-56L269-45Q281-41 293-39Q305-37 315-37Q354-37 376.50-54Q399-71 399-103Q399-145 362.50-170Q326-195 271-195Z"  horiz-adv-x="595" vert-adv-y="1000"  />

      
      <glyph glyph-name="uni1E1C" unicode="&#x1E1C;" d="M38 0L150 705L625 705L609 604L257 604L227 409L555 409L539 307L211 307L178 102L529 102L513 0L38 0M271-195Q242-195 215.50-189.50Q189-184 171-174L194-118Q211-126 228.50-130.50Q246-135 267-135Q294-135 309-127Q324-119 324-103Q324-93 315.50-87.50Q307-82 289-82Q280-82 270.50-83Q261-84 247-88L230-70L258 20L324 20L300-56L269-45Q281-41 293-39Q305-37 315-37Q354-37 376.50-54Q399-71 399-103Q399-145 362.50-170Q326-195 271-195M417 760Q366 760 328 781.50Q290 803 269 841.50Q248 880 248 930L319 939Q318 890 346 862.50Q374 835 422 835Q470 835 502 862.50Q534 890 543 939L613 930Q601 852 548 806Q495 760 417 760Z"  horiz-adv-x="595" vert-adv-y="1000"  />

      
      <glyph glyph-name="unica" unicode="&#xca;" d="M38 0L150 705L625 705L609 604L257 604L227 409L555 409L539 307L211 307L178 102L529 102L513 0L38 0M230 765L372 939L479 939L586 765L499 765L420 869L317 765L230 765Z"  horiz-adv-x="595" vert-adv-y="1000"  />

      
      <glyph glyph-name="uni1EBE" unicode="&#x1EBE;" d="M38 0L150 705L625 705L609 604L257 604L227 409L555 409L539 307L211 307L178 102L529 102L513 0L38 0M248 765L373 929L482 929L578 765L499 765L422 861L327 765L248 765M531 872L627 1022L732 1022L602 872L531 872Z"  horiz-adv-x="595" vert-adv-y="1000"  />

      
      <glyph glyph-name="uni1EC6" unicode="&#x1EC6;" d="M38 0L150 705L625 705L609 604L257 604L227 409L555 409L539 307L211 307L178 102L529 102L513 0L38 0M199-204L218-88L340-88L321-204L199-204M230 765L372 939L479 939L586 765L499 765L420 869L317 765L230 765Z"  horiz-adv-x="595" vert-adv-y="1000"  />

      
      <glyph glyph-name="uni1EC0" unicode="&#x1EC0;" d="M38 0L150 705L625 705L609 604L257 604L227 409L555 409L539 307L211 307L178 102L529 102L513 0L38 0M248 765L373 929L482 929L578 765L499 765L422 861L327 765L248 765M570 872L466 1022L570 1022L642 872L570 872Z"  horiz-adv-x="595" vert-adv-y="1000"  />

      
      <glyph glyph-name="uni1EC2" unicode="&#x1EC2;" d="M38 0L150 705L625 705L609 604L257 604L227 409L555 409L539 307L211 307L178 102L529 102L513 0L38 0M248 765L373 929L482 929L578 765L499 765L422 861L327 765L248 765M534 872Q536 891 544.50 902.50Q553 914 564.50 922.50Q576 931 584 938.50Q592 946 592 957Q592 965 583 968.50Q574 972 560 972Q545 972 528 968.50Q511 965 498 960L487 1007Q507 1016 530.50 1021Q554 1026 586 1026Q629 1026 652.50 1013Q676 1000 676 978Q676 958 665.50 945Q655 932 640.50 922Q626 912 615 900.50Q604 889 602 872L534 872Z"  horiz-adv-x="595" vert-adv-y="1000"  />

      
      <glyph glyph-name="uni1EC4" unicode="&#x1EC4;" d="M38 0L150 705L625 705L609 604L257 604L227 409L555 409L539 307L211 307L178 102L529 102L513 0L38 0M248 765L370 899L479 899L578 765L501 765L420 837L325 765L248 765M317 923L259 926Q267 979 296.50 1006.50Q326 1034 371 1034Q394 1034 412 1026Q430 1018 446 1009Q460 1002 472.50 996Q485 990 498 990Q521 990 533.50 1000.50Q546 1011 553 1035L611 1031Q603 978 574 950.50Q545 923 500 923Q478 923 459.50 931Q441 939 425 948Q411 956 398.50 962Q386 968 373 968Q350 968 337 957Q324 946 317 923Z"  horiz-adv-x="595" vert-adv-y="1000"  />

      
      <glyph glyph-name="uni0204" unicode="&#x0204;" d="M38 0L150 705L625 705L609 604L257 604L227 409L555 409L539 307L211 307L178 102L529 102L513 0L38 0M453 765L341 939L453 939L523 765L453 765M306 765L185 939L296 939L377 765L306 765Z"  horiz-adv-x="595" vert-adv-y="1000"  />

      
      <glyph glyph-name="unicb" unicode="&#xcb;" d="M38 0L150 705L625 705L609 604L257 604L227 409L555 409L539 307L211 307L178 102L529 102L513 0L38 0M455 790L473 905L588 905L569 790L455 790M266 790L284 905L399 905L381 790L266 790Z"  horiz-adv-x="595" vert-adv-y="1000"  />

      
      <glyph glyph-name="uni0116" unicode="&#x0116;" d="M38 0L150 705L625 705L609 604L257 604L227 409L555 409L539 307L211 307L178 102L529 102L513 0L38 0M358 794L376 910L497 910L479 794L358 794Z"  horiz-adv-x="595" vert-adv-y="1000"  />

      
      <glyph glyph-name="uni1EB8" unicode="&#x1EB8;" d="M38 0L150 705L625 705L609 604L257 604L227 409L555 409L539 307L211 307L178 102L529 102L513 0L38 0M199-204L218-88L340-88L321-204L199-204Z"  horiz-adv-x="595" vert-adv-y="1000"  />

      
      <glyph glyph-name="unic8" unicode="&#xc8;" d="M38 0L150 705L625 705L609 604L257 604L227 409L555 409L539 307L211 307L178 102L529 102L513 0L38 0M370 765L225 939L354 939L459 765L370 765Z"  horiz-adv-x="595" vert-adv-y="1000"  />

      
      <glyph glyph-name="uni1EBA" unicode="&#x1EBA;" d="M38 0L150 705L625 705L609 604L257 604L227 409L555 409L539 307L211 307L178 102L529 102L513 0L38 0M376 765L379 783Q382 801 392 812.50Q402 824 414 832.50Q426 841 434.50 848.50Q443 856 443 867Q443 876 432.50 880.50Q422 885 404 885Q388 885 373.50 882Q359 879 342 872L327 925Q371 946 438 946Q485 946 511 930Q537 914 537 886Q537 862 525.50 848.50Q514 835 498 826Q482 817 469.50 806Q457 795 455 777L453 765L376 765Z"  horiz-adv-x="595" vert-adv-y="1000"  />

      
      <glyph glyph-name="uni0206" unicode="&#x0206;" d="M38 0L150 705L625 705L609 604L257 604L227 409L555 409L539 307L211 307L178 102L529 102L513 0L38 0M300 760L229 769Q241 848 294.50 893.50Q348 939 426 939Q477 939 515 918Q553 897 574 858.50Q595 820 595 769L523 760Q524 810 496.50 837.50Q469 865 421 865Q373 865 340.50 837.50Q308 810 300 760Z"  horiz-adv-x="595" vert-adv-y="1000"  />

      
      <glyph glyph-name="uni0112" unicode="&#x0112;" d="M38 0L150 705L625 705L609 604L257 604L227 409L555 409L539 307L211 307L178 102L529 102L513 0L38 0M248 806L259 880L605 880L593 806L248 806Z"  horiz-adv-x="595" vert-adv-y="1000"  />

      
      <glyph glyph-name="uni1E16" unicode="&#x1E16;" d="M38 0L150 705L625 705L609 604L257 604L227 409L555 409L539 307L211 307L178 102L529 102L513 0L38 0M259 783L271 857L586 857L575 783L259 783M396 894L480 1026L600 1026L474 894L396 894Z"  horiz-adv-x="595" vert-adv-y="1000"  />

      
      <glyph glyph-name="uni1E14" unicode="&#x1E14;" d="M38 0L150 705L625 705L609 604L257 604L227 409L555 409L539 307L211 307L178 102L529 102L513 0L38 0M396 894L293 1026L412 1026L474 894L396 894M259 783L271 857L586 857L575 783L259 783Z"  horiz-adv-x="595" vert-adv-y="1000"  />

      
      <glyph glyph-name="uni0118" unicode="&#x0118;" d="M38 0L150 705L625 705L609 604L257 604L227 409L555 409L539 307L211 307L178 102L529 102L513 0L38 0M431-195Q380-195 352.50-169.50Q325-144 325-101Q325-53 357-15Q389 23 438 42L471 0Q436-14 420-36Q404-58 404-81Q404-102 418-115Q432-128 455-128Q469-128 481.50-125Q494-122 509-117L521-179Q497-186 476-190.50Q455-195 431-195Z"  horiz-adv-x="595" vert-adv-y="1000"  />

      
      <glyph glyph-name="uni1EBC" unicode="&#x1EBC;" d="M38 0L150 705L625 705L609 604L257 604L227 409L555 409L539 307L211 307L178 102L529 102L513 0L38 0M252 772L190 776Q201 847 238.50 885.50Q276 924 331 924Q361 924 387 912.50Q413 901 436 887Q456 876 474 867Q492 858 511 858Q567 858 585 928L647 924Q636 853 599 814.50Q562 776 507 776Q477 776 451 788Q425 800 402 813Q382 824 363.50 833Q345 842 326 842Q270 842 252 772Z"  horiz-adv-x="595" vert-adv-y="1000"  />

      
      <glyph glyph-name="uni46" unicode="&#x46;" d="M38 0L150 705L615 705L598 604L262 604L231 404L544 404L528 303L215 303L167 0L38 0Z"  horiz-adv-x="572" vert-adv-y="1000"  />

      
      <glyph glyph-name="uni47" unicode="&#x47;" d="M391-10Q264-10 187.50 37Q111 84 83 168.50Q55 253 73 366Q91 478 146 555.50Q201 633 287.50 674Q374 715 485 715Q562 715 617 697Q672 679 709 647L662 546Q621 577 581.50 590Q542 603 480 603Q365 603 295 538.50Q225 474 207 355Q188 235 234 167.50Q280 100 404 100Q450 100 490.50 108Q531 116 574 132L536 77L569 288L405 288L420 382L692 382L638 45Q605 28 563 15.50Q521 3 476.50-3.50Q432-10 391-10Z"  horiz-adv-x="740" vert-adv-y="1000"  />

      
      <glyph glyph-name="uni011E" unicode="&#x011E;" d="M391-10Q264-10 187.50 37Q111 84 83 168.50Q55 253 73 366Q91 478 146 555.50Q201 633 287.50 674Q374 715 485 715Q562 715 617 697Q672 679 709 647L662 546Q621 577 581.50 590Q542 603 480 603Q365 603 295 538.50Q225 474 207 355Q188 235 234 167.50Q280 100 404 100Q450 100 490.50 108Q531 116 574 132L536 77L569 288L405 288L420 382L692 382L638 45Q605 28 563 15.50Q521 3 476.50-3.50Q432-10 391-10M494 760Q443 760 405 781.50Q367 803 346 841.50Q325 880 325 930L396 939Q395 890 423 862.50Q451 835 499 835Q547 835 579 862.50Q611 890 620 939L690 930Q678 852 625 806Q572 760 494 760Z"  horiz-adv-x="740" vert-adv-y="1000"  />

      
      <glyph glyph-name="uni01E6" unicode="&#x01E6;" d="M391-10Q264-10 187.50 37Q111 84 83 168.50Q55 253 73 366Q91 478 146 555.50Q201 633 287.50 674Q374 715 485 715Q562 715 617 697Q672 679 709 647L662 546Q621 577 581.50 590Q542 603 480 603Q365 603 295 538.50Q225 474 207 355Q188 235 234 167.50Q280 100 404 100Q450 100 490.50 108Q531 116 574 132L536 77L569 288L405 288L420 382L692 382L638 45Q605 28 563 15.50Q521 3 476.50-3.50Q432-10 391-10M438 765L330 939L415 939L495 835L596 939L687 939L545 765L438 765Z"  horiz-adv-x="740" vert-adv-y="1000"  />

      
      <glyph glyph-name="uni011C" unicode="&#x011C;" d="M391-10Q264-10 187.50 37Q111 84 83 168.50Q55 253 73 366Q91 478 146 555.50Q201 633 287.50 674Q374 715 485 715Q562 715 617 697Q672 679 709 647L662 546Q621 577 581.50 590Q542 603 480 603Q365 603 295 538.50Q225 474 207 355Q188 235 234 167.50Q280 100 404 100Q450 100 490.50 108Q531 116 574 132L536 77L569 288L405 288L420 382L692 382L638 45Q605 28 563 15.50Q521 3 476.50-3.50Q432-10 391-10M307 765L449 939L556 939L663 765L576 765L497 869L394 765L307 765Z"  horiz-adv-x="740" vert-adv-y="1000"  />

      
      <glyph glyph-name="uni0122" unicode="&#x0122;" d="M391-10Q264-10 187.50 37Q111 84 83 168.50Q55 253 73 366Q91 478 146 555.50Q201 633 287.50 674Q374 715 485 715Q562 715 617 697Q672 679 709 647L662 546Q621 577 581.50 590Q542 603 480 603Q365 603 295 538.50Q225 474 207 355Q188 235 234 167.50Q280 100 404 100Q450 100 490.50 108Q531 116 574 132L536 77L569 288L405 288L420 382L692 382L638 45Q605 28 563 15.50Q521 3 476.50-3.50Q432-10 391-10M344-278L306-242Q332-222 341-203.50Q350-185 354-160L379-175L287-175L304-73L435-73L422-149Q415-192 399-222.50Q383-253 344-278Z"  horiz-adv-x="740" vert-adv-y="1000"  />

      
      <glyph glyph-name="uni0120" unicode="&#x0120;" d="M391-10Q264-10 187.50 37Q111 84 83 168.50Q55 253 73 366Q91 478 146 555.50Q201 633 287.50 674Q374 715 485 715Q562 715 617 697Q672 679 709 647L662 546Q621 577 581.50 590Q542 603 480 603Q365 603 295 538.50Q225 474 207 355Q188 235 234 167.50Q280 100 404 100Q450 100 490.50 108Q531 116 574 132L536 77L569 288L405 288L420 382L692 382L638 45Q605 28 563 15.50Q521 3 476.50-3.50Q432-10 391-10M435 794L453 910L574 910L556 794L435 794Z"  horiz-adv-x="740" vert-adv-y="1000"  />

      
      <glyph glyph-name="uni1E20" unicode="&#x1E20;" d="M391-10Q264-10 187.50 37Q111 84 83 168.50Q55 253 73 366Q91 478 146 555.50Q201 633 287.50 674Q374 715 485 715Q562 715 617 697Q672 679 709 647L662 546Q621 577 581.50 590Q542 603 480 603Q365 603 295 538.50Q225 474 207 355Q188 235 234 167.50Q280 100 404 100Q450 100 490.50 108Q531 116 574 132L536 77L569 288L405 288L420 382L692 382L638 45Q605 28 563 15.50Q521 3 476.50-3.50Q432-10 391-10M325 806L336 880L682 880L670 806L325 806Z"  horiz-adv-x="740" vert-adv-y="1000"  />

      
      <glyph glyph-name="uni48" unicode="&#x48;" d="M38 0L150 705L279 705L232 411L593 411L640 705L769 705L657 0L528 0L576 304L215 304L167 0L38 0Z"  horiz-adv-x="774" vert-adv-y="1000"  />

      
      <glyph glyph-name="uni0126" unicode="&#x0126;" d="M62 0L142 511L55 511L70 605L157 605L174 705L303 705L286 605L646 605L663 705L792 705L775 605L862 605L847 511L760 511L680 0L551 0L597 292L237 292L191 0L62 0M254 400L614 400L631 511L271 511L254 400Z"  horiz-adv-x="821" vert-adv-y="1000"  />

      
      <glyph glyph-name="uni1E2A" unicode="&#x1E2A;" d="M38 0L150 705L279 705L232 411L593 411L640 705L769 705L657 0L528 0L576 304L215 304L167 0L38 0M328-215Q255-215 211.50-173.50Q168-132 173-62L244-55Q243-95 266-118Q289-141 331-141Q373-141 400-118Q427-95 434-55L505-62Q497-132 449.50-173.50Q402-215 328-215Z"  horiz-adv-x="774" vert-adv-y="1000"  />

      
      <glyph glyph-name="uni0124" unicode="&#x0124;" d="M38 0L150 705L279 705L232 411L593 411L640 705L769 705L657 0L528 0L576 304L215 304L167 0L38 0M285 765L427 939L534 939L641 765L554 765L475 869L372 765L285 765Z"  horiz-adv-x="774" vert-adv-y="1000"  />

      
      <glyph glyph-name="uni1E24" unicode="&#x1E24;" d="M38 0L150 705L279 705L232 411L593 411L640 705L769 705L657 0L528 0L576 304L215 304L167 0L38 0M254-204L273-88L395-88L376-204L254-204Z"  horiz-adv-x="774" vert-adv-y="1000"  />

      
      <glyph glyph-name="uni49" unicode="&#x49;" d="M38 0L150 705L279 705L167 0L38 0Z"  horiz-adv-x="284" vert-adv-y="1000"  />

      
      <glyph glyph-name="uni0132" unicode="&#x0132;" d="M38 0L150 705L279 705L167 0L38 0M304-187Q287-187 263.50-184.50Q240-182 217-175L233-73Q252-80 269-82Q286-84 299-84Q345-84 370-57Q395-30 404 29L511 705L640 705L531 19Q520-53 492.50-98.50Q465-144 419-165.50Q373-187 304-187Z"  horiz-adv-x="646" vert-adv-y="1000"  />

      
      <glyph glyph-name="unicd" unicode="&#xcd;" d="M38 0L150 705L279 705L167 0L38 0M180 765L310 939L443 939L269 765L180 765Z"  horiz-adv-x="284" vert-adv-y="1000"  />

      
      <glyph glyph-name="uni012C" unicode="&#x012C;" d="M38 0L150 705L279 705L167 0L38 0M226 760Q175 760 137 781.50Q99 803 78 841.50Q57 880 57 930L128 939Q127 890 155 862.50Q183 835 231 835Q279 835 311 862.50Q343 890 352 939L422 930Q410 852 357 806Q304 760 226 760Z"  horiz-adv-x="284" vert-adv-y="1000"  />

      
      <glyph glyph-name="unice" unicode="&#xce;" d="M38 0L150 705L279 705L167 0L38 0M39 765L181 939L288 939L395 765L308 765L229 869L126 765L39 765Z"  horiz-adv-x="284" vert-adv-y="1000"  />

      
      <glyph glyph-name="uni0208" unicode="&#x0208;" d="M38 0L150 705L279 705L167 0L38 0M262 765L150 939L262 939L332 765L262 765M115 765L-6 939L105 939L186 765L115 765Z"  horiz-adv-x="284" vert-adv-y="1000"  />

      
      <glyph glyph-name="unicf" unicode="&#xcf;" d="M38 0L150 705L279 705L167 0L38 0M264 790L282 905L397 905L378 790L264 790M75 790L93 905L208 905L190 790L75 790Z"  horiz-adv-x="284" vert-adv-y="1000"  />

      
      <glyph glyph-name="uni1E2E" unicode="&#x1E2E;" d="M38 0L150 705L279 705L167 0L38 0M205 894L289 1026L409 1026L283 894L205 894M72 770L86 858L201 858L187 770L72 770M261 770L275 858L390 858L376 770L261 770Z"  horiz-adv-x="284" vert-adv-y="1000"  />

      
      <glyph glyph-name="uni0130" unicode="&#x0130;" d="M38 0L150 705L279 705L167 0L38 0M167 794L185 910L306 910L288 794L167 794Z"  horiz-adv-x="284" vert-adv-y="1000"  />

      
      <glyph glyph-name="uni1ECA" unicode="&#x1ECA;" d="M38 0L150 705L279 705L167 0L38 0M8-204L27-88L149-88L130-204L8-204Z"  horiz-adv-x="284" vert-adv-y="1000"  />

      
      <glyph glyph-name="unicc" unicode="&#xcc;" d="M38 0L150 705L279 705L167 0L38 0M179 765L34 939L163 939L268 765L179 765Z"  horiz-adv-x="284" vert-adv-y="1000"  />

      
      <glyph glyph-name="uni1EC8" unicode="&#x1EC8;" d="M38 0L150 705L279 705L167 0L38 0M185 765L188 783Q191 801 201 812.50Q211 824 223 832.50Q235 841 243.50 848.50Q252 856 252 867Q252 876 241.50 880.50Q231 885 213 885Q197 885 182.50 882Q168 879 151 872L136 925Q180 946 247 946Q294 946 320 930Q346 914 346 886Q346 862 334.50 848.50Q323 835 307 826Q291 817 278.50 806Q266 795 264 777L262 765L185 765Z"  horiz-adv-x="284" vert-adv-y="1000"  />

      
      <glyph glyph-name="uni020A" unicode="&#x020A;" d="M38 0L150 705L279 705L167 0L38 0M109 760L38 769Q50 848 103.50 893.50Q157 939 235 939Q286 939 324 918Q362 897 383 858.50Q404 820 404 769L332 760Q333 810 305.50 837.50Q278 865 230 865Q182 865 149.50 837.50Q117 810 109 760Z"  horiz-adv-x="284" vert-adv-y="1000"  />

      
      <glyph glyph-name="uni012A" unicode="&#x012A;" d="M38 0L150 705L279 705L167 0L38 0M57 806L68 880L414 880L402 806L57 806Z"  horiz-adv-x="284" vert-adv-y="1000"  />

      
      <glyph glyph-name="uni012E" unicode="&#x012E;" d="M38 0L150 705L279 705L167 0L38 0M99-195Q48-195 20.50-169.50Q-7-144-7-101Q-7-53 25-15Q57 23 106 42L139 0Q104-14 88-36Q72-58 72-81Q72-102 86-115Q100-128 123-128Q137-128 149.50-125Q162-122 177-117L189-179Q165-186 144-190.50Q123-195 99-195Z"  horiz-adv-x="284" vert-adv-y="1000"  />

      
      <glyph glyph-name="uni0128" unicode="&#x0128;" d="M38 0L150 705L279 705L167 0L38 0M61 772L-1 776Q10 847 47.50 885.50Q85 924 140 924Q170 924 196 912.50Q222 901 245 887Q265 876 283 867Q301 858 320 858Q376 858 394 928L456 924Q445 853 408 814.50Q371 776 316 776Q286 776 260 788Q234 800 211 813Q191 824 172.50 833Q154 842 135 842Q79 842 61 772Z"  horiz-adv-x="284" vert-adv-y="1000"  />

      
      <glyph glyph-name="uni4a" unicode="&#x4a;" d="M20-187Q3-187-20.50-184.50Q-44-182-67-175L-51-73Q-32-80-15-82Q2-84 15-84Q61-84 86-57Q111-30 120 29L227 705L356 705L247 19Q236-53 208.50-98.50Q181-144 135-165.50Q89-187 20-187Z"  horiz-adv-x="362" vert-adv-y="1000"  />

      
      <glyph glyph-name="uni0134" unicode="&#x0134;" d="M20-187Q3-187-20.50-184.50Q-44-182-67-175L-51-73Q-32-80-15-82Q2-84 15-84Q61-84 86-57Q111-30 120 29L227 705L356 705L247 19Q236-53 208.50-98.50Q181-144 135-165.50Q89-187 20-187M118 765L260 939L367 939L474 765L387 765L308 869L205 765L118 765Z"  horiz-adv-x="362" vert-adv-y="1000"  />

      
      <glyph glyph-name="uni4b" unicode="&#x4b;" d="M38 0L150 705L279 705L229 393L231 393L583 705L744 705L325 338L321 394L656 0L501 0L221 326L219 326L167 0L38 0Z"  horiz-adv-x="666" vert-adv-y="1000"  />

      
      <glyph glyph-name="uni0136" unicode="&#x0136;" d="M38 0L150 705L279 705L229 393L231 393L583 705L744 705L325 338L321 394L656 0L501 0L221 326L219 326L167 0L38 0M262-278L224-242Q250-222 259-203.50Q268-185 272-160L297-175L205-175L222-73L353-73L340-149Q333-192 317-222.50Q301-253 262-278Z"  horiz-adv-x="666" vert-adv-y="1000"  />

      
      <glyph glyph-name="uni4c" unicode="&#x4c;" d="M38 0L150 705L279 705L184 109L516 109L499 0L38 0Z"  horiz-adv-x="560" vert-adv-y="1000"  />

      
      <glyph glyph-name="uni01C7" unicode="&#x01C7;" d="M38 0L150 705L279 705L184 109L516 109L499 0L38 0M620-187Q603-187 579.50-184.50Q556-182 533-175L549-73Q568-80 585-82Q602-84 615-84Q661-84 686-57Q711-30 720 29L827 705L956 705L847 19Q836-53 808.50-98.50Q781-144 735-165.50Q689-187 620-187Z"  horiz-adv-x="962" vert-adv-y="1000"  />

      
      <glyph glyph-name="uni0139" unicode="&#x0139;" d="M38 0L150 705L279 705L184 109L516 109L499 0L38 0M180 765L310 939L443 939L269 765L180 765Z"  horiz-adv-x="560" vert-adv-y="1000"  />

      
      <glyph glyph-name="uni013D" unicode="&#x013D;" d="M38 0L150 705L279 705L184 109L516 109L499 0L38 0M346 469L384 705L481 705L420 469L346 469Z"  horiz-adv-x="560" vert-adv-y="1000"  />

      
      <glyph glyph-name="uni013B" unicode="&#x013B;" d="M38 0L150 705L279 705L184 109L516 109L499 0L38 0M236-278L198-242Q224-222 233-203.50Q242-185 246-160L271-175L179-175L196-73L327-73L314-149Q307-192 291-222.50Q275-253 236-278Z"  horiz-adv-x="560" vert-adv-y="1000"  />

      
      <glyph glyph-name="uni013F" unicode="&#x013F;" d="M38 0L150 705L279 705L184 109L516 109L499 0L38 0M370 332L390 455L530 455L511 332L370 332Z"  horiz-adv-x="560" vert-adv-y="1000"  />

      
      <glyph glyph-name="uni1E36" unicode="&#x1E36;" d="M38 0L150 705L279 705L184 109L516 109L499 0L38 0M179-204L198-88L320-88L301-204L179-204Z"  horiz-adv-x="560" vert-adv-y="1000"  />

      
      <glyph glyph-name="uni01C8" unicode="&#x01C8;" d="M38 0L150 705L279 705L184 109L516 109L499 0L38 0M502-222Q483-222 462-219Q441-216 424-209L440-110Q452-114 466.50-117Q481-120 495-120Q531-120 555-98Q579-76 587-24L671 505L796 505L711-31Q696-125 645-173.50Q594-222 502-222M678 600L698 722L837 722L817 600L678 600Z"  horiz-adv-x="821" vert-adv-y="1000"  />

      
      <glyph glyph-name="uni1E3A" unicode="&#x1E3A;" d="M38 0L150 705L279 705L184 109L516 109L499 0L38 0M89-165L101-91L417-91L405-165L89-165Z"  horiz-adv-x="560" vert-adv-y="1000"  />

      
      <glyph glyph-name="uni0141" unicode="&#x0141;" d="M38 0L150 705L279 705L184 109L516 109L499 0L38 0M14 246L-27 334L392 529L433 441L14 246Z"  horiz-adv-x="560" vert-adv-y="1000"  />

      
      <glyph glyph-name="uni4d" unicode="&#x4d;" d="M39 0L151 705L264 705L430 122L399 122L751 705L863 705L751 0L634 0L717 523L754 523L433 0L358 0L202 523L239 523L156 0L39 0Z"  horiz-adv-x="870" vert-adv-y="1000"  />

      
      <glyph glyph-name="uni1E42" unicode="&#x1E42;" d="M39 0L151 705L264 705L430 122L399 122L751 705L863 705L751 0L634 0L717 523L754 523L433 0L358 0L202 523L239 523L156 0L39 0M301-204L320-88L442-88L423-204L301-204Z"  horiz-adv-x="870" vert-adv-y="1000"  />

      
      <glyph glyph-name="uni4e" unicode="&#x4e;" d="M38 0L150 705L247 705L569 169L546 176L630 705L750 705L638 0L541 0L219 536L242 529L158 0L38 0Z"  horiz-adv-x="755" vert-adv-y="1000"  />

      
      <glyph glyph-name="uni01CA" unicode="&#x01CA;" d="M38 0L150 705L247 705L569 169L546 176L630 705L750 705L638 0L541 0L219 536L242 529L158 0L38 0M775-187Q758-187 734.50-184.50Q711-182 688-175L704-73Q723-80 740-82Q757-84 770-84Q816-84 841-57Q866-30 875 29L982 705L1111 705L1002 19Q991-53 963.50-98.50Q936-144 890-165.50Q844-187 775-187Z"  horiz-adv-x="1117" vert-adv-y="1000"  />

      
      <glyph glyph-name="uni0143" unicode="&#x0143;" d="M38 0L150 705L247 705L569 169L546 176L630 705L750 705L638 0L541 0L219 536L242 529L158 0L38 0M418 765L548 939L681 939L507 765L418 765Z"  horiz-adv-x="755" vert-adv-y="1000"  />

      
      <glyph glyph-name="uni0147" unicode="&#x0147;" d="M38 0L150 705L247 705L569 169L546 176L630 705L750 705L638 0L541 0L219 536L242 529L158 0L38 0M408 765L300 939L385 939L465 835L566 939L657 939L515 765L408 765Z"  horiz-adv-x="755" vert-adv-y="1000"  />

      
      <glyph glyph-name="uni0145" unicode="&#x0145;" d="M38 0L150 705L247 705L569 169L546 176L630 705L750 705L638 0L541 0L219 536L242 529L158 0L38 0M304-278L266-242Q292-222 301-203.50Q310-185 314-160L339-175L247-175L264-73L395-73L382-149Q375-192 359-222.50Q343-253 304-278Z"  horiz-adv-x="755" vert-adv-y="1000"  />

      
      <glyph glyph-name="uni1E44" unicode="&#x1E44;" d="M38 0L150 705L247 705L569 169L546 176L630 705L750 705L638 0L541 0L219 536L242 529L158 0L38 0M405 794L423 910L544 910L526 794L405 794Z"  horiz-adv-x="755" vert-adv-y="1000"  />

      
      <glyph glyph-name="uni1E46" unicode="&#x1E46;" d="M38 0L150 705L247 705L569 169L546 176L630 705L750 705L638 0L541 0L219 536L242 529L158 0L38 0M247-204L266-88L388-88L369-204L247-204Z"  horiz-adv-x="755" vert-adv-y="1000"  />

      
      <glyph glyph-name="uni014A" unicode="&#x014A;" d="M363-193L369-102L419-97Q461-94 485.50-71.50Q510-49 517-7L526 51L541 0L219 536L242 529L158 0L38 0L150 705L247 705L569 169L546 176L630 705L750 705L639 5Q629-60 602-101.50Q575-143 528-164Q481-185 409-190L363-193Z"  horiz-adv-x="755" vert-adv-y="1000"  />

      
      <glyph glyph-name="uni01CB" unicode="&#x01CB;" d="M38 0L150 705L247 705L569 169L546 176L630 705L750 705L638 0L541 0L219 536L242 529L158 0L38 0M697-222Q678-222 657-219Q636-216 619-209L635-110Q647-114 661.50-117Q676-120 690-120Q726-120 750-98Q774-76 782-24L866 505L991 505L906-31Q891-125 840-173.50Q789-222 697-222M873 600L893 722L1032 722L1012 600L873 600Z"  horiz-adv-x="1016" vert-adv-y="1000"  />

      
      <glyph glyph-name="uni1E48" unicode="&#x1E48;" d="M38 0L150 705L247 705L569 169L546 176L630 705L750 705L638 0L541 0L219 536L242 529L158 0L38 0M157-165L169-91L485-91L473-165L157-165Z"  horiz-adv-x="755" vert-adv-y="1000"  />

      
      <glyph glyph-name="unid1" unicode="&#xd1;" d="M38 0L150 705L247 705L569 169L546 176L630 705L750 705L638 0L541 0L219 536L242 529L158 0L38 0M299 772L237 776Q248 847 285.50 885.50Q323 924 378 924Q408 924 434 912.50Q460 901 483 887Q503 876 521 867Q539 858 558 858Q614 858 632 928L694 924Q683 853 646 814.50Q609 776 554 776Q524 776 498 788Q472 800 449 813Q429 824 410.50 833Q392 842 373 842Q317 842 299 772Z"  horiz-adv-x="755" vert-adv-y="1000"  />

      
      <glyph glyph-name="uni4f" unicode="&#x4f;" d="M73 368Q91 479 142 556.50Q193 634 272.50 674.50Q352 715 453 715Q565 715 636 666.50Q707 618 735 533Q763 448 745 338Q728 227 676.50 149.50Q625 72 546 31Q467-10 365-10Q254-10 183 38.50Q112 87 84 172.50Q56 258 73 368M207 358Q194 277 209.50 219.50Q225 162 267 131Q309 100 375 100Q474 100 534 166.50Q594 233 612 348Q625 429 609 486.50Q593 544 551 574.50Q509 605 442 605Q343 605 284.50 539.50Q226 474 207 358Z"  horiz-adv-x="787" vert-adv-y="1000"  />

      
      <glyph glyph-name="unid3" unicode="&#xd3;" d="M73 368Q91 479 142 556.50Q193 634 272.50 674.50Q352 715 453 715Q565 715 636 666.50Q707 618 735 533Q763 448 745 338Q728 227 676.50 149.50Q625 72 546 31Q467-10 365-10Q254-10 183 38.50Q112 87 84 172.50Q56 258 73 368M207 358Q194 277 209.50 219.50Q225 162 267 131Q309 100 375 100Q474 100 534 166.50Q594 233 612 348Q625 429 609 486.50Q593 544 551 574.50Q509 605 442 605Q343 605 284.50 539.50Q226 474 207 358M431 765L561 939L694 939L520 765L431 765Z"  horiz-adv-x="787" vert-adv-y="1000"  />

      
      <glyph glyph-name="uni014E" unicode="&#x014E;" d="M73 368Q91 479 142 556.50Q193 634 272.50 674.50Q352 715 453 715Q565 715 636 666.50Q707 618 735 533Q763 448 745 338Q728 227 676.50 149.50Q625 72 546 31Q467-10 365-10Q254-10 183 38.50Q112 87 84 172.50Q56 258 73 368M207 358Q194 277 209.50 219.50Q225 162 267 131Q309 100 375 100Q474 100 534 166.50Q594 233 612 348Q625 429 609 486.50Q593 544 551 574.50Q509 605 442 605Q343 605 284.50 539.50Q226 474 207 358M477 760Q426 760 388 781.50Q350 803 329 841.50Q308 880 308 930L379 939Q378 890 406 862.50Q434 835 482 835Q530 835 562 862.50Q594 890 603 939L673 930Q661 852 608 806Q555 760 477 760Z"  horiz-adv-x="787" vert-adv-y="1000"  />

      
      <glyph glyph-name="unid4" unicode="&#xd4;" d="M73 368Q91 479 142 556.50Q193 634 272.50 674.50Q352 715 453 715Q565 715 636 666.50Q707 618 735 533Q763 448 745 338Q728 227 676.50 149.50Q625 72 546 31Q467-10 365-10Q254-10 183 38.50Q112 87 84 172.50Q56 258 73 368M207 358Q194 277 209.50 219.50Q225 162 267 131Q309 100 375 100Q474 100 534 166.50Q594 233 612 348Q625 429 609 486.50Q593 544 551 574.50Q509 605 442 605Q343 605 284.50 539.50Q226 474 207 358M290 765L432 939L539 939L646 765L559 765L480 869L377 765L290 765Z"  horiz-adv-x="787" vert-adv-y="1000"  />

      
      <glyph glyph-name="uni1ED0" unicode="&#x1ED0;" d="M73 368Q91 479 142 556.50Q193 634 272.50 674.50Q352 715 453 715Q565 715 636 666.50Q707 618 735 533Q763 448 745 338Q728 227 676.50 149.50Q625 72 546 31Q467-10 365-10Q254-10 183 38.50Q112 87 84 172.50Q56 258 73 368M207 358Q194 277 209.50 219.50Q225 162 267 131Q309 100 375 100Q474 100 534 166.50Q594 233 612 348Q625 429 609 486.50Q593 544 551 574.50Q509 605 442 605Q343 605 284.50 539.50Q226 474 207 358M308 765L433 929L542 929L638 765L559 765L482 861L387 765L308 765M591 872L687 1022L792 1022L662 872L591 872Z"  horiz-adv-x="787" vert-adv-y="1000"  />

      
      <glyph glyph-name="uni1ED8" unicode="&#x1ED8;" d="M73 368Q91 479 142 556.50Q193 634 272.50 674.50Q352 715 453 715Q565 715 636 666.50Q707 618 735 533Q763 448 745 338Q728 227 676.50 149.50Q625 72 546 31Q467-10 365-10Q254-10 183 38.50Q112 87 84 172.50Q56 258 73 368M207 358Q194 277 209.50 219.50Q225 162 267 131Q309 100 375 100Q474 100 534 166.50Q594 233 612 348Q625 429 609 486.50Q593 544 551 574.50Q509 605 442 605Q343 605 284.50 539.50Q226 474 207 358M259-204L278-88L400-88L381-204L259-204M290 765L432 939L539 939L646 765L559 765L480 869L377 765L290 765Z"  horiz-adv-x="787" vert-adv-y="1000"  />

      
      <glyph glyph-name="uni1ED2" unicode="&#x1ED2;" d="M73 368Q91 479 142 556.50Q193 634 272.50 674.50Q352 715 453 715Q565 715 636 666.50Q707 618 735 533Q763 448 745 338Q728 227 676.50 149.50Q625 72 546 31Q467-10 365-10Q254-10 183 38.50Q112 87 84 172.50Q56 258 73 368M207 358Q194 277 209.50 219.50Q225 162 267 131Q309 100 375 100Q474 100 534 166.50Q594 233 612 348Q625 429 609 486.50Q593 544 551 574.50Q509 605 442 605Q343 605 284.50 539.50Q226 474 207 358M308 765L433 929L542 929L638 765L559 765L482 861L387 765L308 765M630 872L526 1022L630 1022L702 872L630 872Z"  horiz-adv-x="787" vert-adv-y="1000"  />

      
      <glyph glyph-name="uni1ED4" unicode="&#x1ED4;" d="M73 368Q91 479 142 556.50Q193 634 272.50 674.50Q352 715 453 715Q565 715 636 666.50Q707 618 735 533Q763 448 745 338Q728 227 676.50 149.50Q625 72 546 31Q467-10 365-10Q254-10 183 38.50Q112 87 84 172.50Q56 258 73 368M207 358Q194 277 209.50 219.50Q225 162 267 131Q309 100 375 100Q474 100 534 166.50Q594 233 612 348Q625 429 609 486.50Q593 544 551 574.50Q509 605 442 605Q343 605 284.50 539.50Q226 474 207 358M308 765L433 929L542 929L638 765L559 765L482 861L387 765L308 765M594 872Q596 891 604.50 902.50Q613 914 624.50 922.50Q636 931 644 938.50Q652 946 652 957Q652 965 643 968.50Q634 972 620 972Q605 972 588 968.50Q571 965 558 960L547 1007Q567 1016 590.50 1021Q614 1026 646 1026Q689 1026 712.50 1013Q736 1000 736 978Q736 958 725.50 945Q715 932 700.50 922Q686 912 675 900.50Q664 889 662 872L594 872Z"  horiz-adv-x="787" vert-adv-y="1000"  />

      
      <glyph glyph-name="uni1ED6" unicode="&#x1ED6;" d="M73 368Q91 479 142 556.50Q193 634 272.50 674.50Q352 715 453 715Q565 715 636 666.50Q707 618 735 533Q763 448 745 338Q728 227 676.50 149.50Q625 72 546 31Q467-10 365-10Q254-10 183 38.50Q112 87 84 172.50Q56 258 73 368M207 358Q194 277 209.50 219.50Q225 162 267 131Q309 100 375 100Q474 100 534 166.50Q594 233 612 348Q625 429 609 486.50Q593 544 551 574.50Q509 605 442 605Q343 605 284.50 539.50Q226 474 207 358M308 765L430 899L539 899L638 765L561 765L480 837L385 765L308 765M377 923L319 926Q327 979 356.50 1006.50Q386 1034 431 1034Q454 1034 472 1026Q490 1018 506 1009Q520 1002 532.50 996Q545 990 558 990Q581 990 593.50 1000.50Q606 1011 613 1035L671 1031Q663 978 634 950.50Q605 923 560 923Q538 923 519.50 931Q501 939 485 948Q471 956 458.50 962Q446 968 433 968Q410 968 397 957Q384 946 377 923Z"  horiz-adv-x="787" vert-adv-y="1000"  />

      
      <glyph glyph-name="uni020C" unicode="&#x020C;" d="M73 368Q91 479 142 556.50Q193 634 272.50 674.50Q352 715 453 715Q565 715 636 666.50Q707 618 735 533Q763 448 745 338Q728 227 676.50 149.50Q625 72 546 31Q467-10 365-10Q254-10 183 38.50Q112 87 84 172.50Q56 258 73 368M207 358Q194 277 209.50 219.50Q225 162 267 131Q309 100 375 100Q474 100 534 166.50Q594 233 612 348Q625 429 609 486.50Q593 544 551 574.50Q509 605 442 605Q343 605 284.50 539.50Q226 474 207 358M513 765L401 939L513 939L583 765L513 765M366 765L245 939L356 939L437 765L366 765Z"  horiz-adv-x="787" vert-adv-y="1000"  />

      
      <glyph glyph-name="unid6" unicode="&#xd6;" d="M73 368Q91 479 142 556.50Q193 634 272.50 674.50Q352 715 453 715Q565 715 636 666.50Q707 618 735 533Q763 448 745 338Q728 227 676.50 149.50Q625 72 546 31Q467-10 365-10Q254-10 183 38.50Q112 87 84 172.50Q56 258 73 368M207 358Q194 277 209.50 219.50Q225 162 267 131Q309 100 375 100Q474 100 534 166.50Q594 233 612 348Q625 429 609 486.50Q593 544 551 574.50Q509 605 442 605Q343 605 284.50 539.50Q226 474 207 358M515 790L533 905L648 905L629 790L515 790M326 790L344 905L459 905L441 790L326 790Z"  horiz-adv-x="787" vert-adv-y="1000"  />

      
      <glyph glyph-name="uni022A" unicode="&#x022A;" d="M73 368Q91 479 142 556.50Q193 634 272.50 674.50Q352 715 453 715Q565 715 636 666.50Q707 618 735 533Q763 448 745 338Q728 227 676.50 149.50Q625 72 546 31Q467-10 365-10Q254-10 183 38.50Q112 87 84 172.50Q56 258 73 368M207 358Q194 277 209.50 219.50Q225 162 267 131Q309 100 375 100Q474 100 534 166.50Q594 233 612 348Q625 429 609 486.50Q593 544 551 574.50Q509 605 442 605Q343 605 284.50 539.50Q226 474 207 358M342 924L353 998L669 998L657 924L342 924M326 788L340 875L455 875L441 788L326 788M515 788L529 875L644 875L630 788L515 788Z"  horiz-adv-x="787" vert-adv-y="1000"  />

      
      <glyph glyph-name="uni0230" unicode="&#x0230;" d="M73 368Q91 479 142 556.50Q193 634 272.50 674.50Q352 715 453 715Q565 715 636 666.50Q707 618 735 533Q763 448 745 338Q728 227 676.50 149.50Q625 72 546 31Q467-10 365-10Q254-10 183 38.50Q112 87 84 172.50Q56 258 73 368M207 358Q194 277 209.50 219.50Q225 162 267 131Q309 100 375 100Q474 100 534 166.50Q594 233 612 348Q625 429 609 486.50Q593 544 551 574.50Q509 605 442 605Q343 605 284.50 539.50Q226 474 207 358M342 924L353 998L669 998L657 924L342 924M421 788L435 875L550 875L536 788L421 788Z"  horiz-adv-x="787" vert-adv-y="1000"  />

      
      <glyph glyph-name="uni1ECC" unicode="&#x1ECC;" d="M73 368Q91 479 142 556.50Q193 634 272.50 674.50Q352 715 453 715Q565 715 636 666.50Q707 618 735 533Q763 448 745 338Q728 227 676.50 149.50Q625 72 546 31Q467-10 365-10Q254-10 183 38.50Q112 87 84 172.50Q56 258 73 368M207 358Q194 277 209.50 219.50Q225 162 267 131Q309 100 375 100Q474 100 534 166.50Q594 233 612 348Q625 429 609 486.50Q593 544 551 574.50Q509 605 442 605Q343 605 284.50 539.50Q226 474 207 358M259-204L278-88L400-88L381-204L259-204Z"  horiz-adv-x="787" vert-adv-y="1000"  />

      
      <glyph glyph-name="unid2" unicode="&#xd2;" d="M73 368Q91 479 142 556.50Q193 634 272.50 674.50Q352 715 453 715Q565 715 636 666.50Q707 618 735 533Q763 448 745 338Q728 227 676.50 149.50Q625 72 546 31Q467-10 365-10Q254-10 183 38.50Q112 87 84 172.50Q56 258 73 368M207 358Q194 277 209.50 219.50Q225 162 267 131Q309 100 375 100Q474 100 534 166.50Q594 233 612 348Q625 429 609 486.50Q593 544 551 574.50Q509 605 442 605Q343 605 284.50 539.50Q226 474 207 358M430 765L285 939L414 939L519 765L430 765Z"  horiz-adv-x="787" vert-adv-y="1000"  />

      
      <glyph glyph-name="uni1ECE" unicode="&#x1ECE;" d="M73 368Q91 479 142 556.50Q193 634 272.50 674.50Q352 715 453 715Q565 715 636 666.50Q707 618 735 533Q763 448 745 338Q728 227 676.50 149.50Q625 72 546 31Q467-10 365-10Q254-10 183 38.50Q112 87 84 172.50Q56 258 73 368M207 358Q194 277 209.50 219.50Q225 162 267 131Q309 100 375 100Q474 100 534 166.50Q594 233 612 348Q625 429 609 486.50Q593 544 551 574.50Q509 605 442 605Q343 605 284.50 539.50Q226 474 207 358M436 765L439 783Q442 801 452 812.50Q462 824 474 832.50Q486 841 494.50 848.50Q503 856 503 867Q503 876 492.50 880.50Q482 885 464 885Q448 885 433.50 882Q419 879 402 872L387 925Q431 946 498 946Q545 946 571 930Q597 914 597 886Q597 862 585.50 848.50Q574 835 558 826Q542 817 529.50 806Q517 795 515 777L513 765L436 765Z"  horiz-adv-x="787" vert-adv-y="1000"  />

      
      <glyph glyph-name="uni01A0" unicode="&#x01A0;" d="M73 368Q91 479 142 556.50Q193 634 272.50 674.50Q352 715 453 715Q565 715 636 666.50Q707 618 735 533Q763 448 745 338Q728 227 676.50 149.50Q625 72 546 31Q467-10 365-10Q254-10 183 38.50Q112 87 84 172.50Q56 258 73 368M207 358Q194 277 209.50 219.50Q225 162 267 131Q309 100 375 100Q474 100 534 166.50Q594 233 612 348Q625 429 609 486.50Q593 544 551 574.50Q509 605 442 605Q343 605 284.50 539.50Q226 474 207 358M559 641L523 709Q545 708 561.50 706.50Q578 705 594 705Q630 705 652 714.50Q674 724 686.50 747.50Q699 771 706 811L709 832L819 832L813 795Q806 751 785 716Q764 681 730 661Q696 641 651 641L559 641Z"  horiz-adv-x="787" vert-adv-y="1000"  />

      
      <glyph glyph-name="uni1EDA" unicode="&#x1EDA;" d="M73 368Q91 479 142 556.50Q193 634 272.50 674.50Q352 715 453 715Q565 715 636 666.50Q707 618 735 533Q763 448 745 338Q728 227 676.50 149.50Q625 72 546 31Q467-10 365-10Q254-10 183 38.50Q112 87 84 172.50Q56 258 73 368M207 358Q194 277 209.50 219.50Q225 162 267 131Q309 100 375 100Q474 100 534 166.50Q594 233 612 348Q625 429 609 486.50Q593 544 551 574.50Q509 605 442 605Q343 605 284.50 539.50Q226 474 207 358M559 641L523 709Q545 708 561.50 706.50Q578 705 594 705Q630 705 652 714.50Q674 724 686.50 747.50Q699 771 706 811L709 832L819 832L813 795Q806 751 785 716Q764 681 730 661Q696 641 651 641L559 641M439 765L569 939L702 939L528 765L439 765Z"  horiz-adv-x="787" vert-adv-y="1000"  />

      
      <glyph glyph-name="uni1EE2" unicode="&#x1EE2;" d="M73 368Q91 479 142 556.50Q193 634 272.50 674.50Q352 715 453 715Q565 715 636 666.50Q707 618 735 533Q763 448 745 338Q728 227 676.50 149.50Q625 72 546 31Q467-10 365-10Q254-10 183 38.50Q112 87 84 172.50Q56 258 73 368M207 358Q194 277 209.50 219.50Q225 162 267 131Q309 100 375 100Q474 100 534 166.50Q594 233 612 348Q625 429 609 486.50Q593 544 551 574.50Q509 605 442 605Q343 605 284.50 539.50Q226 474 207 358M559 641L523 709Q545 708 561.50 706.50Q578 705 594 705Q630 705 652 714.50Q674 724 686.50 747.50Q699 771 706 811L709 832L819 832L813 795Q806 751 785 716Q764 681 730 661Q696 641 651 641L559 641M268-204L287-88L409-88L390-204L268-204Z"  horiz-adv-x="787" vert-adv-y="1000"  />

      
      <glyph glyph-name="uni1EDC" unicode="&#x1EDC;" d="M73 368Q91 479 142 556.50Q193 634 272.50 674.50Q352 715 453 715Q565 715 636 666.50Q707 618 735 533Q763 448 745 338Q728 227 676.50 149.50Q625 72 546 31Q467-10 365-10Q254-10 183 38.50Q112 87 84 172.50Q56 258 73 368M207 358Q194 277 209.50 219.50Q225 162 267 131Q309 100 375 100Q474 100 534 166.50Q594 233 612 348Q625 429 609 486.50Q593 544 551 574.50Q509 605 442 605Q343 605 284.50 539.50Q226 474 207 358M559 641L523 709Q545 708 561.50 706.50Q578 705 594 705Q630 705 652 714.50Q674 724 686.50 747.50Q699 771 706 811L709 832L819 832L813 795Q806 751 785 716Q764 681 730 661Q696 641 651 641L559 641M438 765L293 939L422 939L527 765L438 765Z"  horiz-adv-x="787" vert-adv-y="1000"  />

      
      <glyph glyph-name="uni1EDE" unicode="&#x1EDE;" d="M73 368Q91 479 142 556.50Q193 634 272.50 674.50Q352 715 453 715Q565 715 636 666.50Q707 618 735 533Q763 448 745 338Q728 227 676.50 149.50Q625 72 546 31Q467-10 365-10Q254-10 183 38.50Q112 87 84 172.50Q56 258 73 368M207 358Q194 277 209.50 219.50Q225 162 267 131Q309 100 375 100Q474 100 534 166.50Q594 233 612 348Q625 429 609 486.50Q593 544 551 574.50Q509 605 442 605Q343 605 284.50 539.50Q226 474 207 358M559 641L523 709Q545 708 561.50 706.50Q578 705 594 705Q630 705 652 714.50Q674 724 686.50 747.50Q699 771 706 811L709 832L819 832L813 795Q806 751 785 716Q764 681 730 661Q696 641 651 641L559 641M444 765L447 783Q450 801 460 812.50Q470 824 482 832.50Q494 841 502.50 848.50Q511 856 511 867Q511 876 500.50 880.50Q490 885 472 885Q456 885 441.50 882Q427 879 410 872L395 925Q439 946 506 946Q553 946 579 930Q605 914 605 886Q605 862 593.50 848.50Q582 835 566 826Q550 817 537.50 806Q525 795 523 777L521 765L444 765Z"  horiz-adv-x="787" vert-adv-y="1000"  />

      
      <glyph glyph-name="uni1EE0" unicode="&#x1EE0;" d="M73 368Q91 479 142 556.50Q193 634 272.50 674.50Q352 715 453 715Q565 715 636 666.50Q707 618 735 533Q763 448 745 338Q728 227 676.50 149.50Q625 72 546 31Q467-10 365-10Q254-10 183 38.50Q112 87 84 172.50Q56 258 73 368M207 358Q194 277 209.50 219.50Q225 162 267 131Q309 100 375 100Q474 100 534 166.50Q594 233 612 348Q625 429 609 486.50Q593 544 551 574.50Q509 605 442 605Q343 605 284.50 539.50Q226 474 207 358M559 641L523 709Q545 708 561.50 706.50Q578 705 594 705Q630 705 652 714.50Q674 724 686.50 747.50Q699 771 706 811L709 832L819 832L813 795Q806 751 785 716Q764 681 730 661Q696 641 651 641L559 641M340 772L278 776Q288 847 323.50 885.50Q359 924 412 924Q441 924 460.50 913Q480 902 497 888Q512 876 526.50 867Q541 858 560 858Q614 858 631 928L693 924Q683 853 648 814.50Q613 776 560 776Q531 776 510.50 788Q490 800 473 813Q458 824 443 833Q428 842 411 842Q357 842 340 772Z"  horiz-adv-x="787" vert-adv-y="1000"  />

      
      <glyph glyph-name="uni0150" unicode="&#x0150;" d="M73 368Q91 479 142 556.50Q193 634 272.50 674.50Q352 715 453 715Q565 715 636 666.50Q707 618 735 533Q763 448 745 338Q728 227 676.50 149.50Q625 72 546 31Q467-10 365-10Q254-10 183 38.50Q112 87 84 172.50Q56 258 73 368M207 358Q194 277 209.50 219.50Q225 162 267 131Q309 100 375 100Q474 100 534 166.50Q594 233 612 348Q625 429 609 486.50Q593 544 551 574.50Q509 605 442 605Q343 605 284.50 539.50Q226 474 207 358M366 765L467 939L579 939L437 765L366 765M513 765L623 939L735 939L584 765L513 765Z"  horiz-adv-x="787" vert-adv-y="1000"  />

      
      <glyph glyph-name="uni020E" unicode="&#x020E;" d="M73 368Q91 479 142 556.50Q193 634 272.50 674.50Q352 715 453 715Q565 715 636 666.50Q707 618 735 533Q763 448 745 338Q728 227 676.50 149.50Q625 72 546 31Q467-10 365-10Q254-10 183 38.50Q112 87 84 172.50Q56 258 73 368M207 358Q194 277 209.50 219.50Q225 162 267 131Q309 100 375 100Q474 100 534 166.50Q594 233 612 348Q625 429 609 486.50Q593 544 551 574.50Q509 605 442 605Q343 605 284.50 539.50Q226 474 207 358M360 760L289 769Q301 848 354.50 893.50Q408 939 486 939Q537 939 575 918Q613 897 634 858.50Q655 820 655 769L583 760Q584 810 556.50 837.50Q529 865 481 865Q433 865 400.50 837.50Q368 810 360 760Z"  horiz-adv-x="787" vert-adv-y="1000"  />

      
      <glyph glyph-name="uni014C" unicode="&#x014C;" d="M73 368Q91 479 142 556.50Q193 634 272.50 674.50Q352 715 453 715Q565 715 636 666.50Q707 618 735 533Q763 448 745 338Q728 227 676.50 149.50Q625 72 546 31Q467-10 365-10Q254-10 183 38.50Q112 87 84 172.50Q56 258 73 368M207 358Q194 277 209.50 219.50Q225 162 267 131Q309 100 375 100Q474 100 534 166.50Q594 233 612 348Q625 429 609 486.50Q593 544 551 574.50Q509 605 442 605Q343 605 284.50 539.50Q226 474 207 358M308 806L319 880L665 880L653 806L308 806Z"  horiz-adv-x="787" vert-adv-y="1000"  />

      
      <glyph glyph-name="uni1E52" unicode="&#x1E52;" d="M73 368Q91 479 142 556.50Q193 634 272.50 674.50Q352 715 453 715Q565 715 636 666.50Q707 618 735 533Q763 448 745 338Q728 227 676.50 149.50Q625 72 546 31Q467-10 365-10Q254-10 183 38.50Q112 87 84 172.50Q56 258 73 368M207 358Q194 277 209.50 219.50Q225 162 267 131Q309 100 375 100Q474 100 534 166.50Q594 233 612 348Q625 429 609 486.50Q593 544 551 574.50Q509 605 442 605Q343 605 284.50 539.50Q226 474 207 358M319 783L331 857L646 857L635 783L319 783M456 894L540 1026L660 1026L534 894L456 894Z"  horiz-adv-x="787" vert-adv-y="1000"  />

      
      <glyph glyph-name="uni1E50" unicode="&#x1E50;" d="M73 368Q91 479 142 556.50Q193 634 272.50 674.50Q352 715 453 715Q565 715 636 666.50Q707 618 735 533Q763 448 745 338Q728 227 676.50 149.50Q625 72 546 31Q467-10 365-10Q254-10 183 38.50Q112 87 84 172.50Q56 258 73 368M207 358Q194 277 209.50 219.50Q225 162 267 131Q309 100 375 100Q474 100 534 166.50Q594 233 612 348Q625 429 609 486.50Q593 544 551 574.50Q509 605 442 605Q343 605 284.50 539.50Q226 474 207 358M456 894L353 1026L472 1026L534 894L456 894M319 783L331 857L646 857L635 783L319 783Z"  horiz-adv-x="787" vert-adv-y="1000"  />

      
      <glyph glyph-name="uni01EA" unicode="&#x01EA;" d="M73 368Q91 479 142 556.50Q193 634 272.50 674.50Q352 715 453 715Q565 715 636 666.50Q707 618 735 533Q763 448 745 338Q728 227 676.50 149.50Q625 72 546 31Q467-10 365-10Q254-10 183 38.50Q112 87 84 172.50Q56 258 73 368M207 358Q194 277 209.50 219.50Q225 162 267 131Q309 100 375 100Q474 100 534 166.50Q594 233 612 348Q625 429 609 486.50Q593 544 551 574.50Q509 605 442 605Q343 605 284.50 539.50Q226 474 207 358M380-195Q329-195 301.50-169.50Q274-144 274-101Q274-53 306-15Q338 23 387 42L420 0Q385-14 369-36Q353-58 353-81Q353-102 367-115Q381-128 404-128Q418-128 430.50-125Q443-122 458-117L470-179Q446-186 425-190.50Q404-195 380-195Z"  horiz-adv-x="787" vert-adv-y="1000"  />

      
      <glyph glyph-name="unid8" unicode="&#xd8;" d="M73 368Q91 479 142 556.50Q193 634 272.50 674.50Q352 715 453 715Q565 715 636 666.50Q707 618 735 533Q763 448 745 338Q728 227 676.50 149.50Q625 72 546 31Q467-10 365-10Q254-10 183 38.50Q112 87 84 172.50Q56 258 73 368M207 358Q194 277 209.50 219.50Q225 162 267 131Q309 100 375 100Q474 100 534 166.50Q594 233 612 348Q625 429 609 486.50Q593 544 551 574.50Q509 605 442 605Q343 605 284.50 539.50Q226 474 207 358M254 62L174-47L96 7L177 116L226 169L544 591L573 645L654 753L732 699L651 591L602 537L284 115L254 62Z"  horiz-adv-x="787" vert-adv-y="1000"  />

      
      <glyph glyph-name="uni01FE" unicode="&#x01FE;" d="M73 368Q91 479 142 556.50Q193 634 272.50 674.50Q352 715 453 715Q565 715 636 666.50Q707 618 735 533Q763 448 745 338Q728 227 676.50 149.50Q625 72 546 31Q467-10 365-10Q254-10 183 38.50Q112 87 84 172.50Q56 258 73 368M207 358Q194 277 209.50 219.50Q225 162 267 131Q309 100 375 100Q474 100 534 166.50Q594 233 612 348Q625 429 609 486.50Q593 544 551 574.50Q509 605 442 605Q343 605 284.50 539.50Q226 474 207 358M254 62L174-47L96 7L177 116L226 169L544 591L573 645L654 753L732 699L651 591L602 537L284 115L254 62M431 765L561 939L694 939L520 765L431 765Z"  horiz-adv-x="787" vert-adv-y="1000"  />

      
      <glyph glyph-name="unid5" unicode="&#xd5;" d="M73 368Q91 479 142 556.50Q193 634 272.50 674.50Q352 715 453 715Q565 715 636 666.50Q707 618 735 533Q763 448 745 338Q728 227 676.50 149.50Q625 72 546 31Q467-10 365-10Q254-10 183 38.50Q112 87 84 172.50Q56 258 73 368M207 358Q194 277 209.50 219.50Q225 162 267 131Q309 100 375 100Q474 100 534 166.50Q594 233 612 348Q625 429 609 486.50Q593 544 551 574.50Q509 605 442 605Q343 605 284.50 539.50Q226 474 207 358M312 772L250 776Q261 847 298.50 885.50Q336 924 391 924Q421 924 447 912.50Q473 901 496 887Q516 876 534 867Q552 858 571 858Q627 858 645 928L707 924Q696 853 659 814.50Q622 776 567 776Q537 776 511 788Q485 800 462 813Q442 824 423.50 833Q405 842 386 842Q330 842 312 772Z"  horiz-adv-x="787" vert-adv-y="1000"  />

      
      <glyph glyph-name="uni1E4C" unicode="&#x1E4C;" d="M73 368Q91 479 142 556.50Q193 634 272.50 674.50Q352 715 453 715Q565 715 636 666.50Q707 618 735 533Q763 448 745 338Q728 227 676.50 149.50Q625 72 546 31Q467-10 365-10Q254-10 183 38.50Q112 87 84 172.50Q56 258 73 368M207 358Q194 277 209.50 219.50Q225 162 267 131Q309 100 375 100Q474 100 534 166.50Q594 233 612 348Q625 429 609 486.50Q593 544 551 574.50Q509 605 442 605Q343 605 284.50 539.50Q226 474 207 358M456 894L541 1026L661 1026L534 894L456 894M551 767Q529 767 509.50 775Q490 783 472 791Q458 799 444.50 805Q431 811 417 811Q394 811 381 800Q368 789 362 766L304 769Q312 823 342 850Q372 877 418 877Q439 877 458.50 869.50Q478 862 496 853Q510 846 524 839.50Q538 833 551 833Q574 833 586.50 844Q599 855 606 878L664 875Q656 821 625.50 794Q595 767 551 767Z"  horiz-adv-x="787" vert-adv-y="1000"  />

      
      <glyph glyph-name="uni1E4E" unicode="&#x1E4E;" d="M73 368Q91 479 142 556.50Q193 634 272.50 674.50Q352 715 453 715Q565 715 636 666.50Q707 618 735 533Q763 448 745 338Q728 227 676.50 149.50Q625 72 546 31Q467-10 365-10Q254-10 183 38.50Q112 87 84 172.50Q56 258 73 368M207 358Q194 277 209.50 219.50Q225 162 267 131Q309 100 375 100Q474 100 534 166.50Q594 233 612 348Q625 429 609 486.50Q593 544 551 574.50Q509 605 442 605Q343 605 284.50 539.50Q226 474 207 358M551 767Q529 767 509.50 775Q490 783 472 791Q458 799 444.50 805Q431 811 417 811Q394 811 381 800Q368 789 362 766L304 769Q312 823 342 850Q372 877 418 877Q439 877 458.50 869.50Q478 862 496 853Q510 846 524 839.50Q538 833 551 833Q574 833 586.50 844Q599 855 606 878L664 875Q656 821 625.50 794Q595 767 551 767M346 913L360 1001L475 1001L461 913L346 913M535 913L549 1001L664 1001L650 913L535 913Z"  horiz-adv-x="787" vert-adv-y="1000"  />

      
      <glyph glyph-name="uni022C" unicode="&#x022C;" d="M73 368Q91 479 142 556.50Q193 634 272.50 674.50Q352 715 453 715Q565 715 636 666.50Q707 618 735 533Q763 448 745 338Q728 227 676.50 149.50Q625 72 546 31Q467-10 365-10Q254-10 183 38.50Q112 87 84 172.50Q56 258 73 368M207 358Q194 277 209.50 219.50Q225 162 267 131Q309 100 375 100Q474 100 534 166.50Q594 233 612 348Q625 429 609 486.50Q593 544 551 574.50Q509 605 442 605Q343 605 284.50 539.50Q226 474 207 358M342 924L354 998L669 998L658 924L342 924M551 767Q529 767 509.50 775Q490 783 472 791Q458 799 444.50 805Q431 811 417 811Q394 811 381 800Q368 789 362 766L304 769Q312 823 342 850Q372 877 418 877Q439 877 458.50 869.50Q478 862 496 853Q510 846 524 839.50Q538 833 551 833Q574 833 586.50 844Q599 855 606 878L664 875Q656 821 625.50 794Q595 767 551 767Z"  horiz-adv-x="787" vert-adv-y="1000"  />

      
      <glyph glyph-name="uni0152" unicode="&#x0152;" d="M505 0L617 705L1085 705L1069 604L724 604L694 409L1016 409L1000 307L678 307L645 102L989 102L973 0L505 0M345-10Q240-10 173.50 38.50Q107 87 81.50 172.50Q56 258 73 368Q91 479 140.50 556.50Q190 634 266 674.50Q342 715 438 715Q498 715 546.50 697.50Q595 680 623 645L601 510Q579 558 539 581.50Q499 605 442 605Q343 605 284 539.50Q225 474 207 358Q194 278 208.50 220Q223 162 263.50 131Q304 100 369 100Q431 100 474.50 123Q518 146 549 186L529 57Q492 25 447 7.50Q402-10 345-10Z"  horiz-adv-x="1055" vert-adv-y="1000"  />

      
      <glyph glyph-name="uni50" unicode="&#x50;" d="M38 0L150 705L451 705Q572 705 627 644.50Q682 584 665 481Q656 421 622.50 376.50Q589 332 533.50 308Q478 284 401 284L212 284L167 0L38 0M228 386L397 386Q462 386 497.50 412Q533 438 541 490Q550 546 522 575Q494 604 429 604L262 604L228 386Z"  horiz-adv-x="666" vert-adv-y="1000"  />

      
      <glyph glyph-name="unide" unicode="&#xde;" d="M38 0L150 705L279 705L259 582L431 582Q553 582 607.50 521.50Q662 461 646 358Q637 298 603.50 253.50Q570 209 514.50 185Q459 161 382 161L192 161L167 0L38 0M208 263L377 263Q442 263 478 289Q514 315 522 367Q531 423 503 452Q475 481 410 481L243 481L208 263Z"  horiz-adv-x="667" vert-adv-y="1000"  />

      
      <glyph glyph-name="uni51" unicode="&#x51;" d="M512-192Q483-174 455-144.50Q427-115 404.50-78Q382-41 368-3L479 41Q496-11 532.50-53Q569-95 609-124L512-192M73 368Q91 479 142 556.50Q193 634 272.50 674.50Q352 715 453 715Q565 715 636 666.50Q707 618 735 533Q763 448 745 338Q728 227 676.50 149.50Q625 72 546 31Q467-10 365-10Q254-10 183 38.50Q112 87 84 172.50Q56 258 73 368M207 358Q194 277 209.50 219.50Q225 162 267 131Q309 100 375 100Q474 100 534 166.50Q594 233 612 348Q625 429 609 486.50Q593 544 551 574.50Q509 605 442 605Q343 605 284.50 539.50Q226 474 207 358Z"  horiz-adv-x="787" vert-adv-y="1000"  />

      
      <glyph glyph-name="uni52" unicode="&#x52;" d="M38 0L150 705L446 705Q571 705 627 648Q683 591 666 487Q657 426 621.50 382Q586 338 530.50 314.50Q475 291 405 291L410 310L441 310Q483 310 511.50 287.50Q540 265 556 221L631 0L496 0L420 229Q410 264 383 275Q356 286 316 286L212 286L167 0L38 0M227 381L393 381Q458 381 495.50 409Q533 437 541 489Q550 547 519.50 575.50Q489 604 421 604L262 604L227 381Z"  horiz-adv-x="702" vert-adv-y="1000"  />

      
      <glyph glyph-name="uni0154" unicode="&#x0154;" d="M38 0L150 705L446 705Q571 705 627 648Q683 591 666 487Q657 426 621.50 382Q586 338 530.50 314.50Q475 291 405 291L410 310L441 310Q483 310 511.50 287.50Q540 265 556 221L631 0L496 0L420 229Q410 264 383 275Q356 286 316 286L212 286L167 0L38 0M227 381L393 381Q458 381 495.50 409Q533 437 541 489Q550 547 519.50 575.50Q489 604 421 604L262 604L227 381M392 765L522 939L655 939L481 765L392 765Z"  horiz-adv-x="702" vert-adv-y="1000"  />

      
      <glyph glyph-name="uni0158" unicode="&#x0158;" d="M38 0L150 705L446 705Q571 705 627 648Q683 591 666 487Q657 426 621.50 382Q586 338 530.50 314.50Q475 291 405 291L410 310L441 310Q483 310 511.50 287.50Q540 265 556 221L631 0L496 0L420 229Q410 264 383 275Q356 286 316 286L212 286L167 0L38 0M227 381L393 381Q458 381 495.50 409Q533 437 541 489Q550 547 519.50 575.50Q489 604 421 604L262 604L227 381M382 765L274 939L359 939L439 835L540 939L631 939L489 765L382 765Z"  horiz-adv-x="702" vert-adv-y="1000"  />

      
      <glyph glyph-name="uni0156" unicode="&#x0156;" d="M38 0L150 705L446 705Q571 705 627 648Q683 591 666 487Q657 426 621.50 382Q586 338 530.50 314.50Q475 291 405 291L410 310L441 310Q483 310 511.50 287.50Q540 265 556 221L631 0L496 0L420 229Q410 264 383 275Q356 286 316 286L212 286L167 0L38 0M227 381L393 381Q458 381 495.50 409Q533 437 541 489Q550 547 519.50 575.50Q489 604 421 604L262 604L227 381M278-278L240-242Q266-222 275-203.50Q284-185 288-160L313-175L221-175L238-73L369-73L356-149Q349-192 333-222.50Q317-253 278-278Z"  horiz-adv-x="702" vert-adv-y="1000"  />

      
      <glyph glyph-name="uni0210" unicode="&#x0210;" d="M38 0L150 705L446 705Q571 705 627 648Q683 591 666 487Q657 426 621.50 382Q586 338 530.50 314.50Q475 291 405 291L410 310L441 310Q483 310 511.50 287.50Q540 265 556 221L631 0L496 0L420 229Q410 264 383 275Q356 286 316 286L212 286L167 0L38 0M227 381L393 381Q458 381 495.50 409Q533 437 541 489Q550 547 519.50 575.50Q489 604 421 604L262 604L227 381M474 765L362 939L474 939L544 765L474 765M327 765L206 939L317 939L398 765L327 765Z"  horiz-adv-x="702" vert-adv-y="1000"  />

      
      <glyph glyph-name="uni1E5A" unicode="&#x1E5A;" d="M38 0L150 705L446 705Q571 705 627 648Q683 591 666 487Q657 426 621.50 382Q586 338 530.50 314.50Q475 291 405 291L410 310L441 310Q483 310 511.50 287.50Q540 265 556 221L631 0L496 0L420 229Q410 264 383 275Q356 286 316 286L212 286L167 0L38 0M227 381L393 381Q458 381 495.50 409Q533 437 541 489Q550 547 519.50 575.50Q489 604 421 604L262 604L227 381M221-204L240-88L362-88L343-204L221-204Z"  horiz-adv-x="702" vert-adv-y="1000"  />

      
      <glyph glyph-name="uni0212" unicode="&#x0212;" d="M38 0L150 705L446 705Q571 705 627 648Q683 591 666 487Q657 426 621.50 382Q586 338 530.50 314.50Q475 291 405 291L410 310L441 310Q483 310 511.50 287.50Q540 265 556 221L631 0L496 0L420 229Q410 264 383 275Q356 286 316 286L212 286L167 0L38 0M227 381L393 381Q458 381 495.50 409Q533 437 541 489Q550 547 519.50 575.50Q489 604 421 604L262 604L227 381M321 760L250 769Q262 848 315.50 893.50Q369 939 447 939Q498 939 536 918Q574 897 595 858.50Q616 820 616 769L544 760Q545 810 517.50 837.50Q490 865 442 865Q394 865 361.50 837.50Q329 810 321 760Z"  horiz-adv-x="702" vert-adv-y="1000"  />

      
      <glyph glyph-name="uni1E5E" unicode="&#x1E5E;" d="M38 0L150 705L446 705Q571 705 627 648Q683 591 666 487Q657 426 621.50 382Q586 338 530.50 314.50Q475 291 405 291L410 310L441 310Q483 310 511.50 287.50Q540 265 556 221L631 0L496 0L420 229Q410 264 383 275Q356 286 316 286L212 286L167 0L38 0M227 381L393 381Q458 381 495.50 409Q533 437 541 489Q550 547 519.50 575.50Q489 604 421 604L262 604L227 381M131-165L143-91L459-91L447-165L131-165Z"  horiz-adv-x="702" vert-adv-y="1000"  />

      
      <glyph glyph-name="uni53" unicode="&#x53;" d="M291-10Q209-10 140.50 9.50Q72 29 27 60L72 161Q119 133 175 115.50Q231 98 301 98Q379 98 418 124Q457 150 463 191Q469 229 449 252Q429 275 372 283L268 300Q174 315 129.50 368.50Q85 422 98 506Q108 570 148 616.50Q188 663 253.50 689Q319 715 404 715Q475 715 535 696.50Q595 678 632 646L587 547Q550 575 501.50 591Q453 607 391 607Q319 607 276 580.50Q233 554 225 507Q218 468 239 442.50Q260 417 318 408L422 392Q518 377 561 326Q604 275 591 191Q582 133 543 87.50Q504 42 440.50 16Q377-10 291-10Z"  horiz-adv-x="645" vert-adv-y="1000"  />

      
      <glyph glyph-name="uni015A" unicode="&#x015A;" d="M291-10Q209-10 140.50 9.50Q72 29 27 60L72 161Q119 133 175 115.50Q231 98 301 98Q379 98 418 124Q457 150 463 191Q469 229 449 252Q429 275 372 283L268 300Q174 315 129.50 368.50Q85 422 98 506Q108 570 148 616.50Q188 663 253.50 689Q319 715 404 715Q475 715 535 696.50Q595 678 632 646L587 547Q550 575 501.50 591Q453 607 391 607Q319 607 276 580.50Q233 554 225 507Q218 468 239 442.50Q260 417 318 408L422 392Q518 377 561 326Q604 275 591 191Q582 133 543 87.50Q504 42 440.50 16Q377-10 291-10M369 765L499 939L632 939L458 765L369 765Z"  horiz-adv-x="645" vert-adv-y="1000"  />

      
      <glyph glyph-name="uni1E64" unicode="&#x1E64;" d="M291-10Q209-10 140.50 9.50Q72 29 27 60L72 161Q119 133 175 115.50Q231 98 301 98Q379 98 418 124Q457 150 463 191Q469 229 449 252Q429 275 372 283L268 300Q174 315 129.50 368.50Q85 422 98 506Q108 570 148 616.50Q188 663 253.50 689Q319 715 404 715Q475 715 535 696.50Q595 678 632 646L587 547Q550 575 501.50 591Q453 607 391 607Q319 607 276 580.50Q233 554 225 507Q218 468 239 442.50Q260 417 318 408L422 392Q518 377 561 326Q604 275 591 191Q582 133 543 87.50Q504 42 440.50 16Q377-10 291-10M322 963L336 1051L451 1051L437 963L322 963M372 765L501 969L626 969L456 765L372 765Z"  horiz-adv-x="645" vert-adv-y="1000"  />

      
      <glyph glyph-name="uni0160" unicode="&#x0160;" d="M291-10Q209-10 140.50 9.50Q72 29 27 60L72 161Q119 133 175 115.50Q231 98 301 98Q379 98 418 124Q457 150 463 191Q469 229 449 252Q429 275 372 283L268 300Q174 315 129.50 368.50Q85 422 98 506Q108 570 148 616.50Q188 663 253.50 689Q319 715 404 715Q475 715 535 696.50Q595 678 632 646L587 547Q550 575 501.50 591Q453 607 391 607Q319 607 276 580.50Q233 554 225 507Q218 468 239 442.50Q260 417 318 408L422 392Q518 377 561 326Q604 275 591 191Q582 133 543 87.50Q504 42 440.50 16Q377-10 291-10M359 765L251 939L336 939L416 835L517 939L608 939L466 765L359 765Z"  horiz-adv-x="645" vert-adv-y="1000"  />

      
      <glyph glyph-name="uni1E66" unicode="&#x1E66;" d="M291-10Q209-10 140.50 9.50Q72 29 27 60L72 161Q119 133 175 115.50Q231 98 301 98Q379 98 418 124Q457 150 463 191Q469 229 449 252Q429 275 372 283L268 300Q174 315 129.50 368.50Q85 422 98 506Q108 570 148 616.50Q188 663 253.50 689Q319 715 404 715Q475 715 535 696.50Q595 678 632 646L587 547Q550 575 501.50 591Q453 607 391 607Q319 607 276 580.50Q233 554 225 507Q218 468 239 442.50Q260 417 318 408L422 392Q518 377 561 326Q604 275 591 191Q582 133 543 87.50Q504 42 440.50 16Q377-10 291-10M359 765L262 924L342 924L419 834L513 924L593 924L468 765L359 765M384 963L398 1051L512 1051L499 963L384 963Z"  horiz-adv-x="645" vert-adv-y="1000"  />

      
      <glyph glyph-name="uni015E" unicode="&#x015E;" d="M291-10Q209-10 140.50 9.50Q72 29 27 60L72 161Q119 133 175 115.50Q231 98 301 98Q379 98 418 124Q457 150 463 191Q469 229 449 252Q429 275 372 283L268 300Q174 315 129.50 368.50Q85 422 98 506Q108 570 148 616.50Q188 663 253.50 689Q319 715 404 715Q475 715 535 696.50Q595 678 632 646L587 547Q550 575 501.50 591Q453 607 391 607Q319 607 276 580.50Q233 554 225 507Q218 468 239 442.50Q260 417 318 408L422 392Q518 377 561 326Q604 275 591 191Q582 133 543 87.50Q504 42 440.50 16Q377-10 291-10M268-195Q239-195 212.50-189.50Q186-184 168-174L191-118Q208-126 225.50-130.50Q243-135 264-135Q291-135 306-127Q321-119 321-103Q321-93 312.50-87.50Q304-82 286-82Q277-82 267.50-83Q258-84 244-88L227-70L255 20L321 20L297-56L266-45Q278-41 290-39Q302-37 312-37Q351-37 373.50-54Q396-71 396-103Q396-145 359.50-170Q323-195 268-195Z"  horiz-adv-x="645" vert-adv-y="1000"  />

      
      <glyph glyph-name="uni015C" unicode="&#x015C;" d="M291-10Q209-10 140.50 9.50Q72 29 27 60L72 161Q119 133 175 115.50Q231 98 301 98Q379 98 418 124Q457 150 463 191Q469 229 449 252Q429 275 372 283L268 300Q174 315 129.50 368.50Q85 422 98 506Q108 570 148 616.50Q188 663 253.50 689Q319 715 404 715Q475 715 535 696.50Q595 678 632 646L587 547Q550 575 501.50 591Q453 607 391 607Q319 607 276 580.50Q233 554 225 507Q218 468 239 442.50Q260 417 318 408L422 392Q518 377 561 326Q604 275 591 191Q582 133 543 87.50Q504 42 440.50 16Q377-10 291-10M228 765L370 939L477 939L584 765L497 765L418 869L315 765L228 765Z"  horiz-adv-x="645" vert-adv-y="1000"  />

      
      <glyph glyph-name="uni0218" unicode="&#x0218;" d="M291-10Q209-10 140.50 9.50Q72 29 27 60L72 161Q119 133 175 115.50Q231 98 301 98Q379 98 418 124Q457 150 463 191Q469 229 449 252Q429 275 372 283L268 300Q174 315 129.50 368.50Q85 422 98 506Q108 570 148 616.50Q188 663 253.50 689Q319 715 404 715Q475 715 535 696.50Q595 678 632 646L587 547Q550 575 501.50 591Q453 607 391 607Q319 607 276 580.50Q233 554 225 507Q218 468 239 442.50Q260 417 318 408L422 392Q518 377 561 326Q604 275 591 191Q582 133 543 87.50Q504 42 440.50 16Q377-10 291-10M253-278L215-242Q241-222 250-203.50Q259-185 263-160L288-175L196-175L213-73L344-73L331-149Q324-192 308-222.50Q292-253 253-278Z"  horiz-adv-x="645" vert-adv-y="1000"  />

      
      <glyph glyph-name="uni1E60" unicode="&#x1E60;" d="M291-10Q209-10 140.50 9.50Q72 29 27 60L72 161Q119 133 175 115.50Q231 98 301 98Q379 98 418 124Q457 150 463 191Q469 229 449 252Q429 275 372 283L268 300Q174 315 129.50 368.50Q85 422 98 506Q108 570 148 616.50Q188 663 253.50 689Q319 715 404 715Q475 715 535 696.50Q595 678 632 646L587 547Q550 575 501.50 591Q453 607 391 607Q319 607 276 580.50Q233 554 225 507Q218 468 239 442.50Q260 417 318 408L422 392Q518 377 561 326Q604 275 591 191Q582 133 543 87.50Q504 42 440.50 16Q377-10 291-10M356 794L374 910L495 910L477 794L356 794Z"  horiz-adv-x="645" vert-adv-y="1000"  />

      
      <glyph glyph-name="uni1E62" unicode="&#x1E62;" d="M291-10Q209-10 140.50 9.50Q72 29 27 60L72 161Q119 133 175 115.50Q231 98 301 98Q379 98 418 124Q457 150 463 191Q469 229 449 252Q429 275 372 283L268 300Q174 315 129.50 368.50Q85 422 98 506Q108 570 148 616.50Q188 663 253.50 689Q319 715 404 715Q475 715 535 696.50Q595 678 632 646L587 547Q550 575 501.50 591Q453 607 391 607Q319 607 276 580.50Q233 554 225 507Q218 468 239 442.50Q260 417 318 408L422 392Q518 377 561 326Q604 275 591 191Q582 133 543 87.50Q504 42 440.50 16Q377-10 291-10M196-204L215-88L337-88L318-204L196-204Z"  horiz-adv-x="645" vert-adv-y="1000"  />

      
      <glyph glyph-name="uni1E68" unicode="&#x1E68;" d="M291-10Q209-10 140.50 9.50Q72 29 27 60L72 161Q119 133 175 115.50Q231 98 301 98Q379 98 418 124Q457 150 463 191Q469 229 449 252Q429 275 372 283L268 300Q174 315 129.50 368.50Q85 422 98 506Q108 570 148 616.50Q188 663 253.50 689Q319 715 404 715Q475 715 535 696.50Q595 678 632 646L587 547Q550 575 501.50 591Q453 607 391 607Q319 607 276 580.50Q233 554 225 507Q218 468 239 442.50Q260 417 318 408L422 392Q518 377 561 326Q604 275 591 191Q582 133 543 87.50Q504 42 440.50 16Q377-10 291-10M196-204L215-88L337-88L318-204L196-204M356 794L374 910L495 910L477 794L356 794Z"  horiz-adv-x="645" vert-adv-y="1000"  />

      
      <glyph glyph-name="uni1E9E" unicode="&#x1E9E;" d="M401-10Q348-10 303.50 2.50Q259 15 220 40L268 132Q297 111 326.50 102Q356 93 392 93Q451 93 487 120.50Q523 148 530 194Q539 250 509.50 276.50Q480 303 415 303L297 303L312 403L395 403Q457 403 495.50 430Q534 457 542 507Q550 558 519.50 584.50Q489 611 423 611Q332 611 289 570.50Q246 530 232 447L162 0L38 0L109 450Q130 586 211 650.50Q292 715 437 715Q564 715 622.50 661Q681 607 667 515Q661 479 641 445.50Q621 412 588.50 387.50Q556 363 510 351L513 368Q588 355 626 306.50Q664 258 650 172Q637 87 569.50 38.50Q502-10 401-10Z"  horiz-adv-x="709" vert-adv-y="1000"  />

      
      <glyph glyph-name="uni018F" unicode="&#x018F;" d="M355-10Q241-10 173 37.50Q105 85 80.50 168Q56 251 72 359L79 404L631 404L615 304L160 304L200 353Q187 268 198 211Q209 154 248 125Q287 96 359 96Q455 96 515 158Q575 220 594 344Q614 470 568 537.50Q522 605 403 605Q339 605 284.50 589Q230 573 174 536L135 634Q194 674 264.50 694.50Q335 715 421 715Q538 715 611.50 668Q685 621 714 536.50Q743 452 725 339Q708 231 657 152.50Q606 74 529 32Q452-10 355-10Z"  horiz-adv-x="766" vert-adv-y="1000"  />

      
      <glyph glyph-name="uni54" unicode="&#x54;" d="M204 0L299 599L66 599L83 705L678 705L661 599L428 599L333 0L204 0Z"  horiz-adv-x="619" vert-adv-y="1000"  />

      
      <glyph glyph-name="uni0166" unicode="&#x0166;" d="M204 0L299 599L66 599L83 705L678 705L661 599L428 599L333 0L204 0M116 310L131 404L536 404L521 310L116 310Z"  horiz-adv-x="619" vert-adv-y="1000"  />

      
      <glyph glyph-name="uni0164" unicode="&#x0164;" d="M204 0L299 599L66 599L83 705L678 705L661 599L428 599L333 0L204 0M338 765L230 939L315 939L395 835L496 939L587 939L445 765L338 765Z"  horiz-adv-x="619" vert-adv-y="1000"  />

      
      <glyph glyph-name="uni0162" unicode="&#x0162;" d="M204 0L299 599L66 599L83 705L678 705L661 599L428 599L333 0L204 0M248-195Q219-195 192.50-189.50Q166-184 148-174L171-118Q188-126 205.50-130.50Q223-135 244-135Q271-135 286-127Q301-119 301-103Q301-93 292.50-87.50Q284-82 266-82Q257-82 247.50-83Q238-84 224-88L207-70L235 20L301 20L277-56L246-45Q258-41 270-39Q282-37 292-37Q331-37 353.50-54Q376-71 376-103Q376-145 339.50-170Q303-195 248-195Z"  horiz-adv-x="619" vert-adv-y="1000"  />

      
      <glyph glyph-name="uni021A" unicode="&#x021A;" d="M204 0L299 599L66 599L83 705L678 705L661 599L428 599L333 0L204 0M233-278L195-242Q221-222 230-203.50Q239-185 243-160L268-175L176-175L193-73L324-73L311-149Q304-192 288-222.50Q272-253 233-278Z"  horiz-adv-x="619" vert-adv-y="1000"  />

      
      <glyph glyph-name="uni1E6C" unicode="&#x1E6C;" d="M204 0L299 599L66 599L83 705L678 705L661 599L428 599L333 0L204 0M176-204L195-88L317-88L298-204L176-204Z"  horiz-adv-x="619" vert-adv-y="1000"  />

      
      <glyph glyph-name="uni1E6E" unicode="&#x1E6E;" d="M204 0L299 599L66 599L83 705L678 705L661 599L428 599L333 0L204 0M86-165L98-91L414-91L402-165L86-165Z"  horiz-adv-x="619" vert-adv-y="1000"  />

      
      <glyph glyph-name="uni55" unicode="&#x55;" d="M340-10Q246-10 182 23.50Q118 57 91 124Q64 191 80 293L146 705L275 705L209 288Q194 195 227 147.50Q260 100 353 100Q436 100 483.50 145Q531 190 547 290L613 705L740 705L673 284Q657 184 616 119Q575 54 506.50 22Q438-10 340-10Z"  horiz-adv-x="740" vert-adv-y="1000"  />

      
      <glyph glyph-name="unida" unicode="&#xda;" d="M340-10Q246-10 182 23.50Q118 57 91 124Q64 191 80 293L146 705L275 705L209 288Q194 195 227 147.50Q260 100 353 100Q436 100 483.50 145Q531 190 547 290L613 705L740 705L673 284Q657 184 616 119Q575 54 506.50 22Q438-10 340-10M410 765L540 939L673 939L499 765L410 765Z"  horiz-adv-x="740" vert-adv-y="1000"  />

      
      <glyph glyph-name="uni016C" unicode="&#x016C;" d="M340-10Q246-10 182 23.50Q118 57 91 124Q64 191 80 293L146 705L275 705L209 288Q194 195 227 147.50Q260 100 353 100Q436 100 483.50 145Q531 190 547 290L613 705L740 705L673 284Q657 184 616 119Q575 54 506.50 22Q438-10 340-10M456 760Q405 760 367 781.50Q329 803 308 841.50Q287 880 287 930L358 939Q357 890 385 862.50Q413 835 461 835Q509 835 541 862.50Q573 890 582 939L652 930Q640 852 587 806Q534 760 456 760Z"  horiz-adv-x="740" vert-adv-y="1000"  />

      
      <glyph glyph-name="unidb" unicode="&#xdb;" d="M340-10Q246-10 182 23.50Q118 57 91 124Q64 191 80 293L146 705L275 705L209 288Q194 195 227 147.50Q260 100 353 100Q436 100 483.50 145Q531 190 547 290L613 705L740 705L673 284Q657 184 616 119Q575 54 506.50 22Q438-10 340-10M269 765L411 939L518 939L625 765L538 765L459 869L356 765L269 765Z"  horiz-adv-x="740" vert-adv-y="1000"  />

      
      <glyph glyph-name="uni0214" unicode="&#x0214;" d="M340-10Q246-10 182 23.50Q118 57 91 124Q64 191 80 293L146 705L275 705L209 288Q194 195 227 147.50Q260 100 353 100Q436 100 483.50 145Q531 190 547 290L613 705L740 705L673 284Q657 184 616 119Q575 54 506.50 22Q438-10 340-10M492 765L380 939L492 939L562 765L492 765M345 765L224 939L335 939L416 765L345 765Z"  horiz-adv-x="740" vert-adv-y="1000"  />

      
      <glyph glyph-name="unidc" unicode="&#xdc;" d="M340-10Q246-10 182 23.50Q118 57 91 124Q64 191 80 293L146 705L275 705L209 288Q194 195 227 147.50Q260 100 353 100Q436 100 483.50 145Q531 190 547 290L613 705L740 705L673 284Q657 184 616 119Q575 54 506.50 22Q438-10 340-10M494 790L512 905L627 905L608 790L494 790M305 790L323 905L438 905L420 790L305 790Z"  horiz-adv-x="740" vert-adv-y="1000"  />

      
      <glyph glyph-name="uni1EE4" unicode="&#x1EE4;" d="M340-10Q246-10 182 23.50Q118 57 91 124Q64 191 80 293L146 705L275 705L209 288Q194 195 227 147.50Q260 100 353 100Q436 100 483.50 145Q531 190 547 290L613 705L740 705L673 284Q657 184 616 119Q575 54 506.50 22Q438-10 340-10M238-204L257-88L379-88L360-204L238-204Z"  horiz-adv-x="740" vert-adv-y="1000"  />

      
      <glyph glyph-name="unid9" unicode="&#xd9;" d="M340-10Q246-10 182 23.50Q118 57 91 124Q64 191 80 293L146 705L275 705L209 288Q194 195 227 147.50Q260 100 353 100Q436 100 483.50 145Q531 190 547 290L613 705L740 705L673 284Q657 184 616 119Q575 54 506.50 22Q438-10 340-10M409 765L264 939L393 939L498 765L409 765Z"  horiz-adv-x="740" vert-adv-y="1000"  />

      
      <glyph glyph-name="uni1EE6" unicode="&#x1EE6;" d="M340-10Q246-10 182 23.50Q118 57 91 124Q64 191 80 293L146 705L275 705L209 288Q194 195 227 147.50Q260 100 353 100Q436 100 483.50 145Q531 190 547 290L613 705L740 705L673 284Q657 184 616 119Q575 54 506.50 22Q438-10 340-10M415 765L418 783Q421 801 431 812.50Q441 824 453 832.50Q465 841 473.50 848.50Q482 856 482 867Q482 876 471.50 880.50Q461 885 443 885Q427 885 412.50 882Q398 879 381 872L366 925Q410 946 477 946Q524 946 550 930Q576 914 576 886Q576 862 564.50 848.50Q553 835 537 826Q521 817 508.50 806Q496 795 494 777L492 765L415 765Z"  horiz-adv-x="740" vert-adv-y="1000"  />

      
      <glyph glyph-name="uni01AF" unicode="&#x01AF;" d="M340-10Q246-10 182 23.50Q118 57 91 124Q64 191 80 293L146 705L275 705L209 288Q194 195 227 147.50Q260 100 353 100Q436 100 483.50 145Q531 190 547 290L613 705L740 705L673 284Q657 184 616 119Q575 54 506.50 22Q438-10 340-10M722 641L655 686L658 705Q694 706 716 715Q738 724 751 746.50Q764 769 770 809L773 832L883 832L877 793Q867 729 826.50 688Q786 647 722 641Z"  horiz-adv-x="740" vert-adv-y="1000"  />

      
      <glyph glyph-name="uni1EE8" unicode="&#x1EE8;" d="M340-10Q246-10 182 23.50Q118 57 91 124Q64 191 80 293L146 705L275 705L209 288Q194 195 227 147.50Q260 100 353 100Q436 100 483.50 145Q531 190 547 290L613 705L740 705L673 284Q657 184 616 119Q575 54 506.50 22Q438-10 340-10M722 641L655 686L658 705Q694 706 716 715Q738 724 751 746.50Q764 769 770 809L773 832L883 832L877 793Q867 729 826.50 688Q786 647 722 641M419 765L549 939L682 939L508 765L419 765Z"  horiz-adv-x="740" vert-adv-y="1000"  />

      
      <glyph glyph-name="uni1EF0" unicode="&#x1EF0;" d="M340-10Q246-10 182 23.50Q118 57 91 124Q64 191 80 293L146 705L275 705L209 288Q194 195 227 147.50Q260 100 353 100Q436 100 483.50 145Q531 190 547 290L613 705L740 705L673 284Q657 184 616 119Q575 54 506.50 22Q438-10 340-10M722 641L655 686L658 705Q694 706 716 715Q738 724 751 746.50Q764 769 770 809L773 832L883 832L877 793Q867 729 826.50 688Q786 647 722 641M247-204L266-88L388-88L369-204L247-204Z"  horiz-adv-x="740" vert-adv-y="1000"  />

      
      <glyph glyph-name="uni1EEA" unicode="&#x1EEA;" d="M340-10Q246-10 182 23.50Q118 57 91 124Q64 191 80 293L146 705L275 705L209 288Q194 195 227 147.50Q260 100 353 100Q436 100 483.50 145Q531 190 547 290L613 705L740 705L673 284Q657 184 616 119Q575 54 506.50 22Q438-10 340-10M722 641L655 686L658 705Q694 706 716 715Q738 724 751 746.50Q764 769 770 809L773 832L883 832L877 793Q867 729 826.50 688Q786 647 722 641M418 765L273 939L402 939L507 765L418 765Z"  horiz-adv-x="740" vert-adv-y="1000"  />

      
      <glyph glyph-name="uni1EEC" unicode="&#x1EEC;" d="M340-10Q246-10 182 23.50Q118 57 91 124Q64 191 80 293L146 705L275 705L209 288Q194 195 227 147.50Q260 100 353 100Q436 100 483.50 145Q531 190 547 290L613 705L740 705L673 284Q657 184 616 119Q575 54 506.50 22Q438-10 340-10M722 641L655 686L658 705Q694 706 716 715Q738 724 751 746.50Q764 769 770 809L773 832L883 832L877 793Q867 729 826.50 688Q786 647 722 641M424 765L427 783Q430 801 440 812.50Q450 824 462 832.50Q474 841 482.50 848.50Q491 856 491 867Q491 876 480.50 880.50Q470 885 452 885Q436 885 421.50 882Q407 879 390 872L375 925Q419 946 486 946Q533 946 559 930Q585 914 585 886Q585 862 573.50 848.50Q562 835 546 826Q530 817 517.50 806Q505 795 503 777L501 765L424 765Z"  horiz-adv-x="740" vert-adv-y="1000"  />

      
      <glyph glyph-name="uni1EEE" unicode="&#x1EEE;" d="M340-10Q246-10 182 23.50Q118 57 91 124Q64 191 80 293L146 705L275 705L209 288Q194 195 227 147.50Q260 100 353 100Q436 100 483.50 145Q531 190 547 290L613 705L740 705L673 284Q657 184 616 119Q575 54 506.50 22Q438-10 340-10M722 641L655 686L658 705Q694 706 716 715Q738 724 751 746.50Q764 769 770 809L773 832L883 832L877 793Q867 729 826.50 688Q786 647 722 641M320 772L258 776Q268 847 303.50 885.50Q339 924 392 924Q421 924 440.50 913Q460 902 477 888Q492 876 506.50 867Q521 858 540 858Q594 858 611 928L673 924Q663 853 628 814.50Q593 776 540 776Q511 776 490.50 788Q470 800 453 813Q438 824 423 833Q408 842 391 842Q337 842 320 772Z"  horiz-adv-x="740" vert-adv-y="1000"  />

      
      <glyph glyph-name="uni0170" unicode="&#x0170;" d="M340-10Q246-10 182 23.50Q118 57 91 124Q64 191 80 293L146 705L275 705L209 288Q194 195 227 147.50Q260 100 353 100Q436 100 483.50 145Q531 190 547 290L613 705L740 705L673 284Q657 184 616 119Q575 54 506.50 22Q438-10 340-10M345 765L446 939L558 939L416 765L345 765M492 765L602 939L714 939L563 765L492 765Z"  horiz-adv-x="740" vert-adv-y="1000"  />

      
      <glyph glyph-name="uni0216" unicode="&#x0216;" d="M340-10Q246-10 182 23.50Q118 57 91 124Q64 191 80 293L146 705L275 705L209 288Q194 195 227 147.50Q260 100 353 100Q436 100 483.50 145Q531 190 547 290L613 705L740 705L673 284Q657 184 616 119Q575 54 506.50 22Q438-10 340-10M339 760L268 769Q280 848 333.50 893.50Q387 939 465 939Q516 939 554 918Q592 897 613 858.50Q634 820 634 769L562 760Q563 810 535.50 837.50Q508 865 460 865Q412 865 379.50 837.50Q347 810 339 760Z"  horiz-adv-x="740" vert-adv-y="1000"  />

      
      <glyph glyph-name="uni016A" unicode="&#x016A;" d="M340-10Q246-10 182 23.50Q118 57 91 124Q64 191 80 293L146 705L275 705L209 288Q194 195 227 147.50Q260 100 353 100Q436 100 483.50 145Q531 190 547 290L613 705L740 705L673 284Q657 184 616 119Q575 54 506.50 22Q438-10 340-10M287 806L298 880L644 880L632 806L287 806Z"  horiz-adv-x="740" vert-adv-y="1000"  />

      
      <glyph glyph-name="uni1E7A" unicode="&#x1E7A;" d="M340-10Q246-10 182 23.50Q118 57 91 124Q64 191 80 293L146 705L275 705L209 288Q194 195 227 147.50Q260 100 353 100Q436 100 483.50 145Q531 190 547 290L613 705L740 705L673 284Q657 184 616 119Q575 54 506.50 22Q438-10 340-10M299 788L311 862L626 862L615 788L299 788M325 911L338 998L453 998L440 911L325 911M514 911L527 998L642 998L628 911L514 911Z"  horiz-adv-x="740" vert-adv-y="1000"  />

      
      <glyph glyph-name="uni0172" unicode="&#x0172;" d="M340-10Q246-10 182 23.50Q118 57 91 124Q64 191 80 293L146 705L275 705L209 288Q194 195 227 147.50Q260 100 353 100Q436 100 483.50 145Q531 190 547 290L613 705L740 705L673 284Q657 184 616 119Q575 54 506.50 22Q438-10 340-10M381-195Q330-195 302.50-169.50Q275-144 275-101Q275-53 307-15Q339 23 388 42L421 0Q386-14 370-36Q354-58 354-81Q354-102 368-115Q382-128 405-128Q419-128 431.50-125Q444-122 459-117L471-179Q447-186 426-190.50Q405-195 381-195Z"  horiz-adv-x="740" vert-adv-y="1000"  />

      
      <glyph glyph-name="uni016E" unicode="&#x016E;" d="M340-10Q246-10 182 23.50Q118 57 91 124Q64 191 80 293L146 705L275 705L209 288Q194 195 227 147.50Q260 100 353 100Q436 100 483.50 145Q531 190 547 290L613 705L740 705L673 284Q657 184 616 119Q575 54 506.50 22Q438-10 340-10M467 755Q432 755 403 771.50Q374 788 357.50 816Q341 844 341 878Q341 913 357.50 940.50Q374 968 403 984Q432 1000 467 1000Q503 1000 531.50 984Q560 968 576.50 940.50Q593 913 593 878Q593 844 576.50 816Q560 788 531.50 771.50Q503 755 467 755M467 812Q496 812 514 831Q532 850 532 878Q532 906 514 924.50Q496 943 467 943Q439 943 420.50 924.50Q402 906 402 878Q402 850 420.50 831Q439 812 467 812Z"  horiz-adv-x="740" vert-adv-y="1000"  />

      
      <glyph glyph-name="uni0168" unicode="&#x0168;" d="M340-10Q246-10 182 23.50Q118 57 91 124Q64 191 80 293L146 705L275 705L209 288Q194 195 227 147.50Q260 100 353 100Q436 100 483.50 145Q531 190 547 290L613 705L740 705L673 284Q657 184 616 119Q575 54 506.50 22Q438-10 340-10M291 772L229 776Q240 847 277.50 885.50Q315 924 370 924Q400 924 426 912.50Q452 901 475 887Q495 876 513 867Q531 858 550 858Q606 858 624 928L686 924Q675 853 638 814.50Q601 776 546 776Q516 776 490 788Q464 800 441 813Q421 824 402.50 833Q384 842 365 842Q309 842 291 772Z"  horiz-adv-x="740" vert-adv-y="1000"  />

      
      <glyph glyph-name="uni1E78" unicode="&#x1E78;" d="M340-10Q246-10 182 23.50Q118 57 91 124Q64 191 80 293L146 705L275 705L209 288Q194 195 227 147.50Q260 100 353 100Q436 100 483.50 145Q531 190 547 290L613 705L740 705L673 284Q657 184 616 119Q575 54 506.50 22Q438-10 340-10M435 894L520 1026L640 1026L513 894L435 894M530 767Q508 767 488.50 775Q469 783 451 791Q437 799 423.50 805Q410 811 396 811Q373 811 360 800Q347 789 341 766L283 769Q291 823 321 850Q351 877 397 877Q418 877 437.50 869.50Q457 862 475 853Q489 846 503 839.50Q517 833 530 833Q553 833 565.50 844Q578 855 585 878L643 875Q635 821 604.50 794Q574 767 530 767Z"  horiz-adv-x="740" vert-adv-y="1000"  />

      
      <glyph glyph-name="uni56" unicode="&#x56;" d="M266 0L65 705L198 705L357 113L316 113L662 705L801 705L375 0L266 0Z"  horiz-adv-x="721" vert-adv-y="1000"  />

      
      <glyph glyph-name="uni57" unicode="&#x57;" d="M234 0L97 705L226 705L326 127L286 127L585 705L681 705L781 127L744 127L1037 705L1168 705L805 0L698 0L598 542L619 542L341 0L234 0Z"  horiz-adv-x="1121" vert-adv-y="1000"  />

      
      <glyph glyph-name="uni1E82" unicode="&#x1E82;" d="M234 0L97 705L226 705L326 127L286 127L585 705L681 705L781 127L744 127L1037 705L1168 705L805 0L698 0L598 542L619 542L341 0L234 0M599 765L729 939L862 939L688 765L599 765Z"  horiz-adv-x="1121" vert-adv-y="1000"  />

      
      <glyph glyph-name="uni0174" unicode="&#x0174;" d="M234 0L97 705L226 705L326 127L286 127L585 705L681 705L781 127L744 127L1037 705L1168 705L805 0L698 0L598 542L619 542L341 0L234 0M458 765L600 939L707 939L814 765L727 765L648 869L545 765L458 765Z"  horiz-adv-x="1121" vert-adv-y="1000"  />

      
      <glyph glyph-name="uni1E84" unicode="&#x1E84;" d="M234 0L97 705L226 705L326 127L286 127L585 705L681 705L781 127L744 127L1037 705L1168 705L805 0L698 0L598 542L619 542L341 0L234 0M683 790L701 905L816 905L797 790L683 790M494 790L512 905L627 905L609 790L494 790Z"  horiz-adv-x="1121" vert-adv-y="1000"  />

      
      <glyph glyph-name="uni1E80" unicode="&#x1E80;" d="M234 0L97 705L226 705L326 127L286 127L585 705L681 705L781 127L744 127L1037 705L1168 705L805 0L698 0L598 542L619 542L341 0L234 0M598 765L453 939L582 939L687 765L598 765Z"  horiz-adv-x="1121" vert-adv-y="1000"  />

      
      </font>
</defs>
</svg>
